<?xml version="1.0" encoding="UTF-8"?>
<svg width="22px" height="30px" viewBox="0 0 22 30" version="1.1" xmlns="http://www.w3.org/2000/svg" xmlns:xlink="http://www.w3.org/1999/xlink">
    <!-- Generator: Sketch 50.2 (55047) - http://www.bohemiancoding.com/sketch -->
    <title>it-codice</title>
    <desc>Created with Sketch.</desc>
    <defs></defs>
    <g id="Icons" stroke="none" stroke-width="1" fill="none" fill-rule="evenodd">
        <path d="M14.0191951,1 L14.5377136,1 L20.7599358,8.25925926 L20.7599358,26.9259259 C20.7599358,27.5092622 20.5600905,28.0007696 20.1603998,28.4004632 C19.760705,28.8001563 19.2691992,29 18.6858617,29 L3.13030617,29 C2.54696993,29 2.05546249,28.7947551 1.65576892,28.3842593 C1.25607577,27.9737635 1.05623209,27.4876569 1.05623209,26.9259259 L1.05623209,3.07407407 C1.05623209,2.5123443 1.26147695,2.02623526 1.67197283,1.61574281 C2.0824686,1.20524622 2.56857515,1 3.13030617,1 L14.0191951,1 Z M13.5006765,2.03703704 L3.13030617,2.03703704 C2.84944045,2.03703704 2.60638759,2.13965807 2.40113971,2.34490844 C2.19589141,2.55015467 2.09326913,2.79320711 2.09326913,3.07407407 L2.09326913,26.9259259 C2.09326913,27.2067916 2.19589141,27.4498445 2.40113971,27.6550924 C2.60638759,27.8603407 2.84944045,27.962963 3.13030617,27.962963 L18.6858617,27.962963 C18.9667287,27.962963 19.2097811,27.8603407 19.4150274,27.6550924 C19.6202777,27.4498445 19.7228988,27.2067916 19.7228988,26.9259259 L19.7228988,9.2962963 L15.5747506,9.2962963 C14.9914131,9.2962963 14.4999074,9.09645096 14.1002125,8.6967603 C13.7005219,8.29706548 13.5006765,7.8055597 13.5006765,7.22222222 L13.5006765,2.03703704 Z M14.5377136,2.55555556 L14.5377136,7.22222222 C14.5377136,7.50308919 14.6403346,7.74614163 14.845585,7.95138785 C15.0508312,8.15663822 15.2938836,8.25925926 15.5747506,8.25925926 L19.3988247,8.25925926 L14.5377136,2.55555556 Z M11.4266025,16.5555556 L9.35252839,24.8518519 L10.3895654,24.8518519 L12.4636395,16.5555556 L11.4266025,16.5555556 Z M7.27845432,23.8148148 L4.1673432,20.7037037 L7.27845432,17.5925926 L7.99141728,18.3055556 L5.62567446,20.7037037 L7.99141728,23.1018519 L7.27845432,23.8148148 Z M14.5377136,23.8148148 L17.6488247,20.7037037 L14.5377136,17.5925926 L13.8247506,18.3055556 L16.1904934,20.7037037 L13.8247506,23.1018519 L14.5377136,23.8148148 Z" id="it-codice" stroke="#0066CC" stroke-width="0.6" fill="#0066CC"></path>
    </g>
</svg>