<?xml version="1.0" encoding="UTF-8"?>
<svg width="13px" height="12px" viewBox="0 0 13 12" version="1.1" xmlns="http://www.w3.org/2000/svg" xmlns:xlink="http://www.w3.org/1999/xlink">
    <!-- Generator: Sketch 50.2 (55047) - http://www.bohemiancoding.com/sketch -->
    <title>it-check</title>
    <desc>Created with Sketch.</desc>
    <defs></defs>
    <g id="Icons" stroke="none" stroke-width="1" fill="none" fill-rule="evenodd">
        <path d="M11.4504785,4.95846612 C11.2800839,4.95846612 11.145899,5.00958432 11.0479222,5.11182074 C10.9499453,5.21405879 10.9009569,5.34611225 10.9009569,5.50798766 L10.9009569,5.99361063 C10.9009569,6.67519055 10.773163,7.3141616 10.517572,7.91054341 C10.2619793,8.50692522 9.91267429,9.02662154 9.4696471,9.46964873 C9.02662154,9.91267593 8.50692522,10.2619793 7.91054341,10.517572 C7.31415996,10.7731643 6.67518891,10.9009585 5.993609,10.9009585 C5.993609,10.9009585 5.993609,10.9009585 5.993609,10.9009585 C5.993609,10.9009585 5.993609,10.9009585 5.993609,10.9009585 C5.31203072,10.9009585 4.67305967,10.7731643 4.07667786,10.517572 C3.48029441,10.2619793 2.96059809,9.91267593 2.5175709,9.46964873 C2.07454534,9.02662154 1.72524032,8.50692522 1.46964846,7.91054341 C1.21405612,7.3141616 1.08626191,6.67519055 1.08626191,5.99361063 C1.08626191,5.31203072 1.21405612,4.67305967 1.46964846,4.07667786 C1.72524032,3.48029604 2.07454534,2.96059972 2.5175709,2.51757253 C2.96059809,2.07454534 3.48029441,1.72524195 4.07667786,1.46964928 C4.67305967,1.21405661 5.31203072,1.08626272 5.993609,1.08626272 C5.993609,1.08626272 5.993609,1.08626272 5.993609,1.08626272 C5.993609,1.08626272 5.993609,1.08626272 5.993609,1.08626272 C6.35143972,1.08626272 6.69435374,1.12460056 7.02236415,1.20127951 C7.35037455,1.27795682 7.6805082,1.38445118 8.01277982,1.52076749 C8.1490945,1.58040649 8.28753896,1.58466606 8.42811485,1.53354622 C8.56869074,1.48242801 8.66453615,1.38871239 8.71565436,1.25239772 C8.77529336,1.11608141 8.77955294,0.977636943 8.72843473,0.837061055 C8.67731488,0.696485167 8.58359926,0.600639755 8.44728295,0.549521547 C8.06389476,0.379126977 7.66773274,0.244942092 7.25878545,0.146965255 C6.84983815,0.0489884184 6.42811703,0 5.993609,0 C5.993609,0 5.993609,0 5.993609,0 C5.993609,0 5.993609,0 5.993609,0 C5.15867446,0 4.37913079,0.1576142 3.65495183,0.472844236 C2.9222537,0.779555116 2.28541244,1.20553582 1.74440842,1.75079942 C1.20340505,2.29606303 0.775294393,2.9307745 0.460063866,3.65495346 C0.153353084,4.38764995 0,5.16719525 0,5.99361063 C0,6.82854517 0.153353084,7.60809047 0.460063866,8.3322678 C0.775294393,9.06496593 1.20340505,9.70180719 1.74440842,10.2428112 C2.28541244,10.7838154 2.9222537,11.2119261 3.65495183,11.5271566 C4.37913079,11.8423871 5.15867446,12 5.993609,12 C5.993609,12 5.993609,12 5.993609,12 C5.993609,12 5.993609,12 5.993609,12 C6.82854517,12 7.60808884,11.8423871 8.3322678,11.5271566 C9.06496593,11.2119261 9.70180719,10.7838154 10.2428112,10.2428112 C10.7838152,9.70180719 11.2119257,9.06496593 11.5271558,8.3322678 C11.8338666,7.60809047 11.9872196,6.82854517 11.9872196,5.99361063 L11.9872196,5.50798766 C11.9872196,5.34611225 11.9382312,5.21405879 11.8402544,5.11182074 C11.7422775,5.00958432 11.6123539,4.95846612 11.4504785,4.95846612 Z M12.3706062,0.702876169 C12.259849,0.600639755 12.1320551,0.549521547 11.9872196,0.549521547 C11.8423842,0.549521547 11.7145903,0.600639755 11.6038331,0.702876169 L5.993609,6.32587898 L4.74121455,5.0734829 C4.63045735,4.96272569 4.50266346,4.90734791 4.35782636,4.90734791 C4.21299089,4.90734791 4.08519701,4.96272569 3.97444144,5.0734829 C3.86368424,5.18424011 3.80830645,5.31203399 3.80830645,5.45686946 C3.80830645,5.60170492 3.86368424,5.7294988 3.97444144,5.84025601 L5.61022408,7.47603865 C5.66986144,7.52715685 5.73588817,7.56549469 5.8083059,7.59105543 C5.88072364,7.61661454 5.94249079,7.62939327 5.993609,7.62939327 C6.04472884,7.62939327 6.10649599,7.61661454 6.17891373,7.59105543 C6.25133146,7.56549469 6.31735819,7.52715685 6.37699719,7.47603865 L12.3706062,1.46964928 C12.4813634,1.35889207 12.5367395,1.23109819 12.5367395,1.08626272 C12.5367395,0.941427259 12.4813634,0.813633376 12.3706062,0.702876169 Z" id="it-check" fill="#0066CC"></path>
    </g>
</svg>