<?xml version="1.0" encoding="UTF-8"?>
<svg width="25px" height="20px" viewBox="0 0 25 20" version="1.1" xmlns="http://www.w3.org/2000/svg" xmlns:xlink="http://www.w3.org/1999/xlink">
    <!-- Generator: Sketch 50.2 (55047) - http://www.bohemiancoding.com/sketch -->
    <title>it-gallery</title>
    <desc>Created with Sketch.</desc>
    <defs></defs>
    <g id="Icons" stroke="none" stroke-width="1" fill="none" fill-rule="evenodd">
        <path d="M23.0023362,4 L20.0023362,4 C19.9398372,4 19.8538992,3.984376 19.7445222,3.953125 C19.6351482,3.921874 19.4476512,3.781252 19.1820222,3.53125 C18.9163962,3.281248 18.6898362,2.937502 18.5023362,2.5 C18.0648342,1.499995 17.5648392,1 17.0023362,1 L11.0023362,1 C10.4085822,1 9.90858724,1.499995 9.50233624,2.5 C9.31483624,2.937502 9.09608824,3.281248 8.84608624,3.53125 C8.59608424,3.781252 8.39296324,3.921874 8.23671124,3.953125 L8.00233624,4 L6.50233624,4 C6.50233624,3.593749 6.35389924,3.242188 6.05702224,2.945314 C5.76014824,2.648437 5.40858724,2.5 5.00233624,2.5 L3.50233624,2.5 C3.09608434,2.5 2.74452514,2.648437 2.44764874,2.945314 C2.15077234,3.242188 2.00233624,3.593749 2.00233624,4 C1.59608434,4 1.24452514,4.148437 0.947648739,4.445314 C0.650772249,4.742188 0.502336239,5.093749 0.502336239,5.5 L0.502336239,17.5 C0.502336239,17.9062519 0.650772249,18.2578111 0.947648739,18.5546875 C1.24452514,18.851564 1.59608434,19 2.00233624,19 L23.0023362,19 C23.4085872,19 23.7601482,18.851564 24.0570222,18.5546875 C24.3538992,18.2578111 24.5023362,17.9062519 24.5023362,17.5 L24.5023362,11.3125 L24.5023362,10 L24.5023362,5.5 C24.5023362,5.093749 24.3538992,4.742188 24.0570222,4.445314 C23.7601482,4.148437 23.4085872,4 23.0023362,4 Z M23.0023362,17.5 L2.00233624,17.5 L2.00233624,11.5 L8.84608624,11.5 C9.03358624,12.781255 9.61170724,13.851559 10.5804612,14.710936 C11.5492152,15.570316 12.6898302,16 14.0023362,16 C15.3460932,16 16.5101442,15.54688 17.4945222,14.640625 C18.4789032,13.73437 19.0492092,12.625006 19.2054612,11.3125 L23.0023362,11.3125 L23.0023362,17.5 Z M10.2523362,10.75 C10.2523362,9.718744 10.6195212,8.83594 11.3539002,8.101564 C12.0882762,7.367185 12.9710802,7 14.0023362,7 C15.0335922,7 15.9163962,7.367185 16.6507722,8.101564 C17.3851512,8.83594 17.7523362,9.718744 17.7523362,10.75 C17.7523362,11.781256 17.3851512,12.66406 16.6507722,13.398436 C15.9163962,14.132815 15.0335922,14.5 14.0023362,14.5 C12.9710802,14.5 12.0882762,14.132815 11.3539002,13.398436 C10.6195212,12.66406 10.2523362,11.781256 10.2523362,10.75 Z M19.1585862,10 C18.9710862,8.718745 18.3929652,7.648441 17.4242112,6.789064 C16.4554572,5.929684 15.3148422,5.5 14.0023362,5.5 C12.6898302,5.5 11.5492152,5.929684 10.5804612,6.789064 C9.61170724,7.648441 9.03358624,8.718745 8.84608624,10 L2.00233624,10 L2.00233624,5.5 L3.50233624,5.5 L5.00233624,5.5 L8.00233624,5.5 C8.50233724,5.5 9.02577124,5.296876 9.57265024,4.890625 C10.1195262,4.484374 10.5648342,3.875005 10.9085862,3.0625 C11.0023362,2.812498 11.0804622,2.625001 11.1429612,2.5 L16.8617112,2.5 C16.9242102,2.625001 17.0179602,2.812498 17.1429612,3.0625 C17.4242112,3.781255 17.7913962,4.335937 18.2445222,4.726564 C18.6976512,5.117188 19.0492092,5.343751 19.2992112,5.40625 C19.5492132,5.468749 19.7835852,5.5 20.0023362,5.5 L23.0023362,5.5 L23.0023362,10 L19.1585862,10 Z" id="it-gallery" stroke="#FFFFFF" stroke-width="0.3" fill="#0066CC"></path>
    </g>
</svg>