<?xml version="1.0" encoding="UTF-8"?>
<svg width="17px" height="16px" viewBox="0 0 17 16" version="1.1" xmlns="http://www.w3.org/2000/svg" xmlns:xlink="http://www.w3.org/1999/xlink">
    <!-- Generator: Sketch 50.2 (55047) - http://www.bohemiancoding.com/sketch -->
    <title>it-print</title>
    <desc>Created with Sketch.</desc>
    <defs></defs>
    <g id="Icons" stroke="none" stroke-width="1" fill="none" fill-rule="evenodd">
        <path d="M15.4724,5 L14.4724,5 L14.4724,1 C14.4724,0.729166 14.373442,0.494792 14.175524,0.296876 C13.977608,0.098958 13.743234,0 13.4724,0 L3.47239998,0 C3.20156598,0 2.96719198,0.098958 2.76927598,0.296876 C2.57135798,0.494792 2.47239998,0.729166 2.47239998,1 L2.47239998,5 L1.47239998,5 C1.20156538,5 0.967192584,5.098958 0.769274984,5.296876 C0.571357324,5.494792 0.472399984,5.729166 0.472399984,6 L0.472399984,11 C0.472399984,11.270834 0.571357324,11.505208 0.769274984,11.703124 C0.967192584,11.901042 1.20156538,12 1.47239998,12 L2.47239998,12 L2.47239998,15 C2.47239998,15.2708346 2.57135798,15.5052074 2.76927598,15.703125 C2.96719198,15.9010427 3.20156598,16 3.47239998,16 L13.4724,16 C13.743234,16 13.977608,15.9010427 14.175524,15.703125 C14.373442,15.5052074 14.4724,15.2708346 14.4724,15 L14.4724,12 L15.4724,12 C15.743234,12 15.977608,11.901042 16.175524,11.703124 C16.373442,11.505208 16.4724,11.270834 16.4724,11 L16.4724,6 C16.4724,5.729166 16.373442,5.494792 16.175524,5.296876 C15.977608,5.098958 15.743234,5 15.4724,5 Z M3.47239998,10 L13.4724,10 L13.4724,15 L3.47239998,15 L3.47239998,10 Z M13.4724,9 L3.47239998,9 C3.20156598,9 2.96719198,9.098958 2.76927598,9.296876 C2.57135798,9.494792 2.47239998,9.729166 2.47239998,10 L2.47239998,11 L1.47239998,11 L1.47239998,6 L15.4724,6 L15.4724,11 L14.4724,11 L14.4724,10 C14.4724,9.729166 14.373442,9.494792 14.175524,9.296876 C13.977608,9.098958 13.743234,9 13.4724,9 Z M3.47239998,1 L13.4724,1 L13.4724,5 L3.47239998,5 L3.47239998,1 Z M12.4724,12.5 C12.4724,12.354166 12.425526,12.234376 12.331776,12.140624 C12.238024,12.046874 12.118234,12 11.9724,12 L4.97239998,12 C4.82656598,12 4.70677598,12.046874 4.61302398,12.140624 C4.51927398,12.234376 4.47239998,12.354166 4.47239998,12.5 C4.47239998,12.645834 4.51927398,12.765624 4.61302398,12.859376 C4.70677598,12.953126 4.82656598,13 4.97239998,13 L11.9724,13 C12.118234,13 12.238024,12.953126 12.331776,12.859376 C12.425526,12.765624 12.4724,12.645834 12.4724,12.5 Z" id="it-print" fill="#0066CC"></path>
    </g>
</svg>