<?xml version="1.0" encoding="UTF-8"?>
<svg width="15px" height="17px" viewBox="0 0 15 17" version="1.1" xmlns="http://www.w3.org/2000/svg" xmlns:xlink="http://www.w3.org/1999/xlink">
    <!-- Generator: Sketch 50.2 (55047) - http://www.bohemiancoding.com/sketch -->
    <title>it-share</title>
    <desc>Created with Sketch.</desc>
    <defs></defs>
    <g id="Icons" stroke="none" stroke-width="1" fill="none" fill-rule="evenodd">
        <path d="M11.6031535,10.5981389 C11.2280142,10.5981389 10.8743181,10.6758449 10.5420508,10.831259 C10.2097856,10.986673 9.92575738,11.1876386 9.68995586,11.4341576 L6.04041163,9.29587794 C6.04041163,9.15654218 6.05381056,9.03060535 6.08060638,8.91806334 C6.10740219,8.80552133 6.12079907,8.6795845 6.12079907,8.54024668 C6.12079907,8.41162842 6.10472282,8.28836891 6.07256825,8.1704702 C6.04041163,8.05256944 6.00825912,7.92395118 5.9761025,7.78461541 L9.60957047,5.66241408 C9.88824406,5.9089331 10.1963887,6.10721719 10.5340127,6.25727252 C10.8716387,6.40732784 11.2280142,6.48235448 11.6031535,6.48235448 C12.3534302,6.48235448 12.9991947,6.21440251 13.5404656,5.67849033 C14.0817365,5.14257816 14.3523679,4.49949302 14.3523679,3.74921639 C14.3523679,2.9882202 14.0817365,2.33977631 13.5404656,1.8038662 C12.9991947,1.26795403 12.3534302,1 11.6031535,1 C10.8528749,1 10.2071103,1.26795403 9.66583942,1.8038662 C9.1245685,2.33977631 8.85393715,2.9882202 8.85393715,3.74921639 C8.85393715,3.87783466 8.87001341,4.00109417 8.90217003,4.11899493 C8.9343246,4.23689363 8.9664771,4.36551189 8.99863167,4.50484972 L5.28478036,6.62705105 C5.04897884,6.38052997 4.76495062,6.18224588 4.43268334,6.03219056 C4.10041813,5.88213523 3.74672202,5.8071086 3.37158473,5.8071086 C2.62130666,5.8071086 1.97554236,6.07506057 1.43427102,6.61097274 C0.892999892,7.14688491 0.62236834,7.78997005 0.62236834,8.54024668 C0.62236834,9.30124287 0.892999892,9.94968676 1.43427102,10.4855989 C1.97554236,11.021509 2.62130666,11.289461 3.37158473,11.289461 C3.74672202,11.289461 4.10041813,11.211755 4.43268334,11.0563409 C4.76495062,10.9009269 5.04897884,10.7053221 5.28478036,10.4695206 L8.93432254,12.591722 C8.93432254,12.7310598 8.92092566,12.8569966 8.89412985,12.9695386 C8.86733403,13.0820806 8.85393715,13.2080175 8.85393715,13.3473532 C8.85393715,14.0976313 9.1245685,14.7433956 9.66583942,15.2846669 C10.2071103,15.8259381 10.8528749,16.0965696 11.6031535,16.0965696 C12.3534302,16.0965696 12.9991947,15.8259381 13.5404656,15.2846669 C14.0817365,14.7433956 14.3523679,14.0976313 14.3523679,13.3473532 C14.3523679,12.5970766 14.0817365,11.9513121 13.5404656,11.4100412 C12.9991947,10.8687702 12.3534302,10.5981389 11.6031535,10.5981389 Z M11.6031535,2.36657007 C11.9782908,2.36657007 12.2998344,2.50054708 12.5677905,2.76850317 C12.8357445,3.0364572 12.9697216,3.36335955 12.9697216,3.74921639 C12.9697216,4.12435574 12.8357445,4.44589728 12.5677905,4.71385336 C12.2998344,4.98180945 11.9782908,5.11578441 11.6031535,5.11578441 C11.2280142,5.11578441 10.9064706,4.98180945 10.6385166,4.71385336 C10.3705605,4.44589728 10.2365835,4.12435574 10.2365835,3.74921639 C10.2365835,3.36335955 10.3705605,3.0364572 10.6385166,2.76850317 C10.9064706,2.50054708 11.2280142,2.36657007 11.6031535,2.36657007 Z M3.37158473,9.922893 C2.99644539,9.922893 2.67490282,9.78891599 2.40694674,9.52096196 C2.13899065,9.25300588 2.00501466,8.92610353 2.00501466,8.54024668 C2.00501466,8.16510734 2.13899065,7.84356579 2.40694674,7.57560971 C2.67490282,7.30765362 2.99644539,7.17367661 3.37158473,7.17367661 C3.74672202,7.17367661 4.06826562,7.30765362 4.3362217,7.57560971 C4.60417573,7.84356579 4.73815275,8.16510734 4.73815275,8.54024668 C4.73815275,8.92610353 4.60417573,9.25300588 4.3362217,9.52096196 C4.06826562,9.78891599 3.74672202,9.922893 3.37158473,9.922893 Z M11.6031535,14.7139233 C11.2280142,14.7139233 10.9064706,14.5799473 10.6385166,14.3119912 C10.3705605,14.0440351 10.2365835,13.7224926 10.2365835,13.3473532 C10.2365835,13.2080175 10.2526597,13.08476 10.2848143,12.9775767 C10.3169709,12.8703935 10.3652017,12.7632143 10.4295109,12.6560311 C10.4295109,12.6560311 10.4295109,12.6560311 10.4295109,12.6560311 C10.4295109,12.6560311 10.4295109,12.6560311 10.4295109,12.6560311 C10.4295109,12.6560311 10.4295109,12.6560311 10.4295109,12.6560311 C10.4295109,12.6560311 10.4295109,12.6560311 10.4295109,12.6560311 C10.5366941,12.4523841 10.7001443,12.288934 10.9198675,12.1656745 C11.1395927,12.042415 11.367352,11.9807852 11.6031535,11.9807852 C11.9782908,11.9807852 12.2998344,12.1147622 12.5677905,12.3827162 C12.8357445,12.6506723 12.9697216,12.9722159 12.9697216,13.3473532 C12.9697216,13.7224926 12.8357445,14.0440351 12.5677905,14.3119912 C12.2998344,14.5799473 11.9782908,14.7139233 11.6031535,14.7139233 Z" id="it-share" stroke="#FFFFFF" stroke-width="0.15" fill="#0066CC"></path>
    </g>
</svg>