<?xml version="1.0" encoding="utf-8"?>
<!-- Generator: Adobe Illustrator 25.2.0, SVG Export Plug-In . SVG Version: 6.00 Build 0)  -->
<svg version="1.1" id="Livello_6" xmlns="http://www.w3.org/2000/svg" xmlns:xlink="http://www.w3.org/1999/xlink" x="0px" y="0px"
	 viewBox="0 0 308.8 100" style="enable-background:new 0 0 308.8 100;" xml:space="preserve">
<style type="text/css">
	.st0{fill:#2D489D;}
	.st1{fill:#FFFFFF;}
</style>
<g>
	<g>
		<g>
			<g>
				<path class="st0" d="M123.48,19.24c0.14-0.36,0.28-0.71,0.42-1.06c0.14-0.34,0.3-0.68,0.48-1l8.91-16.22
					c0.16-0.31,0.34-0.5,0.53-0.56s0.46-0.09,0.8-0.09h2.87v26.87h-3.39V7.85c0-0.27,0.01-0.57,0.02-0.88s0.03-0.63,0.06-0.95
					l-9.03,16.52c-0.14,0.29-0.33,0.51-0.57,0.66s-0.52,0.22-0.81,0.22h-0.54c-0.64,0-1.11-0.29-1.4-0.88l-9.21-16.59
					c0.02,0.34,0.05,0.67,0.07,0.99c0.02,0.32,0.04,0.63,0.04,0.92v19.33h-3.39V0.32h2.87c0.34,0,0.6,0.03,0.8,0.09
					c0.19,0.06,0.37,0.25,0.53,0.56l9.08,16.26C122.91,17.84,123.21,18.52,123.48,19.24z"/>
				<path class="st0" d="M148.26,27.18h-3.88V0.31h3.88V27.18z"/>
				<path class="st0" d="M157.93,0.42c0.17,0.07,0.36,0.26,0.57,0.54l15.3,19.83c-0.02-0.34-0.05-0.67-0.07-1.01
					s-0.03-0.65-0.03-0.94V0.3h3.39v26.87h-1.95c-0.3,0-0.55-0.05-0.76-0.16c-0.21-0.11-0.41-0.28-0.61-0.53L158.45,6.65
					c0.02,0.32,0.05,0.65,0.07,0.96c0.02,0.32,0.03,0.62,0.03,0.89v18.67h-3.39V0.3h2C157.51,0.31,157.76,0.34,157.93,0.42z"/>
				<path class="st0" d="M187.89,27.18h-3.88V0.31h3.88V27.18z"/>
				<path class="st0" d="M208.64,4.63c-0.11,0.2-0.23,0.35-0.37,0.44c-0.13,0.09-0.3,0.14-0.51,0.14c-0.22,0-0.48-0.1-0.77-0.31
					c-0.29-0.21-0.65-0.44-1.08-0.69c-0.43-0.26-0.95-0.49-1.55-0.69c-0.6-0.21-1.32-0.31-2.15-0.31c-0.8,0-1.5,0.1-2.11,0.31
					s-1.11,0.49-1.52,0.85c-0.41,0.36-0.71,0.79-0.92,1.28c-0.21,0.49-0.31,1.03-0.31,1.6c0,0.74,0.18,1.34,0.55,1.82
					c0.37,0.47,0.85,0.88,1.45,1.23c0.6,0.34,1.28,0.64,2.05,0.89c0.77,0.25,1.55,0.51,2.35,0.79c0.8,0.27,1.58,0.58,2.35,0.93
					c0.77,0.34,1.45,0.78,2.05,1.31s1.08,1.18,1.45,1.95c0.37,0.77,0.55,1.71,0.55,2.82c0,1.19-0.2,2.29-0.61,3.32s-1,1.93-1.77,2.7
					c-0.77,0.77-1.72,1.37-2.85,1.82c-1.12,0.44-2.4,0.66-3.84,0.66c-0.86,0-1.69-0.08-2.5-0.25s-1.57-0.41-2.28-0.71
					c-0.72-0.31-1.39-0.67-2.02-1.1s-1.2-0.91-1.69-1.45l1.12-1.84c0.1-0.15,0.23-0.27,0.38-0.37c0.16-0.09,0.33-0.14,0.51-0.14
					c0.26,0,0.56,0.14,0.91,0.41c0.34,0.27,0.77,0.58,1.27,0.91c0.51,0.33,1.11,0.63,1.83,0.91c0.71,0.27,1.57,0.41,2.58,0.41
					c0.84,0,1.59-0.11,2.25-0.34c0.66-0.22,1.22-0.54,1.68-0.96c0.46-0.41,0.8-0.91,1.04-1.5s0.36-1.24,0.36-1.95
					c0-0.8-0.18-1.45-0.55-1.96c-0.37-0.51-0.85-0.93-1.45-1.26c-0.6-0.34-1.28-0.62-2.04-0.86c-0.76-0.24-1.55-0.48-2.35-0.74
					c-0.81-0.26-1.59-0.55-2.35-0.89c-0.76-0.34-1.44-0.78-2.04-1.32s-1.08-1.22-1.45-2.03s-0.55-1.82-0.55-3.02
					c0-0.95,0.19-1.87,0.56-2.77s0.92-1.69,1.63-2.38s1.59-1.24,2.63-1.66S200.8,0,202.15,0c1.51,0,2.89,0.24,4.15,0.71
					c1.25,0.47,2.35,1.16,3.29,2.06L208.64,4.63z"/>
				<path class="st0" d="M233.62,0.31v3.24h-8.6v23.63h-3.86V3.55h-8.61V0.31H233.62z"/>
				<path class="st0" d="M254.33,0.31v3.15h-12.75v8.65h10.28v3.03h-10.28v8.9h12.77l-0.02,3.15H237.7V0.32L254.33,0.31L254.33,0.31
					z"/>
				<path class="st0" d="M263.36,16.09v11.09h-3.86V0.31h7.7c1.72,0,3.21,0.17,4.46,0.52c1.25,0.35,2.28,0.85,3.1,1.51
					c0.82,0.66,1.42,1.45,1.81,2.37c0.39,0.92,0.58,1.95,0.58,3.09c0,0.95-0.15,1.84-0.44,2.66s-0.72,1.56-1.27,2.22
					c-0.56,0.66-1.24,1.22-2.04,1.69c-0.81,0.47-1.72,0.83-2.74,1.07c0.49,0.29,0.9,0.69,1.25,1.22l7.66,10.52h-3.45
					c-0.7,0-1.21-0.27-1.54-0.82l-6.74-9.42c-0.21-0.3-0.44-0.51-0.69-0.65c-0.25-0.13-0.62-0.2-1.12-0.2L263.36,16.09L263.36,16.09
					z M263.36,13.27h3.71c1.04,0,1.95-0.12,2.73-0.37c0.79-0.25,1.44-0.61,1.97-1.07c0.52-0.46,0.92-1.01,1.19-1.64
					s0.4-1.33,0.4-2.11c0-1.56-0.51-2.74-1.54-3.54c-1.02-0.8-2.57-1.2-4.63-1.2h-3.84v9.93H263.36z"/>
				<path class="st0" d="M307.91,13.73c0,2.01-0.32,3.86-0.96,5.54c-0.64,1.69-1.54,3.13-2.71,4.34c-1.16,1.21-2.56,2.15-4.19,2.83
					c-1.64,0.67-3.45,1.01-5.43,1.01c-1.99,0-3.79-0.34-5.42-1.01s-3.03-1.62-4.2-2.83s-2.08-2.66-2.72-4.34
					c-0.64-1.69-0.96-3.53-0.96-5.54c0-2,0.32-3.84,0.96-5.52c0.64-1.69,1.55-3.13,2.72-4.35c1.17-1.21,2.57-2.16,4.2-2.84
					S292.64,0,294.62,0c1.99,0,3.8,0.34,5.43,1.02c1.64,0.68,3.03,1.63,4.19,2.84s2.06,2.66,2.71,4.35
					C307.59,9.9,307.91,11.74,307.91,13.73z M303.96,13.73c0-1.61-0.22-3.06-0.66-4.34c-0.44-1.29-1.06-2.38-1.88-3.27
					c-0.82-0.89-1.8-1.58-2.95-2.05s-2.43-0.71-3.86-0.71c-1.42,0-2.71,0.24-3.87,0.71c-1.15,0.47-2.14,1.16-2.96,2.05
					c-0.82,0.89-1.45,1.98-1.89,3.27c-0.44,1.29-0.66,2.73-0.66,4.34c0,1.62,0.22,3.08,0.66,4.36c0.44,1.29,1.07,2.37,1.89,3.26
					s1.8,1.57,2.96,2.04c1.16,0.47,2.44,0.71,3.87,0.71c1.42,0,2.71-0.24,3.86-0.71c1.15-0.47,2.13-1.15,2.95-2.04
					s1.44-1.97,1.88-3.26C303.74,16.81,303.96,15.36,303.96,13.73z"/>
				<path class="st0" d="M128.76,48.21c0,1.67-0.27,3.2-0.8,4.57c-0.53,1.38-1.29,2.56-2.26,3.54c-0.97,0.98-2.14,1.74-3.5,2.27
					c-1.36,0.54-2.87,0.8-4.52,0.8h-8.38V37.03h8.38c1.65,0,3.16,0.27,4.52,0.81c1.36,0.54,2.53,1.3,3.5,2.27
					c0.97,0.98,1.72,2.15,2.26,3.53C128.49,45.03,128.76,46.55,128.76,48.21z M125.47,48.21c0-1.34-0.18-2.54-0.55-3.61
					c-0.36-1.06-0.89-1.96-1.57-2.7c-0.68-0.73-1.5-1.29-2.46-1.68c-0.96-0.39-2.03-0.58-3.22-0.58h-5.16v17.15h5.16
					c1.18,0,2.26-0.19,3.22-0.58c0.96-0.39,1.78-0.95,2.46-1.68c0.68-0.73,1.2-1.63,1.57-2.7
					C125.29,50.77,125.47,49.56,125.47,48.21z"/>
				<path class="st0" d="M146.83,37.04v2.62h-10.61v7.2h8.55v2.52h-8.55v7.4h10.63l-0.02,2.62h-13.84V37.04L146.83,37.04
					L146.83,37.04z"/>
				<path class="st0" d="M154.19,56.68h9.55v2.71h-12.76V37.03h3.21V56.68z"/>
				<path class="st0" d="M170.22,56.68h9.55v2.71h-12.76V37.03h3.21V56.68z"/>
				<path class="st0" d="M201.4,59.4h-2.49c-0.28,0-0.51-0.07-0.69-0.21c-0.18-0.14-0.31-0.32-0.41-0.55l-2.01-5.25h-9.92
					l-2.01,5.25c-0.06,0.2-0.19,0.37-0.38,0.53s-0.42,0.23-0.69,0.23h-2.49l8.91-22.36h3.26L201.4,59.4z M186.77,51.08h8.15
					l-3.38-8.8c-0.11-0.28-0.23-0.6-0.35-0.97s-0.24-0.77-0.35-1.21c-0.11,0.44-0.23,0.84-0.34,1.22c-0.11,0.37-0.23,0.7-0.34,0.98
					L186.77,51.08z"/>
				<path class="st0" d="M131.11,93.21c0.24,0,0.45,0.09,0.64,0.28l1.74,1.91c-1.24,1.45-2.76,2.58-4.54,3.39
					c-1.79,0.81-3.93,1.21-6.43,1.21c-2.2,0-4.2-0.38-5.98-1.14c-1.79-0.76-3.31-1.83-4.58-3.2c-1.26-1.37-2.24-3.01-2.92-4.91
					c-0.69-1.91-1.03-4-1.03-6.29s0.36-4.39,1.08-6.29c0.72-1.91,1.74-3.54,3.05-4.9s2.88-2.43,4.71-3.19s3.85-1.14,6.05-1.14
					c2.16,0,4.08,0.35,5.75,1.06s3.13,1.65,4.37,2.82l-1.44,2.03c-0.1,0.14-0.22,0.26-0.35,0.35s-0.32,0.14-0.56,0.14
					c-0.27,0-0.58-0.13-0.94-0.4s-0.83-0.57-1.42-0.9c-0.59-0.33-1.32-0.63-2.19-0.9c-0.88-0.27-1.96-0.4-3.24-0.4
					c-1.53,0-2.93,0.27-4.21,0.8c-1.28,0.54-2.38,1.31-3.29,2.31c-0.92,1-1.63,2.23-2.14,3.69s-0.76,3.1-0.76,4.94
					c0,1.86,0.26,3.53,0.79,4.99s1.26,2.69,2.18,3.7c0.93,1,2.02,1.77,3.27,2.3c1.26,0.53,2.61,0.79,4.05,0.79
					c0.89,0,1.69-0.05,2.39-0.16c0.71-0.11,1.36-0.26,1.96-0.48c0.6-0.21,1.16-0.49,1.68-0.83s1.04-0.74,1.57-1.21
					c0.11-0.1,0.23-0.18,0.35-0.24C130.84,93.24,130.97,93.21,131.11,93.21z"/>
				<path class="st0" d="M152.21,96.15c1.23,0,2.33-0.21,3.29-0.62c0.97-0.42,1.79-1,2.46-1.75c0.67-0.75,1.18-1.64,1.54-2.68
					c0.35-1.04,0.53-2.19,0.53-3.44V69.25h4.36v18.41c0,1.77-0.28,3.4-0.85,4.91c-0.56,1.51-1.37,2.82-2.41,3.92
					c-1.05,1.1-2.32,1.96-3.83,2.58s-3.21,0.93-5.08,0.93c-1.89,0-3.59-0.31-5.09-0.93s-2.78-1.48-3.83-2.58
					c-1.05-1.1-1.86-2.41-2.43-3.92c-0.56-1.51-0.85-3.15-0.85-4.91V69.25h4.36v18.41c0,1.24,0.18,2.38,0.53,3.42
					c0.35,1.04,0.86,1.93,1.54,2.69c0.67,0.76,1.49,1.34,2.47,1.76C149.88,95.94,150.98,96.15,152.21,96.15z"/>
				<path class="st0" d="M178.26,95.96h12.99v3.69H173.9v-30.4h4.36V95.96z"/>
				<path class="st0" d="M214.68,69.25v3.66h-9.72v26.73h-4.36V72.91h-9.74v-3.66H214.68z"/>
				<path class="st0" d="M233.19,96.15c1.23,0,2.33-0.21,3.29-0.62c0.97-0.42,1.79-1,2.46-1.75c0.67-0.75,1.18-1.64,1.54-2.68
					c0.35-1.04,0.53-2.19,0.53-3.44V69.25h4.36v18.41c0,1.77-0.28,3.4-0.85,4.91c-0.56,1.51-1.37,2.82-2.41,3.92
					c-1.05,1.1-2.32,1.96-3.83,2.58s-3.21,0.93-5.08,0.93c-1.89,0-3.59-0.31-5.09-0.93s-2.78-1.48-3.83-2.58
					c-1.05-1.1-1.86-2.41-2.43-3.92c-0.56-1.51-0.85-3.15-0.85-4.91V69.25h4.36v18.41c0,1.24,0.18,2.38,0.53,3.42
					c0.35,1.04,0.86,1.93,1.54,2.69c0.67,0.76,1.49,1.34,2.47,1.76C230.86,95.94,231.96,96.15,233.19,96.15z"/>
				<path class="st0" d="M259.25,87.11v12.54h-4.36v-30.4h8.71c1.95,0,3.63,0.2,5.04,0.59c1.41,0.4,2.58,0.96,3.51,1.71
					s1.61,1.63,2.04,2.68c0.44,1.05,0.66,2.21,0.66,3.5c0,1.07-0.17,2.08-0.5,3.01c-0.33,0.93-0.81,1.77-1.44,2.51
					c-0.63,0.74-1.4,1.38-2.31,1.92s-1.95,0.94-3.1,1.21c0.55,0.32,1.02,0.78,1.42,1.38l8.66,11.91h-3.9
					c-0.79,0-1.37-0.31-1.74-0.93l-7.63-10.66c-0.24-0.34-0.5-0.58-0.78-0.73c-0.28-0.15-0.71-0.22-1.27-0.22h-3.01V87.11z
					 M259.25,83.91h4.19c1.17,0,2.2-0.14,3.09-0.42s1.63-0.68,2.22-1.21c0.59-0.52,1.04-1.14,1.35-1.85
					c0.3-0.71,0.46-1.51,0.46-2.38c0-1.77-0.58-3.1-1.74-4s-2.9-1.36-5.23-1.36h-4.34V83.91z"/>
				<path class="st0" d="M308.8,99.65h-3.39c-0.38,0-0.69-0.1-0.93-0.29s-0.42-0.44-0.55-0.75l-2.73-7.14h-13.49l-2.73,7.14
					c-0.08,0.27-0.26,0.51-0.52,0.72s-0.58,0.32-0.94,0.32h-3.39l12.12-30.4h4.43L308.8,99.65z M288.9,88.33h11.08l-4.6-11.97
					c-0.16-0.38-0.31-0.82-0.48-1.32c-0.16-0.5-0.32-1.05-0.48-1.64c-0.16,0.59-0.31,1.14-0.47,1.65c-0.16,0.51-0.31,0.95-0.47,1.33
					L288.9,88.33z"/>
			</g>
		</g>
	</g>
	<polygon class="st1" points="99.38,99.67 0,99.67 0,75.48 0.85,75.48 0.49,0.75 98.92,0.75 99.38,56 	"/>
	<g>
		<path class="st0" d="M22.39,99.67V84.1c0-0.29,0.01-0.61,0.03-0.96s0.04-0.7,0.08-1.06l-7.35,13.79
			c-0.17,0.31-0.39,0.56-0.66,0.73c-0.27,0.17-0.58,0.26-0.94,0.26h-0.62c-0.36,0-0.67-0.09-0.94-0.26s-0.49-0.42-0.66-0.73
			L3.88,82.03c0.04,0.37,0.08,0.73,0.09,1.08C3.99,83.46,4,83.79,4,84.09v15.57L22.39,99.67L22.39,99.67z"/>
		<path class="st0" d="M0,0.29v75.19h3.41c0.2,0,0.38,0.01,0.52,0.02c0.15,0.01,0.28,0.04,0.4,0.08c0.12,0.05,0.23,0.12,0.33,0.22
			s0.2,0.23,0.29,0.4l7.27,13.51c0.19,0.36,0.37,0.73,0.53,1.12c0.16,0.39,0.32,0.78,0.48,1.17c0.16-0.4,0.32-0.8,0.49-1.19
			s0.35-0.77,0.54-1.13l7.2-13.47c0.09-0.17,0.18-0.3,0.28-0.4c0.09-0.1,0.2-0.17,0.32-0.22s0.25-0.07,0.4-0.08
			c0.14-0.01,0.32-0.02,0.52-0.02h3.41v24.19h4.94V82.56h4.16v17.12h11.9c-0.12-0.03-0.24-0.07-0.36-0.1
			c-0.4-0.12-0.79-0.26-1.17-0.42c-1.44-0.62-2.67-1.47-3.69-2.57s-1.8-2.41-2.35-3.94c-0.55-1.52-0.82-3.19-0.82-5
			c0-1.83,0.3-3.5,0.91-5.02s1.46-2.83,2.56-3.93s2.41-1.95,3.94-2.57c1.53-0.61,3.22-0.92,5.07-0.92c1.8,0,3.38,0.29,4.73,0.87
			s2.51,1.34,3.47,2.3l-1.51,2.1c-0.09,0.14-0.2,0.25-0.34,0.35s-0.33,0.15-0.58,0.15c-0.26,0-0.52-0.1-0.79-0.3
			c-0.27-0.2-0.61-0.42-1.03-0.66c-0.41-0.23-0.94-0.45-1.57-0.66c-0.63-0.2-1.44-0.3-2.41-0.3c-1.15,0-2.2,0.2-3.15,0.6
			c-0.96,0.4-1.78,0.97-2.47,1.71c-0.69,0.74-1.23,1.64-1.61,2.7c-0.39,1.06-0.58,2.25-0.58,3.58c0,1.37,0.19,2.58,0.58,3.65
			s0.91,1.96,1.57,2.69c0.66,0.73,1.44,1.29,2.34,1.67c0.9,0.39,1.86,0.58,2.89,0.58c0.62,0,1.17-0.03,1.67-0.1s0.96-0.17,1.38-0.32
			s0.82-0.33,1.19-0.56c0.38-0.23,0.75-0.51,1.12-0.85c0.11-0.1,0.23-0.18,0.35-0.24s0.26-0.09,0.4-0.09c0.25,0,0.46,0.09,0.64,0.29
			l1.78,1.93c-0.99,1.22-2.2,2.16-3.64,2.81c-0.41,0.18-0.83,0.34-1.28,0.47c-0.12,0.04-0.24,0.07-0.37,0.1h26.87
			c0.2-1.22,0.36-2.45,0.48-3.7c0.14-1.5,0.21-3.02,0.21-4.56c0-0.77-0.02-1.54-0.05-2.3c0.22-0.18,0.5-0.4,0.71-0.52
			c0.12-0.07,0.61-0.35,1.33-0.75c0.56-0.31,1.26-0.7,2.04-1.12c0.83-0.46,1.66-0.94,1.86-1.08c1.59-1.07,2.7-2.65,3.32-4.68
			c0.19-0.63,0.33-1.27,0.33-1.56c0-0.32-0.11-0.83-0.21-0.97c-0.09-0.13-0.27-0.23-0.46-0.27l-0.16-0.02l-0.08,0.28
			c-0.05,0.15-0.14,0.48-0.2,0.73c-0.37,1.52-1.11,2.43-2.59,3.13c-0.94,0.46-1.97,0.72-2.93,0.76c-0.25,0.01-0.48,0-0.71-0.01
			c-1.25-0.1-2.09-0.61-2.58-1.55c-0.51-1.01-0.77-3.03-0.54-4.47c0.09-0.58,0.15-0.78,0.31-1.1c0.25-0.47,0.78-0.88,1.3-0.98
			c0.45-0.09,1.11,0,1.5,0.24c0.41,0.23,0.83,0.81,0.98,1.39c0.1,0.35,0.26,0.61,0.48,0.79c0.08,0.06,0.17,0.12,0.26,0.16
			c0.46,0.22,1.07,0.06,2.47-0.62l0.79-0.39h0.3c0.28,0,0.31,0.01,0.63,0.16c0.56,0.26,0.6,0.27,0.62,0.21
			c0.01-0.03,0.03-0.13,0.03-0.23c0-0.16-0.01-0.19-0.16-0.31c-0.57-0.51-0.68-0.63-0.79-0.87c-0.2-0.41-0.23-0.88-0.06-1.21
			c0.07-0.15,0.18-0.25,0.4-0.4c0.29-0.19,0.39-0.42,0.46-1.01c0.04-0.35,0.02-0.62-0.1-0.95c-0.13-0.39-0.28-0.63-0.83-1.3
			c-0.36-0.45-0.41-0.57-0.41-0.88c0-0.41,0.17-0.8,0.5-1.19c0.47-0.54,0.62-0.89,0.62-1.47c0-0.44-0.03-0.54-0.34-1
			c-0.1-0.15-0.21-0.36-0.24-0.45c-0.14-0.38-0.04-0.93,0.2-1.18c0.16-0.17,0.96-0.49,1.83-0.72c1.27-0.34,1.71-0.87,1.79-2.08
			c0.03-0.38-0.02-0.52-0.2-0.62c-0.09-0.05-0.1-0.05-0.26,0.04c-0.66,0.39-1.05,0.51-2.25,0.71c-1.47,0.25-2.19,0.51-3.78,1.4
			c-0.51,0.29-0.88,0.5-1.18,0.65c-0.52,0.26-0.78,0.35-1.06,0.39c-0.57,0.09-1.11-0.17-1.55-0.74c-0.23-0.32-0.47-0.55-0.67-0.64
			c-0.2-0.1-0.52-0.13-0.63-0.05c-0.13,0.08-0.26,0.32-0.34,0.63c-0.09,0.39-0.06,0.49,0.25,0.78c0.13,0.12,0.43,0.34,0.68,0.49
			c0.63,0.39,0.91,0.61,1.35,1.06c0.54,0.55,0.75,0.65,1.46,0.7c0.19,0.01,0.4,0.03,0.61,0.07c0.52,0.08,1.06,0.21,1.2,0.31
			c0.05,0.02,0.12,0.12,0.17,0.2c0.35,0.59-0.09,1.65-1.12,2.68c-0.07,0.08-0.16,0.16-0.23,0.23c-0.48,0.44-1.02,0.78-1.6,1.02
			c-0.46,0.18-0.64,0.23-1.23,0.25c-0.94,0.04-1.12,0.1-1.85,0.56c-0.24,0.15-0.55,0.34-0.69,0.41c-0.29,0.16-0.88,0.37-1.2,0.41
			c-0.46,0.07-0.93-0.08-1.36-0.45c-0.13-0.1-0.24-0.23-0.36-0.36c-0.55-0.66-1.17-0.95-2.23-1.07c-0.24-0.03-0.58-0.08-0.74-0.13
			c-0.16-0.04-1.89-0.61-3.83-1.26c-6.29-2.12-6.1-2.05-8.22-2.95c-2.05-0.87-2.7-1.28-3.31-2.09c-0.39-0.53-0.59-1.01-0.84-2.02
			c-0.3-1.27-0.43-2.21-0.4-3.19c0.02-0.93,0.12-1.38,0.34-1.58c0.28-0.25,0.52-0.24,1.14,0.04c0.41,0.19,0.44,0.2,0.72,0.21
			c0.26,0,0.32-0.02,0.54-0.12c0.42-0.2,0.59-0.22,1.64-0.24l0.96-0.01l-0.08-0.11c-0.04-0.06-0.52-0.64-1.07-1.28
			c-0.55-0.65-1.12-1.34-1.26-1.52c-0.36-0.46-0.39-0.48-0.86-0.44c-0.51,0.04-0.99,0.03-1.47-0.04c-0.67-0.09-2.17-0.39-2.25-0.45
			c-0.1-0.06-0.18-0.25-0.18-0.4c0-0.16,0.01-0.16,0.74-0.41c0.54-0.17,0.56-0.19,0.75-0.38c0.25-0.25,0.34-0.5,0.36-1.07
			c0.03-0.73-0.12-1.2-0.67-2.18c-0.18-0.32-0.32-0.57-0.43-0.77c-0.22-0.43-0.3-0.69-0.4-1.15c-0.11-0.46-0.1-0.54,0.04-0.63
			c0.27-0.17,1.18-0.21,1.74-0.06c0.42,0.1,1,0.19,1.26,0.17c0.21-0.01,0.26-0.03,0.47-0.17c0.14-0.09,0.35-0.25,0.47-0.36
			c0.13-0.12,0.42-0.3,0.63-0.43c0.53-0.3,1.07-0.68,1.81-1.27c0.33-0.26,0.95-0.74,1.38-1.07c1.3-1,2.07-1.61,2.61-2.06
			c1.6-1.35,2.95-2.8,3.96-4.24c0.35-0.5,0.46-0.74,0.68-1.37c0.19-0.59,0.41-1.02,0.7-1.41c0.11-0.16,0.55-0.63,1.01-1.08
			c0.46-0.45,0.86-0.88,0.95-1.01c0.2-0.31,0.37-0.68,0.46-1.03c0.14-0.59,0.08-1.91-0.12-2.31c-0.08-0.15-0.24-0.28-0.46-0.36
			c-0.15-0.04-0.56-0.05-0.7,0c-0.17,0.07-0.51,0.32-0.73,0.57c-0.28,0.29-0.46,0.61-0.67,1.14c-0.09,0.24-0.23,0.55-0.31,0.7
			c-0.19,0.32-0.59,0.76-1.01,1.09c-0.18,0.13-0.55,0.45-0.83,0.7c-0.76,0.66-0.85,0.73-1.31,1.04c-0.9,0.59-1.1,0.84-0.93,1.14
			c0.03,0.05,0.2,0.25,0.39,0.44c0.42,0.41,0.43,0.46,0.2,0.69c-0.4,0.39-0.62,0.38-2.09-0.09c-0.87-0.28-1.06-0.27-1.64,0.13
			c-0.44,0.3-0.58,0.38-1.29,0.74l-0.63,0.32l-0.52,0.03c-0.55,0.03-0.72,0.07-0.74,0.19c0,0.03,0.05,0.18,0.13,0.34
			c0.16,0.31,0.17,0.36,0.09,0.46c-0.18,0.26-1.6,0.42-2.5,0.29c-0.18-0.02-0.52-0.04-0.76-0.04c-0.53,0-0.78,0.07-1.34,0.38
			c-0.7,0.39-1.26,0.57-1.69,0.55c-0.25-0.01-0.26-0.02-0.37-0.15c-0.06-0.07-0.18-0.3-0.28-0.51c-0.33-0.78-0.61-1.06-1.04-1.06
			c-0.47,0-1.04,0.55-1.2,1.18c-0.08,0.29-0.07,0.52,0.03,0.61c0.04,0.04,0.42,0.24,0.83,0.46c0.43,0.21,0.87,0.47,1.02,0.58
			c0.48,0.35,0.84,0.52,1.48,0.69c0.53,0.13,0.9,0.29,1.05,0.45l0.13,0.13l-0.06,0.1c-0.04,0.06-0.12,0.16-0.2,0.23l-0.13,0.12
			l-0.61-0.02c-0.69-0.02-0.97-0.07-1.41-0.28c-0.29-0.14-0.47-0.25-0.77-0.51c-0.25-0.22-0.45-0.3-0.72-0.3
			c-0.25,0-0.4,0.04-0.8,0.23c-0.53,0.24-0.9,0.31-1.97,0.4c-0.76,0.06-0.89,0.13-0.97,0.47c-0.04,0.17,0.01,0.55,0.1,0.72
			c0.07,0.13,0.23,0.29,0.42,0.41c0.23,0.16,1.04,0.84,1.09,0.93c0.11,0.17,0.04,0.7-0.14,1.16c-0.02,0.05-0.04,0.09-0.06,0.13
			c-0.13,0.28-0.37,0.59-0.64,0.83c-0.25,0.23-0.33,0.36-0.33,0.59s0.07,0.41,0.2,0.56c0.17,0.2,0.35,0.26,0.76,0.24
			c0.5-0.03,0.88-0.15,1.7-0.53c0.52-0.25,1-0.4,1.42-0.46c0.75-0.1,1.36,0.1,1.91,0.6c0.23,0.2,0.41,0.43,0.56,0.68
			c0.33,0.52,0.51,1.15,0.55,1.88l0.02,0.41l-0.12,0.14c-0.06,0.08-0.34,0.38-0.62,0.68c-0.8,0.85-1.46,1.6-1.71,1.92
			c-0.51,0.67-0.58,0.71-1.29,0.8c-0.59,0.08-0.82,0.15-1.09,0.32c-0.18,0.12-0.44,0.44-0.53,0.64c-0.04,0.1-0.04,0.11,0.14,0.3
			c0.1,0.11,0.25,0.26,0.32,0.33c0.19,0.17,0.24,0.29,0.22,0.54c-0.04,0.45-0.38,0.92-0.81,1.15c-0.55,0.29-1.52,0.62-2.26,0.77
			c-0.63,0.13-1.13,0.17-1.8,0.15c-1.02-0.04-1.84-0.23-2.82-0.65c-0.34-0.15-1.22-0.61-1.55-0.82c-0.25-0.16-0.64-0.54-0.73-0.7
			c-0.14-0.27-0.06-0.54,0.21-0.74c0.19-0.14,0.36-0.12,0.84,0.12c0.47,0.23,0.8,0.32,1.43,0.4c1.04,0.12,1.99,0.1,2.83-0.05
			c0.61-0.11,0.65-0.16,0.85-0.75c0.17-0.52,0.55-1.29,0.97-2c0.4-0.68,0.43-0.78,0.43-1.41c0-0.44-0.01-0.5-0.07-0.58
			c-0.14-0.2-0.26-0.23-0.77-0.2c-0.55,0.03-1.01,0.11-2.02,0.38c-0.9,0.24-1.32,0.32-2.08,0.37c-1.33,0.09-2.69-0.08-3.96-0.49
			c-0.78-0.25-1.21-0.52-1.74-1.05c-0.73-0.74-1.33-1.64-1.62-2.45c-0.23-0.62-0.27-0.72-0.47-1.02c-0.32-0.47-0.76-0.84-1.29-1.08
			c-0.13-0.06-0.5-0.21-0.83-0.31c-1.41-0.47-1.91-0.69-2.42-1.07c-0.55-0.42-1.1-1.02-1.58-1.74c-0.11-0.16-0.17-0.26-0.23-0.39
			c-0.05-0.13-0.09-0.27-0.17-0.53c-0.09-0.29-0.24-0.47-0.44-0.51c-0.15-0.03-0.19,0.01-0.36,0.33c-0.12,0.23-0.19,0.48-0.2,0.74
			c-0.01,0.2,0.01,0.41,0.06,0.62c0.09,0.34,0.22,0.56,0.55,0.93c0.28,0.3,0.37,0.48,0.4,0.83c0.05,0.5-0.7,1.83-1.5,2.64
			c-0.33,0.34-0.49,0.41-0.82,0.41c-0.27,0-0.49-0.11-0.77-0.39c-0.34-0.33-0.54-0.37-1.14-0.18c-0.42,0.13-0.61,0.1-0.89-0.12
			c-0.4-0.32-0.8-2.15-0.85-3.91c0-0.1,0-0.21,0-0.32c-0.01-1.17,0.16-2.12,0.48-2.76c0.12-0.24,0.21-0.36,0.44-0.59
			c0.25-0.25,0.36-0.32,0.69-0.49c0.49-0.25,0.96-0.56,1.1-0.73c0.3-0.33,0.35-0.62,0.19-1.09c-0.06-0.17-0.12-0.42-0.15-0.53
			c-0.05-0.28-0.05-0.94,0-1.26c0.08-0.46,0.19-0.63,0.7-1.04c0.11-0.08,0.2-0.2,0.28-0.36l0.12-0.24l0.02-1.01l0.02-1.02L28.51,31
			c0.14-0.28,0.36-0.46,0.88-0.72c0.34-0.17,0.72-0.29,1.07-0.33c0.18-0.02,0.36-0.06,0.41-0.08c0.13-0.08,0.26-0.22,0.37-0.43
			c0.2-0.41,0.48-0.74,0.91-1.08c0.47-0.37,0.82-0.48,1.26-0.4c0.12,0.02,0.48,0.12,0.78,0.22c0.51,0.16,0.59,0.18,0.89,0.18
			s0.34,0,0.47-0.09c0.28-0.18,0.32-0.35,0.58-2.1c0.07-0.47,0.14-0.91,0.16-0.98c0.05-0.2,0.31-0.43,0.73-0.64
			c0.21-0.1,0.46-0.2,0.61-0.24c0.35-0.07,0.82-0.04,1.21,0.08c0.62,0.18,1.13,0.18,1.6,0.01c0.65-0.24,0.91-0.27,1.07-0.15
			c0.2,0.15,0.29,0.4,0.46,1.4c0.18,1.1,0.32,1.51,0.61,1.92c0.55,0.78,0.68,1.52,0.54,3.09c-0.14,1.42-0.14,1.37-0.03,1.56
			c0.22,0.37,0.6,0.66,1.52,1.18c0.35,0.19,1.12,0.73,1.68,1.16c0.69,0.53,1.49,0.67,2.23,0.4c0.23-0.09,0.57-0.32,1.11-0.74
			c0.82-0.64,0.9-0.68,1.85-0.71c0.38-0.02,0.93-0.05,1.22-0.08c0.52-0.05,0.55-0.05,0.92-0.23c0.51-0.23,0.71-0.36,1.06-0.71
			c0.65-0.64,1.2-0.93,2.47-1.28c1.05-0.29,1.74-0.76,2.26-1.55c0.43-0.64,0.65-0.83,2.13-1.71c0.39-0.23,0.82-0.51,0.96-0.61
			c0.55-0.41,1.4-1.37,1.65-1.89c0.14-0.25,0.14-0.51,0.04-0.73c-0.12-0.25-0.37-0.43-1.02-0.76c-0.33-0.16-0.6-0.31-0.6-0.33
			c0-0.07,0.14-0.26,0.25-0.34c0.2-0.15,0.61-0.28,1.42-0.43c0.14-0.04,0.23-0.07,0.3-0.14c0.1-0.09,0.1-0.1,0.1-0.51
			c0-0.22-0.02-0.55-0.06-0.73c-0.03-0.18-0.06-0.5-0.07-0.72c-0.02-0.35,0-0.45,0.06-0.68c0.1-0.39,0.24-0.62,0.85-1.48
			c0.57-0.79,0.79-1.16,0.89-1.51c0.12-0.4,0.04-1.19-0.14-1.47s-0.53-0.41-0.73-0.28c-0.14,0.09-0.19,0.2-0.39,0.87
			c-0.21,0.67-0.4,1.14-0.65,1.64c-0.16,0.3-0.24,0.42-0.46,0.64c-0.44,0.44-0.69,0.5-1.14,0.29c-0.51-0.25-0.84-0.25-1.92-0.02
			c-0.37,0.08-0.73,0.14-0.81,0.14c-0.43,0-0.8-0.16-1.4-0.61c-0.86-0.65-1.33-1.12-1.77-1.8c-0.25-0.37-0.43-0.56-0.65-0.68
			c-0.19-0.09-0.48-0.16-1.46-0.32c-0.93-0.15-1.03-0.16-1.64-0.16c-0.71,0-0.99,0.04-1.91,0.26c-0.54,0.13-0.75,0.22-1.44,0.61
			c-1.3,0.73-1.86,0.94-2.58,0.94c-0.7,0-0.96-0.45-0.96-1.62c0-0.5,0-0.55,0.09-0.83c0.2-0.61,0.5-1.06,1.03-1.56
			c0.66-0.64,1.55-1.11,2.69-1.45c0.54-0.15,0.63-0.17,1.55-0.28c0.71-0.08,1.52-0.12,1.88-0.06c0.08,0,0.47,0.06,0.86,0.11
			c0.61,0.07,0.85,0.09,1.57,0.09c1.23,0,1.35-0.04,1.62-0.55c0.34-0.61,0.95-1.34,1.4-1.66c0.63-0.45,1.2-0.63,2.45-0.76
			c0.98-0.1,1.65-0.25,2.47-0.55c1.11-0.41,1.65-0.4,2.97,0.05c1.3,0.45,1.77,0.49,2.85,0.32c0.3-0.05,0.75-0.13,1.01-0.16
			c0.55-0.09,1.09-0.09,1.37-0.02c0.48,0.13,0.83,0.39,1.45,1.08c0.5,0.57,0.5,0.58,0.44,1.15c-0.05,0.48-0.12,0.71-0.3,1.09
			c-0.2,0.43-0.52,0.75-0.92,0.96c-0.29,0.14-0.41,0.17-1.25,0.37c-0.87,0.2-1.08,0.33-1.1,0.75c-0.03,0.42,0.12,0.68,0.5,0.88
			c0.29,0.15,0.54,0.2,1.15,0.25c1.32,0.08,1.48,0.14,1.95,0.63c0.33,0.35,0.4,0.46,0.39,0.7c0,0.24-0.07,0.46-0.3,0.94
			c-0.18,0.36-0.22,0.43-0.61,0.84c-0.24,0.24-0.44,0.48-0.46,0.53c-0.03,0.12,0.01,0.24,0.13,0.41c0.17,0.25,0.4,0.77,0.48,1.06
			c0.06,0.26,0.09,0.52,0.17,1.29c0.06,0.64,0.23,0.84,1.05,1.23c1.05,0.5,2.1,1.12,3.79,2.2c1.14,0.74,1.41,0.97,1.55,1.33
			c0.1,0.28,0.1,0.53,0,0.68c-0.23,0.35-0.58,0.36-1.29,0.04c-1.11-0.5-1.35-0.59-1.57-0.63c-0.66-0.11-1.07,0.26-1.07,0.96
			c0,0.19,0.02,0.26,0.09,0.38c0.23,0.4,0.38,0.9,0.48,1.62c0.18,1.31,0.37,1.76,1.3,3.09c1.85,2.65,2.74,3.96,3.17,4.67
			c0.64,1.06,1.13,2.17,1.44,3.25c0.17,0.62,0.23,0.92,0.31,1.9c0.03,0.45,0.14,1.63,0.22,2.64c0.22,2.53,0.31,3.41,0.39,3.64
			c0.15,0.44,0.52,1.04,1.22,1.96c0.48,0.64,1.13,1.43,1.96,2.42c0.91,1.08,1.25,1.42,1.58,1.6c0.29,0.16,0.35,0.14,0.29-0.07
			c-0.03-0.08-0.17-0.28-0.39-0.52c-0.6-0.67-0.76-0.91-0.81-1.18c-0.09-0.5,0.7-0.88,1.63-0.79c0.02,0,0.05,0,0.07,0
			c3.44,1.27,6.78,2.75,10.01,4.41c0.08,0.04,0.16,0.08,0.24,0.12V0.38H0V0.29z M84.35,73.66c0.14-0.28,0.93-0.99,1.41-1.28
			c0.01-0.01,0.02-0.01,0.03-0.02c0.47-0.28,0.73-0.34,0.98-0.23c0.18,0.07,0.31,0.2,0.42,0.43c0.22,0.43,0.18,0.56-0.27,1.01
			c-0.48,0.46-0.83,0.72-1.24,0.85c-0.22,0.07-0.45,0.11-0.73,0.13c-0.29,0.02-0.34,0.01-0.43-0.05
			C84.32,74.37,84.23,73.91,84.35,73.66z M17.96,70.2c-0.12,0.14-0.34,0.25-0.48,0.25c-0.05,0-0.14-0.03-0.21-0.07
			c-0.59-0.34-0.79-0.39-1.41-0.39c-0.52,0.01-1,0.07-2.27,0.35c-0.4,0.09-0.78,0.15-0.81,0.14c-0.14-0.04-0.3-0.2-0.39-0.39
			c-0.19-0.42-0.15-0.55,0.23-0.76c0.64-0.34,0.92-0.41,1.56-0.38c0.73,0.04,0.76,0.02,1.56-0.72l0.44-0.4l0.17,0.01
			c0.09,0.01,0.28,0.07,0.44,0.15c0.36,0.18,0.83,0.64,1.03,1.03c0.16,0.32,0.25,0.63,0.25,0.87C18.07,70.05,18.06,70.09,17.96,70.2
			z M14.41,67.43c0.04-0.15,0.33-0.53,0.44-0.58c0.09-0.04,0.4-0.08,0.48-0.06c0.04,0.01,0.1,0.04,0.13,0.06
			c0.08,0.07,0.23,0.38,0.28,0.58c0.09,0.36-0.08,0.58-0.61,0.75c-0.25,0.08-0.34,0.1-0.4,0.07C14.51,68.17,14.34,67.71,14.41,67.43
			z M19.4,71.63c-0.61,0.3-1.01,0.03-0.68-0.45c0.04-0.05,0.14-0.24,0.23-0.4c0.38-0.73,0.94-1.17,1.18-0.91
			c0.05,0.06,0.07,0.14,0.08,0.34C20.24,70.86,19.95,71.36,19.4,71.63z M28.95,64.85c-0.23-0.03-0.43-0.08-0.52-0.12
			c-0.25-0.13-0.38-0.39-0.36-0.75c0-0.04,0.04-0.11,0.08-0.15c0.07-0.07,0.09-0.07,0.8-0.05c0.4,0.01,0.91,0.05,1.13,0.07
			c1.05,0.14,1.86,0.41,2.45,0.8c0.3,0.2,0.49,0.42,0.65,0.74c0.21,0.45,0.18,0.74-0.11,0.98c-0.32,0.26-0.53,0.31-0.89,0.2
			c-0.46-0.14-0.94-0.42-1.63-0.98C29.95,65.1,29.59,64.94,28.95,64.85z M35.88,78.53c-0.15,0.32-0.34,0.59-0.58,0.83
			c-0.24,0.23-0.52,0.42-0.85,0.56c-0.33,0.14-0.67,0.21-1.04,0.21c-0.36,0-0.7-0.07-1.02-0.21c-0.32-0.14-0.6-0.33-0.83-0.56
			c-0.24-0.24-0.42-0.51-0.56-0.83c-0.14-0.31-0.21-0.65-0.21-1.01c0-0.37,0.07-0.72,0.21-1.04s0.33-0.6,0.56-0.84
			c0.23-0.23,0.51-0.42,0.83-0.56c0.32-0.14,0.66-0.21,1.02-0.21c0.37,0,0.72,0.07,1.04,0.21c0.32,0.14,0.61,0.33,0.85,0.56
			c0.24,0.24,0.43,0.52,0.58,0.84c0.14,0.33,0.22,0.67,0.22,1.04C36.1,77.88,36.02,78.21,35.88,78.53z M35.82,48.91
			c0.06-0.06,0.14-0.13,0.17-0.14c0.09-0.05,0.33-0.05,0.46,0c0.21,0.08,0.39,0.33,0.44,0.61c0.04,0.18-0.03,0.29-0.22,0.39
			c-0.3,0.15-0.51,0.12-0.73-0.12C35.67,49.34,35.63,49.08,35.82,48.91z M34.24,53.25c0.04-0.05,0.1-0.1,0.15-0.12
			c0.13-0.03,0.42-0.03,0.62,0.02c0.46,0.09,0.73,0.68,0.46,0.97c-0.2,0.23-0.66,0.3-0.88,0.15c-0.14-0.09-0.32-0.45-0.38-0.73
			C34.17,53.36,34.18,53.33,34.24,53.25z M33.73,50.71c0,0.2-0.07,0.37-0.16,0.42c-0.11,0.06-0.62,0.17-0.76,0.17
			c-0.17,0-0.39-0.15-0.53-0.37c-0.18-0.29-0.2-0.52-0.06-0.65c0.05-0.05,0.31-0.13,0.49-0.15c0,0,0.2,0.04,0.43,0.09
			c0.35,0.07,0.42,0.09,0.5,0.18C33.72,50.5,33.73,50.55,33.73,50.71z M31.02,47.49c0.29-0.32,0.75-0.44,1.34-0.36
			c0.66,0.1,1,0.35,1,0.74c0,0.21-0.09,0.38-0.3,0.57c-0.4,0.37-1.15,0.53-1.72,0.35c-0.28-0.09-0.41-0.2-0.46-0.41
			C30.77,48,30.82,47.71,31.02,47.49z M25.55,56.38c1.16,0.04,1.29,0.04,1.37-0.01c0.05-0.03,0.1-0.08,0.12-0.13
			c0.02-0.04,0.18-0.6,0.35-1.25c0.46-1.72,0.48-1.78,0.72-1.94c0.15-0.1,0.39-0.1,0.66-0.03c0.27,0.08,0.41,0.24,0.55,0.6
			c0.14,0.38,0.15,0.59,0.04,0.71c-0.05,0.05-0.15,0.11-0.21,0.14c-0.11,0.05-0.45,0.35-0.45,0.4c0,0.01,0.1,0.07,0.23,0.15
			c0.68,0.35,1.25,0.37,2.85,0.13c0.68-0.1,1.14-0.09,2.19,0.03c0.94,0.1,1.27,0.09,1.85-0.1c0.4-0.13,0.78-0.13,1.06,0
			c0.25,0.11,0.37,0.23,0.64,0.58c0.58,0.76,1.28,1.09,2.55,1.2c0.85,0.08,1.52,0.19,1.63,0.26c0.14,0.09,0.25,0.29,0.22,0.45
			c-0.04,0.21-0.24,0.48-0.46,0.63c-1.05,0.73-2.36,1.11-3.45,1.01c-0.42-0.04-0.98-0.16-1.24-0.27c-0.25-0.11-1.04-0.57-1.37-0.81
			c-0.86-0.62-1.56-0.85-2.5-0.85c-0.66,0-0.92,0.06-2.84,0.61c-1.28,0.37-1.26,0.37-2,0.1c-0.48-0.17-0.95-0.15-1.33,0.03
			c-1.27,0.64-1.78,2.06-1.35,3.76c0.27,1.05,0.85,2.24,1.4,2.85c0.28,0.31,0.39,0.73,0.23,0.88c-0.23,0.2-0.47,0.2-1.04-0.02
			c-0.53-0.19-1.67-0.75-2.21-1.08c-1-0.6-1.17-0.74-1.81-1.37c-0.33-0.33-0.82-0.86-1.08-1.16c-0.27-0.3-0.57-0.64-0.69-0.75
			c-0.43-0.43-1.04-0.75-1.62-0.87c-0.5-0.11-1.58-0.07-1.85,0.07c-0.23,0.13-0.48,0.5-0.48,0.73c0,0.11,0.02,0.15,0.11,0.24
			c0.13,0.13,0.78,0.62,1.1,0.84c0.39,0.29,0.39,0.29,0.39,0.72c0,0.35,0,0.38-0.08,0.47c-0.16,0.17-0.22,0.17-1.79,0.15
			c-1.59-0.03-1.67-0.02-1.88,0.15c-0.19,0.15-0.24,0.27-0.27,0.7c-0.03,0.34-0.04,0.39-0.13,0.46c-0.07,0.09-0.12,0.09-0.3,0.09
			c-0.21,0-0.23,0-0.36-0.13c-0.12-0.11-0.13-0.15-0.13-0.29c0-0.3,0.11-0.66,0.34-1.11c0.3-0.6,0.38-0.81,0.52-1.35
			c0.2-0.8,0.48-1.26,1.13-1.91c0.53-0.52,1.08-0.94,1.65-1.22c0.54-0.27,0.98-0.4,1.7-0.49c0.25-0.03,0.6-0.09,0.78-0.14
			c0.36-0.09,0.99-0.34,1.26-0.49c0.21-0.11,0.85-0.46,1.55-0.81c0.75-0.39,1.35-0.55,2.08-0.6C24.11,56.35,24.85,56.36,25.55,56.38
			z M24.56,47.72c0.13,0.35,0.14,0.4,0.1,0.52c-0.02,0.07-0.1,0.2-0.2,0.29c-0.14,0.14-0.17,0.15-0.33,0.15
			c-0.15,0-0.25-0.04-0.57-0.19c-0.47-0.24-0.61-0.26-0.77-0.09c-0.14,0.15-0.24,0.5-0.24,0.82c0,0.33,0.11,0.99,0.21,1.23
			c0.14,0.32,0.43,0.72,0.99,1.33c0.65,0.71,0.85,0.95,1.01,1.29c0.22,0.45,0.33,0.93,0.26,1.17c-0.08,0.32-0.94,0.71-1.52,0.71
			c-0.76,0-1.42-0.44-2.22-1.45c-0.48-0.62-0.93-1.49-1.22-2.35c-0.28-0.85-0.27-1.23,0.06-1.7c0.33-0.5,0.42-0.78,0.31-1.11
			c-0.03-0.09-0.17-0.32-0.33-0.54c-0.31-0.4-0.39-0.6-0.39-0.92c0-0.26,0.11-0.51,0.45-1.03c0.33-0.5,0.5-0.71,0.91-1.14
			c0.37-0.38,1.58-1.49,1.7-1.57c0.1-0.06,0.33-0.05,0.49,0.02c0.17,0.08,0.32,0.23,0.34,0.34c0.05,0.23,0.09,0.91,0.09,1.48
			c0.01,0.92,0.12,1.35,0.54,2.03C24.34,47.19,24.48,47.5,24.56,47.72z M49.68,19.75c0.12-0.24,0.49-0.6,0.76-0.73
			c0.35-0.17,0.53-0.2,1.27-0.2c0.75,0,1-0.05,1.47-0.23c0.16-0.06,0.36-0.15,0.45-0.21c0.52-0.32,0.54-0.34,0.71-0.34
			c0.1,0,0.23,0.03,0.29,0.06c0.16,0.09,0.23,0.16,0.32,0.35c0.14,0.32,0.12,0.73-0.05,0.85c-0.1,0.06-0.32,0.1-1.49,0.29
			c-1.29,0.2-1.56,0.31-2.1,0.79c-0.1,0.09-0.28,0.2-0.4,0.26c-0.19,0.09-0.27,0.11-0.55,0.12c-0.41,0.01-0.5-0.04-0.64-0.32
			C49.6,20.17,49.59,19.96,49.68,19.75z M47.64,26.72c0.72-0.13,1.08-0.25,1.85-0.61c0.8-0.38,1.03-0.45,2.16-0.67
			c1.93-0.38,3.09-0.78,4.05-1.4c0.37-0.24,0.5-0.25,1.06-0.18c0.2,0.02,0.37,0.07,0.51,0.14c0.39,0.19,0.67,0.6,0.67,1.01
			c0,0.16-0.01,0.2-0.11,0.31c-0.16,0.18-0.28,0.23-0.61,0.25c-0.23,0.02-0.3,0.04-0.37,0.1c-0.05,0.05-0.09,0.11-0.09,0.14
			c0,0.1-0.11,0.16-0.57,0.32c-0.59,0.21-1.13,0.33-1.57,0.37c-0.2,0.02-0.42,0.05-0.49,0.08c-0.2,0.08-0.5,0.31-0.82,0.61
			c-0.18,0.17-0.38,0.32-0.52,0.39c-0.21,0.11-0.24,0.12-0.62,0.12s-0.42-0.01-0.81-0.15c-0.54-0.19-1.19-0.39-1.3-0.39
			c-0.04,0-0.22,0.09-0.37,0.2c-0.8,0.53-1.67,0.82-2.56,0.86c-0.39,0.02-0.41,0.02-0.49-0.06s-0.16-0.35-0.16-0.52
			C46.5,27.19,46.93,26.84,47.64,26.72z M46.4,17.49c0.08,0.08,0.19,0.55,0.16,0.69c-0.01,0.07-0.09,0.16-0.23,0.28
			c-0.12,0.1-0.32,0.29-0.46,0.42c-0.41,0.4-0.61,0.93-0.5,1.27c0.06,0.2,0.39,0.63,0.69,0.91c0.37,0.34,0.49,0.59,0.5,1.01
			c0.02,0.41-0.06,0.59-0.29,0.69c-0.14,0.06-0.2,0.06-0.51,0.05c-0.54-0.04-0.9-0.21-1.16-0.56c-0.18-0.25-0.26-0.49-0.32-1.01
			c-0.05-0.48-0.11-0.65-0.25-0.81c-0.18-0.18-0.36-0.19-0.8-0.02c-0.23,0.08-0.63,0.09-1.1,0.02c-0.22-0.04-0.6-0.05-1.14-0.05
			c-1.06,0-1.08,0-1.23,0.54c-0.23,0.77-0.76,1.46-1.45,1.88c-0.42,0.25-1.18,0.47-1.38,0.4c-0.2-0.08-0.35-0.6-0.25-0.9
			c0.06-0.17,0.25-0.38,0.45-0.49c0.2-0.1,0.42-0.16,1.08-0.31c0.3-0.06,0.58-0.14,0.63-0.17c0.23-0.16,0.18-0.39-0.12-0.72
			c-0.24-0.26-0.28-0.32-0.28-0.48s0.2-0.47,0.44-0.72c0.27-0.27,0.67-0.47,1.29-0.63c0.83-0.22,1.28-0.41,1.68-0.71
			c0.13-0.1,0.3-0.21,0.38-0.24c0.18-0.08,0.72-0.12,1.2-0.1c0.37,0.03,1.2,0,1.72-0.07c0.17-0.02,0.44-0.08,0.6-0.13
			C46.11,17.41,46.31,17.4,46.4,17.49z M80.06,28.78c-0.21,0.42-0.82,0.43-1.31,0.02c-0.09-0.08-0.12-0.13-0.12-0.22
			c0-0.14,0.08-0.31,0.19-0.42c0.06-0.06,0.1-0.07,0.41-0.05c0.18,0,0.42,0.04,0.54,0.07C80.1,28.26,80.2,28.48,80.06,28.78z
			 M80.66,46.53c-0.48-0.97-0.93-1.3-2.11-1.52c-0.42-0.08-1.6-0.09-2.06-0.03c-0.72,0.1-1.56,0.32-2.16,0.55
			c-0.79,0.31-1.8,0.89-2.62,1.52c-0.67,0.51-3.19,2.56-4.44,3.63c-0.81,0.69-1.03,0.85-1.41,1.05c-0.76,0.38-1.61,0.5-2.4,0.32
			c-0.31-0.07-0.44-0.18-0.61-0.52c-0.11-0.24-0.13-0.28-0.14-0.62c0-0.2,0.01-0.65,0.05-1c0.09-1.11,0.06-1.44-0.16-1.71
			c-0.2-0.25-0.55-0.36-0.88-0.27c-0.09,0.02-0.32,0.11-0.52,0.19c-0.36,0.16-0.56,0.19-0.74,0.13c-0.05-0.03-0.19-0.12-0.31-0.21
			c-0.31-0.25-0.54-0.31-1.1-0.31c-0.54,0-0.69,0.04-0.78,0.23c-0.03,0.07-0.06,0.21-0.06,0.32c0,0.16,0.02,0.25,0.18,0.57
			c0.06,0.14,0.14,0.32,0.2,0.47c0.03,0.07,0.06,0.14,0.08,0.18c0.22,0.55,0.38,0.8,1.38,2.06c0.43,0.53,1,1.27,1.27,1.61
			c0.27,0.35,0.56,0.68,0.63,0.75c0.28,0.24,0.67,0.37,0.92,0.31c0.05-0.01,0.24-0.16,0.41-0.33c0.17-0.16,0.37-0.34,0.44-0.39
			c0.19-0.13,0.4-0.11,0.59,0.02c0.02,0.01,0.04,0.03,0.05,0.05c0.02,0.01,0.04,0.03,0.06,0.05c0.11,0.15,0.11,0.26-0.03,0.68
			c-0.16,0.47-0.21,0.79-0.18,1.29c0.02,0.55,0.07,0.65,0.38,0.83c0.45,0.27,1.07,0.46,1.61,0.49c0.34,0.03,0.91-0.01,1.64-0.09
			c0.37-0.04,0.78-0.09,1.22-0.16c1.07-0.17,1.3-0.15,2.13,0.24c0.7,0.32,0.9,0.36,1.49,0.25c1.2-0.23,2.33-0.8,3.19-1.65
			c0.38-0.36,0.39-0.4,0.4-1.48c0.01-1.07-0.01-1,0.43-1.18c1.15-0.44,2.27-1.16,3.18-2.04c0.5-0.48,0.81-0.87,0.99-1.22
			c0.18-0.36,0.23-0.58,0.26-1.02C81.16,47.87,81.02,47.26,80.66,46.53z M69.62,51.31c-1.33,1.01-1.41,1.07-1.66,1.07
			c-0.18,0-0.59-0.13-0.69-0.21c-0.02-0.03-0.04-0.11-0.04-0.21v-0.17l0.53-0.56c0.72-0.74,1.85-1.82,2.11-2.01
			c0.12-0.08,0.42-0.26,0.67-0.39c0.42-0.22,0.48-0.24,0.62-0.23c0.1,0.01,0.22,0.05,0.31,0.11c0.37,0.24,0.39,0.84,0.04,1.16
			c-0.07,0.06-0.28,0.23-0.46,0.36C70.87,50.35,70.23,50.84,69.62,51.31z M73.42,50.98c-0.08,0.17-0.51,0.59-1.21,1.17
			c-0.58,0.48-0.63,0.51-0.76,0.49c-0.14-0.03-0.33-0.15-0.39-0.26c-0.02-0.05-0.05-0.15-0.05-0.23c0-0.13,0.03-0.17,0.48-0.65
			c0.26-0.28,0.66-0.69,0.87-0.91l0.4-0.4l0.25-0.02c0.35-0.03,0.34-0.03,0.41,0.13C73.53,50.53,73.52,50.78,73.42,50.98z
			 M69.94,18.72c-0.03-0.17-0.06-0.25-0.13-0.32c-0.12-0.13-0.21-0.12-0.33,0c-0.11,0.11-0.57,0.83-0.9,1.41
			c-0.24,0.43-0.43,0.9-0.53,1.29c-0.09,0.37-0.09,0.38,0.18,0.51c0.21,0.11,0.37,0.14,0.5,0.09c0.15-0.06,0.67-0.6,0.85-0.9
			C69.98,20.18,70.09,19.55,69.94,18.72z M63.74,31.9c-0.09-0.01-0.24,0.02-0.33,0.05c-0.4,0.15-0.81,0.48-0.96,0.79
			c-0.07,0.14-0.09,0.22-0.08,0.38l0.02,0.2l0.12,0.01c0.12,0.02,0.17-0.03,0.65-0.41c0.74-0.59,0.73-0.58,0.74-0.82v-0.2H63.74z
			 M61.52,15.35c-0.27-0.33-0.61-0.46-0.83-0.32c-0.15,0.09-0.3,0.34-0.36,0.57c-0.04,0.16-0.03,0.56,0.02,0.68
			c0.04,0.11,0.19,0.15,0.53,0.15c0.32,0,0.35-0.01,0.47-0.09c0.18-0.15,0.28-0.34,0.28-0.62C61.63,15.5,61.61,15.46,61.52,15.35z
			 M53.41,34.68c-0.03-0.03-0.14-0.05-0.25-0.06c-0.17-0.01-0.23,0-0.48,0.13c-0.45,0.23-1.07,0.59-1.41,0.81
			c-0.45,0.27-0.68,0.49-0.82,0.78c-0.25,0.49-0.19,0.78,0.18,0.84c0.11,0.02,0.19-0.03,0.83-0.46c1.46-0.98,1.62-1.12,1.91-1.6
			C53.48,34.95,53.49,34.75,53.41,34.68z M38.28,35.56c-0.11-0.82-0.62-1.73-1.39-2.51c-0.2-0.21-0.48-0.45-0.6-0.52
			c-0.46-0.3-1.07-0.46-1.28-0.34c-0.05,0.03-0.13,0.14-0.17,0.23l-0.09,0.18l0.07,0.07c0.05,0.05,0.24,0.17,0.42,0.27
			c0.48,0.28,0.92,0.61,1.29,1.01c0.4,0.41,0.59,0.68,0.87,1.21c0.3,0.55,0.43,0.74,0.62,0.88C38.31,36.27,38.37,36.17,38.28,35.56z
			 M36.98,37.79c-0.06-0.25-0.16-0.32-0.67-0.48c-1.15-0.36-1.85-0.66-2.38-1.02c-0.95-0.64-1.56-1.43-1.92-2.49
			c-0.2-0.61-0.27-1.1-0.3-1.98c-0.01-0.54-0.03-0.77-0.06-0.84c-0.06-0.1-0.08-0.11-0.18-0.04c-0.1,0.08-0.2,0.29-0.43,0.93
			c-0.26,0.72-0.58,1.38-0.85,1.73c-0.39,0.52-0.43,0.59-0.54,0.87c-0.09,0.25-0.1,0.3-0.07,0.39c0.04,0.13,1.23,1.31,1.9,1.9
			c1.1,0.97,2.29,1.77,3.12,2.1c0.77,0.31,1.47,0.39,1.84,0.23C36.88,38.9,37.1,38.36,36.98,37.79z M31.48,39.13
			c-0.02-0.28-0.05-0.37-0.19-0.52c-0.18-0.19-0.78-0.27-1.04-0.13c-0.28,0.14-0.45,0.58-0.38,0.98c0.08,0.44,0.31,0.67,0.68,0.67
			c0.32,0,0.52-0.08,0.71-0.26C31.45,39.67,31.5,39.5,31.48,39.13z"/>
	</g>
</g>
</svg>
