<?xml version="1.0" encoding="utf-8"?>
<!-- Generated by IcoMoon.io -->
<!DOCTYPE svg PUBLIC "-//W3C//DTD SVG 1.1//EN" "http://www.w3.org/Graphics/SVG/1.1/DTD/svg11.dtd">
<svg version="1.1" xmlns="http://www.w3.org/2000/svg" xmlns:xlink="http://www.w3.org/1999/xlink" width="32" height="32" viewBox="0 0 32 32">
<path d="M30.222 11.733v1.422h-10.489c-1.067-0.711-2.311-1.067-3.733-1.067s-2.667 0.533-3.733 1.067h-11.022v-1.422h28.978z"></path>
<path d="M24.889 1.778c3.022 0 5.333 2.311 5.333 5.333v17.778c0 3.022-2.311 5.333-5.333 5.333h-17.778c-3.022 0-5.333-2.311-5.333-5.333v-17.778c0-3.022 2.311-5.333 5.333-5.333h17.778zM24.889 0h-17.778c-3.911 0-7.111 3.2-7.111 7.111v17.778c0 3.911 3.2 7.111 7.111 7.111h17.778c3.911 0 7.111-3.2 7.111-7.111v-17.778c0-3.911-3.2-7.111-7.111-7.111v0z"></path>
<path d="M22.222 13.156c-0.533-0.533-1.244-1.067-1.956-1.422-1.244-0.533-2.844-1.067-4.267-1.067s-3.022 0.533-4.267 1.067c-0.711 0.533-1.244 0.889-1.956 1.422-1.6 1.6-2.667 3.911-2.667 6.4 0 4.978 3.911 8.889 8.889 8.889s8.889-3.911 8.889-8.889c0-2.489-1.067-4.8-2.667-6.4zM16 27.022c-4.089 0-7.467-3.378-7.467-7.467 0-2.667 1.422-5.156 3.733-6.4 1.067-0.533 2.311-1.067 3.733-1.067s2.667 0.356 3.733 1.067c2.133 1.244 3.733 3.733 3.733 6.4 0 4.267-3.378 7.467-7.467 7.467z"></path>
<path d="M16 15.822c2.133 0 3.911 1.778 3.911 3.911s-1.778 3.911-3.911 3.911-3.911-1.778-3.911-3.911 1.778-3.911 3.911-3.911zM16 14.4c-3.022 0-5.333 2.311-5.333 5.333s2.311 5.333 5.333 5.333 5.333-2.311 5.333-5.333-2.311-5.333-5.333-5.333v0z"></path>
<path d="M25.244 4.978v3.733h-3.733v-3.733h3.733zM25.422 3.556h-4.089c-0.711 0-1.244 0.533-1.244 1.244v4.089c0 0.711 0.533 1.244 1.244 1.244h4.089c0.711 0 1.244-0.533 1.244-1.244v-4.089c0-0.711-0.533-1.244-1.244-1.244v0z"></path>
</svg>
