<?xml version="1.0" encoding="UTF-8"?>
<svg width="446px" height="476px" viewBox="0 0 446 476" version="1.1" xmlns="http://www.w3.org/2000/svg" xmlns:xlink="http://www.w3.org/1999/xlink">
    <!-- Generator: Sketch 50 (54983) - http://www.bohemiancoding.com/sketch -->
    <title>Group 14</title>
    <desc>Created with Sketch.</desc>
    <defs>
        <linearGradient x1="49.9984216%" y1="91.663444%" x2="49.9984216%" y2="103.816778%" id="linearGradient-1">
            <stop stop-color="#FFF2EB" offset="0%"></stop>
            <stop stop-color="#F1DACB" offset="100%"></stop>
        </linearGradient>
    </defs>
    <g id="Page-1" stroke="none" stroke-width="1" fill="none" fill-rule="evenodd">
        <g id="Group-14" transform="translate(0.000000, -1.000000)">
            <g id="Group-46-Copy-2" transform="translate(79.702247, 31.000000)">
                <g id="Group-40-Copy">
                    <path d="M127.071699,0.550173343 C120.463663,0.550173343 115.075914,5.90420159 115.075914,12.5459577 C115.075914,19.612196 115.075914,129.810126 115.075914,135.277614 C115.075914,141.886443 120.430339,147.273398 127.071699,147.273398 C133.00691,147.273398 160.944576,147.273398 166.894069,147.273398 C181.695005,147.273398 250.716983,147.273398 265.788874,147.273398 C269.887704,147.273398 273.556896,145.210494 275.736036,141.98443 C278.766124,137.499202 277.479586,133.474556 277.784658,129.00837 L277.784658,125.873153 C277.784658,80.7721302 277.784658,53.6080537 277.784658,12.5459577 C277.784658,5.93633528 272.42944,0.550173343 265.788874,0.550173343 C239.330945,0.550173343 153.685932,0.550173343 127.071699,0.550173343 Z" id="Fill-1" fill="#E6E9F2"></path>
                    <path d="M184.374228,93.2102139 C173.901815,93.208139 165.410568,101.696051 165.408494,112.168464 C165.40716,119.009257 169.090504,125.320448 175.047344,128.683898 C175.229336,128.788751 175.446008,128.815575 175.648081,128.758221 C175.848747,128.702201 176.01918,128.569263 176.122329,128.388308 L181.971352,118.051277 C182.185874,117.671435 182.052196,117.18963 181.672576,116.974736 C179.008344,115.478339 178.061703,112.105404 179.558101,109.441173 C181.054573,106.776942 184.427433,105.830226 187.091664,107.326698 C189.755895,108.823096 190.702611,112.19603 189.206139,114.860261 C188.708773,115.74577 187.977247,116.47737 187.091664,116.974736 C186.712044,117.18963 186.578366,117.671435 186.792888,118.051277 L192.626128,128.388308 C192.72898,128.569856 192.899487,128.703386 193.100375,128.759777 C193.169215,128.77971 193.2405,128.789862 193.31223,128.789788 C193.448502,128.78964 193.582477,128.754294 193.701113,128.687084 C202.821996,123.541132 206.044357,111.975579 200.89848,102.854696 C197.534882,96.892965 191.219318,93.2068052 184.374228,93.2102139" id="Fill-1" fill="#5A6772" opacity="0.150000006"></path>
                    <path d="M47.5252962,126.662693 C21.7242454,126.657581 0.804227657,147.569384 0.799115863,173.370434 C0.79582971,190.224202 9.87054233,205.773185 24.5465034,214.059768 C24.9948808,214.318097 25.5286982,214.384185 26.0265504,214.24288 C26.5209339,214.104862 26.9408313,213.777342 27.1949605,213.33152 L41.6052909,187.864014 C42.1338139,186.928191 41.8044683,185.741159 40.8691925,185.211723 C34.3052837,181.525024 31.9730276,173.215072 35.6597265,166.651164 C39.3466081,160.087255 47.6563772,157.754816 54.2202861,161.441698 C60.784195,165.128397 63.1166336,173.438348 59.4297521,180.002257 C58.204382,182.183898 56.4021094,183.986353 54.2202861,185.211723 C53.2850103,185.741159 52.9556647,186.928191 53.4841877,187.864014 L67.855632,213.33152 C68.1090309,213.778802 68.5291108,214.107783 69.0240421,214.246714 C69.1936441,214.295824 69.3692707,214.320835 69.5459928,214.320653 C69.8817281,214.320287 70.2118039,214.233204 70.504089,214.067619 C92.9753537,201.389456 100.914335,172.89522 88.2363554,150.423956 C79.9494067,135.735945 64.3896529,126.654295 47.5252962,126.662693" id="Fill-1" fill="#FFFFFF"></path>
                    <path d="M136.978,58.8279932 L130.865854,58.8279932 C129.17229,58.8279932 127.799269,57.4553689 127.799269,55.7614077 C127.799269,54.0674465 129.17229,52.6948222 130.865854,52.6948222 L136.977603,52.6948222 C138.671168,52.6948222 140.044189,54.0678432 140.044189,55.7614077 C140.044585,57.4553689 138.671564,58.8279932 136.978,58.8279932" id="Fill-3" fill="#D6DEE8"></path>
                    <path d="M136.978,44.1083827 L130.865854,44.1083827 C129.17229,44.1083827 127.799269,42.7357584 127.799269,41.0417972 C127.799269,39.3478359 129.17229,37.9752116 130.865854,37.9752116 L136.977603,37.9752116 C138.671168,37.9752116 140.044189,39.3482326 140.044189,41.0417972 C140.044585,42.7353617 138.671564,44.1083827 136.978,44.1083827" id="Fill-4" fill="#FFFFFF"></path>
                    <path d="M136.978,73.5480005 L130.865854,73.5480005 C129.17229,73.5480005 127.799269,72.1753762 127.799269,70.481415 C127.799269,68.7874538 129.17229,67.4148294 130.865854,67.4148294 L136.977603,67.4148294 C138.671168,67.4148294 140.044189,68.7878505 140.044189,70.481415 C140.044585,72.1753762 138.671564,73.5480005 136.978,73.5480005" id="Fill-5" fill="#FFFFFF"></path>
                    <path d="M136.978,88.2680078 L130.865854,88.2680078 C129.17229,88.2680078 127.799269,86.8953835 127.799269,85.2014222 C127.799269,83.507461 129.17229,82.1348367 130.865854,82.1348367 L136.977603,82.1348367 C138.671168,82.1348367 140.044189,83.5078577 140.044189,85.2014222 C140.044585,86.8949867 138.671564,88.2680078 136.978,88.2680078" id="Fill-6" fill="#D6DEE8"></path>
                    <path d="M136.978,102.987618 L130.865854,102.987618 C129.17229,102.987618 127.799269,101.614994 127.799269,99.9210328 C127.799269,98.2270716 129.17229,96.8544473 130.865854,96.8544473 L136.977603,96.8544473 C138.671168,96.8544473 140.044189,98.2274683 140.044189,99.9210328 C140.044585,101.614994 138.671564,102.987618 136.978,102.987618" id="Fill-7" fill="#FFFFFF"></path>
                    <path d="M136.978,117.707626 L130.865854,117.707626 C129.17229,117.707626 127.799269,116.335001 127.799269,114.64104 C127.799269,112.947079 129.17229,111.574455 130.865854,111.574455 L136.977603,111.574455 C138.671168,111.574455 140.044189,112.947476 140.044189,114.64104 C140.044585,116.334605 138.671564,117.707626 136.978,117.707626" id="Fill-8" fill="#D6DEE8"></path>
                    <g id="Group-13" transform="translate(115.031879, 0.093161)">
                        <path d="M21.9461205,132.334075 L15.8339752,132.334075 C14.1404107,132.334075 12.7673897,130.961451 12.7673897,129.26749 C12.7673897,127.573529 14.1404107,126.200904 15.8339752,126.200904 L21.9457238,126.200904 C23.6392883,126.200904 25.0123093,127.573925 25.0123093,129.26749 C25.0127061,130.961451 23.639685,132.334075 21.9461205,132.334075" id="Fill-9" fill="#FFFFFF"></path>
                        <path d="M0.0440350574,6.20438091 L0.0440350574,23.3603996 L162.752779,23.3603996 L162.752779,6.20438091 C162.752779,3.03019698 160.179594,0.457012488 157.00541,0.457012488 L5.79140348,0.457012488 C2.61721955,0.457012488 0.0440350574,3.03019698 0.0440350574,6.20438091 Z" id="Fill-11" fill="#5A6772"></path>
                    </g>
                    <g id="Group-22" transform="translate(165.000000, 37.000000)">
                        <path d="M147.241607,43.29486 L5.31503001,43.29486 C2.61619672,43.29486 0.40849316,41.0867597 0.40849316,38.3883231 L0.40849316,5.27078621 C0.40849316,2.57195292 2.61659343,0.364249361 5.31503001,0.364249361 L147.241607,0.364249361 C149.94044,0.364249361 152.148144,2.57234963 152.148144,5.27078621 L152.148144,38.3883231 C152.148144,41.0871564 149.940044,43.29486 147.241607,43.29486" id="Fill-14" fill="#0073E6"></path>
                        <path d="M121.923036,32.2559455 L81.6904651,32.2559455 C79.9969006,32.2559455 78.6238796,30.8833212 78.6238796,29.1893599 C78.6238796,27.4953987 79.9969006,26.1227744 81.6904651,26.1227744 L121.923036,26.1227744 C123.6166,26.1227744 124.989621,27.4953987 124.989621,29.1893599 C124.989621,30.8833212 123.6166,32.2559455 121.923036,32.2559455" id="Fill-18" fill="#004D99"></path>
                        <path d="M104.771183,17.5363349 L93.1181576,17.5363349 C91.4245931,17.5363349 90.051572,16.1637106 90.051572,14.4697494 C90.051572,12.7757882 91.4245931,11.4031639 93.1181576,11.4031639 L104.771183,11.4031639 C106.464747,11.4031639 107.837768,12.7757882 107.837768,14.4697494 C107.837768,16.1633139 106.464747,17.5363349 104.771183,17.5363349" id="Fill-19" fill="#F6F4F2"></path>
                        <path d="M135.492974,17.5363349 L116.526956,17.5363349 C114.833392,17.5363349 113.460371,16.1637106 113.460371,14.4697494 C113.460371,12.7757882 114.833392,11.4031639 116.526956,11.4031639 L135.492974,11.4031639 C137.186539,11.4031639 138.55956,12.7757882 138.55956,14.4697494 C138.55956,16.1633139 137.186539,17.5363349 135.492974,17.5363349" id="Fill-20" fill="#B4D4F4"></path>
                        <path d="M79.9314431,17.5363349 L41.1897169,17.5363349 C39.4961524,17.5363349 38.1231314,16.1637106 38.1231314,14.4697494 C38.1231314,12.7757882 39.4961524,11.4031639 41.1897169,11.4031639 L79.9314431,11.4031639 C81.6250076,11.4031639 82.9980286,12.7757882 82.9980286,14.4697494 C82.9980286,16.1633139 81.6250076,17.5363349 79.9314431,17.5363349" id="Fill-21" fill="#F6F4F2"></path>
                        <path d="M70.3183123,32.2559455 L58.6652873,32.2559455 C56.9717228,32.2559455 55.5987018,30.8833212 55.5987018,29.1893599 C55.5987018,27.4953987 56.9717228,26.1227744 58.6652873,26.1227744 L70.3183123,26.1227744 C72.0118768,26.1227744 73.3848979,27.4953987 73.3848979,29.1893599 C73.3852946,30.8833212 72.0122736,32.2559455 70.3183123,32.2559455" id="Fill-22" fill="#B4D4F4"></path>
                        <path d="M46.7436881,32.2559455 L40.6319395,32.2559455 C38.938375,32.2559455 37.565354,30.8833212 37.565354,29.1893599 C37.565354,27.4953987 38.938375,26.1227744 40.6319395,26.1227744 L46.7436881,26.1227744 C48.4372526,26.1227744 49.8102736,27.4953987 49.8102736,29.1893599 C49.8102736,30.8833212 48.4372526,32.2559455 46.7436881,32.2559455" id="Fill-23" fill="#F6F4F2"></path>
                        <path d="M25.3771642,32.2559455 L19.2654156,32.2559455 C17.571851,32.2559455 16.19883,30.8833212 16.19883,29.1893599 C16.19883,27.4953987 17.571851,26.1227744 19.2654156,26.1227744 L25.3771642,26.1227744 C27.0707287,26.1227744 28.4437497,27.4953987 28.4437497,29.1893599 C28.4441464,30.8833212 27.0711254,32.2559455 25.3771642,32.2559455" id="Fill-24" fill="#B4D4F4"></path>
                        <path d="M25.3771642,17.5363349 L19.2654156,17.5363349 C17.571851,17.5363349 16.19883,16.1637106 16.19883,14.4697494 C16.19883,12.7757882 17.571851,11.4031639 19.2654156,11.4031639 L25.3771642,11.4031639 C27.0707287,11.4031639 28.4437497,12.7757882 28.4437497,14.4697494 C28.4441464,16.1633139 27.0711254,17.5363349 25.3771642,17.5363349" id="Fill-25" fill="#004D99"></path>
                        <path d="M135.493371,32.2555488 C135.293031,32.2555488 135.092692,32.2349197 134.892352,32.1940584 C134.695979,32.1571641 134.503971,32.0956737 134.319896,32.022282 C134.135822,31.9445264 133.955714,31.8505056 133.788302,31.7398229 C133.620493,31.6255697 133.465378,31.4986218 133.322165,31.3558054 C133.183316,31.2169561 133.056368,31.0610482 132.941718,30.8892718 C132.831432,30.7258264 132.737411,30.545719 132.659656,30.3616446 C132.586264,30.1779668 132.524773,29.9855614 132.487879,29.7895855 C132.365692,29.1913435 132.427182,28.6105568 132.659656,28.0150917 C132.737411,27.8310173 132.831432,27.6552737 132.941718,27.4874645 C133.056368,27.3196552 133.183316,27.1601769 133.322165,27.0209309 C133.465378,26.8781145 133.620493,26.7511666 133.788302,26.6369135 C133.955714,26.5262307 134.135822,26.4326067 134.319896,26.3544543 C134.503971,26.2810626 134.695979,26.2195722 134.892352,26.182678 C135.289064,26.1009552 135.698075,26.1009552 136.090423,26.182678 C136.286796,26.2195722 136.478804,26.2810626 136.666846,26.3544543 C136.85092,26.4322099 137.030631,26.5262307 137.194473,26.6369135 C137.361886,26.7511666 137.521364,26.8781145 137.66061,27.0209309 C137.803823,27.1597802 137.930374,27.3196552 138.041057,27.4874645 C138.151343,27.6552737 138.249331,27.8310173 138.323119,28.0150917 C138.400875,28.2031333 138.461969,28.3951421 138.498863,28.5911179 C138.539724,28.7874904 138.560353,28.9878301 138.560353,29.1885665 C138.560353,29.3885095 138.540121,29.5892459 138.498863,29.7895855 C138.461969,29.9855614 138.400478,30.1779668 138.323119,30.3616446 C138.249331,30.545719 138.151343,30.7258264 138.041057,30.8892718 C137.930771,31.0610482 137.803823,31.2165594 137.66061,31.3558054 C137.521761,31.4986218 137.362282,31.6255697 137.194473,31.7398229 C137.030631,31.8505056 136.85092,31.9441297 136.666846,32.022282 C136.478804,32.0956737 136.286399,32.1571641 136.090423,32.1940584 C135.89405,32.2349197 135.693711,32.2555488 135.493371,32.2555488" id="Fill-26" fill="#F6F4F2"></path>
                    </g>
                    <g id="Group-24" transform="translate(214.000000, 89.000000)">
                        <path d="M147.241607,43.3979528 L5.31503001,43.3979528 C2.61619672,43.3979528 0.40849316,41.1898526 0.40849316,38.491416 L0.40849316,5.37387908 C0.40849316,2.67504578 2.61659343,0.467342227 5.31503001,0.467342227 L147.241607,0.467342227 C149.94044,0.467342227 152.148144,2.67544249 152.148144,5.37387908 L152.148144,38.491416 C152.148144,41.1902493 149.940044,43.3979528 147.241607,43.3979528" id="Fill-15" fill="#A1C8EF"></path>
                        <path d="M22.5297621,30.9931581 L14.9616829,23.4250789 C13.7640087,22.227008 13.7640087,20.2858951 14.9616829,19.0878241 L22.5297621,11.5197449 C23.7274364,10.3224674 25.668946,10.3224674 26.8666202,11.5197449 C28.0642944,12.7178159 28.0642944,14.6589288 26.8666202,15.8569997 L21.4669701,21.2562532 L26.8666202,26.6555066 C28.0642944,27.8535775 28.0642944,29.7946905 26.8666202,30.9927614 C25.668946,32.1908324 23.7274364,32.1904356 22.5297621,30.9931581" id="Fill-27" stroke="#A1C8EF" stroke-width="1.27195858" fill="#F6F4F2"></path>
                        <path d="M49.9870089,31.8913146 C49.2023122,31.8913146 48.4172186,31.5917969 47.8185799,30.9931581 C46.6209057,29.7950872 46.6209057,27.8539743 47.8185799,26.6559033 L53.21823,21.2566499 L47.8185799,15.8573964 C46.6209057,14.6593255 46.6209057,12.7182126 47.8185799,11.5201416 C49.0162541,10.3228641 50.9577638,10.3228641 52.155438,11.5201416 L59.7235172,19.0882208 C60.9211914,20.2862918 60.9211914,22.2274047 59.7235172,23.4254756 L52.155438,30.9935548 C51.5567992,31.5917969 50.7721024,31.8913146 49.9870089,31.8913146" id="Fill-28" stroke="#A1C8EF" stroke-width="1.27195858" fill="#F6F4F2"></path>
                        <path d="M31.7128568,36.4907962 C30.1212473,35.9115963 29.3008465,34.1517809 29.8800463,32.5601714 L38.3796058,9.20691264 C38.9588057,7.61569989 40.7182244,6.79569571 42.3102306,7.37410214 C43.9018401,7.95330199 44.7222409,9.71311744 44.1430411,11.3047269 L35.6434816,34.6579857 C35.0686456,36.2357102 33.3183512,37.0739632 31.7128568,36.4907962" id="Fill-29" stroke="#A1C8EF" stroke-width="1.27195858" fill="#F6F4F2"></path>
                    </g>
                    <g id="Group-39" transform="translate(128.195783, 9.124381)">
                        <path d="M3.17066636,6.34137847 C2.36534053,6.34137847 1.57191607,6.01409088 1.00382416,5.44163513 C0.431368415,4.8731465 0.104080826,4.08011876 0.104080826,3.27479293 C0.104080826,0.78463027 2.89217437,-0.615763899 4.8717684,0.723139875 C5.03957767,0.837789709 5.19865927,0.96434091 5.33790527,1.10715731 C5.91036101,1.67564594 6.23725189,2.46867368 6.23725189,3.27439622 C6.23725189,4.07972205 5.91036101,4.87274979 5.33790527,5.44123842 C5.19865927,5.58405482 5.03957767,5.71100273 4.8717684,5.82128873 C4.70832296,5.93197144 4.52821561,6.02956265 4.34414113,6.10374784 C4.16006666,6.18110672 3.96805794,6.24259712 3.77168539,6.27949136 C3.57134571,6.32035272 3.37100603,6.34137847 3.17066636,6.34137847" id="Fill-30" fill="#DD414C"></path>
                        <path d="M13.5645268,6.34137847 C13.3641871,6.34137847 13.1634507,6.32074943 12.9674749,6.27988807 C12.7711023,6.24299383 12.5790936,6.18150344 12.3950191,6.10414455 C12.2069775,6.03035608 12.031234,5.93236816 11.8634247,5.82168544 C11.6956155,5.71139945 11.540501,5.58445153 11.3972879,5.44163513 C10.8248321,4.8731465 10.4979412,4.08011876 10.4979412,3.27479293 C10.4979412,2.4690704 10.8248321,1.67604265 11.3972879,1.10755402 C11.540501,0.964737622 11.6956155,0.838186421 11.8634247,0.723536587 C12.031234,0.612853875 12.2069775,0.519229789 12.3950191,0.44107748 C12.5790936,0.367685717 12.7711023,0.306195322 12.9674749,0.265333962 C13.36022,0.187578365 13.7692303,0.187578365 14.1655458,0.265333962 C14.3619183,0.306195322 14.5539271,0.367685717 14.7380015,0.44107748 C14.9260431,0.518833077 15.1021834,0.612853875 15.2695959,0.723536587 C15.4370085,0.838186421 15.5925197,0.964737622 15.7357328,1.10755402 C16.3042214,1.67604265 16.6354761,2.4690704 16.6354761,3.27479293 C16.6354761,4.08011876 16.3042214,4.8731465 15.7357328,5.44163513 C15.5929164,5.58445153 15.4374052,5.71139945 15.2695959,5.82168544 C15.1017867,5.93236816 14.9260431,6.02995937 14.7380015,6.10414455 C14.5539271,6.18150344 14.3619183,6.24299383 14.1655458,6.27988807 C13.9652061,6.32035272 13.7648664,6.34137847 13.5645268,6.34137847" id="Fill-31" fill="#EEA03A"></path>
                        <path d="M23.9623543,6.34137847 C23.7620146,6.34137847 23.5616749,6.32074943 23.3613353,6.27988807 C23.1649627,6.24299383 22.972954,6.18150344 22.7888795,6.10414455 C22.6052018,6.03035608 22.4250944,5.93236816 22.2572851,5.82168544 C22.0894759,5.71139945 21.9343614,5.58445153 21.7911483,5.44163513 C21.2230563,4.8731465 20.8957688,4.08011876 20.8957688,3.27479293 C20.8957688,3.07445326 20.9163978,2.87371687 20.9528953,2.67337719 C20.9937567,2.48136847 21.0508832,2.28539263 21.1286388,2.10131816 C21.2063944,1.91724368 21.3004152,1.73713633 21.4107012,1.57369089 C21.5209872,1.4019145 21.6519023,1.24680002 21.7907515,1.10715731 C21.9339647,0.96434091 22.0890791,0.837789709 22.2568884,0.723139875 C22.4246977,0.612457163 22.6044083,0.518833077 22.7884828,0.440680768 C22.9725573,0.367289005 23.1649627,0.30579861 23.3609386,0.26493725 C23.7572541,0.187181653 24.1662644,0.187181653 24.5586128,0.26493725 C24.7549853,0.30579861 24.946994,0.367289005 25.1310685,0.440680768 C25.3195068,0.518436364 25.4952503,0.612457163 25.6626629,0.723139875 C25.8304722,0.837789709 25.9855867,0.96434091 26.1287998,1.10715731 C26.2716162,1.24640331 26.3985641,1.4019145 26.5088501,1.57369089 C26.6191361,1.73713633 26.7175207,1.91724368 26.7909125,2.10131816 C26.8686681,2.28539263 26.9257946,2.48136847 26.966656,2.67337719 C27.0075174,2.87371687 27.0277497,3.07445326 27.0277497,3.27479293 C27.0277497,4.08408588 26.7008588,4.8731465 26.1284031,5.44163513 C25.9851899,5.58445153 25.8300755,5.71139945 25.6622662,5.82168544 C25.4944569,5.93236816 25.3187134,6.02995937 25.1306718,6.10414455 C24.9465973,6.18150344 24.7545886,6.24299383 24.5582161,6.27988807 C24.3630336,6.32035272 24.162694,6.34137847 23.9623543,6.34137847" id="Fill-32" fill="#6DAA43"></path>
                        <path d="M109.851742,6.34098175 L36.729744,6.34098175 C35.0361795,6.34098175 33.6631584,4.96835744 33.6631584,3.27439622 C33.6631584,1.580435 35.0361795,0.207810689 36.729744,0.207810689 L109.851742,0.207810689 C111.545307,0.207810689 112.918328,1.58083171 112.918328,3.27439622 C112.918328,4.96796073 111.545307,6.34098175 109.851742,6.34098175" id="Fill-33" fill="#FFFFFF" opacity="0.2"></path>
                        <path d="M133.174851,6.34098175 L120.635967,6.34098175 C118.942403,6.34098175 117.569382,4.96835744 117.569382,3.27439622 C117.569382,1.580435 118.942403,0.207810689 120.635967,0.207810689 L133.174851,0.207810689 C134.868415,0.207810689 136.241436,1.58083171 136.241436,3.27439622 C136.241436,4.96796073 134.868415,6.34098175 133.174851,6.34098175" id="Fill-34" fill="#FFFFFF" opacity="0.2"></path>
                    </g>
                </g>
            </g>
            <g id="book" transform="translate(0.216892, 131.210211)">
                <path d="M193.645441,245.669778 L15.6410817,245.669778 C7.09946927,245.669778 0.175759614,238.745561 0.175759614,230.204456 L0.175759614,156.143404 C0.175251638,147.6023 7.09946927,140.678082 15.6410817,140.678082 L193.645949,140.678082 C202.187561,140.678082 209.111271,147.6023 209.111271,156.143404 L209.111271,230.203948 C209.111271,238.745561 202.186545,245.669778 193.645441,245.669778 Z" id="Shape" fill="#0066CC" fill-rule="nonzero"></path>
                <polygon id="Shape" fill="#9B9B9B" fill-rule="nonzero" opacity="0.4" style="mix-blend-mode: multiply;" points="67.0980106 245.669778 52.8340512 231.405819 22.3529655 231.405819 22.3529655 245.669778"></polygon>
                <path d="M188.889772,239.106732 L14.7897143,239.106732 C9.80139235,239.106732 5.7573973,235.062737 5.7573973,230.074415 L5.7573973,21.2024004 C5.7573973,13.1174581 12.3113006,6.56304686 20.3967508,6.56304686 L188.89028,6.56304686 C196.975222,6.56304686 203.529633,13.1169502 203.529633,21.2024004 L203.529633,224.467378 C203.529125,232.55232 196.974714,239.106732 188.889772,239.106732 Z" id="Shape" fill="url(#linearGradient-1)" fill-rule="nonzero"></path>
                <path d="M193.645949,0 L15.6410817,0 C7.09946927,0 0.175251638,6.92421763 0.175251638,15.4653221 L0.175251638,230.073907 L5.75688932,230.073907 C5.75688932,225.31011 9.61852108,221.448986 14.3818098,221.448986 L193.645441,221.448986 C202.187053,221.448986 209.110763,214.524769 209.110763,205.983664 L209.110763,15.4653221 C209.111271,6.92421763 202.186545,0 193.645949,0 Z" id="Shape" fill="#80B9F1" fill-rule="nonzero"></path>
                <rect id="Rectangle-3" fill="#FFFFFF" x="71.7697085" y="156.874572" width="101.806507" height="9.25513699"></rect>
                <rect id="Rectangle-3-Copy" fill="#FFFFFF" x="81.0248455" y="176.31036" width="83.2962329" height="9.25513699"></rect>
                <path d="M122.378403,41.7059921 C98.4991769,41.701261 79.137414,61.0554205 79.1326829,84.9346466 C79.1296415,100.53304 87.5284124,114.923836 101.111215,122.593183 C101.526195,122.832269 102.02025,122.893434 102.481019,122.762655 C102.938578,122.634917 103.327199,122.331793 103.562399,121.919179 L116.899357,98.348653 C117.388512,97.4825356 117.083698,96.3839215 116.218088,95.8939214 C110.1431,92.481831 107.984565,84.7908569 111.396656,78.7158693 C114.808915,72.6408817 122.49972,70.4821778 128.574708,73.8944372 C134.649695,77.3065276 136.808399,84.9975017 133.39614,91.0724893 C132.262043,93.0916277 130.594015,94.7598246 128.574708,95.8939214 C127.709097,96.3839215 127.404283,97.4825356 127.893439,98.348653 L141.194407,121.919179 C141.428931,122.333145 141.817721,122.637621 142.275787,122.766203 C142.432756,122.811655 142.595301,122.834803 142.758859,122.834634 C143.069587,122.834296 143.375077,122.7537 143.64559,122.600448 C164.443054,110.866635 171.79069,84.4948292 160.057046,63.6973659 C152.387361,50.1034112 137.986596,41.6982196 122.378403,41.7059921" id="Fill-1" fill="#FFFFFF"></path>
                <path d="M193.645949,221.448986 L14.3818098,221.448986 C9.62055298,221.448986 5.76095313,225.307062 5.75688932,230.067303 L5.75688932,230.074415 C5.75688932,235.062737 9.80088438,239.106732 14.7892064,239.106732 L188.889772,239.106732 C196.974714,239.106732 203.529125,232.552828 203.529125,224.467378 L203.529125,217.876901 C200.849045,220.106914 197.404461,221.448986 193.645949,221.448986 Z" id="Shape" fill="#F7F9FA" fill-rule="nonzero"></path>
                <path d="M14.7892064,239.10724 C9.80088438,239.10724 5.75841325,235.064768 5.75841325,230.076446 C5.75841325,227.695056 6.72102732,225.537683 8.28406875,223.97515 C9.84101446,222.418204 11.9983875,221.449494 14.3797779,221.449494 L38.4100794,221.449494 L38.4100794,0 L15.6410817,0 C7.09946927,0 0.175251638,6.92370965 0.175251638,15.4653221 L0.175251638,230.203948 C0.175251638,238.745561 7.09946927,245.669271 15.6405738,245.669271 L38.4095714,245.669271 L38.4095714,239.106732 L14.7892064,239.106732 L14.7892064,239.10724 Z" id="Shape" fill="#2079D4" fill-rule="nonzero"></path>
                <polygon id="Shape" fill="#9B9B9B" fill-rule="nonzero" opacity="0.5" style="mix-blend-mode: multiply;" points="60.5344558 239.106732 52.8340512 231.405819 22.3529655 231.405819 22.3529655 239.106732"></polygon>
                <path d="M48.8245985,281.153733 L38.8728453,273.648318 C38.0732914,273.224667 37.1147412,273.224667 36.3151873,273.648318 L26.3634341,281.153733 C24.5443729,282.117363 22.3529655,280.798658 22.3529655,278.739832 L22.3529655,231.389076 L52.833544,231.389076 L52.8335432,278.739832 C52.8350671,280.79815 50.6436597,282.116855 48.8245985,281.153733 Z" id="Shape" fill="#004080" fill-rule="nonzero"></path>
            </g>
            <g id="chat" transform="translate(110.919560, 47.954403) scale(-1, 1) translate(-110.919560, -47.954403) translate(59.919560, 0.454403)" fill-rule="nonzero">
                <path d="M98.2667333,0.937182492 L20.1169596,0.937182492 C18.4056644,0.937182492 17.0186343,2.32421258 17.0186343,4.03550781 L17.0186343,19.6808323 L76.9983138,66.5399569 L98.2667333,66.5399569 C99.9780285,66.5399569 101.365059,65.1529269 101.365059,63.4416316 L101.365059,4.03550781 C101.365059,2.32421258 99.9780285,0.937182492 98.2667333,0.937182492 Z" id="Shape" fill="#65DDE0"></path>
                <path d="M3.09832532,16.5316421 C1.38703009,16.5316421 0,17.9186722 0,19.6299674 L0,82.1344166 L-1.46549439e-14,92.3009093 C-1.45196732e-14,93.4054788 0.8954305,94.3009093 2,94.3009093 C2.53043298,94.3009093 3.03914081,94.0901956 3.41421356,93.7151229 L14.9949199,82.1344166 L81.248099,82.1344166 C82.9593942,82.1344166 84.3464243,80.7473865 84.3464243,79.0360913 L84.3464243,19.6299674 C84.3464243,17.9186722 82.9593942,16.5316421 81.248099,16.5316421 L3.09832532,16.5316421 Z" id="Shape" fill="#0066CC"></path>
                <path d="M65.6027745,37.1496569 L43.1103946,37.1496569 C42.0738708,37.1496569 41.2360297,36.3099414 41.2360297,35.275292 C41.2360297,34.2406425 42.0738708,33.400927 43.1103946,33.400927 L65.6027745,33.400927 C66.6392983,33.400927 67.4771394,34.2406425 67.4771394,35.275292 C67.4771394,36.3099414 66.6392983,37.1496569 65.6027745,37.1496569 Z" id="Shape" fill="#FFFFFF"></path>
                <path d="M65.6027745,50.2702118 L18.7436498,50.2702118 C17.707126,50.2702118 16.8692849,49.4304963 16.8692849,48.3958468 C16.8692849,47.3611974 17.707126,46.5214819 18.7436498,46.5214819 L65.6027745,46.5214819 C66.6392983,46.5214819 67.4771394,47.3611974 67.4771394,48.3958468 C67.4771394,49.4304963 66.6392983,50.2702118 65.6027745,50.2702118 Z" id="Shape" fill="#FFFFFF"></path>
                <path d="M65.6027745,63.3907667 L18.7436498,63.3907667 C17.707126,63.3907667 16.8692849,62.5510512 16.8692849,61.5164017 C16.8692849,60.4817523 17.707126,59.6420368 18.7436498,59.6420368 L65.6027745,59.6420368 C66.6392983,59.6420368 67.4771394,60.4817523 67.4771394,61.5164017 C67.4771394,62.5510512 66.6392983,63.3907667 65.6027745,63.3907667 Z" id="Shape" fill="#FFFFFF"></path>
            </g>
            <g id="Group-21" transform="translate(257.202247, 336.600160)" fill-rule="nonzero">
                <g id="chat-bubble" transform="translate(0.026736, 0.091910)">
                    <path d="M0.467576174,70.8522208 L0.467576174,34.6230338 L0.467576174,7.83141043 C0.467576174,3.78822331 3.73121618,0.524583302 7.7744033,0.524583302 L80.8426746,0.524583302 C84.8858617,0.524583302 88.1495017,3.78822331 88.1495017,7.83141043 L88.1495017,17.5739227 L88.1495017,70.8522208 C88.1495017,73.4240543 86.0646187,75.5089372 83.4927853,75.5089372 L5.12429259,75.5089372 C2.55245913,75.5089372 0.467576174,73.4240543 0.467576174,70.8522208 Z" id="Shape" fill="#0AB6BB"></path>
                    <path d="M146.455225,26.1047014 L146.455225,69.9456642 C146.455225,73.9888513 143.191585,77.2524913 139.148398,77.2524913 L134.277256,77.2524913 L122.099058,77.2524913 L61.2087562,77.2524913 C61.2087562,44.7777548 61.2087562,26.9165965 61.2087562,23.6690163 C61.2087562,18.7978743 66.0801265,18.7978743 66.0801265,18.7978743 L122.099058,18.7978743 L139.148398,18.7978743 C143.191357,18.7978743 146.455225,22.0615143 146.455225,26.1047014 Z" id="Shape" fill="#E6E9F2"></path>
                </g>
                <g id="Group-20" transform="translate(16.972456, 37.116401)">
                    <path d="M4.86835097,0 C2.64782709,0 0.848059655,1.79976744 0.848059655,4.02029131 L0.848059655,85.1241355 L0.848059655,100.833645 C0.848059655,101.690923 1.54302064,102.385884 2.40029846,102.385884 C2.81197779,102.385884 3.2067958,102.222345 3.49789705,101.931243 L20.3050049,85.1241355 L106.273085,85.1241355 C108.493609,85.1241355 110.293377,83.3243681 110.293377,81.1038442 L110.293377,4.02029131 C110.293377,1.79976744 108.493609,0 106.273085,0 L4.86835097,0 Z" id="Shape" fill="#65DDE0"></path>
                    <g id="Group-17" transform="translate(21.833921, 20.716780)" fill="#FFFFFF">
                        <path d="M32.3643102,5.47337292 L3.17889232,5.47337292 C1.83393097,5.47337292 0.746774159,4.38378399 0.746774159,3.04125476 C0.746774159,1.69872554 1.83393097,0.609136606 3.17889232,0.609136606 L32.3643102,0.609136606 C33.7092715,0.609136606 34.7964284,1.69872554 34.7964284,3.04125476 C34.7964284,4.38378399 33.7092715,5.47337292 32.3643102,5.47337292 Z" id="Shape"></path>
                        <path d="M63.9818462,22.4982 L3.17889232,22.4982 C1.83393097,22.4982 0.746774159,21.4086111 0.746774159,20.0660819 C0.746774159,18.7235526 1.83393097,17.6339637 3.17889232,17.6339637 L63.9818462,17.6339637 C65.3268076,17.6339637 66.4139644,18.7235526 66.4139644,20.0660819 C66.4139644,21.4086111 65.3268076,22.4982 63.9818462,22.4982 Z" id="Shape"></path>
                        <path d="M63.9818462,39.5230271 L3.17889232,39.5230271 C1.83393097,39.5230271 0.746774159,38.4334382 0.746774159,37.090909 C0.746774159,35.7483797 1.83393097,34.6587908 3.17889232,34.6587908 L63.9818462,34.6587908 C65.3268076,34.6587908 66.4139644,35.7483797 66.4139644,37.090909 C66.4139644,38.4334382 65.3268076,39.5230271 63.9818462,39.5230271 Z" id="Shape"></path>
                    </g>
                </g>
            </g>
            <g id="Group-23" transform="translate(249.110741, 207.100160)">
                <path d="M52.169633,93.1322941 L18.7998242,93.1322941 C13.4034553,93.1322941 8.98810701,88.7169458 8.98810701,83.3205769 L8.98810701,58.8545804 C8.98810701,53.4582114 13.4034553,49.0428632 18.7998242,49.0428632 L52.169633,49.0428632 C57.5663041,49.0428632 61.9813503,53.4582114 61.9813503,58.8545804 L61.9813503,83.3205769 C61.9813503,88.7169458 57.5663041,93.1322941 52.169633,93.1322941" id="Fill-1" fill="#8EBEED"></path>
                <path d="M134.699846,93.1322941 L101.330037,93.1322941 C95.9336684,93.1322941 91.5186223,88.7169458 91.5186223,83.3205769 L91.5186223,58.8545804 C91.5186223,53.4582114 95.9336684,49.0428632 101.330037,49.0428632 L134.699846,49.0428632 C140.096215,49.0428632 144.511563,53.4582114 144.511563,58.8545804 L144.511563,83.3205769 C144.511563,88.7169458 140.096215,93.1322941 134.699846,93.1322941" id="Fill-2" fill="#8EBEED"></path>
                <polyline id="Fill-3" fill="#FFFFFF" opacity="0.3" points="33.6719402 92.2159295 55.2214623 49.1742903 63.8337179 53.4863097 42.2841958 96.5279489 33.6719402 92.2159295"></polyline>
                <polyline id="Fill-5" fill="#FFFFFF" opacity="0.300000012" points="117.764475 91.5473127 139.314299 48.5056735 147.926555 52.8173907 126.37673 95.8593321 117.764475 91.5473127"></polyline>
                <g id="Group-12" transform="translate(0.000000, 0.166462)">
                    <path d="M32.2247308,24.6702373 L37.3531092,14.4887113 C43.7721929,1.74480883 59.4509998,-3.43039991 72.1949022,2.98868381 L77.4160349,5.61873764 L119.313805,26.5238134 L153.830202,44.2284113 L152.64343,48.8760987 L129.039717,48.8760987 L129.039717,44.0335366 L77.8091079,18.2294001 L62.9933747,13.7610977 C57.5839594,12.1296628 51.7381049,14.1512249 48.4920897,18.7758048 L48.4920897,18.7758048 C45.1710185,23.5073164 39.4211526,25.9020337 33.7232998,24.9267442 L32.2247308,24.6702373 Z" id="Fill-8" fill="#17324D"></path>
                    <path d="M79.3158372,17.2719457 C87.2769996,13.2620578 96.672984,8.39381455 103.177873,14.4890134 C105.234709,16.416306 107.040543,18.5617952 108.595375,20.9254811 L108.595345,20.9255005 C111.637378,25.5500579 117.662402,27.1605279 122.606131,24.6705394 L117.477752,14.4890134 C111.058668,1.74511096 95.3798616,-3.43009778 82.6359591,2.98898594 L1.13238849,44.1377719 L0.408179521,49.608163 L26.1932817,49.608163 L26.1845199,44.0338387 L79.3158372,17.2719457 Z" id="Fill-9" fill="#455B71"></path>
                    <path d="M76.7498352,63.6820479 C71.1440892,63.6820479 66.5997308,68.2264063 66.5997308,73.8324544 L62.1593056,73.8324544 L62.1593056,59.0268073 L66.5997308,59.0268073 C69.6293031,55.8203955 73.0126712,54.2171896 76.7498352,54.2171896 C80.4872006,54.2171896 83.8706694,55.8203955 86.9002417,59.0268073 L91.0530378,59.0268073 L91.0530378,73.8324544 L86.9002417,73.8324544 C86.9002417,68.2264063 82.3558833,63.6820479 76.7498352,63.6820479 Z" id="Fill-10" fill="#17324D"></path>
                    <path d="M58.4430894,78.3928258 C58.4430894,85.0037629 53.0648484,90.3823061 46.4542134,90.3823061 L24.5158482,90.3823061 C17.904911,90.3823061 12.52667,85.0037629 12.52667,78.3928258 L12.52667,58.1542518 C12.52667,54.8658537 15.2020435,52.1898759 18.4907438,52.1898759 L52.4793177,52.1898759 C55.7677159,52.1898759 58.4430894,54.8655515 58.4430894,58.1542518 L58.4430894,78.3928258 Z M4.3703307,78.3928258 C4.3703307,89.5012909 13.4076851,98.5386454 24.5158482,98.5386454 L46.4539112,98.5386454 C57.5620743,98.5386454 66.5994287,89.5012909 66.5994287,78.3928258 L66.5994287,58.1542518 C66.5994287,50.3683256 60.2649418,44.0338387 52.4790156,44.0338387 L1.63120743,44.0338387 C0.73387717,44.0338387 0,44.768018 0,45.6653483 L0,50.5589706 L4.3703307,58.1542518 L4.3703307,78.3928258 Z" id="Fill-11" fill="#17324D"></path>
                </g>
                <path d="M140.973303,58.3207142 L140.973303,78.5592881 C140.973303,85.1702253 135.594759,90.5487685 128.984124,90.5487685 L107.045759,90.5487685 C100.434822,90.5487685 95.056581,85.1702253 95.056581,78.5592881 L95.056581,58.3207142 C95.056581,55.032316 97.7322566,52.3563382 101.020655,52.3563382 L135.009229,52.3563382 C138.297929,52.3566404 140.973303,55.032316 140.973303,58.3207142 Z M154.691277,50.7254329 L154.691277,45.8318107 C154.691277,44.9344804 153.957399,44.2003011 153.060069,44.2003011 L101.020655,44.2003011 C93.2347286,44.2003011 86.9002417,50.534788 86.9002417,58.3207142 L86.9002417,78.5592881 C86.9002417,89.6677533 95.9375961,98.7051077 107.045759,98.7051077 L128.983822,98.7051077 C140.091985,98.7051077 149.12934,89.6677533 149.12934,78.5592881 L149.12934,58.3207142 L154.691277,50.7254329 Z" id="Fill-13" fill="#17324D"></path>
            </g>
        </g>
    </g>
</svg>
