<?xml version="1.0" encoding="UTF-8"?>
<svg width="17px" height="17px" viewBox="0 0 17 17" version="1.1" xmlns="http://www.w3.org/2000/svg" xmlns:xlink="http://www.w3.org/1999/xlink">
    <!-- Generator: Sketch 50 (54983) - http://www.bohemiancoding.com/sketch -->
    <title>Group 16</title>
    <desc>Created with Sketch.</desc>
    <defs></defs>
    <g id="Page-1" stroke="none" stroke-width="1" fill="none" fill-rule="evenodd">
        <g id="Group-16" transform="translate(0.000000, 1.000000)" stroke="#17324D">
            <path d="M11.1904851,15.0692445 L11.1904851,7.90124447 C11.1904851,7.71387605 11.0389062,7.56398132 10.853222,7.56398132 C10.6671167,7.56398132 10.5159588,7.71387605 10.5159588,7.90124447 L10.5159588,15.0692445 C10.5159588,15.2549287 10.6671167,15.4060866 10.853222,15.4060866 C11.0389062,15.4060866 11.1904851,15.2549287 11.1904851,15.0692445 Z" id="Fill-1" stroke-width="0.4" fill="#17324D"></path>
            <path d="M13.8016287,15.0692445 L13.8016287,7.90124447 C13.8016287,7.71387605 13.6504708,7.56398132 13.4643655,7.56398132 C13.2786813,7.56398132 13.1275234,7.71387605 13.1275234,7.90124447 L13.1275234,15.0692445 C13.1275234,15.2549287 13.2786813,15.4060866 13.4643655,15.4060866 C13.6504708,15.4060866 13.8016287,15.2549287 13.8016287,15.0692445 Z" id="Fill-2-Copy" stroke-width="0.4" fill="#17324D"></path>
            <path d="M5.96904013,15.0692445 L5.96904013,7.90124447 C5.96904013,7.71387605 5.81788224,7.56398132 5.63177697,7.56398132 C5.44609276,7.56398132 5.29451382,7.71387605 5.29451382,7.90124447 L5.29451382,15.0692445 C5.29451382,15.2549287 5.44609276,15.4060866 5.63177697,15.4060866 C5.81788224,15.4060866 5.96904013,15.2549287 5.96904013,15.0692445 Z" id="Fill-4" stroke-width="0.4" fill="#17324D"></path>
            <path d="M3.35747553,15.0692445 L3.35747553,7.90124447 C3.35747553,7.71387605 3.20631764,7.56398132 3.02021237,7.56398132 C2.83452816,7.56398132 2.68294921,7.71387605 2.68294921,7.90124447 L2.68294921,15.0692445 C2.68294921,15.2549287 2.83452816,15.4060866 3.02021237,15.4060866 C3.20631764,15.4060866 3.35747553,15.2549287 3.35747553,15.0692445 Z" id="Fill-4-Copy" stroke-width="0.4" fill="#17324D"></path>
            <path d="M8.57892052,15.0692445 L8.57892052,7.90124447 C8.57892052,7.71387605 8.42902579,7.56398132 8.24334158,7.56398132 C8.05723631,7.56398132 7.90607842,7.71387605 7.90607842,7.90124447 L7.90607842,15.0692445 C7.90607842,15.2549287 8.05723631,15.4060866 8.24334158,15.4060866 C8.42902579,15.4060866 8.57892052,15.2549287 8.57892052,15.0692445 Z" id="Fill-5" stroke-width="0.4" fill="#17324D"></path>
            <path d="M0.342579646,5.78916437 C0.385527014,5.9293749 0.515211224,6.02453279 0.663421751,6.02453279 L15.8213165,6.02453279 C15.9674218,6.02453279 16.097527,5.9293749 16.1417375,5.78916437 C16.1863691,5.6493749 16.1354218,5.498217 16.017106,5.41274332 L8.48742175,0.0624275299 C8.37036912,-0.0196777332 8.2158428,-0.0213619438 8.09921122,0.0607433194 L0.469316488,5.41105911 C0.349316488,5.49484858 0.298369119,5.64811174 0.342579646,5.78916437 Z M8.28994807,0.750006477 L14.7670007,5.35042753 L1.73079017,5.35042753 L8.28994807,0.750006477 Z" id="Fill-7" stroke-width="0.4" fill="#17324D"></path>
            <rect id="Rectangle-6" stroke-width="1.2" fill="#FFFFFF" stroke-linecap="round" stroke-linejoin="round" x="1.30610079" y="13.2540398" width="13.8723763" height="2.02105271"></rect>
        </g>
    </g>
</svg>