<?xml version="1.0" encoding="UTF-8" standalone="no"?>
<svg width="66px" height="54px" viewBox="0 0 66 54" version="1.1" xmlns="http://www.w3.org/2000/svg" xmlns:xlink="http://www.w3.org/1999/xlink">
    <!-- Generator: Sketch 42 (36781) - http://www.bohemiancoding.com/sketch -->
    <title>italia.it-logo</title>
    <desc>Created with Sketch.</desc>
    <defs></defs>
    <g id="-home" stroke="none" stroke-width="1" fill="none" fill-rule="evenodd">
        <g id="1024up---home" transform="translate(-115.000000, -108.000000)">
            <g id="italia.it-logo" transform="translate(104.000000, 91.000000)">
                <g>
                    <rect id="Rectangle" x="0" y="0" width="88" height="88"></rect>
                    <path d="M33.7041499,69.3146885 L33.7041499,28.4233743 L44.4850513,28.4233743 L44.4850513,69.3874488 L33.7041499,69.3874488 L33.7041499,69.3146885 Z M76.0423918,37.7366985 L66.1896475,37.7366985 L66.1896475,54.5443383 C66.1896475,56.2178263 66.2610442,57.3092315 66.3324409,58.0368349 C66.4038376,58.691678 66.6894244,59.2737608 67.1892012,59.7830832 C67.6889781,60.2924056 68.4743418,60.5106867 69.5452923,60.5106867 L75.6854083,60.365166 L76.1851852,69.0964075 C72.6153503,69.8967713 69.8308791,70.3333333 67.9745649,70.3333333 C63.1195895,70.3333333 59.8353414,69.2419281 58.1218206,66.9863574 C56.3369032,64.8035471 55.4801428,60.7289677 55.4801428,54.7626194 L55.4801428,17 L66.2610442,17 L66.2610442,28.3506139 L76.1137885,28.3506139 L76.1137885,37.7366985 L76.0423918,37.7366985 Z M17.4970995,40.8653934 C15.6407854,40.8653934 14.070058,40.2105503 12.8563141,38.900864 C11.6425703,37.5911778 11,35.9904502 11,34.0986812 C11,32.2069122 11.6425703,30.6061846 12.7849174,29.2964984 C13.9986613,27.9868122 15.5693887,27.4047294 17.4257028,27.4047294 C19.282017,27.4047294 20.8527443,28.0595725 22.0664882,29.3692588 C23.280232,30.678945 23.8514056,32.2796726 23.8514056,34.2442019 C23.8514056,36.2087312 23.280232,37.7366985 22.0664882,39.0463847 C20.924141,40.2105503 19.4248104,40.8653934 17.4970995,40.8653934 L17.4970995,40.8653934 Z" id="Shape" fill="#FFFFFF"></path>
                </g>
            </g>
        </g>
    </g>
</svg>