<?xml version="1.0" encoding="UTF-8"?>
<svg width="24px" height="30px" viewBox="0 0 24 30" version="1.1" xmlns="http://www.w3.org/2000/svg" xmlns:xlink="http://www.w3.org/1999/xlink">
    <!-- Generator: Sketch 50.2 (55047) - http://www.bohemiancoding.com/sketch -->
    <title>it-documentazione</title>
    <desc>Created with Sketch.</desc>
    <defs></defs>
    <g id="Icons" stroke="none" stroke-width="1" fill="none" fill-rule="evenodd">
        <path d="M23.1124642,29 L23.1124642,5.48 L22.5524642,5.48 C22.085796,5.48 21.6891323,5.31666816 21.3624642,4.99 C21.035796,4.66333184 20.8724642,4.26666816 20.8724642,3.8 C20.8724642,3.33333184 21.035796,2.93666816 21.3624642,2.61 C21.6891323,2.28333184 22.085796,2.12 22.5524642,2.12 L23.1124642,2.12 L23.1124642,1 L3.51246419,1 C2.74246015,1 2.08330028,1.27416256 1.53496441,1.82250112 C0.986628091,2.3708352 0.712464187,3.02999552 0.712464187,3.8 L0.712464187,25.64 C0.712464187,26.5733381 1.0391276,27.3666632 1.69246419,28.02 C2.34580095,28.6733366 3.13912607,29 4.07246419,29 L23.1124642,29 Z M21.9924642,6.6 L21.9924642,27.88 L6.31246419,27.88 L6.31246419,6.6 L10.7924642,6.6 L10.7924642,18.92 L14.1524642,15.56 L17.5124642,18.92 L17.5124642,6.6 L21.9924642,6.6 Z M5.19246419,27.88 L4.07246419,27.88 C3.44246105,27.88 2.91163302,27.6641688 2.47996396,27.2325002 C2.04829535,26.8008312 1.83246419,26.2700031 1.83246419,25.64 L1.83246419,6.04 C2.06579871,6.22666816 2.32246284,6.36666816 2.60246419,6.46 C2.88246553,6.55333184 3.18579603,6.6 3.51246419,6.6 L5.19246419,6.6 L5.19246419,27.88 Z M3.51246419,2.12 L20.3124642,2.12 C20.3124642,2.12 20.2191323,2.2891648 20.0324642,2.62749888 C19.845796,2.96583296 19.7524642,3.34499776 19.7524642,3.76500224 C19.7524642,4.18500224 19.845796,4.57583296 20.0324642,4.93749888 C20.2191323,5.29916928 20.3124642,5.48 20.3124642,5.48 L3.51246419,5.48 C3.04579513,5.48 2.64913235,5.31666816 2.32246419,4.99 C1.99579603,4.66333184 1.83246419,4.26666816 1.83246419,3.8 C1.83246419,3.33333184 1.99579603,2.93666816 2.32246419,2.61 C2.64913235,2.28333184 3.04579513,2.12 3.51246419,2.12 Z M11.9124642,6.6 L16.3924642,6.6 L16.3924642,16.2250022 L14.1524642,13.9850022 L11.9124642,16.2250022 L11.9124642,6.6 Z" id="it-documentazione" stroke="#0066CC" stroke-width="0.6" fill="#0066CC"></path>
    </g>
</svg>