<?xml version="1.0" encoding="UTF-8"?>
<svg width="21px" height="21px" viewBox="0 0 21 21" version="1.1" xmlns="http://www.w3.org/2000/svg" xmlns:xlink="http://www.w3.org/1999/xlink">
    <!-- Generator: Sketch 50.2 (55047) - http://www.bohemiancoding.com/sketch -->
    <title>it-show-less</title>
    <desc>Created with Sketch.</desc>
    <defs></defs>
    <g id="Icons" stroke="none" stroke-width="1" fill="none" fill-rule="evenodd">
        <path d="M10.8799679,0.970647192 C9.4997529,0.970647192 8.2009379,1.23106219 6.9834829,1.75189719 C5.7660304,2.27273219 4.7048429,2.98561719 3.7998904,3.89056969 C2.8949374,4.79552219 2.1820539,5.85670969 1.6612179,7.07416219 C1.1403819,8.29161719 0.879967899,9.59043219 0.879967899,10.9706472 C0.879967899,12.3508622 1.1403819,13.6496772 1.6612179,14.8671322 C2.1820539,16.0845847 2.8949374,17.1457722 3.7998904,18.0507247 C4.7048429,18.9556777 5.7660304,19.6685612 6.9834829,20.1893972 C8.2009379,20.7102332 9.4997529,20.9706472 10.8799679,20.9706472 C12.2601829,20.9706472 13.5589979,20.7102332 14.7764529,20.1893972 C15.9939054,19.6685612 17.0550929,18.9556777 17.9600454,18.0507247 C18.8649979,17.1457722 19.5778829,16.0845847 20.0987179,14.8671322 C20.6195529,13.6496772 20.8799679,12.3508622 20.8799679,10.9706472 C20.8799679,9.59043219 20.6195529,8.29161719 20.0987179,7.07416219 C19.5778829,5.85670969 18.8649979,4.79552219 17.9600454,3.89056969 C17.0550929,2.98561719 15.9939054,2.27273219 14.7764529,1.75189719 C13.5589979,1.23106219 12.2601829,0.970647192 10.8799679,0.970647192 Z M10.8799679,19.7206472 C9.6690254,19.7206472 8.5329679,19.4927849 7.4717654,19.0370534 C6.4105604,18.5813219 5.4828354,17.9563272 4.6885629,17.1620522 C3.8942879,16.3677797 3.26929315,15.4400547 2.81356165,14.3788497 C2.35783015,13.3176472 2.1299679,12.1815897 2.1299679,10.9706472 C2.1299679,9.75970469 2.35783015,8.62364719 2.81356165,7.56244469 C3.26929315,6.50123969 3.8942879,5.57351469 4.6885629,4.77924219 C5.4828354,3.98496719 6.4105604,3.35997219 7.4717654,2.90424219 C8.5329679,2.44850969 9.6690254,2.22064719 10.8799679,2.22064719 C12.0909104,2.22064719 13.2269679,2.44850969 14.2881704,2.90424219 C15.3493754,3.35997219 16.2771004,3.98496719 17.0713729,4.77924219 C17.8656479,5.57351469 18.4906429,6.50123969 18.9463729,7.56244469 C19.4021054,8.62364719 19.6299679,9.75970469 19.6299679,10.9706472 C19.6299679,12.1815897 19.4021054,13.3176472 18.9463729,14.3788497 C18.4906429,15.4400547 17.8656479,16.3677797 17.0713729,17.1620522 C16.2771004,17.9563272 15.3493754,18.5813219 14.2881704,19.0370534 C13.2269679,19.4927849 12.0909104,19.7206472 10.8799679,19.7206472 Z M14.6299679,10.3456472 L7.1299679,10.3456472 C6.9606954,10.3456472 6.8142129,10.4074947 6.6905154,10.5311947 C6.5668154,10.6548922 6.5049679,10.8013747 6.5049679,10.9706472 C6.5049679,11.1399197 6.5668154,11.2864022 6.6905154,11.4100997 C6.8142129,11.5337997 6.9606954,11.5956472 7.1299679,11.5956472 L14.6299679,11.5956472 C14.7992404,11.5956472 14.9457229,11.5337997 15.0694204,11.4100997 C15.1931204,11.2864022 15.2549679,11.1399197 15.2549679,10.9706472 C15.2549679,10.8013747 15.1931204,10.6548922 15.0694204,10.5311947 C14.9457229,10.4074947 14.7992404,10.3456472 14.6299679,10.3456472 Z" id="it-show-less" fill="#0066CC"></path>
    </g>
</svg>