<?xml version="1.0" encoding="UTF-8" standalone="no"?>
<svg width="112px" height="93px" viewBox="0 0 112 93" version="1.1" xmlns="http://www.w3.org/2000/svg" xmlns:xlink="http://www.w3.org/1999/xlink">
    <!-- Generator: Sketch 42 (36781) - http://www.bohemiancoding.com/sketch -->
    <title>decorative/outlined/docs</title>
    <desc>Created with Sketch.</desc>
    <defs>
        <path d="M20.4134368,16 C26.0584311,16.0141031 36.3257001,17.4103108 41.6685686,26.5997016 C41.885999,26.9741634 42.001203,27.4266787 42.001203,27.9083728 L42.001203,68.4621035 C35.4914958,61.1866017 26.0552437,59.9328841 20.4229992,59.9185378 C19.0869974,59.9148904 18.0003007,58.756004 18.0003007,57.3349943 L18.0003007,18.584273 C18.0003007,17.8907891 18.2532486,17.2393714 18.7124707,16.7501395 C19.166684,16.266257 19.7682035,16 20.4077449,16 L20.4134368,16 Z M14.1030913,57.3406522 C14.1030913,60.9687984 17.3256796,64.1123139 20.9483612,64.1210675 C26.0353403,64.1332254 31.4387163,64.7039531 38.1219508,69.954777 C27.7580944,67.0361259 17.325199,69.5331423 11.1528458,70.9441825 C10.380938,71.1207146 9.58527171,70.9381036 8.96827882,70.444738 C8.35298297,69.952345 8,69.2165518 8,68.4262914 L8,28.0014966 C8,26.5768395 12.6829167,24.0122675 14.1030913,24.0122675 L14.1030913,57.3406522 Z M67.5889691,16 L67.594661,16 C68.2342024,16 68.835722,16.266257 69.2899352,16.7501395 C69.7491574,17.2393714 70.0021052,17.8907891 70.0021052,18.584273 L70.0021052,57.3349943 C70.0021052,58.756004 68.9154085,59.9148904 67.5794068,59.9185378 C61.9471623,59.9328841 52.5109101,61.1866017 46.001203,68.4621035 L46.001203,27.9083728 C46.001203,27.4266787 46.1164069,26.9741634 46.3338373,26.5997016 C51.6767059,17.4103108 61.9439748,16.0141031 67.5889691,16 Z M73.8993146,57.3406522 L73.8993146,24.0122675 C75.3194892,24.0122675 80.0024059,26.5768395 80.0024059,28.0014966 L80.0024059,68.4262914 C80.0024059,69.2165518 79.649423,69.952345 79.0341271,70.444738 C78.4171342,70.9381036 77.6214679,71.1207146 76.8495601,70.9441825 C70.6772069,69.5331423 60.2443116,67.0361259 49.8804551,69.954777 C56.5636897,64.7039531 61.9670656,64.1332254 67.0540447,64.1210675 C70.6767264,64.1123139 73.8993146,60.9687984 73.8993146,57.3406522 Z" id="path-1"></path>
        <filter x="-50%" y="-50%" width="200%" height="200%" filterUnits="objectBoundingBox" id="filter-2">
            <feOffset dx="0" dy="10" in="SourceAlpha" result="shadowOffsetOuter1"></feOffset>
            <feGaussianBlur stdDeviation="10" in="shadowOffsetOuter1" result="shadowBlurOuter1"></feGaussianBlur>
            <feColorMatrix values="0 0 0 0 0   0 0 0 0 0   0 0 0 0 0  0 0 0 0.2 0" type="matrix" in="shadowBlurOuter1"></feColorMatrix>
        </filter>
    </defs>
    <g id="-home" stroke="none" stroke-width="1" fill="none" fill-rule="evenodd">
        <g id="1024up---home" transform="translate(-508.000000, -2125.000000)">
            <g id="decorative/outlined/docs" transform="translate(520.000000, 2118.000000)">
                <g>
                    <rect id="Rectangle-2" x="0" y="0" width="88" height="88"></rect>
                    <g id="Combined-Shape">
                        <use fill="black" fill-opacity="1" filter="url(#filter-2)" xlink:href="#path-1"></use>
                        <use fill="#06c" fill-rule="evenodd" xlink:href="#path-1"></use>
                    </g>
                </g>
            </g>
        </g>
    </g>
</svg>
