<?xml version="1.0" encoding="UTF-8"?>
<svg width="479px" height="445px" viewBox="0 0 479 445" version="1.1" xmlns="http://www.w3.org/2000/svg" xmlns:xlink="http://www.w3.org/1999/xlink">
    <!-- Generator: Sketch 58 (84663) - https://sketch.com -->
    <title>come-lo-uso-1</title>
    <desc>Created with Sketch.</desc>
    <g id="Page-1" stroke="none" stroke-width="1" fill="none" fill-rule="evenodd">
        <g id="come-lo-uso-1">
            <g id="Group-46" transform="translate(279.000000, 203.750000)" fill-rule="nonzero">
                <g id="Group-40-Copy">
                    <path d="M11.8632977,0.54067537 C5.36934055,0.54067537 0.0746037041,5.80227381 0.0746037041,12.3293693 C0.0746037041,19.2736188 0.0746037041,127.569135 0.0746037041,132.942235 C0.0746037041,139.436972 5.33659201,144.730929 11.8632977,144.730929 C17.6960462,144.730929 45.1514068,144.730929 50.9981904,144.730929 C65.5436096,144.730929 133.374019,144.730929 148.185715,144.730929 C152.213785,144.730929 155.819633,142.703638 157.961153,139.533268 C160.938931,135.125471 159.674604,131.170305 159.974409,126.781221 L159.974409,123.70013 C159.974409,79.3777124 159.974409,52.6825857 159.974409,12.3293693 C159.974409,5.83385276 154.711641,0.54067537 148.185715,0.54067537 C122.184545,0.54067537 38.0180735,0.54067537 11.8632977,0.54067537 Z" id="Fill-1" fill="#E6E9F2"></path>
                    <path d="M21.5985803,57.8124103 L15.5919526,57.8124103 C13.9276251,57.8124103 12.5783074,56.4634824 12.5783074,54.798765 C12.5783074,53.1340477 13.9276251,51.7851198 15.5919526,51.7851198 L21.5981904,51.7851198 C23.2625179,51.7851198 24.6118358,53.1344376 24.6118358,54.798765 C24.6122255,56.4634824 23.2629078,57.8124103 21.5985803,57.8124103" id="Fill-3" fill="#D6DEE8"></path>
                    <path d="M21.5985803,43.3469132 L15.5919526,43.3469132 C13.9276251,43.3469132 12.5783074,41.9979853 12.5783074,40.333268 C12.5783074,38.6685506 13.9276251,37.3196227 15.5919526,37.3196227 L21.5981904,37.3196227 C23.2625179,37.3196227 24.6118358,38.6689405 24.6118358,40.333268 C24.6122255,41.9975954 23.2629078,43.3469132 21.5985803,43.3469132" id="Fill-4" fill="#FFFFFF"></path>
                    <path d="M21.5985803,72.2782972 L15.5919526,72.2782972 C13.9276251,72.2782972 12.5783074,70.9293693 12.5783074,69.264652 C12.5783074,67.5999346 13.9276251,66.2510068 15.5919526,66.2510068 L21.5981904,66.2510068 C23.2625179,66.2510068 24.6118358,67.6003245 24.6118358,69.264652 C24.6122255,70.9293693 23.2629078,72.2782972 21.5985803,72.2782972" id="Fill-5" fill="#FFFFFF"></path>
                    <path d="M21.5985803,86.7441841 L15.5919526,86.7441841 C13.9276251,86.7441841 12.5783074,85.3952563 12.5783074,83.7305389 C12.5783074,82.0658216 13.9276251,80.7168937 15.5919526,80.7168937 L21.5981904,80.7168937 C23.2625179,80.7168937 24.6118358,82.0662114 24.6118358,83.7305389 C24.6122255,85.3948664 23.2629078,86.7441841 21.5985803,86.7441841" id="Fill-6" fill="#D6DEE8"></path>
                    <path d="M21.5985803,101.209681 L15.5919526,101.209681 C13.9276251,101.209681 12.5783074,99.8607533 12.5783074,98.196036 C12.5783074,96.5313186 13.9276251,95.1823908 15.5919526,95.1823908 L21.5981904,95.1823908 C23.2625179,95.1823908 24.6118358,96.5317085 24.6118358,98.196036 C24.6122255,99.8607533 23.2629078,101.209681 21.5985803,101.209681" id="Fill-7" fill="#FFFFFF"></path>
                    <path d="M21.5985803,115.675568 L15.5919526,115.675568 C13.9276251,115.675568 12.5783074,114.32664 12.5783074,112.661923 C12.5783074,110.997206 13.9276251,109.648278 15.5919526,109.648278 L21.5981904,109.648278 C23.2625179,109.648278 24.6118358,110.997595 24.6118358,112.661923 C24.6122255,114.32625 23.2629078,115.675568 21.5985803,115.675568" id="Fill-8" fill="#D6DEE8"></path>
                    <g id="Group-13" transform="translate(0.031329, 0.091553)">
                        <path d="M21.5672515,130.049513 L15.5606238,130.049513 C13.8962963,130.049513 12.5469786,128.700585 12.5469786,127.035867 C12.5469786,125.37115 13.8962963,124.022222 15.5606238,124.022222 L21.5668616,124.022222 C23.2311891,124.022222 24.5805069,125.37154 24.5805069,127.035867 C24.5808967,128.700585 23.2315789,130.049513 21.5672515,130.049513" id="Fill-9" fill="#FFFFFF"></path>
                        <path d="M153.94308,0.449122807 L6.04327485,0.449122807 C2.72956635,0.449122807 0.0432748538,3.13541431 0.0432748538,6.44912281 L0.0432748538,22.957115 L159.94308,22.957115 L159.94308,6.44912281 C159.94308,3.13541431 157.256788,0.449122807 153.94308,0.449122807 Z" id="Fill-11" fill="#5A6772"></path>
                    </g>
                    <path d="M194.819243,92.6669912 L55.3428298,92.6669912 C52.6905881,92.6669912 50.5209975,90.4970107 50.5209975,87.8451588 L50.5209975,55.2993498 C50.5209975,52.6471081 52.690978,50.4775175 55.3428298,50.4775175 L194.819243,50.4775175 C197.471485,50.4775175 199.641075,52.647498 199.641075,55.2993498 L199.641075,87.8451588 C199.641075,90.4974005 197.471095,92.6669912 194.819243,92.6669912" id="Fill-14" fill="#2079D4"></path>
                    <path d="M194.819243,151.732488 L55.3428298,151.732488 C52.6905881,151.732488 50.5209975,149.562508 50.5209975,146.910656 L50.5209975,114.364847 C50.5209975,111.712605 52.690978,109.543015 55.3428298,109.543015 L194.819243,109.543015 C197.471485,109.543015 199.641075,111.712995 199.641075,114.364847 L199.641075,146.910656 C199.641075,149.562898 197.471095,151.732488 194.819243,151.732488" id="Fill-15" fill="#8EBEED"></path>
                    <path d="M169.937762,81.8186481 L130.39975,81.8186481 C128.735422,81.8186481 127.386105,80.4697202 127.386105,78.8050029 C127.386105,77.1402855 128.735422,75.7913576 130.39975,75.7913576 L169.937762,75.7913576 C171.602089,75.7913576 172.951407,77.1402855 172.951407,78.8050029 C172.951407,80.4697202 171.602089,81.8186481 169.937762,81.8186481" id="Fill-18" fill="#004D99"></path>
                    <path d="M153.082011,67.353151 L141.630159,67.353151 C139.965832,67.353151 138.616514,66.0042231 138.616514,64.3395058 C138.616514,62.6747884 139.965832,61.3258606 141.630159,61.3258606 L153.082011,61.3258606 C154.746339,61.3258606 156.095656,62.6747884 156.095656,64.3395058 C156.095656,66.0038333 154.746339,67.353151 153.082011,67.353151" id="Fill-19" fill="#F6F4F2"></path>
                    <path d="M183.273434,67.353151 L164.634838,67.353151 C162.97051,67.353151 161.621192,66.0042231 161.621192,64.3395058 C161.621192,62.6747884 162.97051,61.3258606 164.634838,61.3258606 L183.273434,61.3258606 C184.937762,61.3258606 186.287079,62.6747884 186.287079,64.3395058 C186.287079,66.0038333 184.937762,67.353151 183.273434,67.353151" id="Fill-20" fill="#B4D4F4"></path>
                    <path d="M128.671095,67.353151 L90.5981904,67.353151 C88.933863,67.353151 87.5845452,66.0042231 87.5845452,64.3395058 C87.5845452,62.6747884 88.933863,61.3258606 90.5981904,61.3258606 L128.671095,61.3258606 C130.335422,61.3258606 131.68474,62.6747884 131.68474,64.3395058 C131.68474,66.0038333 130.335422,67.353151 128.671095,67.353151" id="Fill-21" fill="#F6F4F2"></path>
                    <path d="M119.223921,81.8186481 L107.77207,81.8186481 C106.107742,81.8186481 104.758424,80.4697202 104.758424,78.8050029 C104.758424,77.1402855 106.107742,75.7913576 107.77207,75.7913576 L119.223921,75.7913576 C120.888249,75.7913576 122.237567,77.1402855 122.237567,78.8050029 C122.237957,80.4697202 120.888639,81.8186481 119.223921,81.8186481" id="Fill-22" fill="#B4D4F4"></path>
                    <path d="M96.0562801,81.8186481 L90.0500423,81.8186481 C88.3857148,81.8186481 87.0363971,80.4697202 87.0363971,78.8050029 C87.0363971,77.1402855 88.3857148,75.7913576 90.0500423,75.7913576 L96.0562801,75.7913576 C97.7206076,75.7913576 99.0699253,77.1402855 99.0699253,78.8050029 C99.0699253,80.4697202 97.7206076,81.8186481 96.0562801,81.8186481" id="Fill-23" fill="#F6F4F2"></path>
                    <path d="M75.0586193,81.8186481 L69.0523815,81.8186481 C67.388054,81.8186481 66.0387363,80.4697202 66.0387363,78.8050029 C66.0387363,77.1402855 67.388054,75.7913576 69.0523815,75.7913576 L75.0586193,75.7913576 C76.7229468,75.7913576 78.0722646,77.1402855 78.0722646,78.8050029 C78.0726544,80.4697202 76.7233366,81.8186481 75.0586193,81.8186481" id="Fill-24" fill="#B4D4F4"></path>
                    <path d="M75.0586193,67.353151 L69.0523815,67.353151 C67.388054,67.353151 66.0387363,66.0042231 66.0387363,64.3395058 C66.0387363,62.6747884 67.388054,61.3258606 69.0523815,61.3258606 L75.0586193,61.3258606 C76.7229468,61.3258606 78.0722646,62.6747884 78.0722646,64.3395058 C78.0726544,66.0038333 76.7233366,67.353151 75.0586193,67.353151" id="Fill-25" fill="#004D99"></path>
                    <path d="M183.273824,81.8182582 C183.076943,81.8182582 182.880062,81.7979853 182.683181,81.7578294 C182.490198,81.7215721 182.301504,81.6611432 182.120608,81.5890184 C181.939711,81.5126052 181.762713,81.4202075 181.59819,81.3114356 C181.433278,81.1991549 181.280842,81.0743986 181.140101,80.9340477 C181.003649,80.7975954 180.878892,80.6443791 180.766222,80.4755682 C180.65784,80.3149444 180.565442,80.1379463 180.489029,79.9570496 C180.416904,79.7765428 180.356475,79.587459 180.320218,79.3948664 C180.20014,78.8069522 180.260569,78.2361919 180.489029,77.6510068 C180.565442,77.4701101 180.65784,77.2974005 180.766222,77.1324882 C180.878892,76.967576 181.003649,76.8108508 181.140101,76.6740087 C181.280842,76.5336578 181.433278,76.4089015 181.59819,76.2966208 C181.762713,76.1878489 181.939711,76.0958411 182.120608,76.0190379 C182.301504,75.9469132 182.490198,75.8864843 182.683181,75.850227 C183.073044,75.7699151 183.474994,75.7699151 183.860569,75.850227 C184.053551,75.8864843 184.242245,75.9469132 184.42704,76.0190379 C184.607937,76.0954512 184.784545,76.1878489 184.945559,76.2966208 C185.110081,76.4089015 185.266806,76.5336578 185.403649,76.6740087 C185.544389,76.8104609 185.668756,76.967576 185.777528,77.1324882 C185.88591,77.2974005 185.982206,77.4701101 186.054721,77.6510068 C186.131134,77.8358021 186.191173,78.024496 186.22743,78.2170886 C186.267586,78.4100711 186.287859,78.6069522 186.287859,78.8042231 C186.287859,79.0007144 186.267976,79.1979853 186.22743,79.3948664 C186.191173,79.587459 186.130744,79.7765428 186.054721,79.9570496 C185.982206,80.1379463 185.88591,80.3149444 185.777528,80.4755682 C185.669146,80.6443791 185.544389,80.7972056 185.403649,80.9340477 C185.267196,81.0743986 185.110471,81.1991549 184.945559,81.3114356 C184.784545,81.4202075 184.607937,81.5122153 184.42704,81.5890184 C184.242245,81.6611432 184.053161,81.7215721 183.860569,81.7578294 C183.667586,81.7979853 183.470705,81.8182582 183.273824,81.8182582" id="Fill-26" fill="#F6F4F2"></path>
                    <path d="M72.2603737,139.541845 L64.8229468,132.104418 C63.6459487,130.92703 63.6459487,129.019428 64.8229468,127.84204 L72.2603737,120.404613 C73.4373717,119.228005 75.3453639,119.228005 76.522362,120.404613 C77.69936,121.582001 77.69936,123.489603 76.522362,124.666991 L71.2159292,129.973034 L76.522362,135.279077 C77.69936,136.456465 77.69936,138.364067 76.522362,139.541455 C75.3453639,140.718843 73.4373717,140.718453 72.2603737,139.541845" id="Fill-27" stroke="#8EBEED" stroke-width="1.25" fill="#F6F4F2"></path>
                    <path d="M99.2436096,140.424496 C98.4724595,140.424496 97.7009195,140.130149 97.1126154,139.541845 C95.9356173,138.364457 95.9356173,136.456855 97.1126154,135.279467 L102.419048,129.973424 L97.1126154,124.667381 C95.9356173,123.489993 95.9356173,121.582391 97.1126154,120.405003 C98.2896135,119.228395 100.197606,119.228395 101.374604,120.405003 L108.812031,127.84243 C109.989029,129.019818 109.989029,130.92742 108.812031,132.104808 L101.374604,139.542235 C100.7863,140.130149 100.01515,140.424496 99.2436096,140.424496" id="Fill-28" stroke="#8EBEED" stroke-width="1.25" fill="#F6F4F2"></path>
                    <path d="M81.2849351,144.944574 C79.7208025,144.375373 78.9145647,142.645939 79.4837655,141.081806 L87.836592,118.131709 C88.4057928,116.567966 90.1348376,115.762118 91.69936,116.330539 C93.2634926,116.89974 94.0697304,118.629174 93.5005296,120.193307 L85.1477031,143.143404 C84.5827908,144.693892 82.8627129,145.517673 81.2849351,144.944574" id="Fill-29" stroke="#8EBEED" stroke-width="1.25" fill="#F6F4F2"></path>
                    <g id="Group-39" transform="translate(12.967976, 8.966862)">
                        <path d="M3.11592924,6.23190344 C2.32450624,6.23190344 1.54477914,5.91026601 0.986494542,5.34769291 C0.423921443,4.78901845 0.102284016,4.00968122 0.102284016,3.21825822 C0.102284016,0.771084727 2.84224503,-0.605133597 4.78766413,0.710655877 C4.95257641,0.823326442 5.1089117,0.947692914 5.2457538,1.08804379 C5.8083269,1.64671825 6.12957446,2.42605549 6.12957446,3.21786835 C6.12957446,4.00929135 5.8083269,4.78862859 5.2457538,5.34730305 C5.1089117,5.48765393 4.95257641,5.61241026 4.78766413,5.72079233 C4.62704035,5.82956426 4.4500423,5.92547069 4.26914561,5.99837518 C4.08824893,6.07439857 3.89955497,6.13482742 3.70657252,6.17108473 C3.50969142,6.21124067 3.31281033,6.23190344 3.11592924,6.23190344" id="Fill-30" fill="#DD414C"></path>
                        <path d="M13.3303542,6.23190344 C13.1334731,6.23190344 12.9362021,6.21163054 12.7436096,6.17147459 C12.5506271,6.13521728 12.3619331,6.07478843 12.1810365,5.99876504 C11.9962411,5.92625042 11.8235316,5.82995412 11.6586193,5.72118219 C11.493707,5.61280013 11.3412704,5.48804379 11.2005296,5.34769291 C10.6379565,4.78901845 10.316709,4.00968122 10.316709,3.21825822 C10.316709,2.42644535 10.6379565,1.64710812 11.2005296,1.08843365 C11.3412704,0.948082777 11.493707,0.823716306 11.6586193,0.71104574 C11.8235316,0.602273811 11.9962411,0.510266013 12.1810365,0.433462894 C12.3619331,0.361338138 12.5506271,0.300909288 12.7436096,0.260753343 C13.1295745,0.184340087 13.5315238,0.184340087 13.9209975,0.260753343 C14.1139799,0.300909288 14.3026739,0.361338138 14.4835706,0.433462894 C14.6683659,0.50987615 14.8414653,0.602273811 15.0059877,0.71104574 C15.1705101,0.823716306 15.3233366,0.948082777 15.4640774,1.08843365 C16.0227519,1.64710812 16.3482879,2.42644535 16.3482879,3.21825822 C16.3482879,4.00968122 16.0227519,4.78901845 15.4640774,5.34769291 C15.3237265,5.48804379 15.1709,5.61280013 15.0059877,5.72118219 C14.8410754,5.82995412 14.6683659,5.92586056 14.4835706,5.99876504 C14.3026739,6.07478843 14.1139799,6.13521728 13.9209975,6.17147459 C13.7241164,6.21124067 13.5272353,6.23190344 13.3303542,6.23190344" id="Fill-31" fill="#EEA03A"></path>
                        <path d="M23.5486778,6.23190344 C23.3517967,6.23190344 23.1549156,6.21163054 22.9580345,6.17147459 C22.765052,6.13521728 22.5763581,6.07478843 22.3954614,5.99876504 C22.2149546,5.92625042 22.0379565,5.82995412 21.8730442,5.72118219 C21.708132,5.61280013 21.5556953,5.48804379 21.4149546,5.34769291 C20.85667,4.78901845 20.5350326,4.00968122 20.5350326,3.21825822 C20.5350326,3.02137712 20.5553055,2.82410617 20.5911729,2.62722508 C20.6313289,2.43853112 20.6874692,2.24593853 20.7638825,2.06504184 C20.8402957,1.88414516 20.9326934,1.7071471 21.0410754,1.54652332 C21.1494575,1.37771241 21.2781125,1.22527576 21.4145647,1.08804379 C21.5553055,0.947692914 21.7077421,0.823326442 21.8726544,0.710655877 C22.0375667,0.601883947 22.2141749,0.50987615 22.3950715,0.433073031 C22.5759682,0.360948274 22.765052,0.300519425 22.9576446,0.260363479 C23.3471183,0.183950224 23.7490676,0.183950224 24.1346427,0.260363479 C24.3276251,0.300519425 24.5163191,0.360948274 24.6972158,0.433073031 C24.882401,0.509486286 25.0551105,0.601883947 25.2196329,0.710655877 C25.3845452,0.823326442 25.5369819,0.947692914 25.6777226,1.08804379 C25.8180735,1.2248859 25.9428298,1.37771241 26.0512119,1.54652332 C26.159594,1.7071471 26.2562801,1.88414516 26.3284049,2.06504184 C26.4048181,2.24593853 26.4609585,2.43853112 26.5011144,2.62722508 C26.5412704,2.82410617 26.5611534,3.02137712 26.5611534,3.21825822 C26.5611534,4.01357985 26.2399058,4.78901845 25.6773327,5.34769291 C25.536592,5.48804379 25.3841554,5.61280013 25.2192431,5.72118219 C25.0543308,5.82995412 24.8816212,5.92586056 24.6968259,5.99876504 C24.5159292,6.07478843 24.3272353,6.13521728 24.1342528,6.17147459 C23.94244,6.21124067 23.7455589,6.23190344 23.5486778,6.23190344" id="Fill-32" fill="#6DAA43"></path>
                        <path d="M107.955305,6.23151358 L36.0956563,6.23151358 C34.4313289,6.23151358 33.0820111,4.8825857 33.0820111,3.21786835 C33.0820111,1.553151 34.4313289,0.204223128 36.0956563,0.204223128 L107.955305,0.204223128 C109.619633,0.204223128 110.968951,1.55354087 110.968951,3.21786835 C110.968951,4.88219584 109.619633,6.23151358 107.955305,6.23151358" id="Fill-33" fill="#FFFFFF" opacity="0.2"></path>
                        <path d="M130.875773,6.23151358 L118.553356,6.23151358 C116.889029,6.23151358 115.539711,4.8825857 115.539711,3.21786835 C115.539711,1.553151 116.889029,0.204223128 118.553356,0.204223128 L130.875773,0.204223128 C132.540101,0.204223128 133.889419,1.55354087 133.889419,3.21786835 C133.889419,4.88219584 132.540101,6.23151358 130.875773,6.23151358" id="Fill-34" fill="#FFFFFF" opacity="0.2"></path>
                    </g>
                </g>
            </g>
            <g id="Group-40">
                <g id="Group-36" transform="translate(187.000000, 145.000000)" stroke="#9ED0FB" stroke-width="2">
                    <path d="M0.600225865,0.776066819 L26.6000502,0.776066819 C29.9138557,0.776066819 32.6002259,3.45381139 32.6002259,6.77325412 L32.6002259,263.135385 C32.6002259,266.44754 29.9132479,269.132572 26.6000502,269.132572 L0.600225865,269.132572" id="Line"></path>
                    <path d="M0.781601756,84 L32.7816018,84" id="Line-Copy"></path>
                    <path d="M0.781601756,173 L32.7816018,173" id="Line-Copy-2"></path>
                </g>
                <g id="Group-25" transform="translate(0.000000, 104.000000)" fill-rule="nonzero">
                    <g id="Group-17" transform="translate(0.000000, 267.000000)">
                        <polygon id="Rectangle-14" fill="#EDEFF2" opacity="0.5" points="9.09494702e-13 0.708169023 161.5 0.708169023 183 23.208169 183 73.708169 9.09494702e-13 73.708169"></polygon>
                        <polygon id="Rectangle-17" fill="#DDDFE6" points="161 0.708169023 183 22.708169 161 22.708169"></polygon>
                    </g>
                    <g id="Group-24" transform="translate(0.000000, 89.000000)">
                        <polygon id="Rectangle-14-Copy-2" fill="#EDEFF2" opacity="0.5" points="9.09494702e-13 0 161.5 0 183 22.5 183 73 9.09494702e-13 73"></polygon>
                        <polygon id="Rectangle-17-Copy" fill="#DDDFE6" points="161 0 183 22 161 22"></polygon>
                    </g>
                    <g id="Group-22" transform="translate(0.000000, 178.000000)">
                        <polygon id="Rectangle-14-Copy-3" fill="#EDEFF2" opacity="0.5" points="9.09494702e-13 0 161.5 0 183 22.5 183 73 9.09494702e-13 73"></polygon>
                        <polygon id="Rectangle-17-Copy-2" fill="#DDDFE6" points="161 0 183 22 161 22"></polygon>
                    </g>
                    <g id="Group-21">
                        <polygon id="Rectangle-14-Copy-4" fill="#EDEFF2" opacity="0.5" points="9.09494702e-13 0 161.5 0 183 22.5 183 73 9.09494702e-13 73"></polygon>
                        <polygon id="Rectangle-17-Copy-3" fill="#DDDFE6" points="161 0 183 22 161 22"></polygon>
                    </g>
                </g>
                <g id="Group-28" fill="#0073E6" fill-rule="nonzero">
                    <path d="M8.2293332,17.0085718 L31.4749172,28.6312408 L54.7203782,17.0085718 L31.4749172,5.38577981 L8.2293332,17.0085718 Z M31.4749172,34.0169899 C31.0851711,34.0169899 30.695671,33.9274836 30.3376457,33.7485938 L1.40619587,19.2829919 C0.544697323,18.8523041 0.000528269574,17.9717486 0.000528269574,17.0085718 C0.000528269574,16.045395 0.544697323,15.1649625 1.40619587,14.7341517 L30.3376457,0.268426816 C31.0534505,-0.0894756053 31.896015,-0.0894756053 32.6119428,0.268426816 L61.5433926,14.7341517 C62.4047682,15.1648395 62.9490602,16.045395 62.9490602,17.0085718 C62.9490602,17.9717486 62.4048911,18.8521811 61.5433926,19.2829919 L32.6119428,33.7485938 C32.2541633,33.9274836 31.8644173,34.0169899 31.4749172,34.0169899 Z" id="Fill-1"></path>
                    <path d="M31.4749172,62.9484397 C31.0851711,62.9484397 30.695671,62.8589334 30.3376457,62.6800436 L1.40619587,48.2143187 C0.150156317,47.586176 -0.359095427,46.0587896 0.269047297,44.8027501 C0.897067072,43.5468335 2.42457641,43.0375817 3.68061596,43.6654785 L31.4749172,57.5625677 L59.2690954,43.6656015 C60.525135,43.0378276 62.0527673,43.5468335 62.680787,44.8027501 C63.3088068,46.0587896 62.799678,47.586299 61.5435155,48.2144417 L32.6120657,62.6801666 C32.2541633,62.8589334 31.8644173,62.9484397 31.4749172,62.9484397" id="Fill-3"></path>
                    <path d="M31.4749172,48.4827148 C31.0851711,48.4827148 30.695671,48.3932085 30.3376457,48.2143187 L1.40619587,33.7485938 C0.150156317,33.1204511 -0.359095427,31.5931877 0.269047297,30.3370252 C0.897067072,29.0809856 2.42457641,28.5718568 3.68061596,29.1998766 L31.4749172,43.0968428 L59.2690954,29.1998766 C60.525135,28.5718568 62.0527673,29.0809856 62.680787,30.3370252 C63.3088068,31.5930647 62.799678,33.1205741 61.5435155,33.7485938 L32.6120657,48.2143187 C32.2541633,48.3932085 31.8644173,48.4827148 31.4749172,48.4827148" id="Fill-4"></path>
                </g>
                <g id="Group-35" transform="translate(220.000000, 275.000000)">
                    <path d="M0.201644507,4.1644514 L31.5765155,4.1644514" id="Line" stroke="#9ED0FB" stroke-width="2"></path>
                    <path d="M32.029034,0.67085949 C31.5720794,0.366223106 31.2016445,0.563194758 31.2016445,1.11846718 L31.2016445,7.8305271 C31.2016445,8.38237039 31.5715966,8.58309306 32.029034,8.2781348 L36.907101,5.02609011 C37.3640556,4.72145373 37.3645384,4.22786244 36.907101,3.92290418 L32.029034,0.67085949 Z" id="Shape" fill="#008AF3" fill-rule="nonzero"></path>
                </g>
                <circle id="Oval-3" fill="#008AF3" fill-rule="nonzero" cx="189.5" cy="414" r="2.5"></circle>
                <circle id="Oval-3-Copy" fill="#008AF3" fill-rule="nonzero" cx="189.5" cy="318.075527" r="2.5"></circle>
                <circle id="Oval-3-Copy-2" fill="#008AF3" fill-rule="nonzero" cx="189.5" cy="228.984856" r="2.5"></circle>
                <circle id="Oval-3-Copy-3" fill="#008AF3" fill-rule="nonzero" cx="189.5" cy="146" r="2.5"></circle>
            </g>
            <path d="M20.864,166 L27.704,141.088 L33.752,141.088 L40.592,166 L37.856,166 L36.056,159.592 L25.4,159.592 L23.6,166 L20.864,166 Z M29.792,143.464 L26.012,157.108 L35.444,157.108 L31.664,143.464 L29.792,143.464 Z M44.516,166 L44.516,141.088 L49.7,141.088 L59.24,163.552 L59.996,163.552 L59.996,141.088 L62.732,141.088 L62.732,166 L57.656,166 L47.972,143.536 L47.288,143.536 L47.288,166 L44.516,166 Z M77.96,157.612 L71.624,157.612 L71.624,166 L68.852,166 L68.852,141.088 L77.96,141.088 C80.6720136,141.088 82.6759935,141.747993 83.972,143.068 C85.2680065,144.388007 85.916,146.403986 85.916,149.116 C85.916,154.780028 83.2640265,157.612 77.96,157.612 Z M71.624,155.164 L77.924,155.164 C81.3560172,155.164 83.072,153.14802 83.072,149.116 C83.072,147.19599 82.6640041,145.786004 81.848,144.886 C81.0319959,143.985996 79.724009,143.536 77.924,143.536 L71.624,143.536 L71.624,155.164 Z M92.972,156.46 L92.972,166 L90.2,166 L90.2,141.088 L99.416,141.088 C102.056013,141.088 104.041993,141.699994 105.374,142.924 C106.706007,144.148006 107.372,146.055987 107.372,148.648 C107.372,152.488019 105.848015,154.899995 102.8,155.884 L107.588,166 L104.528,166 L100.028,156.46 L92.972,156.46 Z M99.452,154.012 C102.836017,154.012 104.528,152.266017 104.528,148.774 C104.528,145.281983 102.824017,143.536 99.416,143.536 L92.972,143.536 L92.972,154.012 L99.452,154.012 Z M38.108,255.604 C35.6359876,256.108003 33.4160098,256.36 31.448,256.36 C29.4799902,256.36 27.8900061,256.090003 26.678,255.55 C25.4659939,255.009997 24.5300033,254.170006 23.87,253.03 C23.2099967,251.889994 22.7540013,250.582007 22.502,249.106 C22.2499987,247.629993 22.124,245.788011 22.124,243.58 C22.124,241.371989 22.2499987,239.518007 22.502,238.018 C22.7540013,236.517992 23.2099967,235.192006 23.87,234.04 C24.5300033,232.887994 25.459994,232.048003 26.66,231.52 C27.860006,230.991997 29.4199904,230.728 31.34,230.728 C33.2600096,230.728 35.515987,230.991997 38.108,231.52 L38,233.86 C35.5759879,233.427998 33.4160095,233.212 31.52,233.212 C28.8799868,233.212 27.1340043,233.997992 26.282,235.57 C25.4299957,237.142008 25.004,239.823981 25.004,243.616 C25.004,245.512009 25.0819992,247.035994 25.238,248.188 C25.3940008,249.340006 25.6999977,250.377995 26.156,251.302 C26.6120023,252.226005 27.2779956,252.885998 28.154,253.282 C29.0300044,253.678002 30.3139915,253.876 32.006,253.876 C33.6980085,253.876 35.6959885,253.660002 38,253.228 L38.108,255.604 Z M42.644,256 L42.644,231.088 L45.416,231.088 L45.416,256 L42.644,256 Z M51.5,256 L51.5,231.088 L66.656,231.088 L66.656,233.536 L54.272,233.536 L54.272,242.14 L64.496,242.14 L64.496,244.552 L54.272,244.552 L54.272,253.552 L66.656,253.552 L66.656,256 L51.5,256 Z M22.592,353.992 L22.592,328 L25.256,328 L25.256,329.296 C27.0800091,328.191994 28.8799911,327.64 30.656,327.64 C32.9360114,327.64 34.592,328.365993 35.624,329.818 C36.6560052,331.270007 37.172,333.663983 37.172,337 C37.172,340.336017 36.5660061,342.729993 35.354,344.182 C34.1419939,345.634007 32.132014,346.36 29.324,346.36 C27.8599927,346.36 26.5160061,346.228001 25.292,345.964 L25.292,353.992 L22.592,353.992 Z M30.26,330.052 C29.5399964,330.052 28.7660041,330.171999 27.938,330.412 C27.1099959,330.652001 26.4560024,330.891999 25.976,331.132 L25.292,331.492 L25.292,343.624 L25.9973088,343.729062 C27.3579654,343.923021 28.4188571,344.02 29.18,344.02 C31.1240097,344.02 32.4859961,343.468006 33.266,342.364 C34.0460039,341.259994 34.436,339.460012 34.436,336.964 C34.436,334.467988 34.0820035,332.692005 33.374,331.636 C32.6659965,330.579995 31.6280068,330.052 30.26,330.052 Z M54.272,333.436 L54.272,342.652 C54.3440004,343.540004 55.0399934,344.067999 56.36,344.236 L56.252,346.36 C54.3559905,346.36 52.9280048,345.880005 51.968,344.92 C49.8079892,345.880005 47.6480108,346.36 45.488,346.36 C43.8319917,346.36 42.5720043,345.892005 41.708,344.956 C40.8439957,344.019995 40.412,342.676009 40.412,340.924 C40.412,339.171991 40.8559956,337.882004 41.744,337.054 C42.6320044,336.225996 44.0239905,335.716001 45.92,335.524 L51.572,334.984 L51.572,333.436 C51.572,332.211994 51.3080026,331.336003 50.78,330.808 C50.2519974,330.279997 49.5320046,330.016 48.62,330.016 C46.6999904,330.016 44.7080103,330.135999 42.644,330.376 L41.528,330.484 L41.42,328.432 C44.0600132,327.903997 46.3999898,327.64 48.44,327.64 C50.4800102,327.64 51.9619954,328.107995 52.886,329.044 C53.8100046,329.980005 54.272,331.44399 54.272,333.436 Z M43.184,340.78 C43.184,342.988011 44.0959909,344.092 45.92,344.092 C47.5520082,344.092 49.1599921,343.816003 50.744,343.264 L51.572,342.976 L51.572,337.036 L46.244,337.54 C45.1639946,337.636 44.3840024,337.947997 43.904,338.476 C43.4239976,339.004003 43.184,339.771995 43.184,340.78 Z M66.548,354.46 C63.6679856,354.46 61.6580057,354.070004 60.518,353.29 C59.3779943,352.509996 58.808,351.08801 58.808,349.024 C58.808,348.039995 59.0239978,347.242003 59.456,346.63 C59.8880022,346.017997 60.6199948,345.328004 61.652,344.56 C60.9799966,344.103998 60.644,343.276006 60.644,342.076 C60.644,341.667998 60.943997,340.912006 61.544,339.808 L61.868,339.232 C59.9719905,338.367996 59.024,336.556014 59.024,333.796 C59.024,329.691979 61.2679776,327.64 65.756,327.64 C66.9080058,327.64 67.9759951,327.759999 68.96,328 L69.5,328.108 L74.828,327.964 L74.828,330.268 L71.408,330.196 C72.200004,330.988004 72.596,332.187992 72.596,333.796 C72.596,336.052011 72.0380056,337.629996 70.922,338.53 C69.8059944,339.430004 68.048012,339.88 65.648,339.88 C64.9999968,339.88 64.4120026,339.832 63.884,339.736 C63.4519978,340.792005 63.236,341.475998 63.236,341.788 C63.236,342.532004 63.4639977,342.993999 63.92,343.174 C64.3760023,343.354001 65.7559885,343.444 68.06,343.444 C70.3640115,343.444 72.019995,343.803996 73.028,344.524 C74.036005,345.244004 74.54,346.64799 74.54,348.736 C74.54,352.552019 71.8760266,354.46 66.548,354.46 Z M61.472,348.808 C61.472,350.080006 61.8259965,350.961998 62.534,351.454 C63.2420035,351.946002 64.5499905,352.192 66.458,352.192 C68.3660095,352.192 69.7339959,351.928003 70.562,351.4 C71.3900041,350.871997 71.804,349.990006 71.804,348.754 C71.804,347.517994 71.504003,346.720002 70.904,346.36 C70.303997,345.999998 69.1280088,345.82 67.376,345.82 L63.488,345.64 C62.695996,346.216003 62.1620014,346.719998 61.886,347.152 C61.6099986,347.584002 61.472,348.135997 61.472,348.808 Z M61.724,333.796 C61.724,335.212007 62.0419968,336.219997 62.678,336.82 C63.3140032,337.420003 64.3639927,337.72 65.828,337.72 C67.2920073,337.72 68.3359969,337.420003 68.96,336.82 C69.5840031,336.219997 69.896,335.206007 69.896,333.778 C69.896,332.349993 69.5840031,331.336 68.96,330.736 C68.3359969,330.135997 67.2920073,329.836 65.828,329.836 C64.3639927,329.836 63.3140032,330.141997 62.678,330.754 C62.0419968,331.366003 61.724,332.379993 61.724,333.796 Z M77.312,336.964 C77.312,333.675984 77.8999941,331.300007 79.076,329.836 C80.2520059,328.371993 82.237986,327.64 85.034,327.64 C87.830014,327.64 89.8099942,328.371993 90.974,329.836 C92.1380058,331.300007 92.72,333.675984 92.72,336.964 C92.72,340.252016 92.1680055,342.64 91.064,344.128 C89.9599945,345.616007 87.9440146,346.36 85.016,346.36 C82.0879854,346.36 80.0720055,345.616007 78.968,344.128 C77.8639945,342.64 77.312,340.252016 77.312,336.964 Z M80.084,336.928 C80.084,339.544013 80.4019968,341.379995 81.038,342.436 C81.6740032,343.492005 83.0059899,344.02 85.034,344.02 C87.0620101,344.02 88.3879969,343.498005 89.012,342.454 C89.6360031,341.409995 89.948,339.568013 89.948,336.928 C89.948,334.287987 89.6000035,332.470005 88.904,331.474 C88.2079965,330.477995 86.9180094,329.98 85.034,329.98 C83.1499906,329.98 81.8540035,330.477995 81.146,331.474 C80.4379965,332.470005 80.084,334.287987 80.084,336.928 Z M106.508,337.612 L100.172,337.612 L100.172,346 L97.4,346 L97.4,321.088 L106.508,321.088 C109.220014,321.088 111.223994,321.747993 112.52,323.068 C113.816006,324.388007 114.464,326.403986 114.464,329.116 C114.464,334.780028 111.812027,337.612 106.508,337.612 Z M100.172,335.164 L106.472,335.164 C109.904017,335.164 111.62,333.14802 111.62,329.116 C111.62,327.19599 111.212004,325.786004 110.396,324.886 C109.579996,323.985996 108.272009,323.536 106.472,323.536 L100.172,323.536 L100.172,335.164 Z M115.436,346 L122.276,321.088 L128.324,321.088 L135.164,346 L132.428,346 L130.628,339.592 L119.972,339.592 L118.172,346 L115.436,346 Z M124.364,323.464 L120.584,337.108 L130.016,337.108 L126.236,323.464 L124.364,323.464 Z M29.936,413.14 C26.335982,413.14 24.536,414.495986 24.536,417.208 C24.536,418.720008 24.9499959,419.757997 25.778,420.322 C26.5646039,420.857803 28.120119,421.393598 30.4445883,421.9294 L30.818,422.014 C33.3500127,422.578003 35.1439947,423.309995 36.2,424.21 C37.2560053,425.110004 37.784,426.59199 37.784,428.656 C37.784,433.768026 35.1320265,436.324 29.828,436.324 C28.0759912,436.324 25.8800132,436.120002 23.24,435.712 L21.944,435.532 L22.232,433.228 L23.2368127,433.357242 C26.0103162,433.703082 28.1593608,433.876 29.684,433.876 C33.2360178,433.876 35.012,432.208017 35.012,428.872 C35.012,427.527993 34.6220039,426.562003 33.842,425.974 C33.0619961,425.385997 31.6040107,424.888002 29.468,424.48 C26.659986,423.879997 24.6680059,423.106005 23.492,422.158 C22.3159941,421.209995 21.728,419.620011 21.728,417.388 C21.728,412.923978 24.4039732,410.692 29.756,410.692 C31.5080088,410.692 33.6079878,410.871998 36.056,411.232 L37.28,411.412 L37.028,413.752 L35.7722147,413.602759 C33.0918302,413.294252 31.1464408,413.14 29.936,413.14 Z M51.68,427.612 L45.344,427.612 L45.344,436 L42.572,436 L42.572,411.088 L51.68,411.088 C54.3920136,411.088 56.3959935,411.747993 57.692,413.068 C58.9880065,414.388007 59.636,416.403986 59.636,419.116 C59.636,424.780028 56.9840265,427.612 51.68,427.612 Z M45.344,425.164 L51.644,425.164 C55.0760172,425.164 56.792,423.14802 56.792,419.116 C56.792,417.19599 56.3840041,415.786004 55.568,414.886 C54.7519959,413.985996 53.444009,413.536 51.644,413.536 L45.344,413.536 L45.344,425.164 Z M63.92,436 L63.92,411.088 L66.692,411.088 L66.692,436 L63.92,436 Z M81.668,436 L72.776,436 L72.776,411.088 L81.668,411.088 C85.7240203,411.088 88.4119934,412.695984 89.732,415.912 C90.5000038,417.760009 90.884,420.183985 90.884,423.184 C90.884,429.448031 89.3240156,433.395992 86.204,435.028 C84.9559938,435.676003 83.4440089,436 81.668,436 Z M88.04,423.184 C88.04,418.407976 86.9720107,415.432006 84.836,414.256 C83.9719957,413.775998 82.9160062,413.536 81.668,413.536 L75.548,413.536 L75.548,433.552 L81.668,433.552 C85.9160212,433.552 88.04,430.096035 88.04,423.184 Z" id="ANPRCIEpagoPASPIDD" fill="#455B71" fill-rule="nonzero"></path>
            <path d="M93.62,24.018 L91.66,24.018 L91.66,27 L90.106,27 L90.106,17.41 L93.62,17.41 C95.7946775,17.41 96.882,18.4833226 96.882,20.63 C96.882,21.7313388 96.6090027,22.5713304 96.063,23.15 C95.5169973,23.7286696 94.7026721,24.018 93.62,24.018 Z M91.66,22.674 L93.606,22.674 C94.7260056,22.674 95.286,21.9926735 95.286,20.63 C95.286,19.9766634 95.150668,19.5006682 94.88,19.202 C94.609332,18.9033318 94.1846696,18.754 93.606,18.754 L91.66,18.754 L91.66,22.674 Z M98.38,27 L98.38,17.41 L99.934,17.41 L99.934,27 L98.38,27 Z M101.32,27 L103.686,17.41 L106.78,17.41 L109.16,27 L107.592,27 L107.074,24.942 L103.392,24.942 L102.874,27 L101.32,27 Z M104.89,18.712 L103.7,23.57 L106.766,23.57 L105.59,18.712 L104.89,18.712 Z M109.034,18.796 L109.034,17.41 L116.034,17.41 L116.034,18.796 L113.332,18.796 L113.332,27 L111.764,27 L111.764,18.796 L109.034,18.796 Z M116.398,18.796 L116.398,17.41 L123.398,17.41 L123.398,18.796 L120.696,18.796 L120.696,27 L119.128,27 L119.128,18.796 L116.398,18.796 Z M123.286,27 L125.652,17.41 L128.746,17.41 L131.126,27 L129.558,27 L129.04,24.942 L125.358,24.942 L124.84,27 L123.286,27 Z M126.856,18.712 L125.666,23.57 L128.732,23.57 L127.556,18.712 L126.856,18.712 Z M132.498,27 L132.498,17.41 L138.448,17.41 L138.448,18.768 L134.052,18.768 L134.052,22.002 L137.706,22.002 L137.706,23.36 L134.052,23.36 L134.052,27 L132.498,27 Z M141.514,24.97 C141.831335,25.5206694 142.437996,25.796 143.334,25.796 C144.230004,25.796 144.834332,25.525336 145.147,24.984 C145.459668,24.442664 145.616,23.5350064 145.616,22.261 C145.616,20.9869936 145.455002,20.0606696 145.133,19.482 C144.810998,18.9033304 144.211338,18.614 143.334,18.614 C142.456662,18.614 141.854668,18.9033304 141.528,19.482 C141.201332,20.0606696 141.038,20.982327 141.038,22.247 C141.038,23.511673 141.196665,24.4193306 141.514,24.97 Z M146.358,25.978 C145.788664,26.7620039 144.780674,27.154 143.334,27.154 C141.887326,27.154 140.87467,26.7596706 140.296,25.971 C139.71733,25.1823294 139.428,23.9433418 139.428,22.254 C139.428,20.5646582 139.719664,19.3093374 140.303,18.488 C140.886336,17.6666626 141.896659,17.256 143.334,17.256 C144.771341,17.256 145.77933,17.6643293 146.358,18.481 C146.93667,19.2976708 147.226,20.5553248 147.226,22.254 C147.226,23.9526752 146.93667,25.1939961 146.358,25.978 Z M150.586,23.584 L150.586,27 L149.032,27 L149.032,17.41 L152.672,17.41 C154.837344,17.41 155.92,18.4273232 155.92,20.462 C155.92,21.8246735 155.397339,22.7486642 154.352,23.234 L155.934,27 L154.226,27 L152.84,23.584 L150.586,23.584 Z M154.324,20.476 C154.324,19.3279943 153.773339,18.754 152.672,18.754 L150.586,18.754 L150.586,22.24 L152.7,22.24 C153.260003,22.24 153.670665,22.0790016 153.932,21.757 C154.193335,21.4349984 154.324,21.0080027 154.324,20.476 Z M157.684,27 L157.684,17.41 L160.386,17.41 L162.528,24.9 L164.67,17.41 L167.386,17.41 L167.386,27 L165.818,27 L165.818,19.132 L165.608,19.132 L163.34,26.608 L161.716,26.608 L159.448,19.132 L159.238,19.132 L159.238,27 L157.684,27 Z M169.584,27 L169.584,17.41 L175.632,17.41 L175.632,18.768 L171.138,18.768 L171.138,21.484 L174.792,21.484 L174.792,22.828 L171.138,22.828 L171.138,25.628 L175.632,25.628 L175.632,27 L169.584,27 Z M89.28,45 L91.646,35.41 L94.74,35.41 L97.12,45 L95.552,45 L95.034,42.942 L91.352,42.942 L90.834,45 L89.28,45 Z M92.85,36.712 L91.66,41.57 L94.726,41.57 L93.55,36.712 L92.85,36.712 Z M98.492,35.41 L102.132,35.41 C103.112005,35.41 103.844664,35.6083314 104.33,36.005 C104.815336,36.4016687 105.058,37.0339957 105.058,37.902 C105.058,38.4713362 104.967001,38.9193317 104.785,39.246 C104.602999,39.5726683 104.316002,39.8433323 103.924,40.058 C104.838671,40.4126684 105.296,41.154661 105.296,42.284 C105.296,44.0946757 104.278677,45 102.244,45 L98.492,45 L98.492,35.41 Z M102.132,40.814 L100.046,40.814 L100.046,43.656 L102.16,43.656 C102.673336,43.656 103.058332,43.5486677 103.315,43.334 C103.571668,43.1193323 103.7,42.7506693 103.7,42.228 C103.7,41.7053307 103.550668,41.3390011 103.252,41.129 C102.953332,40.918999 102.580002,40.814 102.132,40.814 Z M102.048,36.754 L100.046,36.754 L100.046,39.498 L102.104,39.498 C103.018671,39.498 103.476,39.0266714 103.476,38.084 C103.476,37.1973289 103.000005,36.754 102.048,36.754 Z M107.06,45 L107.06,35.41 L108.614,35.41 L108.614,45 L107.06,45 Z M116.202,45 L110.826,45 L110.826,35.41 L112.38,35.41 L112.38,43.614 L116.202,43.614 L116.202,45 Z M117.476,45 L117.476,35.41 L119.03,35.41 L119.03,45 L117.476,45 Z M120.318,36.796 L120.318,35.41 L127.318,35.41 L127.318,36.796 L124.616,36.796 L124.616,45 L123.048,45 L123.048,36.796 L120.318,36.796 Z M127.206,45 L129.572,35.41 L132.666,35.41 L135.046,45 L133.478,45 L132.96,42.942 L129.278,42.942 L128.76,45 L127.206,45 Z M130.776,36.712 L129.586,41.57 L132.652,41.57 L131.476,36.712 L130.776,36.712 Z M136.418,45 L136.418,35.41 L139.134,35.41 L142.046,43.628 L142.256,43.628 L142.256,35.41 L143.81,35.41 L143.81,45 L141.15,45 L138.168,36.768 L137.972,36.768 L137.972,45 L136.418,45 Z M145.098,36.796 L145.098,35.41 L152.098,35.41 L152.098,36.796 L149.396,36.796 L149.396,45 L147.828,45 L147.828,36.796 L145.098,36.796 Z M153.386,45 L153.386,35.41 L154.94,35.41 L154.94,45 L153.386,45 Z" id="PIATTAFORMEABILITANTI" fill="#455B71" fill-rule="nonzero"></path>
        </g>
    </g>
</svg>