<?xml version="1.0" encoding="UTF-8"?>
<svg width="422px" height="454px" viewBox="0 0 422 454" version="1.1" xmlns="http://www.w3.org/2000/svg" xmlns:xlink="http://www.w3.org/1999/xlink">
    <!-- Generator: Sketch 50 (54983) - http://www.bohemiancoding.com/sketch -->
    <title>Group 2</title>
    <desc>Created with Sketch.</desc>
    <defs></defs>
    <g id="Page-1" stroke="none" stroke-width="1" fill="none" fill-rule="evenodd">
        <g id="Group-2">
            <g id="Group-46-Copy-2" transform="translate(141.857148, 0.000000)">
                <g id="Group-40-Copy">
                    <path d="M12.0716986,0.550173343 C5.46366304,0.550173343 0.0759142575,5.90420159 0.0759142575,12.5459577 C0.0759142575,19.612196 0.0759142575,129.810126 0.0759142575,135.277614 C0.0759142575,141.886443 5.43033922,147.273398 12.0716986,147.273398 C18.0069103,147.273398 45.9445756,147.273398 51.8940689,147.273398 C66.6950055,147.273398 135.716983,147.273398 150.788874,147.273398 C154.887704,147.273398 158.556896,145.210494 160.736036,141.98443 C163.766124,137.499202 162.479586,133.474556 162.784658,129.00837 L162.784658,125.873153 C162.784658,80.7721302 162.784658,53.6080537 162.784658,12.5459577 C162.784658,5.93633528 157.42944,0.550173343 150.788874,0.550173343 C124.330945,0.550173343 38.685932,0.550173343 12.0716986,0.550173343 Z" id="Fill-1" fill="#E6E9F2"></path>
                    <path d="M21.9779997,58.8279932 L15.8658544,58.8279932 C14.1722899,58.8279932 12.7992689,57.4553689 12.7992689,55.7614077 C12.7992689,54.0674465 14.1722899,52.6948222 15.8658544,52.6948222 L21.977603,52.6948222 C23.6711675,52.6948222 25.0441885,54.0678432 25.0441885,55.7614077 C25.0445853,57.4553689 23.6715642,58.8279932 21.9779997,58.8279932" id="Fill-3" fill="#D6DEE8"></path>
                    <path d="M21.9779997,44.1083827 L15.8658544,44.1083827 C14.1722899,44.1083827 12.7992689,42.7357584 12.7992689,41.0417972 C12.7992689,39.3478359 14.1722899,37.9752116 15.8658544,37.9752116 L21.977603,37.9752116 C23.6711675,37.9752116 25.0441885,39.3482326 25.0441885,41.0417972 C25.0445853,42.7353617 23.6715642,44.1083827 21.9779997,44.1083827" id="Fill-4" fill="#FFFFFF"></path>
                    <path d="M21.9779997,73.5480005 L15.8658544,73.5480005 C14.1722899,73.5480005 12.7992689,72.1753762 12.7992689,70.481415 C12.7992689,68.7874538 14.1722899,67.4148294 15.8658544,67.4148294 L21.977603,67.4148294 C23.6711675,67.4148294 25.0441885,68.7878505 25.0441885,70.481415 C25.0445853,72.1753762 23.6715642,73.5480005 21.9779997,73.5480005" id="Fill-5" fill="#FFFFFF"></path>
                    <path d="M21.9779997,88.2680078 L15.8658544,88.2680078 C14.1722899,88.2680078 12.7992689,86.8953835 12.7992689,85.2014222 C12.7992689,83.507461 14.1722899,82.1348367 15.8658544,82.1348367 L21.977603,82.1348367 C23.6711675,82.1348367 25.0441885,83.5078577 25.0441885,85.2014222 C25.0445853,86.8949867 23.6715642,88.2680078 21.9779997,88.2680078" id="Fill-6" fill="#D6DEE8"></path>
                    <path d="M21.9779997,102.987618 L15.8658544,102.987618 C14.1722899,102.987618 12.7992689,101.614994 12.7992689,99.9210328 C12.7992689,98.2270716 14.1722899,96.8544473 15.8658544,96.8544473 L21.977603,96.8544473 C23.6711675,96.8544473 25.0441885,98.2274683 25.0441885,99.9210328 C25.0445853,101.614994 23.6715642,102.987618 21.9779997,102.987618" id="Fill-7" fill="#FFFFFF"></path>
                    <path d="M21.9779997,117.707626 L15.8658544,117.707626 C14.1722899,117.707626 12.7992689,116.335001 12.7992689,114.64104 C12.7992689,112.947079 14.1722899,111.574455 15.8658544,111.574455 L21.977603,111.574455 C23.6711675,111.574455 25.0441885,112.947476 25.0441885,114.64104 C25.0445853,116.334605 23.6715642,117.707626 21.9779997,117.707626" id="Fill-8" fill="#D6DEE8"></path>
                    <g id="Group-13" transform="translate(0.031879, 0.093161)">
                        <path d="M21.9461205,132.334075 L15.8339752,132.334075 C14.1404107,132.334075 12.7673897,130.961451 12.7673897,129.26749 C12.7673897,127.573529 14.1404107,126.200904 15.8339752,126.200904 L21.9457238,126.200904 C23.6392883,126.200904 25.0123093,127.573925 25.0123093,129.26749 C25.0127061,130.961451 23.639685,132.334075 21.9461205,132.334075" id="Fill-9" fill="#FFFFFF"></path>
                        <path d="M0.0440350574,6.20438091 L0.0440350574,23.3603996 L162.752779,23.3603996 L162.752779,6.20438091 C162.752779,3.03019698 160.179594,0.457012488 157.00541,0.457012488 L5.79140348,0.457012488 C2.61721955,0.457012488 0.0440350574,3.03019698 0.0440350574,6.20438091 Z" id="Fill-11" fill="#5A6772"></path>
                    </g>
                    <path d="M198.241607,94.29486 L56.31503,94.29486 C53.6161967,94.29486 51.4084932,92.0867597 51.4084932,89.3883231 L51.4084932,56.2707862 C51.4084932,53.5719529 53.6165934,51.3642494 56.31503,51.3642494 L198.241607,51.3642494 C200.94044,51.3642494 203.148144,53.5723496 203.148144,56.2707862 L203.148144,89.3883231 C203.148144,92.0871564 200.940044,94.29486 198.241607,94.29486" id="Fill-14" fill="#2079D4"></path>
                    <path d="M198.241607,154.397953 L56.31503,154.397953 C53.6161967,154.397953 51.4084932,152.189853 51.4084932,149.491416 L51.4084932,116.373879 C51.4084932,113.675046 53.6165934,111.467342 56.31503,111.467342 L198.241607,111.467342 C200.94044,111.467342 203.148144,113.675442 203.148144,116.373879 L203.148144,149.491416 C203.148144,152.190249 200.940044,154.397953 198.241607,154.397953" id="Fill-15" fill="#8EBEED"></path>
                    <path d="M172.923036,83.2559455 L132.690465,83.2559455 C130.996901,83.2559455 129.62388,81.8833212 129.62388,80.1893599 C129.62388,78.4953987 130.996901,77.1227744 132.690465,77.1227744 L172.923036,77.1227744 C174.6166,77.1227744 175.989621,78.4953987 175.989621,80.1893599 C175.989621,81.8833212 174.6166,83.2559455 172.923036,83.2559455" id="Fill-18" fill="#004D99"></path>
                    <path d="M155.771183,68.5363349 L144.118158,68.5363349 C142.424593,68.5363349 141.051572,67.1637106 141.051572,65.4697494 C141.051572,63.7757882 142.424593,62.4031639 144.118158,62.4031639 L155.771183,62.4031639 C157.464747,62.4031639 158.837768,63.7757882 158.837768,65.4697494 C158.837768,67.1633139 157.464747,68.5363349 155.771183,68.5363349" id="Fill-19" fill="#F6F4F2"></path>
                    <path d="M186.492974,68.5363349 L167.526956,68.5363349 C165.833392,68.5363349 164.460371,67.1637106 164.460371,65.4697494 C164.460371,63.7757882 165.833392,62.4031639 167.526956,62.4031639 L186.492974,62.4031639 C188.186539,62.4031639 189.55956,63.7757882 189.55956,65.4697494 C189.55956,67.1633139 188.186539,68.5363349 186.492974,68.5363349" id="Fill-20" fill="#B4D4F4"></path>
                    <path d="M130.931443,68.5363349 L92.1897169,68.5363349 C90.4961524,68.5363349 89.1231314,67.1637106 89.1231314,65.4697494 C89.1231314,63.7757882 90.4961524,62.4031639 92.1897169,62.4031639 L130.931443,62.4031639 C132.625008,62.4031639 133.998029,63.7757882 133.998029,65.4697494 C133.998029,67.1633139 132.625008,68.5363349 130.931443,68.5363349" id="Fill-21" fill="#F6F4F2"></path>
                    <path d="M121.318312,83.2559455 L109.665287,83.2559455 C107.971723,83.2559455 106.598702,81.8833212 106.598702,80.1893599 C106.598702,78.4953987 107.971723,77.1227744 109.665287,77.1227744 L121.318312,77.1227744 C123.011877,77.1227744 124.384898,78.4953987 124.384898,80.1893599 C124.385295,81.8833212 123.012274,83.2559455 121.318312,83.2559455" id="Fill-22" fill="#B4D4F4"></path>
                    <path d="M97.7436881,83.2559455 L91.6319395,83.2559455 C89.938375,83.2559455 88.565354,81.8833212 88.565354,80.1893599 C88.565354,78.4953987 89.938375,77.1227744 91.6319395,77.1227744 L97.7436881,77.1227744 C99.4372526,77.1227744 100.810274,78.4953987 100.810274,80.1893599 C100.810274,81.8833212 99.4372526,83.2559455 97.7436881,83.2559455" id="Fill-23" fill="#F6F4F2"></path>
                    <path d="M76.3771642,83.2559455 L70.2654156,83.2559455 C68.571851,83.2559455 67.19883,81.8833212 67.19883,80.1893599 C67.19883,78.4953987 68.571851,77.1227744 70.2654156,77.1227744 L76.3771642,77.1227744 C78.0707287,77.1227744 79.4437497,78.4953987 79.4437497,80.1893599 C79.4441464,81.8833212 78.0711254,83.2559455 76.3771642,83.2559455" id="Fill-24" fill="#B4D4F4"></path>
                    <path d="M76.3771642,68.5363349 L70.2654156,68.5363349 C68.571851,68.5363349 67.19883,67.1637106 67.19883,65.4697494 C67.19883,63.7757882 68.571851,62.4031639 70.2654156,62.4031639 L76.3771642,62.4031639 C78.0707287,62.4031639 79.4437497,63.7757882 79.4437497,65.4697494 C79.4441464,67.1633139 78.0711254,68.5363349 76.3771642,68.5363349" id="Fill-25" fill="#004D99"></path>
                    <path d="M186.493371,83.2555488 C186.293031,83.2555488 186.092692,83.2349197 185.892352,83.1940584 C185.695979,83.1571641 185.503971,83.0956737 185.319896,83.022282 C185.135822,82.9445264 184.955714,82.8505056 184.788302,82.7398229 C184.620493,82.6255697 184.465378,82.4986218 184.322165,82.3558054 C184.183316,82.2169561 184.056368,82.0610482 183.941718,81.8892718 C183.831432,81.7258264 183.737411,81.545719 183.659656,81.3616446 C183.586264,81.1779668 183.524773,80.9855614 183.487879,80.7895855 C183.365692,80.1913435 183.427182,79.6105568 183.659656,79.0150917 C183.737411,78.8310173 183.831432,78.6552737 183.941718,78.4874645 C184.056368,78.3196552 184.183316,78.1601769 184.322165,78.0209309 C184.465378,77.8781145 184.620493,77.7511666 184.788302,77.6369135 C184.955714,77.5262307 185.135822,77.4326067 185.319896,77.3544543 C185.503971,77.2810626 185.695979,77.2195722 185.892352,77.182678 C186.289064,77.1009552 186.698075,77.1009552 187.090423,77.182678 C187.286796,77.2195722 187.478804,77.2810626 187.666846,77.3544543 C187.85092,77.4322099 188.030631,77.5262307 188.194473,77.6369135 C188.361886,77.7511666 188.521364,77.8781145 188.66061,78.0209309 C188.803823,78.1597802 188.930374,78.3196552 189.041057,78.4874645 C189.151343,78.6552737 189.249331,78.8310173 189.323119,79.0150917 C189.400875,79.2031333 189.461969,79.3951421 189.498863,79.5911179 C189.539724,79.7874904 189.560353,79.9878301 189.560353,80.1885665 C189.560353,80.3885095 189.540121,80.5892459 189.498863,80.7895855 C189.461969,80.9855614 189.400478,81.1779668 189.323119,81.3616446 C189.249331,81.545719 189.151343,81.7258264 189.041057,81.8892718 C188.930771,82.0610482 188.803823,82.2165594 188.66061,82.3558054 C188.521761,82.4986218 188.362282,82.6255697 188.194473,82.7398229 C188.030631,82.8505056 187.85092,82.9441297 187.666846,83.022282 C187.478804,83.0956737 187.286399,83.1571641 187.090423,83.1940584 C186.89405,83.2349197 186.693711,83.2555488 186.493371,83.2555488" id="Fill-26" fill="#F6F4F2"></path>
                    <path d="M73.5297621,141.993158 L65.9616829,134.425079 C64.7640087,133.227008 64.7640087,131.285895 65.9616829,130.087824 L73.5297621,122.519745 C74.7274364,121.322467 76.668946,121.322467 77.8666202,122.519745 C79.0642944,123.717816 79.0642944,125.658929 77.8666202,126.857 L72.4669701,132.256253 L77.8666202,137.655507 C79.0642944,138.853578 79.0642944,140.79469 77.8666202,141.992761 C76.668946,143.190832 74.7274364,143.190436 73.5297621,141.993158" id="Fill-27" stroke="#8EBEED" stroke-width="1.27195858" fill="#F6F4F2"></path>
                    <path d="M100.987009,142.891315 C100.202312,142.891315 99.4172186,142.591797 98.8185799,141.993158 C97.6209057,140.795087 97.6209057,138.853974 98.8185799,137.655903 L104.21823,132.25665 L98.8185799,126.857396 C97.6209057,125.659326 97.6209057,123.718213 98.8185799,122.520142 C100.016254,121.322864 101.957764,121.322864 103.155438,122.520142 L110.723517,130.088221 C111.921191,131.286292 111.921191,133.227405 110.723517,134.425476 L103.155438,141.993555 C102.556799,142.591797 101.772102,142.891315 100.987009,142.891315" id="Fill-28" stroke="#8EBEED" stroke-width="1.27195858" fill="#F6F4F2"></path>
                    <path d="M82.7128568,147.490796 C81.1212473,146.911596 80.3008465,145.151781 80.8800463,143.560171 L89.3796058,120.206913 C89.9588057,118.6157 91.7182244,117.795696 93.3102306,118.374102 C94.9018401,118.953302 95.7222409,120.713117 95.1430411,122.304727 L86.6434816,145.657986 C86.0686456,147.23571 84.3183512,148.073963 82.7128568,147.490796" id="Fill-29" stroke="#8EBEED" stroke-width="1.27195858" fill="#F6F4F2"></path>
                    <g id="Group-39" transform="translate(13.195783, 9.124381)">
                        <path d="M3.17066636,6.34137847 C2.36534053,6.34137847 1.57191607,6.01409088 1.00382416,5.44163513 C0.431368415,4.8731465 0.104080826,4.08011876 0.104080826,3.27479293 C0.104080826,0.78463027 2.89217437,-0.615763899 4.8717684,0.723139875 C5.03957767,0.837789709 5.19865927,0.96434091 5.33790527,1.10715731 C5.91036101,1.67564594 6.23725189,2.46867368 6.23725189,3.27439622 C6.23725189,4.07972205 5.91036101,4.87274979 5.33790527,5.44123842 C5.19865927,5.58405482 5.03957767,5.71100273 4.8717684,5.82128873 C4.70832296,5.93197144 4.52821561,6.02956265 4.34414113,6.10374784 C4.16006666,6.18110672 3.96805794,6.24259712 3.77168539,6.27949136 C3.57134571,6.32035272 3.37100603,6.34137847 3.17066636,6.34137847" id="Fill-30" fill="#DD414C"></path>
                        <path d="M13.5645268,6.34137847 C13.3641871,6.34137847 13.1634507,6.32074943 12.9674749,6.27988807 C12.7711023,6.24299383 12.5790936,6.18150344 12.3950191,6.10414455 C12.2069775,6.03035608 12.031234,5.93236816 11.8634247,5.82168544 C11.6956155,5.71139945 11.540501,5.58445153 11.3972879,5.44163513 C10.8248321,4.8731465 10.4979412,4.08011876 10.4979412,3.27479293 C10.4979412,2.4690704 10.8248321,1.67604265 11.3972879,1.10755402 C11.540501,0.964737622 11.6956155,0.838186421 11.8634247,0.723536587 C12.031234,0.612853875 12.2069775,0.519229789 12.3950191,0.44107748 C12.5790936,0.367685717 12.7711023,0.306195322 12.9674749,0.265333962 C13.36022,0.187578365 13.7692303,0.187578365 14.1655458,0.265333962 C14.3619183,0.306195322 14.5539271,0.367685717 14.7380015,0.44107748 C14.9260431,0.518833077 15.1021834,0.612853875 15.2695959,0.723536587 C15.4370085,0.838186421 15.5925197,0.964737622 15.7357328,1.10755402 C16.3042214,1.67604265 16.6354761,2.4690704 16.6354761,3.27479293 C16.6354761,4.08011876 16.3042214,4.8731465 15.7357328,5.44163513 C15.5929164,5.58445153 15.4374052,5.71139945 15.2695959,5.82168544 C15.1017867,5.93236816 14.9260431,6.02995937 14.7380015,6.10414455 C14.5539271,6.18150344 14.3619183,6.24299383 14.1655458,6.27988807 C13.9652061,6.32035272 13.7648664,6.34137847 13.5645268,6.34137847" id="Fill-31" fill="#EEA03A"></path>
                        <path d="M23.9623543,6.34137847 C23.7620146,6.34137847 23.5616749,6.32074943 23.3613353,6.27988807 C23.1649627,6.24299383 22.972954,6.18150344 22.7888795,6.10414455 C22.6052018,6.03035608 22.4250944,5.93236816 22.2572851,5.82168544 C22.0894759,5.71139945 21.9343614,5.58445153 21.7911483,5.44163513 C21.2230563,4.8731465 20.8957688,4.08011876 20.8957688,3.27479293 C20.8957688,3.07445326 20.9163978,2.87371687 20.9528953,2.67337719 C20.9937567,2.48136847 21.0508832,2.28539263 21.1286388,2.10131816 C21.2063944,1.91724368 21.3004152,1.73713633 21.4107012,1.57369089 C21.5209872,1.4019145 21.6519023,1.24680002 21.7907515,1.10715731 C21.9339647,0.96434091 22.0890791,0.837789709 22.2568884,0.723139875 C22.4246977,0.612457163 22.6044083,0.518833077 22.7884828,0.440680768 C22.9725573,0.367289005 23.1649627,0.30579861 23.3609386,0.26493725 C23.7572541,0.187181653 24.1662644,0.187181653 24.5586128,0.26493725 C24.7549853,0.30579861 24.946994,0.367289005 25.1310685,0.440680768 C25.3195068,0.518436364 25.4952503,0.612457163 25.6626629,0.723139875 C25.8304722,0.837789709 25.9855867,0.96434091 26.1287998,1.10715731 C26.2716162,1.24640331 26.3985641,1.4019145 26.5088501,1.57369089 C26.6191361,1.73713633 26.7175207,1.91724368 26.7909125,2.10131816 C26.8686681,2.28539263 26.9257946,2.48136847 26.966656,2.67337719 C27.0075174,2.87371687 27.0277497,3.07445326 27.0277497,3.27479293 C27.0277497,4.08408588 26.7008588,4.8731465 26.1284031,5.44163513 C25.9851899,5.58445153 25.8300755,5.71139945 25.6622662,5.82168544 C25.4944569,5.93236816 25.3187134,6.02995937 25.1306718,6.10414455 C24.9465973,6.18150344 24.7545886,6.24299383 24.5582161,6.27988807 C24.3630336,6.32035272 24.162694,6.34137847 23.9623543,6.34137847" id="Fill-32" fill="#6DAA43"></path>
                        <path d="M109.851742,6.34098175 L36.729744,6.34098175 C35.0361795,6.34098175 33.6631584,4.96835744 33.6631584,3.27439622 C33.6631584,1.580435 35.0361795,0.207810689 36.729744,0.207810689 L109.851742,0.207810689 C111.545307,0.207810689 112.918328,1.58083171 112.918328,3.27439622 C112.918328,4.96796073 111.545307,6.34098175 109.851742,6.34098175" id="Fill-33" fill="#FFFFFF" opacity="0.2"></path>
                        <path d="M133.174851,6.34098175 L120.635967,6.34098175 C118.942403,6.34098175 117.569382,4.96835744 117.569382,3.27439622 C117.569382,1.580435 118.942403,0.207810689 120.635967,0.207810689 L133.174851,0.207810689 C134.868415,0.207810689 136.241436,1.58083171 136.241436,3.27439622 C136.241436,4.96796073 134.868415,6.34098175 133.174851,6.34098175" id="Fill-34" fill="#FFFFFF" opacity="0.2"></path>
                    </g>
                </g>
            </g>
            <g id="Group-59" transform="translate(147.604517, 179.827738)">
                <g id="Group" transform="translate(0.074532, 0.908325)">
                    <g id="Group-3" fill="#004080">
                        <polygon id="Fill-1" points="0.0400574163 219.648166 273.459964 219.648166 273.459964 0.23700638 0.0400574163 0.23700638"></polygon>
                    </g>
                    <path d="M261.757605,37.3197606 L261.757605,182.562594 C248.570998,182.562594 237.88536,193.253162 237.88536,206.442586 L35.6139566,206.442586 C35.6139566,193.253162 24.9283188,182.562594 11.7424165,182.562594 L11.7424165,37.3197606 C24.9283188,37.3197606 35.6139566,26.6284884 35.6139566,13.4425861 L237.88536,13.4425861 C237.88536,26.6284884 248.570998,37.3197606 261.757605,37.3197606 Z" id="Fill-5" fill="#FFFFFF"></path>
                    <path d="M136.726541,41.4586149 C128.67098,41.4570189 122.139368,47.9860662 122.137772,56.0416264 C122.136746,61.3036812 124.970037,66.158358 129.552141,68.745581 C129.692133,68.8262358 129.8588,68.8468698 130.014239,68.8027519 C130.168594,68.75966 130.299694,68.6574023 130.379038,68.5182087 L134.878207,60.5667872 C135.043221,60.274606 134.940393,59.903993 134.648383,59.7386934 C132.599011,58.5876385 131.870838,55.9931196 133.021893,53.9437471 C134.173004,51.8943747 136.767466,51.1661446 138.816839,52.3172565 C140.866211,53.4683114 141.594441,56.0628304 140.44333,58.1122028 C140.060747,58.793351 139.498044,59.3561105 138.816839,59.7386934 C138.524829,59.903993 138.422001,60.274606 138.587016,60.5667872 L143.074043,68.5182087 C143.153159,68.6578583 143.284316,68.760572 143.438842,68.8039489 C143.491795,68.8192818 143.546629,68.8270908 143.601805,68.8270338 C143.706628,68.8269198 143.809683,68.7997309 143.90094,68.748032 C150.91688,64.7896777 153.395575,55.8932558 149.437278,48.8773158 C146.849941,44.2914502 141.991901,41.4559929 136.726541,41.4586149" id="Fill-1-Copy-2" fill="#0066CC" opacity="0.150000006"></path>
                    <path d="M206.670898,122.483736 L66.7857273,122.483736 C64.2694539,122.483736 62.2298638,120.441475 62.2298638,117.925202 C62.2298638,115.408261 64.2694539,113.366668 66.7857273,113.366668 L206.670898,113.366668 C209.19051,113.366668 211.2301,115.408261 211.2301,117.925202 C211.2301,120.441475 209.19051,122.483736 206.670898,122.483736 Z" id="Fill-7" stroke="#FFFFFF" stroke-width="2.87368421" fill="#004080" opacity="0.339341518"></path>
                    <path d="M206.670898,92.9157895 L66.7857273,92.9157895 C64.2694539,92.9157895 62.2298638,90.8735289 62.2298638,88.3572555 C62.2298638,85.8403145 64.2694539,83.7987215 66.7857273,83.7987215 L206.670898,83.7987215 C209.19051,83.7987215 211.2301,85.8403145 211.2301,88.3572555 C211.2301,90.8735289 209.19051,92.9157895 206.670898,92.9157895 Z" id="Fill-7-Copy" stroke="#FFFFFF" stroke-width="2.87368421" fill="#004080" opacity="0.339341518"></path>
                    <path d="M224.903031,107.698427 L48.5562648,107.698427 C46.0399914,107.698427 43.9977308,105.659505 43.9977308,103.142564 C43.9977308,100.62362 46.0399914,98.58403 48.5562648,98.58403 L224.903031,98.58403 C227.419972,98.58403 229.458895,100.62362 229.458895,103.142564 C229.458895,105.659505 227.419972,107.698427 224.903031,107.698427 Z" id="Fill-8" stroke="#FFFFFF" stroke-width="2.87368421" fill="#004080" opacity="0.339341518"></path>
                    <path d="M88.772648,157.358216 L55.2893214,157.358216 C52.773048,157.358216 50.7334579,155.315955 50.7334579,152.799682 C50.7334579,150.282741 52.773048,148.243819 55.2893214,148.243819 L88.772648,148.243819 C91.2889214,148.243819 93.3285115,150.282741 93.3285115,152.799682 C93.3285115,155.315955 91.2889214,157.358216 88.772648,157.358216 Z" id="Fill-9" stroke="#FFFFFF" stroke-width="2.87368421" fill="#004080" opacity="0.339341518"></path>
                    <path d="M184.683978,157.360886 C182.167704,157.360886 180.125444,155.321296 180.125444,152.802352 C180.125444,150.285411 182.165034,148.245821 184.683978,148.245821 L218.163966,148.243819 C220.683578,148.243819 222.723168,150.282741 222.723168,152.802352 C222.723168,155.318626 220.683578,157.358216 218.163966,157.358216 L184.683978,157.360886 Z" id="Fill-10" stroke="#FFFFFF" stroke-width="2.87368421" fill="#004080" opacity="0.339341518"></path>
                </g>
                <g id="Group-58" transform="translate(94.906110, 154.681944)">
                    <polyline id="Fill-1" fill="#0066CC" points="39.8095321 86.0371394 30.465192 119.553754 20.6905051 108.661053 6.69314221 112.925059 16.3772298 78.1972619 29.9911801 79.6494197 39.8095321 86.0371394"></polyline>
                    <polyline id="Fill-2" fill="#0066CC" points="77.3982132 112.925059 63.3980482 108.661053 53.6261633 119.553754 44.2790212 86.0399414 54.0976068 79.6494197 67.7141256 78.1972619 77.3982132 112.925059"></polyline>
                    <path d="M29.9911801,79.6494197 L39.8095321,86.0371394 L37.8639816,93.0193589 C35.1756566,91.2874639 32.6930482,88.5225499 29.9911801,87.6457445 C25.8093672,86.2865211 19.7039531,88.6238904 16.223818,86.0892107 C15.5907903,85.6261734 15.0810523,85.0370442 14.6591116,84.3547472 L16.3772298,78.1972619 L29.9911801,79.6494197" id="Fill-3" fill="#004D99"></path>
                    <g id="Group-7"></g>
                    <path d="M69.4322438,84.3545137 C69.0103031,85.0370442 68.5005651,85.6261734 67.8675373,86.0892107 C64.3846002,88.6238904 58.2791861,86.2865211 54.0976068,87.6457445 C51.3955051,88.5225499 48.9128967,91.2874639 46.2245717,93.0193589 L44.2790212,86.0399414 L54.0976068,79.6494197 L67.7141256,78.1972619 L69.4322438,84.3545137" id="Fill-4" fill="#004D99"></path>
                    <path d="M81.0366635,43.9257305 C81.0366635,39.4532059 85.1418873,34.384547 83.8316995,30.3489073 C82.4736436,26.1663939 76.1274875,24.4886718 73.5939753,21.0073692 C71.0350113,17.4910411 71.3829314,10.9464071 67.8666033,8.38720956 C64.3853007,5.85346389 58.2808206,8.18989917 54.0983073,6.83184324 C50.0624341,5.52165552 46.517385,0 42.0448604,0 C37.5723358,0 34.0272868,5.52165552 29.9918806,6.83207675 C25.8093672,8.19013267 19.7048871,5.85369739 16.223351,8.38744307 C12.7070229,10.9464071 13.0549431,17.4912746 10.495979,21.0076027 C7.96246683,24.4889053 1.61631072,26.1666274 0.258254789,30.3489073 C-1.05216644,34.384547 3.0530573,39.4534394 3.0530573,43.925964 C3.0530573,48.3982551 -1.05216644,53.4671475 0.258021286,57.5027872 C1.61607721,61.6853006 7.96199983,63.3627892 10.4957455,66.8440918 C13.0547095,70.3604199 12.7070229,76.9050539 16.2231175,79.4642515 C19.7041866,81.9979971 25.8089002,79.6615619 29.9914136,81.0196178 C34.0270533,82.330039 37.5721023,87.8516945 42.0446269,87.8516945 C46.516918,87.8516945 50.0622006,82.330039 54.0976068,81.0196178 C58.2801201,79.6615619 64.3846002,81.9979971 67.8661363,79.4642515 C71.3824644,76.9052874 71.0345443,70.3604199 73.5932748,66.8440918 C76.1270205,63.3627892 82.4729431,61.6853006 83.830999,57.5030207 C85.1418873,53.4671475 81.0366635,48.3980216 81.0366635,43.9257305" id="Fill-6" fill="#8EBEED"></path>
                    <path d="M42.0448604,16.2581431 C57.3243906,16.2581431 69.7108134,28.6447993 69.7108134,43.9243295 C69.7108134,59.2038597 57.3243906,71.5902824 42.0448604,71.5902824 C26.7653302,71.5902824 14.378674,59.2038597 14.378674,43.9243295 C14.378674,28.6447993 26.7653302,16.2581431 42.0448604,16.2581431" id="Fill-8" fill="#FFFFFF"></path>
                    <path d="M42.0409583,28.8715832 C33.1798421,28.8698276 25.9950685,36.0517796 25.9933129,44.9128958 C25.9921843,50.7011561 29.1088048,56.0413006 34.1491187,58.8872459 C34.3031095,58.9759662 34.4864438,58.9986635 34.6574263,58.9501339 C34.8272174,58.9027328 34.971427,58.7902493 35.0587052,58.6371363 L40.0077909,49.8905727 C40.1893069,49.5691733 40.0761964,49.161499 39.7549852,48.9796695 C37.5006755,47.7135092 36.6996851,44.8595383 37.9658455,42.6052286 C39.2320686,40.3509189 42.0859768,39.5498659 44.3402865,40.8160889 C46.5945962,42.0822493 47.3956492,44.9362202 46.1294261,47.1905299 C45.7085849,47.9397929 45.0896121,48.5588283 44.3402865,48.9796695 C44.0190752,49.161499 43.9059647,49.5691733 44.0874807,49.8905727 L49.0232114,58.6371363 C49.1102388,58.7907509 49.2545111,58.903736 49.4244903,58.9514505 C49.4827384,58.9683168 49.5430557,58.9769067 49.6037491,58.976844 C49.7190541,58.9767186 49.8324154,58.9468108 49.9327978,58.889942 C57.6503318,54.5357523 60.3768967,44.7496882 56.0227696,37.0321542 C53.1766989,31.987702 47.8328551,28.868699 42.0409583,28.8715832" id="Fill-1-Copy-2" fill="#00C5CA"></path>
                </g>
            </g>
            <g id="Group" transform="translate(0.000000, 77.589474)">
                <path d="M161.715892,34.9227715 C0.656757788,34.9227715 13.0190522,34.5425695 9.56833312,35.8082484 C3.99037661,37.8542632 0,43.2184495 0,49.4965158 C0,55.3310962 0,235.736182 0,240.554233 C0,248.590297 6.53817826,255.128974 14.5742426,255.128974 C21.4617283,255.128974 154.887206,255.128974 161.71639,255.128974 C169.752455,255.128974 176.290633,248.590796 176.290633,240.554233 C176.290633,219.148812 176.290633,73.272842 176.290633,49.4965158 C176.290135,41.4609498 169.752455,34.9227715 161.715892,34.9227715" id="Fill-1" fill="#2079D4"></path>
                <path d="M156.270483,211.726652 L31.3424948,211.726652 C22.3477036,211.726652 13.8601805,200.399823 13.8601805,186.555588 L13.8601805,235.161145 C13.8601805,238.549079 16.6322166,241.321613 20.0206483,241.321613 L156.270981,241.321613 C159.658915,241.321613 162.430951,238.549079 162.430951,235.161145 L162.430951,205.567181 C162.429954,208.955114 159.657918,211.726652 156.270483,211.726652" id="Fill-2" fill="#EDEFF2"></path>
                <path d="M13.8601805,240.554731 C13.8601805,234.721148 13.8601805,54.3155633 13.8601805,49.4970141 C13.8601805,41.4609498 20.3983587,34.9227715 28.4344231,34.9227715 C15.568847,35.155477 13.5362863,34.3527177 9.56883142,35.8082484 C3.99087491,37.8542632 0.000498298777,43.2184495 0.000498298777,49.4965158 C0.000498298777,55.3310962 0.000498298777,235.736182 0.000498298777,240.554233 C0.000498298777,248.590297 6.53867656,255.128974 14.5747409,255.128974 L28.4349214,255.128974 C26.6769233,255.128974 24.9911786,254.816042 23.4290119,254.2425 C17.8500588,252.196984 13.8601805,246.833296 13.8601805,240.554731" id="Fill-3" fill="#0066CC"></path>
                <path d="M26.8891986,235.161145 L26.8891986,210.80181 C19.7361197,207.841417 13.8606788,198.073764 13.8596822,186.557083 L13.8596822,235.160647 C13.8596822,238.533631 16.616271,241.321115 20.02015,241.321115 L33.0496664,241.321115 C29.6612347,241.321613 26.8891986,238.549079 26.8891986,235.161145" id="Fill-4" fill="#D8D8D8"></path>
                <path d="M156.270483,211.726652 L31.3424948,211.726652 C22.3482019,211.726652 13.8601805,200.399823 13.8601805,186.555588 L13.8601805,54.6309864 C13.8601805,51.2425548 16.6322166,48.4705187 20.0206483,48.4705187 L156.270483,48.4705187 C159.658416,48.4705187 162.430452,51.2425548 162.430452,54.6309864 L162.430452,205.567181 C162.429954,208.954616 159.657918,211.726652 156.270483,211.726652" id="Fill-5" fill="#FFFFFF"></path>
                <path d="M26.8891986,186.555588 L26.8891986,54.6309864 C26.8891986,51.2425548 29.6612347,48.4705187 33.0496664,48.4705187 L20.02015,48.4705187 C16.6317183,48.4705187 13.8596822,51.2425548 13.8596822,54.6309864 L13.8596822,186.556086 C13.8596822,200.399823 22.3477036,211.72715 31.3419965,211.72715 L44.3715129,211.72715 C35.37722,211.726652 26.8891986,200.399823 26.8891986,186.555588" id="Fill-6" fill="#F7F9FA"></path>
                <g id="Group-12" transform="translate(36.375811, 0.000000)">
                    <path d="M89.9165195,73.9829178 L14.3475167,73.9829178 C8.99827932,73.9829178 4.6466361,69.6312745 4.6466361,64.2820372 L4.6466361,45.1892212 C4.6466361,43.0629803 6.37025157,41.3393649 8.49649245,41.3393649 C10.6232316,41.3393649 12.3468471,43.0629803 12.3468471,45.1892212 L12.3468471,64.2815389 C12.3468471,65.365837 13.2627203,66.2822085 14.3475167,66.2822085 L89.9160212,66.2822085 C91.0003193,66.2822085 91.9166907,65.365837 91.9166907,64.2815389 L91.9166907,45.1892212 C91.9166907,43.0629803 93.6403062,41.3393649 95.7665471,41.3393649 C97.892788,41.3393649 99.6164035,43.0629803 99.6164035,45.1892212 L99.6164035,64.2815389 C99.6169018,69.6312745 95.2657568,73.9829178 89.9165195,73.9829178" id="Fill-7" fill="#004080"></path>
                    <path d="M52.1320181,33.1727462 C47.028442,33.1727462 42.8920638,29.0358698 42.8920638,23.932792 C42.8920638,18.8297142 47.0289403,14.693336 52.1320181,14.693336 C57.2350959,14.693336 61.371474,18.8302125 61.371474,23.932792 C61.3719723,29.0358698 57.2350959,33.1727462 52.1320181,33.1727462 Z M97.2195863,31.6325047 L78.9793596,31.6325047 C77.4286538,31.6325047 76.171446,30.3757952 76.171446,28.8250894 L76.171446,24.4530159 C76.171446,11.2695251 65.7236155,0.240678309 52.542118,0.0209285486 C39.0770884,-0.2038042 28.0910953,10.6436619 28.0910953,24.0573667 L28.0910953,28.9925178 C28.0910953,30.4500417 26.9091306,31.6320064 25.4516066,31.6320064 L6.53020548,31.6320064 C3.14227209,31.6320064 0.370235991,34.4040425 0.370235991,37.7919759 L0.370235991,42.6224842 C0.370235991,46.0104176 3.14227209,48.7824537 6.53020548,48.7824537 L97.2195863,48.7824537 C100.60752,48.7824537 103.379556,46.0104176 103.379556,42.6224842 L103.379556,37.7924742 C103.379556,34.4045408 100.60752,31.6325047 97.2195863,31.6325047 Z" id="Fill-9" fill="#D6DEE8"></path>
                    <path d="M13.2044193,42.6229825 L13.2044193,37.7924742 C13.2044193,34.4045408 15.9764554,31.6325047 19.3643888,31.6325047 L6.53070377,31.6325047 C3.14277039,31.6325047 0.37073429,34.4045408 0.37073429,37.7924742 L0.37073429,42.6229825 C0.37073429,46.0109159 3.14277039,48.782952 6.53070377,48.782952 L19.3638905,48.782952 C15.9759571,48.782952 13.2044193,46.0109159 13.2044193,42.6229825" id="Fill-10" fill="#455B71" opacity="0.309821429"></path>
                    <path d="M40.9252786,28.9930161 L40.9252786,24.057865 C40.9252786,13.0095845 48.3798283,3.7093361 58.5321676,0.895442903 C43.370929,-3.36301845 28.0920919,8.09785343 28.0920919,24.057865 L28.0920919,28.9930161 C28.0920919,30.45054 26.9101272,31.6325047 25.4526032,31.6325047 L38.28579,31.6325047 C39.7433139,31.6325047 40.9252786,30.4510383 40.9252786,28.9930161" id="Fill-11" fill="#455B71" opacity="0.309821429"></path>
                </g>
                <path d="M143.88128,136.846797 L58.4673887,136.846797 C56.3411478,136.846797 54.6175324,135.123181 54.6175324,132.996442 C54.6175324,130.870201 56.3411478,129.146586 58.4673887,129.146586 L143.88128,129.146586 C146.007521,129.146586 147.731137,130.870201 147.731137,132.996442 C147.731137,135.123181 146.007521,136.846797 143.88128,136.846797" id="Fill-13" fill="#65DDE0" opacity="0.7"></path>
                <path d="M143.88128,161.874849 L58.4673887,161.874849 C56.3411478,161.874849 54.6175324,160.150736 54.6175324,158.024495 C54.6175324,155.898254 56.3411478,154.174638 58.4673887,154.174638 L143.88128,154.174638 C146.007521,154.174638 147.731137,155.898254 147.731137,158.024495 C147.731137,160.150736 146.007521,161.874849 143.88128,161.874849" id="Fill-14" fill="#65DDE0" opacity="0.7"></path>
                <path d="M143.88128,111.819242 L58.4673887,111.819242 C56.3411478,111.819242 54.6175324,110.095627 54.6175324,107.969386 C54.6175324,105.842647 56.3411478,104.119031 58.4673887,104.119031 L143.88128,104.119031 C146.007521,104.119031 147.731137,105.842647 147.731137,107.969386 C147.731137,110.095627 146.007521,111.819242 143.88128,111.819242" id="Fill-15" fill="#65DDE0" opacity="0.7"></path>
                <path d="M39.4832019,101.875192 C42.8497085,101.875192 45.5783926,104.604374 45.5783926,107.970881 C45.5783926,111.336889 42.8497085,114.066071 39.4832019,114.066071 C36.1166954,114.066071 33.3880113,111.336889 33.3880113,107.970881 C33.3880113,104.604374 36.1166954,101.875192 39.4832019,101.875192" id="Fill-16" fill="#00C5CA"></path>
                <path d="M39.4832019,151.931297 C42.8497085,151.931297 45.5783926,154.659981 45.5783926,158.026488 C45.5783926,161.392994 42.8497085,164.122177 39.4832019,164.122177 C36.1166954,164.122177 33.3880113,161.392994 33.3880113,158.026488 C33.3880113,154.659981 36.1166954,151.931297 39.4832019,151.931297" id="Fill-17" fill="#00C5CA"></path>
                <g id="Group-21" transform="translate(30.894524, 126.567889)">
                    <path d="M8.58867772,0.332863583 C11.9551843,0.332863583 14.6838684,3.06204599 14.6838684,6.42805423 C14.6838684,9.79456077 11.9551843,12.5237432 8.58867772,12.5237432 C5.22217119,12.5237432 2.49348708,9.79456077 2.49348708,6.42805423 C2.49348708,3.06204599 5.22217119,0.332863583 8.58867772,0.332863583" id="Fill-18" fill="#00C5CA"></path>
                    <path d="M0.447970601,85.1587627 C8.54881382,85.1587627 15.3630496,77.0982817 17.3472753,66.159627 C18.0384157,62.3486379 21.3620686,59.5800899 25.235345,59.5800899 L158.676269,59.5800899 C163.624376,59.5800899 167.217609,64.288515 165.915056,69.0612207 C163.340844,78.4940166 157.038361,85.1582644 149.672509,85.1582644 L0.447970601,85.1582644" id="Fill-20" fill="#F3F4F7"></path>
                </g>
                <path d="M62.4786939,192.727516 C63.1698343,188.916527 66.4934871,186.147979 70.3662652,186.147979 L56.1293709,186.147979 C52.2560945,186.147979 48.9329399,188.916527 48.2413012,192.727516 C46.2570755,203.666171 39.4428397,211.726652 31.3419965,211.726652 L45.5788909,211.726652 C53.6802324,211.726652 60.4944682,203.666171 62.4786939,192.727516" id="Fill-22" fill="#E4E6ED"></path>
            </g>
        </g>
    </g>
</svg>