<?xml version="1.0" encoding="UTF-8"?>
<svg width="545px" height="181px" viewBox="0 0 545 181" version="1.1" xmlns="http://www.w3.org/2000/svg" xmlns:xlink="http://www.w3.org/1999/xlink">
    <!-- Generator: Sketch 50 (54983) - http://www.bohemiancoding.com/sketch -->
    <title>Group 41</title>
    <desc>Created with Sketch.</desc>
    <defs>
        <rect id="path-1" x="0" y="0.273165546" width="563" height="219.515897"></rect>
    </defs>
    <g id="Page-1" stroke="none" stroke-width="1" fill="none" fill-rule="evenodd">
        <g id="Group-41" transform="translate(0.000000, -38.000000)">
            <g id="Oval-4-+-Oval-4-Copy-+-Oval-4-Copy-2-+-Oval-4-+-Oval-4-Copy-+-Oval-4-Copy-2-Mask" transform="translate(0.000000, 1.000000)">
                <mask id="mask-2" fill="white">
                    <use xlink:href="#path-1"></use>
                </mask>
                <g id="Mask" opacity="0.100000001"></g>
                <path d="M544.501429,217.829114 C544.501429,206.730987 535.6792,197.734177 524.796429,197.734177 C513.913658,197.734177 505.091429,206.730987 505.091429,217.829114 L544.501429,217.829114 Z" id="Oval-4" fill="#FFFFFF" mask="url(#mask-2)"></path>
                <path d="M512.33,217.025316 C512.33,210.36644 506.74859,204.968354 499.863571,204.968354 C492.978553,204.968354 487.397143,210.36644 487.397143,217.025316 L512.33,217.025316 Z" id="Oval-4-Copy" fill="#FFFFFF" mask="url(#mask-2)"></path>
                <path d="M489.81,217.025316 C489.81,213.917841 487.289363,211.398734 484.18,211.398734 C481.070637,211.398734 478.55,213.917841 478.55,217.025316 L489.81,217.025316 Z" id="Oval-4-Copy-2" fill="#FFFFFF" mask="url(#mask-2)"></path>
                <path d="M47.4528571,62.6962025 C47.4528571,48.9345249 36.1099913,37.778481 22.1178571,37.778481 C8.12572301,37.778481 -3.21714286,48.9345249 -3.21714286,62.6962025 L47.4528571,62.6962025 Z" id="Oval-4" fill="#FFFFFF" mask="url(#mask-2)"></path>
                <path d="M79.6242857,62.6962025 C79.6242857,53.8177009 72.4224661,46.6202532 63.5385714,46.6202532 C54.6546767,46.6202532 47.4528571,53.8177009 47.4528571,62.6962025 L79.6242857,62.6962025 Z" id="Oval-4-Copy" fill="#FFFFFF" mask="url(#mask-2)"></path>
                <path d="M111.795714,62.6962025 C111.795714,58.7008768 108.554895,55.4620253 104.557143,55.4620253 C100.55939,55.4620253 97.3185714,58.7008768 97.3185714,62.6962025 L111.795714,62.6962025 Z" id="Oval-4-Copy-2" fill="#FFFFFF" mask="url(#mask-2)"></path>
            </g>
            <g id="Group-25" transform="translate(42.000000, 0.000000)">
                <g id="Group-51" transform="translate(372.000000, 136.000000) rotate(5.000000) translate(-372.000000, -136.000000) translate(338.000000, 122.000000)">
                    <path d="M17.9978109,-2.28180222e-15 L64.5674323,-6.66133815e-15 C66.4317804,-7.00381335e-15 67.9431332,1.51135279 67.9431332,3.37570093 L67.9431332,23.7424299 C67.9431332,25.6067781 66.4317804,27.1181308 64.5674323,27.1181308 L17.9978095,27.1181308 C16.0266657,27.1181308 14.1177036,26.4281473 12.6020784,25.1678743 L1.76264595,16.1546671 C0.329136588,14.9626751 0.133348086,12.8342857 1.32534009,11.4007764 C1.45742054,11.2419342 1.60380305,11.0955517 1.76264515,10.9634712 L12.6020779,1.95025824 C14.1177034,0.6899842 16.0266663,-4.96697711e-15 17.9978109,-5.32907052e-15 Z" id="Rectangle-20" fill="#004D99"></path>
                    <path d="M31.68767,19.552177 L34.3904478,7.56596317 L39.018734,7.56596317 L41.7215119,19.552177 L39.2837123,19.552177 L38.8067515,17.3840824 L34.6024304,17.3840824 L34.1254696,19.552177 L31.68767,19.552177 Z M36.2806258,9.57541666 L35.061726,15.2688682 L38.3474559,15.2688682 L37.1285561,9.57541666 L36.2806258,9.57541666 Z M47.7453501,16.0620736 L45.766846,16.0620736 L45.766846,19.552177 L43.3290464,19.552177 L43.3290464,7.56596317 L47.7453501,7.56596317 C50.5953523,7.56596317 52.020332,8.95258972 52.020332,11.7258844 C52.020332,13.124283 51.6581987,14.1965684 50.9339213,14.9427727 C50.2096439,15.688977 49.1467974,16.0620736 47.7453501,16.0620736 Z M45.766846,13.9821129 L47.7276848,13.9821129 C48.9407023,13.9821129 49.547202,13.2300443 49.547202,11.7258844 C49.547202,10.9855558 49.3999933,10.4538197 49.1055716,10.1306604 C48.8111499,9.80750105 48.3518589,9.6459238 47.7276848,9.6459238 L45.766846,9.6459238 L45.766846,13.9821129 Z M53.7338578,19.552177 L53.7338578,7.56596317 L56.1716574,7.56596317 L56.1716574,19.552177 L53.7338578,19.552177 Z" id="API" fill="#FFFFFF"></path>
                    <ellipse id="Oval" fill="#FFFFFF" cx="16.306352" cy="13.5590701" rx="4.07658799" ry="4.06771963"></ellipse>
                </g>
                <g id="Group-49" transform="translate(447.000000, 94.000000) rotate(-4.000000) translate(-447.000000, -94.000000) translate(418.000000, 82.000000)">
                    <path d="M15.0493051,0.332503556 L54.1728352,0.332503556 C55.7390898,0.332503556 57.0087899,1.60220373 57.0087899,3.16845827 L57.0087899,20.2787184 C57.0087899,21.8449729 55.7390898,23.1146731 54.1728352,23.1146731 L15.0493039,23.1146731 C13.3933294,23.1146731 11.7895943,22.5350121 10.5163048,21.4762462 L1.41000659,13.9041751 C0.205703332,12.9027726 0.0412197667,11.1146948 1.04262226,9.91039158 C1.15358416,9.77694696 1.27656133,9.65396975 1.41000592,9.54300781 L10.5163044,1.97093188 C11.7895941,0.912165079 13.3933299,0.332503556 15.0493051,0.332503556 Z" id="Rectangle-20-Copy" fill="#65DDE0"></path>
                    <path d="M26.5502707,16.7584517 L28.820897,6.68873277 L32.7091592,6.68873277 L34.9797855,16.7584517 L32.9317696,16.7584517 L32.5310708,14.9370173 L28.9989854,14.9370173 L28.5982866,16.7584517 L26.5502707,16.7584517 Z M30.4088514,8.37689154 L29.3848435,13.160008 L32.1452128,13.160008 L31.1212048,8.37689154 L30.4088514,8.37689154 Z M40.0404626,13.8263865 L38.3783048,13.8263865 L38.3783048,16.7584517 L36.3302888,16.7584517 L36.3302888,6.68873277 L40.0404626,6.68873277 C42.4347734,6.68873277 43.6319109,7.85364939 43.6319109,10.1835176 C43.6319109,11.358324 43.3276797,12.2591599 42.7192081,12.8860524 C42.1107366,13.5129449 41.2178303,13.8263865 40.0404626,13.8263865 Z M38.3783048,12.0789941 L40.0256219,12.0789941 C41.0446881,12.0789941 41.5542135,11.4471749 41.5542135,10.1835176 C41.5542135,9.56156124 41.4305423,9.11484534 41.1831962,8.84335646 C40.93585,8.57186758 40.5499958,8.43612518 40.0256219,8.43612518 L38.3783048,8.43612518 L38.3783048,12.0789941 Z M45.0714583,16.7584517 L45.0714583,6.68873277 L47.1194742,6.68873277 L47.1194742,16.7584517 L45.0714583,16.7584517 Z" id="API-Copy" fill="#FFFFFF"></path>
                    <ellipse id="Oval-Copy" fill="#FFFFFF" cx="13.6282962" cy="11.7235922" rx="3.42477582" ry="3.41732543"></ellipse>
                </g>
                <path d="M205.376884,121 L354.623116,134" id="Path-2" stroke="#00264D" stroke-width="1.5" stroke-linecap="round"></path>
                <path d="M214.377163,118 L431.622837,96" id="Path-2" stroke="#00264D" stroke-width="1.5" stroke-linecap="round"></path>
                <g id="Group-49-Copy" transform="translate(312.000000, 92.000000) rotate(-10.000000) translate(-312.000000, -92.000000) translate(283.000000, 80.000000)">
                    <path d="M15.0493051,0.332503556 L54.1728352,0.332503556 C55.7390898,0.332503556 57.0087899,1.60220373 57.0087899,3.16845827 L57.0087899,20.2787184 C57.0087899,21.8449729 55.7390898,23.1146731 54.1728352,23.1146731 L15.0493039,23.1146731 C13.3933294,23.1146731 11.7895943,22.5350121 10.5163048,21.4762462 L1.41000659,13.9041751 C0.205703332,12.9027726 0.0412197667,11.1146948 1.04262226,9.91039158 C1.15358416,9.77694696 1.27656133,9.65396975 1.41000592,9.54300781 L10.5163044,1.97093188 C11.7895941,0.912165079 13.3933299,0.332503556 15.0493051,0.332503556 Z" id="Rectangle-20-Copy" fill="#0073E6"></path>
                    <path d="M26.5502707,16.7584517 L28.820897,6.68873277 L32.7091592,6.68873277 L34.9797855,16.7584517 L32.9317696,16.7584517 L32.5310708,14.9370173 L28.9989854,14.9370173 L28.5982866,16.7584517 L26.5502707,16.7584517 Z M30.4088514,8.37689154 L29.3848435,13.160008 L32.1452128,13.160008 L31.1212048,8.37689154 L30.4088514,8.37689154 Z M40.0404626,13.8263865 L38.3783048,13.8263865 L38.3783048,16.7584517 L36.3302888,16.7584517 L36.3302888,6.68873277 L40.0404626,6.68873277 C42.4347734,6.68873277 43.6319109,7.85364939 43.6319109,10.1835176 C43.6319109,11.358324 43.3276797,12.2591599 42.7192081,12.8860524 C42.1107366,13.5129449 41.2178303,13.8263865 40.0404626,13.8263865 Z M38.3783048,12.0789941 L40.0256219,12.0789941 C41.0446881,12.0789941 41.5542135,11.4471749 41.5542135,10.1835176 C41.5542135,9.56156124 41.4305423,9.11484534 41.1831962,8.84335646 C40.93585,8.57186758 40.5499958,8.43612518 40.0256219,8.43612518 L38.3783048,8.43612518 L38.3783048,12.0789941 Z M45.0714583,16.7584517 L45.0714583,6.68873277 L47.1194742,6.68873277 L47.1194742,16.7584517 L45.0714583,16.7584517 Z" id="API-Copy" fill="#FFFFFF"></path>
                    <ellipse id="Oval-Copy" fill="#FFFFFF" cx="13.6282962" cy="11.7235922" rx="3.42477582" ry="3.41732543"></ellipse>
                </g>
                <path d="M233,107 L296,95" id="Path-2" stroke="#00264D" stroke-width="1.5" stroke-linecap="round"></path>
                <g id="airplane" transform="translate(152.500000, 121.000000) scale(-1, 1) rotate(22.000000) translate(-152.500000, -121.000000) translate(19.000000, 45.000000)" fill-rule="nonzero">
                    <path d="M265.075242,15.4673104 C262.52278,9.31859508 257.722215,4.52899295 251.560095,1.9815642 C245.397974,-0.565864548 238.609964,-0.565345406 232.448364,1.9815642 L79.6949913,65.2358761 L28.8424081,49.9253465 C25.0948773,48.7936174 21.0502703,49.0251546 17.4572607,50.5659675 L2.51968509,56.9742537 C1.28403527,57.5053357 0.38188083,58.5924186 0.0972911651,59.9027325 C-0.191460689,61.2088932 0.170649744,62.5752744 1.068642,63.569431 L31.4276477,97.2041082 C40.2884276,107.01485 52.770832,112.303866 65.4972448,112.303866 C71.378938,112.303866 77.3173409,111.172137 82.9669921,108.835999 L256.067745,37.1741859 C260.176866,35.4750349 263.376029,32.282832 265.075242,28.1826502 C266.778098,24.0814301 266.778098,19.5674922 265.075242,15.4673104 Z" id="Shape" fill="#FFFFFF"></path>
                    <path d="M264.359346,18.314284 L91.2585926,89.9760971 C85.6089415,92.3122351 79.6705385,93.4439642 73.7888453,93.4439642 C61.0624325,93.4439642 48.5800281,88.1549477 39.7192482,78.3442062 L15.4313153,51.4350108 L2.51968509,56.9742537 C1.28403527,57.5053357 0.38188083,58.5924186 0.0972911651,59.9027325 C-0.191460689,61.2088932 0.170649744,62.5752744 1.068642,63.569431 L31.4276477,97.2041082 C40.2884276,107.01485 52.770832,112.303866 65.4972448,112.303866 C71.378938,112.303866 77.3173409,111.172137 82.9669921,108.835999 L256.067745,37.1741859 C260.176866,35.4750349 263.376029,32.282832 265.075242,28.1826502 C266.490907,24.7750035 266.659996,21.0932499 265.722463,17.5890429 C265.265662,17.8283672 264.84216,18.1149335 264.359346,18.314284 Z" id="Shape" fill="#80B9F1"></path>
                    <path d="M186.287088,79.4022172 L132.451776,101.653153 L124.127398,81.3977982 L177.918487,59.165032 C182.18317,57.4025457 187.07062,59.4386198 188.813016,63.7038887 L190.792137,68.549039 C192.551702,72.7878317 190.534602,77.6464796 186.287088,79.4022172 Z" id="Shape" fill="#455B71"></path>
                    <path d="M227.261756,26.2716893 C226.180628,26.2716893 225.099499,25.8174402 224.351346,25.0267873 C223.558969,24.2802614 223.099567,23.1978507 223.099567,22.0780619 C223.099567,20.9992853 223.558969,19.9163555 224.351346,19.1698296 C225.847132,17.6326508 228.680022,17.6326508 230.21639,19.1698296 C231.008767,19.9163555 231.423425,20.9987661 231.423425,22.0780619 C231.423425,23.1973316 231.008767,24.2802614 230.21639,25.0267873 C229.468757,25.8174402 228.387628,26.2716893 227.261756,26.2716893 Z" id="Shape" fill="#004080"></path>
                    <path d="M100.40032,78.6847632 C99.2744481,78.6847632 98.1933196,78.2710072 97.4451661,77.4803543 C96.6527894,76.7338284 96.2381313,75.6550518 96.2381313,74.5316289 C96.2381313,73.4528523 96.6527894,72.3740757 97.4451661,71.5829036 C98.9856963,70.0862178 101.773843,70.0457247 103.314373,71.6233966 C104.103107,72.3735565 104.561989,73.4523332 104.561989,74.5316289 C104.561989,75.6550518 104.102587,76.6933353 103.314373,77.4803543 C102.562577,78.2710072 101.481449,78.6847632 100.40032,78.6847632 Z" id="Shape" fill="#004080"></path>
                    <path d="M88.8283946,83.4624251 C87.747266,83.4624251 86.6661374,83.0040229 85.9138218,82.2580161 C85.125087,81.4673632 84.6662057,80.3880674 84.6662057,79.3092908 C84.6662057,78.226361 85.1256073,77.1475844 85.9138218,76.3605654 C87.4137706,74.8233866 90.2424982,74.8233866 91.7830284,76.3605654 C92.5754051,77.1475844 92.9900632,78.226361 92.9900632,79.3092908 C92.9900632,80.3880674 92.5754051,81.4668441 91.7830284,82.2580161 C91.0353952,83.0450351 89.9542667,83.4624251 88.8283946,83.4624251 Z" id="Shape" fill="#004080"></path>
                    <path d="M215.734574,31.0088581 C214.653446,31.0088581 213.568155,30.5909489 212.77942,29.8044491 C212.031267,29.0542892 211.572385,27.9755126 211.572385,26.8557238 C211.572385,25.772794 212.031787,24.6940174 212.820001,23.9069984 C214.360532,22.4103127 217.148678,22.3698196 218.689208,23.9069984 C219.481585,24.6940174 219.896243,25.772794 219.896243,26.8557238 C219.896243,27.9345004 219.481585,29.013277 218.689208,29.8044491 C217.896831,30.5914681 216.856284,31.0088581 215.734574,31.0088581 Z" id="Shape" fill="#004080"></path>
                    <path d="M197.66287,37.8350534 C196.532836,36.2490753 194.451742,35.6531005 192.675527,36.4032604 L115.768682,68.1887546 C114.886819,68.5537112 114.154794,69.2109448 113.699554,70.050397 L72.8783665,145.362296 C72.0412463,146.907781 72.2686058,148.813551 73.451708,150.119711 C74.2565713,151.012116 75.3866056,151.490765 76.5410927,151.490765 C77.0774948,151.490765 77.6180591,151.389532 78.1346908,151.174607 L112.74121,136.869656 C113.318194,136.630331 113.834825,136.265375 114.248963,135.798666 L197.370997,43.0062248 C198.666998,41.5619723 198.789263,39.4168785 197.66287,37.8350534 Z" id="Shape" fill="#D6DEE8"></path>
                    <path d="M257.109333,5.27759541 L243.98335,10.7015888 C241.861674,11.5779001 240.853384,14.0069646 241.731606,16.1281779 C242.393914,17.7260963 243.946931,18.6917 245.576948,18.6917 C246.109188,18.6917 246.650273,18.5904674 247.170546,18.3755427 L263.108608,11.7891908 C261.519172,9.25110664 259.48022,7.08005569 257.109333,5.27759541 Z" id="Shape" fill="#004080"></path>
                </g>
            </g>
        </g>
    </g>
</svg>
