<?xml version="1.0" encoding="UTF-8"?>
<svg width="623px" height="479px" viewBox="0 0 623 479" version="1.1" xmlns="http://www.w3.org/2000/svg" xmlns:xlink="http://www.w3.org/1999/xlink">
    <!-- Generator: Sketch 50 (54983) - http://www.bohemiancoding.com/sketch -->
    <title>Group</title>
    <desc>Created with Sketch.</desc>
    <defs></defs>
    <g id="Page-1" stroke="none" stroke-width="1" fill="none" fill-rule="evenodd" opacity="0.5">
        <g id="Group" transform="translate(2.000000, 2.000000)" fill="#E6ECF2" stroke="#E6ECF2">
            <path d="M204.783611,268.049985 L66.5962961,156.501296 L204.783611,44.9523933 C210.333373,39.4027375 213.108148,33.0206813 213.108148,25.8060115 C213.108148,18.5913417 210.333373,12.4867522 204.783611,7.49203004 C199.788888,2.49730783 193.545566,0 186.053429,0 C178.561292,0 172.317969,2.49730783 167.323141,7.49203004 L7.49208331,136.522407 C4.71722343,139.297182 2.77485135,142.488263 1.6649074,146.095545 C0.554963558,149.702933 0,153.171375 0,156.501296 C0,159.831111 0.554963558,163.299552 1.6649074,166.906941 C2.77485135,170.514222 4.71722343,173.705304 7.49208331,176.480185 L167.323141,305.510455 C172.317969,310.505177 178.561292,313.002592 186.053429,313.002592 C193.545566,313.002592 199.788888,310.505177 204.783611,305.510455 C210.333373,300.515733 213.108148,294.27241 213.108148,286.780274 C213.108148,279.288137 210.333373,273.044814 204.783611,268.049985 Z" id="Fill-1" stroke-width="3"></path>
            <g id="Group-8" transform="translate(416.252694, 241.272552)" stroke-width="10">
                <path d="M124.524516,2.04962966 C122.319822,0.947300665 120.069272,0.671700779 117.772724,1.22290055 C115.476211,1.77406505 113.684936,3.15195865 112.398897,5.35661664 L2.16599743,217.554948 C0.879923421,219.759616 0.512468664,222.102043 1.06366844,224.582297 C1.61483293,227.062548 3.08458141,228.670095 5.47298441,229.404985 C8.22880689,230.323597 10.6171746,230.553246 12.6380876,230.09394 C14.6590358,229.634634 16.2206745,228.394526 17.3230035,226.37358 L127.555903,13.8996487 C128.841977,11.8787357 129.163469,9.72000518 128.52045,7.42349232 C127.877395,5.12694419 126.545429,3.33570367 124.524516,2.04962966 Z" id="Path"></path>
                <path d="M197.119247,111.622013 L144.012864,68.7496552 C142.353254,67.0900807 140.278813,66.2603112 137.789433,66.2603112 C135.300054,66.2603112 133.225612,67.0900807 131.566038,68.7496552 C129.722043,70.4092296 128.80008,72.4375748 128.80008,74.8347616 C128.80008,77.2319483 129.722043,79.3524862 131.566038,81.196446 L177.480931,118.260311 L131.566038,155.324106 C129.722043,157.168101 128.80008,159.288639 128.80008,161.685825 C128.80008,164.083012 129.722043,166.111357 131.566038,167.770932 C133.225612,169.430506 135.300054,170.260311 137.789433,170.260311 C140.278813,170.260311 142.353254,169.430506 144.012864,167.770932 L197.119247,124.898609 C198.041209,123.976611 198.686593,122.916325 199.055399,121.717749 C199.424206,120.519138 199.608591,119.366694 199.608591,118.260311 C199.608591,117.153893 199.424206,116.001449 199.055399,114.802838 C198.686593,113.604262 198.041209,112.543976 197.119247,111.622013 Z" id="Path"></path>
            </g>
        </g>
    </g>
</svg>