<?xml version="1.0" encoding="UTF-8"?>
<svg width="19px" height="18px" viewBox="0 0 19 18" version="1.1" xmlns="http://www.w3.org/2000/svg" xmlns:xlink="http://www.w3.org/1999/xlink">
    <!-- Generator: Sketch 50 (54983) - http://www.bohemiancoding.com/sketch -->
    <title>Group 13 Copy</title>
    <desc>Created with Sketch.</desc>
    <defs></defs>
    <g id="Page-1" stroke="none" stroke-width="1" fill="none" fill-rule="evenodd">
        <g id="Group-13-Copy" transform="translate(0.000000, 1.000000)" fill="#00264D" stroke="#00264D" stroke-width="0.1">
            <path d="M1.57464184,14.8464108 L16.9559924,14.8464108 L16.9559924,4.61705155 L1.57464184,4.61705155 L1.57464184,14.8464108 Z M1.57464184,3.4634278 L16.9559924,3.4634278 L16.9559924,1.16861754 L1.57464184,1.16861754 L1.57464184,3.4634278 Z M0.997864507,0.0150283401 C0.679298246,0.0150283401 0.421052632,0.273273954 0.421052632,0.591840216 L0.421052632,15.4232227 C0.421052632,15.7417544 0.679298246,16 0.997864507,16 L17.5327698,16 C17.851336,16 18.1095816,15.7417544 18.1095816,15.4232227 L18.1095816,0.591840216 C18.1095816,0.273273954 17.851336,0.0150283401 17.5327698,0.0150283401 L0.997864507,0.0150283401 Z" id="Fill-1"></path>
            <path d="M8.55535762,8.87141916 L6.6672108,7.26480324 C6.42461538,7.05834494 6.06058408,7.08764157 5.85412578,7.33027152 C5.64766748,7.57290148 5.67699865,7.93693279 5.91959406,8.14339109 L7.29145695,9.31069582 L5.91959406,10.4780351 C5.6769641,10.6844934 5.64766748,11.0484901 5.85412578,11.2911201 C6.06054953,11.5337501 6.42458084,11.5630812 6.6672108,11.3566229 L8.55535762,9.75000702 C8.82586775,9.5198143 8.82586775,9.10154278 8.55535762,8.87141916" id="Fill-7"></path>
            <path d="M12.2371973,10.3404999 L9.95859001,10.3404999 C9.6400583,10.3404999 9.38177814,10.5987455 9.38177814,10.9172772 C9.38177814,11.2358435 9.6400583,11.4940891 9.95859001,11.4940891 L12.2371973,11.4940891 C12.555729,11.4940891 12.8139746,11.2358435 12.8139746,10.9172772 C12.8139746,10.5987455 12.555729,10.3404999 12.2371973,10.3404999" id="Fill-8"></path>
        </g>
    </g>
</svg>