<?xml version="1.0" encoding="UTF-8"?>
<svg width="18px" height="18px" viewBox="0 0 18 18" version="1.1" xmlns="http://www.w3.org/2000/svg" xmlns:xlink="http://www.w3.org/1999/xlink">
    <!-- Generator: Sketch 50 (54983) - http://www.bohemiancoding.com/sketch -->
    <title>icon-type-software-open--gray</title>
    <desc>Created with Sketch.</desc>
    <defs></defs>
    <g id="Page-1" stroke="none" stroke-width="1" fill="none" fill-rule="evenodd">
        <g id="icon-type-software-open--gray" transform="translate(1.000000, 1.000000)" fill="#5A6772" fill-rule="nonzero" stroke="#5A6772" stroke-width="0.4">
            <path d="M11.3579355,14.7757419 L10.0965161,10.7489032 C10.8820645,10.1646452 11.3548387,9.2428387 11.3548387,8.25806452 C11.3548387,6.55070968 9.9654194,5.16129032 8.25806452,5.16129032 C6.55070968,5.16129032 5.16129032,6.55070968 5.16129032,8.25806452 C5.16129032,9.243871 5.63406452,10.1646452 6.4196129,10.7489032 L5.15922581,14.7757419 C2.66941935,13.5989677 1.03225806,11.0451613 1.03225806,8.25806452 C1.03225806,4.27354839 4.27354839,1.03225806 8.25806452,1.03225806 C12.2415484,1.03225806 15.483871,4.27354839 15.483871,8.25806452 C15.483871,11.0451613 13.8467097,13.5989677 11.3579355,14.7757419 Z M8.25806452,0 C3.70477419,0 0,3.70477419 0,8.25806452 C0,11.6552258 2.12851613,14.7489032 5.29754839,15.9566452 C5.43070968,16.0082581 5.57832258,16.0010323 5.70632258,15.9390968 C5.83432258,15.876129 5.93135484,15.7646452 5.97367742,15.6283871 L7.52206452,10.683871 C7.5963871,10.4495484 7.49419355,10.1956129 7.27948387,10.0779355 C6.60954839,9.7073548 6.19354839,9.0105806 6.19354839,8.25806452 C6.19354839,7.11948387 7.11948387,6.19354839 8.25806452,6.19354839 C9.3966452,6.19354839 10.3225806,7.11948387 10.3225806,8.25806452 C10.3225806,9.0105806 9.9065806,9.7073548 9.2356129,10.0769032 C9.0209032,10.1956129 8.92077419,10.4485161 8.99303226,10.6828387 L10.5414194,15.6273548 C10.5847742,15.7636129 10.6818065,15.8750968 10.8098065,15.9380645 C10.8810323,15.972129 10.9574194,15.9896774 11.0348387,15.9896774 C11.0978065,15.9896774 11.1597419,15.9783226 11.2185806,15.9556129 C14.3876129,14.7489032 16.516129,11.6552258 16.516129,8.25806452 C16.516129,3.70477419 12.8113548,0 8.25806452,0 Z" id="Fill-1"></path>
        </g>
    </g>
</svg>