<?xml version="1.0" encoding="UTF-8"?>
<svg width="19px" height="18px" viewBox="0 0 19 18" version="1.1" xmlns="http://www.w3.org/2000/svg" xmlns:xlink="http://www.w3.org/1999/xlink">
    <!-- Generator: Sketch 50 (54983) - http://www.bohemiancoding.com/sketch -->
    <title>icon-type-news--gray</title>
    <desc>Created with Sketch.</desc>
    <defs></defs>
    <g id="Page-1" stroke="none" stroke-width="1" fill="none" fill-rule="evenodd">
        <g id="icon-type-news--gray" transform="translate(1.000000, 1.000000)" fill="#5A6772" fill-rule="nonzero" stroke="#FFFFFF" stroke-width="0.25">
            <path d="M16.3345187,11.6675133 C15.8969846,11.6675133 15.5263007,11.5155953 15.22246,11.2117523 C14.9186169,10.9079092 14.7666966,10.5433041 14.7666966,10.1179229 L14.7666966,6.21659811 C14.7666966,5.36583804 14.6026233,4.5637035 14.2744745,3.81017349 C13.9463234,3.05664347 13.5027198,2.3973123 12.9436476,1.83216595 C12.3845754,1.26701727 11.7282847,0.82037553 10.9747547,0.49222439 C10.2090695,0.16407324 9.4008608,0 8.55009844,0 C7.69933837,0 6.89112972,0.16407324 6.1254445,0.49222439 C5.37191448,0.82037553 4.71562386,1.26701727 4.15655162,1.83216595 C3.59747939,2.3973123 3.15387586,3.05664347 2.82572705,3.81017349 C2.4975759,4.5637035 2.33350266,5.36583804 2.33350266,6.21659811 L2.33350266,10.1179229 C2.33350266,10.5433041 2.18158347,10.9079092 1.87774043,11.2117523 C1.57389738,11.5155953 1.20321441,11.6675133 0.76568056,11.6675133 C0.53475994,11.6675133 0.34941846,11.7373971 0.20965063,11.8771645 C0.06988285,12.016932 0,12.2083516 0,12.4514255 C0,12.6823466 0.06988285,12.8676874 0.20965063,13.0074549 C0.34941846,13.1472224 0.53475994,13.2171061 0.76568056,13.2171061 L16.3345187,13.2171061 C16.5654397,13.2171061 16.7507805,13.1472224 16.890548,13.0074549 C17.0303155,12.8676874 17.1001992,12.6823466 17.1001992,12.4514255 C17.1001992,12.2083516 17.0303155,12.016932 16.890548,11.8771645 C16.7507805,11.7373971 16.5654397,11.6675133 16.3345187,11.6675133 Z M3.500254,11.6675133 C3.60963693,11.4365946 3.70078822,11.1874465 3.77371251,10.9200644 C3.84663447,10.6526823 3.88309311,10.3853049 3.88309311,10.1179229 L3.88309311,6.21659811 C3.88309311,5.58460392 4.00462893,4.98300359 4.2477029,4.41178081 C4.49077921,3.84055569 4.82499979,3.34529775 5.250381,2.92599533 C5.6757622,2.50669057 6.17405602,2.1755082 6.74528114,1.93243423 C7.30435338,1.67720504 7.90595137,1.54959278 8.55009844,1.54959278 C9.1942479,1.54959278 9.7958458,1.67720504 10.3549181,1.93243423 C10.9261432,2.1755082 11.424437,2.50669057 11.8498182,2.92599533 C12.2751994,3.34529775 12.60942,3.84055569 12.852494,4.41178081 C13.0955703,4.98300359 13.2171038,5.58460392 13.2171038,6.21659811 L13.2171038,10.1179229 C13.2171038,10.3853049 13.2535647,10.6526823 13.326489,10.9200644 C13.399411,11.1874465 13.4905623,11.4365946 13.5999452,11.6675133 L3.500254,11.6675133 Z M10.2955544,13.7394193 C10.1010943,13.6178811 9.9005601,13.5905372 9.6939471,13.6573827 C9.4873341,13.7242275 9.3232608,13.854878 9.201725,14.0493376 C9.0923398,14.243797 8.93130707,14.3622942 8.71861531,14.404832 C8.50592587,14.4473702 8.30235343,14.4321784 8.10789566,14.3592559 C8.03497136,14.3227947 7.97724284,14.2802573 7.93470542,14.2316425 C7.89216567,14.1830277 7.84659003,14.12226 7.79797617,14.0493376 C7.68859323,13.854878 7.53059643,13.7363811 7.32398344,13.6938432 C7.11737045,13.6513039 6.91683623,13.6664973 6.72237845,13.7394193 C6.52791834,13.8609565 6.40638252,14.0250293 6.35776866,14.2316425 C6.30915246,14.4382557 6.32738179,14.6387893 6.41245896,14.8332487 C6.5218419,15.0277081 6.6403395,15.1887426 6.76795409,15.3163565 C6.89556868,15.4439707 7.05660137,15.5685445 7.25106148,15.6900817 C7.44552159,15.7994652 7.63997703,15.8784632 7.83443715,15.927078 C8.02889726,15.9756929 8.2233527,16 8.41781281,16 C8.8067307,16 9.183491,15.9027717 9.5481032,15.7083122 C9.9127153,15.5138528 10.2104772,15.2221677 10.4413983,14.8332487 C10.6358561,14.6387893 10.7087781,14.4382557 10.6601642,14.2316425 C10.611548,14.0250293 10.4900122,13.8609565 10.2955544,13.7394193 Z" id="Fill-1"></path>
        </g>
    </g>
</svg>