<?xml version="1.0" encoding="UTF-8"?>
<svg width="17px" height="17px" viewBox="0 0 17 17" version="1.1" xmlns="http://www.w3.org/2000/svg" xmlns:xlink="http://www.w3.org/1999/xlink">
    <!-- Generator: Sketch 50 (54983) - http://www.bohemiancoding.com/sketch -->
    <title>Group 15 Copy</title>
    <desc>Created with Sketch.</desc>
    <defs></defs>
    <g id="Page-1" stroke="none" stroke-width="1" fill="none" fill-rule="evenodd">
        <g id="Group-15-Copy" fill="#00264D">
            <path d="M2.2244195,4.60448364 L8.48983081,7.73715615 L14.755209,4.60448364 L8.48983081,1.47177798 L2.2244195,4.60448364 Z M8.48983081,9.18878383 C8.38478207,9.18878383 8.27979962,9.16465907 8.18330059,9.1164427 L0.385370769,5.21751093 C0.153169989,5.1014271 0.00649942391,4.86408987 0.00649942391,4.60448364 C0.00649942391,4.3448774 0.153169989,4.1075733 0.385370769,3.99145634 L8.18330059,0.0924914324 C8.37623237,-0.00397445457 8.60332983,-0.00397445457 8.79629475,0.0924914324 L16.5942246,3.99145634 C16.8263922,4.10754017 16.9730959,4.3448774 16.9730959,4.60448364 C16.9730959,4.86408987 16.8264253,5.10139397 16.5942246,5.21751093 L8.79629475,9.1164427 C8.699862,9.16465907 8.59481326,9.18878383 8.48983081,9.18878383 Z" id="Fill-1"></path>
            <path d="M8.48983081,16.9867137 C8.38478207,16.9867137 8.27979962,16.9625889 8.18330059,16.9143725 L0.385370769,13.0154076 C0.0468288586,12.8461035 -0.0904304007,12.4344252 0.0788736929,12.0958832 C0.248144648,11.7573745 0.659856149,11.6201152 0.998398059,11.789353 L8.48983081,15.5350528 L15.9812304,11.7893862 C16.3197723,11.6201815 16.731517,11.7573745 16.9007879,12.0958832 C17.0700589,12.4344252 16.9328328,12.8461367 16.5942577,13.0154408 L8.79632788,16.9144057 C8.699862,16.9625889 8.59481326,16.9867137 8.48983081,16.9867137" id="Fill-3"></path>
            <path d="M8.18330059,13.0154076 L0.385370769,9.1164427 C0.0468288586,8.94713861 -0.0904304007,8.53549338 0.0788736929,8.19691833 C0.248144648,7.85837642 0.659856149,7.7211503 0.998398059,7.89042126 L8.48983081,11.6360879 L15.9812304,7.89042126 C16.3197723,7.7211503 16.731517,7.85837642 16.9007879,8.19691833 C17.0700589,8.53546024 16.9328328,8.94717174 16.5942577,9.1164427 L8.79632788,13.0154076 C8.699862,13.063624 8.59481326,13.0877487 8.48983081,13.0877487 C8.38478207,13.0877487 8.27979962,13.063624 8.18330059,13.0154076 Z" id="Fill-4"></path>
        </g>
    </g>
</svg>