<?xml version="1.0" encoding="UTF-8"?>
<svg width="27px" height="26px" viewBox="0 0 27 26" version="1.1" xmlns="http://www.w3.org/2000/svg" xmlns:xlink="http://www.w3.org/1999/xlink">
    <!-- Generator: Sketch 50.2 (55047) - http://www.bohemiancoding.com/sketch -->
    <title>it-info</title>
    <desc>Created with Sketch.</desc>
    <defs></defs>
    <g id="Icons" stroke="none" stroke-width="1" fill="none" fill-rule="evenodd">
        <g id="it-info" transform="translate(0.592432, 1.000000)">
            <circle id="Oval-6" stroke="#0066CC" stroke-width="2" cx="12.8857547" cy="12" r="12"></circle>
            <path d="M9.44044222,8.546875 L14.0420047,8.546875 L14.0420047,15.234375 L16.3310672,15.234375 L16.3310672,17 L9.44044222,17 L9.44044222,15.234375 L11.8466922,15.234375 L11.8466922,10.3203125 L9.44044222,10.3203125 L9.44044222,8.546875 Z M11.6904422,6.3828125 C11.6904422,6.216145 11.7203898,6.06119863 11.780286,5.91796875 C11.8401821,5.77473887 11.9248167,5.65234426 12.0341922,5.55078125 C12.1435678,5.44921824 12.2750769,5.36979195 12.4287235,5.3125 C12.5823701,5.25520805 12.7529413,5.2265625 12.9404422,5.2265625 C13.3258608,5.2265625 13.6318473,5.33463434 13.858411,5.55078125 C14.0849746,5.76692816 14.1982547,6.04426914 14.1982547,6.3828125 C14.1982547,6.72135586 14.0849746,6.99869684 13.858411,7.21484375 C13.6318473,7.43099066 13.3258608,7.5390625 12.9404422,7.5390625 C12.7529413,7.5390625 12.5823701,7.51041695 12.4287235,7.453125 C12.2750769,7.39583305 12.1435678,7.31640676 12.0341922,7.21484375 C11.9248167,7.11328074 11.8401821,6.99088613 11.780286,6.84765625 C11.7203898,6.70442637 11.6904422,6.54948 11.6904422,6.3828125 Z" id="i" fill="#0066CC"></path>
        </g>
    </g>
</svg>