<?xml version="1.0" encoding="UTF-8"?>
<svg width="22px" height="30px" viewBox="0 0 22 30" version="1.1" xmlns="http://www.w3.org/2000/svg" xmlns:xlink="http://www.w3.org/1999/xlink">
    <!-- Generator: Sketch 50.2 (55047) - http://www.bohemiancoding.com/sketch -->
    <title>it-roadmap</title>
    <desc>Created with Sketch.</desc>
    <defs></defs>
    <g id="Icons" stroke="none" stroke-width="1" fill="none" fill-rule="evenodd">
        <path d="M9.49638725,20.5092593 L6.41768147,23.7824095 L6.41768147,23.8148148 L16.7880518,23.8148148 L16.7880518,24.8518519 L5.38064444,24.8518519 L5.38064444,16.5555556 L6.41768147,16.5555556 L6.41768147,22.2592593 L9.43156829,19.0185185 L11.700091,21.1574074 L15.0380518,17.5925926 L13.6769407,17.5925926 L13.6769407,16.5555556 L16.7880518,16.5555556 L16.7880518,19.6666667 L15.7510148,19.6666667 L15.7510148,18.337965 L11.7649016,22.6157428 L9.49638725,20.5092593 Z M14.1954593,1 L14.7139778,1 L20.9362,8.25925926 L20.9362,26.9259259 C20.9362,27.5092622 20.7363547,28.0007696 20.336664,28.4004632 C19.9369692,28.8001563 19.4454634,29 18.8621259,29 L3.30657036,29 C2.72323413,29 2.23172669,28.7947551 1.83203312,28.3842593 C1.43233996,27.9737635 1.23249629,27.4876569 1.23249629,26.9259259 L1.23249629,3.07407407 C1.23249629,2.5123443 1.43774114,2.02623526 1.84823703,1.61574281 C2.25873279,1.20524622 2.74483934,1 3.30657036,1 L14.1954593,1 Z M13.6769407,2.03703704 L3.30657036,2.03703704 C3.02570464,2.03703704 2.78265178,2.13965807 2.5774039,2.34490844 C2.37215561,2.55015467 2.26953333,2.79320711 2.26953333,3.07407407 L2.26953333,26.9259259 C2.26953333,27.2067916 2.37215561,27.4498445 2.5774039,27.6550924 C2.78265178,27.8603407 3.02570464,27.962963 3.30657036,27.962963 L18.8621259,27.962963 C19.1429929,27.962963 19.3860453,27.8603407 19.5912915,27.6550924 C19.7965419,27.4498445 19.899163,27.2067916 19.899163,26.9259259 L19.899163,9.2962963 L15.7510148,9.2962963 C15.1676773,9.2962963 14.6761715,9.09645096 14.2764767,8.6967603 C13.8767861,8.29706548 13.6769407,7.8055597 13.6769407,7.22222222 L13.6769407,2.03703704 Z M14.7139778,2.55555556 L14.7139778,7.22222222 C14.7139778,7.50308919 14.8165988,7.74614163 15.0218492,7.95138785 C15.2270954,8.15663822 15.4701478,8.25925926 15.7510148,8.25925926 L19.5750889,8.25925926 L14.7139778,2.55555556 Z" id="it-roadmap" stroke="#0066CC" stroke-width="0.6" fill="#0066CC"></path>
    </g>
</svg>