<?xml version="1.0" encoding="UTF-8"?>
<svg width="21px" height="20px" viewBox="0 0 21 20" version="1.1" xmlns="http://www.w3.org/2000/svg" xmlns:xlink="http://www.w3.org/1999/xlink">
    <!-- Generator: Sketch 50.2 (55047) - http://www.bohemiancoding.com/sketch -->
    <title>it-show-more</title>
    <desc>Created with Sketch.</desc>
    <defs></defs>
    <g id="Icons" stroke="none" stroke-width="1" fill="none" fill-rule="evenodd">
        <path d="M10.8799679,0 C9.4997529,0 8.2009379,0.260415 6.9834829,0.78125 C5.7660304,1.302085 4.7048429,2.01497 3.7998904,2.9199225 C2.8949374,3.824875 2.1820539,4.8860625 1.6612179,6.103515 C1.1403819,7.32097 0.879967899,8.619785 0.879967899,10 C0.879967899,11.380215 1.1403819,12.67903 1.6612179,13.896485 C2.1820539,15.1139375 2.8949374,16.175125 3.7998904,17.0800775 C4.7048429,17.9850305 5.7660304,18.697914 6.9834829,19.21875 C8.2009379,19.739586 9.4997529,20 10.8799679,20 C12.2601829,20 13.5589979,19.739586 14.7764529,19.21875 C15.9939054,18.697914 17.0550929,17.9850305 17.9600454,17.0800775 C18.8649979,16.175125 19.5778829,15.1139375 20.0987179,13.896485 C20.6195529,12.67903 20.8799679,11.380215 20.8799679,10 C20.8799679,8.619785 20.6195529,7.32097 20.0987179,6.103515 C19.5778829,4.8860625 18.8649979,3.824875 17.9600454,2.9199225 C17.0550929,2.01497 15.9939054,1.302085 14.7764529,0.78125 C13.5589979,0.260415 12.2601829,0 10.8799679,0 Z M10.8799679,18.75 C9.6690254,18.75 8.5329679,18.5221377 7.4717654,18.0664062 C6.4105604,17.6106748 5.4828354,16.98568 4.6885629,16.191405 C3.8942879,15.3971325 3.26929315,14.4694075 2.81356165,13.4082025 C2.35783015,12.347 2.1299679,11.2109425 2.1299679,10 C2.1299679,8.7890575 2.35783015,7.653 2.81356165,6.5917975 C3.26929315,5.5305925 3.8942879,4.6028675 4.6885629,3.808595 C5.4828354,3.01432 6.4105604,2.389325 7.4717654,1.933595 C8.5329679,1.4778625 9.6690254,1.25 10.8799679,1.25 C12.0909104,1.25 13.2269679,1.4778625 14.2881704,1.933595 C15.3493754,2.389325 16.2771004,3.01432 17.0713729,3.808595 C17.8656479,4.6028675 18.4906429,5.5305925 18.9463729,6.5917975 C19.4021054,7.653 19.6299679,8.7890575 19.6299679,10 C19.6299679,11.2109425 19.4021054,12.347 18.9463729,13.4082025 C18.4906429,14.4694075 17.8656479,15.3971325 17.0713729,16.191405 C16.2771004,16.98568 15.3493754,17.6106748 14.2881704,18.0664062 C13.2269679,18.5221377 12.0909104,18.75 10.8799679,18.75 Z M14.6299679,9.375 L11.5049679,9.375 L11.5049679,6.25 C11.5049679,6.0807275 11.4431204,5.934245 11.3194204,5.8105475 C11.1957229,5.6868475 11.0492404,5.625 10.8799679,5.625 C10.7106954,5.625 10.5642129,5.6868475 10.4405154,5.8105475 C10.3168154,5.934245 10.2549679,6.0807275 10.2549679,6.25 L10.2549679,9.375 L7.1299679,9.375 C6.9606954,9.375 6.8142129,9.4368475 6.6905154,9.5605475 C6.5668154,9.684245 6.5049679,9.8307275 6.5049679,10 C6.5049679,10.1692725 6.5668154,10.315755 6.6905154,10.4394525 C6.8142129,10.5631525 6.9606954,10.625 7.1299679,10.625 L10.2549679,10.625 L10.2549679,13.75 C10.2549679,13.9192725 10.3168154,14.065755 10.4405154,14.1894525 C10.5642129,14.3131525 10.7106954,14.375 10.8799679,14.375 C11.0492404,14.375 11.1957229,14.3131525 11.3194204,14.1894525 C11.4431204,14.065755 11.5049679,13.9192725 11.5049679,13.75 L11.5049679,10.625 L14.6299679,10.625 C14.7992404,10.625 14.9457229,10.5631525 15.0694204,10.4394525 C15.1931204,10.315755 15.2549679,10.1692725 15.2549679,10 C15.2549679,9.8307275 15.1931204,9.684245 15.0694204,9.5605475 C14.9457229,9.4368475 14.7992404,9.375 14.6299679,9.375 Z" id="it-show-more" fill="#0066CC"></path>
    </g>
</svg>