<?xml version="1.0" encoding="UTF-8" standalone="no"?>
<svg width="88px" height="102px" viewBox="0 0 88 102" version="1.1" xmlns="http://www.w3.org/2000/svg" xmlns:xlink="http://www.w3.org/1999/xlink">
    <!-- Generator: Sketch 42 (36781) - http://www.bohemiancoding.com/sketch -->
    <title>decorative/outlined/github</title>
    <desc>Created with Sketch.</desc>
    <defs>
        <path d="M69.4500557,38.8368415 C69.6861216,37.3340983 69.8333969,35.6864029 69.8704816,33.8387963 C69.8562592,25.9164327 66.0865159,23.1131306 65.3611717,21.7989324 C66.4294494,15.7962503 65.1842552,13.0658256 64.6051229,12.1311241 C62.469099,11.3683864 57.1735674,14.0997471 54.2801656,16.0225042 C49.562703,14.6332891 39.5933066,14.768881 35.8546666,16.3820768 C28.956652,11.4130488 25.3082647,12.1707052 25.3082647,12.1707052 C25.3082647,12.1707052 22.9495998,16.4256694 24.6847371,22.6504601 C22.4151286,25.5600694 20.7234562,27.6172149 20.7234562,33.0737853 C20.7234562,34.3806289 20.8041386,35.6155314 20.9410462,36.8036318 C22.8956343,47.1425798 31.0389762,51.6029377 39.0380999,52.372094 C37.8343766,53.29222 36.3892707,55.0335193 36.1893591,57.0512174 C34.6768628,58.034994 31.6344576,58.3602006 29.2686151,57.6119046 C25.953724,56.5581925 24.6847371,49.9543062 19.720575,50.8963622 C18.6464488,51.0985465 18.8599182,51.8112731 19.7900922,52.4188959 C21.3024556,53.4057481 22.726826,54.6324936 23.8247449,57.2575471 C24.6679892,59.272972 26.4415403,62.871372 32.0489021,62.871372 C34.2749128,62.871372 35.834064,62.6067405 35.834064,62.6067405 C35.834064,62.6067405 35.8764655,67.7423834 35.8764655,69.7453723 C35.8764655,72.0504344 32.7842154,72.6976382 32.7842154,73.803501 C32.7842154,74.2433055 33.8076991,74.285026 34.6302079,74.285026 C36.2556862,74.285026 39.6377019,72.9229561 39.6377019,70.5270983 C39.6377019,68.6233295 39.6678747,62.2256391 39.6678747,61.1052008 C39.6678747,58.6571923 40.9719525,57.8777396 40.9719525,57.8777396 C40.9719525,57.8777396 41.1315894,70.945775 40.6581285,72.6977719 C40.1029217,74.7581267 39.0971163,74.4654141 39.0971163,75.3823308 C39.0971163,76.7506855 43.1630053,75.7168977 44.5116113,72.7217078 C45.5549001,70.3822798 45.0876864,57.5671084 45.0876864,57.5671084 L46.1753705,57.5433063 C46.1753705,57.5433063 46.187865,63.4125361 46.1503815,66.0938856 C46.1111702,68.8711123 45.8263227,72.3820595 47.4660234,74.0391153 C48.5422764,75.1289317 51.8394891,77.0412587 51.8394891,75.2936745 C51.8394891,74.2808807 49.5305363,73.4439285 49.5305363,70.699998 L49.5305363,58.0597322 C50.9332408,58.0597322 51.2231392,62.214674 51.2231392,62.214674 L51.7287668,69.9339173 C51.7287668,69.9339173 51.3930109,72.750725 54.7534936,73.9262558 C55.9398043,74.3442639 58.4776453,74.4579258 58.5966086,73.7562979 C58.7158378,73.0529318 55.5407786,72.0128591 55.5106057,69.8326914 C55.4942566,68.5048537 55.5697551,67.7276742 55.5697551,61.9520483 C55.5697551,56.1796317 54.7989522,54.0442602 52.1129055,52.3425419 C59.9021486,51.538351 67.9925883,48.0387699 69.4500557,38.8368415 Z" id="path-1"></path>
        <filter x="-50%" y="-50%" width="200%" height="200%" filterUnits="objectBoundingBox" id="filter-2">
            <feOffset dx="0" dy="10" in="SourceAlpha" result="shadowOffsetOuter1"></feOffset>
            <feGaussianBlur stdDeviation="10" in="shadowOffsetOuter1" result="shadowBlurOuter1"></feGaussianBlur>
            <feColorMatrix values="0 0 0 0 0   0 0 0 0 0   0 0 0 0 0  0 0 0 0.2 0" type="matrix" in="shadowBlurOuter1"></feColorMatrix>
        </filter>
    </defs>
    <g id="-home" stroke="none" stroke-width="1" fill="none" fill-rule="evenodd">
        <g id="1024up---home" transform="translate(-521.000000, -1867.000000)">
            <g id="decorative/outlined/github" transform="translate(520.000000, 1864.000000)">
                <g>
                    <rect id="Rectangle-2" x="0" y="0" width="88" height="88"></rect>
                    <g id="Shape" fill-rule="nonzero">
                        <use fill="black" fill-opacity="1" filter="url(#filter-2)" xlink:href="#path-1"></use>
                        <use fill="#06c" fill-rule="evenodd" xlink:href="#path-1"></use>
                    </g>
                </g>
            </g>
        </g>
    </g>
</svg>
