<?xml version="1.0" encoding="UTF-8" standalone="no"?>
<svg width="102px" height="104px" viewBox="0 0 102 104" version="1.1" xmlns="http://www.w3.org/2000/svg" xmlns:xlink="http://www.w3.org/1999/xlink">
    <!-- Generator: Sketch 42 (36781) - http://www.bohemiancoding.com/sketch -->
    <title>decorative/outlined/discourse</title>
    <desc>Created with Sketch.</desc>
    <defs>
        <path d="M29.3895221,72.5040727 L12,75.9923589 L15.4789506,58.5456815 C13.254647,54.1815951 12,49.2377542 12,44 C12,26.326888 26.2842485,12 43.9047619,12 C61.5252754,12 75.8095238,26.326888 75.8095238,44 C75.8095238,61.673112 61.5252754,76 43.9047619,76 C38.6774552,76 33.7437642,74.7391288 29.3895221,72.5040727 Z M30.2291159,48.5670623 C32.7460315,48.5670623 34.7863948,46.5206083 34.7863948,43.9961795 C34.7863948,41.4717506 32.7460315,39.4252967 30.2291159,39.4252967 C27.7122002,39.4252967 25.6718369,41.4717506 25.6718369,43.9961795 C25.6718369,46.5206083 27.7122002,48.5670623 30.2291159,48.5670623 Z M43.9009527,48.5670623 C46.4178684,48.5670623 48.4582317,46.5206083 48.4582317,43.9961795 C48.4582317,41.4717506 46.4178684,39.4252967 43.9009527,39.4252967 C41.3840371,39.4252967 39.3436738,41.4717506 39.3436738,43.9961795 C39.3436738,46.5206083 41.3840371,48.5670623 43.9009527,48.5670623 Z M57.5727896,48.5670623 C60.0897053,48.5670623 62.1300686,46.5206083 62.1300686,43.9961795 C62.1300686,41.4717506 60.0897053,39.4252967 57.5727896,39.4252967 C55.055874,39.4252967 53.0155107,41.4717506 53.0155107,43.9961795 C53.0155107,46.5206083 55.055874,48.5670623 57.5727896,48.5670623 Z" id="path-1"></path>
        <filter x="-50%" y="-50%" width="200%" height="200%" filterUnits="objectBoundingBox" id="filter-2">
            <feOffset dx="0" dy="10" in="SourceAlpha" result="shadowOffsetOuter1"></feOffset>
            <feGaussianBlur stdDeviation="10" in="shadowOffsetOuter1" result="shadowBlurOuter1"></feGaussianBlur>
            <feColorMatrix values="0 0 0 0 0   0 0 0 0 0   0 0 0 0 0  0 0 0 0.2 0" type="matrix" in="shadowBlurOuter1"></feColorMatrix>
        </filter>
    </defs>
    <g id="-home" stroke="none" stroke-width="1" fill="none" fill-rule="evenodd">
        <g id="1024up---home" transform="translate(-513.000000, -1998.000000)">
            <g id="decorative/outlined/discourse" transform="translate(520.000000, 1996.000000)">
                <g>
                    <rect id="Rectangle-2" x="0" y="0" width="88" height="88"></rect>
                    <g id="Combined-Shape">
                        <use fill="black" fill-opacity="1" filter="url(#filter-2)" xlink:href="#path-1"></use>
                        <use fill="#06c" fill-rule="evenodd" xlink:href="#path-1"></use>
                    </g>
                </g>
            </g>
        </g>
    </g>
</svg>
