<?xml version="1.0" encoding="UTF-8" standalone="no"?>
<svg width="103px" height="103px" viewBox="0 0 103 103" version="1.1" xmlns="http://www.w3.org/2000/svg" xmlns:xlink="http://www.w3.org/1999/xlink">
    <!-- Generator: Sketch 42 (36781) - http://www.bohemiancoding.com/sketch -->
    <title>decorative/outlined/api</title>
    <desc>Created with Sketch.</desc>
    <defs>
        <path d="M15.1747517,34.9752208 L12.5280387,34.6681805 C11.6548737,34.5658565 11,33.8291236 11,32.9559586 L11,28.8834628 C11,28.0102978 11.6548737,27.2735649 12.5280387,27.1712409 L15.0383879,26.8847336 C15.3521815,25.629559 15.8296936,24.4221356 16.4572809,23.2897499 L14.8883126,21.3046639 C14.3425845,20.6156822 14.3971574,19.6333717 15.0179231,19.012606 L17.8966387,16.1338903 C18.5174044,15.5199462 19.499715,15.4585518 20.1886967,16.0042799 L22.064637,17.4913889 C23.2652388,16.7751208 24.5545214,16.2293927 25.9051984,15.8678478 L26.1780625,13.5280387 C26.2803865,12.6548737 27.0171194,12 27.8902844,12 L31.9627802,12 C32.8359452,12 33.5726781,12.6548737 33.6750021,13.5280387 L33.9478662,15.8678478 C35.264367,16.2225711 36.5196098,16.7478344 37.6929252,17.4368161 L39.5006495,16.0042799 C40.1896312,15.4585518 41.1719418,15.5131246 41.7927075,16.1338903 L44.6646015,19.0057844 C45.2785456,19.6265501 45.33994,20.6088606 44.794212,21.2978423 L43.3207461,23.1601394 C43.9482652,24.278882 44.4393523,25.4726622 44.7668573,26.7210152 L47.1612393,27.0007009 C48.0344043,27.1030249 48.689278,27.8397578 48.689278,28.7129227 L48.689278,32.7854186 C48.689278,33.6585836 48.0344725,34.3953165 47.1612393,34.4976405 L44.7327493,34.7773261 C44.3916693,36.0393224 43.8800492,37.2466775 43.2251755,38.3791315 L44.8009653,40.3778607 C45.3466934,41.0668424 45.2921206,42.0491529 44.6713549,42.6699186 L41.7926392,45.5486343 C41.1718735,46.1625784 40.189563,46.2239728 39.5005813,45.6782447 L37.4745657,44.0751685 C36.3217151,44.7232206 35.0938269,45.2211975 33.8113659,45.5554559 L33.5112155,48.1544859 C33.4088915,49.0275827 32.6721585,49.6825246 31.7989936,49.6825246 L27.7264977,49.6825246 C26.8533328,49.6825246 26.1165999,49.0276509 26.0142759,48.1544859 L25.7004822,45.4599535 C24.506702,45.1188734 23.360673,44.634608 22.28286,44.0137741 L20.1886285,45.6714231 C19.4996468,46.2171512 18.5173362,46.1626466 17.8965705,45.5418809 L15.0178548,42.6631653 C14.4039107,42.0423996 14.3425163,41.060089 14.8882444,40.3711073 L16.5595367,38.2632325 C15.972879,37.2263492 15.5090101,36.1212498 15.1747517,34.9752208 Z M29.9298749,23.958335 C26.2189239,23.958335 23.1969546,26.9803043 23.1969546,30.6912553 C23.1969546,34.4022063 26.2189921,37.4241756 29.9298749,37.4241756 C33.6408259,37.4241756 36.6627952,34.4022063 36.6627952,30.6912553 C36.6627952,26.9803043 33.6408259,23.958335 29.9298749,23.958335 Z M72.1908965,35.9779962 C72.85266,36.5373674 72.989092,37.5060348 72.4978685,38.2289881 L71.5633774,39.6342379 C72.1567885,40.5074711 72.6343006,41.4487838 72.989092,42.4447376 L74.7013139,42.4993104 C75.5676573,42.5265968 76.2702822,43.2019353 76.3453198,44.0614571 L76.5840758,46.8651351 C76.6522918,47.7247251 76.0656342,48.5092092 75.2197556,48.6797492 L73.5143553,49.0276509 C73.3234869,50.0782457 72.9891603,51.1014858 72.5320448,52.0701532 L73.780466,53.3934756 C74.3738771,54.0210629 74.4011635,54.9965519 73.8418604,55.6582472 L72.0273145,57.8070515 C71.467875,58.4687468 70.5060975,58.6051789 69.7830077,58.1276668 L68.2344361,57.1044266 C67.3408063,57.7114809 66.3722072,58.2026362 65.348967,58.564181 L65.2875726,60.4470112 C65.2602862,61.3134227 64.5849477,62.0159794 63.7254259,62.091017 L60.9217479,62.3297731 C60.0622261,62.3979891 59.277742,61.8113314 59.107202,60.9654528 L58.7183025,59.0417613 C57.7223487,58.8507565 56.7537496,58.5301412 55.8328334,58.1003804 L54.4275836,59.4169494 C53.7999281,60.0104287 52.8245073,60.0377151 52.1627438,59.4783438 L50.0139395,57.6637979 C49.3523124,57.1044266 49.2158804,56.1425809 49.6933924,55.4194911 L50.7643156,53.8027717 C50.2118341,52.9910694 49.7548551,52.1246578 49.406817,51.2105632 L47.4899471,51.1492371 C46.6236037,51.1219506 45.9209788,50.4466121 45.8459412,49.5870904 L45.6071851,46.7834123 C45.5389691,45.9238224 46.1256268,45.1393382 46.9715054,44.9687982 L48.7451217,44.6072534 C48.9224151,43.5636166 49.2293871,42.5471298 49.6592162,41.5784625 L48.4176166,40.2551401 C47.8242055,39.6275528 47.7969191,38.6520638 48.3563586,37.9903685 L50.1709045,35.8279209 C50.7302076,35.1662256 51.6919851,35.0297936 52.4152113,35.5073057 L53.8340361,36.4486866 C54.7617738,35.7801697 55.7781924,35.2480848 56.8560736,34.8592536 L56.9105782,33.1947829 C56.9378646,32.3284396 57.6132031,31.6258146 58.4727249,31.550777 L61.2764029,31.312021 C62.1360611,31.243805 62.9205452,31.8304627 63.0910852,32.6763412 L63.4252073,34.3135255 C64.5235533,34.5113519 65.587723,34.852432 66.5904302,35.3367657 L67.7773888,34.2248447 C68.4049079,33.6313654 69.3804651,33.604079 70.0420921,34.1634503 L72.1908965,35.9779962 Z M61.6243728,52.1860522 C64.6530273,51.9337212 66.9111137,49.2596535 66.6518246,46.2307944 C66.3994936,43.2020717 63.7252895,40.9440536 60.6964986,41.2032744 C57.6678441,41.4556736 55.4097577,44.1298095 55.6690468,47.1586004 C55.9213778,50.1873231 58.5955819,52.4453413 61.6243728,52.1860522 Z M24.9842141,61.7154266 L26.1779261,61.5926378 C26.3962173,60.7535127 26.7304758,59.9554536 27.153415,59.2050774 L26.4235037,58.2636283 C25.8914188,57.5747148 25.9596348,56.6059792 26.5804005,55.9989249 L27.8219319,54.7846117 C28.4426976,54.1775574 29.4114332,54.1365596 30.0867717,54.6822877 L30.9394719,55.378091 C31.7444208,54.9142903 32.6107641,54.5594989 33.5111473,54.3276326 L33.6475793,53.2633946 C33.7567931,52.4038729 34.493526,51.7626424 35.3598694,51.7762856 L37.0857345,51.7967504 C37.952146,51.803572 38.6751675,52.4651991 38.7638483,53.3247891 L38.8730622,54.3957804 C39.7461589,54.6413581 40.5784625,55.0029029 41.3560568,55.4735934 L42.1815387,54.8391845 C42.8704522,54.3070314 43.839256,54.3752474 44.4463785,54.9960813 L45.6537337,56.2307911 C46.2608562,56.8515568 46.3017858,57.8202242 45.7560577,58.4955627 L45.067076,59.3414412 C45.4763721,60.0918174 45.7900975,60.8967663 46.0015671,61.7290016 L47.1067347,61.8722553 C47.9662565,61.9814009 48.607487,62.718202 48.5937756,63.5844771 L48.573379,65.3104104 C48.5664892,66.1767538 47.9048621,66.8998435 47.0453403,66.9885243 L45.9129545,67.1044915 C45.6741985,67.9435485 45.3262286,68.7416758 44.876003,69.4920519 L45.6060507,70.4403227 C46.1380674,71.1293044 46.0698514,72.09804 45.4490857,72.7050943 L44.2143759,73.9125177 C43.5936102,74.5196402 42.6248746,74.5605698 41.9495361,74.0148417 L40.9945119,73.2440008 C40.2169176,73.66694 39.3983255,73.9874871 38.5387355,74.1990249 L38.3818387,75.4405563 C38.2726931,76.3000781 37.5358919,76.9413086 36.6696168,76.9276654 L34.9436835,76.9072006 C34.0773402,76.900379 33.3542504,76.2386836 33.2655696,75.3791619 L33.1291376,74.0694145 C32.3379001,73.8375483 31.5806342,73.5032216 30.864366,73.0802823 L29.8480157,73.8647665 C29.159034,74.3968513 28.1903666,74.3286353 27.5832441,73.7078696 L26.3758207,72.4731598 C25.7686982,71.8523941 25.7277686,70.8836586 26.2734967,70.2083883 L27.0920888,69.1987913 C26.7032576,68.502988 26.4031071,67.7662551 26.1916375,66.9953459 L24.9228197,66.8316957 C24.0632979,66.7224819 23.4220674,65.9857489 23.4357106,65.1194056 L23.4561754,63.3935405 C23.462997,62.527129 24.1246923,61.8041075 24.9842141,61.7154266 Z M36.1238887,59.7643805 C33.6476475,59.7371623 31.6079888,61.7222482 31.5806342,64.1984212 C31.553416,66.6747307 33.5384337,68.7143894 36.0146749,68.7416758 C38.4909161,68.768894 40.530643,66.7838763 40.5579294,64.3076351 C40.5851476,61.8313939 38.6001299,59.7916669 36.1238887,59.7643805 Z" id="path-1"></path>
        <filter x="-50%" y="-50%" width="200%" height="200%" filterUnits="objectBoundingBox" id="filter-2">
            <feOffset dx="0" dy="10" in="SourceAlpha" result="shadowOffsetOuter1"></feOffset>
            <feGaussianBlur stdDeviation="10" in="shadowOffsetOuter1" result="shadowBlurOuter1"></feGaussianBlur>
            <feColorMatrix values="0 0 0 0 0   0 0 0 0 0   0 0 0 0 0  0 0 0 0.2 0" type="matrix" in="shadowBlurOuter1"></feColorMatrix>
        </filter>
    </defs>
    <g id="-home" stroke="none" stroke-width="1" fill="none" fill-rule="evenodd">
        <g id="1024up---home" transform="translate(-512.000000, -2246.000000)">
            <g id="decorative/outlined/api" transform="translate(520.000000, 2243.000000)">
                <g>
                    <rect id="Rectangle-2" x="0" y="0" width="88" height="88"></rect>
                    <g id="Combined-Shape" fill-rule="nonzero">
                        <use fill="black" fill-opacity="1" filter="url(#filter-2)" xlink:href="#path-1"></use>
                        <use fill="#06c" fill-rule="evenodd" xlink:href="#path-1"></use>
                    </g>
                </g>
            </g>
        </g>
    </g>
</svg>
