<?xml version="1.0" encoding="utf-8"?>
<!-- Generated by IcoMoon.io -->
<!DOCTYPE svg PUBLIC "-//W3C//DTD SVG 1.1//EN" "http://www.w3.org/Graphics/SVG/1.1/DTD/svg11.dtd">
<svg version="1.1" xmlns="http://www.w3.org/2000/svg" xmlns:xlink="http://www.w3.org/1999/xlink" width="32" height="32" viewBox="0 0 32 32">
<path d="M16 1.6c8 0 14.4 6.4 14.4 14.4s-6.4 14.4-14.4 14.4-14.4-6.4-14.4-14.4 6.4-14.4 14.4-14.4zM16 0c-8.8 0-16 7.2-16 16s7.2 16 16 16 16-7.2 16-16-7.2-16-16-16v0z"></path>
<path d="M14.4 24c0-0.96 0.64-1.6 1.6-1.6s1.6 0.64 1.6 1.6c0 0.96-0.64 1.6-1.6 1.6s-1.6-0.64-1.6-1.6z"></path>
<path d="M15.040 20.8l-0.32-14.4h2.56l-0.32 14.4z"></path>
</svg>
