<?xml version="1.0" encoding="UTF-8"?>
<svg width="533px" height="115px" viewBox="0 0 533 115" version="1.1" xmlns="http://www.w3.org/2000/svg">
    <title>Forum Logo</title>
    <g stroke="none" stroke-width="1" fill="none" fill-rule="evenodd">
        <g transform="translate(0.000000, -32.000000)" fill="#06C">
            <g transform="translate(0.000000, 32.000000)">
                <path d="M52.245345,112.803547 L52.245345,24.6316508 L77.0536691,24.6316508 L77.0536691,112.960436 L52.245345,112.960436 L52.245345,112.803547 Z M149.671413,44.7135062 L126.998905,44.7135062 L126.998905,80.9549792 C126.998905,84.5634377 127.163198,86.9167801 127.327492,88.4856751 C127.491785,89.8976809 128.148959,91.152797 129.299014,92.2510234 C130.449069,93.3492497 132.256298,93.8199183 134.720701,93.8199183 L148.849945,93.5061394 L150,112.332879 C141.785323,114.058663 135.377875,115 131.106243,115 C119.934282,115 112.37678,112.646658 108.433735,107.783083 C104.326396,103.076398 102.354874,94.2905869 102.354874,81.4256479 L102.354874,0 L127.163198,0 L127.163198,24.4747613 L149.835706,24.4747613 L149.835706,44.7135062 L149.671413,44.7135062 Z M14.9507119,51.4597544 C10.67908,51.4597544 7.06462214,50.047749 4.27163198,47.2237381 C1.47864184,44.3997272 0,40.9481582 0,36.8690314 C0,32.7899045 1.47864184,29.3383356 4.10733845,26.5143247 C6.90032857,23.6903137 10.5147864,22.4351978 14.7864184,22.4351978 C19.0580504,22.4351978 22.6725082,23.8472032 25.4654984,26.6712142 C28.2584885,29.4952251 29.5728368,32.946794 29.5728368,37.1828104 C29.5728368,41.4188267 28.2584885,44.7135062 25.4654984,47.5375171 C22.8368018,50.047749 19.3866374,51.4597544 14.9507119,51.4597544 Z"></path>
            </g>
            <path d="M189.472,145 L189.472,57.96 L245.024,57.96 L245.024,73.32 L207.136,73.32 L207.136,98.92 L238.112,98.92 L238.112,114.28 L207.136,114.28 L207.136,145 L189.472,145 Z M257.184,88.296 C261.706689,82.4079706 269.258614,79.464 279.84,79.464 C290.421386,79.464 297.973311,82.3866374 302.496,88.232 C307.018689,94.0773626 309.28,102.290614 309.28,112.872 C309.28,135.314779 299.466765,146.536 279.84,146.536 C260.213235,146.536 250.4,135.314779 250.4,112.872 C250.4,102.290614 252.661311,94.0986957 257.184,88.296 Z M270.368,127.336 C272.160009,130.408015 275.317311,131.944 279.84,131.944 C284.362689,131.944 287.498658,130.408015 289.248,127.336 C290.997342,124.263985 291.872,119.4427 291.872,112.872 C291.872,106.3013 290.997342,101.522682 289.248,98.536 C287.498658,95.5493184 284.362689,94.056 279.84,94.056 C275.317311,94.056 272.181342,95.5493184 270.432,98.536 C268.682658,101.522682 267.808,106.3013 267.808,112.872 C267.808,119.4427 268.661325,124.263985 270.368,127.336 Z M321.824,145 L321.824,81 L338.848,81 L338.848,87.784 C346.016036,83.517312 352.842634,80.7440064 359.328,79.464 L359.328,96.744 C352.415965,98.1946739 346.485358,99.6879923 341.536,101.224 L338.976,102.12 L338.976,145 L321.824,145 Z M407.2,81 L424.352,81 L424.352,145 L407.328,145 L407.328,141.416 C401.183969,144.82935 395.850689,146.536 391.328,146.536 C382.453289,146.536 376.480015,144.082691 373.408,139.176 C370.335985,134.269309 368.8,126.056058 368.8,114.536 L368.8,81 L385.952,81 L385.952,114.792 C385.952,121.106698 386.463995,125.415988 387.488,127.72 C388.512005,130.024012 390.986647,131.176 394.912,131.176 C398.666685,131.176 402.207983,130.578673 405.536,129.384 L407.2,128.872 L407.2,81 Z M457.376,145 L440.224,145 L440.224,81 L457.248,81 L457.248,84.584 C463.136029,81.1706496 468.170646,79.464 472.352,79.464 C479.264035,79.464 484.597315,81.4693133 488.352,85.48 C496.202706,81.4693133 503.370634,79.464 509.856,79.464 C518.304042,79.464 524.17065,81.9173088 527.456,86.824 C530.74135,91.7306912 532.384,99.5599462 532.384,110.312 L532.384,145 L515.232,145 L515.232,110.824 C515.232,105.362639 514.634673,101.33068 513.44,98.728 C512.245327,96.1253203 509.856018,94.824 506.272,94.824 C503.54132,94.824 500.213353,95.4213274 496.288,96.616 L494.368,97.256 C494.709335,103.656032 494.88,108.519983 494.88,111.848 L494.88,145 L477.728,145 L477.728,112.104 C477.728,105.789302 477.173339,101.33068 476.064,98.728 C474.954661,96.1253203 472.522685,94.824 468.768,94.824 C465.439983,94.824 462.154683,95.4213274 458.912,96.616 L457.376,97.128 L457.376,145 Z"></path>
        </g>
    </g>
</svg>
