<?xml version="1.0" encoding="UTF-8"?>
<svg width="498px" height="127px" viewBox="0 0 498 127" version="1.1" xmlns="http://www.w3.org/2000/svg">
    <g stroke="none" stroke-width="1" fill="none" fill-rule="evenodd">
        <g fill="#06C">
            <g transform="translate(159.000000, 20.000000)">
                <path d="M0.5,97.5 L6.7,83.1 C13.4,88.1 22.3,90.7 31.1,90.7 C37.6,90.7 41.7,88.2 41.7,84.4 C41.6,73.8 2.8,82.1 2.5,55.5 C2.4,42 14.4,31.6 31.4,31.6 C41.5,31.6 51.6,34.1 58.8,39.8 L53,54.5 C46.4,50.3 38.2,47.3 30.4,47.3 C25.1,47.3 21.6,49.8 21.6,53 C21.7,63.4 60.8,57.7 61.2,83.1 C61.2,96.9 49.5,106.6 32.7,106.6 C20.4,106.6 9.1,103.7 0.5,97.5"></path>
                <path d="M238.4,77.9 C235.3,83.3 229.5,87 222.8,87 C212.9,87 204.9,79 204.9,69.1 C204.9,59.2 212.9,51.2 222.8,51.2 C229.5,51.2 235.3,54.9 238.4,60.3 L255.5,50.8 C249.1,39.4 236.8,31.6 222.8,31.6 C202.1,31.6 185.3,48.4 185.3,69.1 C185.3,89.8 202.1,106.6 222.8,106.6 C236.9,106.6 249.1,98.9 255.5,87.4 L238.4,77.9 Z"></path>
                <rect x="69.8" y="0.5" width="21.4" height="104.7"></rect>
                <polygon points="263.9 0.5 263.9 105.2 285.3 105.2 285.3 73.8 310.7 105.2 338.1 105.2 305.8 67.9 335.7 33.1 309.5 33.1 285.3 62 285.3 0.5"></polygon>
                <path d="M154.8,78.1 C151.7,83.2 145.3,87 138.1,87 C128.2,87 120.2,79 120.2,69.1 C120.2,59.2 128.2,51.2 138.1,51.2 C145.3,51.2 151.7,55.2 154.8,60.4 L154.8,78.1 Z M154.8,33.1 L154.8,41.6 C151.3,35.7 142.6,31.6 133.5,31.6 C114.7,31.6 99.9,48.2 99.9,69 C99.9,89.8 114.7,106.6 133.5,106.6 C142.6,106.6 151.3,102.5 154.8,96.6 L154.8,105.1 L176.2,105.1 L176.2,33.1 L154.8,33.1 Z"></path>
            </g>
            <g >
                <g transform="translate(0.000000, 66.000000)">
                    <path d="M27.2,14 C27.2,21.3 21.3,27.2 14,27.2 C6.7,27.2 0.8,21.3 0.8,14 C0.8,6.7 6.7,0.8 14,0.8 L27.2,0.8 L27.2,14 Z"></path>
                    <path d="M33.8,14 C33.8,6.7 39.7,0.8 47,0.8 C54.3,0.8 60.2,6.7 60.2,14 L60.2,47 C60.2,54.3 54.3,60.2 47,60.2 C39.7,60.2 33.8,54.3 33.8,47 L33.8,14 Z"></path>
                </g>
                <g >
                    <path d="M47,27 C39.7,27 33.8,21.1 33.8,13.8 C33.8,6.5 39.7,0.6 47,0.6 C54.3,0.6 60.2,6.5 60.2,13.8 L60.2,27 L47,27 Z"></path>
                    <path d="M47,33.7 C54.3,33.7 60.2,39.6 60.2,46.9 C60.2,54.2 54.3,60.1 47,60.1 L13.9,60.1 C6.6,60.1 0.7,54.2 0.7,46.9 C0.7,39.6 6.6,33.7 13.9,33.7 L47,33.7 Z"></path>
                </g>
                <g transform="translate(66.000000, 0.000000)">
                    <path d="M33.9,46.9 C33.9,39.6 39.8,33.7 47.1,33.7 C54.4,33.7 60.3,39.6 60.3,46.9 C60.3,54.2 54.4,60.1 47.1,60.1 L33.9,60.1 L33.9,46.9 Z"></path>
                    <path d="M27.3,46.9 C27.3,54.2 21.4,60.1 14.1,60.1 C6.8,60.1 0.9,54.2 0.9,46.9 L0.9,13.8 C0.9,6.5 6.8,0.6 14.1,0.6 C21.4,0.6 27.3,6.5 27.3,13.8 L27.3,46.9 Z"></path>
                </g>
                <g transform="translate(66.000000, 66.000000)">
                    <path d="M14.1,33.8 C21.4,33.8 27.3,39.7 27.3,47 C27.3,54.3 21.4,60.2 14.1,60.2 C6.8,60.2 0.9,54.3 0.9,47 L0.9,33.8 L14.1,33.8 Z"></path>
                    <path d="M14.1,27.2 C6.8,27.2 0.9,21.3 0.9,14 C0.9,6.7 6.8,0.8 14.1,0.8 L47.2,0.8 C54.5,0.8 60.4,6.7 60.4,14 C60.4,21.3 54.5,27.2 47.2,27.2 L14.1,27.2 Z"></path>
                </g>
            </g>
        </g>
    </g>
</svg>
