<?xml version="1.0" encoding="UTF-8" standalone="no"?>
<svg
   width="406px"
   height="233px"
   viewBox="0 0 406 233"
   version="1.1"
   id="svg6"
   sodipodi:docname="bug.svg"
   inkscape:version="1.3.2 (091e20e, 2023-11-25)"
   xmlns:inkscape="http://www.inkscape.org/namespaces/inkscape"
   xmlns:sodipodi="http://sodipodi.sourceforge.net/DTD/sodipodi-0.dtd"
   xmlns:xlink="http://www.w3.org/1999/xlink"
   xmlns="http://www.w3.org/2000/svg"
   xmlns:svg="http://www.w3.org/2000/svg">
  <sodipodi:namedview
     id="namedview6"
     pagecolor="#ffffff"
     bordercolor="#000000"
     borderopacity="0.25"
     inkscape:showpageshadow="2"
     inkscape:pageopacity="0.0"
     inkscape:pagecheckerboard="0"
     inkscape:deskcolor="#d1d1d1"
     inkscape:zoom="2.103572"
     inkscape:cx="202.51268"
     inkscape:cy="116.46856"
     inkscape:window-width="1440"
     inkscape:window-height="847"
     inkscape:window-x="0"
     inkscape:window-y="25"
     inkscape:window-maximized="1"
     inkscape:current-layer="svg6" />
  <!-- Generator: Sketch 50 (54983) - http://www.bohemiancoding.com/sketch -->
  <title
     id="title1">Group 35</title>
  <desc
     id="desc1">Created with Sketch.</desc>
  <defs
     id="defs1">
    <polygon
       id="path-1"
       points="0.0248003522 0.401765706 193.849886 0.401765706 193.849886 150.191346 0.0248003522 150.191346" />
    <polygon
       id="path-3"
       points="0.264123751 0.169882413 194.106983 0.169882413 194.106983 8.97855417 0.264123751 8.97855417" />
    <path
       d="M58.1399785,33.1244172 C58.1399785,55.0990795 49.8759827,72.9096788 29.225324,72.9096788 C8.57534406,72.9096788 0.310669538,55.0990795 0.310669538,33.1244172 C0.310669538,11.1548445 11.0652312,0.575708203 29.225324,0.575708203 C47.3860955,0.575368889 58.1399785,11.1548445 58.1399785,33.1244172"
       id="path-5" />
  </defs>
  <g
     id="Page-1"
     stroke="none"
     stroke-width="1"
     fill="none"
     fill-rule="evenodd">
    <g
       id="Group-35"
       transform="translate(-1.000000, 0.000000)">
      <g
         id="Group-34"
         transform="translate(0.092874, 0.000000)">
        <g
           id="Group"
           transform="translate(158.138644, 0.000000)">
          <g
             id="Group-4">
            <mask
               id="mask-2"
               fill="white">
              <use
                 xlink:href="#path-1"
                 id="use1" />
            </mask>
            <g
               id="Clip-2" />
            <path
               d="M193.849886,18.5 L193.849886,9.21705089 C193.849886,4.34460837 189.90043,0.401765706 185.035014,0.401765706 L8.81528519,0.401765706 C3.94945609,0.401765706 0,4.34460837 0,9.21705089 L0,18.5 L193.849886,18.5 Z"
               id="Fill-1"
               fill="#455B71"
               mask="url(#mask-2)" />
            <polyline
               id="Fill-3"
               fill="#D6DEE8"
               mask="url(#mask-2)"
               points="163.635204 150.191346 0 150.191346 0 18.026136 193.849886 18.026136 193.849886 110.264019 163.635204 150.191346" />
          </g>
          <path
             d="M13.6256985,9.4532795 C13.6256985,11.3341701 12.1036662,12.8558828 10.2179823,12.8558828 C8.34220454,12.8558828 6.81569853,11.3341701 6.81569853,9.4532795 C6.81569853,7.5723889 8.34220454,6.04588288 10.2179823,6.04588288 C12.1036662,6.04588288 13.6256985,7.57270845 13.6256985,9.4532795"
             id="Fill-5"
             fill="#00C5CA" />
          <path
             d="M25.5530752,9.4532795 C25.5530752,11.3341701 24.0310429,12.8558828 22.145359,12.8558828 C20.2695812,12.8558828 18.7430752,11.3341701 18.7430752,9.4532795 C18.7430752,7.5723889 20.2695812,6.04588288 22.145359,6.04588288 C24.0310429,6.04588288 25.5530752,7.57270845 25.5530752,9.4532795"
             id="Fill-5-Copy"
             fill="#00C5CA" />
          <path
             d="M37.4804518,9.4532795 C37.4804518,11.3341701 35.9584196,12.8558828 34.0727357,12.8558828 C32.1969579,12.8558828 30.6704519,11.3341701 30.6704519,9.4532795 C30.6704519,7.5723889 32.1969579,6.04588288 34.0727357,6.04588288 C35.9584196,6.04588288 37.4804518,7.57270845 37.4804518,9.4532795"
             id="Fill-5-Copy-2"
             fill="#00C5CA" />
          <path
             d="M154.200323,35.6438929 L22.0318062,35.6438929 C19.5988917,35.6438929 17.6243703,37.6184142 17.6243703,40.0513288 C17.6243703,42.4842433 19.5988917,44.459178 22.0318062,44.459178 L154.200323,44.459178 C156.626624,44.459178 158.601146,42.4842433 158.601146,40.0513288 C158.601146,37.6184142 156.626624,35.6438929 154.200323,35.6438929"
             id="Fill-8"
             fill="#5A6772"
             opacity="0.200000018" />
          <path
             d="M22.0318062,62.083135 L92.5156472,62.083135 C94.9547618,62.083135 96.9230831,60.1086136 96.9230831,57.6752857 C96.9230831,55.2423712 94.9547618,53.2678498 92.5156472,53.2678498 L22.0318062,53.2678498 C19.5988917,53.2678498 17.6243703,55.2423712 17.6243703,57.6752857 C17.6243703,60.1086136 19.5988917,62.083135 22.0318062,62.083135"
             id="Fill-9"
             fill="#5A6772"
             opacity="0.200000018" />
          <path
             d="M118.951996,70.8922201 L22.0318062,70.8922201 C19.5988917,70.8922201 17.6243703,72.8671548 17.6243703,75.3000694 C17.6243703,77.7329839 19.5988917,79.7013052 22.0318062,79.7013052 L118.951996,79.7013052 C121.390697,79.7013052 123.352818,77.7329839 123.352818,75.3000694 C123.352818,72.8671548 121.391111,70.8922201 118.951996,70.8922201"
             id="Fill-10"
             fill="#5A6772"
             opacity="0.200000018" />
          <path
             d="M22.0318062,97.3256755 L83.7069754,97.3256755 C86.13989,97.3256755 88.1144113,95.3507408 88.1144113,92.9178262 C88.1144113,90.4849117 86.13989,88.5165904 83.7069754,88.5165904 L22.0318062,88.5165904 C19.5988917,88.5165904 17.6243703,90.485325 17.6243703,92.9178262 C17.6243703,95.3503274 19.5988917,97.3256755 22.0318062,97.3256755"
             id="Fill-11"
             fill="#5A6772"
             opacity="0.200000018" />
          <path
             d="M92.5156472,106.133934 L22.0318062,106.133934 C19.5988917,106.133934 17.6243703,108.108455 17.6243703,110.541783 C17.6243703,112.974698 19.5988917,114.949219 22.0318062,114.949219 L92.5156472,114.949219 C94.9547618,114.949219 96.9230831,112.974698 96.9230831,110.541783 C96.9234964,108.108455 94.9551752,106.133934 92.5156472,106.133934"
             id="Fill-14"
             fill="#5A6772"
             opacity="0.200000018" />
          <g
             id="Group-18"
             transform="translate(17.360247, 123.588422)">
            <mask
               id="mask-4"
               fill="white">
              <use
                 xlink:href="#path-3"
                 id="use2" />
            </mask>
            <g
               id="Clip-16" />
            <path
               d="M39.9136868,0.169882413 L4.67155968,0.169882413 C2.23864513,0.169882413 0.264123751,2.14440379 0.264123751,4.57773168 C0.264123751,7.01064623 2.23864513,8.97855417 4.67155968,8.97855417 L39.9136868,8.97855417 C42.3466014,8.97855417 44.3211228,7.01023289 44.3211228,4.57773168 C44.3211228,2.14440379 42.3466014,0.169882413 39.9136868,0.169882413"
               id="Fill-15"
               fill="#5A6772"
               opacity="0.200000018"
               mask="url(#mask-4)" />
          </g>
          <g
             id="Group-28"
             transform="translate(167.352818, 124.483577) rotate(-10.000000) translate(-167.352818, -124.483577) translate(123.352818, 80.983577)">
            <path
               d="M18.1921069,44.8227635 C19.6542116,44.8227635 21.0311484,43.9273135 21.5825338,42.4760669 C22.2818603,40.6057674 21.3280482,38.5186461 19.4631777,37.8189804 C12.5021481,35.2076187 11.4322906,28.5373814 11.4322906,28.4688399 C11.1353908,26.4926743 9.30241577,25.1310067 7.3211605,25.4224775 C5.34261975,25.7136091 3.9809521,27.5520131 4.27242295,29.5281787 C4.336214,29.9733588 6.01005066,40.4995621 16.9203575,44.5896547 C17.3445002,44.7487931 17.7679643,44.8227635 18.1921069,44.8227635"
               id="Fill-12"
               fill="#004080" />
            <path
               d="M76.5297085,86.8651428 C76.6993656,86.8651428 76.8792021,86.8491951 77.0593779,86.8227286 C79.0409725,86.531597 80.3972111,84.693193 80.1111693,82.7170275 C80.0473782,82.2718473 78.3735416,71.745644 67.4605202,67.6555514 C65.5851309,66.9511352 63.5081891,67.8995183 62.7983439,69.7691392 C62.0990174,71.6394387 63.0528295,73.72656 64.9177,74.4258864 C71.8787296,77.0375874 72.9485871,83.7074854 72.9591058,83.7763662 C73.2237709,85.572356 74.7601853,86.8651428 76.5297085,86.8651428"
               id="Fill-13"
               fill="#004080" />
            <path
               d="M83.7872987,57.9291115 L4.21915063,57.9291115 C2.22194759,57.9291115 0.606472969,56.3132976 0.606472969,54.3164339 C0.606472969,52.3188915 2.22228691,50.6979879 4.21915063,50.6979879 L83.7872987,50.6979879 C85.7790727,50.6979879 87.3999764,52.3188915 87.3999764,54.3164339 C87.4003157,56.3136369 85.7790727,57.9291115 83.7872987,57.9291115"
               id="Fill-17"
               fill="#004080" />
            <path
               d="M36.8397942,25.5344512 C35.610459,25.5344512 34.4133588,24.9040055 33.7354091,23.7754467 L22.8115297,5.5410441 C21.7946052,3.82988288 22.3456513,1.60466075 24.0622416,0.582307243 C25.7788318,-0.445475289 27.9928566,0.110660588 29.0206391,1.82725083 L39.9336605,20.0616534 C40.961443,21.7728146 40.4103969,23.9926078 38.694146,25.0203903 C38.1108649,25.3698839 37.4648108,25.5344512 36.8397942,25.5344512"
               id="Fill-19"
               fill="#004080" />
            <path
               d="M51.1961755,25.5344512 C50.5708195,25.5344512 49.9244261,25.3702232 49.3418237,25.0203903 C47.6360915,23.9926078 47.0745266,21.7728146 48.1023091,20.0562244 L59.0153305,1.82725083 C60.0427738,0.110660588 62.2578165,-0.445475289 63.9740674,0.582307243 C65.6906576,1.60466075 66.2413645,3.82445386 65.2241007,5.5410441 L54.3110793,23.7754467 C53.6331296,24.9036662 52.4251713,25.5344512 51.1961755,25.5344512"
               id="Fill-20"
               fill="#004080" />
            <path
               d="M69.8228252,44.8227635 C68.3603813,44.8227635 66.9831052,43.9273135 66.4429171,42.4760669 C65.7330719,40.6057674 66.6865446,38.5186461 68.5510758,37.8189804 C75.5229635,35.2076187 76.5826415,28.5373814 76.5931603,28.4688399 C76.8792021,26.4926743 78.7223565,25.1310067 80.6934324,25.4224775 C82.6750269,25.7136091 84.041445,27.5520131 83.7448844,29.5281787 C83.6810934,29.9733588 82.0072567,40.4995621 71.093896,44.5896547 C70.6809507,44.7487931 70.2462893,44.8227635 69.8228252,44.8227635"
               id="Fill-21"
               fill="#004080" />
            <path
               d="M11.4533281,86.8651428 C11.283671,86.8651428 11.1034952,86.8491951 10.9233194,86.8227286 C8.95258289,86.531597 7.58582553,84.693193 7.87220667,82.7170275 C7.94651646,82.2718473 9.60983438,71.745644 20.5228558,67.6555514 C22.398245,66.9511352 24.4853663,67.8995183 25.1846928,69.7691392 C25.8843585,71.6394387 24.9410652,73.72656 23.0656759,74.4258864 C16.104307,77.0375874 15.0449683,83.7074854 15.0344495,83.7763662 C14.7697845,85.572356 13.222512,86.8651428 11.4533281,86.8651428"
               id="Fill-22"
               fill="#004080" />
            <g
               id="Combined-Shape"
               transform="translate(14.776374, 13.955464)">
              <mask
                 id="mask-6"
                 fill="white">
                <use
                   xlink:href="#path-5"
                   id="use3" />
              </mask>
              <use
                 id="Mask"
                 fill="#0073E6"
                 xlink:href="#path-5" />
              <path
                 d="M25.6123071,22.2745082 L1.35982886,22.2745082 C4.46455325,7.6639806 14.3606502,0.575368889 29.225324,0.575368889 C44.0910159,0.575368889 53.9867735,7.66364129 57.0911585,22.2745082 L32.8363122,22.2745082 L32.8363122,73.2205633 C31.6819503,73.3519283 30.4746704,73.4230405 29.2243096,73.4230405 C27.9749665,73.4230405 26.7670081,73.3519283 25.6126463,73.2205633 L25.6123071,73.2205633 L25.6123071,22.2745082 Z"
                 fill="#00264D"
                 mask="url(#mask-6)"
                 id="path3" />
            </g>
          </g>
        </g>
        <g
           id="Group-25"
           transform="translate(0.592874, 32.500000)">
          <path
             d="M93.3799113,181.166008 L172.885171,181.166008 C181.173608,181.194614 187.915719,174.499239 187.944728,166.211204 C187.959232,162.04402 186.240465,158.058141 183.199384,155.208437 C191.406839,154.321656 197.341137,146.949411 196.454357,138.742359 C196.069185,135.177509 194.415285,131.869709 191.79483,129.422904 C200.003091,128.545793 205.94585,121.180397 205.068739,112.972137 C204.530063,107.932676 201.474478,103.509249 196.951937,101.221991 C205.017168,96.2131516 207.494594,85.6144917 202.485754,77.5496633 C199.358049,72.5130235 193.855658,69.4437392 187.927,69.4284291 L127.760488,69.4284291 C132.482061,57.0195442 135.377293,43.9910007 136.355934,30.7501294 C136.355934,14.6341712 122.388636,0.667276084 114.867721,0.667276084 C110.229951,0.734963108 105.726347,2.23616461 101.974955,4.96459633 L101.974955,13.0842161 C101.974955,27.5541874 98.8346793,41.8517991 92.7709315,54.9899508 L80.2163367,82.1916383 C77.6095939,87.8395946 73.1582074,92.432178 67.5943782,95.2139622 L67.5943782,172.570561 C75.0842698,178.052405 84.0991339,181.057628 93.3799113,181.166008 Z"
             id="Fill-4"
             fill="#FFFFFF"
             style="fill:#0073e6;fill-opacity:1" />
          <polygon
             id="polygon3"
             fill="#004D99"
             transform="translate(63.594378, 138.595033) scale(-1, 1) translate(-63.594378, -138.595033) "
             points="58.5943782 185.166099 68.5943782 185.166099 68.5943782 92.0239667 58.5943782 92.0239667" />
          <polygon
             id="polygon4"
             fill="#80B9F1"
             points="0.428268642 192.166099 60.5943782 192.166099 60.5943782 89.0239667 0.428268642 89.0239667" />
          <circle
             id="Oval-4"
             fill="#004080"
             cx="13.4282686"
             cy="179.166099"
             r="5" />
        </g>
      </g>
      <g
         id="Group-6-Copy-2"
         transform="translate(373.092874, 33.109215)">
        <circle
           id="Oval"
           fill="#00C5CA"
           cx="20.0846433"
           cy="39.9647595"
           r="12.9618611" />
        <polygon
           id="Star-Copy"
           fill="#004D99"
           transform="translate(5.960751, 5.979253) scale(-1, 1) rotate(10.000000) translate(-5.960751, -5.979253) "
           points="5.96075102 9.1579517 2.82318745 10.8074665 3.42240877 7.3137381 0.884066522 4.83946592 4.39196924 4.32973782 5.96075102 1.15103873 7.52953281 4.32973782 11.0374355 4.83946592 8.49909327 7.3137381 9.09831459 10.8074665" />
        <path
           d="M20.0846433,37.2227752 C20.7192866,36.1216421 21.3593541,35.5737877 22.6340649,35.5737877 C24.0389589,35.5737877 25.1834864,37.255321 25.1834864,38.4649402 C25.1834864,40.6617822 22.1350292,43.0430504 20.0846433,44.3557313 C18.2403809,43.2220523 14.9858002,40.6617822 14.9858002,38.4649402 C14.9858002,37.255321 16.1303278,35.5737877 17.5352218,35.5737877 C18.8099326,35.5737877 19.4445758,36.1216421 20.0846433,37.2227752 Z"
           id="Shape-Copy"
           fill="#FEFEFE"
           fill-rule="nonzero" />
      </g>
      <circle
         id="Oval-9-Copy"
         fill="#004080"
         cx="77.5739377"
         cy="41.7934222"
         r="3.22785301" />
      <g
         id="Group-46"
         transform="translate(50.286948, 67.896163) rotate(10.000000) translate(-50.286948, -67.896163) translate(45.786948, 63.396163)"
         stroke="#0073E6"
         stroke-linecap="round"
         stroke-linejoin="round"
         stroke-width="3">
        <path
           d="M0.409090909,0.409090909 L8.69255048,8.69255048"
           id="Line-6" />
        <path
           d="M0.409090909,0.409090909 L8.69255048,8.69255048"
           id="path4"
           transform="translate(4.500000, 4.500000) scale(-1, 1) translate(-4.500000, -4.500000) " />
      </g>
      <circle
         id="Oval-8"
         stroke="#65DDE0"
         stroke-width="3"
         cx="55.5"
         cy="18.5"
         r="4.5" />
      <circle
         id="Oval-9"
         fill="#004080"
         cx="221.202049"
         cy="205.785474"
         r="4.79795142" />
      <polygon
         id="Oval-8-Copy"
         stroke="#00C5CA"
         stroke-width="3"
         points="248.395451 182.142954 250.395451 180.142954 248.395451 178.142954 246.395451 180.142954" />
      <g
         id="Group-46-Copy"
         transform="translate(242.244244, 226.908257) rotate(12.000000) translate(-242.244244, -226.908257) translate(238.744244, 223.408257)"
         stroke="#8EBEED"
         stroke-linecap="round"
         stroke-linejoin="round"
         stroke-width="3">
        <path
           d="M0.317824287,0.317824287 L6.75327561,6.75327561"
           id="path5" />
        <path
           d="M0.317824287,0.317824287 L6.75327561,6.75327561"
           id="path6"
           transform="translate(3.496067, 3.496067) scale(-1, 1) translate(-3.496067, -3.496067) " />
      </g>
    </g>
  </g>
</svg>
