<svg width="100" height="100" viewBox="0 0 100 100" fill="none" xmlns="http://www.w3.org/2000/svg">
<circle cx="50" cy="50" r="49.5" fill="white" stroke="#004D99"/>
<path fill-rule="evenodd" clip-rule="evenodd" d="M31.627 32.3943C31.627 31.9856 31.9269 31.6543 32.297 31.6543H68.582C68.952 31.6543 69.2519 31.9856 69.2519 32.3943V49.7545C69.2519 50.1632 68.952 50.4945 68.582 50.4945H32.297C31.9269 50.4945 31.627 50.1632 31.627 49.7545V32.3943ZM32.967 33.1343V49.0145H67.912V33.1343H32.967Z" fill="#004D99"/>
<path fill-rule="evenodd" clip-rule="evenodd" d="M27.8809 50.135C27.8809 49.7263 28.1808 49.395 28.5509 49.395H72.3279C72.6979 49.395 72.9979 49.7263 72.9979 50.135V74.9117C72.9979 75.3204 72.6979 75.6517 72.3279 75.6517H28.5509C28.1808 75.6517 27.8809 75.3204 27.8809 74.9117V50.135ZM29.2209 50.875V74.1717H71.6579V50.875H29.2209Z" fill="#004D99"/>
<path fill-rule="evenodd" clip-rule="evenodd" d="M47.6459 56.0005C45.739 56.0005 44.1759 57.7268 44.1759 59.833V74.9114C44.1759 75.32 43.876 75.6514 43.5059 75.6514C43.1359 75.6514 42.8359 75.32 42.8359 74.9114V59.833C42.8359 56.9095 44.9989 54.5205 47.6459 54.5205H52.6599C55.307 54.5205 57.4699 56.9095 57.4699 59.833V74.9114C57.4699 75.32 57.17 75.6514 56.7999 75.6514C56.4299 75.6514 56.1299 75.32 56.1299 74.9114V59.833C56.1299 57.7268 54.5669 56.0005 52.6599 56.0005H47.6459Z" fill="#004D99"/>
<path fill-rule="evenodd" clip-rule="evenodd" d="M37.2388 37.8245C37.2388 37.4158 37.5387 37.0845 37.9088 37.0845H41.3608C41.7308 37.0845 42.0308 37.4158 42.0308 37.8245V44.2481C42.0308 44.6568 41.7308 44.9881 41.3608 44.9881H37.9088C37.5387 44.9881 37.2388 44.6568 37.2388 44.2481V37.8245ZM38.5788 38.5645V43.5081H40.6908V38.5645H38.5788Z" fill="#004D99"/>
<path fill-rule="evenodd" clip-rule="evenodd" d="M44.4419 37.8245C44.4419 37.4158 44.7419 37.0845 45.1119 37.0845H48.5639C48.9339 37.0845 49.2339 37.4158 49.2339 37.8245V44.2481C49.2339 44.6568 48.9339 44.9881 48.5639 44.9881H45.1119C44.7419 44.9881 44.4419 44.6568 44.4419 44.2481V37.8245ZM45.7819 38.5645V43.5081H47.8939V38.5645H45.7819Z" fill="#004D99"/>
<path fill-rule="evenodd" clip-rule="evenodd" d="M51.645 37.8245C51.645 37.4158 51.945 37.0845 52.315 37.0845H55.767C56.1371 37.0845 56.437 37.4158 56.437 37.8245V44.2481C56.437 44.6568 56.1371 44.9881 55.767 44.9881H52.315C51.945 44.9881 51.645 44.6568 51.645 44.2481V37.8245ZM52.985 38.5645V43.5081H55.097V38.5645H52.985Z" fill="#004D99"/>
<path fill-rule="evenodd" clip-rule="evenodd" d="M58.8477 37.8245C58.8477 37.4158 59.1476 37.0845 59.5177 37.0845H62.9697C63.3397 37.0845 63.6397 37.4158 63.6397 37.8245V44.2481C63.6397 44.6568 63.3397 44.9881 62.9697 44.9881H59.5177C59.1476 44.9881 58.8477 44.6568 58.8477 44.2481V37.8245ZM60.1877 38.5645V43.5081H62.2997V38.5645H60.1877Z" fill="#004D99"/>
<path fill-rule="evenodd" clip-rule="evenodd" d="M50.1529 54.5195C50.5229 54.5195 50.8229 54.8508 50.8229 55.2595V74.5304C50.8229 74.9391 50.5229 75.2704 50.1529 75.2704C49.7829 75.2704 49.4829 74.9391 49.4829 74.5304V55.2595C49.4829 54.8508 49.7829 54.5195 50.1529 54.5195Z" fill="#004D99"/>
<path fill-rule="evenodd" clip-rule="evenodd" d="M47.8213 67.1897C47.8213 66.781 48.1213 66.4497 48.4913 66.4497H51.8143C52.1843 66.4497 52.4843 66.781 52.4843 67.1897C52.4843 67.5984 52.1843 67.9297 51.8143 67.9297H48.4913C48.1213 67.9297 47.8213 67.5984 47.8213 67.1897Z" fill="#004D99"/>
<path fill-rule="evenodd" clip-rule="evenodd" d="M31.088 50.064C31.458 50.064 31.758 50.3953 31.758 50.804V52.9212H37.003V50.804C37.003 50.3953 37.3029 50.064 37.673 50.064C38.043 50.064 38.343 50.3953 38.343 50.804V53.6612C38.343 54.0699 38.043 54.4012 37.673 54.4012H31.088C30.7179 54.4012 30.418 54.0699 30.418 53.6612V50.804C30.418 50.3953 30.7179 50.064 31.088 50.064Z" fill="#004D99"/>
<path fill-rule="evenodd" clip-rule="evenodd" d="M30.4175 71.3836C30.4175 70.9749 30.7174 70.6436 31.0875 70.6436H37.6725C38.0425 70.6436 38.3425 70.9749 38.3425 71.3836V74.2408C38.3425 74.6495 38.0425 74.9808 37.6725 74.9808C37.3024 74.9808 37.0025 74.6495 37.0025 74.2408V72.1236H31.7575V74.2408C31.7575 74.6495 31.4575 74.9808 31.0875 74.9808C30.7174 74.9808 30.4175 74.6495 30.4175 74.2408V71.3836Z" fill="#004D99"/>
<path fill-rule="evenodd" clip-rule="evenodd" d="M36.5362 52.9219C36.9062 52.9219 37.2062 53.2532 37.2062 53.6619V71.0441C37.2062 71.4528 36.9062 71.7841 36.5362 71.7841C36.1662 71.7841 35.8662 71.4528 35.8662 71.0441V53.6619C35.8662 53.2532 36.1662 52.9219 36.5362 52.9219Z" fill="#004D99"/>
<path fill-rule="evenodd" clip-rule="evenodd" d="M32.2247 52.9219C32.5947 52.9219 32.8947 53.2532 32.8947 53.6619V71.0441C32.8947 71.4528 32.5947 71.7841 32.2247 71.7841C31.8547 71.7841 31.5547 71.4528 31.5547 71.0441V53.6619C31.5547 53.2532 31.8547 52.9219 32.2247 52.9219Z" fill="#004D99"/>
<path fill-rule="evenodd" clip-rule="evenodd" d="M63.2056 50.064C63.5757 50.064 63.8756 50.3953 63.8756 50.804V52.9212H69.1206V50.804C69.1206 50.3953 69.4206 50.064 69.7906 50.064C70.1607 50.064 70.4606 50.3953 70.4606 50.804V53.6612C70.4606 54.0699 70.1607 54.4012 69.7906 54.4012H63.2056C62.8356 54.4012 62.5356 54.0699 62.5356 53.6612V50.804C62.5356 50.3953 62.8356 50.064 63.2056 50.064Z" fill="#004D99"/>
<path fill-rule="evenodd" clip-rule="evenodd" d="M62.5356 71.3836C62.5356 70.9749 62.8356 70.6436 63.2056 70.6436H69.7906C70.1607 70.6436 70.4606 70.9749 70.4606 71.3836V74.2408C70.4606 74.6495 70.1607 74.9808 69.7906 74.9808C69.4206 74.9808 69.1206 74.6495 69.1206 74.2408V72.1236H63.8756V74.2408C63.8756 74.6495 63.5757 74.9808 63.2056 74.9808C62.8356 74.9808 62.5356 74.6495 62.5356 74.2408V71.3836Z" fill="#004D99"/>
<path fill-rule="evenodd" clip-rule="evenodd" d="M68.6539 52.9219C69.0239 52.9219 69.3239 53.2532 69.3239 53.6619V71.0441C69.3239 71.4528 69.0239 71.7841 68.6539 71.7841C68.2839 71.7841 67.9839 71.4528 67.9839 71.0441V53.6619C67.9839 53.2532 68.2839 52.9219 68.6539 52.9219Z" fill="#004D99"/>
<path fill-rule="evenodd" clip-rule="evenodd" d="M64.3424 52.9219C64.7124 52.9219 65.0124 53.2532 65.0124 53.6619V71.0441C65.0124 71.4528 64.7124 71.7841 64.3424 71.7841C63.9723 71.7841 63.6724 71.4528 63.6724 71.0441V53.6619C63.6724 53.2532 63.9723 52.9219 64.3424 52.9219Z" fill="#004D99"/>
<path fill-rule="evenodd" clip-rule="evenodd" d="M26 74.9119C26 74.5032 26.3 74.1719 26.67 74.1719H74.209C74.579 74.1719 74.879 74.5032 74.879 74.9119V79.2602C74.879 79.6689 74.579 80.0002 74.209 80.0002H26.67C26.3 80.0002 26 79.6689 26 79.2602V74.9119ZM27.34 75.6519V78.5202H73.539V75.6519H27.34Z" fill="#004D99"/>
<path fill-rule="evenodd" clip-rule="evenodd" d="M49.334 20.74C49.334 20.3313 49.634 20 50.004 20H57.85C58.22 20 58.52 20.3313 58.52 20.74V27.8539C58.52 28.2626 58.22 28.5939 57.85 28.5939H50.674V31.3253C50.674 31.734 50.374 32.0653 50.004 32.0653C49.634 32.0653 49.334 31.734 49.334 31.3253V20.74ZM50.674 27.1139H57.18V21.48H50.674V27.1139Z" fill="#004D99"/>
</svg>
