<?xml version="1.0" encoding="UTF-8"?>
<svg width="448px" height="209px" viewBox="0 0 448 209" version="1.1" xmlns="http://www.w3.org/2000/svg" xmlns:xlink="http://www.w3.org/1999/xlink">
    <!-- Generator: Sketch 50 (54983) - http://www.bohemiancoding.com/sketch -->
    <title>Group 44</title>
    <desc>Created with Sketch.</desc>
    <defs></defs>
    <g id="Page-1" stroke="none" stroke-width="1" fill="none" fill-rule="evenodd">
        <g id="Group-44" transform="translate(-1.000000, -2.000000)">
            <g id="italia.it-logo" transform="translate(114.500000, 17.000000)">
                <g></g>
            </g>
            <g id="Group-35" transform="translate(56.500000, 10.000000)">
                <g id="chat-(1)" transform="translate(0.182450, 0.000000)">
                    <rect id="Rectangle-path" fill="#BBC6D3" fill-rule="nonzero" x="86.6596886" y="171.198161" width="43.3298443" height="26.3596938"></rect>
                    <path d="M209.42744,29.1122391 C213.415986,29.1122391 216.649221,32.3454749 216.649221,36.3340209 L216.649221,166.323131 C216.649221,170.311677 213.415986,173.544912 209.42744,173.544912 L7.22178176,173.544912 C3.23323574,173.544912 0,170.311254 0,166.323131 L0,36.3340209 C0,32.3454749 3.23323574,29.1122391 7.22178176,29.1122391 C7.22178176,29.1122391 209.42744,29.1122391 209.42744,29.1122391 Z" id="Shape" fill="#D6DEE8" fill-rule="nonzero"></path>
                    <circle id="Oval" fill="#F7F9FA" fill-rule="nonzero" cx="108.324611" cy="159.101772" r="5.41665368"></circle>
                    <path d="M216.649221,144.657785 L216.649221,36.3340209 C216.649221,32.3454749 213.415986,29.1122391 209.42744,29.1122391 L7.22178176,29.1122391 C3.23323574,29.1122391 0,32.3454749 0,36.3340209 L0,144.657785 L216.649221,144.657785 Z" id="Shape" fill="#455B71" fill-rule="nonzero"></path>
                    <path d="M10.8324611,42.5601472 L10.8324611,131.209877 C10.8324611,132.654488 12.0032978,133.825324 13.447908,133.825324 L203.201737,133.825324 C204.646347,133.825324 205.817184,132.654488 205.817184,131.209877 L205.817184,42.5601472 C205.817184,41.1155369 204.646347,39.9447002 203.201737,39.9447002 L13.447908,39.9447002 C12.0032978,39.9447002 10.8324611,41.1155369 10.8324611,42.5601472 Z" id="Shape" fill="#FFFFFF" fill-rule="nonzero"></path>
                    <path d="M205.81676,57.9985199 L10.8324611,57.9985199 L10.8324611,42.5601472 C10.8324611,41.1155369 12.0032978,39.9447002 13.447908,39.9447002 L203.201313,39.9447002 C204.645924,39.9447002 205.81676,41.1159601 205.81676,42.5601472 L205.81676,57.9985199 Z" id="Shape" fill="#66A5E3" fill-rule="nonzero"></path>
                    <path d="M28.8862808,52.240813 L21.6653453,52.240813 C19.8597941,52.240813 18.3961424,50.7771613 18.3961424,48.9716101 C18.3961424,47.1660588 19.8597941,45.7024072 21.6653453,45.7024072 L28.8862808,45.7024072 C30.691832,45.7024072 32.1554837,47.1660588 32.1554837,48.9716101 C32.1554837,50.7771613 30.691832,52.240813 28.8862808,52.240813 Z" id="Shape" fill="#FFFFFF" fill-rule="nonzero"></path>
                    <polygon id="Shape" fill="#D6DEE8" fill-rule="nonzero" points="156.26079 200.653398 60.3888548 200.653398 60.3888548 195.210258 156.26079 195.210258"></polygon>
                    <path d="M166.097595,0.225535225 L50.5516261,0.225535225 C46.56308,0.225535225 43.3298443,3.45877097 43.3298443,7.44731699 L43.3298443,86.8856469 C43.3298443,90.874193 46.56308,94.1074287 50.5516261,94.1074287 L79.4374837,94.1074287 L79.4374837,109.457788 C79.4374837,111.787613 82.2547698,112.954642 83.9024887,111.307346 L101.102829,94.1074287 L166.097595,94.1074287 C170.086141,94.1074287 173.319377,90.874193 173.319377,86.8856469 L173.319377,7.44731699 C173.319377,3.45877097 170.086141,0.225535225 166.097595,0.225535225 Z" id="Shape" fill="#E6E9F2" fill-rule="nonzero"></path>
                    <path d="M66.0670163,32.0058167 L66.0670163,16.9271443 L70.0424738,16.9271443 L70.0424738,32.0326471 L66.0670163,32.0326471 L66.0670163,32.0058167 Z M81.6792433,20.3614327 L78.0460438,20.3614327 L78.0460438,26.55925 C78.0460438,27.1763487 78.0723713,27.5788044 78.0986989,27.8471082 C78.1250264,28.0885816 78.2303365,28.3032246 78.4146293,28.4910372 C78.598922,28.6788499 78.8885248,28.759341 79.2834378,28.759341 L81.5476057,28.7056802 L81.7318984,31.9253256 C80.4155218,32.2204598 79.388748,32.381442 78.7042321,32.381442 C76.9139599,32.381442 75.7028934,31.9789864 75.0710326,31.1472446 C74.4128443,30.3423333 74.0969139,28.8398321 74.0969139,26.6397411 L74.0969139,12.714775 L78.0723713,12.714775 L78.0723713,16.9003139 L81.7055709,16.9003139 L81.7055709,20.3614327 L81.6792433,20.3614327 Z M60.0906664,21.5151389 C59.4061505,21.5151389 58.8269448,21.2736655 58.3793767,20.7907187 C57.9318087,20.3077719 57.6948609,19.7175036 57.6948609,19.0199138 C57.6948609,18.322324 57.9318087,17.7320556 58.3530492,17.2491088 C58.8006172,16.766162 59.379823,16.551519 60.0643388,16.551519 C60.7488547,16.551519 61.3280604,16.7929924 61.7756285,17.2759392 C62.2231965,17.758886 62.4338168,18.3491543 62.4338168,19.0735745 C62.4338168,19.7979947 62.2231965,20.3614327 61.7756285,20.8443795 C61.3543879,21.2736655 60.8015097,21.5151389 60.0906664,21.5151389 L60.0906664,21.5151389 Z" id="Shape" fill="#004080"></path>
                    <g id="Group" transform="translate(79.127743, 0.000000)" fill="#D6DEE8" fill-rule="nonzero">
                        <path d="M0.309740684,106.182238 L0.309740684,109.457788 C0.309740684,111.787613 3.12702685,112.954642 4.77474573,111.307346 L21.975086,94.1074287 L12.3849728,94.1074287 L0.309740684,106.182238 Z" id="Shape"></path>
                        <path d="M86.9698524,0.225535225 L77.3797392,0.225535225 C81.3682852,0.225535225 84.601521,3.45877097 84.601521,7.44731699 L84.601521,86.8856469 C84.601521,90.874193 81.3682852,94.1074287 77.3797392,94.1074287 L86.9698524,94.1074287 C90.9583984,94.1074287 94.1916342,90.874193 94.1916342,86.8856469 L94.1916342,7.44731699 C94.1916342,3.45877097 90.9583984,0.225535225 86.9698524,0.225535225 Z" id="Shape"></path>
                    </g>
                    <g id="Group" transform="translate(56.355737, 25.001718)" fill-rule="nonzero">
                        <g id="Group-36" transform="translate(0.968874, 0.000000)">
                            <path d="M90.2982953,7.37972376 L35.5253107,7.37972376 C33.7197594,7.37972376 32.2561078,5.91607208 32.2561078,4.11052086 C32.2561078,2.30496963 33.7197594,0.841317956 35.5253107,0.841317956 L90.2987185,0.841317956 C92.1046928,0.841317956 93.5679214,2.30496963 93.5679214,4.11052086 C93.5674982,5.91607208 92.1042697,7.37972376 90.2982953,7.37972376 Z" id="Shape" stroke="#E6E9F2" fill="#004080"></path>
                            <path d="M67.4128609,36.2651582 L3.63945303,36.2651582 C1.83390181,36.2651582 0.370250134,34.8015066 0.370250134,32.9959553 C0.370250134,31.1904041 1.83390181,29.7267524 3.63945303,29.7267524 L67.4128609,29.7267524 C69.2188352,29.7267524 70.6820638,31.1904041 70.6820638,32.9959553 C70.6820638,34.8015066 69.2184121,36.2651582 67.4128609,36.2651582 Z" id="Shape" stroke="#E6E9F2" fill="#004080"></path>
                            <path d="M90.3035289,21.822441 L3.63945303,21.822441 C1.83390181,21.822441 0.370250134,20.3587893 0.370250134,18.5532381 C0.370250134,16.7476869 1.83390181,15.2840352 3.63945303,15.2840352 L90.3035289,15.2840352 C92.1090801,15.2840352 93.5727318,16.7476869 93.5727318,18.5532381 C93.5727318,20.3587893 92.1090801,21.822441 90.3035289,21.822441 Z" id="Shape" stroke="#E6E9F2" fill="#004080"></path>
                            <path d="M18.0825934,54.3202474 L3.63945303,54.3202474 C1.83390181,54.3202474 0.370250134,52.8565957 0.370250134,51.0510445 C0.370250134,49.2454932 1.83390181,47.7818416 3.63945303,47.7818416 L18.0825934,47.7818416 C19.8881446,47.7818416 21.3517963,49.2454932 21.3517963,51.0510445 C21.3517963,52.8565957 19.8881446,54.3202474 18.0825934,54.3202474 Z" id="Shape" fill="#0073E6"></path>
                            <circle id="Oval" fill="#0073E6" cx="84.8846037" cy="51.049775" r="5.41623054"></circle>
                        </g>
                    </g>
                </g>
                <g id="video-conference" transform="translate(188.817550, 92.000000)">
                    <path d="M146.722698,103.069644 L11.0497573,103.069644 L11.0497573,12.6212198 C11.0497573,8.45856599 14.4244215,5.0839018 18.5870752,5.0839018 L139.185075,5.0839018 C143.347729,5.0839018 146.722393,8.45856599 146.722393,12.6212198 L146.722698,103.069644 Z" id="Shape" fill="#17324D" fill-rule="nonzero"></path>
                    <path d="M139.18538,5.0839018 L91.448424,5.0839018 L91.448424,42.7707958 C91.448424,49.7087549 97.0726615,55.3329924 104.010621,55.3329924 L146.722393,55.3329924 L146.722393,12.6212198 C146.722698,8.45826175 143.348033,5.0839018 139.18538,5.0839018 Z" id="Shape" fill="#00264D" fill-rule="nonzero"></path>
                    <path d="M137.92916,93.0198865 L19.8432949,93.0198865 C19.1496207,93.0198865 18.5870752,92.457341 18.5870752,91.7636668 L18.5870752,13.8774394 C18.5870752,13.1837652 19.1496207,12.6212198 19.8432949,12.6212198 L137.928856,12.6212198 C138.62253,12.6212198 139.185075,13.1837652 139.185075,13.8774394 L139.185075,91.7636668 C139.18538,92.457341 138.622834,93.0198865 137.92916,93.0198865 Z" id="Shape" fill="#8EBEED" fill-rule="nonzero"></path>
                    <path d="M137.92916,12.6212198 L91.448424,12.6212198 L91.448424,42.7707958 C91.448424,49.7087549 97.0726615,55.3329924 104.010621,55.3329924 L139.185075,55.3329924 L139.185075,13.8774394 C139.18538,13.1837652 138.622834,12.6212198 137.92916,12.6212198 Z" id="Shape" fill="#0066CC" fill-rule="nonzero" opacity="0.200000003"></path>
                    <g id="Group" fill-rule="nonzero">
                        <path d="M156.772151,100.557204 L0.874244271,100.557204 L0.874244271,100.557204 C0.874244271,104.71995 4.24881647,108.094522 8.41156223,108.094522 L149.234833,108.094522 C153.397578,108.094522 156.772151,104.71995 156.772151,100.557204 Z" id="Shape" fill="#D6DEE8"></path>
                        <path d="M96.4733026,7.59634112 L96.4733026,25.1834164 L86.4773886,36.9640825 C85.7627489,37.8063199 85.8661872,39.0684182 86.7084246,39.7830579 C87.0698366,40.0897166 87.5284131,40.2580523 88.0023943,40.2580523 L96.4733026,40.2580523 L96.4733026,42.7704916 C96.4733026,46.9331454 99.8479668,50.3078095 104.010621,50.3078095 L149.234833,50.3078095 C153.397486,50.3078095 156.772151,46.9331454 156.772151,42.7704916 L156.772151,7.59634112 C156.772151,3.43368735 153.397486,0.0590231567 149.234833,0.0590231567 L104.010925,0.0590231567 C99.8479668,0.0590231567 96.4733026,3.43338311 96.4733026,7.59634112 Z" id="Shape" fill="#E6E9F2"></path>
                    </g>
                    <g id="Group" transform="translate(106.268104, 10.040021)" fill-rule="nonzero">
                        <path d="M37.942154,5.09363757 L17.8423352,5.09363757 C16.4534655,5.09363757 15.3298959,3.96854668 15.3298959,2.58119825 C15.3298959,1.19384983 16.4537698,0.0687589351 17.8423352,0.0687589351 L37.942154,0.0687589351 C39.3310236,0.0687589351 40.4545933,1.19384983 40.4545933,2.58119825 C40.4545933,3.96854668 39.3307194,5.09363757 37.942154,5.09363757 Z" id="Shape" stroke="#E6E9F2" fill="#004080"></path>
                        <path d="M7.7925779,5.09363757 L2.76769926,5.09363757 C1.37882962,5.09363757 0.255259941,3.96854668 0.255259941,2.58119825 C0.255259941,1.19384983 1.37913386,0.0687589351 2.76769926,0.0687589351 L7.7925779,0.0687589351 C9.18144754,0.0687589351 10.3050172,1.19384983 10.3050172,2.58119825 C10.3050172,3.96854668 9.1811433,5.09363757 7.7925779,5.09363757 Z" id="Shape" fill="#0073E6"></path>
                    </g>
                    <path d="M144.210258,27.6958557 L109.035803,27.6958557 C107.646934,27.6958557 106.523364,26.5707648 106.523364,25.1834164 C106.523364,23.7960679 107.647238,22.670977 109.035803,22.670977 L144.210258,22.670977 C145.599128,22.670977 146.722698,23.7960679 146.722698,25.1834164 C146.722698,26.571069 145.598824,27.6958557 144.210258,27.6958557 Z" id="Shape" stroke="#E6E9F2" fill="#004080" fill-rule="nonzero"></path>
                    <g id="Group" transform="translate(106.268104, 34.987954)" fill-rule="nonzero">
                        <path d="M37.942154,5.2704028 L32.9172753,5.2704028 C31.5284057,5.2704028 30.404836,4.14652888 30.404836,2.75796348 C30.404836,1.36939808 31.5287099,0.245524162 32.9172753,0.245524162 L37.942154,0.245524162 C39.3310236,0.245524162 40.4545933,1.36939808 40.4545933,2.75796348 C40.4545933,4.14652888 39.3307194,5.2704028 37.942154,5.2704028 Z" id="Shape" fill="#0073E6"></path>
                        <path d="M22.8672138,5.2704028 L2.76739502,5.2704028 C1.37852538,5.2704028 0.254955697,4.14652888 0.254955697,2.75796348 C0.254955697,1.36939808 1.37882962,0.245524162 2.76739502,0.245524162 L22.8672138,0.245524162 C24.2560835,0.245524162 25.3796531,1.36939808 25.3796531,2.75796348 C25.3796531,4.14652888 24.2560835,5.2704028 22.8672138,5.2704028 Z" id="Shape" stroke="#E6E9F2" fill="#004080"></path>
                    </g>
                    <g id="Group" transform="translate(67.687647, 100.400215)" fill="#F7F9FA" fill-rule="nonzero">
                        <path d="M17.9318241,4.13660922 L4.49514214,4.13660922 C3.2529513,4.13660922 2.11745332,3.49456514 1.56201505,2.47833845 L0.2822302,0.136609223 L22.1452655,0.136609223 L20.8654807,2.47833845 C20.3095129,3.49456514 19.1740149,4.13660922 17.9318241,4.13660922 Z" id="Shape"></path>
                    </g>
                    <path d="M69.5277104,66.34933 C67.5963753,65.5981538 66.3240308,63.7383159 66.3240308,61.6661163 L66.3240308,55.3326882 L51.2493949,55.3326882 L51.2493949,61.6661163 C51.2493949,63.7386201 49.9770503,65.5981538 48.0457153,66.34933 C50.1815017,74.3533077 51.2493949,79.7368644 51.2493949,82.5 L66.3240308,82.5 C66.323828,79.7370672 67.3917212,74.3535105 69.5277104,66.34933 Z" id="Shape" fill="#F0F6FC" fill-rule="nonzero"></path>
                    <path d="M80.0161862,70.4283169 L73.0840077,67.732419 L61.943539,75.6898966 C60.0837011,77.0182219 57.5618302,76.9242108 55.8060434,75.4611058 L45.8816343,67.1905621 L37.556631,70.4280126 C33.6936567,71.9303649 31.1492718,75.6497365 31.1492718,79.79444 L31.1492718,93.019278 L86.4232411,93.019278 L86.4232411,79.79444 C86.4235454,75.650345 83.8791605,71.9306692 80.0161862,70.4283169 Z" id="Shape" fill="#004D99" fill-rule="nonzero"></path>
                    <path d="M51.2490906,62.1492073 C53.5373028,63.2408315 56.0868598,63.8703104 58.7864086,63.8703104 C61.4859574,63.8703104 64.0355144,63.2408315 66.3237266,62.1492073 L66.3237266,53.8205531 L51.2490906,53.8205531 L51.2490906,62.1492073 Z" id="Shape" fill="#E6E9F2" fill-rule="nonzero"></path>
                    <path d="M58.7867128,60.8454318 C51.8487537,60.8454318 46.2245162,55.2211943 46.2245162,48.2832352 L46.2245162,43.2583565 C46.2245162,36.3203974 51.8487537,30.6961599 58.7867128,30.6961599 C65.7246719,30.6961599 71.3489094,36.3203974 71.3489094,43.2583565 L71.3489094,48.2832352 C71.3489094,55.2211943 65.7246719,60.8454318 58.7867128,60.8454318 Z" id="Shape" fill="#FFFFFF" fill-rule="nonzero"></path>
                    <path d="M58.7867128,55.3205531 C61.5481366,55.3205531 63.7867128,53.0819769 63.7867128,50.3205531 L53.7867128,50.3205531 C53.7867128,53.0819769 56.0252891,55.3205531 58.7867128,55.3205531 Z" id="Oval-5" fill="#8EBEED" opacity="0.5"></path>
                    <g id="Group-29" transform="translate(51.786713, 43.000000)" fill="#004D99">
                        <circle id="Oval-3" cx="1.88653994" cy="1.75844658" r="1.5"></circle>
                        <circle id="Oval-3-Copy" cx="11.685973" cy="1.75844658" r="1.5"></circle>
                    </g>
                    <g id="Group" transform="translate(31.120064, 66.324991)" fill="#004080" fill-rule="nonzero">
                        <path d="M27.6663441,7.50689365 C26.4995719,7.50689365 25.3331039,7.10225036 24.3911674,6.29296378 L16.9518157,0.00912729227 C16.9420799,0.0130824523 16.9350823,0.0206885292 16.9250423,0.0243394461 L11.6236067,2.08589053 L21.1162949,10.1039125 C22.9381025,11.6695474 25.264345,12.531468 27.6663441,12.531468 C30.0683432,12.531468 32.3945857,11.6692432 34.1838393,10.1312944 L43.7087772,2.08558628 L38.4073416,0.0237309599 C38.3976059,0.0197757999 38.3906083,0.012169723 38.3805682,0.00851880612 L30.9415208,6.29296378 C29.9998885,7.10225036 28.8331163,7.50689365 27.6663441,7.50689365 Z" id="Shape"></path>
                        <path d="M10.0792689,22.2797204 C10.0792689,20.2805392 9.28519443,18.3635036 7.8716811,16.9499902 L0.744178563,9.8224877 C0.296636999,10.9667459 0.0295115783,12.1925413 0.0295115783,13.4700579 L0.0295115783,26.694896 L10.0792689,26.694896 L10.0792689,22.2797204 Z" id="Shape"></path>
                        <path d="M45.2537236,22.2797204 C45.2537236,20.2805392 46.047798,18.3635036 47.4613113,16.9499902 L54.5888139,9.8224877 C55.0363554,10.9667459 55.3034809,12.1925413 55.3034809,13.4700579 L55.3034809,26.694896 L45.2537236,26.694896 L45.2537236,22.2797204 Z" id="Shape"></path>
                    </g>
                    <path d="M70.9166667,47 L70.3056515,39.6678181 C70.1328875,37.5946496 68.399823,36 66.3194685,36 L51.6805315,36 C49.600177,36 47.8671125,37.5946496 47.6943485,39.6678181 L47.0833333,47 L45.6319485,47 L44.9419788,40.0549928 C44.2867862,33.4600417 49.1019119,27.5826391 55.6968629,26.9274466 C56.0910938,26.8882808 56.4870223,26.8686618 56.8831939,26.8686618 L61.157536,26.8686618 C67.784953,26.8686618 73.157536,32.2412448 73.157536,38.8686618 C73.157536,39.2648334 73.137917,39.6607619 73.0987511,40.0549928 L72.4087814,47 L70.9166667,47 Z" id="Combined-Shape" fill="#004D99"></path>
                    <circle id="Oval-6" fill="#FFFFFF" cx="46.820192" cy="46.5956757" r="2.59567574"></circle>
                    <circle id="Oval-6-Copy" fill="#FFFFFF" cx="71.1233861" cy="46.5956757" r="2.59567574"></circle>
                </g>
            </g>
            <g id="chat-(2)" transform="translate(289.500000, 22.073065)" fill-rule="nonzero">
                <path d="M25.653,16.5 C24.74,16.5 24,17.24 24,18.153 L24,51.5 L24,59.5 L32,51.5 L67.347,51.5 C68.26,51.5 69,50.76 69,49.847 L69,18.153 C69,17.24 68.26,16.5 67.347,16.5 L25.653,16.5 Z" id="Shape" fill="#8EBEED"></path>
                <path d="M1.653,0.5 C0.74,0.5 0,1.24 0,2.153 L0,35.5 L0,43.5 L8,35.5 L43.347,35.5 C44.26,35.5 45,34.76 45,33.847 L45,2.153 C45,1.24 44.26,0.5 43.347,0.5 L1.653,0.5 Z" id="Shape" fill="#8EBEED" opacity="0.5" transform="translate(22.500000, 22.000000) scale(-1, 1) translate(-22.500000, -22.000000) "></path>
                <path d="M9.653,24.5 C8.74,24.5 8,25.24 8,26.153 L8,59.5 L8,67.5 L16,59.5 L51.347,59.5 C52.26,59.5 53,58.76 53,57.847 L53,26.153 C53,25.24 52.26,24.5 51.347,24.5 L9.653,24.5 Z" id="Shape" fill="#0073E6"></path>
                <g id="Group-37" transform="translate(17.500000, 40.000000)" fill="#FFFFFF">
                    <circle id="Oval" cx="2.40224753" cy="2.485" r="2.40224753"></circle>
                    <circle id="Oval" cx="12.8119868" cy="2.485" r="2.40224753"></circle>
                    <circle id="Oval" cx="23.2217261" cy="2.485" r="2.40224753"></circle>
                </g>
            </g>
            <polygon id="Star" fill="#004080" transform="translate(390.040826, 9.269385) rotate(10.000000) translate(-390.040826, -9.269385) " points="390.040826 14.0552521 385.316893 16.5387706 386.219084 11.278594 382.397342 7.55331622 387.678859 6.7858668 390.040826 2 392.402792 6.7858668 397.68431 7.55331622 393.862568 11.278594 394.764759 16.5387706"></polygon>
            <polygon id="Star-Copy" fill="#004D99" transform="translate(31.923740, 127.273017) scale(-1, 1) rotate(10.000000) translate(-31.923740, -127.273017) " points="31.9237399 130.451716 28.7861763 132.101231 29.3853977 128.607503 26.8470554 126.133231 30.3549581 125.623502 31.9237399 122.444803 33.4925217 125.623502 37.0004244 126.133231 34.4620822 128.607503 35.0613035 132.101231"></polygon>
            <rect id="Rectangle-7" fill="#0073E6" x="72.0889204" y="172" width="26" height="26"></rect>
            <path d="M85.0874132,180.006556 C81.5592186,180.005857 78.6984866,182.865465 78.6977876,186.39366 C78.6973382,188.698348 79.9382703,190.824612 81.9451516,191.95777 C82.0064655,191.993095 82.0794629,192.002133 82.1475423,191.98281 C82.2151474,191.963936 82.2725667,191.919149 82.3073179,191.858185 L84.2778752,188.375601 C84.3501487,188.247631 84.3051119,188.085309 84.1772166,188.012911 C83.2796273,187.508769 82.9607002,186.372415 83.4648421,185.474825 C83.969009,184.577236 85.105338,184.258284 86.0029273,184.762451 C86.9005166,185.266593 87.2194686,186.402947 86.7153017,187.300536 C86.5477371,187.598867 86.3012833,187.845346 86.0029273,188.012911 C85.8750319,188.085309 85.8299952,188.247631 85.9022687,188.375601 L87.8675084,191.858185 C87.9021598,191.919349 87.9596041,191.964336 88.027284,191.983334 C88.0504765,191.99005 88.0744927,191.99347 88.0986588,191.993445 C88.1445693,191.993395 88.1897059,191.981487 88.2296748,191.958843 C91.3025338,190.225153 92.388159,186.328676 90.654494,183.255817 C89.5212857,181.247288 87.3935491,180.005407 85.0874132,180.006556" id="Fill-1" fill="#FFFFFF"></path>
            <rect id="Rectangle-7" fill="#0066CC" x="72.0889204" y="172" width="26" height="4.94221385"></rect>
            <g id="Group-6" transform="translate(398.830504, 54.883975)">
                <circle id="Oval" fill="#00C5CA" cx="13.0846433" cy="12.9647595" r="12.9618611"></circle>
                <path d="M6.86952276,11.9691803 L9.16998729,11.9691803 C9.35363782,11.9691803 9.49862508,12.1141675 9.49862508,12.2978181 L9.49862508,18.918903 C9.49862508,19.1025535 9.35363782,19.2475408 9.16998729,19.2475408 L6.86952276,19.2475408 C6.68587223,19.2475408 6.53121915,19.1025535 6.53121915,18.918903 L6.53121915,12.2978181 C6.53121915,12.1141675 6.68587223,11.9691803 6.86952276,11.9691803 Z M10.8518395,18.3196223 L17.8788888,18.3196223 C18.3911771,18.3196223 18.816473,17.9039922 18.816473,17.382038 C18.816473,16.9954053 18.5651618,16.6571017 18.2171924,16.5121145 L18.3911771,16.5121145 C18.8841338,16.5121145 19.2900981,15.9708287 19.2900981,15.477872 C19.2900981,14.9752495 18.8841338,14.5692852 18.3911771,14.5692852 L18.2171924,14.5692852 L18.2171924,14.4919586 L18.7198149,14.4919586 C19.2127716,14.4919586 19.6284017,14.0859943 19.6284017,13.5930376 C19.6284017,13.0904151 19.2127716,12.6844508 18.7198149,12.6844508 L18.2171924,12.6844508 L18.2171924,12.6071242 L18.7198149,12.6071242 C19.2127716,12.6071242 19.6284017,12.2011599 19.6284017,11.7082032 C19.6284017,11.2055807 19.2127716,10.7996164 18.7198149,10.7996164 L17.8208938,10.7996164 C17.7822306,10.7996164 17.7532331,10.7996164 17.7145699,10.7996164 C17.6952382,10.7996164 17.6662408,10.7996164 17.6372433,10.7996164 L14.7858272,10.7996164 C14.7568297,10.7899506 14.7568297,10.7609531 14.7858272,10.7029582 C14.8341563,10.6063 14.9404803,10.4129837 15.1047992,10.1230092 C15.2691181,9.83303464 15.4721002,9.45606777 15.5784242,8.9727769 C15.6847482,8.48948603 15.6750824,7.89987117 15.58809,7.43591193 C15.5107635,6.98161852 15.3464446,6.64331491 15.1434624,6.43066693 C14.9308145,6.21801894 14.689169,6.12136077 14.4378578,6.11169495 C14.1865465,6.10202914 13.9255694,6.16968986 13.7419189,6.33400875 C13.5582684,6.50799347 13.4616102,6.76897053 13.4132811,7.10727414 C13.3746179,7.45524357 13.4036153,7.88053953 13.3939495,8.1415166 C13.3746179,8.40249367 13.3262888,8.50881766 13.1619699,8.63447329 C12.9879852,8.76012892 12.7076765,8.92444781 12.4466994,9.14676161 C12.1857223,9.37874123 11.9440769,9.66871575 11.6927656,10.0070194 C11.2868013,10.5289735 10.2718905,11.8435247 10.2718905,12.4041421 L10.2718905,17.7396733 C10.2718905,18.0586452 10.5328675,18.3196223 10.8518395,18.3196223 Z" id="Shape" fill="#FEFEFE"></path>
            </g>
            <g id="Group-40" transform="translate(429.245944, 18.883975)">
                <circle id="Oval-Copy" fill="#66A5E3" cx="9.7284745" cy="9.62433948" r="9.61888256"></circle>
                <path d="M9.7284745,7.22688332 C10.3631177,6.12575019 11.0031853,5.57789577 12.277896,5.57789577 C13.68279,5.57789577 14.8273176,7.25942913 14.8273176,8.46904829 C14.8273176,10.6658903 11.7788603,13.0471585 9.7284745,14.3598393 C7.8842121,13.2261604 4.62963141,10.6658903 4.62963141,8.46904829 C4.62963141,7.25942913 5.77415895,5.57789577 7.17905295,5.57789577 C8.45376373,5.57789577 9.08840696,6.12575019 9.7284745,7.22688332 Z" id="Shape-Copy" fill="#FEFEFE" fill-rule="nonzero"></path>
            </g>
            <g id="Group-40-Copy-2" transform="translate(0.923740, 98.500000)">
                <circle id="Oval-Copy" fill="#65DDE0" cx="11.6741694" cy="11.5492074" r="11.5426591"></circle>
                <path d="M11.6741694,8.67225999 C12.4357413,7.35090023 13.2038223,6.69347493 14.7334752,6.69347493 C16.419348,6.69347493 17.7927811,8.71131496 17.7927811,10.1628579 C17.7927811,12.7990683 14.1346324,15.6565902 11.6741694,17.2318072 C9.46105452,15.8713925 5.55555769,12.7990683 5.55555769,10.1628579 C5.55555769,8.71131496 6.92899075,6.69347493 8.61486354,6.69347493 C10.1445165,6.69347493 10.9060884,7.35090023 11.6741694,8.67225999 Z" id="Shape-Copy" fill="#FEFEFE" fill-rule="nonzero"></path>
            </g>
        </g>
    </g>
</svg>
