<?xml version="1.0" encoding="UTF-8" standalone="no"?>
<svg
   xmlns:dc="http://purl.org/dc/elements/1.1/"
   xmlns:cc="http://creativecommons.org/ns#"
   xmlns:rdf="http://www.w3.org/1999/02/22-rdf-syntax-ns#"
   xmlns:svg="http://www.w3.org/2000/svg"
   xmlns="http://www.w3.org/2000/svg"
   xmlns:sodipodi="http://sodipodi.sourceforge.net/DTD/sodipodi-0.dtd"
   xmlns:inkscape="http://www.inkscape.org/namespaces/inkscape"
   width="446px"
   height="476px"
   viewBox="0 0 446 476"
   version="1.1"
   id="svg117"
   sodipodi:docname="come-partecipo-4.svg"
   inkscape:version="1.0.2 (e86c870879, 2021-01-15)">
  <metadata
     id="metadata121">
    <rdf:RDF>
      <cc:Work
         rdf:about="">
        <dc:format>image/svg+xml</dc:format>
        <dc:type
           rdf:resource="http://purl.org/dc/dcmitype/StillImage" />
      </cc:Work>
    </rdf:RDF>
  </metadata>
  <sodipodi:namedview
     pagecolor="#ffffff"
     bordercolor="#666666"
     borderopacity="1"
     objecttolerance="10"
     gridtolerance="10"
     guidetolerance="10"
     inkscape:pageopacity="0"
     inkscape:pageshadow="2"
     inkscape:window-width="1920"
     inkscape:window-height="1016"
     id="namedview119"
     showgrid="false"
     inkscape:zoom="1.7223629"
     inkscape:cx="159.13425"
     inkscape:cy="307.67173"
     inkscape:window-x="0"
     inkscape:window-y="27"
     inkscape:window-maximized="1"
     inkscape:current-layer="Group-14" />
  <!-- Generator: Sketch 50 (54983) - http://www.bohemiancoding.com/sketch -->
  <title
     id="title2">Group 14</title>
  <desc
     id="desc4">Created with Sketch.</desc>
  <defs
     id="defs11">
    <linearGradient
       x1="49.9984216%"
       y1="91.663444%"
       x2="49.9984216%"
       y2="103.816778%"
       id="linearGradient-1">
      <stop
         stop-color="#FFF2EB"
         offset="0%"
         id="stop6" />
      <stop
         stop-color="#F1DACB"
         offset="100%"
         id="stop8" />
    </linearGradient>
  </defs>
  <g
     id="Page-1"
     stroke="none"
     stroke-width="1"
     fill="none"
     fill-rule="evenodd">
    <g
       id="Group-14"
       transform="translate(0,-1)">
      <g
         id="Group-46-Copy-2"
         transform="translate(-79.910958,154.30145)">
        <g
           id="Group-40-Copy">
          <path
             d="m 127.0717,0.55017334 c -6.60804,0 -11.99579,5.35402826 -11.99579,11.99578466 0,7.066238 0,117.264172 0,122.731652 0,6.60883 5.35443,11.99579 11.99579,11.99579 5.93521,0 33.87288,0 39.82237,0 14.80093,0 83.82291,0 98.8948,0 4.09883,0 7.76803,-2.06291 9.94717,-5.28897 3.03008,-4.48523 1.74355,-8.50987 2.04862,-12.97606 v -3.13522 c 0,-45.10102 0,-72.265096 0,-113.327192 0,-6.6096227 -5.35522,-11.99578466 -11.99579,-11.99578466 -26.45792,0 -112.10294,0 -138.71717,0 z"
             id="Fill-1"
             fill="#e6e9f2" />
          <path
             d="m 184.37423,93.210214 c -10.47242,-0.0021 -18.96366,8.485836 -18.96574,18.958246 -0.001,6.8408 3.68201,13.15199 9.63885,16.51544 0.182,0.10485 0.39867,0.13167 0.60074,0.0743 0.20067,-0.056 0.3711,-0.18896 0.47425,-0.36991 l 5.84902,-10.33703 c 0.21452,-0.37984 0.0808,-0.86165 -0.29877,-1.07654 -2.66424,-1.4964 -3.61088,-4.86934 -2.11448,-7.53357 1.49647,-2.66423 4.86933,-3.61094 7.53356,-2.11447 2.66423,1.4964 3.61095,4.86933 2.11448,7.53356 -0.49737,0.88551 -1.22889,1.61711 -2.11448,2.11448 -0.37962,0.21489 -0.51329,0.6967 -0.29877,1.07654 l 5.83324,10.33703 c 0.10285,0.18155 0.27336,0.31508 0.47425,0.37147 0.0688,0.0199 0.14012,0.0301 0.21185,0.03 0.13627,-1.5e-4 0.27025,-0.0355 0.38888,-0.10271 9.12089,-5.14595 12.34325,-16.7115 7.19737,-25.83238 -3.3636,-5.961735 -9.67916,-9.647895 -16.52425,-9.644486"
             id="path14"
             fill="#5a6772"
             opacity="0.15" />
          <path
             d="m 47.525296,126.66269 c -25.801051,-0.005 -46.72106834,20.90669 -46.72618014,46.70774 -0.003286,16.85377 9.07142644,32.40275 23.74738714,40.68934 0.448378,0.25833 0.982195,0.32441 1.480047,0.18311 0.494384,-0.13802 0.914281,-0.46554 1.16841,-0.91136 l 14.410331,-25.46751 c 0.528523,-0.93582 0.199177,-2.12285 -0.736099,-2.65229 -6.563908,-3.6867 -8.896164,-11.99665 -5.209466,-18.56056 3.686882,-6.56391 11.996651,-8.89634 18.56056,-5.20946 6.563909,3.6867 8.896348,11.99665 5.209466,18.56056 -1.22537,2.18164 -3.027643,3.98409 -5.209466,5.20946 -0.935276,0.52944 -1.264621,1.71647 -0.736098,2.65229 l 14.371444,25.46751 c 0.253399,0.44728 0.673479,0.77626 1.16841,0.91519 0.169602,0.0491 0.345229,0.0741 0.521951,0.0739 0.335735,-3.6e-4 0.665811,-0.0874 0.958096,-0.25303 22.471265,-12.67816 30.410241,-41.1724 17.732266,-63.64366 C 79.949407,135.73594 64.389653,126.6543 47.525296,126.66269"
             id="path16"
             fill="#ffffff" />
          <path
             d="m 136.978,58.827993 h -6.11215 c -1.69356,0 -3.06658,-1.372624 -3.06658,-3.066585 0,-1.693961 1.37302,-3.066586 3.06658,-3.066586 h 6.11175 c 1.69357,0 3.06659,1.373021 3.06659,3.066586 3.9e-4,1.693961 -1.37263,3.066585 -3.06619,3.066585"
             id="Fill-3"
             fill="#d6dee8" />
          <path
             d="m 136.978,44.108383 h -6.11215 c -1.69356,0 -3.06658,-1.372625 -3.06658,-3.066586 0,-1.693961 1.37302,-3.066585 3.06658,-3.066585 h 6.11175 c 1.69357,0 3.06659,1.373021 3.06659,3.066585 3.9e-4,1.693565 -1.37263,3.066586 -3.06619,3.066586"
             id="Fill-4"
             fill="#ffffff" />
          <path
             d="m 136.978,73.548 h -6.11215 c -1.69356,0 -3.06658,-1.372624 -3.06658,-3.066585 0,-1.693961 1.37302,-3.066586 3.06658,-3.066586 h 6.11175 c 1.69357,0 3.06659,1.373022 3.06659,3.066586 3.9e-4,1.693961 -1.37263,3.066585 -3.06619,3.066585"
             id="Fill-5"
             fill="#ffffff" />
          <path
             d="m 136.978,88.268008 h -6.11215 c -1.69356,0 -3.06658,-1.372625 -3.06658,-3.066586 0,-1.693961 1.37302,-3.066585 3.06658,-3.066585 h 6.11175 c 1.69357,0 3.06659,1.373021 3.06659,3.066585 3.9e-4,1.693565 -1.37263,3.066586 -3.06619,3.066586"
             id="Fill-6"
             fill="#d6dee8" />
          <path
             d="m 136.978,102.98762 h -6.11215 c -1.69356,0 -3.06658,-1.37263 -3.06658,-3.066587 0,-1.693961 1.37302,-3.066586 3.06658,-3.066586 h 6.11175 c 1.69357,0 3.06659,1.373021 3.06659,3.066586 3.9e-4,1.693957 -1.37263,3.066587 -3.06619,3.066587"
             id="Fill-7"
             fill="#ffffff" />
          <path
             d="m 136.978,117.70763 h -6.11215 c -1.69356,0 -3.06658,-1.37263 -3.06658,-3.06659 0,-1.69396 1.37302,-3.06658 3.06658,-3.06658 h 6.11175 c 1.69357,0 3.06659,1.37302 3.06659,3.06658 3.9e-4,1.69356 -1.37263,3.06659 -3.06619,3.06659"
             id="Fill-8"
             fill="#d6dee8" />
          <g
             id="Group-13"
             transform="translate(115.03188,0.093161)">
            <path
               d="m 21.94612,132.33408 h -6.112145 c -1.693564,0 -3.066585,-1.37263 -3.066585,-3.06659 0,-1.69396 1.373021,-3.06659 3.066585,-3.06659 h 6.111749 c 1.693564,0 3.066585,1.37303 3.066585,3.06659 3.97e-4,1.69396 -1.372624,3.06659 -3.066189,3.06659"
               id="Fill-9"
               fill="#ffffff" />
            <path
               d="M 0.04403506,6.2043809 V 23.3604 H 162.75278 V 6.2043809 c 0,-3.1741839 -2.57319,-5.74736841 -5.74737,-5.74736841 H 5.7914035 c -3.1741839,0 -5.74736844,2.57318451 -5.74736844,5.74736841 z"
               id="Fill-11"
               fill="#5a6772" />
          </g>
          <g
             id="Group-22"
             transform="translate(165,37)">
            <path
               d="M 147.24161,43.29486 H 5.31503 c -2.6988333,0 -4.90653684,-2.2081 -4.90653684,-4.906537 V 5.2707862 c 0,-2.6988333 2.20810024,-4.90653684 4.90653684,-4.90653684 h 141.92658 c 2.69883,0 4.90653,2.20810024 4.90653,4.90653684 V 38.388323 c 0,2.698833 -2.2081,4.906537 -4.90653,4.906537"
               id="Fill-14"
               fill="#0073e6" />
            <path
               d="M 121.92304,32.255946 H 81.690465 c -1.693564,0 -3.066585,-1.372625 -3.066585,-3.066586 0,-1.693961 1.373021,-3.066586 3.066585,-3.066586 h 40.232575 c 1.69356,0 3.06658,1.372625 3.06658,3.066586 0,1.693961 -1.37302,3.066586 -3.06658,3.066586"
               id="Fill-18"
               fill="#004d99" />
            <path
               d="M 104.77118,17.536335 H 93.118158 c -1.693565,0 -3.066586,-1.372624 -3.066586,-3.066586 0,-1.693961 1.373021,-3.066585 3.066586,-3.066585 h 11.653022 c 1.69357,0 3.06659,1.372624 3.06659,3.066585 0,1.693565 -1.37302,3.066586 -3.06659,3.066586"
               id="Fill-19"
               fill="#f6f4f2" />
            <path
               d="m 135.49297,17.536335 h -18.96601 c -1.69357,0 -3.06659,-1.372624 -3.06659,-3.066586 0,-1.693961 1.37302,-3.066585 3.06659,-3.066585 h 18.96601 c 1.69357,0 3.06659,1.372624 3.06659,3.066585 0,1.693565 -1.37302,3.066586 -3.06659,3.066586"
               id="Fill-20"
               fill="#b4d4f4" />
            <path
               d="M 79.931443,17.536335 H 41.189717 c -1.693565,0 -3.066586,-1.372624 -3.066586,-3.066586 0,-1.693961 1.373021,-3.066585 3.066586,-3.066585 h 38.741726 c 1.693565,0 3.066586,1.372624 3.066586,3.066585 0,1.693565 -1.373021,3.066586 -3.066586,3.066586"
               id="Fill-21"
               fill="#f6f4f2" />
            <path
               d="M 70.318312,32.255946 H 58.665287 c -1.693564,0 -3.066585,-1.372625 -3.066585,-3.066586 0,-1.693961 1.373021,-3.066586 3.066585,-3.066586 h 11.653025 c 1.693565,0 3.066586,1.372625 3.066586,3.066586 3.97e-4,1.693961 -1.372624,3.066586 -3.066586,3.066586"
               id="Fill-22"
               fill="#b4d4f4" />
            <path
               d="M 46.743688,32.255946 H 40.63194 c -1.693565,0 -3.066586,-1.372625 -3.066586,-3.066586 0,-1.693961 1.373021,-3.066586 3.066586,-3.066586 h 6.111748 c 1.693565,0 3.066586,1.372625 3.066586,3.066586 0,1.693961 -1.373021,3.066586 -3.066586,3.066586"
               id="Fill-23"
               fill="#f6f4f2" />
            <path
               d="m 25.377164,32.255946 h -6.111748 c -1.693565,0 -3.066586,-1.372625 -3.066586,-3.066586 0,-1.693961 1.373021,-3.066586 3.066586,-3.066586 h 6.111748 c 1.693565,0 3.066586,1.372625 3.066586,3.066586 3.96e-4,1.693961 -1.372625,3.066586 -3.066586,3.066586"
               id="Fill-24"
               fill="#b4d4f4" />
            <path
               d="m 25.377164,17.536335 h -6.111748 c -1.693565,0 -3.066586,-1.372624 -3.066586,-3.066586 0,-1.693961 1.373021,-3.066585 3.066586,-3.066585 h 6.111748 c 1.693565,0 3.066586,1.372624 3.066586,3.066585 3.96e-4,1.693565 -1.372625,3.066586 -3.066586,3.066586"
               id="Fill-25"
               fill="#004d99" />
            <path
               d="m 135.49337,32.255549 c -0.20034,0 -0.40068,-0.02063 -0.60102,-0.06149 -0.19637,-0.03689 -0.38838,-0.09838 -0.57245,-0.171776 -0.18408,-0.07776 -0.36419,-0.171776 -0.5316,-0.282459 -0.16781,-0.114253 -0.32292,-0.241201 -0.46614,-0.384018 -0.13884,-0.138849 -0.26579,-0.294757 -0.38044,-0.466533 -0.11029,-0.163446 -0.20431,-0.343553 -0.28206,-0.527627 -0.0734,-0.183678 -0.13489,-0.376084 -0.17178,-0.57206 -0.12219,-0.598242 -0.0607,-1.179028 0.17178,-1.774493 0.0778,-0.184075 0.17177,-0.359818 0.28206,-0.527627 0.11465,-0.16781 0.2416,-0.327288 0.38044,-0.466534 0.14322,-0.142817 0.29833,-0.269764 0.46614,-0.384018 0.16741,-0.110682 0.34752,-0.204306 0.5316,-0.282459 0.18407,-0.07339 0.37608,-0.134882 0.57245,-0.171776 0.39671,-0.08172 0.80572,-0.08172 1.19807,0 0.19638,0.03689 0.38838,0.09839 0.57643,0.171776 0.18407,0.07776 0.36378,0.171777 0.52762,0.282459 0.16742,0.114254 0.32689,0.241201 0.46614,0.384018 0.14321,0.138849 0.26976,0.298724 0.38045,0.466534 0.11028,0.167809 0.20827,0.343552 0.28206,0.527627 0.0778,0.188041 0.13885,0.38005 0.17574,0.576026 0.0409,0.196372 0.0615,0.396712 0.0615,0.597448 0,0.199944 -0.0202,0.40068 -0.0615,0.601019 -0.0369,0.195976 -0.0984,0.388382 -0.17574,0.57206 -0.0738,0.184074 -0.17178,0.364181 -0.28206,0.527627 -0.11029,0.171776 -0.23724,0.327287 -0.38045,0.466533 -0.13885,0.142817 -0.29833,0.269765 -0.46614,0.384018 -0.16384,0.110683 -0.34355,0.204307 -0.52762,0.282459 -0.18805,0.07339 -0.38045,0.134882 -0.57643,0.171776 -0.19637,0.04086 -0.39671,0.06149 -0.59705,0.06149"
               id="Fill-26"
               fill="#f6f4f2" />
          </g>
          <g
             id="Group-24"
             transform="translate(214,89)">
            <path
               d="M 147.24161,43.397953 H 5.31503 c -2.6988333,0 -4.90653684,-2.2081 -4.90653684,-4.906537 V 5.3738791 c 0,-2.6988333 2.20810024,-4.90653687 4.90653684,-4.90653687 h 141.92658 c 2.69883,0 4.90653,2.20810027 4.90653,4.90653687 V 38.491416 c 0,2.698833 -2.2081,4.906537 -4.90653,4.906537"
               id="Fill-15"
               fill="#a1c8ef" />
            <path
               d="m 22.529762,30.993158 -7.568079,-7.568079 c -1.197674,-1.198071 -1.197674,-3.139184 0,-4.337255 l 7.568079,-7.568079 c 1.197674,-1.197278 3.139184,-1.197278 4.336858,0 1.197674,1.198071 1.197674,3.139184 0,4.337255 l -5.39965,5.399253 5.39965,5.399254 c 1.197674,1.19807 1.197674,3.139184 0,4.337254 -1.197674,1.198071 -3.139184,1.197675 -4.336858,3.97e-4"
               id="Fill-27"
               stroke="#a1c8ef"
               stroke-width="1.27196"
               fill="#f6f4f2" />
            <path
               d="m 49.987009,31.891315 c -0.784697,0 -1.56979,-0.299518 -2.168429,-0.898157 -1.197674,-1.198071 -1.197674,-3.139184 0,-4.337255 l 5.39965,-5.399253 -5.39965,-5.399254 c -1.197674,-1.19807 -1.197674,-3.139183 0,-4.337254 1.197674,-1.197278 3.139184,-1.197278 4.336858,0 l 7.568079,7.568079 c 1.197674,1.198071 1.197674,3.139184 0,4.337255 l -7.568079,7.568079 c -0.598639,0.598242 -1.383336,0.89776 -2.168429,0.89776"
               id="Fill-28"
               stroke="#a1c8ef"
               stroke-width="1.27196"
               fill="#f6f4f2" />
            <path
               d="m 31.712857,36.490796 c -1.59161,-0.5792 -2.412011,-2.339015 -1.832811,-3.930625 l 8.49956,-23.3532584 c 0.5792,-1.5912127 2.338618,-2.4112169 3.930625,-1.8328105 1.591609,0.5791999 2.41201,2.3390153 1.83281,3.9306249 l -8.499559,23.353259 c -0.574836,1.577724 -2.325131,2.415977 -3.930625,1.83281"
               id="Fill-29"
               stroke="#a1c8ef"
               stroke-width="1.27196"
               fill="#f6f4f2" />
          </g>
          <g
             id="Group-39"
             transform="translate(128.19578,9.124381)">
            <path
               d="m 3.1706664,6.3413785 c -0.8053259,0 -1.5987503,-0.3272876 -2.1668422,-0.8997434 C 0.43136841,4.8731465 0.10408083,4.0801188 0.10408083,3.2747929 c 0,-2.49016263 2.78809357,-3.8905568 4.76768757,-2.55165303 0.1678093,0.11464984 0.3268909,0.24120104 0.4661369,0.38401743 0.5724557,0.5684886 0.8993466,1.3615164 0.8993466,2.1672389 0,0.8053258 -0.3268909,1.5983536 -0.8993466,2.1668422 C 5.1986593,5.5840548 5.0395777,5.7110027 4.8717684,5.8212887 4.708323,5.9319714 4.5282156,6.0295626 4.3441411,6.1037478 4.1600667,6.1811067 3.9680579,6.2425971 3.7716854,6.2794914 3.5713457,6.3203527 3.371006,6.3413785 3.1706664,6.3413785"
               id="Fill-30"
               fill="#dd414c" />
            <path
               d="m 13.564527,6.3413785 c -0.20034,0 -0.401076,-0.020629 -0.597052,-0.06149 C 12.771102,6.2429938 12.579094,6.1815034 12.395019,6.1041445 12.206978,6.0303561 12.031234,5.9323682 11.863425,5.8216854 11.695616,5.7113994 11.540501,5.5844515 11.397288,5.4416351 10.824832,4.8731465 10.497941,4.0801188 10.497941,3.2747929 c 0,-0.8057225 0.326891,-1.5987503 0.899347,-2.1672389 0.143213,-0.14281638 0.298328,-0.26936758 0.466137,-0.38401741 0.167809,-0.11068272 0.343553,-0.2043068 0.531594,-0.28245911 0.184075,-0.0733918 0.376083,-0.13488216 0.572456,-0.17574352 0.392745,-0.0777556 0.801755,-0.0777556 1.198071,0 0.196372,0.0408614 0.388381,0.10235176 0.572455,0.17574352 0.188042,0.0777556 0.364182,0.17177639 0.531595,0.28245911 0.167412,0.11464983 0.322924,0.24120103 0.466137,0.38401741 0.568488,0.5684886 0.899743,1.3615164 0.899743,2.1672389 0,0.8053259 -0.331255,1.5983536 -0.899743,2.1668422 -0.142817,0.1428164 -0.298328,0.2697643 -0.466137,0.3800503 -0.167809,0.1106828 -0.343553,0.208274 -0.531595,0.2824591 -0.184074,0.077359 -0.376083,0.1388493 -0.572455,0.1757436 -0.20034,0.040465 -0.40068,0.06149 -0.601019,0.06149"
               id="Fill-31"
               fill="#eea03a" />
            <path
               d="m 23.962354,6.3413785 c -0.200339,0 -0.400679,-0.020629 -0.601019,-0.06149 C 23.164963,6.2429938 22.972954,6.1815034 22.788879,6.1041445 22.605202,6.0303561 22.425094,5.9323682 22.257285,5.8216854 22.089476,5.7113994 21.934361,5.5844515 21.791148,5.4416351 21.223056,4.8731465 20.895769,4.0801188 20.895769,3.2747929 c 0,-0.2003396 0.02063,-0.401076 0.05713,-0.6014157 0.04086,-0.1920087 0.09799,-0.3879846 0.175744,-0.572059 0.07775,-0.1840745 0.171776,-0.3641819 0.282062,-0.5276273 0.110286,-0.1717764 0.241201,-0.3268909 0.38005,-0.4665336 0.143214,-0.14281639 0.298328,-0.26936759 0.466137,-0.38401743 0.16781,-0.11068271 0.34752,-0.20430679 0.531595,-0.2824591 0.184074,-0.0733918 0.37648,-0.13488216 0.572456,-0.17574352 0.396315,-0.0777556 0.805325,-0.0777556 1.197674,0 0.196372,0.0408614 0.388381,0.10235176 0.572456,0.17574352 0.188438,0.0777556 0.364181,0.17177639 0.531594,0.2824591 0.167809,0.11464984 0.322924,0.24120104 0.466137,0.38401743 0.142816,0.139246 0.269764,0.2947572 0.38005,0.4665336 0.110286,0.1634454 0.208671,0.3435528 0.282062,0.5276273 0.07776,0.1840744 0.134883,0.3800503 0.175744,0.572059 0.04086,0.2003397 0.06109,0.4010761 0.06109,0.6014157 0,0.809293 -0.326891,1.5983536 -0.899347,2.1668422 -0.143213,0.1428164 -0.298328,0.2697643 -0.466137,0.3800503 -0.167809,0.1106828 -0.343553,0.208274 -0.531594,0.2824591 -0.184075,0.077359 -0.376083,0.1388493 -0.572456,0.1757436 -0.195182,0.040465 -0.395522,0.06149 -0.595862,0.06149"
               id="Fill-32"
               fill="#6daa43" />
            <path
               d="M 109.85174,6.3409817 H 36.729744 c -1.693564,0 -3.066586,-1.3726243 -3.066586,-3.0665855 0,-1.6939612 1.373022,-3.06658551 3.066586,-3.06658551 h 73.121996 c 1.69357,0 3.06659,1.37302101 3.06659,3.06658551 0,1.6935645 -1.37302,3.0665855 -3.06659,3.0665855"
               id="Fill-33"
               fill="#ffffff"
               opacity="0.2" />
            <path
               d="m 133.17485,6.3409817 h -12.53888 c -1.69357,0 -3.06659,-1.3726243 -3.06659,-3.0665855 0,-1.6939612 1.37302,-3.06658551 3.06659,-3.06658551 h 12.53888 c 1.69356,0 3.06659,1.37302101 3.06659,3.06658551 0,1.6935645 -1.37303,3.0665855 -3.06659,3.0665855"
               id="Fill-34"
               fill="#ffffff"
               opacity="0.2" />
          </g>
        </g>
      </g>
      <g
         id="chat"
         transform="matrix(-1,0,0,1,161.91956,0.454403)"
         fill-rule="nonzero">
        <path
           d="M 98.266733,0.93718249 H 20.11696 c -1.711296,0 -3.098326,1.38703011 -3.098326,3.09832531 V 19.680832 l 59.97968,46.859125 h 21.268419 c 1.711295,0 3.098327,-1.38703 3.098327,-3.098325 V 4.0355078 c 0,-1.7112952 -1.387032,-3.09832531 -3.098327,-3.09832531 z"
           id="path71"
           fill="#65dde0" />
        <path
           d="M 3.0983253,16.531642 C 1.3870301,16.531642 0,17.918672 0,19.629967 v 62.50445 10.166492 c 0,1.10457 0.8954305,2 2,2 0.530433,0 1.0391408,-0.210713 1.4142136,-0.585786 L 14.99492,82.134417 h 66.253179 c 1.711295,0 3.098325,-1.38703 3.098325,-3.098326 V 19.629967 c 0,-1.711295 -1.38703,-3.098325 -3.098325,-3.098325 z"
           id="path73"
           fill="#0066cc" />
        <path
           d="M 65.602774,37.149657 H 43.110395 c -1.036524,0 -1.874365,-0.839716 -1.874365,-1.874365 0,-1.03465 0.837841,-1.874365 1.874365,-1.874365 h 22.492379 c 1.036524,0 1.874365,0.839715 1.874365,1.874365 0,1.034649 -0.837841,1.874365 -1.874365,1.874365 z"
           id="path75"
           fill="#ffffff" />
        <path
           d="M 65.602774,50.270212 H 18.74365 c -1.036524,0 -1.874365,-0.839716 -1.874365,-1.874365 0,-1.03465 0.837841,-1.874365 1.874365,-1.874365 h 46.859124 c 1.036524,0 1.874365,0.839715 1.874365,1.874365 0,1.034649 -0.837841,1.874365 -1.874365,1.874365 z"
           id="path77"
           fill="#ffffff" />
        <path
           d="M 65.602774,63.390767 H 18.74365 c -1.036524,0 -1.874365,-0.839716 -1.874365,-1.874365 0,-1.03465 0.837841,-1.874365 1.874365,-1.874365 h 46.859124 c 1.036524,0 1.874365,0.839715 1.874365,1.874365 0,1.034649 -0.837841,1.874365 -1.874365,1.874365 z"
           id="path79"
           fill="#ffffff" />
      </g>
      <g
         id="Group-21"
         transform="translate(254.09894,316.49183)"
         fill-rule="nonzero">
        <g
           id="chat-bubble"
           transform="translate(0.026736,0.09191)">
          <path
             d="M 0.46757617,70.852221 V 34.623034 7.8314104 c 0,-4.0431871 3.26364003,-7.3068271 7.30682713,-7.3068271 H 80.842675 c 4.043187,0 7.306827,3.26364 7.306827,7.3068271 v 9.7425126 53.278298 c 0,2.571833 -2.084883,4.656716 -4.656717,4.656716 H 5.1242926 c -2.5718335,0 -4.65671643,-2.084883 -4.65671643,-4.656716 z"
             id="path82"
             fill="#0ab6bb" />
          <path
             d="m 146.45523,26.104701 v 43.840963 c 0,4.043187 -3.26365,7.306827 -7.30683,7.306827 h -4.87114 -12.1782 -60.890304 c 0,-32.474736 0,-50.335895 0,-53.583475 0,-4.871142 4.871371,-4.871142 4.871371,-4.871142 h 56.018933 17.04934 c 4.04296,0 7.30683,3.26364 7.30683,7.306827 z"
             id="path84"
             fill="#e6e9f2" />
        </g>
        <g
           id="Group-20"
           transform="translate(16.972456,37.116401)">
          <path
             d="M 4.868351,0 C 2.6478271,0 0.84805966,1.7997674 0.84805966,4.0202913 V 85.124135 100.83365 c 0,0.85727 0.69496094,1.55223 1.55223884,1.55223 0.4116793,0 0.8064973,-0.16353 1.0975986,-0.45464 L 20.305005,85.124135 h 85.968075 c 2.22053,0 4.0203,-1.799767 4.0203,-4.020291 V 4.0202913 C 110.29338,1.7997674 108.49361,0 106.27308,0 Z"
             id="path87"
             fill="#65dde0" />
          <g
             id="Group-17"
             transform="translate(21.833921,20.71678)"
             fill="#ffffff">
            <path
               d="M 32.36431,5.4733729 H 3.1788923 c -1.3449613,0 -2.43211814,-1.0895889 -2.43211814,-2.4321181 0,-1.3425293 1.08715684,-2.43211819 2.43211814,-2.43211819 H 32.36431 c 1.344961,0 2.432118,1.08958889 2.432118,2.43211819 0,1.3425292 -1.087157,2.4321181 -2.432118,2.4321181 z"
               id="path89" />
            <path
               d="M 63.981846,22.4982 H 3.1788923 c -1.3449613,0 -2.43211814,-1.089589 -2.43211814,-2.432118 0,-1.342529 1.08715684,-2.432118 2.43211814,-2.432118 H 63.981846 c 1.344962,0 2.432118,1.089589 2.432118,2.432118 0,1.342529 -1.087156,2.432118 -2.432118,2.432118 z"
               id="path91" />
            <path
               d="M 63.981846,39.523027 H 3.1788923 c -1.3449613,0 -2.43211814,-1.089589 -2.43211814,-2.432118 0,-1.342529 1.08715684,-2.432118 2.43211814,-2.432118 H 63.981846 c 1.344962,0 2.432118,1.089589 2.432118,2.432118 0,1.342529 -1.087156,2.432118 -2.432118,2.432118 z"
               id="path93" />
          </g>
        </g>
      </g>
      <g
         id="Group-23"
         transform="translate(240.25595,56.05311)">
        <path
           d="M 52.169633,93.132294 H 18.799824 c -5.396369,0 -9.811717,-4.415348 -9.811717,-9.811717 V 58.85458 c 0,-5.396369 4.415348,-9.811717 9.811717,-9.811717 h 33.369809 c 5.396671,0 9.811717,4.415348 9.811717,9.811717 v 24.465997 c 0,5.396369 -4.415046,9.811717 -9.811717,9.811717"
           id="path98"
           fill="#8ebeed" />
        <path
           d="m 134.69985,93.132294 h -33.36981 c -5.396372,0 -9.811418,-4.415348 -9.811418,-9.811717 V 58.85458 c 0,-5.396369 4.415046,-9.811717 9.811418,-9.811717 h 33.36981 c 5.39636,0 9.81171,4.415348 9.81171,9.811717 v 24.465997 c 0,5.396369 -4.41535,9.811717 -9.81171,9.811717"
           id="Fill-2"
           fill="#8ebeed" />
        <polyline
           id="polyline101"
           fill="#ffffff"
           opacity="0.3"
           points="33.6719402 92.2159295 55.2214623 49.1742903 63.8337179 53.4863097 42.2841958 96.5279489 33.6719402 92.2159295" />
        <polyline
           id="polyline103"
           fill="#ffffff"
           opacity="0.3"
           points="117.764475 91.5473127 139.314299 48.5056735 147.926555 52.8173907 126.37673 95.8593321 117.764475 91.5473127" />
        <g
           id="Group-12"
           transform="translate(0,0.166462)">
          <path
             d="M 32.224731,24.670237 37.353109,14.488711 C 43.772193,1.7448088 59.451,-3.4303999 72.194902,2.9886838 l 5.221133,2.6300538 41.897775,20.9050754 34.51639,17.704598 -1.18677,4.647688 H 129.03972 V 44.033537 L 77.809108,18.2294 62.993375,13.761098 c -5.409416,-1.631435 -11.25527,0.390127 -14.501285,5.014707 v 0 c -3.321071,4.731511 -9.070937,7.126229 -14.76879,6.150939 z"
             id="path105"
             fill="#17324d" />
          <path
             d="M 79.315837,17.271946 C 87.277,13.262058 96.672984,8.3938146 103.17787,14.489013 c 2.05684,1.927293 3.86267,4.072782 5.41751,6.436468 l -4e-5,1.9e-5 c 3.04204,4.624558 9.06706,6.235028 14.01079,3.745039 L 117.47775,14.489013 C 111.05867,1.745111 95.379862,-3.4300978 82.635959,2.9889859 L 1.1323885,44.137772 0.40817952,49.608163 H 26.193282 l -0.0088,-5.574324 z"
             id="path107"
             fill="#455b71" />
          <path
             d="m 76.749835,63.682048 c -5.605746,0 -10.150104,4.544358 -10.150104,10.150406 H 62.159306 V 59.026807 h 4.440425 c 3.029572,-3.206412 6.41294,-4.809617 10.150104,-4.809617 3.737366,0 7.120834,1.603205 10.150407,4.809617 h 4.152796 v 14.805647 h -4.152796 c 0,-5.606048 -4.544359,-10.150406 -10.150407,-10.150406 z"
             id="Fill-10"
             fill="#17324d" />
          <path
             d="m 58.443089,78.392826 c 0,6.610937 -5.378241,11.98948 -11.988876,11.98948 H 24.515848 c -6.610937,0 -11.989178,-5.378543 -11.989178,-11.98948 V 58.154252 c 0,-3.288398 2.675374,-5.964376 5.964074,-5.964376 h 33.988574 c 3.288398,0 5.963771,2.675676 5.963771,5.964376 z m -54.0727583,0 c 0,11.108465 9.0373543,20.145819 20.1455173,20.145819 h 21.938063 c 11.108163,0 20.145518,-9.037354 20.145518,-20.145819 V 58.154252 c 0,-7.785926 -6.334487,-14.120413 -14.120413,-14.120413 H 1.6312074 C 0.73387717,44.033839 0,44.768018 0,45.665348 v 4.893623 l 4.3703307,7.595281 z"
             id="path110"
             fill="#17324d" />
        </g>
        <path
           d="m 140.9733,58.320714 v 20.238574 c 0,6.610937 -5.37854,11.98948 -11.98918,11.98948 h -21.93836 c -6.61094,0 -11.989179,-5.378543 -11.989179,-11.98948 V 58.320714 c 0,-3.288398 2.675676,-5.964376 5.964079,-5.964376 h 33.98857 c 3.2887,3.02e-4 5.96407,2.675978 5.96407,5.964376 z m 13.71798,-7.595281 v -4.893622 c 0,-0.897331 -0.73388,-1.63151 -1.63121,-1.63151 h -52.03941 c -7.785931,0 -14.120418,6.334487 -14.120418,14.120413 v 20.238574 c 0,11.108465 9.037354,20.14582 20.145518,20.14582 h 21.93806 c 11.10816,0 20.14552,-9.037355 20.14552,-20.14582 V 58.320714 Z"
           id="Fill-13"
           fill="#17324d" />
      </g>
    </g>
  </g>
</svg>
