<?xml version="1.0" encoding="UTF-8"?>
<svg width="498px" height="450px" viewBox="0 0 498 450" version="1.1" xmlns="http://www.w3.org/2000/svg" xmlns:xlink="http://www.w3.org/1999/xlink">
    <!-- Generator: Sketch 50 (54983) - http://www.bohemiancoding.com/sketch -->
    <title>Group 2</title>
    <desc>Created with Sketch.</desc>
    <defs>
        <polygon id="path-1" points="0.0276150628 0.335983264 219.76205 0.335983264 219.76205 18.8702929 0.0276150628 18.8702929"></polygon>
    </defs>
    <g id="Page-1" stroke="none" stroke-width="1" fill="none" fill-rule="evenodd">
        <g id="Group-2">
            <g id="Group-53" transform="translate(277.566911, 96.000000)">
                <g id="Group-45" transform="translate(0.000000, 46.000000)">
                    <g id="Group" transform="translate(0.014146, 0.000000)">
                        <path d="M88.6991213,28.8294979 C86.5055649,28.8294979 84.7276151,27.0520084 84.7276151,24.8579916 L84.7276151,8.97150628 C84.7276151,6.77748954 86.5055649,5 88.6991213,5 C90.8926778,5 92.6706276,6.77748954 92.6706276,8.97150628 L92.6706276,24.8579916 C92.6706276,27.0520084 90.8926778,28.8294979 88.6991213,28.8294979" id="Fill-1" fill="#455B71"></path>
                        <polygon id="Fill-2" fill="#EDEFF2" points="51.6309623 141.358577 125.76728 141.358577 125.76728 46.0396653 51.6309623 46.0396653"></polygon>
                        <polygon id="Fill-3" fill="#D8D8D8" points="109.881255 141.358577 131.062929 141.358577 131.062929 46.0396653 109.881255 46.0396653"></polygon>
                        <rect id="Rectangle-18" fill="#D8D8D8" x="143" y="0" width="8" height="26"></rect>
                        <rect id="Rectangle-18-Copy" fill="#D8D8D8" x="174.750418" y="0" width="8" height="26"></rect>
                        <polygon id="Fill-4" fill="#D8D8D8" points="67.5174477 46.0396653 109.881255 46.0396653 109.881255 24.8579916 67.5174477 24.8579916"></polygon>
                        <path d="M104.585607,71.1933054 L72.812636,71.1933054 C70.6195397,71.1933054 68.8411297,69.4158159 68.8411297,67.2217992 C68.8411297,65.0277824 70.6195397,63.2502929 72.812636,63.2502929 L104.585607,63.2502929 C106.779163,63.2502929 108.557113,65.0277824 108.557113,67.2217992 C108.557113,69.4158159 106.779163,71.1933054 104.585607,71.1933054" id="Fill-5" fill="#17324D" opacity="0.1"></path>
                        <path d="M104.585607,92.3754393 L88.6991213,92.3754393 C86.5055649,92.3754393 84.7276151,90.5974895 84.7276151,88.4034728 C84.7276151,86.2099163 86.5055649,84.4319665 88.6991213,84.4319665 L104.585607,84.4319665 C106.779163,84.4319665 108.557113,86.2099163 108.557113,88.4034728 C108.557113,90.5974895 106.779163,92.3754393 104.585607,92.3754393" id="Fill-6" fill="#17324D" opacity="0.1"></path>
                        <path d="M104.585607,113.557113 L88.6991213,113.557113 C86.5055649,113.557113 84.7276151,111.779623 84.7276151,109.585607 C84.7276151,107.39159 86.5055649,105.6141 88.6991213,105.6141 L104.585607,105.6141 C106.779163,105.6141 108.557113,107.39159 108.557113,109.585607 C108.557113,111.779623 106.779163,113.557113 104.585607,113.557113" id="Fill-7" fill="#17324D" opacity="0.1"></path>
                        <polygon id="Fill-8" fill="#5A6772" points="126.132178 236.677029 200.268956 236.677029 200.268956 24.8579916 126.132178 24.8579916"></polygon>
                        <path d="M146.949414,55.3068201 C144.755858,55.3068201 142.977908,53.5293305 142.977908,51.3353138 L142.977908,46.0396653 C142.977908,43.8461088 144.755858,42.068159 146.949414,42.068159 C149.142971,42.068159 150.920921,43.8461088 150.920921,46.0396653 L150.920921,51.3353138 C150.920921,53.5293305 149.142971,55.3068201 146.949414,55.3068201" id="Fill-9" fill="#FFFFFF" opacity="0.200000018"></path>
                        <path d="M162.8359,55.3068201 C160.642343,55.3068201 158.864393,53.5293305 158.864393,51.3353138 L158.864393,46.0396653 C158.864393,43.8461088 160.642343,42.068159 162.8359,42.068159 C165.028996,42.068159 166.807406,43.8461088 166.807406,46.0396653 L166.807406,51.3353138 C166.807406,53.5293305 165.028996,55.3068201 162.8359,55.3068201" id="Fill-10" fill="#FFFFFF" opacity="0.200000018"></path>
                        <path d="M178.722385,55.3068201 C176.528828,55.3068201 174.750418,53.5293305 174.750418,51.3353138 L174.750418,46.0396653 C174.750418,43.8461088 176.528828,42.068159 178.722385,42.068159 C180.915481,42.068159 182.693891,43.8461088 182.693891,46.0396653 L182.693891,51.3353138 C182.693891,53.5293305 180.915481,55.3068201 178.722385,55.3068201" id="Fill-11" fill="#FFFFFF" opacity="0.200000018"></path>
                        <path d="M146.949414,81.7841423 C144.755858,81.7841423 142.977908,80.0066527 142.977908,77.812636 L142.977908,72.5174477 C142.977908,70.323431 144.755858,68.5454812 146.949414,68.5454812 C149.142971,68.5454812 150.920921,70.323431 150.920921,72.5174477 L150.920921,77.812636 C150.920921,80.0066527 149.142971,81.7841423 146.949414,81.7841423" id="Fill-12" fill="#FFFFFF" opacity="0.200000018"></path>
                        <path d="M162.8359,81.7841423 C160.642343,81.7841423 158.864393,80.0066527 158.864393,77.812636 L158.864393,72.5174477 C158.864393,70.323431 160.642343,68.5454812 162.8359,68.5454812 C165.028996,68.5454812 166.807406,70.323431 166.807406,72.5174477 L166.807406,77.812636 C166.807406,80.0066527 165.028996,81.7841423 162.8359,81.7841423" id="Fill-13" fill="#FFFFFF" opacity="0.200000018"></path>
                        <path d="M178.722385,81.7841423 C176.528828,81.7841423 174.750418,80.0066527 174.750418,77.812636 L174.750418,72.5174477 C174.750418,70.323431 176.528828,68.5454812 178.722385,68.5454812 C180.915481,68.5454812 182.693891,70.323431 182.693891,72.5174477 L182.693891,77.812636 C182.693891,80.0066527 180.915481,81.7841423 178.722385,81.7841423" id="Fill-14" fill="#FFFFFF" opacity="0.200000018"></path>
                        <path d="M146.949414,108.261925 C144.755858,108.261925 142.977908,106.483975 142.977908,104.289958 L142.977908,98.9947699 C142.977908,96.8007531 144.755858,95.0232636 146.949414,95.0232636 C149.142971,95.0232636 150.920921,96.8007531 150.920921,98.9947699 L150.920921,104.289958 C150.920921,106.483975 149.142971,108.261925 146.949414,108.261925" id="Fill-15" fill="#FFFFFF" opacity="0.200000018"></path>
                        <path d="M162.8359,108.261925 C160.642343,108.261925 158.864393,106.483975 158.864393,104.289958 L158.864393,98.9947699 C158.864393,96.8007531 160.642343,95.0232636 162.8359,95.0232636 C165.028996,95.0232636 166.807406,96.8007531 166.807406,98.9947699 L166.807406,104.289958 C166.807406,106.483975 165.028996,108.261925 162.8359,108.261925" id="Fill-16" fill="#FFFFFF" opacity="0.200000018"></path>
                        <path d="M178.722385,108.261925 C176.528828,108.261925 174.750418,106.483975 174.750418,104.289958 L174.750418,98.9947699 C174.750418,96.8007531 176.528828,95.0232636 178.722385,95.0232636 C180.915481,95.0232636 182.693891,96.8007531 182.693891,98.9947699 L182.693891,104.289958 C182.693891,106.483975 180.915481,108.261925 178.722385,108.261925" id="Fill-17" fill="#FFFFFF" opacity="0.200000018"></path>
                        <path d="M146.949414,134.739247 C144.755858,134.739247 142.977908,132.961297 142.977908,130.76728 L142.977908,125.472092 C142.977908,123.278075 144.755858,121.500586 146.949414,121.500586 C149.142971,121.500586 150.920921,123.278075 150.920921,125.472092 L150.920921,130.76728 C150.920921,132.961297 149.142971,134.739247 146.949414,134.739247" id="Fill-18" fill="#FFFFFF" opacity="0.200000018"></path>
                        <path d="M162.8359,134.739247 C160.642343,134.739247 158.864393,132.961297 158.864393,130.76728 L158.864393,125.472092 C158.864393,123.278075 160.642343,121.500586 162.8359,121.500586 C165.028996,121.500586 166.807406,123.278075 166.807406,125.472092 L166.807406,130.76728 C166.807406,132.961297 165.028996,134.739247 162.8359,134.739247" id="Fill-19" fill="#FFFFFF" opacity="0.200000018"></path>
                        <path d="M162.8359,161.216569 C160.642343,161.216569 158.864393,159.438619 158.864393,157.245063 L158.864393,151.949414 C158.864393,149.755397 160.642343,147.977908 162.8359,147.977908 C165.028996,147.977908 166.807406,149.755397 166.807406,151.949414 L166.807406,157.245063 C166.807406,159.438619 165.028996,161.216569 162.8359,161.216569" id="Fill-20" fill="#FFFFFF" opacity="0.200000018"></path>
                        <path d="M162.8359,187.693891 C160.642343,187.693891 158.864393,185.915941 158.864393,183.722385 L158.864393,178.426736 C158.864393,176.23272 160.642343,174.45523 162.8359,174.45523 C165.028996,174.45523 166.807406,176.23272 166.807406,178.426736 L166.807406,183.722385 C166.807406,185.915941 165.028996,187.693891 162.8359,187.693891" id="Fill-21" fill="#FFFFFF" opacity="0.200000018"></path>
                        <path d="M162.8359,214.171213 C160.642343,214.171213 158.864393,212.393264 158.864393,210.199707 L158.864393,204.904059 C158.864393,202.710042 160.642343,200.932552 162.8359,200.932552 C165.028996,200.932552 166.807406,202.710042 166.807406,204.904059 L166.807406,210.199707 C166.807406,212.393264 165.028996,214.171213 162.8359,214.171213" id="Fill-22" fill="#FFFFFF" opacity="0.200000018"></path>
                        <path d="M178.722385,134.739247 C176.528828,134.739247 174.750418,132.961297 174.750418,130.76728 L174.750418,125.472092 C174.750418,123.278075 176.528828,121.500586 178.722385,121.500586 C180.915481,121.500586 182.693891,123.278075 182.693891,125.472092 L182.693891,130.76728 C182.693891,132.961297 180.915481,134.739247 178.722385,134.739247" id="Fill-23" fill="#FFFFFF" opacity="0.200000018"></path>
                        <path d="M178.722385,161.216569 C176.528828,161.216569 174.750418,159.438619 174.750418,157.245063 L174.750418,151.949414 C174.750418,149.755397 176.528828,147.977908 178.722385,147.977908 C180.915481,147.977908 182.693891,149.755397 182.693891,151.949414 L182.693891,157.245063 C182.693891,159.438619 180.915481,161.216569 178.722385,161.216569" id="Fill-24" fill="#FFFFFF" opacity="0.200000018"></path>
                        <path d="M178.722385,187.693891 C176.528828,187.693891 174.750418,185.915941 174.750418,183.722385 L174.750418,178.426736 C174.750418,176.23272 176.528828,174.45523 178.722385,174.45523 C180.915481,174.45523 182.693891,176.23272 182.693891,178.426736 L182.693891,183.722385 C182.693891,185.915941 180.915481,187.693891 178.722385,187.693891" id="Fill-25" fill="#FFFFFF" opacity="0.200000018"></path>
                        <path d="M178.722385,214.171213 C176.528828,214.171213 174.750418,212.393264 174.750418,210.199707 L174.750418,204.904059 C174.750418,202.710042 176.528828,200.932552 178.722385,200.932552 C180.915481,200.932552 182.693891,202.710042 182.693891,204.904059 L182.693891,210.199707 C182.693891,212.393264 180.915481,214.171213 178.722385,214.171213" id="Fill-26" fill="#FFFFFF" opacity="0.200000018"></path>
                        <polygon id="Fill-27" fill="#F0F6FC" points="14.5623431 236.677029 88.6991213 236.677029 88.6991213 83.1082845 14.5623431 83.1082845"></polygon>
                        <path d="M35.744477,118.852762 C33.5509205,118.852762 31.7729707,117.074812 31.7729707,114.881255 L31.7729707,109.585607 C31.7729707,107.39159 33.5509205,105.6141 35.744477,105.6141 C37.9380335,105.6141 39.7159833,107.39159 39.7159833,109.585607 L39.7159833,114.881255 C39.7159833,117.074812 37.9380335,118.852762 35.744477,118.852762" id="Fill-28" fill="#CFE4ED"></path>
                        <path d="M51.6309623,118.852762 C49.4374059,118.852762 47.6594561,117.074812 47.6594561,114.881255 L47.6594561,109.585607 C47.6594561,107.39159 49.4374059,105.6141 51.6309623,105.6141 C53.8240586,105.6141 55.6024686,107.39159 55.6024686,109.585607 L55.6024686,114.881255 C55.6024686,117.074812 53.8240586,118.852762 51.6309623,118.852762" id="Fill-29" fill="#CFE4ED"></path>
                        <path d="M67.5174477,118.852762 C65.3238912,118.852762 63.5454812,117.074812 63.5454812,114.881255 L63.5454812,109.585607 C63.5454812,107.39159 65.3238912,105.6141 67.5174477,105.6141 C69.7105439,105.6141 71.488954,107.39159 71.488954,109.585607 L71.488954,114.881255 C71.488954,117.074812 69.7105439,118.852762 67.5174477,118.852762" id="Fill-30" fill="#CFE4ED"></path>
                        <path d="M35.744477,145.330084 C33.5509205,145.330084 31.7729707,143.552134 31.7729707,141.358577 L31.7729707,136.062929 C31.7729707,133.868912 33.5509205,132.091423 35.744477,132.091423 C37.9380335,132.091423 39.7159833,133.868912 39.7159833,136.062929 L39.7159833,141.358577 C39.7159833,143.552134 37.9380335,145.330084 35.744477,145.330084" id="Fill-31" fill="#CFE4ED"></path>
                        <path d="M51.6309623,145.330084 C49.4374059,145.330084 47.6594561,143.552134 47.6594561,141.358577 L47.6594561,136.062929 C47.6594561,133.868912 49.4374059,132.091423 51.6309623,132.091423 C53.8240586,132.091423 55.6024686,133.868912 55.6024686,136.062929 L55.6024686,141.358577 C55.6024686,143.552134 53.8240586,145.330084 51.6309623,145.330084" id="Fill-32" fill="#CFE4ED"></path>
                        <path d="M67.5174477,145.330084 C65.3238912,145.330084 63.5454812,143.552134 63.5454812,141.358577 L63.5454812,136.062929 C63.5454812,133.868912 65.3238912,132.091423 67.5174477,132.091423 C69.7105439,132.091423 71.488954,133.868912 71.488954,136.062929 L71.488954,141.358577 C71.488954,143.552134 69.7105439,145.330084 67.5174477,145.330084" id="Fill-33" fill="#CFE4ED"></path>
                        <path d="M35.744477,171.807406 C33.5509205,171.807406 31.7729707,170.029916 31.7729707,167.8359 L31.7729707,162.540251 C31.7729707,160.346234 33.5509205,158.568745 35.744477,158.568745 C37.9380335,158.568745 39.7159833,160.346234 39.7159833,162.540251 L39.7159833,167.8359 C39.7159833,170.029916 37.9380335,171.807406 35.744477,171.807406" id="Fill-34" fill="#CFE4ED"></path>
                        <path d="M51.6309623,171.807406 C49.4374059,171.807406 47.6594561,170.029916 47.6594561,167.8359 L47.6594561,162.540251 C47.6594561,160.346234 49.4374059,158.568745 51.6309623,158.568745 C53.8240586,158.568745 55.6024686,160.346234 55.6024686,162.540251 L55.6024686,167.8359 C55.6024686,170.029916 53.8240586,171.807406 51.6309623,171.807406" id="Fill-35" fill="#CFE4ED"></path>
                        <path d="M67.5174477,171.807406 C65.3238912,171.807406 63.5454812,170.029916 63.5454812,167.8359 L63.5454812,162.540251 C63.5454812,160.346234 65.3238912,158.568745 67.5174477,158.568745 C69.7105439,158.568745 71.488954,160.346234 71.488954,162.540251 L71.488954,167.8359 C71.488954,170.029916 69.7105439,171.807406 67.5174477,171.807406" id="Fill-36" fill="#CFE4ED"></path>
                        <path d="M35.744477,198.284728 C33.5509205,198.284728 31.7729707,196.507238 31.7729707,194.313222 L31.7729707,189.017573 C31.7729707,186.823556 33.5509205,185.046067 35.744477,185.046067 C37.9380335,185.046067 39.7159833,186.823556 39.7159833,189.017573 L39.7159833,194.313222 C39.7159833,196.507238 37.9380335,198.284728 35.744477,198.284728" id="Fill-37" fill="#CFE4ED"></path>
                        <path d="M51.6309623,198.284728 C49.4374059,198.284728 47.6594561,196.507238 47.6594561,194.313222 L47.6594561,189.017573 C47.6594561,186.823556 49.4374059,185.046067 51.6309623,185.046067 C53.8240586,185.046067 55.6024686,186.823556 55.6024686,189.017573 L55.6024686,194.313222 C55.6024686,196.507238 53.8240586,198.284728 51.6309623,198.284728" id="Fill-38" fill="#CFE4ED"></path>
                        <path d="M67.5174477,198.284728 C65.3238912,198.284728 63.5454812,196.507238 63.5454812,194.313222 L63.5454812,189.017573 C63.5454812,186.823556 65.3238912,185.046067 67.5174477,185.046067 C69.7105439,185.046067 71.488954,186.823556 71.488954,189.017573 L71.488954,194.313222 C71.488954,196.507238 69.7105439,198.284728 67.5174477,198.284728" id="Fill-39" fill="#CFE4ED"></path>
                        <polygon id="Fill-40" fill="#9FB3C3" points="88.6991213 236.677029 162.8359 236.677029 162.8359 130.76728 88.6991213 130.76728"></polygon>
                        <polygon id="Fill-41" fill="#82929F" points="109.881255 236.677029 162.8359 236.677029 162.8359 130.76728 109.881255 130.76728"></polygon>
                        <path d="M109.881255,224.762971 C107.687699,224.762971 105.909289,222.985021 105.909289,220.791464 L105.909289,146.655146 C105.909289,144.46113 107.687699,142.68318 109.881255,142.68318 C112.074351,142.68318 113.852762,144.46113 113.852762,146.655146 L113.852762,220.791464 C113.852762,222.985481 112.074351,224.762971 109.881255,224.762971" id="Fill-42" fill="#FFFFFF"></path>
                        <path d="M125.76728,224.762971 C123.574184,224.762971 121.795774,222.985021 121.795774,220.791464 L121.795774,146.655146 C121.795774,144.46113 123.574184,142.68318 125.76728,142.68318 C127.960837,142.68318 129.739247,144.46113 129.739247,146.655146 L129.739247,220.791464 C129.739247,222.985481 127.960837,224.762971 125.76728,224.762971" id="Fill-43" fill="#F0F6FC"></path>
                        <path d="M141.653766,224.762971 C139.460669,224.762971 137.682259,222.985021 137.682259,220.791464 L137.682259,146.655146 C137.682259,144.46113 139.460669,142.68318 141.653766,142.68318 C143.847322,142.68318 145.625732,144.46113 145.625732,146.655146 L145.625732,220.791464 C145.625732,222.985481 143.847322,224.762971 141.653766,224.762971" id="Fill-44" fill="#F0F6FC"></path>
                        <path d="M109.881255,142.68318 L109.881255,224.762971 C112.074351,224.762971 113.852762,222.985021 113.852762,220.791464 L113.852762,146.655146 C113.852762,144.46113 112.074351,142.68318 109.881255,142.68318" id="Fill-45" fill="#F0F6FC"></path>
                        <polygon id="Fill-46" fill="#CFE4ED" points="41.0401255 236.677029 62.2217992 236.677029 62.2217992 215.494895 41.0401255 215.494895"></polygon>
                        <g id="Group-50" transform="translate(0.000000, 221.778243)">
                            <mask id="mask-2" fill="white">
                                <use xlink:href="#path-1"></use>
                            </mask>
                            <g id="Clip-48"></g>
                            <path d="M51.6309623,18.8702929 C49.4374059,18.8702929 47.6594561,17.0928033 47.6594561,14.8987866 L47.6594561,4.30794979 C47.6594561,2.11393305 49.4374059,0.335983264 51.6309623,0.335983264 C53.8249791,0.335983264 55.6024686,2.11393305 55.6024686,4.30794979 L55.6024686,14.8987866 C55.6024686,17.0928033 53.8249791,18.8702929 51.6309623,18.8702929" id="Fill-47" fill="#455B71" mask="url(#mask-2)"></path>
                            <path d="M215.790544,18.8702929 L3.97150628,18.8702929 C1.77841004,18.8702929 0,17.0928033 0,14.8987866 C0,12.7047699 1.77841004,10.9272803 3.97150628,10.9272803 L215.790544,10.9272803 C217.9841,10.9272803 219.76205,12.7047699 219.76205,14.8987866 C219.76205,17.0928033 217.9841,18.8702929 215.790544,18.8702929" id="Fill-49" fill="#455B71" mask="url(#mask-2)"></path>
                        </g>
                        <path d="M215.790544,232.705523 L109.881255,232.705523 L109.881255,240.648536 L215.790544,240.648536 C217.9841,240.648536 219.76205,238.871046 219.76205,236.677029 C219.76205,234.483013 217.9841,232.705523 215.790544,232.705523" id="Fill-51" fill="#17324D"></path>
                    </g>
                </g>
                <rect id="Rectangle-19" fill="#0066CC" x="126.714713" y="0.445366708" width="73" height="64"></rect>
                <g id="Group" transform="translate(140.214713, 10.880065)" fill="#FFFFFF">
                    <path d="M22.9501442,0.0763079922 C10.2776374,0.073797271 0.00251072125,10.3448889 1.43033776e-13,23.0173957 C-0.00161403509,31.2953333 4.45554386,38.9324094 11.6638246,43.0024678 C11.8840507,43.1293489 12.1462417,43.161809 12.390768,43.0924055 C12.6335906,43.024616 12.8398285,42.8637505 12.9646472,42.6447797 L20.04246,30.1360975 C20.3020507,29.6764561 20.1402885,29.0934308 19.6809162,28.8333918 C16.4569708,27.0226238 15.3114542,22.9410877 17.1222222,19.7171423 C18.9330799,16.4931969 23.0145263,15.3475906 26.2384717,17.1584483 C29.4624172,18.9692164 30.6080234,23.0507524 28.7971657,26.2746979 C28.1953099,27.3462378 27.3101014,28.2315361 26.2384717,28.8333918 C25.7790994,29.0934308 25.6173372,29.6764561 25.8769279,30.1360975 L32.9356413,42.6447797 C33.0601014,42.8644678 33.2664288,43.0260507 33.5095205,43.0942885 C33.5928226,43.1184094 33.6790838,43.130694 33.765883,43.1306043 C33.9307836,43.130425 34.0929045,43.087653 34.2364639,43.0063236 C45.2735049,36.7792865 49.1728343,22.7839883 42.9458869,11.7469474 C38.8756491,4.53274854 31.2332827,0.0721832359 22.9501442,0.0763079922" id="Fill-1"></path>
                </g>
            </g>
            <g id="Group-52">
                <g id="Group-46-Copy" transform="translate(20.520431, 318.000000)">
                    <g id="Group-40-Copy">
                        <path d="M10.2685593,0.467994419 C4.64756034,0.467994419 0.0645750095,5.02229602 0.0645750095,10.6719787 C0.0645750095,16.6827389 0.0645750095,110.420498 0.0645750095,115.071311 C0.0645750095,120.692985 4.61921407,125.275296 10.2685593,125.275296 C15.3172334,125.275296 39.0818734,125.275296 44.142696,125.275296 C56.7328293,125.275296 115.445052,125.275296 128.265668,125.275296 C131.75226,125.275296 134.873387,123.520526 136.727031,120.776337 C139.304517,116.961063 138.210149,113.537575 138.469652,109.7385 L138.469652,107.071588 C138.469652,68.7072658 138.469652,45.6006643 138.469652,10.6719787 C138.469652,5.04962993 133.914338,0.467994419 128.265668,0.467994419 C105.759738,0.467994419 32.9074472,0.467994419 10.2685593,0.467994419 Z" id="Fill-1" fill="#E6E9F2"></path>
                        <path d="M18.6951646,50.0409059 L13.4959852,50.0409059 C12.055387,50.0409059 10.887453,48.8733093 10.887453,47.4323737 C10.887453,45.991438 12.055387,44.8238414 13.4959852,44.8238414 L18.6948271,44.8238414 C20.1354254,44.8238414 21.3033594,45.9917755 21.3033594,47.4323737 C21.3036969,48.8733093 20.1357628,50.0409059 18.6951646,50.0409059" id="Fill-3" fill="#D6DEE8"></path>
                        <path d="M18.6951646,37.5199511 L13.4959852,37.5199511 C12.055387,37.5199511 10.887453,36.3523545 10.887453,34.9114188 C10.887453,33.4704832 12.055387,32.3028866 13.4959852,32.3028866 L18.6948271,32.3028866 C20.1354254,32.3028866 21.3033594,33.4708206 21.3033594,34.9114188 C21.3036969,36.352017 20.1357628,37.5199511 18.6951646,37.5199511" id="Fill-4" fill="#FFFFFF"></path>
                        <path d="M18.6951646,62.5621982 L13.4959852,62.5621982 C12.055387,62.5621982 10.887453,61.3946016 10.887453,59.953666 C10.887453,58.5127303 12.055387,57.3451337 13.4959852,57.3451337 L18.6948271,57.3451337 C20.1354254,57.3451337 21.3033594,58.5130678 21.3033594,59.953666 C21.3036969,61.3946016 20.1357628,62.5621982 18.6951646,62.5621982" id="Fill-5" fill="#FFFFFF"></path>
                        <path d="M18.6951646,75.0834905 L13.4959852,75.0834905 C12.055387,75.0834905 10.887453,73.9158939 10.887453,72.4749583 C10.887453,71.0340226 12.055387,69.866426 13.4959852,69.866426 L18.6948271,69.866426 C20.1354254,69.866426 21.3033594,71.0343601 21.3033594,72.4749583 C21.3036969,73.9155565 20.1357628,75.0834905 18.6951646,75.0834905" id="Fill-6" fill="#D6DEE8"></path>
                        <path d="M18.6951646,87.6044454 L13.4959852,87.6044454 C12.055387,87.6044454 10.887453,86.4368488 10.887453,84.9959131 C10.887453,83.5549774 12.055387,82.3873809 13.4959852,82.3873809 L18.6948271,82.3873809 C20.1354254,82.3873809 21.3033594,83.5553149 21.3033594,84.9959131 C21.3036969,86.4368488 20.1357628,87.6044454 18.6951646,87.6044454" id="Fill-7" fill="#FFFFFF"></path>
                        <path d="M18.6951646,100.125738 L13.4959852,100.125738 C12.055387,100.125738 10.887453,98.9581411 10.887453,97.5172054 C10.887453,96.0762698 12.055387,94.9086732 13.4959852,94.9086732 L18.6948271,94.9086732 C20.1354254,94.9086732 21.3033594,96.0766072 21.3033594,97.5172054 C21.3036969,98.9578036 20.1357628,100.125738 18.6951646,100.125738" id="Fill-8" fill="#D6DEE8"></path>
                        <g id="Group-13" transform="translate(0.027117, 0.079245)">
                            <path d="M18.6680472,112.567447 L13.4688678,112.567447 C12.0282696,112.567447 10.8603355,111.39985 10.8603355,109.958915 C10.8603355,108.517979 12.0282696,107.350383 13.4688678,107.350383 L18.6677097,107.350383 C20.1083079,107.350383 21.276242,108.518317 21.276242,109.958915 C21.2765794,111.39985 20.1086454,112.567447 18.6680472,112.567447" id="Fill-9" fill="#FFFFFF"></path>
                            <path d="M128.23855,0.388748921 L73.988841,0.388748921 C3.72652286,0.388748921 6.6944454,-0.674911322 2.6881718,3.73192216 C1.04138817,5.54405905 0.0374575784,7.95113028 0.0374575784,10.5927332 L0.0374575784,19.8710766 L138.442535,19.8710766 L138.442535,10.5927332 C138.442535,4.95722366 133.87406,0.388748921 128.23855,0.388748921 Z" id="Fill-11" fill="#5A6772"></path>
                        </g>
                        <path d="M168.630427,80.2101169 L47.9033019,80.2101169 C45.607591,80.2101169 43.7296503,78.3318387 43.7296503,76.0364653 L43.7296503,47.8656667 C43.7296503,45.5699559 45.6079285,43.6920151 47.9033019,43.6920151 L168.630427,43.6920151 C170.926138,43.6920151 172.804078,45.5702933 172.804078,47.8656667 L172.804078,76.0364653 C172.804078,78.3321762 170.9258,80.2101169 168.630427,80.2101169" id="Fill-14" fill="#2079D4"></path>
                        <path d="M168.630427,131.335662 L47.9033019,131.335662 C45.607591,131.335662 43.7296503,129.457384 43.7296503,127.16201 L43.7296503,98.9912118 C43.7296503,96.6955009 45.6079285,94.8175601 47.9033019,94.8175601 L168.630427,94.8175601 C170.926138,94.8175601 172.804078,96.6958383 172.804078,98.9912118 L172.804078,127.16201 C172.804078,129.457721 170.9258,131.335662 168.630427,131.335662" id="Fill-15" fill="#8EBEED"></path>
                        <path d="M147.093669,70.8200757 L112.870603,70.8200757 C111.430005,70.8200757 110.262071,69.6524791 110.262071,68.2115435 C110.262071,66.7706078 111.430005,65.6030112 112.870603,65.6030112 L147.093669,65.6030112 C148.534267,65.6030112 149.702201,66.7706078 149.702201,68.2115435 C149.702201,69.6524791 148.534267,70.8200757 147.093669,70.8200757" id="Fill-18" fill="#004D99"></path>
                        <path d="M132.503774,58.2991209 L122.591351,58.2991209 C121.150753,58.2991209 119.982819,57.1315243 119.982819,55.6905886 C119.982819,54.2496529 121.150753,53.0820563 122.591351,53.0820563 L132.503774,53.0820563 C133.944372,53.0820563 135.112306,54.2496529 135.112306,55.6905886 C135.112306,57.1311868 133.944372,58.2991209 132.503774,58.2991209" id="Fill-19" fill="#F6F4F2"></path>
                        <path d="M158.636677,58.2991209 L142.503597,58.2991209 C141.062999,58.2991209 139.895065,57.1315243 139.895065,55.6905886 C139.895065,54.2496529 141.062999,53.0820563 142.503597,53.0820563 L158.636677,53.0820563 C160.077276,53.0820563 161.24521,54.2496529 161.24521,55.6905886 C161.24521,57.1311868 160.077276,58.2991209 158.636677,58.2991209" id="Fill-20" fill="#B4D4F4"></path>
                        <path d="M111.374325,58.2991209 L78.4194173,58.2991209 C76.9788191,58.2991209 75.810885,57.1315243 75.810885,55.6905886 C75.810885,54.2496529 76.9788191,53.0820563 78.4194173,53.0820563 L111.374325,53.0820563 C112.814923,53.0820563 113.982857,54.2496529 113.982857,55.6905886 C113.982857,57.1311868 112.814923,58.2991209 111.374325,58.2991209" id="Fill-21" fill="#F6F4F2"></path>
                        <path d="M103.197099,70.8200757 L93.2846766,70.8200757 C91.8440784,70.8200757 90.6761444,69.6524791 90.6761444,68.2115435 C90.6761444,66.7706078 91.8440784,65.6030112 93.2846766,65.6030112 L103.197099,65.6030112 C104.637697,65.6030112 105.805631,66.7706078 105.805631,68.2115435 C105.805969,69.6524791 104.638035,70.8200757 103.197099,70.8200757" id="Fill-22" fill="#B4D4F4"></path>
                        <path d="M83.1437966,70.8200757 L77.9449546,70.8200757 C76.5043564,70.8200757 75.3364224,69.6524791 75.3364224,68.2115435 C75.3364224,66.7706078 76.5043564,65.6030112 77.9449546,65.6030112 L83.1437966,65.6030112 C84.5843948,65.6030112 85.7523288,66.7706078 85.7523288,68.2115435 C85.7523288,69.6524791 84.5843948,70.8200757 83.1437966,70.8200757" id="Fill-23" fill="#F6F4F2"></path>
                        <path d="M64.9687721,70.8200757 L59.7699302,70.8200757 C58.329332,70.8200757 57.1613979,69.6524791 57.1613979,68.2115435 C57.1613979,66.7706078 58.329332,65.6030112 59.7699302,65.6030112 L64.9687721,65.6030112 C66.4093703,65.6030112 67.5773044,66.7706078 67.5773044,68.2115435 C67.5776418,69.6524791 66.4097078,70.8200757 64.9687721,70.8200757" id="Fill-24" fill="#B4D4F4"></path>
                        <path d="M64.9687721,58.2991209 L59.7699302,58.2991209 C58.329332,58.2991209 57.1613979,57.1315243 57.1613979,55.6905886 C57.1613979,54.2496529 58.329332,53.0820563 59.7699302,53.0820563 L64.9687721,53.0820563 C66.4093703,53.0820563 67.5773044,54.2496529 67.5773044,55.6905886 C67.5776418,57.1311868 66.4097078,58.2991209 64.9687721,58.2991209" id="Fill-25" fill="#004D99"></path>
                        <path d="M158.637015,70.8197383 C158.4666,70.8197383 158.296185,70.8021906 158.12577,70.7674326 C157.958729,70.7360493 157.7954,70.6837436 157.638821,70.6213143 C157.482242,70.555173 157.329037,70.475196 157.18663,70.3810459 C157.043887,70.2838587 156.911942,70.1758729 156.79012,70.0543888 C156.672011,69.9362793 156.564025,69.8036593 156.4665,69.657541 C156.372687,69.5185092 156.29271,69.3653044 156.226569,69.2087249 C156.16414,69.052483 156.111834,68.888817 156.080451,68.7221139 C155.976514,68.2132307 156.02882,67.7191956 156.226569,67.2126747 C156.29271,67.0560953 156.372687,66.9066024 156.4665,66.7638587 C156.564025,66.6211149 156.672011,66.4854577 156.79012,66.3670108 C156.911942,66.2455268 157.043887,66.137541 157.18663,66.0403537 C157.329037,65.9462036 157.482242,65.8665641 157.638821,65.8000853 C157.7954,65.737656 157.958729,65.6853504 158.12577,65.653967 C158.463225,65.5844511 158.811142,65.5844511 159.144886,65.653967 C159.311926,65.6853504 159.475255,65.737656 159.635209,65.8000853 C159.791788,65.8662266 159.944656,65.9462036 160.084025,66.0403537 C160.226431,66.137541 160.362088,66.2455268 160.480535,66.3670108 C160.602357,66.4851203 160.710005,66.6211149 160.804155,66.7638587 C160.897968,66.9066024 160.981319,67.0560953 161.044086,67.2126747 C161.110227,67.3726287 161.162196,67.5359572 161.193579,67.7026603 C161.228337,67.8697009 161.245885,68.040116 161.245885,68.2108685 C161.245885,68.3809462 161.228674,68.5516988 161.193579,68.7221139 C161.162196,68.888817 161.10989,69.052483 161.044086,69.2087249 C160.981319,69.3653044 160.897968,69.5185092 160.804155,69.657541 C160.710342,69.8036593 160.602357,69.9359419 160.480535,70.0543888 C160.362426,70.1758729 160.226768,70.2838587 160.084025,70.3810459 C159.944656,70.475196 159.791788,70.5548356 159.635209,70.6213143 C159.475255,70.6837436 159.311589,70.7360493 159.144886,70.7674326 C158.977845,70.8021906 158.80743,70.8197383 158.637015,70.8197383" id="Fill-26" fill="#F6F4F2"></path>
                        <path d="M62.5466841,120.783761 L56.1090425,114.346119 C55.0902638,113.327003 55.0902638,111.675833 56.1090425,110.656716 L62.5466841,104.219075 C63.5654627,103.200634 65.2169708,103.200634 66.2357494,104.219075 C67.254528,105.238191 67.254528,106.889361 66.2357494,107.908478 L61.6426404,112.501249 L66.2357494,117.094021 C67.254528,118.113137 67.254528,119.764307 66.2357494,120.783423 C65.2169708,121.80254 63.5654627,121.802202 62.5466841,120.783761" id="Fill-27" stroke="#8EBEED" stroke-width="1.08196721" fill="#F6F4F2"></path>
                        <path d="M85.9026653,121.547761 C85.235178,121.547761 84.5673533,121.292981 84.0581327,120.783761 C83.039354,119.764645 83.039354,118.113474 84.0581327,117.094358 L88.6512417,112.501587 L84.0581327,107.908815 C83.039354,106.889699 83.039354,105.238528 84.0581327,104.219412 C85.0769113,103.200971 86.7284193,103.200971 87.747198,104.219412 L94.1848396,110.657054 C95.2036182,111.67617 95.2036182,113.327341 94.1848396,114.346457 L87.747198,120.784098 C87.2379774,121.292981 86.5704901,121.547761 85.9026653,121.547761" id="Fill-28" stroke="#8EBEED" stroke-width="1.08196721" fill="#F6F4F2"></path>
                        <path d="M70.3581077,125.460221 C69.0042356,124.967536 68.3063773,123.470583 68.7990626,122.116711 L76.0290501,102.251708 C76.5217354,100.898174 78.0183513,100.200653 79.3725608,100.692663 C80.7264329,101.185348 81.4242912,102.682302 80.931606,104.036174 L73.7016184,123.901176 C73.2126452,125.243237 71.7237908,125.956281 70.3581077,125.460221" id="Fill-29" stroke="#8EBEED" stroke-width="1.08196721" fill="#F6F4F2"></path>
                        <g id="Group-39" transform="translate(11.224740, 7.761480)">
                            <path d="M2.69706662,5.39417216 C2.01203163,5.39417216 1.33712031,5.11577124 0.853883801,4.62882272 C0.366935282,4.14524876 0.0885343614,3.47067489 0.0885343614,2.7856399 C0.0885343614,0.667430714 2.46017275,-0.523787769 4.1440765,0.615125087 C4.28682024,0.712649773 4.42213996,0.820298129 4.5405869,0.941782167 C5.02753542,1.42535613 5.30559888,2.09993 5.30559888,2.78530244 C5.30559888,3.47033743 5.02753542,4.1449113 4.5405869,4.62848526 C4.42213996,4.7499693 4.28682024,4.85795511 4.1440765,4.95176779 C4.00504476,5.04591792 3.85183989,5.12893201 3.69526047,5.19203622 C3.53868104,5.25784007 3.3753525,5.3101457 3.20831195,5.34152907 C3.03789684,5.37628701 2.86748173,5.39417216 2.69706662,5.39417216" id="Fill-30" fill="#DD414C"></path>
                            <path d="M11.5384049,5.39417216 C11.3679898,5.39417216 11.1972373,5.37662446 11.0305342,5.34186653 C10.8634936,5.31048315 10.7001651,5.25817753 10.5435857,5.19237367 C10.3836317,5.12960692 10.2341388,5.04625537 10.0913951,4.95210524 C9.94865132,4.85829257 9.81670616,4.75030676 9.69488466,4.62882272 C9.20793614,4.14524876 8.92987268,3.47067489 8.92987268,2.7856399 C8.92987268,2.10026745 9.20793614,1.42569358 9.69488466,0.942119622 C9.81670616,0.820635584 9.94865132,0.712987228 10.0913951,0.615462542 C10.2341388,0.521312413 10.3836317,0.441672877 10.5435857,0.375194112 C10.7001651,0.312764815 10.8634936,0.260459187 11.0305342,0.225701254 C11.3646153,0.159559944 11.7125321,0.159559944 12.0496503,0.225701254 C12.2166908,0.260459187 12.3800194,0.312764815 12.5365988,0.375194112 C12.6965528,0.441335421 12.8463831,0.521312413 12.9887894,0.615462542 C13.1311957,0.712987228 13.2634783,0.820635584 13.3852998,0.942119622 C13.8688737,1.42569358 14.1506492,2.10026745 14.1506492,2.7856399 C14.1506492,3.47067489 13.8688737,4.14524876 13.3852998,4.62882272 C13.2638157,4.75030676 13.1315331,4.85829257 12.9887894,4.95210524 C12.8460456,5.04625537 12.6965528,5.12926946 12.5365988,5.19237367 C12.3800194,5.25817753 12.2166908,5.31048315 12.0496503,5.34186653 C11.8792352,5.37628701 11.70882,5.39417216 11.5384049,5.39417216" id="Fill-31" fill="#EEA03A"></path>
                            <path d="M20.3831178,5.39417216 C20.2127027,5.39417216 20.0422876,5.37662446 19.8718725,5.34186653 C19.7048319,5.31048315 19.5415034,5.25817753 19.384924,5.19237367 C19.228682,5.12960692 19.0754771,5.04625537 18.9327334,4.95210524 C18.7899896,4.85829257 18.6580445,4.75030676 18.536223,4.62882272 C18.0529865,4.14524876 17.7745856,3.47067489 17.7745856,2.7856399 C17.7745856,2.61522479 17.7921332,2.44447223 17.8231792,2.27405712 C17.8579371,2.11072858 17.9065307,1.94402548 17.972672,1.78744605 C18.0388133,1.63086663 18.1187903,1.47766176 18.212603,1.33863002 C18.3064157,1.19251172 18.417776,1.06056656 18.5358855,0.941782167 C18.657707,0.820298129 18.7896522,0.712649773 18.9323959,0.615125087 C19.0751397,0.520974957 19.2280071,0.441335421 19.3845865,0.374856656 C19.5411659,0.312427359 19.7048319,0.260121731 19.871535,0.225363798 C20.2086532,0.159222489 20.55657,0.159222489 20.8903137,0.225363798 C21.0573542,0.260121731 21.2206828,0.312427359 21.3772622,0.374856656 C21.5375536,0.440997966 21.6870465,0.520974957 21.8294528,0.615125087 C21.9721965,0.712649773 22.1041417,0.820298129 22.2259632,0.941782167 C22.3474472,1.0602291 22.455433,1.19251172 22.5492457,1.33863002 C22.6430584,1.47766176 22.7267474,1.63086663 22.7891767,1.78744605 C22.855318,1.94402548 22.9039116,2.11072858 22.9386695,2.27405712 C22.9734275,2.44447223 22.9906377,2.61522479 22.9906377,2.7856399 C22.9906377,3.47404945 22.7125742,4.14524876 22.2256257,4.62882272 C22.1038042,4.75030676 21.9718591,4.85829257 21.8291153,4.95210524 C21.6863716,5.04625537 21.5368787,5.12926946 21.3769247,5.19237367 C21.2203453,5.25817753 21.0570168,5.31048315 20.8899762,5.34186653 C20.723948,5.37628701 20.5535329,5.39417216 20.3831178,5.39417216" id="Fill-32" fill="#6DAA43"></path>
                            <path d="M93.4432808,5.3938347 L31.2434534,5.3938347 C29.8028551,5.3938347 28.6349211,4.22623812 28.6349211,2.78530244 C28.6349211,1.34436677 29.8028551,0.176770183 31.2434534,0.176770183 L93.4432808,0.176770183 C94.883879,0.176770183 96.051813,1.34470423 96.051813,2.78530244 C96.051813,4.22590066 94.883879,5.3938347 93.4432808,5.3938347" id="Fill-33" fill="#FFFFFF" opacity="0.2"></path>
                            <path d="M113.282637,5.3938347 L102.616675,5.3938347 C101.176077,5.3938347 100.008143,4.22623812 100.008143,2.78530244 C100.008143,1.34436677 101.176077,0.176770183 102.616675,0.176770183 L113.282637,0.176770183 C114.723235,0.176770183 115.891169,1.34470423 115.891169,2.78530244 C115.891169,4.22590066 114.723235,5.3938347 113.282637,5.3938347" id="Fill-34" fill="#FFFFFF" opacity="0.2"></path>
                        </g>
                    </g>
                </g>
                <g id="Group-41" transform="translate(0.077808, 0.000000)">
                    <path d="M89.9903701,84.5956364 C87.6667338,84.5956364 85.7827338,82.7116364 85.7827338,80.388 L85.7827338,25.9669091 C85.7827338,23.6432727 87.6667338,21.7592727 89.9903701,21.7592727 C92.3140065,21.7592727 94.1980065,23.6432727 94.1980065,25.9669091 L94.1980065,80.388 C94.1980065,82.7116364 92.3145519,84.5956364 89.9903701,84.5956364" id="Fill-4" fill="#D6DEE8" opacity="0.400000006"></path>
                    <path d="M35.5005519,102.637091 L35.5005519,203.498727 C35.5005519,204.544364 36.3836429,205.426909 37.4287338,205.426909 L142.552552,205.426909 C143.597643,205.426909 144.480734,204.544364 144.480734,203.498727 L144.480734,102.637091 L35.5005519,102.637091 Z M142.552006,213.843273 L37.4281883,213.843273 C31.7249156,213.843273 27.0847338,209.203091 27.0847338,203.499273 L27.0847338,98.4294545 C27.0847338,96.1058182 28.9687338,94.2223636 31.2923701,94.2223636 L148.687825,94.2223636 C151.011461,94.2223636 152.895461,96.1058182 152.895461,98.4294545 L152.895461,203.498727 C152.895461,209.202545 148.255279,213.843273 142.552006,213.843273 Z" id="Fill-8" fill="#D6DEE8" opacity="0.400000006"></path>
                    <path d="M114.630188,0.283090909 L65.3505519,0.283090909 C61.9758247,0.283090909 59.2147338,3.04363636 59.2147338,6.41836364 L59.2147338,26.514 C59.2147338,29.8887273 61.9758247,32.6498182 65.3505519,32.6498182 L114.630188,32.6498182 C118.004916,32.6498182 120.766006,29.8887273 120.766006,26.514 L120.766006,6.41836364 C120.766006,3.04363636 118.004916,0.283090909 114.630188,0.283090909" id="Fill-14" fill="#65DDE0"></path>
                    <path d="M104.430734,20.6738182 L89.3467338,20.6738182 C87.0230974,20.6738182 85.1390974,18.7898182 85.1390974,16.4661818 C85.1390974,14.1425455 87.0230974,12.2585455 89.3467338,12.2585455 L104.430734,12.2585455 C106.75437,12.2585455 108.63837,14.1425455 108.63837,16.4661818 C108.63837,18.7898182 106.754916,20.6738182 104.430734,20.6738182" id="Fill-15" fill="#00C5CA"></path>
                    <path d="M173.327643,137.848364 L124.048006,137.848364 C120.673279,137.848364 117.912188,140.609455 117.912188,143.984182 L117.912188,164.079818 C117.912188,167.454545 120.673279,170.215636 124.048006,170.215636 L173.327643,170.215636 C176.70237,170.215636 179.463461,167.454545 179.463461,164.079818 L179.463461,143.984182 C179.463461,140.609455 176.70237,137.848364 173.327643,137.848364" id="Fill-16" fill="#66A5E3"></path>
                    <path d="M163.128734,158.240182 L148.045279,158.240182 C145.721643,158.240182 143.837643,156.356727 143.837643,154.032545 C143.837643,151.708909 145.721643,149.825455 148.045279,149.825455 L163.128734,149.825455 C165.45237,149.825455 167.33637,151.708909 167.33637,154.032545 C167.33637,156.356727 165.45237,158.240182 163.128734,158.240182" id="Fill-17" fill="#8EBEED"></path>
                    <path d="M114.630188,193.450909 L65.3505519,193.450909 C61.9758247,193.450909 59.2147338,196.212545 59.2147338,199.586727 L59.2147338,219.682364 C59.2147338,223.057636 61.9758247,225.818182 65.3505519,225.818182 L114.630188,225.818182 C118.004916,225.818182 120.766006,223.057091 120.766006,219.682364 L120.766006,199.586727 C120.766006,196.212 118.004916,193.450909 114.630188,193.450909" id="Fill-18" fill="#004D99"></path>
                    <path d="M104.430734,213.843273 L89.3472792,213.843273 C87.0236429,213.843273 85.1396429,211.959273 85.1396429,209.635636 C85.1396429,207.311455 87.0236429,205.428 89.3472792,205.428 L104.430734,205.428 C106.75437,205.428 108.63837,207.311455 108.63837,209.635636 C108.63837,211.959273 106.754916,213.843273 104.430734,213.843273" id="Fill-19" fill="#004080"></path>
                    <path d="M55.9321883,137.848364 L6.65255194,137.848364 C3.27782467,137.848364 0.51673376,140.609455 0.51673376,143.984182 L0.51673376,164.079818 C0.51673376,167.454545 3.27782467,170.215636 6.65255194,170.215636 L55.9321883,170.215636 C59.3069156,170.215636 62.0680065,167.454545 62.0680065,164.079818 L62.0680065,143.984182 C62.0680065,140.609455 59.3069156,137.848364 55.9321883,137.848364" id="Fill-20" fill="#66A5E3"></path>
                    <path d="M45.7332792,158.240182 L30.6492792,158.240182 C28.3256429,158.240182 26.4416429,156.356727 26.4416429,154.032545 C26.4416429,151.708909 28.3256429,149.825455 30.6492792,149.825455 L45.7332792,149.825455 C48.0569156,149.825455 49.9409156,151.708909 49.9409156,154.032545 C49.9409156,156.356727 48.0569156,158.240182 45.7332792,158.240182" id="Fill-25" fill="#8EBEED"></path>
                    <path d="M88.5307465,78.5225284 L51.5517775,95.1918287 C48.7626797,96.4492332 48.7626797,100.409676 51.5517775,101.66708 L88.5307465,118.336381 C89.45875,118.754809 90.5215663,118.754809 91.4495698,118.336381 L128.428963,101.66708 C131.218061,100.409676 131.218061,96.4492332 128.428963,95.1918287 L91.4495698,78.5225284 C90.5215663,78.1041001 89.45875,78.1041001 88.5307465,78.5225284" id="Fill-29" fill="#D6DEE8"></path>
                    <path d="M72.5750974,212.61 C69.3280065,209.364545 72.9672792,203.973818 77.1585519,205.748727 C80.9898247,207.361636 80.4350974,212.917091 76.3730974,213.759818 C76.0987338,213.816 73.5776429,213.612545 72.5750974,212.61" id="Fill-49" fill="#FFFFFE"></path>
                    <path d="M130.362188,152.421818 C131.826188,148.951091 136.681825,148.984364 138.132734,152.421818 C139.150552,154.829455 137.666916,157.669091 135.069461,158.155636 C131.783643,158.837455 129.065097,155.488909 130.362188,152.421818" id="Fill-50" fill="#FFFFFE"></path>
                    <path d="M71.6663701,14.8549091 C72.5030974,12.7630909 74.9969156,11.6694545 77.1590974,12.5825455 C80.8730974,14.0689091 80.5605519,19.7214545 76.3736429,20.5941818 C73.0021883,21.2132727 70.3949156,17.9323636 71.6663701,14.8549091" id="Fill-51" fill="#FFFFFE"></path>
                    <path d="M16.0349156,158.125091 C15.5309156,158.030727 14.9832792,157.815273 14.5201883,157.502182 C14.0696429,157.193455 13.6867338,156.833455 13.3589156,156.334909 C13.0332792,155.852727 12.8205519,155.295818 12.7305519,154.825636 C12.4398247,153.402 12.9296429,151.971273 13.8809156,151.027636 C14.2376429,150.66 14.7192792,150.328909 15.2440065,150.118909 C15.9836429,149.806909 16.8410974,149.704909 17.6789156,149.877818 C18.1507338,149.966182 18.7332792,150.193636 19.1881883,150.500727 C20.4383701,151.354364 21.0618247,152.686364 21.0618247,154.001455 C21.0618247,154.276364 21.0340065,154.551273 20.9778247,154.826182 C20.9270974,155.089636 20.8430974,155.359091 20.7421883,155.611636 C20.6352792,155.864182 20.5060065,156.111273 20.3549156,156.335455 C20.031461,156.809455 19.6790974,157.166727 19.1881883,157.502727 C18.7261883,157.814727 18.1725519,158.032909 17.6789156,158.125636 C17.4040065,158.181273 16.5530974,158.233091 16.0349156,158.125091" id="Fill-52" fill="#F6F4F2"></path>
                </g>
                <g id="Group-48" transform="translate(76.000000, 253.000000)">
                    <g id="Group-47" transform="translate(4.327808, 19.000000) rotate(90.000000) translate(-4.327808, -19.000000) translate(-14.672192, 15.000000)">
                        <path d="M0,3.6366496 L31.374871,3.6366496" id="Line" stroke="#9ED0FB" stroke-width="2"></path>
                        <path d="M31.8273895,0.143057689 C31.3704349,-0.161578695 31,0.0353929565 31,0.590665381 L31,7.3027253 C31,7.85456859 31.3699521,8.05529126 31.8273895,7.75033299 L36.7054565,4.49828831 C37.1624111,4.19365193 37.1628939,3.70006064 36.7054565,3.39510237 L31.8273895,0.143057689 Z" id="Shape" fill="#008AF3"></path>
                    </g>
                    <g id="Group-47-Copy" transform="translate(23.827808, 19.000000) rotate(90.000000) translate(-23.827808, -19.000000) translate(4.827808, 15.000000)">
                        <path d="M0,3.6366496 L31.374871,3.6366496" id="Line" stroke="#9ED0FB" stroke-width="2"></path>
                        <path d="M31.8273895,0.143057689 C31.3704349,-0.161578695 31,0.0353929565 31,0.590665381 L31,7.3027253 C31,7.85456859 31.3699521,8.05529126 31.8273895,7.75033299 L36.7054565,4.49828831 C37.1624111,4.19365193 37.1628939,3.70006064 36.7054565,3.39510237 L31.8273895,0.143057689 Z" id="Shape" fill="#008AF3"></path>
                    </g>
                </g>
            </g>
            <g id="flowchart-/-arrows-/-Basic-/-#13-Copy-2" transform="translate(157.681755, 50.445367)">
                <g id="#13" transform="translate(141.000000, 19.000000) scale(-1, 1) translate(-141.000000, -19.000000) ">
                    <path d="M2.57576186,3.82970299 L2.52345697,31.2651278 C2.51713949,34.5788303 5.19830477,37.2702383 8.51200725,37.2765557 C8.5168656,37.276565 8.52172397,37.2765684 8.52658233,37.2765658 L278.614844,37.1353878" id="Line" stroke="#9ED0FB" stroke-width="2" transform="translate(140.569145, 20.553135) scale(1, -1) translate(-140.569145, -20.553135) "></path>
                    <circle id="Oval-3" fill="#008AF3" cx="2.5" cy="35.5" r="2.5"></circle>
                    <path d="M276.453882,0.363979217 C275.9822,0.0759366618 275.599826,0.294270225 275.599826,0.836825388 L275.599826,6.82688156 C275.599826,7.37606985 275.988921,7.58366568 276.453882,7.29972773 L281.278617,4.35340066 C281.750298,4.0653581 281.743577,3.59424424 281.278617,3.31030629 L276.453882,0.363979217 Z" id="Shape" fill="#008AF3"></path>
                </g>
            </g>
        </g>
    </g>
</svg>