<?xml version="1.0" encoding="UTF-8"?>
<svg width="479px" height="445px" viewBox="0 0 479 445" version="1.1" xmlns="http://www.w3.org/2000/svg" xmlns:xlink="http://www.w3.org/1999/xlink">
    <!-- Generator: Sketch 50 (54983) - http://www.bohemiancoding.com/sketch -->
    <title>Group</title>
    <desc>Created with Sketch.</desc>
    <defs></defs>
    <g id="Page-1" stroke="none" stroke-width="1" fill="none" fill-rule="evenodd">
        <g id="Group">
            <g id="Group-46" transform="translate(279.000000, 203.750000)">
                <g id="Group-40-Copy">
                    <path d="M11.8632977,0.54067537 C5.36934055,0.54067537 0.0746037041,5.80227381 0.0746037041,12.3293693 C0.0746037041,19.2736188 0.0746037041,127.569135 0.0746037041,132.942235 C0.0746037041,139.436972 5.33659201,144.730929 11.8632977,144.730929 C17.6960462,144.730929 45.1514068,144.730929 50.9981904,144.730929 C65.5436096,144.730929 133.374019,144.730929 148.185715,144.730929 C152.213785,144.730929 155.819633,142.703638 157.961153,139.533268 C160.938931,135.125471 159.674604,131.170305 159.974409,126.781221 L159.974409,123.70013 C159.974409,79.3777124 159.974409,52.6825857 159.974409,12.3293693 C159.974409,5.83385276 154.711641,0.54067537 148.185715,0.54067537 C122.184545,0.54067537 38.0180735,0.54067537 11.8632977,0.54067537 Z" id="Fill-1" fill="#E6E9F2"></path>
                    <path d="M21.5985803,57.8124103 L15.5919526,57.8124103 C13.9276251,57.8124103 12.5783074,56.4634824 12.5783074,54.798765 C12.5783074,53.1340477 13.9276251,51.7851198 15.5919526,51.7851198 L21.5981904,51.7851198 C23.2625179,51.7851198 24.6118357,53.1344376 24.6118357,54.798765 C24.6122255,56.4634824 23.2629078,57.8124103 21.5985803,57.8124103" id="Fill-3" fill="#D6DEE8"></path>
                    <path d="M21.5985803,43.3469132 L15.5919526,43.3469132 C13.9276251,43.3469132 12.5783074,41.9979853 12.5783074,40.333268 C12.5783074,38.6685506 13.9276251,37.3196227 15.5919526,37.3196227 L21.5981904,37.3196227 C23.2625179,37.3196227 24.6118357,38.6689405 24.6118357,40.333268 C24.6122255,41.9975954 23.2629078,43.3469132 21.5985803,43.3469132" id="Fill-4" fill="#FFFFFF"></path>
                    <path d="M21.5985803,72.2782972 L15.5919526,72.2782972 C13.9276251,72.2782972 12.5783074,70.9293693 12.5783074,69.264652 C12.5783074,67.5999346 13.9276251,66.2510068 15.5919526,66.2510068 L21.5981904,66.2510068 C23.2625179,66.2510068 24.6118357,67.6003245 24.6118357,69.264652 C24.6122255,70.9293693 23.2629078,72.2782972 21.5985803,72.2782972" id="Fill-5" fill="#FFFFFF"></path>
                    <path d="M21.5985803,86.7441841 L15.5919526,86.7441841 C13.9276251,86.7441841 12.5783074,85.3952563 12.5783074,83.7305389 C12.5783074,82.0658216 13.9276251,80.7168937 15.5919526,80.7168937 L21.5981904,80.7168937 C23.2625179,80.7168937 24.6118357,82.0662114 24.6118357,83.7305389 C24.6122255,85.3948664 23.2629078,86.7441841 21.5985803,86.7441841" id="Fill-6" fill="#D6DEE8"></path>
                    <path d="M21.5985803,101.209681 L15.5919526,101.209681 C13.9276251,101.209681 12.5783074,99.8607533 12.5783074,98.196036 C12.5783074,96.5313186 13.9276251,95.1823908 15.5919526,95.1823908 L21.5981904,95.1823908 C23.2625179,95.1823908 24.6118357,96.5317085 24.6118357,98.196036 C24.6122255,99.8607533 23.2629078,101.209681 21.5985803,101.209681" id="Fill-7" fill="#FFFFFF"></path>
                    <path d="M21.5985803,115.675568 L15.5919526,115.675568 C13.9276251,115.675568 12.5783074,114.32664 12.5783074,112.661923 C12.5783074,110.997206 13.9276251,109.648278 15.5919526,109.648278 L21.5981904,109.648278 C23.2625179,109.648278 24.6118357,110.997595 24.6118357,112.661923 C24.6122255,114.32625 23.2629078,115.675568 21.5985803,115.675568" id="Fill-8" fill="#D6DEE8"></path>
                    <g id="Group-13" transform="translate(0.031329, 0.091553)">
                        <path d="M21.5672515,130.049513 L15.5606238,130.049513 C13.8962963,130.049513 12.5469786,128.700585 12.5469786,127.035867 C12.5469786,125.37115 13.8962963,124.022222 15.5606238,124.022222 L21.5668616,124.022222 C23.2311891,124.022222 24.5805068,125.37154 24.5805068,127.035867 C24.5808967,128.700585 23.2315789,130.049513 21.5672515,130.049513" id="Fill-9" fill="#FFFFFF"></path>
                        <path d="M153.94308,0.449122807 L6.04327485,0.449122807 C2.72956635,0.449122807 0.0432748538,3.13541431 0.0432748538,6.44912281 L0.0432748538,22.957115 L159.94308,22.957115 L159.94308,6.44912281 C159.94308,3.13541431 157.256788,0.449122807 153.94308,0.449122807 Z" id="Fill-11" fill="#5A6772"></path>
                    </g>
                    <path d="M194.819243,92.6669912 L55.3428298,92.6669912 C52.6905881,92.6669912 50.5209975,90.4970107 50.5209975,87.8451588 L50.5209975,55.2993498 C50.5209975,52.6471081 52.690978,50.4775175 55.3428298,50.4775175 L194.819243,50.4775175 C197.471485,50.4775175 199.641075,52.647498 199.641075,55.2993498 L199.641075,87.8451588 C199.641075,90.4974005 197.471095,92.6669912 194.819243,92.6669912" id="Fill-14" fill="#2079D4"></path>
                    <path d="M194.819243,151.732488 L55.3428298,151.732488 C52.6905881,151.732488 50.5209975,149.562508 50.5209975,146.910656 L50.5209975,114.364847 C50.5209975,111.712605 52.690978,109.543015 55.3428298,109.543015 L194.819243,109.543015 C197.471485,109.543015 199.641075,111.712995 199.641075,114.364847 L199.641075,146.910656 C199.641075,149.562898 197.471095,151.732488 194.819243,151.732488" id="Fill-15" fill="#8EBEED"></path>
                    <path d="M169.937762,81.8186481 L130.39975,81.8186481 C128.735422,81.8186481 127.386105,80.4697202 127.386105,78.8050029 C127.386105,77.1402855 128.735422,75.7913576 130.39975,75.7913576 L169.937762,75.7913576 C171.602089,75.7913576 172.951407,77.1402855 172.951407,78.8050029 C172.951407,80.4697202 171.602089,81.8186481 169.937762,81.8186481" id="Fill-18" fill="#004D99"></path>
                    <path d="M153.082011,67.353151 L141.630159,67.353151 C139.965832,67.353151 138.616514,66.0042231 138.616514,64.3395058 C138.616514,62.6747884 139.965832,61.3258606 141.630159,61.3258606 L153.082011,61.3258606 C154.746339,61.3258606 156.095656,62.6747884 156.095656,64.3395058 C156.095656,66.0038333 154.746339,67.353151 153.082011,67.353151" id="Fill-19" fill="#F6F4F2"></path>
                    <path d="M183.273434,67.353151 L164.634838,67.353151 C162.97051,67.353151 161.621192,66.0042231 161.621192,64.3395058 C161.621192,62.6747884 162.97051,61.3258606 164.634838,61.3258606 L183.273434,61.3258606 C184.937762,61.3258606 186.287079,62.6747884 186.287079,64.3395058 C186.287079,66.0038333 184.937762,67.353151 183.273434,67.353151" id="Fill-20" fill="#B4D4F4"></path>
                    <path d="M128.671095,67.353151 L90.5981904,67.353151 C88.933863,67.353151 87.5845452,66.0042231 87.5845452,64.3395058 C87.5845452,62.6747884 88.933863,61.3258606 90.5981904,61.3258606 L128.671095,61.3258606 C130.335422,61.3258606 131.68474,62.6747884 131.68474,64.3395058 C131.68474,66.0038333 130.335422,67.353151 128.671095,67.353151" id="Fill-21" fill="#F6F4F2"></path>
                    <path d="M119.223921,81.8186481 L107.77207,81.8186481 C106.107742,81.8186481 104.758424,80.4697202 104.758424,78.8050029 C104.758424,77.1402855 106.107742,75.7913576 107.77207,75.7913576 L119.223921,75.7913576 C120.888249,75.7913576 122.237567,77.1402855 122.237567,78.8050029 C122.237957,80.4697202 120.888639,81.8186481 119.223921,81.8186481" id="Fill-22" fill="#B4D4F4"></path>
                    <path d="M96.0562801,81.8186481 L90.0500423,81.8186481 C88.3857148,81.8186481 87.0363971,80.4697202 87.0363971,78.8050029 C87.0363971,77.1402855 88.3857148,75.7913576 90.0500423,75.7913576 L96.0562801,75.7913576 C97.7206076,75.7913576 99.0699253,77.1402855 99.0699253,78.8050029 C99.0699253,80.4697202 97.7206076,81.8186481 96.0562801,81.8186481" id="Fill-23" fill="#F6F4F2"></path>
                    <path d="M75.0586193,81.8186481 L69.0523815,81.8186481 C67.388054,81.8186481 66.0387363,80.4697202 66.0387363,78.8050029 C66.0387363,77.1402855 67.388054,75.7913576 69.0523815,75.7913576 L75.0586193,75.7913576 C76.7229468,75.7913576 78.0722645,77.1402855 78.0722645,78.8050029 C78.0726544,80.4697202 76.7233366,81.8186481 75.0586193,81.8186481" id="Fill-24" fill="#B4D4F4"></path>
                    <path d="M75.0586193,67.353151 L69.0523815,67.353151 C67.388054,67.353151 66.0387363,66.0042231 66.0387363,64.3395058 C66.0387363,62.6747884 67.388054,61.3258606 69.0523815,61.3258606 L75.0586193,61.3258606 C76.7229468,61.3258606 78.0722645,62.6747884 78.0722645,64.3395058 C78.0726544,66.0038333 76.7233366,67.353151 75.0586193,67.353151" id="Fill-25" fill="#004D99"></path>
                    <path d="M183.273824,81.8182582 C183.076943,81.8182582 182.880062,81.7979853 182.683181,81.7578294 C182.490198,81.7215721 182.301504,81.6611432 182.120608,81.5890184 C181.939711,81.5126052 181.762713,81.4202075 181.59819,81.3114356 C181.433278,81.1991549 181.280842,81.0743986 181.140101,80.9340477 C181.003649,80.7975954 180.878892,80.6443791 180.766222,80.4755682 C180.65784,80.3149444 180.565442,80.1379463 180.489029,79.9570496 C180.416904,79.7765428 180.356475,79.587459 180.320218,79.3948664 C180.20014,78.8069522 180.260569,78.2361919 180.489029,77.6510068 C180.565442,77.4701101 180.65784,77.2974005 180.766222,77.1324882 C180.878892,76.967576 181.003649,76.8108508 181.140101,76.6740087 C181.280842,76.5336578 181.433278,76.4089015 181.59819,76.2966208 C181.762713,76.1878489 181.939711,76.0958411 182.120608,76.0190379 C182.301504,75.9469132 182.490198,75.8864843 182.683181,75.850227 C183.073044,75.7699151 183.474994,75.7699151 183.860569,75.850227 C184.053551,75.8864843 184.242245,75.9469132 184.42704,76.0190379 C184.607937,76.0954512 184.784545,76.1878489 184.945559,76.2966208 C185.110081,76.4089015 185.266806,76.5336578 185.403649,76.6740087 C185.544389,76.8104609 185.668756,76.967576 185.777528,77.1324882 C185.88591,77.2974005 185.982206,77.4701101 186.054721,77.6510068 C186.131134,77.8358021 186.191173,78.024496 186.22743,78.2170886 C186.267586,78.4100711 186.287859,78.6069522 186.287859,78.8042231 C186.287859,79.0007144 186.267976,79.1979853 186.22743,79.3948664 C186.191173,79.587459 186.130744,79.7765428 186.054721,79.9570496 C185.982206,80.1379463 185.88591,80.3149444 185.777528,80.4755682 C185.669146,80.6443791 185.544389,80.7972056 185.403649,80.9340477 C185.267196,81.0743986 185.110471,81.1991549 184.945559,81.3114356 C184.784545,81.4202075 184.607937,81.5122153 184.42704,81.5890184 C184.242245,81.6611432 184.053161,81.7215721 183.860569,81.7578294 C183.667586,81.7979853 183.470705,81.8182582 183.273824,81.8182582" id="Fill-26" fill="#F6F4F2"></path>
                    <path d="M72.2603737,139.541845 L64.8229468,132.104418 C63.6459487,130.92703 63.6459487,129.019428 64.8229468,127.84204 L72.2603737,120.404613 C73.4373717,119.228005 75.3453639,119.228005 76.522362,120.404613 C77.69936,121.582001 77.69936,123.489603 76.522362,124.666991 L71.2159292,129.973034 L76.522362,135.279077 C77.69936,136.456465 77.69936,138.364067 76.522362,139.541455 C75.3453639,140.718843 73.4373717,140.718453 72.2603737,139.541845" id="Fill-27" stroke="#8EBEED" stroke-width="1.25" fill="#F6F4F2"></path>
                    <path d="M99.2436096,140.424496 C98.4724595,140.424496 97.7009195,140.130149 97.1126154,139.541845 C95.9356173,138.364457 95.9356173,136.456855 97.1126154,135.279467 L102.419048,129.973424 L97.1126154,124.667381 C95.9356173,123.489993 95.9356173,121.582391 97.1126154,120.405003 C98.2896135,119.228395 100.197606,119.228395 101.374604,120.405003 L108.812031,127.84243 C109.989029,129.019818 109.989029,130.92742 108.812031,132.104808 L101.374604,139.542235 C100.7863,140.130149 100.01515,140.424496 99.2436096,140.424496" id="Fill-28" stroke="#8EBEED" stroke-width="1.25" fill="#F6F4F2"></path>
                    <path d="M81.2849351,144.944574 C79.7208025,144.375373 78.9145647,142.645939 79.4837655,141.081806 L87.836592,118.131709 C88.4057928,116.567966 90.1348376,115.762118 91.69936,116.330539 C93.2634926,116.89974 94.0697304,118.629174 93.5005296,120.193307 L85.1477031,143.143404 C84.5827908,144.693892 82.8627129,145.517673 81.2849351,144.944574" id="Fill-29" stroke="#8EBEED" stroke-width="1.25" fill="#F6F4F2"></path>
                    <g id="Group-39" transform="translate(12.967976, 8.966862)">
                        <path d="M3.11592924,6.23190344 C2.32450624,6.23190344 1.54477914,5.91026601 0.986494542,5.34769291 C0.423921443,4.78901845 0.102284016,4.00968122 0.102284016,3.21825822 C0.102284016,0.771084727 2.84224503,-0.605133597 4.78766413,0.710655877 C4.95257641,0.823326442 5.1089117,0.947692914 5.2457538,1.08804379 C5.8083269,1.64671825 6.12957446,2.42605549 6.12957446,3.21786835 C6.12957446,4.00929135 5.8083269,4.78862859 5.2457538,5.34730305 C5.1089117,5.48765393 4.95257641,5.61241026 4.78766413,5.72079233 C4.62704035,5.82956426 4.4500423,5.92547069 4.26914561,5.99837518 C4.08824893,6.07439857 3.89955497,6.13482742 3.70657252,6.17108473 C3.50969142,6.21124067 3.31281033,6.23190344 3.11592924,6.23190344" id="Fill-30" fill="#DD414C"></path>
                        <path d="M13.3303542,6.23190344 C13.1334731,6.23190344 12.9362021,6.21163054 12.7436096,6.17147459 C12.5506271,6.13521728 12.3619331,6.07478843 12.1810365,5.99876504 C11.9962411,5.92625042 11.8235316,5.82995412 11.6586193,5.72118219 C11.493707,5.61280013 11.3412704,5.48804379 11.2005296,5.34769291 C10.6379565,4.78901845 10.316709,4.00968122 10.316709,3.21825822 C10.316709,2.42644535 10.6379565,1.64710812 11.2005296,1.08843365 C11.3412704,0.948082777 11.493707,0.823716306 11.6586193,0.71104574 C11.8235316,0.602273811 11.9962411,0.510266013 12.1810365,0.433462894 C12.3619331,0.361338138 12.5506271,0.300909288 12.7436096,0.260753343 C13.1295745,0.184340087 13.5315238,0.184340087 13.9209975,0.260753343 C14.1139799,0.300909288 14.3026739,0.361338138 14.4835706,0.433462894 C14.6683659,0.50987615 14.8414653,0.602273811 15.0059877,0.71104574 C15.1705101,0.823716306 15.3233366,0.948082777 15.4640774,1.08843365 C16.0227519,1.64710812 16.3482879,2.42644535 16.3482879,3.21825822 C16.3482879,4.00968122 16.0227519,4.78901845 15.4640774,5.34769291 C15.3237265,5.48804379 15.1709,5.61280013 15.0059877,5.72118219 C14.8410754,5.82995412 14.6683659,5.92586056 14.4835706,5.99876504 C14.3026739,6.07478843 14.1139799,6.13521728 13.9209975,6.17147459 C13.7241164,6.21124067 13.5272353,6.23190344 13.3303542,6.23190344" id="Fill-31" fill="#EEA03A"></path>
                        <path d="M23.5486778,6.23190344 C23.3517967,6.23190344 23.1549156,6.21163054 22.9580345,6.17147459 C22.765052,6.13521728 22.5763581,6.07478843 22.3954614,5.99876504 C22.2149546,5.92625042 22.0379565,5.82995412 21.8730442,5.72118219 C21.708132,5.61280013 21.5556953,5.48804379 21.4149546,5.34769291 C20.85667,4.78901845 20.5350326,4.00968122 20.5350326,3.21825822 C20.5350326,3.02137712 20.5553055,2.82410617 20.5911729,2.62722508 C20.6313289,2.43853112 20.6874692,2.24593853 20.7638825,2.06504184 C20.8402957,1.88414516 20.9326934,1.7071471 21.0410754,1.54652332 C21.1494575,1.37771241 21.2781125,1.22527576 21.4145647,1.08804379 C21.5553055,0.947692914 21.7077421,0.823326442 21.8726544,0.710655877 C22.0375667,0.601883947 22.2141749,0.50987615 22.3950715,0.433073031 C22.5759682,0.360948274 22.765052,0.300519425 22.9576446,0.260363479 C23.3471183,0.183950224 23.7490676,0.183950224 24.1346427,0.260363479 C24.3276251,0.300519425 24.5163191,0.360948274 24.6972158,0.433073031 C24.882401,0.509486286 25.0551105,0.601883947 25.2196329,0.710655877 C25.3845452,0.823326442 25.5369819,0.947692914 25.6777226,1.08804379 C25.8180735,1.2248859 25.9428298,1.37771241 26.0512119,1.54652332 C26.159594,1.7071471 26.2562801,1.88414516 26.3284049,2.06504184 C26.4048181,2.24593853 26.4609585,2.43853112 26.5011144,2.62722508 C26.5412704,2.82410617 26.5611534,3.02137712 26.5611534,3.21825822 C26.5611534,4.01357985 26.2399058,4.78901845 25.6773327,5.34769291 C25.536592,5.48804379 25.3841554,5.61280013 25.2192431,5.72118219 C25.0543308,5.82995412 24.8816212,5.92586056 24.6968259,5.99876504 C24.5159292,6.07478843 24.3272353,6.13521728 24.1342528,6.17147459 C23.94244,6.21124067 23.7455589,6.23190344 23.5486778,6.23190344" id="Fill-32" fill="#6DAA43"></path>
                        <path d="M107.955305,6.23151358 L36.0956563,6.23151358 C34.4313289,6.23151358 33.0820111,4.8825857 33.0820111,3.21786835 C33.0820111,1.553151 34.4313289,0.204223128 36.0956563,0.204223128 L107.955305,0.204223128 C109.619633,0.204223128 110.968951,1.55354087 110.968951,3.21786835 C110.968951,4.88219584 109.619633,6.23151358 107.955305,6.23151358" id="Fill-33" fill="#FFFFFF" opacity="0.2"></path>
                        <path d="M130.875773,6.23151358 L118.553356,6.23151358 C116.889029,6.23151358 115.539711,4.8825857 115.539711,3.21786835 C115.539711,1.553151 116.889029,0.204223128 118.553356,0.204223128 L130.875773,0.204223128 C132.540101,0.204223128 133.889419,1.55354087 133.889419,3.21786835 C133.889419,4.88219584 132.540101,6.23151358 130.875773,6.23151358" id="Fill-34" fill="#FFFFFF" opacity="0.2"></path>
                    </g>
                </g>
            </g>
            <g id="Group-40">
                <g id="Group-36" transform="translate(187.000000, 145.000000)" stroke="#9ED0FB" stroke-width="2">
                    <path d="M0.600225865,0.776066819 L26.6000502,0.776066819 C29.9138557,0.776066819 32.6002259,3.45381139 32.6002259,6.77325412 L32.6002259,263.135385 C32.6002259,266.44754 29.9132479,269.132572 26.6000502,269.132572 L0.600225865,269.132572" id="Line"></path>
                    <path d="M0.781601756,84 L32.7816018,84" id="Line-Copy"></path>
                    <path d="M0.781601756,173 L32.7816018,173" id="Line-Copy-2"></path>
                </g>
                <g id="Group-25" transform="translate(0.000000, 104.000000)">
                    <g id="Group-17" transform="translate(0.000000, 267.000000)">
                        <polygon id="Rectangle-14" fill="#EDEFF2" opacity="0.5" points="9.09494702e-13 0.708169023 161.5 0.708169023 183 23.208169 183 73.708169 9.09494702e-13 73.708169"></polygon>
                        <polygon id="Rectangle-17" fill="#DDDFE6" points="161 0.708169023 183 22.708169 161 22.708169"></polygon>
                        <text id="SPID" font-family="TitilliumWeb-Light, Titillium Web" font-size="32" font-weight="300" line-spacing="20" fill="#00264D">
                            <tspan x="19.5" y="65.208169">SPID</tspan>
                        </text>
                    </g>
                    <g id="Group-24" transform="translate(0.000000, 89.000000)">
                        <polygon id="Rectangle-14-Copy-2" fill="#EDEFF2" opacity="0.5" points="9.09494702e-13 0 161.5 0 183 22.5 183 73 9.09494702e-13 73"></polygon>
                        <polygon id="Rectangle-17-Copy" fill="#DDDFE6" points="161 0 183 22 161 22"></polygon>
                        <text id="CIE" font-family="TitilliumWeb-Light, Titillium Web" font-size="32" font-weight="300" line-spacing="20" fill="#00264D">
                            <tspan x="19.5" y="63.5">CIE</tspan>
                        </text>
                    </g>
                    <g id="Group-22" transform="translate(0.000000, 178.000000)">
                        <polygon id="Rectangle-14-Copy-3" fill="#EDEFF2" opacity="0.5" points="9.09494702e-13 0 161.5 0 183 22.5 183 73 9.09494702e-13 73"></polygon>
                        <polygon id="Rectangle-17-Copy-2" fill="#DDDFE6" points="161 0 183 22 161 22"></polygon>
                        <text id="pagoPA" font-family="TitilliumWeb-Light, Titillium Web" font-size="32" font-weight="300" line-spacing="20" fill="#00264D">
                            <tspan x="19.5" y="62.5">pagoPA</tspan>
                        </text>
                    </g>
                    <g id="Group-21">
                        <polygon id="Rectangle-14-Copy-4" fill="#EDEFF2" opacity="0.5" points="9.09494702e-13 0 161.5 0 183 22.5 183 73 9.09494702e-13 73"></polygon>
                        <polygon id="Rectangle-17-Copy-3" fill="#DDDFE6" points="161 0 183 22 161 22"></polygon>
                        <text id="ANPR" font-family="TitilliumWeb-Light, Titillium Web" font-size="32" font-weight="300" line-spacing="20" fill="#00264D">
                            <tspan x="19.5" y="62.5">ANPR</tspan>
                        </text>
                    </g>
                </g>
                <g id="Group-28" fill="#0073E6">
                    <path d="M8.2293332,17.0085718 L31.4749172,28.6312408 L54.7203782,17.0085718 L31.4749172,5.38577981 L8.2293332,17.0085718 Z M31.4749172,34.0169899 C31.0851711,34.0169899 30.695671,33.9274836 30.3376457,33.7485938 L1.40619587,19.2829919 C0.544697323,18.8523041 0.000528269574,17.9717486 0.000528269574,17.0085718 C0.000528269574,16.045395 0.544697323,15.1649625 1.40619587,14.7341517 L30.3376457,0.268426816 C31.0534505,-0.0894756053 31.896015,-0.0894756053 32.6119428,0.268426816 L61.5433926,14.7341517 C62.4047682,15.1648395 62.9490602,16.045395 62.9490602,17.0085718 C62.9490602,17.9717486 62.4048911,18.8521811 61.5433926,19.2829919 L32.6119428,33.7485938 C32.2541633,33.9274836 31.8644173,34.0169899 31.4749172,34.0169899 Z" id="Fill-1"></path>
                    <path d="M31.4749172,62.9484397 C31.0851711,62.9484397 30.695671,62.8589334 30.3376457,62.6800436 L1.40619587,48.2143187 C0.150156317,47.586176 -0.359095427,46.0587896 0.269047297,44.8027501 C0.897067072,43.5468335 2.42457641,43.0375817 3.68061596,43.6654785 L31.4749172,57.5625677 L59.2690954,43.6656015 C60.525135,43.0378276 62.0527673,43.5468335 62.680787,44.8027501 C63.3088068,46.0587896 62.799678,47.586299 61.5435155,48.2144417 L32.6120657,62.6801666 C32.2541633,62.8589334 31.8644173,62.9484397 31.4749172,62.9484397" id="Fill-3"></path>
                    <path d="M31.4749172,48.4827148 C31.0851711,48.4827148 30.695671,48.3932085 30.3376457,48.2143187 L1.40619587,33.7485938 C0.150156317,33.1204511 -0.359095427,31.5931877 0.269047297,30.3370252 C0.897067072,29.0809856 2.42457641,28.5718568 3.68061596,29.1998766 L31.4749172,43.0968428 L59.2690954,29.1998766 C60.525135,28.5718568 62.0527673,29.0809856 62.680787,30.3370252 C63.3088068,31.5930647 62.799678,33.1205741 61.5435155,33.7485938 L32.6120657,48.2143187 C32.2541633,48.3932085 31.8644173,48.4827148 31.4749172,48.4827148" id="Fill-4"></path>
                </g>
                <text id="PIATTAFORME-ABILITAN" font-family="TitilliumWeb-Bold, Titillium Web" font-size="14" font-weight="bold" line-spacing="18" letter-spacing="0.5" fill="#455B71">
                    <tspan x="88" y="30">PIATTAFORME</tspan>
                    <tspan x="88" y="48">ABILITANT</tspan>
                    <tspan x="156.41" y="48">I</tspan>
                </text>
                <g id="Group-35" transform="translate(220.000000, 275.000000)">
                    <path d="M0.201644507,4.1644514 L31.5765155,4.1644514" id="Line" stroke="#9ED0FB" stroke-width="2"></path>
                    <path d="M32.029034,0.67085949 C31.5720794,0.366223106 31.2016445,0.563194758 31.2016445,1.11846718 L31.2016445,7.8305271 C31.2016445,8.38237039 31.5715966,8.58309306 32.029034,8.2781348 L36.907101,5.02609011 C37.3640556,4.72145373 37.3645384,4.22786244 36.907101,3.92290418 L32.029034,0.67085949 Z" id="Shape" fill="#008AF3"></path>
                </g>
                <circle id="Oval-3" fill="#008AF3" cx="189.5" cy="414" r="2.5"></circle>
                <circle id="Oval-3-Copy" fill="#008AF3" cx="189.5" cy="318.075527" r="2.5"></circle>
                <circle id="Oval-3-Copy-2" fill="#008AF3" cx="189.5" cy="228.984856" r="2.5"></circle>
                <circle id="Oval-3-Copy-3" fill="#008AF3" cx="189.5" cy="146" r="2.5"></circle>
            </g>
        </g>
    </g>
</svg>