<?xml version="1.0" encoding="UTF-8" standalone="no"?>
<svg
   xmlns:dc="http://purl.org/dc/elements/1.1/"
   xmlns:cc="http://creativecommons.org/ns#"
   xmlns:rdf="http://www.w3.org/1999/02/22-rdf-syntax-ns#"
   xmlns:svg="http://www.w3.org/2000/svg"
   xmlns="http://www.w3.org/2000/svg"
   xmlns:sodipodi="http://sodipodi.sourceforge.net/DTD/sodipodi-0.dtd"
   xmlns:inkscape="http://www.inkscape.org/namespaces/inkscape"
   width="448px"
   height="209px"
   viewBox="0 0 448 209"
   version="1.1"
   id="svg139"
   sodipodi:docname="come-partecipo-wizard.svg"
   inkscape:version="1.0.2 (e86c870879, 2021-01-15)">
  <metadata
     id="metadata143">
    <rdf:RDF>
      <cc:Work
         rdf:about="">
        <dc:format>image/svg+xml</dc:format>
        <dc:type
           rdf:resource="http://purl.org/dc/dcmitype/StillImage" />
        <dc:title>Group 44</dc:title>
      </cc:Work>
    </rdf:RDF>
  </metadata>
  <sodipodi:namedview
     pagecolor="#ffffff"
     bordercolor="#666666"
     borderopacity="1"
     objecttolerance="10"
     gridtolerance="10"
     guidetolerance="10"
     inkscape:pageopacity="0"
     inkscape:pageshadow="2"
     inkscape:window-width="1920"
     inkscape:window-height="1016"
     id="namedview141"
     showgrid="false"
     inkscape:zoom="2.4338363"
     inkscape:cx="173.81687"
     inkscape:cy="95.797486"
     inkscape:window-x="0"
     inkscape:window-y="27"
     inkscape:window-maximized="1"
     inkscape:current-layer="Group-44" />
  <!-- Generator: Sketch 50 (54983) - http://www.bohemiancoding.com/sketch -->
  <title
     id="title2">Group 44</title>
  <desc
     id="desc4">Created with Sketch.</desc>
  <defs
     id="defs6" />
  <g
     id="Page-1"
     stroke="none"
     stroke-width="1"
     fill="none"
     fill-rule="evenodd">
    <g
       id="Group-44"
       transform="translate(-1,-2)">
      <g
         id="italia.it-logo"
         transform="translate(114.5,17)">
        <g
           id="g8" />
      </g>
      <g
         id="Group-35"
         transform="translate(56.5,10)">
        <g
           id="chat-(1)"
           transform="translate(0.18245)">
          <rect
             id="Rectangle-path"
             fill="#bbc6d3"
             fill-rule="nonzero"
             x="86.659691"
             y="171.19817"
             width="43.329845"
             height="26.359694" />
          <path
             d="m 209.42744,29.112239 c 3.98855,0 7.22178,3.233236 7.22178,7.221782 V 166.32313 c 0,3.98855 -3.23323,7.22178 -7.22178,7.22178 H 7.2217818 C 3.2332357,173.54491 0,170.31125 0,166.32313 V 36.334021 c 0,-3.988546 3.2332357,-7.221782 7.2217818,-7.221782 0,0 202.2056582,0 202.2056582,0 z"
             id="Shape"
             fill="#d6dee8"
             fill-rule="nonzero" />
          <circle
             id="Oval"
             fill="#f7f9fa"
             fill-rule="nonzero"
             cx="108.32461"
             cy="159.10178"
             r="5.4166536" />
          <path
             d="M 216.64922,144.65778 V 36.334021 c 0,-3.988546 -3.23323,-7.221782 -7.22178,-7.221782 H 7.2217818 C 3.2332357,29.112239 0,32.345475 0,36.334021 V 144.65778 Z"
             id="path14"
             fill="#455b71"
             fill-rule="nonzero" />
          <path
             d="m 10.832461,42.560147 v 88.649733 c 0,1.44461 1.170837,2.61544 2.615447,2.61544 H 203.20174 c 1.44461,0 2.61544,-1.17083 2.61544,-2.61544 V 42.560147 c 0,-1.44461 -1.17083,-2.615447 -2.61544,-2.615447 H 13.447908 c -1.44461,0 -2.615447,1.170837 -2.615447,2.615447 z"
             id="path16"
             fill="#ffffff"
             fill-rule="nonzero" />
          <path
             d="M 205.81676,57.99852 H 10.832461 V 42.560147 c 0,-1.44461 1.170837,-2.615447 2.615447,-2.615447 H 203.20131 c 1.44461,0 2.61545,1.17126 2.61545,2.615447 z"
             id="path18"
             fill="#66a5e3"
             fill-rule="nonzero" />
          <path
             d="m 28.886281,52.240813 h -7.220936 c -1.805551,0 -3.269203,-1.463652 -3.269203,-3.269203 0,-1.805551 1.463652,-3.269203 3.269203,-3.269203 h 7.220936 c 1.805551,0 3.269203,1.463652 3.269203,3.269203 0,1.805551 -1.463652,3.269203 -3.269203,3.269203 z"
             id="path20"
             fill="#ffffff"
             fill-rule="nonzero" />
          <polygon
             id="polygon22"
             fill="#d6dee8"
             fill-rule="nonzero"
             points="156.26079,195.21026 156.26079,200.6534 60.388855,200.6534 60.388855,195.21026 " />
          <path
             d="M 166.09759,0.22553523 H 50.551626 c -3.988546,0 -7.221782,3.23323577 -7.221782,7.22178177 v 79.43833 c 0,3.988546 3.233236,7.221782 7.221782,7.221782 h 28.885858 v 15.350361 c 0,2.32982 2.817286,3.49685 4.465005,1.84956 L 101.10283,94.107429 h 64.99476 c 3.98855,0 7.22179,-3.233236 7.22179,-7.221782 V 7.447317 c 0,-3.988546 -3.23324,-7.22178177 -7.22179,-7.22178177 z"
             id="path24"
             fill="#e6e9f2"
             fill-rule="nonzero" />
          <path
             d="M 66.067016,32.005817 V 16.927144 h 3.975458 V 32.032647 H 66.067016 Z M 81.679243,20.361433 h -3.633199 v 6.197817 c 0,0.617099 0.02633,1.019554 0.05266,1.287858 0.02633,0.241474 0.131638,0.456117 0.31593,0.643929 0.184293,0.187813 0.473896,0.268304 0.868809,0.268304 l 2.264168,-0.05366 0.184292,3.219646 c -1.316376,0.295134 -2.34315,0.456116 -3.027666,0.456116 -1.790272,0 -3.001339,-0.402456 -3.633199,-1.234197 -0.658189,-0.804912 -0.974119,-2.307413 -0.974119,-4.507504 V 12.714775 h 3.975457 v 4.185539 h 3.6332 v 3.461119 z m -21.588577,1.153706 c -0.684515,0 -1.263721,-0.241474 -1.711289,-0.72442 -0.447568,-0.482947 -0.684516,-1.073215 -0.684516,-1.770805 0,-0.69759 0.236948,-1.287858 0.658188,-1.770805 0.447568,-0.482947 1.026774,-0.69759 1.71129,-0.69759 0.684516,0 1.263721,0.241473 1.71129,0.72442 0.447567,0.482947 0.658188,1.073215 0.658188,1.797635 0,0.724421 -0.210621,1.287859 -0.658188,1.770805 -0.421241,0.429286 -0.974119,0.67076 -1.684963,0.67076 z"
             id="path26"
             fill="#004080" />
          <g
             id="Group"
             transform="translate(79.127743)"
             fill="#d6dee8"
             fill-rule="nonzero">
            <path
               d="m 0.30974068,106.18224 v 3.27555 c 0,2.32982 2.81728622,3.49685 4.46500502,1.84956 L 21.975086,94.107429 h -9.590113 z"
               id="path28" />
            <path
               d="m 86.969852,0.22553523 h -9.590113 c 3.988546,0 7.221782,3.23323577 7.221782,7.22178177 v 79.43833 c 0,3.988546 -3.233236,7.221782 -7.221782,7.221782 h 9.590113 c 3.988546,0 7.221782,-3.233236 7.221782,-7.221782 V 7.447317 c 0,-3.988546 -3.233236,-7.22178177 -7.221782,-7.22178177 z"
               id="path30" />
          </g>
          <g
             id="g44"
             transform="translate(56.355737,25.001718)"
             fill-rule="nonzero">
            <g
               id="Group-36"
               transform="translate(0.968874)">
              <path
                 d="M 90.298295,7.3797238 H 35.525311 c -1.805552,0 -3.269203,-1.4636517 -3.269203,-3.2692029 0,-1.8055513 1.463651,-3.26920294 3.269203,-3.26920294 h 54.773408 c 1.805974,0 3.269202,1.46365164 3.269202,3.26920294 -4.23e-4,1.8055512 -1.463651,3.2692029 -3.269626,3.2692029 z"
                 id="path33"
                 stroke="#e6e9f2"
                 fill="#004080" />
              <path
                 d="M 67.412861,36.265158 H 3.639453 c -1.8055512,0 -3.26920287,-1.463651 -3.26920287,-3.269203 0,-1.805551 1.46365167,-3.269203 3.26920287,-3.269203 h 63.773408 c 1.805974,0 3.269203,1.463652 3.269203,3.269203 0,1.805552 -1.463652,3.269203 -3.269203,3.269203 z"
                 id="path35"
                 stroke="#e6e9f2"
                 fill="#004080" />
              <path
                 d="M 90.303529,21.822441 H 3.639453 c -1.8055512,0 -3.26920287,-1.463652 -3.26920287,-3.269203 0,-1.805551 1.46365167,-3.269203 3.26920287,-3.269203 h 86.664076 c 1.805551,0 3.269203,1.463652 3.269203,3.269203 0,1.805551 -1.463652,3.269203 -3.269203,3.269203 z"
                 id="path37"
                 stroke="#e6e9f2"
                 fill="#004080" />
              <path
                 d="M 18.082593,54.320247 H 3.639453 c -1.8055512,0 -3.26920287,-1.463651 -3.26920287,-3.269202 0,-1.805552 1.46365167,-3.269203 3.26920287,-3.269203 h 14.44314 c 1.805552,0 3.269203,1.463651 3.269203,3.269203 0,1.805551 -1.463651,3.269202 -3.269203,3.269202 z"
                 id="path39"
                 fill="#0073e6" />
              <circle
                 id="circle41"
                 fill="#0073e6"
                 cx="84.884605"
                 cy="51.049774"
                 r="5.4162307" />
            </g>
          </g>
        </g>
        <g
           id="video-conference"
           transform="translate(188.81755,92)">
          <path
             d="M 146.7227,103.06964 H 11.049757 V 12.62122 c 0,-4.162654 3.374664,-7.5373182 7.537318,-7.5373182 H 139.18507 c 4.16266,0 7.53732,3.3746642 7.53732,7.5373182 z"
             id="path47"
             fill="#17324d"
             fill-rule="nonzero" />
          <path
             d="M 139.18538,5.0839018 H 91.448424 V 42.770796 c 0,6.937959 5.624237,12.562196 12.562196,12.562196 h 42.71177 V 12.62122 c 3.1e-4,-4.1629582 -3.37436,-7.5373182 -7.53701,-7.5373182 z"
             id="path49"
             fill="#00264d"
             fill-rule="nonzero" />
          <path
             d="M 137.92916,93.019886 H 19.843295 c -0.693674,0 -1.25622,-0.562545 -1.25622,-1.256219 V 13.877439 c 0,-0.693674 0.562546,-1.256219 1.25622,-1.256219 H 137.92886 c 0.69367,0 1.25621,0.562545 1.25621,1.256219 v 77.886228 c 3.1e-4,0.693674 -0.56224,1.256219 -1.25591,1.256219 z"
             id="path51"
             fill="#8ebeed"
             fill-rule="nonzero" />
          <path
             d="M 137.92916,12.62122 H 91.448424 v 30.149576 c 0,6.937959 5.624237,12.562196 12.562196,12.562196 h 35.17445 V 13.877439 c 3.1e-4,-0.693674 -0.56224,-1.256219 -1.25591,-1.256219 z"
             id="path53"
             fill="#0066cc"
             fill-rule="nonzero"
             opacity="0.2" />
          <g
             id="g59"
             fill-rule="nonzero">
            <path
               d="M 156.77215,100.5572 H 0.87424427 v 0 c 0,4.16275 3.37457223,7.53732 7.53731793,7.53732 H 149.23483 c 4.16275,0 7.53732,-3.37457 7.53732,-7.53732 z"
               id="path55"
               fill="#d6dee8" />
            <path
               d="M 96.473303,7.5963411 V 25.183416 l -9.995914,11.780667 c -0.71464,0.842237 -0.611202,2.104335 0.231036,2.818975 0.361412,0.306659 0.819988,0.474994 1.293969,0.474994 h 8.470909 v 2.51244 c 0,4.162653 3.374664,7.537317 7.537317,7.537317 h 45.22421 c 4.16266,0 7.53732,-3.374664 7.53732,-7.537317 V 7.5963411 c 0,-4.1626537 -3.37466,-7.53731794 -7.53732,-7.53731794 h -45.2239 c -4.162963,0 -7.537627,3.37435994 -7.537627,7.53731794 z"
               id="path57"
               fill="#e6e9f2" />
          </g>
          <g
             id="g65"
             transform="translate(106.2681,10.040021)"
             fill-rule="nonzero">
            <path
               d="M 37.942154,5.0936376 H 17.842335 c -1.38887,0 -2.512439,-1.1250909 -2.512439,-2.5124393 0,-1.3873485 1.123874,-2.51243936 2.512439,-2.51243936 h 20.099819 c 1.38887,0 2.512439,1.12509086 2.512439,2.51243936 0,1.3873484 -1.123874,2.5124393 -2.512439,2.5124393 z"
               id="path61"
               stroke="#e6e9f2"
               fill="#004080" />
            <path
               d="M 7.7925779,5.0936376 H 2.7676993 c -1.3888697,0 -2.51243936,-1.1250909 -2.51243936,-2.5124393 0,-1.3873485 1.12387396,-2.51243936 2.51243936,-2.51243936 h 5.0248786 c 1.3888696,0 2.5124391,1.12509086 2.5124391,2.51243936 0,1.3873484 -1.1238737,2.5124393 -2.5124391,2.5124393 z"
               id="path63"
               fill="#0073e6" />
          </g>
          <path
             d="M 144.21026,27.695856 H 109.0358 c -1.38887,0 -2.51244,-1.125091 -2.51244,-2.51244 0,-1.387348 1.12388,-2.512439 2.51244,-2.512439 h 35.17446 c 1.38887,0 2.51244,1.125091 2.51244,2.512439 0,1.387653 -1.12388,2.51244 -2.51244,2.51244 z"
             id="path67"
             stroke="#e6e9f2"
             fill="#004080"
             fill-rule="nonzero" />
          <g
             id="g73"
             transform="translate(106.2681,34.987954)"
             fill-rule="nonzero">
            <path
               d="m 37.942154,5.2704028 h -5.024879 c -1.388869,0 -2.512439,-1.1238739 -2.512439,-2.5124393 0,-1.3885654 1.123874,-2.51243934 2.512439,-2.51243934 h 5.024879 c 1.38887,0 2.512439,1.12387394 2.512439,2.51243934 0,1.3885654 -1.123874,2.5124393 -2.512439,2.5124393 z"
               id="path69"
               fill="#0073e6" />
            <path
               d="M 22.867214,5.2704028 H 2.767395 c -1.3888696,0 -2.5124393,-1.1238739 -2.5124393,-2.5124393 0,-1.3885654 1.1238739,-2.51243934 2.5124393,-2.51243934 h 20.099819 c 1.388869,0 2.512439,1.12387394 2.512439,2.51243934 0,1.3885654 -1.12357,2.5124393 -2.512439,2.5124393 z"
               id="path71"
               stroke="#e6e9f2"
               fill="#004080" />
          </g>
          <g
             id="g77"
             transform="translate(67.687647,100.40022)"
             fill="#f7f9fa"
             fill-rule="nonzero">
            <path
               d="M 17.931824,4.1366092 H 4.4951421 c -1.2421908,0 -2.3776888,-0.6420441 -2.9331271,-1.6582708 L 0.2822302,0.13660922 H 22.145265 L 20.865481,2.4783384 c -0.555968,1.0162267 -1.691466,1.6582708 -2.933657,1.6582708 z"
               id="path75" />
          </g>
          <path
             d="M 69.52771,66.34933 C 67.596375,65.598154 66.324031,63.738316 66.324031,61.666116 V 55.332688 H 51.249395 v 6.333428 c 0,2.072504 -1.272345,3.932038 -3.20368,4.683214 2.135787,8.003978 3.20368,13.387534 3.20368,16.15067 h 15.074636 c -2.03e-4,-2.762933 1.06769,-8.14649 3.203679,-16.15067 z"
             id="path79"
             fill="#f0f6fc"
             fill-rule="nonzero" />
          <path
             d="m 80.016186,70.428317 -6.932178,-2.695898 -11.140469,7.957478 c -1.859838,1.328325 -4.381709,1.234314 -6.137496,-0.228791 l -9.924409,-8.270544 -8.325003,3.237451 c -3.862974,1.502352 -6.407359,5.221724 -6.407359,9.366427 V 93.019278 H 86.423241 V 79.79444 c 3.04e-4,-4.144095 -2.544081,-7.863771 -6.407055,-9.366123 z"
             id="path81"
             fill="#004d99"
             fill-rule="nonzero" />
          <path
             d="m 51.249091,62.149207 c 2.288212,1.091624 4.837769,1.721103 7.537318,1.721103 2.699548,0 5.249105,-0.629479 7.537318,-1.721103 V 53.820553 H 51.249091 Z"
             id="path83"
             fill="#e6e9f2"
             fill-rule="nonzero" />
          <path
             d="m 58.786713,60.845432 c -6.937959,0 -12.562197,-5.624238 -12.562197,-12.562197 v -5.024879 c 0,-6.937959 5.624238,-12.562196 12.562197,-12.562196 6.937959,0 12.562196,5.624237 12.562196,12.562196 v 5.024879 c 0,6.937959 -5.624237,12.562197 -12.562196,12.562197 z"
             id="path85"
             fill="#ffffff"
             fill-rule="nonzero" />
          <path
             d="m 58.786713,55.320553 c 2.761424,0 5,-2.238576 5,-5 h -10 c 0,2.761424 2.238576,5 5,5 z"
             id="Oval-5"
             fill="#8ebeed"
             opacity="0.5" />
          <g
             id="Group-29"
             transform="translate(51.786713,43)"
             fill="#004d99">
            <circle
               id="Oval-3"
               cx="1.8865399"
               cy="1.7584466"
               r="1.5" />
            <circle
               id="Oval-3-Copy"
               cx="11.685973"
               cy="1.7584466"
               r="1.5" />
          </g>
          <g
             id="g97"
             transform="translate(31.120064,66.324991)"
             fill="#004080"
             fill-rule="nonzero">
            <path
               d="m 27.666344,7.5068937 c -1.166772,0 -2.33324,-0.4046433 -3.275177,-1.2139299 L 16.951816,0.00912729 c -0.0097,0.00395516 -0.01673,0.01156124 -0.02677,0.01521216 l -5.301435,2.06155105 9.492688,8.0180225 c 1.821807,1.565634 4.14805,2.427555 6.550049,2.427555 2.401999,0 4.728242,-0.862225 6.517495,-2.400174 L 43.708777,2.0855863 38.407342,0.02373096 c -0.0097,-0.0039552 -0.01673,-0.01156124 -0.02677,-0.01521215 L 30.941521,6.2929638 c -0.941633,0.8092866 -2.108405,1.2139299 -3.275177,1.2139299 z"
               id="path91" />
            <path
               d="m 10.079269,22.27972 c 0,-1.999181 -0.7940746,-3.916216 -2.2075879,-5.32973 L 0.74417856,9.8224877 C 0.296637,10.966746 0.02951158,12.192541 0.02951158,13.470058 V 26.694896 H 10.079269 Z"
               id="path93" />
            <path
               d="m 45.253724,22.27972 c 0,-1.999181 0.794074,-3.916216 2.207587,-5.32973 l 7.127503,-7.1275023 c 0.447541,1.1442583 0.714667,2.3700533 0.714667,3.6475703 V 26.694896 H 45.253724 Z"
               id="path95" />
          </g>
          <path
             d="M 70.916667,47 70.305651,39.667818 C 70.132887,37.59465 68.399823,36 66.319468,36 H 51.680531 c -2.080354,0 -3.813419,1.59465 -3.986183,3.667818 L 47.083333,47 h -1.451385 l -0.689969,-6.945007 c -0.655193,-6.594951 4.159933,-12.472354 10.754884,-13.127546 0.394231,-0.03917 0.790159,-0.05879 1.186331,-0.05879 h 4.274342 c 6.627417,0 12,5.372583 12,12 0,0.396171 -0.01962,0.7921 -0.05879,1.186331 L 72.408781,47 Z"
             id="Combined-Shape"
             fill="#004d99" />
          <circle
             id="Oval-6"
             fill="#ffffff"
             cx="46.82019"
             cy="46.595676"
             r="2.5956757" />
          <circle
             id="Oval-6-Copy"
             fill="#ffffff"
             cx="71.123383"
             cy="46.595676"
             r="2.5956757" />
        </g>
      </g>
    </g>
  </g>
</svg>
