<?xml version="1.0" encoding="UTF-8"?>
<svg width="469px" height="248px" viewBox="0 0 469 248" version="1.1" xmlns="http://www.w3.org/2000/svg" xmlns:xlink="http://www.w3.org/1999/xlink">
    <!-- Generator: Sketch 50 (54983) - http://www.bohemiancoding.com/sketch -->
    <title>Group 24</title>
    <desc>Created with Sketch.</desc>
    <defs>
        <polygon id="path-1" points="0.0395962306 0.632879752 270.311587 0.632879752 270.311587 163.750872 0.0395962306 163.750872"></polygon>
        <polygon id="path-3" points="0.0145554696 0.0293535304 124.206917 0.0293535304 124.206917 106.725555 0.0145554696 106.725555"></polygon>
    </defs>
    <g id="Page-1" stroke="none" stroke-width="1" fill="none" fill-rule="evenodd">
        <g id="Group-24" transform="translate(-4.000000, -2.000000)">
            <circle id="Oval-8" stroke="#65DDE0" stroke-width="3" cx="77.3685829" cy="29" r="4.5"></circle>
            <g id="Group" transform="translate(106.631417, 20.485167)">
                <polygon id="Fill-1" fill="#464655" points="93.2108467 42.5771668 102.532459 42.5771668 102.532459 19.2734652 93.2108467 19.2734652"></polygon>
                <polygon id="Fill-2" fill="#464655" points="167.778468 42.5771668 177.100081 42.5771668 177.100081 19.2734652 167.778468 19.2734652"></polygon>
                <path d="M247.007226,228.99688 L23.3017218,228.99688 C15.5804568,228.99688 9.32161262,222.738036 9.32161262,215.017431 L9.32161262,126.467061 L260.989975,126.467061 L260.989975,215.017431 C260.989975,222.738036 254.730471,228.99688 247.007226,228.99688 Z" id="Fill-3" fill="#8EBEED"></path>
                <path d="M260.989975,147.662263 L260.989975,131.983476 C249.58494,150.990326 228.841135,163.750872 205.062279,163.750872 L65.2460088,163.750872 C41.4704522,163.750872 20.7233472,150.990326 9.32161262,131.983476 L9.32161262,147.662263 C22.9974907,163.199164 42.9678496,173.072484 65.2460088,173.072484 L205.062279,173.072484 C227.340438,173.072484 247.314097,163.199164 260.989975,147.662263 Z" id="Fill-4" fill="#66A5E3"></path>
                <g id="Group-8">
                    <mask id="mask-2" fill="white">
                        <use xlink:href="#path-1"></use>
                    </mask>
                    <g id="Clip-6"></g>
                    <path d="M177.100081,25.8372004 C176.051441,25.8372004 174.983662,25.6590174 173.939642,25.2828532 C163.187285,21.408362 149.413736,19.2734652 135.155794,19.2734652 C120.894551,19.2734652 107.121002,21.408362 96.3686461,25.2828532 C91.5352662,27.0224476 86.1864754,24.5146863 84.4409415,19.6707474 C82.6960676,14.8268085 85.2064687,9.48791678 90.0530473,7.74304289 C102.963398,3.08982586 118.559034,0.632879752 135.155794,0.632879752 C151.751894,0.632879752 167.350829,3.08982586 180.25854,7.74304289 C185.104459,9.48791678 187.61288,14.8268085 185.869986,19.6707474 C184.498636,23.4706657 180.918477,25.8372004 177.100081,25.8372004 Z" id="Fill-5" fill="#707487" mask="url(#mask-2)"></path>
                    <path d="M205.062279,163.750872 L65.2460088,163.750872 C29.212779,163.750872 0,134.538092 0,98.5022229 L0,51.8967996 C0,44.1761946 6.25884418,37.9166905 13.9827489,37.9166905 L256.328838,37.9166905 C264.049443,37.9166905 270.311587,44.1761946 270.311587,51.8967996 L270.311587,98.5022229 C270.311587,134.538092 241.098808,163.750872 205.062279,163.750872 Z" id="Fill-7" fill="#2079D4" mask="url(#mask-2)"></path>
                </g>
                <path d="M79.2287577,182.394097 L69.9071451,182.394097 C67.33405,182.394097 65.2460088,180.306056 65.2460088,177.73362 L65.2460088,163.750872 L83.889234,163.750872 L83.889234,177.73362 C83.889234,180.306056 81.8038326,182.394097 79.2287577,182.394097 Z" id="Fill-9" fill="#004080"></path>
                <path d="M88.5503703,154.429259 C88.5503703,162.152504 82.2908662,168.412008 74.5676214,168.412008 C66.8470164,168.412008 60.5855325,162.152504 60.5855325,154.429259 C60.5855325,146.708654 66.8470164,140.44717 74.5676214,140.44717 C82.2908662,140.44717 88.5503703,146.708654 88.5503703,154.429259 Z" id="Fill-10" fill="#004D99"></path>
                <path d="M200.401802,182.394097 L191.08019,182.394097 C188.507755,182.394097 186.419054,180.306056 186.419054,177.73362 L186.419054,163.750872 L205.062279,163.750872 L205.062279,177.73362 C205.062279,180.306056 202.976877,182.394097 200.401802,182.394097 Z" id="Fill-11" fill="#004080"></path>
                <path d="M209.723415,154.429259 C209.723415,162.152504 203.464571,168.412008 195.740666,168.412008 C188.020061,168.412008 181.761217,162.152504 181.761217,154.429259 C181.761217,146.708654 188.020061,140.44717 195.740666,140.44717 C203.464571,140.44717 209.723415,146.708654 209.723415,154.429259 Z" id="Fill-12" fill="#004D99"></path>
            </g>
            <g id="Group-21" transform="translate(342.500000, 78.985167)">
                <path d="M122.767751,0 L7.22178176,0 C3.23323574,0 0,3.23323574 0,7.22178176 L0,86.6601117 C0,90.6486577 3.23323574,93.8818935 7.22178176,93.8818935 L36.1076394,93.8818935 L36.1076394,109.232252 C36.1076394,111.562078 38.9249255,112.729106 40.5726444,111.081811 L57.7729847,93.8818935 L122.767751,93.8818935 C126.756297,93.8818935 129.989533,90.6486577 129.989533,86.6601117 L129.989533,7.22178176 C129.989533,3.23323574 126.756297,0 122.767751,0 Z" id="Shape" fill="#E6E9F2" fill-rule="nonzero"></path>
                <path d="M22.737172,31.7802815 L22.737172,16.7016091 L26.7126295,16.7016091 L26.7126295,31.8071119 L22.737172,31.8071119 L22.737172,31.7802815 Z M38.349399,20.1358975 L34.7161995,20.1358975 L34.7161995,26.3337148 C34.7161995,26.9508135 34.742527,27.3532691 34.7688546,27.6215729 C34.7951821,27.8630463 34.9004922,28.0776894 35.084785,28.265502 C35.2690777,28.4533146 35.5586806,28.5338058 35.9535935,28.5338058 L38.2177614,28.480145 L38.4020541,31.6997904 C37.0856775,31.9949245 36.0589037,32.1559068 35.3743878,32.1559068 C33.5841156,32.1559068 32.3730491,31.7534511 31.7411883,30.9217094 C31.083,30.1167981 30.7670696,28.6142969 30.7670696,26.4142059 L30.7670696,12.4892397 L34.742527,12.4892397 L34.742527,16.6747787 L38.3757266,16.6747787 L38.3757266,20.1358975 L38.349399,20.1358975 Z M16.7608221,21.2896037 C16.0763062,21.2896037 15.4971005,21.0481303 15.0495324,20.5651835 C14.6019644,20.0822367 14.3650166,19.4919684 14.3650166,18.7943786 C14.3650166,18.0967887 14.6019644,17.5065204 15.0232049,17.0235736 C15.470773,16.5406268 16.0499787,16.3259838 16.7344945,16.3259838 C17.4190104,16.3259838 17.9982161,16.5674572 18.4457842,17.050404 C18.8933522,17.5333508 19.1039725,18.1236191 19.1039725,18.8480393 C19.1039725,19.5724595 18.8933522,20.1358975 18.4457842,20.6188443 C18.0245436,21.0481303 17.4716655,21.2896037 16.7608221,21.2896037 L16.7608221,21.2896037 Z" id="Shape" fill="#004080"></path>
                <path d="M36.1076394,105.956702 L36.1076394,109.232252 C36.1076394,111.562078 38.9249255,112.729106 40.5726444,111.081811 L57.7729847,93.8818935 L48.1828715,93.8818935 L36.1076394,105.956702 Z" id="Shape" fill="#D6DEE8" fill-rule="nonzero"></path>
                <path d="M122.767751,0 L113.177638,0 C117.166184,0 120.39942,3.23323574 120.39942,7.22178176 L120.39942,86.6601117 C120.39942,90.6486577 117.166184,93.8818935 113.177638,93.8818935 L122.767751,93.8818935 C126.756297,93.8818935 129.989533,90.6486577 129.989533,86.6601117 L129.989533,7.22178176 C129.989533,3.23323574 126.756297,0 122.767751,0 Z" id="Shape" fill="#D6DEE8" fill-rule="nonzero"></path>
                <g id="Group" transform="translate(13.025892, 24.776183)" fill-rule="nonzero">
                    <g id="Group-36" transform="translate(0.968874, 0.000000)">
                        <path d="M90.2982953,7.37972376 L35.5253107,7.37972376 C33.7197594,7.37972376 32.2561078,5.91607208 32.2561078,4.11052086 C32.2561078,2.30496963 33.7197594,0.841317956 35.5253107,0.841317956 L90.2987185,0.841317956 C92.1046928,0.841317956 93.5679214,2.30496963 93.5679214,4.11052086 C93.5674982,5.91607208 92.1042697,7.37972376 90.2982953,7.37972376 Z" id="Shape" stroke="#E6E9F2" fill="#004080"></path>
                        <path d="M67.4128609,36.2651582 L3.63945303,36.2651582 C1.83390181,36.2651582 0.370250134,34.8015066 0.370250134,32.9959553 C0.370250134,31.1904041 1.83390181,29.7267524 3.63945303,29.7267524 L67.4128609,29.7267524 C69.2188352,29.7267524 70.6820638,31.1904041 70.6820638,32.9959553 C70.6820638,34.8015066 69.2184121,36.2651582 67.4128609,36.2651582 Z" id="Shape" stroke="#E6E9F2" fill="#004080"></path>
                        <path d="M90.3035289,21.822441 L3.63945303,21.822441 C1.83390181,21.822441 0.370250134,20.3587893 0.370250134,18.5532381 C0.370250134,16.7476869 1.83390181,15.2840352 3.63945303,15.2840352 L90.3035289,15.2840352 C92.1090801,15.2840352 93.5727318,16.7476869 93.5727318,18.5532381 C93.5727318,20.3587893 92.1090801,21.822441 90.3035289,21.822441 Z" id="Shape" stroke="#E6E9F2" fill="#004080"></path>
                        <path d="M18.0825934,54.3202474 L3.63945303,54.3202474 C1.83390181,54.3202474 0.370250134,52.8565957 0.370250134,51.0510445 C0.370250134,49.2454932 1.83390181,47.7818416 3.63945303,47.7818416 L18.0825934,47.7818416 C19.8881446,47.7818416 21.3517963,49.2454932 21.3517963,51.0510445 C21.3517963,52.8565957 19.8881446,54.3202474 18.0825934,54.3202474 Z" id="Shape" fill="#0073E6"></path>
                        <circle id="Oval" fill="#0073E6" cx="84.8846037" cy="51.049775" r="5.41623054"></circle>
                    </g>
                </g>
            </g>
            <g id="Group-22" transform="translate(72.868583, 178.543414) rotate(-10.000000) translate(-72.868583, -178.543414) translate(9.868583, 118.043414)">
                <path d="M92.0214545,13.8520438 C90.022746,13.8520438 35.4249368,13.8520438 32.5720647,13.8520438 C30.8450583,13.8520438 29.4450647,15.2520374 29.4450647,16.9790439 L29.4450647,21.9041296 C32.208178,21.9041296 92.6856691,21.9041296 95.1484546,21.9041296 L95.1484546,16.9788013 C95.148212,15.2517948 93.7482184,13.8520438 92.0214545,13.8520438" id="Fill-1" fill="#4A5D67"></path>
                <g id="Group-6" transform="translate(0.193180, 13.822690)">
                    <mask id="mask-4" fill="white">
                        <use xlink:href="#path-3"></use>
                    </mask>
                    <g id="Clip-3"></g>
                    <path d="M37.3772331,0.0293535304 C34.6536621,0.0293535304 32.839808,0.0293535304 32.3786422,0.0293535304 C30.6516357,0.0293535304 29.2516421,1.42934712 29.2516421,3.15635359 L29.2516421,8.08143933 C29.6790878,8.08143933 31.4888178,8.08143933 34.250233,8.08143933 L34.250233,3.156111 C34.2504756,1.42910453 35.6502266,0.0293535304 37.3772331,0.0293535304" id="Fill-2" fill="#36434F" mask="url(#mask-4)"></path>
                    <path d="M121.079917,7.33134746 C119.975157,7.33134746 9.61146178,7.33134746 3.12700006,7.33134746 C1.39999359,7.33134746 0,8.73134105 0,10.4583475 L0,103.613353 C0,105.34036 1.39999359,106.740111 3.12700006,106.740111 L121.079917,106.740111 C122.806923,106.740111 124.206917,105.340117 124.206917,103.613353 L124.206917,10.4583475 C124.206674,8.73134105 122.806681,7.33134746 121.079917,7.33134746" id="Fill-4" fill="#E6E9F2" mask="url(#mask-4)"></path>
                    <path d="M4.99859086,103.613353 L4.99859086,10.4583475 C4.99859086,8.73134105 6.39858445,7.33159006 8.12559092,7.33159006 C5.53035069,7.33159006 3.78830356,7.33159006 3.12700006,7.33159006 C1.39999359,7.33134746 0,8.73134105 0,10.4583475 L0,103.613353 C0,105.34036 1.39999359,106.740111 3.12700006,106.740111 L8.12559092,106.740111 C6.39858445,106.740111 4.99859086,105.34036 4.99859086,103.613353" id="Fill-5" fill="#D6DEE8" mask="url(#mask-4)"></path>
                </g>
                <path d="M69.3319033,0.174996779 L55.2611308,0.174996779 C53.706364,0.174996779 52.446103,1.43525786 52.446103,2.99002461 L52.446103,27.5286057 L72.1469311,27.5286057 L72.1469311,2.9902672 C72.1471737,1.43550045 70.88667,0.174996779 69.3319033,0.174996779" id="Fill-7" fill="#004D99"></path>
                <path d="M60.2597217,0.174996779 L55.2611308,0.174996779 C53.706364,0.174996779 52.446103,1.43550045 52.446103,2.99002461 L52.446103,27.5286057 L57.4446938,27.5286057 L57.4446938,2.9902672 C57.4446938,1.43550045 58.7049549,0.174996779 60.2597217,0.174996779" id="Fill-8" fill="#004080"></path>
                <path d="M74.2545631,29.4033502 L50.3387136,29.4033502 C49.3035771,29.4033502 48.4642117,28.5642273 48.4642117,27.5288483 C48.4642117,26.4937118 49.3033345,25.6543464 50.3387136,25.6543464 L74.2545631,25.6543464 C75.2896996,25.6543464 76.129065,26.4934692 76.129065,27.5288483 C76.1288224,28.5639848 75.2896996,29.4033502 74.2545631,29.4033502" id="Fill-9" fill="#D6DEE8"></path>
                <path d="M65.2393904,37.6269479 L16.2682406,37.6269479 C14.2952467,37.6269479 12.6808025,39.2413921 12.6808025,41.214386 L12.6808025,104.786127 C12.6808025,106.759121 14.2952467,108.373566 16.2682406,108.373566 L65.2391478,108.373566 C67.2121417,108.373566 68.8265859,106.759364 68.8265859,104.786127 L68.8265859,41.2141434 C68.8265859,39.2411495 67.2123843,37.6269479 65.2393904,37.6269479" id="Fill-10" fill="#8EBEED"></path>
                <path d="M40.6166302,43.1563283 C32.5895313,43.1563283 26.0827512,49.663351 26.0827512,57.6902073 L26.0827512,63.4415585 C27.0540862,62.5410601 28.4358854,62.0517537 29.7849349,62.231999 L29.7849349,61.5078644 C29.7849349,60.9321955 30.2764246,60.4773371 30.8465138,60.5205183 C36.4656529,60.92419 42.1844969,59.1384765 46.5084417,56.3139876 C46.9121134,56.050291 47.4465417,56.1157906 47.7747676,56.4682756 C51.4713717,60.4419188 51.4490533,60.288116 51.4490533,60.8067759 L51.4490533,62.2288453 C52.9276464,62.007117 54.2393368,62.4641587 55.1505092,63.3112871 L55.1505092,57.6899647 C55.1505092,49.6631084 48.6437291,43.1563283 40.6166302,43.1563283" id="Fill-12" fill="#4A5D67"></path>
                <path d="M29.9838596,57.6902073 C29.9838596,50.3251396 35.4632662,44.2438644 42.5673057,43.2902386 C41.9288058,43.2046039 41.2786615,43.1563283 40.6168728,43.1563283 C32.5897739,43.1563283 26.0829938,49.6631084 26.0829938,57.6902073 L26.0829938,63.4415585 C27.0543288,62.5410601 28.436128,62.0517537 29.7851775,62.231999 L29.7851775,61.5078644 C29.7851775,61.2841953 29.8598955,61.0794484 29.9841022,60.9144864 L29.9841022,57.6902073 L29.9838596,57.6902073" id="Fill-13" fill="#36434F"></path>
                <path d="M51.2564359,61.6514783 L51.2564359,69.6130776 C51.2564359,69.6994401 51.2518267,69.7845896 51.249886,69.8707094 C54.0673397,70.2974273 56.2739489,68.2616023 56.2739489,65.7614578 C56.2739489,63.2562189 54.065399,61.2303401 51.2564359,61.6514783" id="Fill-14" fill="#F0A97E"></path>
                <path d="M29.9775523,69.6130776 L29.9775523,61.654632 C27.524713,61.327134 24.9600393,63.2096414 24.9600393,65.7614578 C24.9600393,68.2584486 27.1617967,70.2976699 29.9838596,69.8707094 C29.9816763,69.7845896 29.9775523,69.6989549 29.9775523,69.6130776" id="Fill-15" fill="#F0A97E"></path>
                <path d="M54.7812855,62.5789043 C53.8810297,61.8319662 52.6421166,61.4435777 51.2564359,61.6512357 L51.2564359,69.612835 C51.2564359,69.6991975 51.2520693,69.784347 51.249886,69.8704669 C52.6396907,70.0807934 53.8800593,69.6914346 54.7812855,68.9432834 L54.7812855,62.5789043" id="Fill-16" fill="#E49567"></path>
                <path d="M29.9775523,68.9440112 C29.0515818,68.1749972 28.4846463,67.027541 28.4846463,65.7612152 C28.4846463,64.5293373 29.0833612,63.4544158 29.9775523,62.7079628 L29.9775523,61.6543894 C27.524713,61.3268914 24.9600393,63.2093988 24.9600393,65.7612152 C24.9600393,68.2579634 27.1617967,70.2974273 29.9838596,69.8704669 C29.9816763,69.7845896 29.9775523,69.6989549 29.9775523,69.6130776 L29.9775523,68.9440112" id="Fill-17" fill="#E49567"></path>
                <path d="M34.672419,78.3747426 L34.672419,84.0787885 L40.7454461,91.575098 L46.8184732,84.0787885 L46.8184732,78.2139046 C43.0250752,80.8304929 38.1169709,80.5757722 34.672419,78.3747426" id="Fill-18" fill="#F0A97E"></path>
                <path d="M38.5616405,79.8967595 C37.1138564,79.6282111 35.8077456,79.1000902 34.6721764,78.3747426 L34.6721764,84.0787885 L38.5616405,88.8796676 L38.5616405,79.8967595" id="Fill-19" fill="#E49567"></path>
                <path d="M62.884558,89.9155319 L46.8184732,83.6935538 L40.7454461,91.1898632 L34.6721764,83.6935538 L18.623073,89.9155319 C18.623073,89.9155319 12.6808025,92.3584249 12.6808025,99.1325404 L12.6808025,105.28635 C12.6810451,107.259344 14.2952467,108.873546 16.2682406,108.873546 L65.2391478,108.873546 C67.2121417,108.873546 68.8265859,107.259344 68.8265859,105.286108 L68.8265859,99.1325404 C68.8265859,92.3584249 62.884558,89.9155319 62.884558,89.9155319" id="Fill-20" fill="#FFFFFF"></path>
                <path d="M47.7747676,56.0832834 C47.4467843,55.7307985 46.9121134,55.6650563 46.5084417,55.9289954 C42.1844969,58.7537269 36.4658954,60.5391979 30.8465138,60.1355262 C30.2766672,60.0923449 29.7849349,60.5472034 29.7849349,61.1228722 L29.7849349,69.805695 C29.7849349,75.3862621 34.157398,80.4831024 40.7714034,80.4831024 C46.6590908,80.4831024 51.4488107,75.6931399 51.4488107,69.805695 L51.4488107,60.4220263 C51.4490533,59.9031238 51.4713717,60.056684 47.7747676,56.0832834" id="Fill-22" fill="#F4C396"></path>
                <path d="M33.674399,69.8054524 L33.674399,60.1578446 C32.7336304,60.2078183 31.7887379,60.2029665 30.8465138,60.1352836 C30.2766672,60.0921024 29.7849349,60.5467182 29.7849349,61.1226296 L29.7849349,69.8054524 C29.7849349,76.4983 35.8133252,81.4743298 42.5614835,80.3297847 C37.5238355,79.4753787 33.674399,75.0827805 33.674399,69.8054524" id="Fill-23" fill="#F0A97E"></path>
                <path d="M48.0782491,95.0417257 L52.6195556,85.9401905 L46.8184732,83.6935538 L40.7454461,91.1898632 L46.6663686,95.3949384 C47.1457287,95.7355364 47.8155229,95.5679059 48.0782491,95.0417257" id="Fill-24" fill="#C6CBCF"></path>
                <path d="M33.4211338,95.0417257 L28.8798273,85.9401905 L34.6809097,83.6935538 L40.7539368,91.1898632 L34.8330143,95.3949384 C34.3534116,95.7355364 33.6836174,95.5679059 33.4211338,95.0417257" id="Fill-25" fill="#C6CBCF"></path>
                <path d="M40.753209,91.1952002 L40.753209,91.1901058 L40.7495702,91.1927743 L40.7459313,91.1901058 L40.7459313,91.1952002 L36.439453,94.2537896 L38.4750354,97.3174734 C40.1166498,97.3174734 41.3824905,97.3174734 43.0241049,97.3174734 L45.0596873,94.2537896 L40.753209,91.1952002" id="Fill-26" fill="#65DDE0"></path>
                <path d="M42.9045074,92.7230394 L40.753209,91.1949576 L40.753209,91.1898632 L40.7495702,91.1925317 L40.7459313,91.1898632 L40.7459313,91.1949576 L36.439453,94.253547 L38.4750354,97.3172308 C40.0589131,97.3172308 41.2890929,97.3172308 42.7851526,97.3172308 L41.1136995,94.8015604 C40.9106507,94.4961382 40.9870669,94.0847036 41.2859392,93.8721937 L42.9045074,92.7230394" id="Fill-27" fill="#00C5CA"></path>
                <path d="M38.4750354,97.3174734 L36.9098373,108.873303 L44.5895456,108.873303 L43.0243475,97.3174734 C41.3820053,97.3174734 40.117135,97.3174734 38.4750354,97.3174734" id="Fill-28" fill="#65DDE0"></path>
                <path d="M38.4750354,97.3174734 L36.9098373,108.873303 L41.2199544,108.873303 L42.7851526,97.3174734 C41.2825429,97.3174734 40.0649779,97.3174734 38.4750354,97.3174734" id="Fill-29" fill="#00C5CA"></path>
                <path d="M24.6689299,108.873303 L24.6689299,101.46093 C24.6689299,100.425794 23.8298071,99.5864285 22.794428,99.5864285 C21.7592915,99.5864285 20.9199261,100.425551 20.9199261,101.46093 L20.9199261,108.873303 L24.6689299,108.873303" id="Fill-30" fill="#C6CBCF"></path>
                <path d="M60.5879475,108.873303 L60.5879475,101.46093 C60.5879475,100.425794 59.7488247,99.5864285 58.7134456,99.5864285 C57.6783091,99.5864285 56.8389437,100.425551 56.8389437,101.46093 L56.8389437,108.873303 L60.5879475,108.873303" id="Fill-31" fill="#C6CBCF"></path>
                <path d="M111.432144,71.4509483 L81.338225,71.4509483 C80.3030885,71.4509483 79.4637231,70.6118254 79.4637231,69.5764464 C79.4637231,68.5413099 80.3028459,67.7019445 81.338225,67.7019445 L111.432386,67.7019445 C112.467523,67.7019445 113.306888,68.5410673 113.306888,69.5764464 C113.306646,70.6115829 112.467523,71.4509483 111.432144,71.4509483" id="Fill-32" fill="#004080"></path>
                <path d="M111.432144,81.320527 L81.338225,81.320527 C80.3030885,81.320527 79.4637231,80.4814042 79.4637231,79.4460251 C79.4637231,78.4108887 80.3028459,77.5715232 81.338225,77.5715232 L111.432386,77.5715232 C112.467523,77.5715232 113.306888,78.4106461 113.306888,79.4460251 C113.306646,80.4811616 112.467523,81.320527 111.432144,81.320527" id="Fill-33" fill="#004080"></path>
                <path d="M111.432144,91.1901058 L81.338225,91.1901058 C80.3030885,91.1901058 79.4637231,90.350983 79.4637231,89.3156039 C79.4637231,88.2802249 80.3028459,87.441102 81.338225,87.441102 L111.432386,87.441102 C112.467523,87.441102 113.306888,88.2802249 113.306888,89.3156039 C113.306888,90.350983 112.467523,91.1901058 111.432144,91.1901058" id="Fill-34" fill="#004080"></path>
                <path d="M79.4637231,55.3597553 L79.4637231,55.3597553 C79.4637231,57.3762122 81.0983844,59.0108736 83.1148414,59.0108736 L109.65577,59.0108736 C111.672227,59.0108736 113.306888,57.3762122 113.306888,55.3597553 L113.306888,55.3597553 C113.306888,53.3432984 111.672227,51.708637 109.65577,51.708637 L83.1148414,51.708637 C81.0983844,51.708637 79.4637231,53.3432984 79.4637231,55.3597553 Z" id="Fill-37" fill="#0066CC"></path>
            </g>
            <g id="Group-6-Copy-2" transform="translate(411.058458, 203.942214)">
                <circle id="Oval" fill="#00C5CA" cx="13.0846433" cy="12.9647595" r="12.9618611"></circle>
                <path d="M6.86952276,11.9691803 L9.16998729,11.9691803 C9.35363782,11.9691803 9.49862508,12.1141675 9.49862508,12.2978181 L9.49862508,18.918903 C9.49862508,19.1025535 9.35363782,19.2475408 9.16998729,19.2475408 L6.86952276,19.2475408 C6.68587223,19.2475408 6.53121915,19.1025535 6.53121915,18.918903 L6.53121915,12.2978181 C6.53121915,12.1141675 6.68587223,11.9691803 6.86952276,11.9691803 Z M10.8518395,18.3196223 L17.8788888,18.3196223 C18.3911771,18.3196223 18.816473,17.9039922 18.816473,17.382038 C18.816473,16.9954053 18.5651618,16.6571017 18.2171924,16.5121145 L18.3911771,16.5121145 C18.8841338,16.5121145 19.2900981,15.9708287 19.2900981,15.477872 C19.2900981,14.9752495 18.8841338,14.5692852 18.3911771,14.5692852 L18.2171924,14.5692852 L18.2171924,14.4919586 L18.7198149,14.4919586 C19.2127716,14.4919586 19.6284017,14.0859943 19.6284017,13.5930376 C19.6284017,13.0904151 19.2127716,12.6844508 18.7198149,12.6844508 L18.2171924,12.6844508 L18.2171924,12.6071242 L18.7198149,12.6071242 C19.2127716,12.6071242 19.6284017,12.2011599 19.6284017,11.7082032 C19.6284017,11.2055807 19.2127716,10.7996164 18.7198149,10.7996164 L17.8208938,10.7996164 C17.7822306,10.7996164 17.7532331,10.7996164 17.7145699,10.7996164 C17.6952382,10.7996164 17.6662408,10.7996164 17.6372433,10.7996164 L14.7858272,10.7996164 C14.7568297,10.7899506 14.7568297,10.7609531 14.7858272,10.7029582 C14.8341563,10.6063 14.9404803,10.4129837 15.1047992,10.1230092 C15.2691181,9.83303464 15.4721002,9.45606777 15.5784242,8.9727769 C15.6847482,8.48948603 15.6750824,7.89987117 15.58809,7.43591193 C15.5107635,6.98161852 15.3464446,6.64331491 15.1434624,6.43066693 C14.9308145,6.21801894 14.689169,6.12136077 14.4378578,6.11169495 C14.1865465,6.10202914 13.9255694,6.16968986 13.7419189,6.33400875 C13.5582684,6.50799347 13.4616102,6.76897053 13.4132811,7.10727414 C13.3746179,7.45524357 13.4036153,7.88053953 13.3939495,8.1415166 C13.3746179,8.40249367 13.3262888,8.50881766 13.1619699,8.63447329 C12.9879852,8.76012892 12.7076765,8.92444781 12.4466994,9.14676161 C12.1857223,9.37874123 11.9440769,9.66871575 11.6927656,10.0070194 C11.2868013,10.5289735 10.2718905,11.8435247 10.2718905,12.4041421 L10.2718905,17.7396733 C10.2718905,18.0586452 10.5328675,18.3196223 10.8518395,18.3196223 Z" id="Shape" fill="#FEFEFE"></path>
            </g>
            <g id="Group-40-Copy-3" transform="translate(400.356771, 29.000000)">
                <circle id="Oval-Copy" fill="#66A5E3" cx="9.7284745" cy="9.62433948" r="9.61888256"></circle>
                <path d="M9.7284745,7.22688332 C10.3631177,6.12575019 11.0031853,5.57789577 12.277896,5.57789577 C13.68279,5.57789577 14.8273176,7.25942913 14.8273176,8.46904829 C14.8273176,10.6658903 11.7788603,13.0471585 9.7284745,14.3598393 C7.8842121,13.2261604 4.62963141,10.6658903 4.62963141,8.46904829 C4.62963141,7.25942913 5.77415895,5.57789577 7.17905295,5.57789577 C8.45376373,5.57789577 9.08840696,6.12575019 9.7284745,7.22688332 Z" id="Shape-Copy" fill="#FEFEFE" fill-rule="nonzero"></path>
            </g>
            <polygon id="Star-Copy-2" fill="#004080" transform="translate(441.828895, 9.362998) rotate(10.000000) translate(-441.828895, -9.362998) " points="441.828895 14.1488645 437.104963 16.632383 438.007153 11.3722064 434.185411 7.64692863 439.466929 6.87947921 441.828895 2.09361241 444.190862 6.87947921 449.47238 7.64692863 445.650638 11.3722064 446.552828 16.632383"></polygon>
            <g id="Group-46-Copy-3" transform="translate(42.786948, 54.213052) rotate(10.000000) translate(-42.786948, -54.213052) translate(38.286948, 49.713052)" stroke="#0073E6" stroke-linecap="round" stroke-linejoin="round" stroke-width="3">
                <path d="M0.409090909,0.409090909 L8.69255048,8.69255048" id="Line-6"></path>
                <path d="M0.409090909,0.409090909 L8.69255048,8.69255048" id="Line-6" transform="translate(4.500000, 4.500000) scale(-1, 1) translate(-4.500000, -4.500000) "></path>
            </g>
        </g>
    </g>
</svg>