<svg width="100" height="100" viewBox="0 0 100 100" fill="none" xmlns="http://www.w3.org/2000/svg">
<circle cx="50" cy="50" r="49.5" fill="white" stroke="#004D99"/>
<path fill-rule="evenodd" clip-rule="evenodd" d="M60.9628 29.4121C62.7732 26.7538 65.8551 25 69.3553 25C74.9313 25 79.4523 29.4478 79.4523 34.9335V44.0406C79.4523 44.4047 79.1523 44.6998 78.7823 44.6998C78.4122 44.6998 78.1123 44.4047 78.1123 44.0406V34.9335C78.1123 30.1758 74.1912 26.3183 69.3553 26.3183C66.1488 26.3183 63.3451 28.0149 61.8186 30.5474L61.5224 31.0388L60.9859 30.8202C60.4247 30.5916 59.8106 30.4641 59.1653 30.4641C56.5403 30.4641 54.4123 32.5576 54.4123 35.1401V43.9541C54.4123 44.3181 54.1123 44.6132 53.7423 44.6132C53.3722 44.6132 53.0723 44.3181 53.0723 43.9541V35.1401C53.0723 31.8296 55.8002 29.1458 59.1653 29.1458C59.791 29.1458 60.3946 29.2396 60.9628 29.4121Z" fill="#004D99"/>
<path fill-rule="evenodd" clip-rule="evenodd" d="M70.2915 59.5259C70.6615 59.5259 70.9615 59.821 70.9615 60.185V61.1196C70.9615 63.6727 68.8575 65.7426 66.2625 65.7426C63.6663 65.7426 61.5635 63.6726 61.5635 61.1196V60.186C61.5635 59.822 61.8634 59.5269 62.2335 59.5269C62.6035 59.5269 62.9035 59.822 62.9035 60.186V61.1196C62.9035 62.9447 64.4066 64.4243 66.2625 64.4243C68.1174 64.4243 69.6215 62.9446 69.6215 61.1196V60.185C69.6215 59.821 69.9214 59.5259 70.2915 59.5259Z" fill="#004D99"/>
<path fill-rule="evenodd" clip-rule="evenodd" d="M62.877 60.3624C62.9791 60.7123 62.7734 61.0773 62.4177 61.1777C56.8047 62.7615 52.6431 67.722 52.3558 73.6819H80.1682C79.881 67.7219 75.7202 62.7615 70.1063 61.1777C69.7506 61.0774 69.545 60.7123 69.647 60.3624C69.749 60.0125 70.12 59.8101 70.4757 59.9105C76.854 61.71 81.524 67.4857 81.524 74.341V75.0002H51V74.341C51 67.4857 55.671 61.71 62.0483 59.9105C62.404 59.8101 62.775 60.0124 62.877 60.3624Z" fill="#004D99"/>
<path fill-rule="evenodd" clip-rule="evenodd" d="M51.3735 47.0065C51.3735 45.1615 52.8938 43.6675 54.7685 43.6675H56.1105V50.3466H54.7685C52.8935 50.3466 51.3735 48.8512 51.3735 47.0065ZM54.7685 44.9858C53.6332 44.9858 52.7135 45.8902 52.7135 47.0065C52.7135 48.1231 53.6336 49.0283 54.7685 49.0283H54.7705V44.9858H54.7685Z" fill="#004D99"/>
<path fill-rule="evenodd" clip-rule="evenodd" d="M76.4136 43.6675H77.7556C79.6303 43.6675 81.1506 45.1615 81.1506 47.0065C81.1506 48.8512 79.6306 50.3466 77.7556 50.3466H76.4136V43.6675ZM77.7536 44.9858V49.0283H77.7556C78.8905 49.0283 79.8106 48.1231 79.8106 47.0065C79.8106 45.8902 78.8909 44.9858 77.7556 44.9858H77.7536Z" fill="#004D99"/>
<path fill-rule="evenodd" clip-rule="evenodd" d="M62.3286 46.313C62.3286 46.9357 61.8156 47.4404 61.1826 47.4404C60.5496 47.4404 60.0366 46.9357 60.0366 46.313C60.0366 45.6902 60.5496 45.1855 61.1826 45.1855C61.8156 45.1855 62.3286 45.6902 62.3286 46.313Z" fill="#004D99"/>
<path fill-rule="evenodd" clip-rule="evenodd" d="M72.4883 46.313C72.4883 46.9357 71.9753 47.4404 71.3423 47.4404C70.7093 47.4404 70.1963 46.9357 70.1963 46.313C70.1963 45.6902 70.7093 45.1855 71.3423 45.1855C71.9753 45.1855 72.4883 45.6902 72.4883 46.313Z" fill="#004D99"/>
<path fill-rule="evenodd" clip-rule="evenodd" d="M65.0328 45.4946C65.4028 45.4946 65.7028 45.7897 65.7028 46.1538V49.2223C65.7028 49.5276 65.9532 49.7732 66.2618 49.7732C66.5718 49.7732 66.8218 49.5272 66.8218 49.2223V46.1538C66.8218 45.7897 67.1218 45.4946 67.4918 45.4946C67.8618 45.4946 68.1618 45.7897 68.1618 46.1538V49.2223C68.1618 50.2553 67.3118 51.0915 66.2618 51.0915C65.2124 51.0915 64.3628 50.255 64.3628 49.2223V46.1538C64.3628 45.7897 64.6628 45.4946 65.0328 45.4946Z" fill="#004D99"/>
<path fill-rule="evenodd" clip-rule="evenodd" d="M62.2271 51.8291H70.2971V53.8203C70.2971 56.0134 68.49 57.79 66.2621 57.79C64.0341 57.79 62.2271 56.0134 62.2271 53.8203V51.8291ZM63.5671 53.1474V53.8203C63.5671 55.2851 64.774 56.4717 66.2621 56.4717C67.7501 56.4717 68.9571 55.2851 68.9571 53.8203V53.1474H63.5671Z" fill="#004D99"/>
<path fill-rule="evenodd" clip-rule="evenodd" d="M63.4607 42.8405C63.4609 42.8407 63.4612 42.8408 63.0949 43.3825L63.4612 42.8408C63.7693 43.0425 63.8528 43.4517 63.6479 43.7547C63.4434 44.0571 63.0289 44.1397 62.7211 43.9398C62.721 43.9398 62.7209 43.9397 62.7208 43.9396L62.7118 43.934C62.7023 43.9282 62.686 43.9183 62.6633 43.9053C62.6178 43.8792 62.5474 43.8407 62.4562 43.7969C62.2726 43.7085 62.012 43.6017 61.706 43.5273C61.0936 43.3782 60.351 43.3677 59.6457 43.8285C59.3375 44.0299 58.9216 43.9474 58.7169 43.6441C58.5122 43.3408 58.5961 42.9317 58.9044 42.7303C60.0241 41.9988 61.189 42.0434 62.0278 42.2475C62.4475 42.3497 62.7985 42.494 63.045 42.6126C63.1689 42.6722 63.2682 42.7262 63.3387 42.7667C63.374 42.7869 63.4022 42.8039 63.4227 42.8166L63.4478 42.8322L63.456 42.8375L63.459 42.8394L63.4602 42.8402L63.4607 42.8405Z" fill="#004D99"/>
<path fill-rule="evenodd" clip-rule="evenodd" d="M69.4347 43.3896L69.0636 42.8408C68.7555 43.0425 68.6719 43.4517 68.8769 43.7547C69.0814 44.0571 69.4958 44.1397 69.8037 43.9398C69.8037 43.9398 69.8037 43.9398 69.8037 43.9398C69.8038 43.9398 69.8039 43.9397 69.804 43.9396L69.813 43.934C69.8225 43.9282 69.8388 43.9183 69.8615 43.9053C69.907 43.8792 69.9774 43.8407 70.0685 43.7969C70.2522 43.7085 70.5128 43.6017 70.8187 43.5273C71.4311 43.3782 72.1738 43.3677 72.8791 43.8285C73.1873 44.0299 73.6031 43.9474 73.8079 43.6441C74.0126 43.3408 73.9286 42.9317 73.6204 42.7303C72.5007 41.9988 71.3358 42.0434 70.497 42.2475C70.0773 42.3497 69.7263 42.494 69.4798 42.6126C69.3559 42.6722 69.2566 42.7262 69.1861 42.7667C69.1508 42.7869 69.1226 42.8039 69.1021 42.8166L69.0769 42.8322L69.0688 42.8375L69.0658 42.8394L69.0646 42.8402L69.0641 42.8405C69.0638 42.8407 69.0636 42.8408 69.4347 43.3896Z" fill="#004D99"/>
<path fill-rule="evenodd" clip-rule="evenodd" d="M60.067 60.8198C60.437 60.8198 60.737 61.1149 60.737 61.479V67.2135L65.9678 64.699C66.3003 64.5392 66.7015 64.6748 66.864 65.0019C67.0264 65.3289 66.8886 65.7236 66.5561 65.8835L60.3611 68.8615C60.1535 68.9613 59.9082 68.9488 59.7121 68.8283C59.5161 68.7079 59.397 68.4966 59.397 68.2692V61.479C59.397 61.1149 59.6969 60.8198 60.067 60.8198Z" fill="#004D99"/>
<path fill-rule="evenodd" clip-rule="evenodd" d="M72.4574 60.8198C72.8275 60.8198 73.1274 61.1149 73.1274 61.479V68.2692C73.1274 68.4966 73.0083 68.7079 72.8123 68.8283C72.6162 68.9488 72.371 68.9613 72.1633 68.8615L65.9683 65.8835C65.6358 65.7236 65.498 65.3289 65.6605 65.0019C65.8229 64.6748 66.2241 64.5392 66.5566 64.699L71.7874 67.2135V61.479C71.7874 61.1149 72.0874 60.8198 72.4574 60.8198Z" fill="#004D99"/>
<path fill-rule="evenodd" clip-rule="evenodd" d="M61.8791 32.4321L62.0744 33.1293C63.1585 36.9978 66.7599 39.8389 71.0355 39.8389H77.5589L77.6425 40.403C77.71 40.8581 77.7545 41.3315 77.7545 41.8203V51.2983C77.7545 56.7714 73.2445 61.2073 67.6815 61.2073H64.8425C59.2796 61.2073 54.7695 56.7714 54.7695 51.2983V41.8203C54.7695 37.6393 57.4426 34.0829 61.1915 32.688L61.8791 32.4321ZM61.0117 34.1953C58.1129 35.5536 56.1095 38.4552 56.1095 41.8203V51.2983C56.1095 56.0431 60.0195 59.889 64.8425 59.889H67.6815C72.5046 59.889 76.4145 56.0431 76.4145 51.2983V41.8203C76.4145 41.5988 76.4036 41.3779 76.3841 41.1572H71.0355C66.409 41.1572 62.4757 38.251 61.0117 34.1953Z" fill="#004D99"/>
<path fill-rule="evenodd" clip-rule="evenodd" d="M18 41H46.5V59.5H18V41ZM19 42V45.5L45.5 45.5V42H19ZM19 58.5L19 46.5L45.5 46.5V58.5H19ZM43.5 48.5H21V57.5H43.5V48.5ZM22 51V49.5H24.5V51H22ZM22 52V53.5H24.5V52H22ZM22 56.5V54.5H24.5V56.5H22ZM25.5 56.5V54.5H32.5V56.5H25.5ZM33.5 56.5V54.5H42.5V56.5H33.5ZM33.5 53.5H42.5V52H33.5V53.5ZM25.5 52V53.5H32.5V52H25.5ZM42.5 51H33.5V49.5H42.5V51ZM32.5 49.5V51H25.5V49.5H32.5ZM22 45C22.5523 45 23 44.5523 23 44C23 43.4477 22.5523 43 22 43C21.4477 43 21 43.4477 21 44C21 44.5523 21.4477 45 22 45ZM26 44C26 44.5523 25.5523 45 25 45C24.4477 45 24 44.5523 24 44C24 43.4477 24.4477 43 25 43C25.5523 43 26 43.4477 26 44ZM28 45C28.5523 45 29 44.5523 29 44C29 43.4477 28.5523 43 28 43C27.4477 43 27 43.4477 27 44C27 44.5523 27.4477 45 28 45Z" fill="#004D99"/>
</svg>
