<?xml version="1.0" encoding="UTF-8"?>
<svg width="622px" height="83px" viewBox="0 0 622 83" version="1.1" xmlns="http://www.w3.org/2000/svg" xmlns:xlink="http://www.w3.org/1999/xlink">
    <!-- Generator: Sketch 53.2 (72643) - https://sketchapp.com -->
    <title>Group 20</title>
    <desc>Created with Sketch.</desc>
    <defs>
        <filter x="-2.0%" y="-15.6%" width="103.9%" height="131.2%" filterUnits="objectBoundingBox" id="filter-1">
            <feOffset dx="0" dy="2" in="SourceAlpha" result="shadowOffsetOuter1"></feOffset>
            <feGaussianBlur stdDeviation="2" in="shadowOffsetOuter1" result="shadowBlurOuter1"></feGaussianBlur>
            <feColorMatrix values="0 0 0 0 0   0 0 0 0 0   0 0 0 0 0  0 0 0 0.5 0" type="matrix" in="shadowBlurOuter1" result="shadowMatrixOuter1"></feColorMatrix>
            <feMerge>
                <feMergeNode in="shadowMatrixOuter1"></feMergeNode>
                <feMergeNode in="SourceGraphic"></feMergeNode>
            </feMerge>
        </filter>
    </defs>
    <g id="–-Pagina-software-✓" stroke="none" stroke-width="1" fill="none" fill-rule="evenodd">
        <g id="it_dev_software_iterazione-1_full" transform="translate(-389.000000, -1783.000000)">
            <g id="Group-20" filter="url(#filter-1)" transform="translate(393.000000, 1784.000000)">
                <g id="flowchart-/-arrows-/-Basic-/-#13" transform="translate(0.000000, 0.448470)">
                    <g id="#13" transform="translate(155.500000, 38.000000) scale(-1, 1) translate(-155.500000, -38.000000) ">
                        <path d="M3,1.58794235 L3,32.5078647 C3,35.8172297 5.69192786,38.5004533 9.00942483,38.501012 L302.990575,38.5505176 C306.309489,38.5510765 309,41.2336463 309,44.551782 L309,72.5515295" id="Line" stroke="#9ED0FB"></path>
                        <circle id="Oval-3" fill="#008AF3" cx="3" cy="3.08794235" r="2.5"></circle>
                        <path d="M307.636094,71.6732045 C307.168819,71.3878529 306.790017,71.6096857 306.790017,72.1653835 L306.790017,75.2540431 C306.790017,75.8112177 307.175857,76.027276 307.636094,75.7462221 L310.124886,74.2263881 C310.592162,73.9410365 310.585124,73.4740924 310.124886,73.1930385 L307.636094,71.6732045 Z" id="Shape" fill="#008AF3" transform="translate(308.709983, 73.709983) rotate(90.000000) translate(-308.709983, -73.709983) "></path>
                    </g>
                </g>
                <g id="flowchart/arrows-/-Dotted-/-#13" transform="translate(456.500000, 56.448470) scale(-1, 1) translate(-456.500000, -56.448470) translate(299.000000, 36.448470)">
                    <g id="#13" transform="translate(149.625000, 21.000000) scale(-1, 1) translate(-149.625000, -21.000000) translate(0.000000, 2.000000)">
                        <path d="M0.5,0.5 L290.748556,0.5 C294.063062,0.5 296.75,3.18211672 296.75,6.50025246 L296.75,34.5" id="Line" stroke="#9ED0FB" stroke-dasharray="2,2"></path>
                        <path d="M295.755809,33.5956632 C295.288534,33.3103116 294.909733,33.5321445 294.909733,34.0878423 L294.909733,37.1765018 C294.909733,37.7336764 295.295572,37.9497347 295.755809,37.6686809 L298.244602,36.1488469 C298.711877,35.8634953 298.704839,35.3965511 298.244602,35.1154973 L295.755809,33.5956632 Z" id="Shape" fill="#008AF3" transform="translate(296.751078, 35.631363) rotate(90.000000) translate(-296.751078, -35.631363) "></path>
                    </g>
                </g>
            </g>
        </g>
    </g>
</svg>