<svg width="630" height="696" viewBox="0 0 630 696" fill="none" xmlns="http://www.w3.org/2000/svg">
<path d="M65.1733 635.61L39.2832 655.252C28.1003 663.736 29.1212 680.86 41.2329 687.955C44.2542 689.725 47.6924 690.658 51.1939 690.658H66.0325C77.9988 690.658 89.5682 686.366 98.6397 678.563L98.9758 678.274C108.047 670.47 119.617 666.178 131.583 666.178H138.331H157.302H185.834C198.166 666.178 209.973 661.185 218.563 652.337C227.153 643.489 238.96 638.497 251.292 638.497H301.723C311.665 638.497 321.382 641.461 329.632 647.01L355.7 664.547C363.95 670.097 373.666 673.061 383.609 673.061H396.022H543.139C549.091 673.061 554.995 674.124 560.574 676.199L588.17 686.466C601.972 691.601 617.217 683.858 621.211 669.684C625.668 653.866 614.036 638.084 597.608 637.658L518.318 635.607C504.355 635.246 491.179 629.06 481.981 618.547L480.128 616.429C470.634 605.578 456.917 599.353 442.498 599.353H392.693C389.126 599.353 385.569 599.735 382.083 600.492L334.867 610.744C331.381 611.501 327.824 611.883 324.257 611.883H246.854C240.951 611.883 235.095 612.928 229.556 614.97L204.803 624.097C199.265 626.139 193.409 627.184 187.506 627.184H90.2204C81.1755 627.184 72.3791 630.144 65.1733 635.61Z" fill="#BFDFFF"/>
<path d="M49.3642 627.257L23.4742 646.899C12.2912 655.383 13.3121 672.507 25.4239 679.602C28.4451 681.372 31.8833 682.305 35.3848 682.305H50.2234C62.1897 682.305 73.7591 678.013 82.8307 670.21L83.1667 669.921C92.2383 662.117 103.808 657.825 115.774 657.825H122.522H141.493H170.025C182.357 657.825 194.164 652.832 202.754 643.984C211.344 635.136 223.151 630.144 235.483 630.144H285.914C295.856 630.144 305.573 633.108 313.822 638.657L339.891 656.194C348.141 661.744 357.857 664.708 367.8 664.708H380.213H527.33C533.282 664.708 539.186 665.771 544.765 667.846L572.361 678.113C586.163 683.248 601.408 675.505 605.402 661.331C609.859 645.513 598.227 629.73 581.799 629.305L502.509 627.254C488.546 626.893 475.37 620.707 466.172 610.194L464.319 608.076C454.825 597.225 441.108 591 426.689 591H376.884C373.317 591 369.76 591.382 366.274 592.139L319.058 602.391C315.572 603.148 312.015 603.53 308.448 603.53H231.045C225.142 603.53 219.285 604.575 213.747 606.617L188.994 615.744C183.456 617.786 177.6 618.831 171.697 618.831H74.4113C65.3665 618.831 56.57 621.791 49.3642 627.257Z" fill="#F2F7FC"/>
<path d="M66.106 597V587.41H72.154V588.768H67.66V591.484H71.314V592.828H67.66V595.628H72.154V597H66.106Z" fill="#455B71"/>
<path d="M75.1882 597H73.6622V590H75.1742V590.434C75.8556 590.042 76.4996 589.846 77.1062 589.846C78.0396 589.846 78.6742 590.112 79.0102 590.644C79.3556 591.167 79.5282 592.035 79.5282 593.248V597H78.0162V593.29C78.0162 592.534 77.9322 591.997 77.7642 591.68C77.6056 591.363 77.2742 591.204 76.7702 591.204C76.2942 591.204 75.8369 591.297 75.3982 591.484L75.1882 591.568V597Z" fill="#455B71"/>
<path d="M85.0708 591.302H83.1388V594.382C83.1388 594.951 83.1808 595.329 83.2648 595.516C83.3488 595.703 83.5635 595.796 83.9088 595.796L85.0568 595.754L85.1268 596.972C84.5015 597.093 84.0255 597.154 83.6988 597.154C82.9055 597.154 82.3595 596.972 82.0608 596.608C81.7715 596.244 81.6268 595.558 81.6268 594.55V591.302H80.7308V590H81.6268V587.97H83.1388V590H85.0708V591.302Z" fill="#455B71"/>
<path d="M91.3064 595.74L91.6984 595.698L91.7264 596.832C90.6624 597.047 89.7197 597.154 88.8984 597.154C87.8624 597.154 87.1157 596.869 86.6584 596.3C86.2104 595.731 85.9864 594.821 85.9864 593.57C85.9864 591.087 86.9991 589.846 89.0244 589.846C90.9844 589.846 91.9644 590.915 91.9644 593.052L91.8664 594.144H87.5264C87.5357 594.723 87.6617 595.147 87.9044 595.418C88.1471 595.689 88.5997 595.824 89.2624 595.824C89.9251 595.824 90.6064 595.796 91.3064 595.74ZM90.4664 592.968C90.4664 592.277 90.3544 591.797 90.1304 591.526C89.9157 591.246 89.5471 591.106 89.0244 591.106C88.5017 591.106 88.1191 591.251 87.8764 591.54C87.6431 591.829 87.5217 592.305 87.5124 592.968H90.4664Z" fill="#455B71"/>
<path d="M101.492 595.74L101.884 595.698L101.912 596.832C100.848 597.047 99.9053 597.154 99.0839 597.154C98.0479 597.154 97.3013 596.869 96.8439 596.3C96.3959 595.731 96.1719 594.821 96.1719 593.57C96.1719 591.087 97.1846 589.846 99.2099 589.846C101.17 589.846 102.15 590.915 102.15 593.052L102.052 594.144H97.7119C97.7213 594.723 97.8473 595.147 98.0899 595.418C98.3326 595.689 98.7853 595.824 99.4479 595.824C100.111 595.824 100.792 595.796 101.492 595.74ZM100.652 592.968C100.652 592.277 100.54 591.797 100.316 591.526C100.101 591.246 99.7326 591.106 99.2099 591.106C98.6873 591.106 98.3046 591.251 98.0619 591.54C97.8286 591.829 97.7073 592.305 97.6979 592.968H100.652Z" fill="#455B71"/>
<path d="M103.617 597V590H105.129V590.84C105.923 590.327 106.716 589.995 107.509 589.846V591.372C106.707 591.531 106.021 591.736 105.451 591.988L105.143 592.114V597H103.617Z" fill="#455B71"/>
<path d="M108.999 590.756C109.485 590.149 110.287 589.846 111.407 589.846C112.527 589.846 113.325 590.149 113.801 590.756C114.287 591.363 114.529 592.273 114.529 593.486C114.529 594.699 114.296 595.614 113.829 596.23C113.363 596.846 112.555 597.154 111.407 597.154C110.259 597.154 109.452 596.846 108.985 596.23C108.519 595.614 108.285 594.699 108.285 593.486C108.285 592.273 108.523 591.363 108.999 590.756ZM110.147 595.306C110.362 595.679 110.782 595.866 111.407 595.866C112.033 595.866 112.453 595.679 112.667 595.306C112.882 594.933 112.989 594.321 112.989 593.472C112.989 592.623 112.873 592.021 112.639 591.666C112.415 591.311 112.005 591.134 111.407 591.134C110.81 591.134 110.395 591.311 110.161 591.666C109.937 592.021 109.825 592.623 109.825 593.472C109.825 594.321 109.933 594.933 110.147 595.306Z" fill="#455B71"/>
<path d="M122.163 597.952C122.163 599.483 121.057 600.248 118.845 600.248C117.781 600.248 116.992 600.103 116.479 599.814C115.966 599.525 115.709 598.997 115.709 598.232C115.709 597.887 115.793 597.588 115.961 597.336C116.129 597.093 116.4 596.827 116.773 596.538C116.465 596.333 116.311 595.992 116.311 595.516C116.311 595.329 116.437 595.026 116.689 594.606L116.815 594.396C116.143 593.995 115.807 593.295 115.807 592.296C115.807 591.456 116.059 590.84 116.563 590.448C117.067 590.056 117.748 589.86 118.607 589.86C119.018 589.86 119.424 589.907 119.825 590L120.035 590.042L122.205 589.986V591.218L121.043 591.148C121.295 591.475 121.421 591.857 121.421 592.296C121.421 593.211 121.188 593.845 120.721 594.2C120.264 594.545 119.545 594.718 118.565 594.718C118.322 594.718 118.117 594.699 117.949 594.662C117.818 594.979 117.753 595.227 117.753 595.404C117.753 595.572 117.837 595.689 118.005 595.754C118.182 595.819 118.602 595.857 119.265 595.866C120.376 595.875 121.136 596.025 121.547 596.314C121.958 596.603 122.163 597.149 122.163 597.952ZM117.207 598.092C117.207 598.419 117.338 598.652 117.599 598.792C117.86 598.932 118.308 599.002 118.943 599.002C120.072 599.002 120.637 598.68 120.637 598.036C120.637 597.672 120.534 597.439 120.329 597.336C120.133 597.243 119.736 597.191 119.139 597.182L117.767 597.098C117.562 597.266 117.417 597.42 117.333 597.56C117.249 597.709 117.207 597.887 117.207 598.092ZM117.319 592.296C117.319 592.725 117.422 593.043 117.627 593.248C117.832 593.444 118.164 593.542 118.621 593.542C119.078 593.542 119.405 593.444 119.601 593.248C119.806 593.043 119.909 592.725 119.909 592.296C119.909 591.867 119.806 591.554 119.601 591.358C119.396 591.153 119.064 591.05 118.607 591.05C117.748 591.05 117.319 591.465 117.319 592.296Z" fill="#455B71"/>
<path d="M128.581 592.156V595.348C128.59 595.553 128.641 595.707 128.735 595.81C128.837 595.903 128.991 595.964 129.197 595.992L129.155 597.154C128.352 597.154 127.731 596.981 127.293 596.636C126.546 596.981 125.795 597.154 125.039 597.154C123.648 597.154 122.953 596.412 122.953 594.928C122.953 594.219 123.139 593.705 123.513 593.388C123.895 593.071 124.479 592.879 125.263 592.814L127.069 592.66V592.156C127.069 591.783 126.985 591.521 126.817 591.372C126.658 591.223 126.42 591.148 126.103 591.148C125.505 591.148 124.759 591.185 123.863 591.26L123.415 591.288L123.359 590.21C124.376 589.967 125.309 589.846 126.159 589.846C127.017 589.846 127.633 590.033 128.007 590.406C128.389 590.77 128.581 591.353 128.581 592.156ZM125.445 593.892C124.801 593.948 124.479 594.298 124.479 594.942C124.479 595.586 124.763 595.908 125.333 595.908C125.799 595.908 126.294 595.833 126.817 595.684L127.069 595.6V593.738L125.445 593.892Z" fill="#455B71"/>
<path d="M134.262 591.302H132.33V594.382C132.33 594.951 132.372 595.329 132.456 595.516C132.54 595.703 132.755 595.796 133.1 595.796L134.248 595.754L134.318 596.972C133.693 597.093 133.217 597.154 132.89 597.154C132.097 597.154 131.551 596.972 131.252 596.608C130.963 596.244 130.818 595.558 130.818 594.55V591.302H129.922V590H130.818V587.97H132.33V590H134.262V591.302Z" fill="#455B71"/>
<path d="M135.892 590.756C136.377 590.149 137.18 589.846 138.3 589.846C139.42 589.846 140.218 590.149 140.694 590.756C141.179 591.363 141.422 592.273 141.422 593.486C141.422 594.699 141.188 595.614 140.722 596.23C140.255 596.846 139.448 597.154 138.3 597.154C137.152 597.154 136.344 596.846 135.878 596.23C135.411 595.614 135.178 594.699 135.178 593.486C135.178 592.273 135.416 591.363 135.892 590.756ZM137.04 595.306C137.254 595.679 137.674 595.866 138.3 595.866C138.925 595.866 139.345 595.679 139.56 595.306C139.774 594.933 139.882 594.321 139.882 593.472C139.882 592.623 139.765 592.021 139.532 591.666C139.308 591.311 138.897 591.134 138.3 591.134C137.702 591.134 137.287 591.311 137.054 591.666C136.83 592.021 136.718 592.623 136.718 593.472C136.718 594.321 136.825 594.933 137.04 595.306Z" fill="#455B71"/>
<path d="M142.938 597V590H144.45V590.84C145.243 590.327 146.036 589.995 146.83 589.846V591.372C146.027 591.531 145.341 591.736 144.772 591.988L144.464 592.114V597H142.938Z" fill="#455B71"/>
<path d="M152.926 595.74L153.318 595.698L153.346 596.832C152.282 597.047 151.339 597.154 150.518 597.154C149.482 597.154 148.735 596.869 148.278 596.3C147.83 595.731 147.606 594.821 147.606 593.57C147.606 591.087 148.618 589.846 150.644 589.846C152.604 589.846 153.584 590.915 153.584 593.052L153.486 594.144H149.146C149.155 594.723 149.281 595.147 149.524 595.418C149.766 595.689 150.219 595.824 150.882 595.824C151.544 595.824 152.226 595.796 152.926 595.74ZM152.086 592.968C152.086 592.277 151.974 591.797 151.75 591.526C151.535 591.246 151.166 591.106 150.644 591.106C150.121 591.106 149.738 591.251 149.496 591.54C149.262 591.829 149.141 592.305 149.132 592.968H152.086Z" fill="#455B71"/>
<path d="M386.106 597V587.41H392.154V588.768H387.66V591.484H391.314V592.828H387.66V595.628H392.154V597H386.106Z" fill="#455B71"/>
<path d="M395.188 597H393.662V590H395.174V590.434C395.856 590.042 396.5 589.846 397.106 589.846C398.04 589.846 398.674 590.112 399.01 590.644C399.356 591.167 399.528 592.035 399.528 593.248V597H398.016V593.29C398.016 592.534 397.932 591.997 397.764 591.68C397.606 591.363 397.274 591.204 396.77 591.204C396.294 591.204 395.837 591.297 395.398 591.484L395.188 591.568V597Z" fill="#455B71"/>
<path d="M405.071 591.302H403.139V594.382C403.139 594.951 403.181 595.329 403.265 595.516C403.349 595.703 403.563 595.796 403.909 595.796L405.057 595.754L405.127 596.972C404.501 597.093 404.025 597.154 403.699 597.154C402.905 597.154 402.359 596.972 402.061 596.608C401.771 596.244 401.627 595.558 401.627 594.55V591.302H400.731V590H401.627V587.97H403.139V590H405.071V591.302Z" fill="#455B71"/>
<path d="M411.306 595.74L411.698 595.698L411.726 596.832C410.662 597.047 409.72 597.154 408.898 597.154C407.862 597.154 407.116 596.869 406.658 596.3C406.21 595.731 405.986 594.821 405.986 593.57C405.986 591.087 406.999 589.846 409.024 589.846C410.984 589.846 411.964 590.915 411.964 593.052L411.866 594.144H407.526C407.536 594.723 407.662 595.147 407.904 595.418C408.147 595.689 408.6 595.824 409.262 595.824C409.925 595.824 410.606 595.796 411.306 595.74ZM410.466 592.968C410.466 592.277 410.354 591.797 410.13 591.526C409.916 591.246 409.547 591.106 409.024 591.106C408.502 591.106 408.119 591.251 407.876 591.54C407.643 591.829 407.522 592.305 407.512 592.968H410.466Z" fill="#455B71"/>
<path d="M418.342 591.302V597H416.83V591.302H416.018V590H416.83V589.552C416.83 588.553 416.975 587.867 417.264 587.494C417.553 587.121 418.067 586.934 418.804 586.934L420.316 587.074L420.302 588.32C419.845 588.301 419.462 588.292 419.154 588.292C418.855 588.292 418.645 588.385 418.524 588.572C418.403 588.749 418.342 589.081 418.342 589.566V590H420.19V591.302H418.342Z" fill="#455B71"/>
<path d="M421.348 597V590H422.86V590.84C423.653 590.327 424.446 589.995 425.24 589.846V591.372C424.437 591.531 423.751 591.736 423.182 591.988L422.874 592.114V597H421.348Z" fill="#455B71"/>
<path d="M430.648 590H432.16V597H430.648V596.566C429.967 596.958 429.337 597.154 428.758 597.154C427.797 597.154 427.153 596.897 426.826 596.384C426.5 595.861 426.336 594.951 426.336 593.654V590H427.862V593.668C427.862 594.508 427.932 595.073 428.072 595.362C428.212 595.651 428.539 595.796 429.052 595.796C429.556 595.796 430.018 595.703 430.438 595.516L430.648 595.432V590Z" fill="#455B71"/>
<path d="M434.008 597V590H435.534V597H434.008ZM434.008 588.81V587.2H435.534V588.81H434.008Z" fill="#455B71"/>
<path d="M441.151 591.302H439.219V594.382C439.219 594.951 439.261 595.329 439.345 595.516C439.429 595.703 439.644 595.796 439.989 595.796L441.137 595.754L441.207 596.972C440.582 597.093 440.106 597.154 439.779 597.154C438.986 597.154 438.44 596.972 438.141 596.608C437.852 596.244 437.707 595.558 437.707 594.55V591.302H436.811V590H437.707V587.97H439.219V590H441.151V591.302Z" fill="#455B71"/>
<path d="M442.78 590.756C443.266 590.149 444.068 589.846 445.188 589.846C446.308 589.846 447.106 590.149 447.582 590.756C448.068 591.363 448.31 592.273 448.31 593.486C448.31 594.699 448.077 595.614 447.61 596.23C447.144 596.846 446.336 597.154 445.188 597.154C444.04 597.154 443.233 596.846 442.766 596.23C442.3 595.614 442.066 594.699 442.066 593.486C442.066 592.273 442.304 591.363 442.78 590.756ZM443.928 595.306C444.143 595.679 444.563 595.866 445.188 595.866C445.814 595.866 446.234 595.679 446.448 595.306C446.663 594.933 446.77 594.321 446.77 593.472C446.77 592.623 446.654 592.021 446.42 591.666C446.196 591.311 445.786 591.134 445.188 591.134C444.591 591.134 444.176 591.311 443.942 591.666C443.718 592.021 443.606 592.623 443.606 593.472C443.606 594.321 443.714 594.933 443.928 595.306Z" fill="#455B71"/>
<path d="M449.826 597V590H451.338V590.84C452.132 590.327 452.925 589.995 453.718 589.846V591.372C452.916 591.531 452.23 591.736 451.66 591.988L451.352 592.114V597H449.826Z" fill="#455B71"/>
<path d="M459.814 595.74L460.206 595.698L460.234 596.832C459.17 597.047 458.228 597.154 457.406 597.154C456.37 597.154 455.624 596.869 455.166 596.3C454.718 595.731 454.494 594.821 454.494 593.57C454.494 591.087 455.507 589.846 457.532 589.846C459.492 589.846 460.472 590.915 460.472 593.052L460.374 594.144H456.034C456.044 594.723 456.17 595.147 456.412 595.418C456.655 595.689 457.108 595.824 457.77 595.824C458.433 595.824 459.114 595.796 459.814 595.74ZM458.974 592.968C458.974 592.277 458.862 591.797 458.638 591.526C458.424 591.246 458.055 591.106 457.532 591.106C457.01 591.106 456.627 591.251 456.384 591.54C456.151 591.829 456.03 592.305 456.02 592.968H458.974Z" fill="#455B71"/>
<path d="M377.414 532.414C378.195 531.633 378.195 530.367 377.414 529.586L364.686 516.858C363.905 516.077 362.639 516.077 361.858 516.858C361.077 517.639 361.077 518.905 361.858 519.686L373.172 531L361.858 542.314C361.077 543.095 361.077 544.361 361.858 545.142C362.639 545.923 363.905 545.923 364.686 545.142L377.414 532.414ZM160 533H376V529H160V533Z" fill="#65DDE0"/>
<path d="M493.414 532.414C494.195 531.633 494.195 530.367 493.414 529.586L480.686 516.858C479.905 516.077 478.639 516.077 477.858 516.858C477.077 517.639 477.077 518.905 477.858 519.686L489.172 531L477.858 542.314C477.077 543.095 477.077 544.361 477.858 545.142C478.639 545.923 479.905 545.923 480.686 545.142L493.414 532.414ZM463 533H492V529H463V533Z" fill="#65DDE0"/>
<path d="M422.173 499.35V496" stroke="#5C6F82" stroke-width="2" stroke-miterlimit="10"/>
<path d="M452.665 504.016H446.559V507.44H452.665V504.016Z" fill="white" stroke="#455B71" stroke-width="2" stroke-miterlimit="10"/>
<path d="M446.559 511.033V502.7" stroke="#455B71" stroke-width="2" stroke-miterlimit="10"/>
<path d="M391.682 507.45H397.788V504.026H391.682V507.45Z" fill="white" stroke="#455B71" stroke-width="2" stroke-miterlimit="10"/>
<path d="M397.788 511.033V502.7" stroke="#455B71" stroke-width="2" stroke-miterlimit="10"/>
<path d="M395.059 511.033H449.288C449.801 511.034 450.309 511.136 450.782 511.334C451.256 511.531 451.686 511.82 452.047 512.183C452.409 512.547 452.696 512.978 452.891 513.453C453.086 513.927 453.186 514.436 453.185 514.949H391.162C391.16 514.436 391.26 513.927 391.455 513.453C391.651 512.978 391.937 512.547 392.299 512.183C392.661 511.82 393.091 511.531 393.565 511.334C394.038 511.136 394.546 511.034 395.059 511.033Z" stroke="#455B71" stroke-width="2" stroke-miterlimit="10"/>
<path d="M432.641 531.763H411.716V543.64H432.641V531.763Z" stroke="#455B71" stroke-width="2" stroke-miterlimit="10"/>
<path d="M393.008 514.939V543.64H411.716" stroke="#455B71" stroke-width="2" stroke-miterlimit="10"/>
<path d="M451.338 514.939V543.64H432.63" stroke="#455B71" stroke-width="2" stroke-miterlimit="10"/>
<path d="M432.632 547.881H389V543.64H393.009V547.881" stroke="#455B71" stroke-width="2" stroke-miterlimit="10"/>
<path d="M432.63 547.881H455.346V543.64H451.338V547.881" stroke="#455B71" stroke-width="2" stroke-miterlimit="10"/>
<path d="M396.84 536.773C396.84 537.276 396.741 537.775 396.548 538.24C396.356 538.705 396.073 539.127 395.718 539.483C395.362 539.839 394.939 540.121 394.474 540.314C394.009 540.507 393.511 540.606 393.008 540.606C392.504 540.606 392.006 540.507 391.541 540.314C391.076 540.121 390.654 539.839 390.298 539.483C389.942 539.127 389.66 538.705 389.467 538.24C389.274 537.775 389.175 537.276 389.175 536.773C389.175 534.648 390.892 528.802 393.008 528.802C395.123 528.802 396.84 534.648 396.84 536.773Z" fill="white" stroke="#455B71" stroke-width="2" stroke-miterlimit="10"/>
<path d="M455.172 536.773C455.172 537.79 454.768 538.764 454.049 539.483C453.33 540.202 452.356 540.606 451.339 540.606C450.323 540.606 449.348 540.202 448.629 539.483C447.911 538.764 447.507 537.79 447.507 536.773C447.507 534.648 449.224 528.802 451.339 528.802C453.455 528.802 455.172 534.648 455.172 536.773Z" fill="white" stroke="#455B71" stroke-width="2" stroke-miterlimit="10"/>
<path d="M410.677 511.033C410.632 509.448 410.906 507.87 411.482 506.393C412.058 504.916 412.924 503.57 414.029 502.433C415.134 501.297 416.456 500.393 417.916 499.777C419.376 499.16 420.946 498.842 422.531 498.842C424.116 498.842 425.685 499.16 427.146 499.777C428.606 500.393 429.928 501.297 431.033 502.433C432.138 503.57 433.004 504.916 433.58 506.393C434.156 507.87 434.43 509.448 434.385 511.033" stroke="#455B71" stroke-width="2" stroke-miterlimit="10"/>
<path d="M416.93 511.024C416.93 504.472 419.306 499.165 422.229 499.165C425.152 499.165 427.527 504.472 427.527 511.024" stroke="#455B71" stroke-width="2" stroke-miterlimit="10"/>
<path d="M436.631 528.171H407.716V531.763H436.631V528.171Z" stroke="#455B71" stroke-width="2" stroke-miterlimit="10"/>
<path d="M422.173 531.531V543.64" stroke="#455B71" stroke-width="2" stroke-miterlimit="10"/>
<path d="M422.229 517.677C423.024 517.677 423.786 517.993 424.348 518.555C424.911 519.117 425.226 519.879 425.226 520.674V525.694H419.232V520.674C419.232 519.879 419.548 519.117 420.11 518.555C420.672 517.993 421.434 517.677 422.229 517.677Z" stroke="#455B71" stroke-width="2" stroke-miterlimit="10"/>
<path d="M410.815 517.677C411.209 517.676 411.6 517.752 411.965 517.902C412.33 518.052 412.661 518.273 412.94 518.551C413.22 518.83 413.441 519.161 413.593 519.525C413.744 519.889 413.822 520.28 413.822 520.674V525.694H407.818V520.674C407.818 519.879 408.134 519.117 408.696 518.555C409.258 517.993 410.02 517.677 410.815 517.677Z" stroke="#455B71" stroke-width="2" stroke-miterlimit="10"/>
<path d="M399.403 517.677C399.796 517.677 400.186 517.754 400.549 517.905C400.913 518.056 401.244 518.276 401.522 518.555C401.8 518.833 402.021 519.163 402.172 519.527C402.322 519.891 402.4 520.28 402.4 520.674V525.694H396.405V520.674C396.405 519.879 396.721 519.117 397.283 518.555C397.845 517.993 398.608 517.677 399.403 517.677Z" stroke="#455B71" stroke-width="2" stroke-miterlimit="10"/>
<path d="M436.649 525.685H430.655V520.665C430.655 519.87 430.971 519.107 431.533 518.545C432.095 517.983 432.857 517.667 433.652 517.667C434.447 517.667 435.209 517.983 435.771 518.545C436.333 519.107 436.649 519.87 436.649 520.665V525.685Z" stroke="#455B71" stroke-width="2" stroke-miterlimit="10"/>
<path d="M448.054 525.685H442.06V520.665C442.06 519.87 442.375 519.107 442.937 518.545C443.5 517.983 444.262 517.667 445.057 517.667C445.852 517.667 446.614 517.983 447.176 518.545C447.738 519.107 448.054 519.87 448.054 520.665V525.685Z" stroke="#455B71" stroke-width="2" stroke-miterlimit="10"/>
<path d="M85.0595 511.204H139.288C139.801 511.205 140.309 511.308 140.782 511.505C141.256 511.702 141.686 511.991 142.048 512.355C142.41 512.718 142.697 513.15 142.892 513.624C143.087 514.099 143.187 514.607 143.186 515.12H81.1621C81.1609 514.607 81.2607 514.099 81.4559 513.624C81.6511 513.15 81.9379 512.718 82.2998 512.355C82.6617 511.991 83.0917 511.702 83.5652 511.505C84.0387 511.308 84.5464 511.205 85.0595 511.204Z" stroke="#455B71" stroke-width="2" stroke-miterlimit="10"/>
<path d="M120.841 525.606V502.463L112.174 496.394L103.507 502.463V525.606" fill="white"/>
<path d="M120.841 525.606V502.463L112.174 496.394L103.507 502.463V525.606" stroke="#455B71" stroke-width="2" stroke-miterlimit="10"/>
<path d="M122.641 525.605H101.716V548.052H122.641V525.605Z" stroke="#455B71" stroke-width="2" stroke-miterlimit="10"/>
<path d="M83.0083 515.102V543.812H101.716" stroke="#455B71" stroke-width="2" stroke-miterlimit="10"/>
<path d="M141.339 515.102V543.812H122.631" stroke="#455B71" stroke-width="2" stroke-miterlimit="10"/>
<path d="M101.716 548.052H79V543.812H83.0087V548.052" stroke="#455B71" stroke-width="2" stroke-miterlimit="10"/>
<path d="M122.631 548.052H145.347V543.812H141.339V548.052" stroke="#455B71" stroke-width="2" stroke-miterlimit="10"/>
<path d="M112.174 507.975C113.834 507.975 115.18 506.629 115.18 504.968C115.18 503.308 113.834 501.962 112.174 501.962C110.513 501.962 109.167 503.308 109.167 504.968C109.167 506.629 110.513 507.975 112.174 507.975Z" stroke="#455B71" stroke-width="2" stroke-miterlimit="10"/>
<path d="M118.28 491.328H112.174V494.752H118.28V491.328Z" fill="white" stroke="#455B71" stroke-width="2" stroke-miterlimit="10"/>
<path d="M106.82 517.839H117.528" stroke="#455B71" stroke-width="2" stroke-miterlimit="10"/>
<path d="M106.82 520.91H117.528" stroke="#455B71" stroke-width="2" stroke-miterlimit="10"/>
<path d="M87.0093 524.371H97.7177" stroke="#455B71" stroke-width="2" stroke-miterlimit="10"/>
<path d="M87.0093 520.91H97.7177" stroke="#455B71" stroke-width="2" stroke-miterlimit="10"/>
<path d="M127.856 524.371H138.564" stroke="#455B71" stroke-width="2" stroke-miterlimit="10"/>
<path d="M127.856 520.91H138.564" stroke="#455B71" stroke-width="2" stroke-miterlimit="10"/>
<path d="M112.174 534.606C113.594 534.606 114.956 535.171 115.96 536.175C116.964 537.179 117.528 538.541 117.528 539.961V548.052H106.82V539.961C106.82 538.541 107.384 537.179 108.388 536.175C109.392 535.171 110.754 534.606 112.174 534.606Z" stroke="#455B71" stroke-width="2" stroke-miterlimit="10"/>
<path d="M112.536 534.606V548.052" stroke="#455B71" stroke-width="2" stroke-miterlimit="10"/>
<path d="M86.8406 536.935C86.8406 537.439 86.7414 537.937 86.5488 538.402C86.3562 538.867 86.074 539.289 85.7181 539.645C85.3622 540.001 84.9397 540.283 84.4748 540.476C84.0098 540.669 83.5114 540.768 83.0082 540.768C82.5049 540.768 82.0066 540.669 81.5416 540.476C81.0766 540.283 80.6541 540.001 80.2983 539.645C79.9424 539.289 79.6601 538.867 79.4675 538.402C79.2749 537.937 79.1758 537.439 79.1758 536.935C79.1758 534.82 80.8925 528.974 83.0082 528.974C85.1239 528.974 86.8406 534.82 86.8406 536.935Z" fill="white" stroke="#455B71" stroke-width="2" stroke-miterlimit="10"/>
<path d="M98.1147 536.935C98.1403 537.455 98.06 537.975 97.8787 538.462C97.6974 538.95 97.4189 539.396 97.0601 539.773C96.7013 540.15 96.2696 540.45 95.7913 540.655C95.3131 540.86 94.7981 540.966 94.2777 540.966C93.7573 540.966 93.2424 540.86 92.764 540.655C92.2858 540.45 91.8541 540.15 91.4953 539.773C91.1365 539.396 90.858 538.95 90.6767 538.462C90.4954 537.975 90.4151 537.455 90.4407 536.935C90.4407 534.82 92.1573 528.974 94.273 528.974C96.3887 528.974 98.1147 534.82 98.1147 536.935Z" fill="white" stroke="#455B71" stroke-width="2" stroke-miterlimit="10"/>
<path d="M133.906 536.935C133.931 537.455 133.851 537.975 133.67 538.462C133.488 538.95 133.21 539.396 132.851 539.773C132.492 540.15 132.061 540.45 131.582 540.655C131.104 540.86 130.589 540.966 130.069 540.966C129.548 540.966 129.033 540.86 128.555 540.655C128.077 540.45 127.645 540.15 127.286 539.773C126.928 539.396 126.649 538.95 126.468 538.462C126.286 537.975 126.206 537.455 126.232 536.935C126.232 534.82 127.948 528.974 130.073 528.974C132.198 528.974 133.906 534.82 133.906 536.935Z" fill="white" stroke="#455B71" stroke-width="2" stroke-miterlimit="10"/>
<path d="M145.172 536.935C145.172 537.952 144.768 538.927 144.05 539.645C143.331 540.364 142.356 540.768 141.34 540.768C140.323 540.768 139.349 540.364 138.63 539.645C137.911 538.927 137.507 537.952 137.507 536.935C137.507 534.82 139.224 528.974 141.34 528.974C143.455 528.974 145.172 534.82 145.172 536.935Z" fill="white" stroke="#455B71" stroke-width="2" stroke-miterlimit="10"/>
<path d="M94.2744 540.777V548.052" stroke="#455B71" stroke-width="2" stroke-miterlimit="10"/>
<path d="M130.072 540.777V548.052" stroke="#455B71" stroke-width="2" stroke-miterlimit="10"/>
<path d="M112.174 496.394V490" stroke="#455B71" stroke-width="2" stroke-miterlimit="10"/>
<ellipse cx="270" cy="524.5" rx="27" ry="27.5" fill="white"/>
<rect x="259.641" y="539.069" width="12.7671" height="3.83014" fill="#455B71" stroke="#455B71" stroke-miterlimit="10"/>
<path d="M266.023 539.069V522.472" stroke="#455B71" stroke-width="2" stroke-miterlimit="10"/>
<rect x="258" y="525.215" width="41.4836" height="5.10685" rx="1" transform="rotate(-37.4336 258 525.215)" fill="white" stroke="#455B71" stroke-width="2" stroke-miterlimit="10"/>
<path d="M272.958 520.268L271.684 514.812" stroke="#455B71" stroke-width="2"/>
<path d="M278.065 516.437L276.791 510.981" stroke="#455B71" stroke-width="2"/>
<path d="M283.172 512.607L281.898 507.151" stroke="#455B71" stroke-width="2"/>
<path d="M288.279 508.777L287.005 503.321" stroke="#455B71" stroke-width="2"/>
<circle cx="266.024" cy="522.472" r="3.33014" fill="#455B71" stroke="white"/>
<path d="M240.299 593.584V597H238.745V587.41H242.385C244.55 587.41 245.633 588.427 245.633 590.462C245.633 591.825 245.11 592.749 244.065 593.234L245.647 597H243.939L242.553 593.584H240.299ZM244.037 590.476C244.037 589.328 243.486 588.754 242.385 588.754H240.299V592.24H242.413C242.973 592.24 243.384 592.081 243.645 591.764C243.906 591.437 244.037 591.008 244.037 590.476Z" fill="#455B71"/>
<path d="M247.217 597V590H248.743V597H247.217ZM247.217 588.81V587.2H248.743V588.81H247.217Z" fill="#455B71"/>
<path d="M253.212 589.846C253.707 589.846 254.29 589.911 254.962 590.042L255.312 590.112L255.256 591.316C254.519 591.241 253.973 591.204 253.618 591.204C252.909 591.204 252.433 591.363 252.19 591.68C251.948 591.997 251.826 592.595 251.826 593.472C251.826 594.349 251.943 594.956 252.176 595.292C252.41 595.628 252.895 595.796 253.632 595.796L255.27 595.684L255.312 596.902C254.37 597.07 253.66 597.154 253.184 597.154C252.12 597.154 251.369 596.869 250.93 596.3C250.501 595.721 250.286 594.779 250.286 593.472C250.286 592.165 250.515 591.237 250.972 590.686C251.43 590.126 252.176 589.846 253.212 589.846Z" fill="#455B71"/>
<path d="M258.314 597H256.788V587.088H258.314V590.364C259.004 590.019 259.644 589.846 260.232 589.846C261.165 589.846 261.8 590.112 262.136 590.644C262.481 591.167 262.654 592.035 262.654 593.248V597H261.128V593.29C261.128 592.534 261.048 591.997 260.89 591.68C260.731 591.363 260.395 591.204 259.882 591.204C259.434 591.204 258.986 591.279 258.538 591.428L258.314 591.512V597Z" fill="#455B71"/>
<path d="M264.43 597V590H265.956V597H264.43ZM264.43 588.81V587.2H265.956V588.81H264.43Z" fill="#455B71"/>
<path d="M272.791 595.74L273.183 595.698L273.211 596.832C272.147 597.047 271.204 597.154 270.383 597.154C269.347 597.154 268.6 596.869 268.143 596.3C267.695 595.731 267.471 594.821 267.471 593.57C267.471 591.087 268.484 589.846 270.509 589.846C272.469 589.846 273.449 590.915 273.449 593.052L273.351 594.144H269.011C269.02 594.723 269.146 595.147 269.389 595.418C269.632 595.689 270.084 595.824 270.747 595.824C271.41 595.824 272.091 595.796 272.791 595.74ZM271.951 592.968C271.951 592.277 271.839 591.797 271.615 591.526C271.4 591.246 271.032 591.106 270.509 591.106C269.986 591.106 269.604 591.251 269.361 591.54C269.128 591.829 269.006 592.305 268.997 592.968H271.951Z" fill="#455B71"/>
<path d="M279.775 591.442C278.673 591.293 277.875 591.218 277.381 591.218C276.886 591.218 276.541 591.279 276.345 591.4C276.158 591.512 276.065 591.694 276.065 591.946C276.065 592.198 276.167 592.375 276.373 592.478C276.587 592.581 277.082 592.702 277.857 592.842C278.641 592.973 279.196 593.183 279.523 593.472C279.849 593.761 280.013 594.275 280.013 595.012C280.013 595.749 279.775 596.291 279.299 596.636C278.832 596.981 278.146 597.154 277.241 597.154C276.671 597.154 275.953 597.075 275.085 596.916L274.651 596.846L274.707 595.572C275.827 595.721 276.634 595.796 277.129 595.796C277.623 595.796 277.973 595.735 278.179 595.614C278.393 595.493 278.501 595.292 278.501 595.012C278.501 594.732 278.398 594.541 278.193 594.438C277.997 594.326 277.516 594.209 276.751 594.088C275.995 593.957 275.439 593.757 275.085 593.486C274.73 593.215 274.553 592.721 274.553 592.002C274.553 591.283 274.795 590.747 275.281 590.392C275.775 590.037 276.405 589.86 277.171 589.86C277.768 589.86 278.501 589.935 279.369 590.084L279.803 590.168L279.775 591.442Z" fill="#455B71"/>
<path d="M285.245 591.302H283.313V594.382C283.313 594.951 283.355 595.329 283.439 595.516C283.523 595.703 283.738 595.796 284.083 595.796L285.231 595.754L285.301 596.972C284.676 597.093 284.2 597.154 283.873 597.154C283.08 597.154 282.534 596.972 282.235 596.608C281.946 596.244 281.801 595.558 281.801 594.55V591.302H280.905V590H281.801V587.97H283.313V590H285.245V591.302Z" fill="#455B71"/>
<path d="M291.677 592.156V595.348C291.686 595.553 291.737 595.707 291.831 595.81C291.933 595.903 292.087 595.964 292.293 595.992L292.251 597.154C291.448 597.154 290.827 596.981 290.389 596.636C289.642 596.981 288.891 597.154 288.135 597.154C286.744 597.154 286.049 596.412 286.049 594.928C286.049 594.219 286.235 593.705 286.609 593.388C286.991 593.071 287.575 592.879 288.359 592.814L290.165 592.66V592.156C290.165 591.783 290.081 591.521 289.913 591.372C289.754 591.223 289.516 591.148 289.199 591.148C288.601 591.148 287.855 591.185 286.959 591.26L286.511 591.288L286.455 590.21C287.472 589.967 288.405 589.846 289.255 589.846C290.113 589.846 290.729 590.033 291.103 590.406C291.485 590.77 291.677 591.353 291.677 592.156ZM288.541 593.892C287.897 593.948 287.575 594.298 287.575 594.942C287.575 595.586 287.859 595.908 288.429 595.908C288.895 595.908 289.39 595.833 289.913 595.684L290.165 595.6V593.738L288.541 593.892Z" fill="#455B71"/>
<path d="M296.192 596.874L300.182 587.004L301.526 587.494L297.522 597.35L296.192 596.874Z" fill="#455B71"/>
<path d="M233.197 621V614H234.709V614.84C235.502 614.327 236.295 613.995 237.089 613.846V615.372C236.286 615.531 235.6 615.736 235.031 615.988L234.723 616.114V621H233.197Z" fill="#455B71"/>
<path d="M238.255 621V614H239.781V621H238.255ZM238.255 612.81V611.2H239.781V612.81H238.255Z" fill="#455B71"/>
<path d="M246.49 615.442C245.389 615.293 244.591 615.218 244.096 615.218C243.602 615.218 243.256 615.279 243.06 615.4C242.874 615.512 242.78 615.694 242.78 615.946C242.78 616.198 242.883 616.375 243.088 616.478C243.303 616.581 243.798 616.702 244.572 616.842C245.356 616.973 245.912 617.183 246.238 617.472C246.565 617.761 246.728 618.275 246.728 619.012C246.728 619.749 246.49 620.291 246.014 620.636C245.548 620.981 244.862 621.154 243.956 621.154C243.387 621.154 242.668 621.075 241.8 620.916L241.366 620.846L241.422 619.572C242.542 619.721 243.35 619.796 243.844 619.796C244.339 619.796 244.689 619.735 244.894 619.614C245.109 619.493 245.216 619.292 245.216 619.012C245.216 618.732 245.114 618.541 244.908 618.438C244.712 618.326 244.232 618.209 243.466 618.088C242.71 617.957 242.155 617.757 241.8 617.486C241.446 617.215 241.268 616.721 241.268 616.002C241.268 615.283 241.511 614.747 241.996 614.392C242.491 614.037 243.121 613.86 243.886 613.86C244.484 613.86 245.216 613.935 246.084 614.084L246.518 614.168L246.49 615.442Z" fill="#455B71"/>
<path d="M248.195 624.01V614H249.707V614.434C250.351 614.042 250.953 613.846 251.513 613.846C252.437 613.846 253.113 614.131 253.543 614.7C253.972 615.26 254.187 616.207 254.187 617.542C254.187 618.867 253.939 619.801 253.445 620.342C252.959 620.883 252.161 621.154 251.051 621.154C250.668 621.154 250.225 621.112 249.721 621.028V624.01H248.195ZM251.247 615.204C250.808 615.204 250.369 615.302 249.931 615.498L249.721 615.596V619.726C250.094 619.801 250.505 619.838 250.953 619.838C251.587 619.838 252.026 619.656 252.269 619.292C252.511 618.928 252.633 618.307 252.633 617.43C252.633 615.946 252.171 615.204 251.247 615.204Z" fill="#455B71"/>
<path d="M256.092 614.756C256.578 614.149 257.38 613.846 258.5 613.846C259.62 613.846 260.418 614.149 260.894 614.756C261.38 615.363 261.622 616.273 261.622 617.486C261.622 618.699 261.389 619.614 260.922 620.23C260.456 620.846 259.648 621.154 258.5 621.154C257.352 621.154 256.545 620.846 256.078 620.23C255.612 619.614 255.378 618.699 255.378 617.486C255.378 616.273 255.616 615.363 256.092 614.756ZM257.24 619.306C257.455 619.679 257.875 619.866 258.5 619.866C259.126 619.866 259.546 619.679 259.76 619.306C259.975 618.933 260.082 618.321 260.082 617.472C260.082 616.623 259.966 616.021 259.732 615.666C259.508 615.311 259.098 615.134 258.5 615.134C257.903 615.134 257.488 615.311 257.254 615.666C257.03 616.021 256.918 616.623 256.918 617.472C256.918 618.321 257.026 618.933 257.24 619.306Z" fill="#455B71"/>
<path d="M267.996 615.442C266.895 615.293 266.097 615.218 265.602 615.218C265.108 615.218 264.762 615.279 264.566 615.4C264.38 615.512 264.286 615.694 264.286 615.946C264.286 616.198 264.389 616.375 264.594 616.478C264.809 616.581 265.304 616.702 266.078 616.842C266.862 616.973 267.418 617.183 267.744 617.472C268.071 617.761 268.234 618.275 268.234 619.012C268.234 619.749 267.996 620.291 267.52 620.636C267.054 620.981 266.368 621.154 265.462 621.154C264.893 621.154 264.174 621.075 263.306 620.916L262.872 620.846L262.928 619.572C264.048 619.721 264.856 619.796 265.35 619.796C265.845 619.796 266.195 619.735 266.4 619.614C266.615 619.493 266.722 619.292 266.722 619.012C266.722 618.732 266.62 618.541 266.414 618.438C266.218 618.326 265.738 618.209 264.972 618.088C264.216 617.957 263.661 617.757 263.306 617.486C262.952 617.215 262.774 616.721 262.774 616.002C262.774 615.283 263.017 614.747 263.502 614.392C263.997 614.037 264.627 613.86 265.392 613.86C265.99 613.86 266.722 613.935 267.59 614.084L268.024 614.168L267.996 615.442Z" fill="#455B71"/>
<path d="M273.467 615.302H271.535V618.382C271.535 618.951 271.577 619.329 271.661 619.516C271.745 619.703 271.959 619.796 272.305 619.796L273.453 619.754L273.523 620.972C272.897 621.093 272.421 621.154 272.095 621.154C271.301 621.154 270.755 620.972 270.457 620.608C270.167 620.244 270.023 619.558 270.023 618.55V615.302H269.127V614H270.023V611.97H271.535V614H273.467V615.302Z" fill="#455B71"/>
<path d="M279.898 616.156V619.348C279.908 619.553 279.959 619.707 280.052 619.81C280.155 619.903 280.309 619.964 280.514 619.992L280.472 621.154C279.67 621.154 279.049 620.981 278.61 620.636C277.864 620.981 277.112 621.154 276.356 621.154C274.966 621.154 274.27 620.412 274.27 618.928C274.27 618.219 274.457 617.705 274.83 617.388C275.213 617.071 275.796 616.879 276.58 616.814L278.386 616.66V616.156C278.386 615.783 278.302 615.521 278.134 615.372C277.976 615.223 277.738 615.148 277.42 615.148C276.823 615.148 276.076 615.185 275.18 615.26L274.732 615.288L274.676 614.21C275.694 613.967 276.627 613.846 277.476 613.846C278.335 613.846 278.951 614.033 279.324 614.406C279.707 614.77 279.898 615.353 279.898 616.156ZM276.762 617.892C276.118 617.948 275.796 618.298 275.796 618.942C275.796 619.586 276.081 619.908 276.65 619.908C277.117 619.908 277.612 619.833 278.134 619.684L278.386 619.6V617.738L276.762 617.892Z" fill="#455B71"/>
<path d="M290.602 611.088V621H289.09V620.636C288.409 620.981 287.783 621.154 287.214 621.154C286.299 621.154 285.627 620.879 285.198 620.328C284.778 619.777 284.568 618.853 284.568 617.556C284.568 616.259 284.801 615.316 285.268 614.728C285.744 614.14 286.481 613.846 287.48 613.846C287.816 613.846 288.348 613.907 289.076 614.028V611.088H290.602ZM288.838 619.544L289.076 619.446V615.302C288.516 615.209 287.998 615.162 287.522 615.162C286.579 615.162 286.108 615.946 286.108 617.514C286.108 618.373 286.215 618.97 286.43 619.306C286.654 619.633 287.004 619.796 287.48 619.796C287.956 619.796 288.409 619.712 288.838 619.544Z" fill="#455B71"/>
<path d="M297.631 616.156V619.348C297.64 619.553 297.691 619.707 297.785 619.81C297.887 619.903 298.041 619.964 298.247 619.992L298.205 621.154C297.402 621.154 296.781 620.981 296.343 620.636C295.596 620.981 294.845 621.154 294.089 621.154C292.698 621.154 292.003 620.412 292.003 618.928C292.003 618.219 292.189 617.705 292.563 617.388C292.945 617.071 293.529 616.879 294.313 616.814L296.119 616.66V616.156C296.119 615.783 296.035 615.521 295.867 615.372C295.708 615.223 295.47 615.148 295.153 615.148C294.555 615.148 293.809 615.185 292.913 615.26L292.465 615.288L292.409 614.21C293.426 613.967 294.359 613.846 295.209 613.846C296.067 613.846 296.683 614.033 297.057 614.406C297.439 614.77 297.631 615.353 297.631 616.156ZM294.495 617.892C293.851 617.948 293.529 618.298 293.529 618.942C293.529 619.586 293.813 619.908 294.383 619.908C294.849 619.908 295.344 619.833 295.867 619.684L296.119 619.6V617.738L294.495 617.892Z" fill="#455B71"/>
<path d="M303.312 615.302H301.38V618.382C301.38 618.951 301.422 619.329 301.506 619.516C301.59 619.703 301.805 619.796 302.15 619.796L303.298 619.754L303.368 620.972C302.743 621.093 302.267 621.154 301.94 621.154C301.147 621.154 300.601 620.972 300.302 620.608C300.013 620.244 299.868 619.558 299.868 618.55V615.302H298.972V614H299.868V611.97H301.38V614H303.312V615.302Z" fill="#455B71"/>
<path d="M304.564 621V614H306.09V621H304.564ZM304.564 612.81V611.2H306.09V612.81H304.564Z" fill="#455B71"/>
<circle opacity="0.5" cx="276" cy="333" r="90" fill="#80B9F1"/>
<circle opacity="0.5" cx="276" cy="196" r="70" fill="#8EBEED"/>
<circle opacity="0.5" cx="276" cy="70" r="70" fill="#C1D9F1"/>
<path d="M220.394 298.018H218.434V301H216.88V291.41H220.394C222.569 291.41 223.656 292.483 223.656 294.63C223.656 295.731 223.381 296.571 222.83 297.15C222.289 297.729 221.477 298.018 220.394 298.018ZM218.434 296.674H220.38C221.5 296.674 222.06 295.993 222.06 294.63C222.06 293.977 221.925 293.501 221.654 293.202C221.383 292.903 220.959 292.754 220.38 292.754H218.434V296.674Z" fill="#455B71"/>
<path d="M224.969 301V294H226.495V301H224.969ZM224.969 292.81V291.2H226.495V292.81H224.969Z" fill="#455B71"/>
<path d="M233.526 296.156V299.348C233.536 299.553 233.587 299.707 233.68 299.81C233.783 299.903 233.937 299.964 234.142 299.992L234.1 301.154C233.298 301.154 232.677 300.981 232.238 300.636C231.492 300.981 230.74 301.154 229.984 301.154C228.594 301.154 227.898 300.412 227.898 298.928C227.898 298.219 228.085 297.705 228.458 297.388C228.841 297.071 229.424 296.879 230.208 296.814L232.014 296.66V296.156C232.014 295.783 231.93 295.521 231.762 295.372C231.604 295.223 231.366 295.148 231.048 295.148C230.451 295.148 229.704 295.185 228.808 295.26L228.36 295.288L228.304 294.21C229.322 293.967 230.255 293.846 231.104 293.846C231.963 293.846 232.579 294.033 232.952 294.406C233.335 294.77 233.526 295.353 233.526 296.156ZM230.39 297.892C229.746 297.948 229.424 298.298 229.424 298.942C229.424 299.586 229.709 299.908 230.278 299.908C230.745 299.908 231.24 299.833 231.762 299.684L232.014 299.6V297.738L230.39 297.892Z" fill="#455B71"/>
<path d="M239.208 295.302H237.276V298.382C237.276 298.951 237.318 299.329 237.402 299.516C237.486 299.703 237.701 299.796 238.046 299.796L239.194 299.754L239.264 300.972C238.639 301.093 238.163 301.154 237.836 301.154C237.043 301.154 236.497 300.972 236.198 300.608C235.909 300.244 235.764 299.558 235.764 298.55V295.302H234.868V294H235.764V291.97H237.276V294H239.208V295.302Z" fill="#455B71"/>
<path d="M244.226 295.302H242.294V298.382C242.294 298.951 242.336 299.329 242.42 299.516C242.504 299.703 242.718 299.796 243.064 299.796L244.212 299.754L244.282 300.972C243.656 301.093 243.18 301.154 242.854 301.154C242.06 301.154 241.514 300.972 241.216 300.608C240.926 300.244 240.782 299.558 240.782 298.55V295.302H239.886V294H240.782V291.97H242.294V294H244.226V295.302Z" fill="#455B71"/>
<path d="M250.657 296.156V299.348C250.667 299.553 250.718 299.707 250.811 299.81C250.914 299.903 251.068 299.964 251.273 299.992L251.231 301.154C250.429 301.154 249.808 300.981 249.369 300.636C248.623 300.981 247.871 301.154 247.115 301.154C245.725 301.154 245.029 300.412 245.029 298.928C245.029 298.219 245.216 297.705 245.589 297.388C245.972 297.071 246.555 296.879 247.339 296.814L249.145 296.66V296.156C249.145 295.783 249.061 295.521 248.893 295.372C248.735 295.223 248.497 295.148 248.179 295.148C247.582 295.148 246.835 295.185 245.939 295.26L245.491 295.288L245.435 294.21C246.453 293.967 247.386 293.846 248.235 293.846C249.094 293.846 249.71 294.033 250.083 294.406C250.466 294.77 250.657 295.353 250.657 296.156ZM247.521 297.892C246.877 297.948 246.555 298.298 246.555 298.942C246.555 299.586 246.84 299.908 247.409 299.908C247.876 299.908 248.371 299.833 248.893 299.684L249.145 299.6V297.738L247.521 297.892Z" fill="#455B71"/>
<path d="M254.407 295.302V301H252.895V295.302H252.083V294H252.895V293.552C252.895 292.553 253.04 291.867 253.329 291.494C253.618 291.121 254.132 290.934 254.869 290.934L256.381 291.074L256.367 292.32C255.91 292.301 255.527 292.292 255.219 292.292C254.92 292.292 254.71 292.385 254.589 292.572C254.468 292.749 254.407 293.081 254.407 293.566V294H256.255V295.302H254.407Z" fill="#455B71"/>
<path d="M257.709 294.756C258.194 294.149 258.997 293.846 260.117 293.846C261.237 293.846 262.035 294.149 262.511 294.756C262.996 295.363 263.239 296.273 263.239 297.486C263.239 298.699 263.005 299.614 262.539 300.23C262.072 300.846 261.265 301.154 260.117 301.154C258.969 301.154 258.161 300.846 257.695 300.23C257.228 299.614 256.995 298.699 256.995 297.486C256.995 296.273 257.233 295.363 257.709 294.756ZM258.857 299.306C259.071 299.679 259.491 299.866 260.117 299.866C260.742 299.866 261.162 299.679 261.377 299.306C261.591 298.933 261.699 298.321 261.699 297.472C261.699 296.623 261.582 296.021 261.349 295.666C261.125 295.311 260.714 295.134 260.117 295.134C259.519 295.134 259.104 295.311 258.871 295.666C258.647 296.021 258.535 296.623 258.535 297.472C258.535 298.321 258.642 298.933 258.857 299.306Z" fill="#455B71"/>
<path d="M264.755 301V294H266.267V294.84C267.06 294.327 267.853 293.995 268.647 293.846V295.372C267.844 295.531 267.158 295.736 266.589 295.988L266.281 296.114V301H264.755Z" fill="#455B71"/>
<path d="M271.339 301H269.813V294H271.325V294.434C271.988 294.042 272.594 293.846 273.145 293.846C273.957 293.846 274.55 294.075 274.923 294.532C275.772 294.075 276.617 293.846 277.457 293.846C278.297 293.846 278.89 294.107 279.235 294.63C279.58 295.143 279.753 296.016 279.753 297.248V301H278.241V297.29C278.241 296.534 278.162 295.997 278.003 295.68C277.854 295.363 277.536 295.204 277.051 295.204C276.631 295.204 276.178 295.297 275.693 295.484L275.455 295.582C275.53 295.769 275.567 296.366 275.567 297.374V301H274.055V297.402C274.055 296.571 273.98 295.997 273.831 295.68C273.682 295.363 273.355 295.204 272.851 295.204C272.384 295.204 271.95 295.297 271.549 295.484L271.339 295.568V301Z" fill="#455B71"/>
<path d="M286.724 296.156V299.348C286.733 299.553 286.784 299.707 286.878 299.81C286.98 299.903 287.134 299.964 287.34 299.992L287.298 301.154C286.495 301.154 285.874 300.981 285.436 300.636C284.689 300.981 283.938 301.154 283.182 301.154C281.791 301.154 281.096 300.412 281.096 298.928C281.096 298.219 281.282 297.705 281.656 297.388C282.038 297.071 282.622 296.879 283.406 296.814L285.212 296.66V296.156C285.212 295.783 285.128 295.521 284.96 295.372C284.801 295.223 284.563 295.148 284.246 295.148C283.648 295.148 282.902 295.185 282.006 295.26L281.558 295.288L281.502 294.21C282.519 293.967 283.452 293.846 284.302 293.846C285.16 293.846 285.776 294.033 286.15 294.406C286.532 294.77 286.724 295.353 286.724 296.156ZM283.588 297.892C282.944 297.948 282.622 298.298 282.622 298.942C282.622 299.586 282.906 299.908 283.476 299.908C283.942 299.908 284.437 299.833 284.96 299.684L285.212 299.6V297.738L283.588 297.892Z" fill="#455B71"/>
<path d="M295.215 301H291.897V291.41H295.215C296.69 291.41 297.698 291.783 298.239 292.53C298.781 293.277 299.051 294.448 299.051 296.044C299.051 296.856 298.995 297.547 298.883 298.116C298.781 298.676 298.594 299.185 298.323 299.642C297.791 300.547 296.755 301 295.215 301ZM297.441 296.044C297.441 294.887 297.297 294.051 297.007 293.538C296.718 293.025 296.121 292.768 295.215 292.768H293.451V299.628H295.215C296.139 299.628 296.755 299.287 297.063 298.606C297.213 298.261 297.311 297.892 297.357 297.5C297.413 297.108 297.441 296.623 297.441 296.044Z" fill="#455B71"/>
<path d="M300.684 301V294H302.21V301H300.684ZM300.684 292.81V291.2H302.21V292.81H300.684Z" fill="#455B71"/>
<path d="M310.179 301.952C310.179 303.483 309.073 304.248 306.861 304.248C305.797 304.248 305.008 304.103 304.495 303.814C303.982 303.525 303.725 302.997 303.725 302.232C303.725 301.887 303.809 301.588 303.977 301.336C304.145 301.093 304.416 300.827 304.789 300.538C304.481 300.333 304.327 299.992 304.327 299.516C304.327 299.329 304.453 299.026 304.705 298.606L304.831 298.396C304.159 297.995 303.823 297.295 303.823 296.296C303.823 295.456 304.075 294.84 304.579 294.448C305.083 294.056 305.764 293.86 306.623 293.86C307.034 293.86 307.44 293.907 307.841 294L308.051 294.042L310.221 293.986V295.218L309.059 295.148C309.311 295.475 309.437 295.857 309.437 296.296C309.437 297.211 309.204 297.845 308.737 298.2C308.28 298.545 307.561 298.718 306.581 298.718C306.338 298.718 306.133 298.699 305.965 298.662C305.834 298.979 305.769 299.227 305.769 299.404C305.769 299.572 305.853 299.689 306.021 299.754C306.198 299.819 306.618 299.857 307.281 299.866C308.392 299.875 309.152 300.025 309.563 300.314C309.974 300.603 310.179 301.149 310.179 301.952ZM305.223 302.092C305.223 302.419 305.354 302.652 305.615 302.792C305.876 302.932 306.324 303.002 306.959 303.002C308.088 303.002 308.653 302.68 308.653 302.036C308.653 301.672 308.55 301.439 308.345 301.336C308.149 301.243 307.752 301.191 307.155 301.182L305.783 301.098C305.578 301.266 305.433 301.42 305.349 301.56C305.265 301.709 305.223 301.887 305.223 302.092ZM305.335 296.296C305.335 296.725 305.438 297.043 305.643 297.248C305.848 297.444 306.18 297.542 306.637 297.542C307.094 297.542 307.421 297.444 307.617 297.248C307.822 297.043 307.925 296.725 307.925 296.296C307.925 295.867 307.822 295.554 307.617 295.358C307.412 295.153 307.08 295.05 306.623 295.05C305.764 295.05 305.335 295.465 305.335 296.296Z" fill="#455B71"/>
<path d="M311.417 301V294H312.943V301H311.417ZM311.417 292.81V291.2H312.943V292.81H311.417Z" fill="#455B71"/>
<path d="M318.56 295.302H316.628V298.382C316.628 298.951 316.67 299.329 316.754 299.516C316.838 299.703 317.052 299.796 317.398 299.796L318.546 299.754L318.616 300.972C317.99 301.093 317.514 301.154 317.188 301.154C316.394 301.154 315.848 300.972 315.55 300.608C315.26 300.244 315.116 299.558 315.116 298.55V295.302H314.22V294H315.116V291.97H316.628V294H318.56V295.302Z" fill="#455B71"/>
<path d="M324.991 296.156V299.348C325 299.553 325.052 299.707 325.145 299.81C325.248 299.903 325.402 299.964 325.607 299.992L325.565 301.154C324.762 301.154 324.142 300.981 323.703 300.636C322.956 300.981 322.205 301.154 321.449 301.154C320.058 301.154 319.363 300.412 319.363 298.928C319.363 298.219 319.55 297.705 319.923 297.388C320.306 297.071 320.889 296.879 321.673 296.814L323.479 296.66V296.156C323.479 295.783 323.395 295.521 323.227 295.372C323.068 295.223 322.83 295.148 322.513 295.148C321.916 295.148 321.169 295.185 320.273 295.26L319.825 295.288L319.769 294.21C320.786 293.967 321.72 293.846 322.569 293.846C323.428 293.846 324.044 294.033 324.417 294.406C324.8 294.77 324.991 295.353 324.991 296.156ZM321.855 297.892C321.211 297.948 320.889 298.298 320.889 298.942C320.889 299.586 321.174 299.908 321.743 299.908C322.21 299.908 322.704 299.833 323.227 299.684L323.479 299.6V297.738L321.855 297.892Z" fill="#455B71"/>
<path d="M326.991 301V291.088H328.517V301H326.991Z" fill="#455B71"/>
<path d="M335.432 299.74L335.824 299.698L335.852 300.832C334.788 301.047 333.845 301.154 333.024 301.154C331.988 301.154 331.241 300.869 330.784 300.3C330.336 299.731 330.112 298.821 330.112 297.57C330.112 295.087 331.125 293.846 333.15 293.846C335.11 293.846 336.09 294.915 336.09 297.052L335.992 298.144H331.652C331.661 298.723 331.787 299.147 332.03 299.418C332.273 299.689 332.725 299.824 333.388 299.824C334.051 299.824 334.732 299.796 335.432 299.74ZM334.592 296.968C334.592 296.277 334.48 295.797 334.256 295.526C334.041 295.246 333.673 295.106 333.15 295.106C332.627 295.106 332.245 295.251 332.002 295.54C331.769 295.829 331.647 296.305 331.638 296.968H334.592Z" fill="#455B71"/>
<path d="M233.922 325V315.41H236.638L239.55 323.628H239.76V315.41H241.314V325H238.654L235.672 316.768H235.476V325H233.922Z" fill="#455B71"/>
<path d="M248.518 320.156V323.348C248.527 323.553 248.578 323.707 248.672 323.81C248.774 323.903 248.928 323.964 249.134 323.992L249.092 325.154C248.289 325.154 247.668 324.981 247.23 324.636C246.483 324.981 245.732 325.154 244.976 325.154C243.585 325.154 242.89 324.412 242.89 322.928C242.89 322.219 243.076 321.705 243.45 321.388C243.832 321.071 244.416 320.879 245.2 320.814L247.006 320.66V320.156C247.006 319.783 246.922 319.521 246.754 319.372C246.595 319.223 246.357 319.148 246.04 319.148C245.442 319.148 244.696 319.185 243.8 319.26L243.352 319.288L243.296 318.21C244.313 317.967 245.246 317.846 246.096 317.846C246.954 317.846 247.57 318.033 247.944 318.406C248.326 318.77 248.518 319.353 248.518 320.156ZM245.382 321.892C244.738 321.948 244.416 322.298 244.416 322.942C244.416 323.586 244.7 323.908 245.27 323.908C245.736 323.908 246.231 323.833 246.754 323.684L247.006 323.6V321.738L245.382 321.892Z" fill="#455B71"/>
<path d="M250.083 319.358V318H255.277V319.358L251.917 323.642H255.277V325H250.083V323.642L253.457 319.358H250.083Z" fill="#455B71"/>
<path d="M256.791 325V318H258.317V325H256.791ZM256.791 316.81V315.2H258.317V316.81H256.791Z" fill="#455B71"/>
<path d="M260.546 318.756C261.031 318.149 261.834 317.846 262.954 317.846C264.074 317.846 264.872 318.149 265.348 318.756C265.833 319.363 266.076 320.273 266.076 321.486C266.076 322.699 265.842 323.614 265.376 324.23C264.909 324.846 264.102 325.154 262.954 325.154C261.806 325.154 260.998 324.846 260.532 324.23C260.065 323.614 259.832 322.699 259.832 321.486C259.832 320.273 260.07 319.363 260.546 318.756ZM261.694 323.306C261.908 323.679 262.328 323.866 262.954 323.866C263.579 323.866 263.999 323.679 264.214 323.306C264.428 322.933 264.536 322.321 264.536 321.472C264.536 320.623 264.419 320.021 264.186 319.666C263.962 319.311 263.551 319.134 262.954 319.134C262.356 319.134 261.941 319.311 261.708 319.666C261.484 320.021 261.372 320.623 261.372 321.472C261.372 322.321 261.479 322.933 261.694 323.306Z" fill="#455B71"/>
<path d="M269.117 325H267.591V318H269.103V318.434C269.785 318.042 270.429 317.846 271.035 317.846C271.969 317.846 272.603 318.112 272.939 318.644C273.285 319.167 273.457 320.035 273.457 321.248V325H271.945V321.29C271.945 320.534 271.861 319.997 271.693 319.68C271.535 319.363 271.203 319.204 270.699 319.204C270.223 319.204 269.766 319.297 269.327 319.484L269.117 319.568V325Z" fill="#455B71"/>
<path d="M280.414 320.156V323.348C280.423 323.553 280.475 323.707 280.568 323.81C280.671 323.903 280.825 323.964 281.03 323.992L280.988 325.154C280.185 325.154 279.565 324.981 279.126 324.636C278.379 324.981 277.628 325.154 276.872 325.154C275.481 325.154 274.786 324.412 274.786 322.928C274.786 322.219 274.973 321.705 275.346 321.388C275.729 321.071 276.312 320.879 277.096 320.814L278.902 320.66V320.156C278.902 319.783 278.818 319.521 278.65 319.372C278.491 319.223 278.253 319.148 277.936 319.148C277.339 319.148 276.592 319.185 275.696 319.26L275.248 319.288L275.192 318.21C276.209 317.967 277.143 317.846 277.992 317.846C278.851 317.846 279.467 318.033 279.84 318.406C280.223 318.77 280.414 319.353 280.414 320.156ZM277.278 321.892C276.634 321.948 276.312 322.298 276.312 322.942C276.312 323.586 276.597 323.908 277.166 323.908C277.633 323.908 278.127 323.833 278.65 323.684L278.902 323.6V321.738L277.278 321.892Z" fill="#455B71"/>
<path d="M282.414 325V315.088H283.94V325H282.414Z" fill="#455B71"/>
<path d="M290.855 323.74L291.247 323.698L291.275 324.832C290.211 325.047 289.268 325.154 288.447 325.154C287.411 325.154 286.664 324.869 286.207 324.3C285.759 323.731 285.535 322.821 285.535 321.57C285.535 319.087 286.547 317.846 288.573 317.846C290.533 317.846 291.513 318.915 291.513 321.052L291.415 322.144H287.075C287.084 322.723 287.21 323.147 287.453 323.418C287.695 323.689 288.148 323.824 288.811 323.824C289.473 323.824 290.155 323.796 290.855 323.74ZM290.015 320.968C290.015 320.277 289.903 319.797 289.679 319.526C289.464 319.246 289.095 319.106 288.573 319.106C288.05 319.106 287.667 319.251 287.425 319.54C287.191 319.829 287.07 320.305 287.061 320.968H290.015Z" fill="#455B71"/>
<path d="M299.556 325H296.238V315.41H299.556C301.031 315.41 302.039 315.783 302.58 316.53C303.122 317.277 303.392 318.448 303.392 320.044C303.392 320.856 303.336 321.547 303.224 322.116C303.122 322.676 302.935 323.185 302.664 323.642C302.132 324.547 301.096 325 299.556 325ZM301.782 320.044C301.782 318.887 301.638 318.051 301.348 317.538C301.059 317.025 300.462 316.768 299.556 316.768H297.792V323.628H299.556C300.48 323.628 301.096 323.287 301.404 322.606C301.554 322.261 301.652 321.892 301.698 321.5C301.754 321.108 301.782 320.623 301.782 320.044Z" fill="#455B71"/>
<path d="M310.205 320.156V323.348C310.214 323.553 310.266 323.707 310.359 323.81C310.462 323.903 310.616 323.964 310.821 323.992L310.779 325.154C309.976 325.154 309.356 324.981 308.917 324.636C308.17 324.981 307.419 325.154 306.663 325.154C305.272 325.154 304.577 324.412 304.577 322.928C304.577 322.219 304.764 321.705 305.137 321.388C305.52 321.071 306.103 320.879 306.887 320.814L308.693 320.66V320.156C308.693 319.783 308.609 319.521 308.441 319.372C308.282 319.223 308.044 319.148 307.727 319.148C307.13 319.148 306.383 319.185 305.487 319.26L305.039 319.288L304.983 318.21C306 317.967 306.934 317.846 307.783 317.846C308.642 317.846 309.258 318.033 309.631 318.406C310.014 318.77 310.205 319.353 310.205 320.156ZM307.069 321.892C306.425 321.948 306.103 322.298 306.103 322.942C306.103 323.586 306.388 323.908 306.957 323.908C307.424 323.908 307.918 323.833 308.441 323.684L308.693 323.6V321.738L307.069 321.892Z" fill="#455B71"/>
<path d="M315.887 319.302H313.955V322.382C313.955 322.951 313.997 323.329 314.081 323.516C314.165 323.703 314.379 323.796 314.725 323.796L315.873 323.754L315.943 324.972C315.317 325.093 314.841 325.154 314.515 325.154C313.721 325.154 313.175 324.972 312.877 324.608C312.587 324.244 312.443 323.558 312.443 322.55V319.302H311.547V318H312.443V315.97H313.955V318H315.887V319.302Z" fill="#455B71"/>
<path d="M317.138 325V318H318.664V325H317.138ZM317.138 316.81V315.2H318.664V316.81H317.138Z" fill="#455B71"/>
<path d="M237.326 172.154C235.926 172.154 234.974 171.767 234.47 170.992C233.975 170.217 233.728 168.943 233.728 167.17C233.728 165.397 233.98 164.137 234.484 163.39C234.988 162.634 235.935 162.256 237.326 162.256C238.157 162.256 239.071 162.373 240.07 162.606L240.014 163.866C239.174 163.717 238.334 163.642 237.494 163.642C236.654 163.642 236.085 163.894 235.786 164.398C235.487 164.893 235.338 165.831 235.338 167.212C235.338 168.584 235.483 169.522 235.772 170.026C236.061 170.521 236.626 170.768 237.466 170.768C238.306 170.768 239.155 170.698 240.014 170.558L240.056 171.846C239.095 172.051 238.185 172.154 237.326 172.154Z" fill="#455B71"/>
<path d="M246.719 167.156V170.348C246.729 170.553 246.78 170.707 246.873 170.81C246.976 170.903 247.13 170.964 247.335 170.992L247.293 172.154C246.491 172.154 245.87 171.981 245.431 171.636C244.685 171.981 243.933 172.154 243.177 172.154C241.787 172.154 241.091 171.412 241.091 169.928C241.091 169.219 241.278 168.705 241.651 168.388C242.034 168.071 242.617 167.879 243.401 167.814L245.207 167.66V167.156C245.207 166.783 245.123 166.521 244.955 166.372C244.797 166.223 244.559 166.148 244.241 166.148C243.644 166.148 242.897 166.185 242.001 166.26L241.553 166.288L241.497 165.21C242.515 164.967 243.448 164.846 244.297 164.846C245.156 164.846 245.772 165.033 246.145 165.406C246.528 165.77 246.719 166.353 246.719 167.156ZM243.583 168.892C242.939 168.948 242.617 169.298 242.617 169.942C242.617 170.586 242.902 170.908 243.471 170.908C243.938 170.908 244.433 170.833 244.955 170.684L245.207 170.6V168.738L243.583 168.892Z" fill="#455B71"/>
<path d="M252.401 166.302H250.469V169.382C250.469 169.951 250.511 170.329 250.595 170.516C250.679 170.703 250.894 170.796 251.239 170.796L252.387 170.754L252.457 171.972C251.832 172.093 251.356 172.154 251.029 172.154C250.236 172.154 249.69 171.972 249.391 171.608C249.102 171.244 248.957 170.558 248.957 169.55V166.302H248.061V165H248.957V162.97H250.469V165H252.401V166.302Z" fill="#455B71"/>
<path d="M258.833 167.156V170.348C258.842 170.553 258.893 170.707 258.987 170.81C259.089 170.903 259.243 170.964 259.449 170.992L259.407 172.154C258.604 172.154 257.983 171.981 257.545 171.636C256.798 171.981 256.047 172.154 255.291 172.154C253.9 172.154 253.205 171.412 253.205 169.928C253.205 169.219 253.391 168.705 253.765 168.388C254.147 168.071 254.731 167.879 255.515 167.814L257.321 167.66V167.156C257.321 166.783 257.237 166.521 257.069 166.372C256.91 166.223 256.672 166.148 256.355 166.148C255.757 166.148 255.011 166.185 254.115 166.26L253.667 166.288L253.611 165.21C254.628 164.967 255.561 164.846 256.411 164.846C257.269 164.846 257.885 165.033 258.259 165.406C258.641 165.77 258.833 166.353 258.833 167.156ZM255.697 168.892C255.053 168.948 254.731 169.298 254.731 169.942C254.731 170.586 255.015 170.908 255.585 170.908C256.051 170.908 256.546 170.833 257.069 170.684L257.321 170.6V168.738L255.697 168.892Z" fill="#455B71"/>
<path d="M260.832 172V162.088H262.358V172H260.832Z" fill="#455B71"/>
<path d="M264.667 165.756C265.153 165.149 265.955 164.846 267.075 164.846C268.195 164.846 268.993 165.149 269.469 165.756C269.955 166.363 270.197 167.273 270.197 168.486C270.197 169.699 269.964 170.614 269.497 171.23C269.031 171.846 268.223 172.154 267.075 172.154C265.927 172.154 265.12 171.846 264.653 171.23C264.187 170.614 263.953 169.699 263.953 168.486C263.953 167.273 264.191 166.363 264.667 165.756ZM265.815 170.306C266.03 170.679 266.45 170.866 267.075 170.866C267.701 170.866 268.121 170.679 268.335 170.306C268.55 169.933 268.657 169.321 268.657 168.472C268.657 167.623 268.541 167.021 268.307 166.666C268.083 166.311 267.673 166.134 267.075 166.134C266.478 166.134 266.063 166.311 265.829 166.666C265.605 167.021 265.493 167.623 265.493 168.472C265.493 169.321 265.601 169.933 265.815 170.306Z" fill="#455B71"/>
<path d="M277.831 172.952C277.831 174.483 276.725 175.248 274.513 175.248C273.449 175.248 272.66 175.103 272.147 174.814C271.634 174.525 271.377 173.997 271.377 173.232C271.377 172.887 271.461 172.588 271.629 172.336C271.797 172.093 272.068 171.827 272.441 171.538C272.133 171.333 271.979 170.992 271.979 170.516C271.979 170.329 272.105 170.026 272.357 169.606L272.483 169.396C271.811 168.995 271.475 168.295 271.475 167.296C271.475 166.456 271.727 165.84 272.231 165.448C272.735 165.056 273.416 164.86 274.275 164.86C274.686 164.86 275.092 164.907 275.493 165L275.703 165.042L277.873 164.986V166.218L276.711 166.148C276.963 166.475 277.089 166.857 277.089 167.296C277.089 168.211 276.856 168.845 276.389 169.2C275.932 169.545 275.213 169.718 274.233 169.718C273.99 169.718 273.785 169.699 273.617 169.662C273.486 169.979 273.421 170.227 273.421 170.404C273.421 170.572 273.505 170.689 273.673 170.754C273.85 170.819 274.27 170.857 274.933 170.866C276.044 170.875 276.804 171.025 277.215 171.314C277.626 171.603 277.831 172.149 277.831 172.952ZM272.875 173.092C272.875 173.419 273.006 173.652 273.267 173.792C273.528 173.932 273.976 174.002 274.611 174.002C275.74 174.002 276.305 173.68 276.305 173.036C276.305 172.672 276.202 172.439 275.997 172.336C275.801 172.243 275.404 172.191 274.807 172.182L273.435 172.098C273.23 172.266 273.085 172.42 273.001 172.56C272.917 172.709 272.875 172.887 272.875 173.092ZM272.987 167.296C272.987 167.725 273.09 168.043 273.295 168.248C273.5 168.444 273.832 168.542 274.289 168.542C274.746 168.542 275.073 168.444 275.269 168.248C275.474 168.043 275.577 167.725 275.577 167.296C275.577 166.867 275.474 166.554 275.269 166.358C275.064 166.153 274.732 166.05 274.275 166.05C273.416 166.05 272.987 166.465 272.987 167.296Z" fill="#455B71"/>
<path d="M279.447 165.756C279.932 165.149 280.735 164.846 281.855 164.846C282.975 164.846 283.773 165.149 284.249 165.756C284.734 166.363 284.977 167.273 284.977 168.486C284.977 169.699 284.743 170.614 284.277 171.23C283.81 171.846 283.003 172.154 281.855 172.154C280.707 172.154 279.899 171.846 279.433 171.23C278.966 170.614 278.733 169.699 278.733 168.486C278.733 167.273 278.971 166.363 279.447 165.756ZM280.595 170.306C280.809 170.679 281.229 170.866 281.855 170.866C282.48 170.866 282.9 170.679 283.115 170.306C283.329 169.933 283.437 169.321 283.437 168.472C283.437 167.623 283.32 167.021 283.087 166.666C282.863 166.311 282.452 166.134 281.855 166.134C281.257 166.134 280.842 166.311 280.609 166.666C280.385 167.021 280.273 167.623 280.273 168.472C280.273 169.321 280.38 169.933 280.595 170.306Z" fill="#455B71"/>
<path d="M288.925 172L291.291 162.41H294.385L296.765 172H295.197L294.679 169.942H290.997L290.479 172H288.925ZM292.495 163.712L291.305 168.57H294.371L293.195 163.712H292.495Z" fill="#455B71"/>
<path d="M301.645 169.018H299.685V172H298.131V162.41H301.645C303.82 162.41 304.907 163.483 304.907 165.63C304.907 166.731 304.632 167.571 304.081 168.15C303.54 168.729 302.728 169.018 301.645 169.018ZM299.685 167.674H301.631C302.751 167.674 303.311 166.993 303.311 165.63C303.311 164.977 303.176 164.501 302.905 164.202C302.635 163.903 302.21 163.754 301.631 163.754H299.685V167.674Z" fill="#455B71"/>
<path d="M306.403 172V162.41H307.957V172H306.403Z" fill="#455B71"/>
<path d="M256.233 29.6139C255.048 29.6139 254.455 30.0292 254.455 30.8599C254.455 31.2892 254.595 31.5972 254.875 31.7839C255.155 31.9612 255.771 32.1852 256.723 32.4559C257.685 32.7172 258.361 33.0346 258.753 33.4079C259.145 33.7719 259.341 34.3506 259.341 35.1439C259.341 36.1519 259.052 36.9079 258.473 37.4119C257.904 37.9066 257.125 38.1539 256.135 38.1539C255.342 38.1539 254.465 38.0606 253.503 37.8739L252.999 37.7759L253.153 36.5299C254.413 36.6979 255.375 36.7819 256.037 36.7819C257.195 36.7819 257.773 36.2686 257.773 35.2419C257.773 34.8406 257.643 34.5466 257.381 34.3599C257.12 34.1639 256.532 33.9539 255.617 33.7299C254.703 33.4966 254.021 33.1792 253.573 32.7779C253.125 32.3766 252.901 31.7419 252.901 30.8739C252.901 30.0059 253.181 29.3526 253.741 28.9139C254.311 28.4659 255.095 28.2419 256.093 28.2419C256.812 28.2419 257.661 28.3259 258.641 28.4939L259.131 28.5779L259.005 29.8379C257.699 29.6886 256.775 29.6139 256.233 29.6139Z" fill="#455B71"/>
<path d="M263.457 30.8459C263.952 30.8459 264.535 30.9112 265.207 31.0419L265.557 31.1119L265.501 32.3159C264.764 32.2412 264.218 32.2039 263.863 32.2039C263.154 32.2039 262.678 32.3626 262.435 32.6799C262.192 32.9972 262.071 33.5946 262.071 34.4719C262.071 35.3492 262.188 35.9559 262.421 36.2919C262.654 36.6279 263.14 36.7959 263.877 36.7959L265.515 36.6839L265.557 37.9019C264.614 38.0699 263.905 38.1539 263.429 38.1539C262.365 38.1539 261.614 37.8692 261.175 37.2999C260.746 36.7212 260.531 35.7786 260.531 34.4719C260.531 33.1652 260.76 32.2366 261.217 31.6859C261.674 31.1259 262.421 30.8459 263.457 30.8459Z" fill="#455B71"/>
<path d="M268.558 37.9999H267.032V28.0879H268.558V31.3639C269.249 31.0186 269.888 30.8459 270.476 30.8459C271.41 30.8459 272.044 31.1119 272.38 31.6439C272.726 32.1666 272.898 33.0346 272.898 34.2479V37.9999H271.372V34.2899C271.372 33.5339 271.293 32.9972 271.134 32.6799C270.976 32.3626 270.64 32.2039 270.126 32.2039C269.678 32.2039 269.23 32.2786 268.782 32.4279L268.558 32.5119V37.9999Z" fill="#455B71"/>
<path d="M279.659 36.7399L280.051 36.6979L280.079 37.8319C279.015 38.0466 278.072 38.1539 277.251 38.1539C276.215 38.1539 275.468 37.8692 275.011 37.2999C274.563 36.7306 274.339 35.8206 274.339 34.5699C274.339 32.0872 275.352 30.8459 277.377 30.8459C279.337 30.8459 280.317 31.9146 280.317 34.0519L280.219 35.1439H275.879C275.888 35.7226 276.014 36.1472 276.257 36.4179C276.5 36.6886 276.952 36.8239 277.615 36.8239C278.278 36.8239 278.959 36.7959 279.659 36.7399ZM278.819 33.9679C278.819 33.2772 278.707 32.7966 278.483 32.5259C278.268 32.2459 277.9 32.1059 277.377 32.1059C276.854 32.1059 276.472 32.2506 276.229 32.5399C275.996 32.8292 275.874 33.3052 275.865 33.9679H278.819Z" fill="#455B71"/>
<path d="M283.31 37.9999H281.784V30.9999H283.296V31.4339C283.959 31.0419 284.566 30.8459 285.116 30.8459C285.928 30.8459 286.521 31.0746 286.894 31.5319C287.744 31.0746 288.588 30.8459 289.428 30.8459C290.268 30.8459 290.861 31.1072 291.206 31.6299C291.552 32.1432 291.724 33.0159 291.724 34.2479V37.9999H290.212V34.2899C290.212 33.5339 290.133 32.9972 289.974 32.6799C289.825 32.3626 289.508 32.2039 289.022 32.2039C288.602 32.2039 288.15 32.2972 287.664 32.4839L287.426 32.5819C287.501 32.7686 287.538 33.3659 287.538 34.3739V37.9999H286.026V34.4019C286.026 33.5712 285.952 32.9972 285.802 32.6799C285.653 32.3626 285.326 32.2039 284.822 32.2039C284.356 32.2039 283.922 32.2972 283.52 32.4839L283.31 32.5679V37.9999Z" fill="#455B71"/>
<path d="M298.695 33.1559V36.3479C298.704 36.5532 298.755 36.7072 298.849 36.8099C298.951 36.9032 299.105 36.9639 299.311 36.9919L299.269 38.1539C298.466 38.1539 297.845 37.9812 297.407 37.6359C296.66 37.9812 295.909 38.1539 295.153 38.1539C293.762 38.1539 293.067 37.4119 293.067 35.9279C293.067 35.2186 293.253 34.7052 293.627 34.3879C294.009 34.0706 294.593 33.8792 295.377 33.8139L297.183 33.6599V33.1559C297.183 32.7826 297.099 32.5212 296.931 32.3719C296.772 32.2226 296.534 32.1479 296.217 32.1479C295.619 32.1479 294.873 32.1852 293.977 32.2599L293.529 32.2879L293.473 31.2099C294.49 30.9672 295.423 30.8459 296.273 30.8459C297.131 30.8459 297.747 31.0326 298.121 31.4059C298.503 31.7699 298.695 32.3532 298.695 33.1559ZM295.559 34.8919C294.915 34.9479 294.593 35.2979 294.593 35.9419C294.593 36.5859 294.877 36.9079 295.447 36.9079C295.913 36.9079 296.408 36.8332 296.931 36.6839L297.183 36.5999V34.7379L295.559 34.8919Z" fill="#455B71"/>
<rect x="250" y="54" width="33.6898" height="40.3439" rx="2" fill="white" stroke="#455B71" stroke-width="2"/>
<circle cx="256.398" cy="79.314" r="1.01228" fill="white" stroke="#455B71"/>
<circle cx="256.398" cy="85.9674" r="1.01228" fill="white" stroke="#455B71"/>
<path d="M259.3 79.4849H281.371" stroke="#455B71" stroke-width="2"/>
<path d="M255.654 66.9126L278.64 66.9126" stroke="#455B71" stroke-width="2"/>
<path d="M255.654 59.6538L278.64 59.6538" stroke="#455B71" stroke-width="2"/>
<path d="M258.074 60.8633V66.005" stroke="#455B71" stroke-width="2"/>
<path d="M264.121 60.8633V66.005" stroke="#455B71" stroke-width="2"/>
<path d="M270.172 60.8633V66.005" stroke="#455B71" stroke-width="2"/>
<path d="M276.221 60.8633V66.005" stroke="#455B71" stroke-width="2"/>
<path d="M258.074 57.2334V58.4432" stroke="#455B71" stroke-width="2"/>
<path d="M264.121 57.2334V58.4432" stroke="#455B71" stroke-width="2"/>
<path d="M270.172 57.2334V58.4432" stroke="#455B71" stroke-width="2"/>
<path d="M276.221 57.2334V58.4432" stroke="#455B71" stroke-width="2"/>
<path d="M258.074 68.1221V69.3319" stroke="#455B71" stroke-width="2"/>
<path d="M264.121 68.1221V69.3319" stroke="#455B71" stroke-width="2"/>
<path d="M270.172 68.1221V69.3319" stroke="#455B71" stroke-width="2"/>
<path d="M276.221 68.1221V69.3319" stroke="#455B71" stroke-width="2"/>
<path d="M259.3 85.3706H281.371" stroke="#455B71" stroke-width="2"/>
<rect x="267.657" y="71.6562" width="33.6898" height="40.3439" rx="2" fill="white" stroke="#455B71" stroke-width="2"/>
<circle cx="274.169" cy="97.1822" r="1.01228" fill="white" stroke="#455B71"/>
<circle cx="274.169" cy="103.068" r="1.01228" fill="white" stroke="#455B71"/>
<path d="M276.958 97.1416L297.557 97.1416" stroke="#455B71" stroke-width="2"/>
<path d="M276.958 103.027L297.557 103.027" stroke="#455B71" stroke-width="2"/>
<path d="M278.543 86.5152H296.522C297.44 86.5152 297.873 85.381 297.188 84.7693L291.188 79.4123C291.005 79.2486 290.768 79.1582 290.522 79.1582H278.543" stroke="#455B71" stroke-width="2"/>
<rect x="280.382" y="82.5519" width="2.20711" height="0.735705" fill="white" stroke="#455B71" stroke-width="0.735705"/>
<rect x="284.796" y="82.5519" width="2.20711" height="0.735705" fill="white" stroke="#455B71" stroke-width="0.735705"/>
<path d="M272.543 79.1582L275.6 79.1582V86.5152H272.543" stroke="#455B71" stroke-width="2"/>
<path d="M272.676 367.108C266.743 367.108 261.874 371.659 261.368 377.46C261.32 378.01 261.772 378.459 262.324 378.459H283.027C283.579 378.459 284.032 378.01 283.984 377.46C283.477 371.659 278.608 367.108 272.676 367.108Z" fill="white" stroke="#455B71" stroke-width="2" stroke-miterlimit="10"/>
<path d="M257 379H279.162H289.432" stroke="#455B71" stroke-width="2" stroke-miterlimit="10"/>
<path d="M277.54 378.459C277.54 375.772 275.362 373.594 272.675 373.594C269.989 373.594 267.811 375.772 267.811 378.459" stroke="#455B71" stroke-width="2" stroke-miterlimit="10"/>
<path d="M276.783 367.898L284.891 353.854" stroke="#455B71" stroke-width="2" stroke-miterlimit="10"/>
<rect x="291.594" y="339" width="3.24324" height="16.2162" rx="1" transform="rotate(30 291.594 339)" fill="white" stroke="#455B71" stroke-width="2" stroke-miterlimit="10"/>
<rect x="254" y="187" width="43" height="40" fill="white"/>
<path d="M251 227H301.794M254.81 226.365V187H297.984V226.365M270.048 218.111V213.032L283.381 199.698L287.825 199.063M290.365 212.397V201.603L285.286 194.619H275.127L263.063 206.683V211.127M284.016 218.111V213.032L265.603 194.619" stroke="#455B71" stroke-width="2" stroke-linecap="round"/>
<circle cx="263.699" cy="192.714" r="2.6746" fill="white" stroke="#455B71"/>
<circle cx="263.699" cy="213.031" r="2.6746" fill="white" stroke="#455B71"/>
<circle cx="276.397" cy="206.682" r="2.6746" fill="white" stroke="#455B71"/>
<circle cx="270.048" cy="220.65" r="2.6746" fill="white" stroke="#455B71"/>
<circle cx="284.016" cy="220.65" r="2.6746" fill="white" stroke="#455B71"/>
<circle cx="290.366" cy="213.031" r="2.6746" fill="white" stroke="#455B71"/>
<circle cx="290.366" cy="199.063" r="2.6746" fill="white" stroke="#455B71"/>
<circle cx="270.048" cy="199.063" r="2.6746" fill="white" stroke="#455B71"/>
<path d="M520.764 588.614C519.579 588.614 518.986 589.03 518.986 589.86C518.986 590.29 519.126 590.598 519.406 590.784C519.686 590.962 520.302 591.186 521.254 591.456C522.216 591.718 522.892 592.035 523.284 592.408C523.676 592.772 523.872 593.351 523.872 594.144C523.872 595.152 523.583 595.908 523.004 596.412C522.435 596.907 521.656 597.154 520.666 597.154C519.873 597.154 518.996 597.061 518.034 596.874L517.53 596.776L517.684 595.53C518.944 595.698 519.906 595.782 520.568 595.782C521.726 595.782 522.304 595.269 522.304 594.242C522.304 593.841 522.174 593.547 521.912 593.36C521.651 593.164 521.063 592.954 520.148 592.73C519.234 592.497 518.552 592.18 518.104 591.778C517.656 591.377 517.432 590.742 517.432 589.874C517.432 589.006 517.712 588.353 518.272 587.914C518.842 587.466 519.626 587.242 520.624 587.242C521.343 587.242 522.192 587.326 523.172 587.494L523.662 587.578L523.536 588.838C522.23 588.689 521.306 588.614 520.764 588.614Z" fill="#455B71"/>
<path d="M530.354 595.74L530.746 595.698L530.774 596.832C529.71 597.047 528.767 597.154 527.946 597.154C526.91 597.154 526.163 596.87 525.706 596.3C525.258 595.731 525.034 594.821 525.034 593.57C525.034 591.088 526.047 589.846 528.072 589.846C530.032 589.846 531.012 590.915 531.012 593.052L530.914 594.144H526.574C526.583 594.723 526.709 595.148 526.952 595.418C527.195 595.689 527.647 595.824 528.31 595.824C528.973 595.824 529.654 595.796 530.354 595.74ZM529.514 592.968C529.514 592.278 529.402 591.797 529.178 591.526C528.963 591.246 528.595 591.106 528.072 591.106C527.549 591.106 527.167 591.251 526.924 591.54C526.691 591.83 526.569 592.306 526.56 592.968H529.514Z" fill="#455B71"/>
<path d="M532.479 597V590H533.991V590.84C534.785 590.327 535.578 589.996 536.371 589.846V591.372C535.569 591.531 534.883 591.736 534.313 591.988L534.005 592.114V597H532.479Z" fill="#455B71"/>
<path d="M536.88 590H538.476L539.82 595.698H540.268L541.668 590H543.222L541.402 597H538.686L536.88 590Z" fill="#455B71"/>
<path d="M544.415 597V590H545.941V597H544.415ZM544.415 588.81V587.2H545.941V588.81H544.415Z" fill="#455B71"/>
<path d="M547.442 591.358V590H552.636V591.358L549.276 595.642H552.636V597H547.442V595.642L550.816 591.358H547.442Z" fill="#455B71"/>
<path d="M554.149 597V590H555.675V597H554.149ZM554.149 588.81V587.2H555.675V588.81H554.149Z" fill="#455B71"/>
<path d="M557.904 590.756C558.389 590.15 559.192 589.846 560.312 589.846C561.432 589.846 562.23 590.15 562.706 590.756C563.191 591.363 563.434 592.273 563.434 593.486C563.434 594.7 563.201 595.614 562.734 596.23C562.267 596.846 561.46 597.154 560.312 597.154C559.164 597.154 558.357 596.846 557.89 596.23C557.423 595.614 557.19 594.7 557.19 593.486C557.19 592.273 557.428 591.363 557.904 590.756ZM559.052 595.306C559.267 595.68 559.687 595.866 560.312 595.866C560.937 595.866 561.357 595.68 561.572 595.306C561.787 594.933 561.894 594.322 561.894 593.472C561.894 592.623 561.777 592.021 561.544 591.666C561.32 591.312 560.909 591.134 560.312 591.134C559.715 591.134 559.299 591.312 559.066 591.666C558.842 592.021 558.73 592.623 558.73 593.472C558.73 594.322 558.837 594.933 559.052 595.306Z" fill="#455B71"/>
<path d="M511.696 616.156V619.348C511.706 619.554 511.757 619.708 511.85 619.81C511.953 619.904 512.107 619.964 512.312 619.992L512.27 621.154C511.468 621.154 510.847 620.982 510.408 620.636C509.662 620.982 508.91 621.154 508.154 621.154C506.764 621.154 506.068 620.412 506.068 618.928C506.068 618.219 506.255 617.706 506.628 617.388C507.011 617.071 507.594 616.88 508.378 616.814L510.184 616.66V616.156C510.184 615.783 510.1 615.522 509.932 615.372C509.774 615.223 509.536 615.148 509.218 615.148C508.621 615.148 507.874 615.186 506.978 615.26L506.53 615.288L506.474 614.21C507.492 613.968 508.425 613.846 509.274 613.846C510.133 613.846 510.749 614.033 511.122 614.406C511.505 614.77 511.696 615.354 511.696 616.156ZM508.56 617.892C507.916 617.948 507.594 618.298 507.594 618.942C507.594 619.586 507.879 619.908 508.448 619.908C508.915 619.908 509.41 619.834 509.932 619.684L510.184 619.6V617.738L508.56 617.892Z" fill="#455B71"/>
<path d="M513.696 621V611.088H515.222V621H513.696Z" fill="#455B71"/>
<path d="M517.237 621V611.088H518.763V621H517.237Z" fill="#455B71"/>
<path d="M525.874 616.156V619.348C525.883 619.554 525.935 619.708 526.028 619.81C526.131 619.904 526.285 619.964 526.49 619.992L526.448 621.154C525.645 621.154 525.025 620.982 524.586 620.636C523.839 620.982 523.088 621.154 522.332 621.154C520.941 621.154 520.246 620.412 520.246 618.928C520.246 618.219 520.433 617.706 520.806 617.388C521.189 617.071 521.772 616.88 522.556 616.814L524.362 616.66V616.156C524.362 615.783 524.278 615.522 524.11 615.372C523.951 615.223 523.713 615.148 523.396 615.148C522.799 615.148 522.052 615.186 521.156 615.26L520.708 615.288L520.652 614.21C521.669 613.968 522.603 613.846 523.452 613.846C524.311 613.846 524.927 614.033 525.3 614.406C525.683 614.77 525.874 615.354 525.874 616.156ZM522.738 617.892C522.094 617.948 521.772 618.298 521.772 618.942C521.772 619.586 522.057 619.908 522.626 619.908C523.093 619.908 523.587 619.834 524.11 619.684L524.362 619.6V617.738L522.738 617.892Z" fill="#455B71"/>
<path d="M530.866 624.01V614H532.378V614.434C533.022 614.042 533.624 613.846 534.184 613.846C535.108 613.846 535.785 614.131 536.214 614.7C536.643 615.26 536.858 616.208 536.858 617.542C536.858 618.868 536.611 619.801 536.116 620.342C535.631 620.884 534.833 621.154 533.722 621.154C533.339 621.154 532.896 621.112 532.392 621.028V624.01H530.866ZM533.918 615.204C533.479 615.204 533.041 615.302 532.602 615.498L532.392 615.596V619.726C532.765 619.801 533.176 619.838 533.624 619.838C534.259 619.838 534.697 619.656 534.94 619.292C535.183 618.928 535.304 618.308 535.304 617.43C535.304 615.946 534.842 615.204 533.918 615.204Z" fill="#455B71"/>
<path d="M543.369 619.74L543.761 619.698L543.789 620.832C542.725 621.047 541.783 621.154 540.961 621.154C539.925 621.154 539.179 620.87 538.721 620.3C538.273 619.731 538.05 618.821 538.05 617.57C538.05 615.088 539.062 613.846 541.087 613.846C543.047 613.846 544.028 614.915 544.028 617.052L543.929 618.144H539.589C539.599 618.723 539.725 619.148 539.967 619.418C540.21 619.689 540.663 619.824 541.326 619.824C541.988 619.824 542.669 619.796 543.369 619.74ZM542.529 616.968C542.529 616.278 542.417 615.797 542.194 615.526C541.979 615.246 541.61 615.106 541.087 615.106C540.565 615.106 540.182 615.251 539.939 615.54C539.706 615.83 539.585 616.306 539.575 616.968H542.529Z" fill="#455B71"/>
<path d="M545.495 621V614H547.007V614.84C547.8 614.327 548.594 613.996 549.387 613.846V615.372C548.584 615.531 547.898 615.736 547.329 615.988L547.021 616.114V621H545.495Z" fill="#455B71"/>
<path d="M555.411 615.442C554.31 615.293 553.512 615.218 553.017 615.218C552.523 615.218 552.177 615.279 551.981 615.4C551.795 615.512 551.701 615.694 551.701 615.946C551.701 616.198 551.804 616.376 552.009 616.478C552.224 616.581 552.719 616.702 553.493 616.842C554.277 616.973 554.833 617.183 555.159 617.472C555.486 617.762 555.649 618.275 555.649 619.012C555.649 619.75 555.411 620.291 554.935 620.636C554.469 620.982 553.783 621.154 552.877 621.154C552.308 621.154 551.589 621.075 550.721 620.916L550.287 620.846L550.343 619.572C551.463 619.722 552.271 619.796 552.765 619.796C553.26 619.796 553.61 619.736 553.815 619.614C554.03 619.493 554.137 619.292 554.137 619.012C554.137 618.732 554.035 618.541 553.829 618.438C553.633 618.326 553.153 618.21 552.387 618.088C551.631 617.958 551.076 617.757 550.721 617.486C550.367 617.216 550.189 616.721 550.189 616.002C550.189 615.284 550.432 614.747 550.917 614.392C551.412 614.038 552.042 613.86 552.807 613.86C553.405 613.86 554.137 613.935 555.005 614.084L555.439 614.168L555.411 615.442Z" fill="#455B71"/>
<path d="M557.494 614.756C557.979 614.15 558.782 613.846 559.902 613.846C561.022 613.846 561.82 614.15 562.296 614.756C562.781 615.363 563.024 616.273 563.024 617.486C563.024 618.7 562.791 619.614 562.324 620.23C561.857 620.846 561.05 621.154 559.902 621.154C558.754 621.154 557.947 620.846 557.48 620.23C557.013 619.614 556.78 618.7 556.78 617.486C556.78 616.273 557.018 615.363 557.494 614.756ZM558.642 619.306C558.857 619.68 559.277 619.866 559.902 619.866C560.527 619.866 560.947 619.68 561.162 619.306C561.377 618.933 561.484 618.322 561.484 617.472C561.484 616.623 561.367 616.021 561.134 615.666C560.91 615.312 560.499 615.134 559.902 615.134C559.305 615.134 558.889 615.312 558.656 615.666C558.432 616.021 558.32 616.623 558.32 617.472C558.32 618.322 558.427 618.933 558.642 619.306Z" fill="#455B71"/>
<path d="M566.066 621H564.54V614H566.052V614.434C566.733 614.042 567.377 613.846 567.984 613.846C568.917 613.846 569.552 614.112 569.888 614.644C570.233 615.167 570.406 616.035 570.406 617.248V621H568.894V617.29C568.894 616.534 568.81 615.998 568.642 615.68C568.483 615.363 568.152 615.204 567.648 615.204C567.172 615.204 566.714 615.298 566.276 615.484L566.066 615.568V621Z" fill="#455B71"/>
<path d="M577.362 616.156V619.348C577.372 619.554 577.423 619.708 577.516 619.81C577.619 619.904 577.773 619.964 577.978 619.992L577.936 621.154C577.134 621.154 576.513 620.982 576.074 620.636C575.328 620.982 574.576 621.154 573.82 621.154C572.43 621.154 571.734 620.412 571.734 618.928C571.734 618.219 571.921 617.706 572.294 617.388C572.677 617.071 573.26 616.88 574.044 616.814L575.85 616.66V616.156C575.85 615.783 575.766 615.522 575.598 615.372C575.44 615.223 575.202 615.148 574.884 615.148C574.287 615.148 573.54 615.186 572.644 615.26L572.196 615.288L572.14 614.21C573.158 613.968 574.091 613.846 574.94 613.846C575.799 613.846 576.415 614.033 576.788 614.406C577.171 614.77 577.362 615.354 577.362 616.156ZM574.226 617.892C573.582 617.948 573.26 618.298 573.26 618.942C573.26 619.586 573.545 619.908 574.114 619.908C574.581 619.908 575.076 619.834 575.598 619.684L575.85 619.6V617.738L574.226 617.892Z" fill="#455B71"/>
<path fill-rule="evenodd" clip-rule="evenodd" d="M506 541.644H545.133V513.036H506V541.644Z" fill="white"/>
<path fill-rule="evenodd" clip-rule="evenodd" d="M506 541.644H545.133V513.036H506V541.644Z" stroke="#455B71" stroke-width="2" stroke-linecap="round" stroke-linejoin="round"/>
<path fill-rule="evenodd" clip-rule="evenodd" d="M512.182 517.309C512.182 517.912 511.693 518.4 511.09 518.4C510.488 518.4 510 517.912 510 517.309C510 516.706 510.488 516.218 511.09 516.218C511.693 516.218 512.182 516.706 512.182 517.309Z" fill="#455B71"/>
<path fill-rule="evenodd" clip-rule="evenodd" d="M515.451 517.309C515.451 517.912 514.963 518.4 514.36 518.4C513.758 518.4 513.27 517.912 513.27 517.309C513.27 516.706 513.758 516.218 514.36 516.218C514.963 516.218 515.451 516.706 515.451 517.309Z" fill="#455B71"/>
<path fill-rule="evenodd" clip-rule="evenodd" d="M518.768 517.309C518.768 517.912 518.28 518.4 517.677 518.4C517.075 518.4 516.587 517.912 516.587 517.309C516.587 516.706 517.075 516.218 517.677 516.218C518.28 516.218 518.768 516.706 518.768 517.309Z" fill="#455B71"/>
<path fill-rule="evenodd" clip-rule="evenodd" d="M531.995 531.319C531.995 534.65 529.294 537.352 525.962 537.352C522.631 537.352 519.931 534.65 519.931 531.319C519.931 527.988 522.631 525.287 525.962 525.287C529.294 525.287 531.995 527.988 531.995 531.319Z" fill="#65DDE0"/>
<path d="M522.576 530.319L525.915 533.659L532.596 526.979" stroke="white" stroke-width="2" stroke-linecap="round" stroke-linejoin="round"/>
<path fill-rule="evenodd" clip-rule="evenodd" d="M558.519 504.187C560.613 501.062 564.178 499 568.227 499C574.676 499 579.906 504.229 579.906 510.679V521.386C579.906 521.814 579.559 522.161 579.131 522.161C578.703 522.161 578.356 521.814 578.356 521.386V510.679C578.356 505.085 573.82 500.55 568.227 500.55C564.518 500.55 561.275 502.545 559.509 505.522L559.167 506.1L558.546 505.843C557.897 505.574 557.187 505.424 556.44 505.424C553.404 505.424 550.943 507.886 550.943 510.922V521.285C550.943 521.713 550.596 522.06 550.168 522.06C549.74 522.06 549.393 521.713 549.393 521.285V510.922C549.393 507.03 552.548 503.874 556.44 503.874C557.164 503.874 557.862 503.985 558.519 504.187Z" fill="#455B71"/>
<path fill-rule="evenodd" clip-rule="evenodd" d="M569.309 539.593C569.737 539.593 570.084 539.94 570.084 540.368V541.467C570.084 544.469 567.651 546.902 564.649 546.902C561.646 546.902 559.214 544.469 559.214 541.467V540.369C559.214 539.941 559.561 539.594 559.989 539.594C560.417 539.594 560.764 539.941 560.764 540.369V541.467C560.764 543.613 562.502 545.352 564.649 545.352C566.795 545.352 568.534 543.613 568.534 541.467V540.368C568.534 539.94 568.881 539.593 569.309 539.593Z" fill="#455B71"/>
<path fill-rule="evenodd" clip-rule="evenodd" d="M560.734 540.576C560.852 540.987 560.614 541.416 560.202 541.534C553.71 543.396 548.896 549.228 548.564 556.236H580.734C580.402 549.228 575.589 543.396 569.095 541.534C568.684 541.416 568.446 540.987 568.564 540.576C568.682 540.164 569.111 539.926 569.523 540.044C576.9 542.16 582.302 548.951 582.302 557.011V557.786H546.996V557.011C546.996 548.951 552.398 542.16 559.775 540.044C560.186 539.926 560.616 540.164 560.734 540.576Z" fill="#455B71"/>
<path fill-rule="evenodd" clip-rule="evenodd" d="M547.428 524.874C547.428 522.704 549.186 520.948 551.355 520.948H552.907V528.8H551.355C549.186 528.8 547.428 527.042 547.428 524.874ZM551.355 522.498C550.041 522.498 548.978 523.561 548.978 524.874C548.978 526.186 550.042 527.25 551.355 527.25H551.357V522.498H551.355Z" fill="#455B71"/>
<path fill-rule="evenodd" clip-rule="evenodd" d="M576.391 520.948H577.943C580.111 520.948 581.87 522.704 581.87 524.874C581.87 527.042 580.112 528.8 577.943 528.8H576.391V520.948ZM577.941 522.498V527.25H577.943C579.256 527.25 580.32 526.186 580.32 524.874C580.32 523.561 579.256 522.498 577.943 522.498H577.941Z" fill="#455B71"/>
<path fill-rule="evenodd" clip-rule="evenodd" d="M560.099 524.057C560.099 524.79 559.506 525.383 558.774 525.383C558.042 525.383 557.448 524.79 557.448 524.057C557.448 523.325 558.042 522.732 558.774 522.732C559.506 522.732 560.099 523.325 560.099 524.057Z" fill="#455B71"/>
<path fill-rule="evenodd" clip-rule="evenodd" d="M571.851 524.057C571.851 524.79 571.258 525.383 570.526 525.383C569.794 525.383 569.2 524.79 569.2 524.057C569.2 523.325 569.794 522.732 570.526 522.732C571.258 522.732 571.851 523.325 571.851 524.057Z" fill="#455B71"/>
<path fill-rule="evenodd" clip-rule="evenodd" d="M563.227 523.097C563.655 523.097 564.002 523.444 564.002 523.872V527.479C564.002 527.838 564.292 528.127 564.649 528.127C565.007 528.127 565.296 527.838 565.296 527.479V523.872C565.296 523.444 565.643 523.097 566.071 523.097C566.499 523.097 566.846 523.444 566.846 523.872V527.479C566.846 528.694 565.863 529.677 564.649 529.677C563.435 529.677 562.452 528.693 562.452 527.479V523.872C562.452 523.444 562.799 523.097 563.227 523.097Z" fill="#455B71"/>
<path fill-rule="evenodd" clip-rule="evenodd" d="M559.981 530.544H569.315V532.885C569.315 535.463 567.225 537.552 564.648 537.552C562.071 537.552 559.981 535.463 559.981 532.885V530.544ZM561.531 532.094V532.885C561.531 534.607 562.927 536.002 564.648 536.002C566.369 536.002 567.765 534.607 567.765 532.885V532.094H561.531Z" fill="#455B71"/>
<path fill-rule="evenodd" clip-rule="evenodd" d="M561.409 519.976C561.409 519.976 561.409 519.976 560.985 520.613L561.409 519.976C561.765 520.213 561.862 520.694 561.625 521.051C561.388 521.406 560.909 521.503 560.553 521.268C560.553 521.268 560.553 521.268 560.553 521.268L560.542 521.261C560.531 521.255 560.512 521.243 560.486 521.228C560.434 521.197 560.352 521.152 560.247 521.1C560.034 520.996 559.733 520.871 559.379 520.783C558.671 520.608 557.812 520.596 556.996 521.137C556.639 521.374 556.158 521.277 555.921 520.921C555.685 520.564 555.782 520.083 556.138 519.846C557.433 518.986 558.781 519.039 559.751 519.279C560.237 519.399 560.643 519.568 560.928 519.708C561.071 519.778 561.186 519.841 561.267 519.889C561.308 519.913 561.341 519.933 561.365 519.948L561.394 519.966L561.403 519.972L561.406 519.975L561.408 519.975L561.409 519.976Z" fill="#455B71"/>
<path fill-rule="evenodd" clip-rule="evenodd" d="M568.319 520.621L567.889 519.976C567.533 520.213 567.436 520.694 567.673 521.051C567.91 521.406 568.389 521.503 568.745 521.268C568.745 521.268 568.745 521.268 568.745 521.268C568.745 521.268 568.746 521.268 568.746 521.268L568.756 521.261C568.767 521.255 568.786 521.243 568.812 521.228C568.865 521.197 568.946 521.152 569.052 521.1C569.264 520.996 569.565 520.871 569.919 520.783C570.628 520.608 571.487 520.596 572.303 521.137C572.659 521.374 573.14 521.277 573.377 520.921C573.614 520.564 573.517 520.083 573.16 519.846C571.865 518.986 570.517 519.039 569.547 519.279C569.062 519.399 568.656 519.568 568.371 519.708C568.227 519.778 568.112 519.841 568.031 519.889C567.99 519.913 567.958 519.933 567.934 519.948L567.905 519.966L567.895 519.972L567.892 519.975L567.89 519.975L567.89 519.976C567.89 519.976 567.889 519.976 568.319 520.621Z" fill="#455B71"/>
<path fill-rule="evenodd" clip-rule="evenodd" d="M557.483 541.114C557.911 541.114 558.258 541.461 558.258 541.889V548.631L564.308 545.675C564.693 545.487 565.157 545.647 565.345 546.031C565.533 546.416 565.373 546.88 564.989 547.068L557.823 550.569C557.583 550.686 557.299 550.672 557.073 550.53C556.846 550.388 556.708 550.14 556.708 549.873V541.889C556.708 541.461 557.055 541.114 557.483 541.114Z" fill="#455B71"/>
<path fill-rule="evenodd" clip-rule="evenodd" d="M571.814 541.114C572.242 541.114 572.589 541.461 572.589 541.889V549.873C572.589 550.14 572.452 550.388 572.225 550.53C571.998 550.672 571.714 550.686 571.474 550.569L564.308 547.068C563.924 546.88 563.764 546.416 563.952 546.031C564.14 545.647 564.604 545.487 564.989 545.675L571.039 548.631V541.889C571.039 541.461 571.386 541.114 571.814 541.114Z" fill="#455B71"/>
<path fill-rule="evenodd" clip-rule="evenodd" d="M559.579 507.739L559.805 508.559C561.059 513.107 565.225 516.448 570.17 516.448H577.716L577.812 517.111C577.89 517.646 577.942 518.202 577.942 518.777V529.921C577.942 536.355 572.725 541.571 566.291 541.571H563.007C556.572 541.571 551.355 536.355 551.355 529.921V518.777C551.355 513.861 554.447 509.68 558.784 508.04L559.579 507.739ZM558.576 509.812C555.223 511.409 552.905 514.821 552.905 518.777V529.921C552.905 535.499 557.428 540.021 563.007 540.021H566.291C571.869 540.021 576.392 535.499 576.392 529.921V518.777C576.392 518.517 576.379 518.257 576.357 517.998H570.17C564.819 517.998 560.269 514.581 558.576 509.812Z" fill="#455B71"/>
<path d="M115 473V391.909C115 391.908 115 391.908 115.001 391.908V391.908C115.001 391.908 115.001 391.908 115.001 391.907C115 391.749 115 391.59 115 391.431C115 353.251 140.216 320.924 175 310" stroke="#17324D" stroke-width="2" stroke-miterlimit="10" stroke-dasharray="6 4"/>
<path d="M425 473V391.909C425 391.908 425 391.908 424.999 391.908V391.908C424.999 391.908 424.999 391.908 424.999 391.907C425 391.749 425 391.59 425 391.431C425 353.251 399.784 320.924 365 310" stroke="#17324D" stroke-width="2" stroke-miterlimit="10" stroke-dasharray="6 4"/>
<path d="M268.333 392C268.333 393.473 269.527 394.667 271 394.667C272.473 394.667 273.667 393.473 273.667 392C273.667 390.527 272.473 389.333 271 389.333C269.527 389.333 268.333 390.527 268.333 392ZM268.333 490C268.333 491.473 269.527 492.667 271 492.667C272.473 492.667 273.667 491.473 273.667 490C273.667 488.527 272.473 487.333 271 487.333C269.527 487.333 268.333 488.527 268.333 490ZM270.5 392L270.5 490L271.5 490L271.5 392L270.5 392Z" fill="#17324D"/>
</svg>
