<?xml version="1.0" encoding="UTF-8" standalone="no"?>
<svg
   width="630"
   height="696"
   viewBox="0 0 630 696"
   fill="none"
   version="1.1"
   id="svg227"
   sodipodi:docname="graph_en.svg"
   inkscape:version="1.3.2 (091e20e, 2023-11-25)"
   xmlns:inkscape="http://www.inkscape.org/namespaces/inkscape"
   xmlns:sodipodi="http://sodipodi.sourceforge.net/DTD/sodipodi-0.dtd"
   xmlns="http://www.w3.org/2000/svg"
   xmlns:svg="http://www.w3.org/2000/svg">
  <defs
     id="defs227" />
  <sodipodi:namedview
     id="namedview227"
     pagecolor="#ffffff"
     bordercolor="#000000"
     borderopacity="0.25"
     inkscape:showpageshadow="2"
     inkscape:pageopacity="0.0"
     inkscape:pagecheckerboard="0"
     inkscape:deskcolor="#d1d1d1"
     showgrid="false"
     inkscape:zoom="0.91091954"
     inkscape:cx="146.00631"
     inkscape:cy="365.56467"
     inkscape:window-width="1440"
     inkscape:window-height="847"
     inkscape:window-x="0"
     inkscape:window-y="25"
     inkscape:window-maximized="1"
     inkscape:current-layer="svg227" />
  <path
     d="m 49.804215,609.263 -25.8901,19.642 c -11.1829,8.484 -10.162,25.608 1.9497,32.703 3.0213,1.77 6.4595,2.703 9.961,2.703 h 14.8386 c 11.9663,0 23.5357,-4.292 32.6072,-12.095 l 0.3361,-0.289 c 9.0712,-7.804 20.641195,-12.096 32.607195,-12.096 h 6.748 18.971 28.532 c 12.332,0 24.139,-4.993 32.729,-13.841 8.59,-8.848 20.397,-13.84 32.729,-13.84 h 50.431 c 9.942,0 19.659,2.964 27.909,8.513 l 26.068,17.537 c 8.25,5.55 17.966,8.514 27.909,8.514 h 12.413 147.117 c 5.952,0 11.856,1.063 17.435,3.138 l 27.596,10.267 c 13.802,5.135 29.047,-2.608 33.041,-16.782 4.457,-15.818 -7.175,-31.6 -23.603,-32.026 l -79.29,-2.051 c -13.963,-0.361 -27.139,-6.547 -36.337,-17.06 l -1.853,-2.118 c -9.494,-10.851 -23.211,-17.076 -37.63,-17.076 h -49.805 c -3.567,0 -7.124,0.382 -10.61,1.139 l -47.216,10.252 c -3.486,0.757 -7.043,1.139 -10.61,1.139 h -77.403 c -5.903,0 -11.759,1.045 -17.298,3.087 l -24.753,9.127 c -5.538,2.042 -11.394,3.087 -17.297,3.087 H 74.851315 c -9.0449,0 -17.8413,2.96 -25.0471,8.426 z"
     fill="#bfdfff"
     id="path1" />
  <path
     d="m 50.461992,600.91 -25.89,19.642 c -11.183,8.484 -10.1621,25.608 1.9497,32.703 3.0212,1.77 6.4594,2.703 9.9609,2.703 h 14.8386 c 11.9663,0 23.5357,-4.292 32.6073,-12.095 l 0.336,-0.289 c 9.0716,-7.804 20.641298,-12.096 32.607298,-12.096 h 6.748 18.971 28.532 c 12.332,0 24.139,-4.993 32.729,-13.841 8.59,-8.848 20.397,-13.84 32.729,-13.84 h 50.431 c 9.942,0 19.659,2.964 27.908,8.513 l 26.069,17.537 c 8.25,5.55 17.966,8.514 27.909,8.514 h 12.413 147.117 c 5.952,0 11.856,1.063 17.435,3.138 l 27.596,10.267 c 13.802,5.135 29.047,-2.608 33.041,-16.782 4.457,-15.818 -7.175,-31.601 -23.603,-32.026 l -79.29,-2.051 c -13.963,-0.361 -27.139,-6.547 -36.337,-17.06 l -1.853,-2.118 c -9.494,-10.851 -23.211,-17.076 -37.63,-17.076 h -49.805 c -3.567,0 -7.124,0.382 -10.61,1.139 l -47.216,10.252 c -3.486,0.757 -7.043,1.139 -10.61,1.139 h -77.403 c -5.903,0 -11.76,1.045 -17.298,3.087 l -24.753,9.127 c -5.538,2.042 -11.394,3.087 -17.297,3.087 H 75.509092 c -9.0448,0 -17.8413,2.96 -25.0471,8.426 z"
     fill="#f2f7fc"
     id="path2" />
  <path
     d="M377.414 532.414C378.195 531.633 378.195 530.367 377.414 529.586L364.686 516.858C363.905 516.077 362.639 516.077 361.858 516.858C361.077 517.639 361.077 518.905 361.858 519.686L373.172 531L361.858 542.314C361.077 543.095 361.077 544.361 361.858 545.142C362.639 545.923 363.905 545.923 364.686 545.142L377.414 532.414ZM160 533H376V529H160V533Z"
     fill="#65DDE0"
     id="path28" />
  <path
     d="M493.414 532.414C494.195 531.633 494.195 530.367 493.414 529.586L480.686 516.858C479.905 516.077 478.639 516.077 477.858 516.858C477.077 517.639 477.077 518.905 477.858 519.686L489.172 531L477.858 542.314C477.077 543.095 477.077 544.361 477.858 545.142C478.639 545.923 479.905 545.923 480.686 545.142L493.414 532.414ZM463 533H492V529H463V533Z"
     fill="#65DDE0"
     id="path29" />
  <path
     d="M422.173 499.35V496"
     stroke="#5C6F82"
     stroke-width="2"
     stroke-miterlimit="10"
     id="path30" />
  <path
     d="M452.665 504.016H446.559V507.44H452.665V504.016Z"
     fill="white"
     stroke="#455B71"
     stroke-width="2"
     stroke-miterlimit="10"
     id="path31" />
  <path
     d="M446.559 511.033V502.7"
     stroke="#455B71"
     stroke-width="2"
     stroke-miterlimit="10"
     id="path32" />
  <path
     d="M391.682 507.45H397.788V504.026H391.682V507.45Z"
     fill="white"
     stroke="#455B71"
     stroke-width="2"
     stroke-miterlimit="10"
     id="path33" />
  <path
     d="M397.788 511.033V502.7"
     stroke="#455B71"
     stroke-width="2"
     stroke-miterlimit="10"
     id="path34" />
  <path
     d="M395.059 511.033H449.288C449.801 511.034 450.309 511.136 450.782 511.334C451.256 511.531 451.686 511.82 452.047 512.183C452.409 512.547 452.696 512.978 452.891 513.453C453.086 513.927 453.186 514.436 453.185 514.949H391.162C391.16 514.436 391.26 513.927 391.455 513.453C391.651 512.978 391.937 512.547 392.299 512.183C392.661 511.82 393.091 511.531 393.565 511.334C394.038 511.136 394.546 511.034 395.059 511.033Z"
     stroke="#455B71"
     stroke-width="2"
     stroke-miterlimit="10"
     id="path35" />
  <path
     d="M432.641 531.763H411.716V543.64H432.641V531.763Z"
     stroke="#455B71"
     stroke-width="2"
     stroke-miterlimit="10"
     id="path36" />
  <path
     d="M393.008 514.939V543.64H411.716"
     stroke="#455B71"
     stroke-width="2"
     stroke-miterlimit="10"
     id="path37" />
  <path
     d="M451.338 514.939V543.64H432.63"
     stroke="#455B71"
     stroke-width="2"
     stroke-miterlimit="10"
     id="path38" />
  <path
     d="M432.632 547.881H389V543.64H393.009V547.881"
     stroke="#455B71"
     stroke-width="2"
     stroke-miterlimit="10"
     id="path39" />
  <path
     d="M432.63 547.881H455.346V543.64H451.338V547.881"
     stroke="#455B71"
     stroke-width="2"
     stroke-miterlimit="10"
     id="path40" />
  <path
     d="M396.84 536.773C396.84 537.276 396.741 537.775 396.548 538.24C396.356 538.705 396.073 539.127 395.718 539.483C395.362 539.839 394.939 540.121 394.474 540.314C394.009 540.507 393.511 540.606 393.008 540.606C392.504 540.606 392.006 540.507 391.541 540.314C391.076 540.121 390.654 539.839 390.298 539.483C389.942 539.127 389.66 538.705 389.467 538.24C389.274 537.775 389.175 537.276 389.175 536.773C389.175 534.648 390.892 528.802 393.008 528.802C395.123 528.802 396.84 534.648 396.84 536.773Z"
     fill="white"
     stroke="#455B71"
     stroke-width="2"
     stroke-miterlimit="10"
     id="path41" />
  <path
     d="M455.172 536.773C455.172 537.79 454.768 538.764 454.049 539.483C453.33 540.202 452.356 540.606 451.339 540.606C450.323 540.606 449.348 540.202 448.629 539.483C447.911 538.764 447.507 537.79 447.507 536.773C447.507 534.648 449.224 528.802 451.339 528.802C453.455 528.802 455.172 534.648 455.172 536.773Z"
     fill="white"
     stroke="#455B71"
     stroke-width="2"
     stroke-miterlimit="10"
     id="path42" />
  <path
     d="M410.677 511.033C410.632 509.448 410.906 507.87 411.482 506.393C412.058 504.916 412.924 503.57 414.029 502.433C415.134 501.297 416.456 500.393 417.916 499.777C419.376 499.16 420.946 498.842 422.531 498.842C424.116 498.842 425.685 499.16 427.146 499.777C428.606 500.393 429.928 501.297 431.033 502.433C432.138 503.57 433.004 504.916 433.58 506.393C434.156 507.87 434.43 509.448 434.385 511.033"
     stroke="#455B71"
     stroke-width="2"
     stroke-miterlimit="10"
     id="path43" />
  <path
     d="M416.93 511.024C416.93 504.472 419.306 499.165 422.229 499.165C425.152 499.165 427.527 504.472 427.527 511.024"
     stroke="#455B71"
     stroke-width="2"
     stroke-miterlimit="10"
     id="path44" />
  <path
     d="M436.631 528.171H407.716V531.763H436.631V528.171Z"
     stroke="#455B71"
     stroke-width="2"
     stroke-miterlimit="10"
     id="path45" />
  <path
     d="M422.173 531.531V543.64"
     stroke="#455B71"
     stroke-width="2"
     stroke-miterlimit="10"
     id="path46" />
  <path
     d="M422.229 517.677C423.024 517.677 423.786 517.993 424.348 518.555C424.911 519.117 425.226 519.879 425.226 520.674V525.694H419.232V520.674C419.232 519.879 419.548 519.117 420.11 518.555C420.672 517.993 421.434 517.677 422.229 517.677Z"
     stroke="#455B71"
     stroke-width="2"
     stroke-miterlimit="10"
     id="path47" />
  <path
     d="M410.815 517.677C411.209 517.676 411.6 517.752 411.965 517.902C412.33 518.052 412.661 518.273 412.94 518.551C413.22 518.83 413.441 519.161 413.593 519.525C413.744 519.889 413.822 520.28 413.822 520.674V525.694H407.818V520.674C407.818 519.879 408.134 519.117 408.696 518.555C409.258 517.993 410.02 517.677 410.815 517.677Z"
     stroke="#455B71"
     stroke-width="2"
     stroke-miterlimit="10"
     id="path48" />
  <path
     d="M399.403 517.677C399.796 517.677 400.186 517.754 400.549 517.905C400.913 518.056 401.244 518.276 401.522 518.555C401.8 518.833 402.021 519.163 402.172 519.527C402.322 519.891 402.4 520.28 402.4 520.674V525.694H396.405V520.674C396.405 519.879 396.721 519.117 397.283 518.555C397.845 517.993 398.608 517.677 399.403 517.677Z"
     stroke="#455B71"
     stroke-width="2"
     stroke-miterlimit="10"
     id="path49" />
  <path
     d="M436.649 525.685H430.655V520.665C430.655 519.87 430.971 519.107 431.533 518.545C432.095 517.983 432.857 517.667 433.652 517.667C434.447 517.667 435.209 517.983 435.771 518.545C436.333 519.107 436.649 519.87 436.649 520.665V525.685Z"
     stroke="#455B71"
     stroke-width="2"
     stroke-miterlimit="10"
     id="path50" />
  <path
     d="M448.054 525.685H442.06V520.665C442.06 519.87 442.375 519.107 442.937 518.545C443.5 517.983 444.262 517.667 445.057 517.667C445.852 517.667 446.614 517.983 447.176 518.545C447.738 519.107 448.054 519.87 448.054 520.665V525.685Z"
     stroke="#455B71"
     stroke-width="2"
     stroke-miterlimit="10"
     id="path51" />
  <path
     d="M85.0595 511.204H139.288C139.801 511.205 140.309 511.308 140.782 511.505C141.256 511.702 141.686 511.991 142.048 512.355C142.41 512.718 142.697 513.15 142.892 513.624C143.087 514.099 143.187 514.607 143.186 515.12H81.1621C81.1609 514.607 81.2607 514.099 81.4559 513.624C81.6511 513.15 81.9379 512.718 82.2998 512.355C82.6617 511.991 83.0917 511.702 83.5652 511.505C84.0387 511.308 84.5464 511.205 85.0595 511.204Z"
     stroke="#455B71"
     stroke-width="2"
     stroke-miterlimit="10"
     id="path52" />
  <path
     d="M120.841 525.606V502.463L112.174 496.394L103.507 502.463V525.606"
     fill="white"
     id="path53" />
  <path
     d="M120.841 525.606V502.463L112.174 496.394L103.507 502.463V525.606"
     stroke="#455B71"
     stroke-width="2"
     stroke-miterlimit="10"
     id="path54" />
  <path
     d="M122.641 525.605H101.716V548.052H122.641V525.605Z"
     stroke="#455B71"
     stroke-width="2"
     stroke-miterlimit="10"
     id="path55" />
  <path
     d="M83.0083 515.102V543.812H101.716"
     stroke="#455B71"
     stroke-width="2"
     stroke-miterlimit="10"
     id="path56" />
  <path
     d="M141.339 515.102V543.812H122.631"
     stroke="#455B71"
     stroke-width="2"
     stroke-miterlimit="10"
     id="path57" />
  <path
     d="M101.716 548.052H79V543.812H83.0087V548.052"
     stroke="#455B71"
     stroke-width="2"
     stroke-miterlimit="10"
     id="path58" />
  <path
     d="M122.631 548.052H145.347V543.812H141.339V548.052"
     stroke="#455B71"
     stroke-width="2"
     stroke-miterlimit="10"
     id="path59" />
  <path
     d="M112.174 507.975C113.834 507.975 115.18 506.629 115.18 504.968C115.18 503.308 113.834 501.962 112.174 501.962C110.513 501.962 109.167 503.308 109.167 504.968C109.167 506.629 110.513 507.975 112.174 507.975Z"
     stroke="#455B71"
     stroke-width="2"
     stroke-miterlimit="10"
     id="path60" />
  <path
     d="M118.28 491.328H112.174V494.752H118.28V491.328Z"
     fill="white"
     stroke="#455B71"
     stroke-width="2"
     stroke-miterlimit="10"
     id="path61" />
  <path
     d="M106.82 517.839H117.528"
     stroke="#455B71"
     stroke-width="2"
     stroke-miterlimit="10"
     id="path62" />
  <path
     d="M106.82 520.91H117.528"
     stroke="#455B71"
     stroke-width="2"
     stroke-miterlimit="10"
     id="path63" />
  <path
     d="M87.0093 524.371H97.7177"
     stroke="#455B71"
     stroke-width="2"
     stroke-miterlimit="10"
     id="path64" />
  <path
     d="M87.0093 520.91H97.7177"
     stroke="#455B71"
     stroke-width="2"
     stroke-miterlimit="10"
     id="path65" />
  <path
     d="M127.856 524.371H138.564"
     stroke="#455B71"
     stroke-width="2"
     stroke-miterlimit="10"
     id="path66" />
  <path
     d="M127.856 520.91H138.564"
     stroke="#455B71"
     stroke-width="2"
     stroke-miterlimit="10"
     id="path67" />
  <path
     d="M112.174 534.606C113.594 534.606 114.956 535.171 115.96 536.175C116.964 537.179 117.528 538.541 117.528 539.961V548.052H106.82V539.961C106.82 538.541 107.384 537.179 108.388 536.175C109.392 535.171 110.754 534.606 112.174 534.606Z"
     stroke="#455B71"
     stroke-width="2"
     stroke-miterlimit="10"
     id="path68" />
  <path
     d="M112.536 534.606V548.052"
     stroke="#455B71"
     stroke-width="2"
     stroke-miterlimit="10"
     id="path69" />
  <path
     d="M86.8406 536.935C86.8406 537.439 86.7414 537.937 86.5488 538.402C86.3562 538.867 86.074 539.289 85.7181 539.645C85.3622 540.001 84.9397 540.283 84.4748 540.476C84.0098 540.669 83.5114 540.768 83.0082 540.768C82.5049 540.768 82.0066 540.669 81.5416 540.476C81.0766 540.283 80.6541 540.001 80.2983 539.645C79.9424 539.289 79.6601 538.867 79.4675 538.402C79.2749 537.937 79.1758 537.439 79.1758 536.935C79.1758 534.82 80.8925 528.974 83.0082 528.974C85.1239 528.974 86.8406 534.82 86.8406 536.935Z"
     fill="white"
     stroke="#455B71"
     stroke-width="2"
     stroke-miterlimit="10"
     id="path70" />
  <path
     d="M98.1147 536.935C98.1403 537.455 98.06 537.975 97.8787 538.462C97.6974 538.95 97.4189 539.396 97.0601 539.773C96.7013 540.15 96.2696 540.45 95.7913 540.655C95.3131 540.86 94.7981 540.966 94.2777 540.966C93.7573 540.966 93.2424 540.86 92.764 540.655C92.2858 540.45 91.8541 540.15 91.4953 539.773C91.1365 539.396 90.858 538.95 90.6767 538.462C90.4954 537.975 90.4151 537.455 90.4407 536.935C90.4407 534.82 92.1573 528.974 94.273 528.974C96.3887 528.974 98.1147 534.82 98.1147 536.935Z"
     fill="white"
     stroke="#455B71"
     stroke-width="2"
     stroke-miterlimit="10"
     id="path71" />
  <path
     d="M133.906 536.935C133.931 537.455 133.851 537.975 133.67 538.462C133.488 538.95 133.21 539.396 132.851 539.773C132.492 540.15 132.061 540.45 131.582 540.655C131.104 540.86 130.589 540.966 130.069 540.966C129.548 540.966 129.033 540.86 128.555 540.655C128.077 540.45 127.645 540.15 127.286 539.773C126.928 539.396 126.649 538.95 126.468 538.462C126.286 537.975 126.206 537.455 126.232 536.935C126.232 534.82 127.948 528.974 130.073 528.974C132.198 528.974 133.906 534.82 133.906 536.935Z"
     fill="white"
     stroke="#455B71"
     stroke-width="2"
     stroke-miterlimit="10"
     id="path72" />
  <path
     d="M145.172 536.935C145.172 537.952 144.768 538.927 144.05 539.645C143.331 540.364 142.356 540.768 141.34 540.768C140.323 540.768 139.349 540.364 138.63 539.645C137.911 538.927 137.507 537.952 137.507 536.935C137.507 534.82 139.224 528.974 141.34 528.974C143.455 528.974 145.172 534.82 145.172 536.935Z"
     fill="white"
     stroke="#455B71"
     stroke-width="2"
     stroke-miterlimit="10"
     id="path73" />
  <path
     d="M94.2744 540.777V548.052"
     stroke="#455B71"
     stroke-width="2"
     stroke-miterlimit="10"
     id="path74" />
  <path
     d="M130.072 540.777V548.052"
     stroke="#455B71"
     stroke-width="2"
     stroke-miterlimit="10"
     id="path75" />
  <path
     d="M112.174 496.394V490"
     stroke="#455B71"
     stroke-width="2"
     stroke-miterlimit="10"
     id="path76" />
  <ellipse
     cx="270"
     cy="524.5"
     rx="27"
     ry="27.5"
     fill="white"
     id="ellipse76" />
  <rect
     x="259.641"
     y="539.069"
     width="12.7671"
     height="3.83014"
     fill="#455B71"
     stroke="#455B71"
     stroke-miterlimit="10"
     id="rect76" />
  <path
     d="M266.023 539.069V522.472"
     stroke="#455B71"
     stroke-width="2"
     stroke-miterlimit="10"
     id="path77" />
  <rect
     x="258"
     y="525.215"
     width="41.4836"
     height="5.10685"
     rx="1"
     transform="rotate(-37.4336 258 525.215)"
     fill="white"
     stroke="#455B71"
     stroke-width="2"
     stroke-miterlimit="10"
     id="rect77" />
  <path
     d="M272.958 520.268L271.684 514.812"
     stroke="#455B71"
     stroke-width="2"
     id="path78" />
  <path
     d="M278.065 516.437L276.791 510.981"
     stroke="#455B71"
     stroke-width="2"
     id="path79" />
  <path
     d="M283.172 512.607L281.898 507.151"
     stroke="#455B71"
     stroke-width="2"
     id="path80" />
  <path
     d="M288.279 508.777L287.005 503.321"
     stroke="#455B71"
     stroke-width="2"
     id="path81" />
  <circle
     cx="266.024"
     cy="522.472"
     r="3.33014"
     fill="#455B71"
     stroke="white"
     id="circle81" />
  <circle
     opacity="0.5"
     cx="273.80444"
     cy="323.11987"
     r="90"
     fill="#80b9f1"
     id="circle103" />
  <circle
     opacity="0.5"
     cx="274.90222"
     cy="200.39116"
     r="70"
     fill="#8ebeed"
     id="circle104" />
  <circle
     opacity="0.5"
     cx="273.80444"
     cy="83.1735"
     r="70"
     fill="#c1d9f1"
     id="circle105" />
  <rect
     x="250"
     y="54"
     width="33.6898"
     height="40.3439"
     rx="2"
     fill="white"
     stroke="#455B71"
     stroke-width="2"
     id="rect153" />
  <circle
     cx="256.398"
     cy="79.314"
     r="1.01228"
     fill="white"
     stroke="#455B71"
     id="circle153" />
  <circle
     cx="256.398"
     cy="85.9674"
     r="1.01228"
     fill="white"
     stroke="#455B71"
     id="circle154" />
  <path
     d="M259.3 79.4849H281.371"
     stroke="#455B71"
     stroke-width="2"
     id="path154" />
  <path
     d="M255.654 66.9126L278.64 66.9126"
     stroke="#455B71"
     stroke-width="2"
     id="path155" />
  <path
     d="M255.654 59.6538L278.64 59.6538"
     stroke="#455B71"
     stroke-width="2"
     id="path156" />
  <path
     d="M258.074 60.8633V66.005"
     stroke="#455B71"
     stroke-width="2"
     id="path157" />
  <path
     d="M264.121 60.8633V66.005"
     stroke="#455B71"
     stroke-width="2"
     id="path158" />
  <path
     d="M270.172 60.8633V66.005"
     stroke="#455B71"
     stroke-width="2"
     id="path159" />
  <path
     d="M276.221 60.8633V66.005"
     stroke="#455B71"
     stroke-width="2"
     id="path160" />
  <path
     d="M258.074 57.2334V58.4432"
     stroke="#455B71"
     stroke-width="2"
     id="path161" />
  <path
     d="M264.121 57.2334V58.4432"
     stroke="#455B71"
     stroke-width="2"
     id="path162" />
  <path
     d="M270.172 57.2334V58.4432"
     stroke="#455B71"
     stroke-width="2"
     id="path163" />
  <path
     d="M276.221 57.2334V58.4432"
     stroke="#455B71"
     stroke-width="2"
     id="path164" />
  <path
     d="M258.074 68.1221V69.3319"
     stroke="#455B71"
     stroke-width="2"
     id="path165" />
  <path
     d="M264.121 68.1221V69.3319"
     stroke="#455B71"
     stroke-width="2"
     id="path166" />
  <path
     d="M270.172 68.1221V69.3319"
     stroke="#455B71"
     stroke-width="2"
     id="path167" />
  <path
     d="M276.221 68.1221V69.3319"
     stroke="#455B71"
     stroke-width="2"
     id="path168" />
  <path
     d="M259.3 85.3706H281.371"
     stroke="#455B71"
     stroke-width="2"
     id="path169" />
  <rect
     x="267.657"
     y="71.6562"
     width="33.6898"
     height="40.3439"
     rx="2"
     fill="white"
     stroke="#455B71"
     stroke-width="2"
     id="rect169" />
  <circle
     cx="274.169"
     cy="97.1822"
     r="1.01228"
     fill="white"
     stroke="#455B71"
     id="circle169" />
  <circle
     cx="274.169"
     cy="103.068"
     r="1.01228"
     fill="white"
     stroke="#455B71"
     id="circle170" />
  <path
     d="M276.958 97.1416L297.557 97.1416"
     stroke="#455B71"
     stroke-width="2"
     id="path170" />
  <path
     d="M276.958 103.027L297.557 103.027"
     stroke="#455B71"
     stroke-width="2"
     id="path171" />
  <path
     d="M278.543 86.5152H296.522C297.44 86.5152 297.873 85.381 297.188 84.7693L291.188 79.4123C291.005 79.2486 290.768 79.1582 290.522 79.1582H278.543"
     stroke="#455B71"
     stroke-width="2"
     id="path172" />
  <rect
     x="280.382"
     y="82.5519"
     width="2.20711"
     height="0.735705"
     fill="white"
     stroke="#455B71"
     stroke-width="0.735705"
     id="rect172" />
  <rect
     x="284.796"
     y="82.5519"
     width="2.20711"
     height="0.735705"
     fill="white"
     stroke="#455B71"
     stroke-width="0.735705"
     id="rect173" />
  <path
     d="M272.543 79.1582L275.6 79.1582V86.5152H272.543"
     stroke="#455B71"
     stroke-width="2"
     id="path173" />
  <path
     d="M272.676 367.108C266.743 367.108 261.874 371.659 261.368 377.46C261.32 378.01 261.772 378.459 262.324 378.459H283.027C283.579 378.459 284.032 378.01 283.984 377.46C283.477 371.659 278.608 367.108 272.676 367.108Z"
     fill="white"
     stroke="#455B71"
     stroke-width="2"
     stroke-miterlimit="10"
     id="path174" />
  <path
     d="M257 379H279.162H289.432"
     stroke="#455B71"
     stroke-width="2"
     stroke-miterlimit="10"
     id="path175" />
  <path
     d="M277.54 378.459C277.54 375.772 275.362 373.594 272.675 373.594C269.989 373.594 267.811 375.772 267.811 378.459"
     stroke="#455B71"
     stroke-width="2"
     stroke-miterlimit="10"
     id="path176" />
  <path
     d="M276.783 367.898L284.891 353.854"
     stroke="#455B71"
     stroke-width="2"
     stroke-miterlimit="10"
     id="path177" />
  <rect
     x="291.594"
     y="339"
     width="3.24324"
     height="16.2162"
     rx="1"
     transform="rotate(30 291.594 339)"
     fill="white"
     stroke="#455B71"
     stroke-width="2"
     stroke-miterlimit="10"
     id="rect177" />
  <rect
     x="254"
     y="187"
     width="43"
     height="40"
     fill="white"
     id="rect178" />
  <path
     d="M251 227H301.794M254.81 226.365V187H297.984V226.365M270.048 218.111V213.032L283.381 199.698L287.825 199.063M290.365 212.397V201.603L285.286 194.619H275.127L263.063 206.683V211.127M284.016 218.111V213.032L265.603 194.619"
     stroke="#455B71"
     stroke-width="2"
     stroke-linecap="round"
     id="path178" />
  <circle
     cx="263.699"
     cy="192.714"
     r="2.6746"
     fill="white"
     stroke="#455B71"
     id="circle178" />
  <circle
     cx="263.699"
     cy="213.031"
     r="2.6746"
     fill="white"
     stroke="#455B71"
     id="circle179" />
  <circle
     cx="276.397"
     cy="206.682"
     r="2.6746"
     fill="white"
     stroke="#455B71"
     id="circle180" />
  <circle
     cx="270.048"
     cy="220.65"
     r="2.6746"
     fill="white"
     stroke="#455B71"
     id="circle181" />
  <circle
     cx="284.016"
     cy="220.65"
     r="2.6746"
     fill="white"
     stroke="#455B71"
     id="circle182" />
  <circle
     cx="290.366"
     cy="213.031"
     r="2.6746"
     fill="white"
     stroke="#455B71"
     id="circle183" />
  <circle
     cx="290.366"
     cy="199.063"
     r="2.6746"
     fill="white"
     stroke="#455B71"
     id="circle184" />
  <circle
     cx="270.048"
     cy="199.063"
     r="2.6746"
     fill="white"
     stroke="#455B71"
     id="circle185" />
  <path
     fill-rule="evenodd"
     clip-rule="evenodd"
     d="M506 541.644H545.133V513.036H506V541.644Z"
     fill="white"
     id="path204" />
  <path
     fill-rule="evenodd"
     clip-rule="evenodd"
     d="M506 541.644H545.133V513.036H506V541.644Z"
     stroke="#455B71"
     stroke-width="2"
     stroke-linecap="round"
     stroke-linejoin="round"
     id="path205" />
  <path
     fill-rule="evenodd"
     clip-rule="evenodd"
     d="M512.182 517.309C512.182 517.912 511.693 518.4 511.09 518.4C510.488 518.4 510 517.912 510 517.309C510 516.706 510.488 516.218 511.09 516.218C511.693 516.218 512.182 516.706 512.182 517.309Z"
     fill="#455B71"
     id="path206" />
  <path
     fill-rule="evenodd"
     clip-rule="evenodd"
     d="M515.451 517.309C515.451 517.912 514.963 518.4 514.36 518.4C513.758 518.4 513.27 517.912 513.27 517.309C513.27 516.706 513.758 516.218 514.36 516.218C514.963 516.218 515.451 516.706 515.451 517.309Z"
     fill="#455B71"
     id="path207" />
  <path
     fill-rule="evenodd"
     clip-rule="evenodd"
     d="M518.768 517.309C518.768 517.912 518.28 518.4 517.677 518.4C517.075 518.4 516.587 517.912 516.587 517.309C516.587 516.706 517.075 516.218 517.677 516.218C518.28 516.218 518.768 516.706 518.768 517.309Z"
     fill="#455B71"
     id="path208" />
  <path
     fill-rule="evenodd"
     clip-rule="evenodd"
     d="M531.995 531.319C531.995 534.65 529.294 537.352 525.962 537.352C522.631 537.352 519.931 534.65 519.931 531.319C519.931 527.988 522.631 525.287 525.962 525.287C529.294 525.287 531.995 527.988 531.995 531.319Z"
     fill="#65DDE0"
     id="path209" />
  <path
     d="M522.576 530.319L525.915 533.659L532.596 526.979"
     stroke="white"
     stroke-width="2"
     stroke-linecap="round"
     stroke-linejoin="round"
     id="path210" />
  <path
     fill-rule="evenodd"
     clip-rule="evenodd"
     d="M558.519 504.187C560.613 501.062 564.178 499 568.227 499C574.676 499 579.906 504.229 579.906 510.679V521.386C579.906 521.814 579.559 522.161 579.131 522.161C578.703 522.161 578.356 521.814 578.356 521.386V510.679C578.356 505.085 573.82 500.55 568.227 500.55C564.518 500.55 561.275 502.545 559.509 505.522L559.167 506.1L558.546 505.843C557.897 505.574 557.187 505.424 556.44 505.424C553.404 505.424 550.943 507.886 550.943 510.922V521.285C550.943 521.713 550.596 522.06 550.168 522.06C549.74 522.06 549.393 521.713 549.393 521.285V510.922C549.393 507.03 552.548 503.874 556.44 503.874C557.164 503.874 557.862 503.985 558.519 504.187Z"
     fill="#455B71"
     id="path211" />
  <path
     fill-rule="evenodd"
     clip-rule="evenodd"
     d="M569.309 539.593C569.737 539.593 570.084 539.94 570.084 540.368V541.467C570.084 544.469 567.651 546.902 564.649 546.902C561.646 546.902 559.214 544.469 559.214 541.467V540.369C559.214 539.941 559.561 539.594 559.989 539.594C560.417 539.594 560.764 539.941 560.764 540.369V541.467C560.764 543.613 562.502 545.352 564.649 545.352C566.795 545.352 568.534 543.613 568.534 541.467V540.368C568.534 539.94 568.881 539.593 569.309 539.593Z"
     fill="#455B71"
     id="path212" />
  <path
     fill-rule="evenodd"
     clip-rule="evenodd"
     d="M560.734 540.576C560.852 540.987 560.614 541.416 560.202 541.534C553.71 543.396 548.896 549.228 548.564 556.236H580.734C580.402 549.228 575.589 543.396 569.095 541.534C568.684 541.416 568.446 540.987 568.564 540.576C568.682 540.164 569.111 539.926 569.523 540.044C576.9 542.16 582.302 548.951 582.302 557.011V557.786H546.996V557.011C546.996 548.951 552.398 542.16 559.775 540.044C560.186 539.926 560.616 540.164 560.734 540.576Z"
     fill="#455B71"
     id="path213" />
  <path
     fill-rule="evenodd"
     clip-rule="evenodd"
     d="M547.428 524.874C547.428 522.704 549.186 520.948 551.355 520.948H552.907V528.8H551.355C549.186 528.8 547.428 527.042 547.428 524.874ZM551.355 522.498C550.041 522.498 548.978 523.561 548.978 524.874C548.978 526.186 550.042 527.25 551.355 527.25H551.357V522.498H551.355Z"
     fill="#455B71"
     id="path214" />
  <path
     fill-rule="evenodd"
     clip-rule="evenodd"
     d="M576.391 520.948H577.943C580.111 520.948 581.87 522.704 581.87 524.874C581.87 527.042 580.112 528.8 577.943 528.8H576.391V520.948ZM577.941 522.498V527.25H577.943C579.256 527.25 580.32 526.186 580.32 524.874C580.32 523.561 579.256 522.498 577.943 522.498H577.941Z"
     fill="#455B71"
     id="path215" />
  <path
     fill-rule="evenodd"
     clip-rule="evenodd"
     d="M560.099 524.057C560.099 524.79 559.506 525.383 558.774 525.383C558.042 525.383 557.448 524.79 557.448 524.057C557.448 523.325 558.042 522.732 558.774 522.732C559.506 522.732 560.099 523.325 560.099 524.057Z"
     fill="#455B71"
     id="path216" />
  <path
     fill-rule="evenodd"
     clip-rule="evenodd"
     d="M571.851 524.057C571.851 524.79 571.258 525.383 570.526 525.383C569.794 525.383 569.2 524.79 569.2 524.057C569.2 523.325 569.794 522.732 570.526 522.732C571.258 522.732 571.851 523.325 571.851 524.057Z"
     fill="#455B71"
     id="path217" />
  <path
     fill-rule="evenodd"
     clip-rule="evenodd"
     d="M563.227 523.097C563.655 523.097 564.002 523.444 564.002 523.872V527.479C564.002 527.838 564.292 528.127 564.649 528.127C565.007 528.127 565.296 527.838 565.296 527.479V523.872C565.296 523.444 565.643 523.097 566.071 523.097C566.499 523.097 566.846 523.444 566.846 523.872V527.479C566.846 528.694 565.863 529.677 564.649 529.677C563.435 529.677 562.452 528.693 562.452 527.479V523.872C562.452 523.444 562.799 523.097 563.227 523.097Z"
     fill="#455B71"
     id="path218" />
  <path
     fill-rule="evenodd"
     clip-rule="evenodd"
     d="M559.981 530.544H569.315V532.885C569.315 535.463 567.225 537.552 564.648 537.552C562.071 537.552 559.981 535.463 559.981 532.885V530.544ZM561.531 532.094V532.885C561.531 534.607 562.927 536.002 564.648 536.002C566.369 536.002 567.765 534.607 567.765 532.885V532.094H561.531Z"
     fill="#455B71"
     id="path219" />
  <path
     fill-rule="evenodd"
     clip-rule="evenodd"
     d="M561.409 519.976C561.409 519.976 561.409 519.976 560.985 520.613L561.409 519.976C561.765 520.213 561.862 520.694 561.625 521.051C561.388 521.406 560.909 521.503 560.553 521.268C560.553 521.268 560.553 521.268 560.553 521.268L560.542 521.261C560.531 521.255 560.512 521.243 560.486 521.228C560.434 521.197 560.352 521.152 560.247 521.1C560.034 520.996 559.733 520.871 559.379 520.783C558.671 520.608 557.812 520.596 556.996 521.137C556.639 521.374 556.158 521.277 555.921 520.921C555.685 520.564 555.782 520.083 556.138 519.846C557.433 518.986 558.781 519.039 559.751 519.279C560.237 519.399 560.643 519.568 560.928 519.708C561.071 519.778 561.186 519.841 561.267 519.889C561.308 519.913 561.341 519.933 561.365 519.948L561.394 519.966L561.403 519.972L561.406 519.975L561.408 519.975L561.409 519.976Z"
     fill="#455B71"
     id="path220" />
  <path
     fill-rule="evenodd"
     clip-rule="evenodd"
     d="M568.319 520.621L567.889 519.976C567.533 520.213 567.436 520.694 567.673 521.051C567.91 521.406 568.389 521.503 568.745 521.268C568.745 521.268 568.745 521.268 568.745 521.268C568.745 521.268 568.746 521.268 568.746 521.268L568.756 521.261C568.767 521.255 568.786 521.243 568.812 521.228C568.865 521.197 568.946 521.152 569.052 521.1C569.264 520.996 569.565 520.871 569.919 520.783C570.628 520.608 571.487 520.596 572.303 521.137C572.659 521.374 573.14 521.277 573.377 520.921C573.614 520.564 573.517 520.083 573.16 519.846C571.865 518.986 570.517 519.039 569.547 519.279C569.062 519.399 568.656 519.568 568.371 519.708C568.227 519.778 568.112 519.841 568.031 519.889C567.99 519.913 567.958 519.933 567.934 519.948L567.905 519.966L567.895 519.972L567.892 519.975L567.89 519.975L567.89 519.976C567.89 519.976 567.889 519.976 568.319 520.621Z"
     fill="#455B71"
     id="path221" />
  <path
     fill-rule="evenodd"
     clip-rule="evenodd"
     d="M557.483 541.114C557.911 541.114 558.258 541.461 558.258 541.889V548.631L564.308 545.675C564.693 545.487 565.157 545.647 565.345 546.031C565.533 546.416 565.373 546.88 564.989 547.068L557.823 550.569C557.583 550.686 557.299 550.672 557.073 550.53C556.846 550.388 556.708 550.14 556.708 549.873V541.889C556.708 541.461 557.055 541.114 557.483 541.114Z"
     fill="#455B71"
     id="path222" />
  <path
     fill-rule="evenodd"
     clip-rule="evenodd"
     d="M571.814 541.114C572.242 541.114 572.589 541.461 572.589 541.889V549.873C572.589 550.14 572.452 550.388 572.225 550.53C571.998 550.672 571.714 550.686 571.474 550.569L564.308 547.068C563.924 546.88 563.764 546.416 563.952 546.031C564.14 545.647 564.604 545.487 564.989 545.675L571.039 548.631V541.889C571.039 541.461 571.386 541.114 571.814 541.114Z"
     fill="#455B71"
     id="path223" />
  <path
     fill-rule="evenodd"
     clip-rule="evenodd"
     d="M559.579 507.739L559.805 508.559C561.059 513.107 565.225 516.448 570.17 516.448H577.716L577.812 517.111C577.89 517.646 577.942 518.202 577.942 518.777V529.921C577.942 536.355 572.725 541.571 566.291 541.571H563.007C556.572 541.571 551.355 536.355 551.355 529.921V518.777C551.355 513.861 554.447 509.68 558.784 508.04L559.579 507.739ZM558.576 509.812C555.223 511.409 552.905 514.821 552.905 518.777V529.921C552.905 535.499 557.428 540.021 563.007 540.021H566.291C571.869 540.021 576.392 535.499 576.392 529.921V518.777C576.392 518.517 576.379 518.257 576.357 517.998H570.17C564.819 517.998 560.269 514.581 558.576 509.812Z"
     fill="#455B71"
     id="path224" />
  <path
     d="M115 473V391.909C115 391.908 115 391.908 115.001 391.908V391.908C115.001 391.908 115.001 391.908 115.001 391.907C115 391.749 115 391.59 115 391.431C115 353.251 140.216 320.924 175 310"
     stroke="#17324D"
     stroke-width="2"
     stroke-miterlimit="10"
     stroke-dasharray="6 4"
     id="path225" />
  <path
     d="M425 473V391.909C425 391.908 425 391.908 424.999 391.908V391.908C424.999 391.908 424.999 391.908 424.999 391.907C425 391.749 425 391.59 425 391.431C425 353.251 399.784 320.924 365 310"
     stroke="#17324D"
     stroke-width="2"
     stroke-miterlimit="10"
     stroke-dasharray="6 4"
     id="path226" />
  <path
     d="M268.333 392C268.333 393.473 269.527 394.667 271 394.667C272.473 394.667 273.667 393.473 273.667 392C273.667 390.527 272.473 389.333 271 389.333C269.527 389.333 268.333 390.527 268.333 392ZM268.333 490C268.333 491.473 269.527 492.667 271 492.667C272.473 492.667 273.667 491.473 273.667 490C273.667 488.527 272.473 487.333 271 487.333C269.527 487.333 268.333 488.527 268.333 490ZM270.5 392L270.5 490L271.5 490L271.5 392L270.5 392Z"
     fill="#17324D"
     id="path227" />
  <text
     xml:space="preserve"
     style="font-size:13.3333px;font-family:'Times New Roman';-inkscape-font-specification:'Times New Roman, ';fill:#000000;font-weight:normal;font-style:normal;font-stretch:normal;font-variant:normal"
     x="251.39432"
     y="41.716084"
     id="text227"><tspan
       sodipodi:role="line"
       id="tspan227"
       x="251.39432"
       y="41.716084">Schema</tspan></text>
  <text
     xml:space="preserve"
     style="font-size:13.3333px;font-family:'Times New Roman';-inkscape-font-specification:'Times New Roman, ';fill:#000000;font-weight:normal;font-style:normal;font-stretch:normal;font-variant:normal"
     x="232.73187"
     y="167.96214"
     id="text228"><tspan
       sodipodi:role="line"
       id="tspan228"
       x="232.73187"
       y="167.96214">API catalogue</tspan></text>
  <text
     xml:space="preserve"
     style="font-size:13.3333px;font-family:'Times New Roman';-inkscape-font-specification:'Times New Roman, ';fill:#000000;font-weight:normal;font-style:normal;font-stretch:normal;font-variant:normal"
     x="254.6877"
     y="306.28391"
     id="text229"><tspan
       sodipodi:role="line"
       id="tspan229"
       x="254.6877"
       y="306.28391">PDND</tspan></text>
  <text
     xml:space="preserve"
     style="font-style:normal;font-variant:normal;font-weight:normal;font-stretch:normal;font-size:13.3333px;font-family:'Times New Roman';-inkscape-font-specification:'Times New Roman, ';fill:#000000"
     x="74.649872"
     y="566.46057"
     id="text230"><tspan
       sodipodi:role="line"
       id="tspan230"
       x="74.649872"
       y="566.46057">Provider entity</tspan></text>
  <text
     xml:space="preserve"
     style="font-size:13.3333px;font-family:'Times New Roman';-inkscape-font-specification:'Times New Roman, ';text-align:center;text-anchor:middle;fill:#000000;font-weight:normal;font-style:normal;font-stretch:normal;font-variant:normal"
     x="270.53717"
     y="567.55835"
     id="text231"><tspan
       sodipodi:role="line"
       id="tspan231"
       x="270.53717"
       y="567.55835">Request /</tspan><tspan
       sodipodi:role="line"
       x="270.53717"
       y="584.25769"
       id="tspan232">Response data</tspan></text>
  <text
     xml:space="preserve"
     style="font-size:13.3333px;font-family:'Times New Roman';-inkscape-font-specification:'Times New Roman, ';text-align:center;text-anchor:middle;fill:#000000;font-weight:normal;font-style:normal;font-stretch:normal;font-variant:normal"
     x="422.64981"
     y="570.85175"
     id="text233"><tspan
       sodipodi:role="line"
       id="tspan233"
       x="422.64981"
       y="570.85175">User entity</tspan></text>
  <text
     xml:space="preserve"
     style="font-style:normal;font-variant:normal;font-weight:normal;font-stretch:normal;font-size:13.3333px;font-family:'Times New Roman';-inkscape-font-specification:'Times New Roman, ';text-align:center;text-anchor:middle;fill:#000000"
     x="546.00403"
     y="573.05249"
     id="text233-9"><tspan
       sodipodi:role="line"
       id="tspan233-8"
       x="546.00403"
       y="573.05249">Service to users</tspan></text>
</svg>
