<svg width="100" height="100" viewBox="0 0 100 100" fill="none" xmlns="http://www.w3.org/2000/svg">
<circle cx="50" cy="50" r="49.5" fill="white" stroke="#004D99"/>
<path d="M43.8342 43.6525C43.8342 44.2399 43.8118 44.8273 43.8398 45.409C43.8734 46.0523 43.5713 46.4775 43.0455 46.7851C42.3351 47.1991 41.5575 47.4452 40.7575 47.5795C39.622 47.7753 38.4808 47.9431 37.3341 48.0661C36.3607 48.1724 35.3818 48.2228 34.4028 48.2452C33.2337 48.2731 32.059 48.2899 30.8954 48.2396C28.8984 48.15 26.9014 47.999 24.9436 47.5459C24.1996 47.3725 23.4667 47.1655 22.8122 46.7572C22.6612 46.6621 22.5158 46.5446 22.3871 46.4159C22.1745 46.209 22.0739 45.9516 22.0739 45.644C22.0795 44.5028 22.0795 43.3617 22.0739 42.2149C22.0739 41.9912 22.0403 41.7674 22.0068 41.5436C21.9732 41.3255 22.0683 41.1744 22.2137 41.0234C22.8402 40.3577 23.6625 40.078 24.5072 39.8487C25.626 39.5466 26.7671 39.39 27.9139 39.2669C30.0116 39.0376 32.115 38.9648 34.2239 39.0152C35.1525 39.0375 36.081 39.0991 37.004 39.183C37.9942 39.2725 38.9787 39.39 39.9576 39.541C40.9254 39.6864 41.882 39.9102 42.7714 40.3465C42.9392 40.4304 43.1014 40.5311 43.2581 40.6374C43.672 40.9227 43.8566 41.3143 43.8398 41.8177C43.823 42.4275 43.8398 43.0316 43.8398 43.6414L43.8342 43.6525ZM23.0528 42.6904C23.0528 42.8023 23.0528 42.8862 23.0528 42.9701C23.0528 43.7812 23.064 44.5979 23.0472 45.409C23.0416 45.7111 23.1534 45.9069 23.4164 46.0076C23.9086 46.1922 24.3953 46.3936 24.9044 46.5222C26.8902 47.0201 28.9208 47.1879 30.957 47.2662C32.0479 47.3054 33.1386 47.3054 34.2239 47.2662C35.4154 47.2271 36.6013 47.1655 37.7872 47.0424C38.8053 46.9362 39.8234 46.7628 40.8303 46.5502C41.412 46.4271 41.9658 46.181 42.5252 45.974C42.7546 45.8901 42.8553 45.7055 42.8497 45.437C42.8329 44.5979 42.8497 43.7532 42.8441 42.9142C42.8441 42.8191 42.8217 42.7239 42.8105 42.6121C42.4805 42.7407 42.1896 42.8862 41.8763 42.9645C40.9533 43.1826 40.0304 43.412 39.1018 43.5686C38.2962 43.7085 37.4795 43.77 36.6684 43.8371C35.9748 43.8931 35.2811 43.9322 34.5875 43.9378C33.2002 43.949 31.8073 43.977 30.42 43.9155C29.1949 43.8595 27.9755 43.7197 26.7616 43.5742C25.5645 43.4344 24.3842 43.205 23.2598 42.7295C23.2094 42.7072 23.1534 42.7016 23.0583 42.6792L23.0528 42.6904ZM42.7322 41.5157V41.415C42.4749 41.2919 42.2288 41.1521 41.9602 41.0514C40.8359 40.643 39.6612 40.436 38.4752 40.3074C37.1327 40.1619 35.7846 40.0501 34.4364 40.0053C32.5737 39.9382 30.7053 39.9549 28.8481 40.1675C27.6902 40.2962 26.5322 40.4584 25.3854 40.6598C24.7813 40.7661 24.194 40.9954 23.6066 41.1856C23.422 41.2472 23.2654 41.3814 23.0975 41.4877C23.0975 41.5212 23.0975 41.5548 23.0975 41.5884C23.366 41.7114 23.6233 41.8569 23.903 41.952C25.2959 42.4387 26.7504 42.6456 28.216 42.7855C29.3348 42.8918 30.4592 42.9701 31.5836 42.998C32.8478 43.026 34.112 42.9869 35.3818 42.9589C35.8349 42.9477 36.288 42.9197 36.7355 42.8694C37.7592 42.7519 38.7773 42.6344 39.7954 42.4722C40.6233 42.3436 41.4456 42.1534 42.2175 41.8121C42.3966 41.7338 42.5644 41.6108 42.7378 41.5101L42.7322 41.5157Z" fill="#004D99"/>
<path d="M22.0794 57.0892C22.0794 56.3508 22.0794 55.6124 22.0794 54.8684C22.0794 54.5496 22.2305 54.3426 22.4878 54.3034C22.7619 54.2643 22.9353 54.4153 23.064 54.723C23.1255 54.8628 23.2654 55.0083 23.4052 55.0642C23.9255 55.2712 24.4513 55.5005 24.9995 55.6068C26.1127 55.825 27.2371 56.004 28.3671 56.1438C29.2621 56.2501 30.1739 56.2893 31.0745 56.3228C32.0031 56.3564 32.9317 56.39 33.8603 56.362C35.0797 56.3229 36.2992 56.2389 37.5131 56.1494C38.8277 56.0487 40.1254 55.8474 41.3897 55.4838C41.7253 55.3887 42.0554 55.26 42.3742 55.1257C42.6147 55.025 42.8106 54.8852 42.8833 54.5999C42.9336 54.3985 43.1182 54.2923 43.3475 54.3034C43.5601 54.3146 43.7056 54.4265 43.7783 54.6167C43.8174 54.7174 43.8231 54.8293 43.8231 54.9412C43.8231 56.3564 43.8231 57.7661 43.8231 59.1813C43.8231 59.6177 43.6608 59.9589 43.3196 60.2218C42.749 60.6637 42.0833 60.8819 41.4065 61.0665C40.2821 61.3686 39.1353 61.5532 37.9774 61.6483C36.881 61.7378 35.779 61.8273 34.677 61.872C33.5973 61.9168 32.5121 61.9447 31.4269 61.9C30.1068 61.844 28.7865 61.7322 27.472 61.6035C26.1798 61.4749 24.8932 61.2623 23.6681 60.8148C23.1983 60.647 22.7451 60.44 22.3871 60.0764C22.1745 59.8582 22.0571 59.6065 22.0627 59.2876C22.0739 58.5548 22.0627 57.822 22.0627 57.0892H22.0794ZM23.0752 56.0208C23.0696 56.0935 23.0584 56.1326 23.0584 56.1774C23.0584 57.1899 23.0584 58.1968 23.064 59.2093C23.064 59.31 23.1311 59.4387 23.2094 59.5058C23.3269 59.6121 23.4723 59.696 23.6234 59.7463C24.1436 59.9197 24.6583 60.1099 25.1897 60.233C27.293 60.7197 29.4355 60.8707 31.5836 60.9322C33.4072 60.9826 35.2252 60.9378 37.0432 60.7756C38.2794 60.6637 39.5157 60.5239 40.7184 60.233C41.317 60.0876 41.8988 59.8638 42.4805 59.6512C42.7434 59.5561 42.8609 59.3604 42.8553 59.0527C42.8385 58.1465 42.8497 57.2347 42.8497 56.3284C42.8497 56.2333 42.8329 56.1326 42.8218 56.004C42.6707 56.0655 42.5588 56.1159 42.4469 56.1606C42.3295 56.2054 42.2176 56.2557 42.1001 56.2949C40.5114 56.8319 38.8556 57.0221 37.1942 57.1731C36.2824 57.2514 35.3706 57.3298 34.4588 57.3409C33.1218 57.3577 31.7793 57.3577 30.4424 57.2962C29.2285 57.2347 28.0146 57.1004 26.8007 56.955C25.5757 56.8095 24.3618 56.5746 23.2206 56.0655C23.1814 56.0487 23.1367 56.0431 23.0696 56.0264L23.0752 56.0208Z" fill="#004D99"/>
<path d="M22.0795 50.2363C22.0795 49.5035 22.0795 48.7707 22.0795 48.0379C22.0795 47.6966 22.225 47.4953 22.4879 47.4561C22.762 47.417 22.9297 47.5736 23.064 47.8757C23.1311 48.0267 23.2934 48.1721 23.4444 48.2337C23.9367 48.4294 24.4345 48.6476 24.9547 48.7483C26.0791 48.9665 27.2091 49.1511 28.3447 49.2909C30.1515 49.5147 31.9752 49.5594 33.7988 49.5091C35.1861 49.4699 36.5677 49.3636 37.955 49.2517C39.2249 49.1455 40.4723 48.9273 41.6918 48.5469C41.9491 48.4686 42.1952 48.3567 42.4414 48.2448C42.6539 48.1498 42.8218 48.0211 42.8833 47.7694C42.9337 47.5736 43.0959 47.4617 43.3141 47.4561C43.5378 47.4449 43.7 47.5568 43.7783 47.7526C43.8231 47.8589 43.8343 47.9819 43.8343 48.0938C43.8343 49.4643 43.8175 50.8348 43.8455 52.1998C43.8566 52.8319 43.5825 53.257 43.0623 53.5647C42.4302 53.9395 41.7421 54.1688 41.0317 54.3087C40.0248 54.4989 39.0067 54.6723 37.9886 54.7954C35.8517 55.0583 33.7037 55.1086 31.55 55.0526C30.4872 55.0247 29.4187 54.924 28.3559 54.8457C27.0581 54.745 25.7715 54.5604 24.5129 54.2248C23.8472 54.0513 23.1927 53.8388 22.6277 53.4248C22.2585 53.1507 22.0515 52.8095 22.0683 52.3228C22.0907 51.6292 22.0739 50.9299 22.0739 50.2363H22.0795ZM23.0696 49.1679C23.0696 49.2741 23.0584 49.3468 23.0584 49.4196C23.0584 50.3761 23.0584 51.3383 23.0584 52.2948C23.0584 52.4962 23.1256 52.6417 23.299 52.72C23.6458 52.8766 23.987 53.0445 24.3506 53.1563C25.5254 53.5143 26.7392 53.7213 27.9587 53.822C29.318 53.9339 30.683 54.0402 32.0479 54.0793C33.8827 54.1353 35.7175 54.0905 37.5467 53.8667C38.6151 53.7325 39.6892 53.5814 40.7465 53.3689C41.3338 53.2514 41.8988 53.0109 42.4694 52.8095C42.7547 52.7088 42.8721 52.5018 42.8665 52.183C42.8441 51.2823 42.8609 50.3817 42.8609 49.4811C42.8609 49.386 42.8442 49.2853 42.8274 49.1567C42.7267 49.1958 42.6595 49.2238 42.5924 49.2461C42.24 49.3692 41.8932 49.5147 41.5352 49.6154C39.7731 50.1076 37.9606 50.2754 36.1482 50.3985C35.1637 50.4656 34.1736 50.4936 33.1891 50.4936C32.0255 50.4936 30.8619 50.4712 29.704 50.3929C28.6355 50.3258 27.5671 50.1915 26.5043 50.0517C25.3855 49.9062 24.2891 49.6713 23.2486 49.2182C23.2039 49.2014 23.1535 49.1902 23.0752 49.1679H23.0696Z" fill="#004D99"/>
<path fill-rule="evenodd" clip-rule="evenodd" d="M56.1264 29.203C56.753 29.203 57.3574 29.298 57.9262 29.4747C59.728 26.7774 62.8023 25 66.292 25C71.1415 25 75.1884 28.4326 76.1362 33.0015H77.3896C77.5936 33.0015 77.7857 33.0972 77.9085 33.2601C78.0313 33.4229 78.0705 33.634 78.0144 33.8301C77.7115 34.889 77.2097 35.8396 76.5614 36.6661V44.1249C77.5735 44.7059 78.2554 45.7974 78.2554 47.0477C78.2554 48.9083 76.7469 50.4155 74.8876 50.4155H74.6513V52.2674C74.6513 56.0632 72.0218 59.2447 68.4849 60.0897C74.2797 62.2354 78.4121 67.8076 78.4121 74.3501V75H48V74.3501C48 67.8076 52.1324 62.2355 57.9271 60.0897C54.3902 59.2448 51.7605 56.0632 51.7605 52.2674V50.3521H51.7197C49.8604 50.3521 48.3519 48.8449 48.3519 46.9842C48.3519 45.7248 49.0439 44.6264 50.0682 44.0487C50.0674 44.0349 50.0669 44.021 50.0669 44.007V35.2625C50.0669 31.916 52.7799 29.203 56.1264 29.203ZM75.2616 43.7005V38.0046C74.9532 38.2629 74.6279 38.5015 74.2885 38.7197C74.5242 39.4668 74.6513 40.261 74.6513 41.0844V43.6799H74.8876C75.014 43.6799 75.1388 43.6869 75.2616 43.7005ZM51.3667 43.6347C51.4827 43.6226 51.6005 43.6164 51.7197 43.6164H51.7605V41.0844C51.7605 36.7573 55.2689 33.2478 59.5971 33.2478H59.8357L59.8537 33.2481L60.0283 33.2529C60.2828 33.26 60.5097 33.415 60.6089 33.6494C61.9502 36.8211 65.0896 39.0435 68.747 39.0435C72.0285 39.0435 75.2121 37.2094 76.4686 34.3012H75.5922C75.2704 34.3012 74.9971 34.0657 74.9495 33.7474C74.3193 29.5322 70.6825 26.2998 66.292 26.2998C63.1631 26.2998 60.4168 27.94 58.8686 30.4107C58.857 30.4661 58.8379 30.5208 58.811 30.5735C58.656 30.8768 58.293 31.009 57.9792 30.8763C57.4109 30.636 56.7858 30.5028 56.1264 30.5028C53.4978 30.5028 51.3667 32.6339 51.3667 35.2625V43.6347ZM51.7605 44.9162H51.7197C50.5781 44.9162 49.6517 45.8426 49.6517 46.9842C49.6517 48.1267 50.5779 49.0523 51.7197 49.0523H51.7605V44.9162ZM59.9244 60.3096V60.9839C59.9244 62.7965 61.3938 64.2659 63.2063 64.2659C65.0189 64.2659 66.4883 62.7965 66.4883 60.9839V60.3096H59.9244ZM74.6513 49.1157H74.8876C76.0294 49.1157 76.9556 48.1902 76.9556 47.0477C76.9556 45.9061 76.0292 44.9797 74.8876 44.9797H74.6513V49.1157ZM68.747 40.3433C70.2533 40.3433 71.7624 40.0014 73.1231 39.3632C73.2719 39.9114 73.3515 40.488 73.3515 41.0844V43.6164H72.1235C71.3378 42.3115 69.9074 41.4387 68.2733 41.4387C66.6205 41.4387 65.1768 42.3315 64.3973 43.661C64.3239 43.6322 64.2441 43.6164 64.1605 43.6164H62.2525C62.1688 43.6164 62.0888 43.6323 62.0153 43.6611C61.2355 42.3315 59.7913 41.4387 58.1386 41.4387C56.5043 41.4387 55.0745 42.3116 54.2891 43.6164H53.0603V41.0844C53.0603 37.4782 55.9816 34.5528 59.5874 34.5476C61.2117 37.9735 64.7019 40.3433 68.747 40.3433ZM62.5148 44.9162H63.898C63.8418 45.1597 63.8055 45.4108 63.7907 45.6676C63.7856 45.7006 63.7829 45.7343 63.7829 45.7687V48.8804C63.7829 49.1992 63.5242 49.4576 63.2067 49.4576C62.888 49.4576 62.6296 49.1989 62.6296 48.8804V45.9519L62.6296 45.9298L62.6296 45.9076V45.7687C62.6296 45.7355 62.6271 45.703 62.6223 45.6712C62.6077 45.4131 62.5712 45.1608 62.5148 44.9162ZM72.6495 44.9162C72.7246 45.2419 72.7643 45.5812 72.7643 45.9298C72.7643 48.41 70.7536 50.4208 68.2733 50.4208C67.0199 50.4208 65.8867 49.9073 65.0723 49.0793C64.9729 50.0214 64.1761 50.7573 63.2067 50.7573C62.2367 50.7573 61.4395 50.0216 61.3402 49.0792C60.5255 49.9073 59.392 50.4208 58.1386 50.4208C55.6581 50.4208 53.6485 48.4098 53.6485 45.9298C53.6485 45.5812 53.6882 45.2419 53.7633 44.9162H53.0603V52.2674C53.0603 55.9912 56.0789 59.0098 59.8027 59.0098H66.6091C70.3329 59.0098 73.3515 55.9912 73.3515 52.2674V44.9162H72.6495ZM63.2063 65.5317C63.9483 65.5317 64.6487 65.3541 65.2674 65.0389L66.3496 65.8653L65.1237 69.1346H61.8796L60.3253 66.026L61.3902 65.1546C61.9465 65.3972 62.5607 65.5317 63.2063 65.5317ZM59.5556 66.6557L55.2749 70.158V62.9295C51.8298 65.3251 49.5201 69.2377 49.3147 73.7002H58.304L58.2872 73.6871L61.1993 69.943L59.5556 66.6557ZM67.7242 73.7002H59.5059L62.3025 70.1046H65.2073L67.7242 73.7002ZM68.9083 73.7002H77.0974C76.8949 69.2996 74.6459 65.4336 71.2798 63.03V69.6302L67.155 66.4803L66.0036 69.5507L68.9083 73.7002ZM70.3098 67.669L66.124 64.4726C67.0673 63.6828 67.6856 62.5175 67.7488 61.2066C68.6478 61.5173 69.505 61.9175 70.3098 62.3965V67.669ZM60.4939 64.6347C59.4357 63.8471 58.7315 62.6102 58.6639 61.2065C57.8176 61.4989 57.0083 61.8706 56.2449 62.3128V68.1111L60.4939 64.6347ZM58.1387 47.0735C58.7702 47.0735 59.2824 46.5614 59.2824 45.9299C59.2824 45.2985 58.7702 44.7863 58.1387 44.7863C57.5073 44.7863 56.9961 45.2985 56.9961 45.9299C56.9961 46.5614 57.5073 47.0735 58.1387 47.0735ZM69.4171 45.9299C69.4171 46.5614 68.9049 47.0735 68.2734 47.0735C67.642 47.0735 67.1308 46.5614 67.1308 45.9299C67.1308 45.2985 67.642 44.7863 68.2734 44.7863C68.9049 44.7863 69.4171 45.2985 69.4171 45.9299ZM58.1386 49.121C59.8948 49.121 61.3198 47.7023 61.3298 45.9484V45.9111C61.3198 44.1572 59.8948 42.7385 58.1386 42.7385C56.3764 42.7385 54.9483 44.1671 54.9483 45.9298C54.9483 47.6924 56.3764 49.121 58.1386 49.121ZM59.2004 51.5417H67.2125V53.5428C67.2125 55.7553 65.419 57.5488 63.2064 57.5488C60.9938 57.5488 59.2004 55.7553 59.2004 53.5428V51.5417ZM60.5002 52.8414V53.5428C60.5002 55.0375 61.7117 56.249 63.2064 56.249C64.7012 56.249 65.9127 55.0375 65.9127 53.5428V52.8414H60.5002ZM66.615 31.674C66.722 31.9196 66.6097 32.2054 66.3641 32.3124C65.9038 32.513 65.4732 32.7862 65.1933 33.0941C64.9188 33.3962 64.8291 33.68 64.9001 33.9615C64.9788 34.2737 65.2871 34.724 66.1452 35.2596C66.9931 35.7888 68.3126 36.36 70.2795 36.9421C70.5363 37.0182 70.6829 37.288 70.6069 37.5448C70.5309 37.8017 70.261 37.9483 70.0042 37.8723C67.9967 37.2781 66.5841 36.677 65.6315 36.0824C64.6891 35.4942 64.1286 34.8691 63.9595 34.1987C63.7827 33.4977 64.0663 32.8919 64.4755 32.4417C64.8794 31.9974 65.443 31.6557 65.9767 31.4231C66.2222 31.3161 66.508 31.4285 66.615 31.674ZM65.083 45.9298C65.083 44.1671 66.511 42.7385 68.2733 42.7385C70.0357 42.7385 71.4646 44.1673 71.4646 45.9298C71.4646 47.6922 70.0357 49.121 68.2733 49.121C66.511 49.121 65.083 47.6924 65.083 45.9298Z" fill="#004D99"/>
</svg>
