<?xml version="1.0" encoding="UTF-8"?>
<svg width="844px" height="633px" viewBox="0 0 844 633" version="1.1" xmlns="http://www.w3.org/2000/svg" xmlns:xlink="http://www.w3.org/1999/xlink">
    <!-- Generator: Sketch 50 (54983) - http://www.bohemiancoding.com/sketch -->
    <title>Group</title>
    <desc>Created with Sketch.</desc>
    <defs></defs>
    <g id="Page-1" stroke="none" stroke-width="1" fill="none" fill-rule="evenodd" opacity="0.05">
        <g id="Group" transform="translate(2.000000, 2.000000)" fill="#E6ECF2" stroke="#E6ECF2">
            <g id="Group-9">
                <path d="M273.272242,357.097974 L89.1896133,208.501296 L273.272242,59.9043334 C280.665213,52.511504 284.361557,44.0098142 284.361557,34.3989799 C284.361557,24.7881457 280.665213,16.656076 273.272242,10.002487 C266.618653,3.34889802 258.301773,0.022174498 248.321319,0.022174498 C238.340864,0.022174498 230.023984,3.34889802 223.370253,10.002487 L10.4554771,181.88694 C6.75901983,185.583284 4.1715395,189.8342 2.6929566,194.639546 C1.21437385,199.445034 0.47509361,204.065428 0.47509361,208.501296 C0.47509361,212.937022 1.21437385,217.557416 2.6929566,222.362904 C4.1715395,227.16825 6.75901983,231.419166 10.4554771,235.115652 L223.370253,406.999963 C230.023984,413.653552 238.340864,416.980417 248.321319,416.980417 C258.301773,416.980417 266.618653,413.653552 273.272242,406.999963 C280.665213,400.346374 284.361557,392.029494 284.361557,382.04904 C284.361557,372.068585 280.665213,363.751705 273.272242,357.097974 Z" id="Fill-1" stroke-width="3"></path>
                <path d="M761.77721,397.253681 C759.572516,396.151352 757.321966,395.875752 755.025418,396.426952 C752.728905,396.978116 750.93763,398.35601 749.651591,400.560668 L639.418691,612.758999 C638.132617,614.963667 637.765163,617.306094 638.316362,619.786348 C638.867527,622.266599 640.337275,623.874146 642.725678,624.609036 C645.481501,625.527648 647.869869,625.757297 649.890782,625.297991 C651.91173,624.838685 653.473368,623.598577 654.575697,621.577631 L764.808597,409.1037 C766.094671,407.082787 766.416163,404.924056 765.773143,402.627543 C765.130089,400.330995 763.798123,398.539755 761.77721,397.253681 Z" id="Path" stroke-width="10"></path>
                <path d="M834.371941,506.826064 L781.265558,463.953706 C779.605948,462.294132 777.531507,461.464362 775.042127,461.464362 C772.552748,461.464362 770.478306,462.294132 768.818732,463.953706 C766.974737,465.613281 766.052774,467.641626 766.052774,470.038813 C766.052774,472.435999 766.974737,474.556537 768.818732,476.400497 L814.733625,513.464362 L768.818732,550.528157 C766.974737,552.372152 766.052774,554.49269 766.052774,556.889876 C766.052774,559.287063 766.974737,561.315408 768.818732,562.974983 C770.478306,564.634557 772.552748,565.464362 775.042127,565.464362 C777.531507,565.464362 779.605948,564.634557 781.265558,562.974983 L834.371941,520.10266 C835.293903,519.180662 835.939287,518.120376 836.308093,516.9218 C836.6769,515.723189 836.861285,514.570745 836.861285,513.464362 C836.861285,512.357944 836.6769,511.2055 836.308093,510.006889 C835.939287,508.808313 835.293903,507.748026 834.371941,506.826064 Z" id="Path" stroke-width="10"></path>
            </g>
        </g>
    </g>
</svg>