<?xml version="1.0" encoding="UTF-8"?>
<svg width="18px" height="18px" viewBox="0 0 18 18" version="1.1" xmlns="http://www.w3.org/2000/svg" xmlns:xlink="http://www.w3.org/1999/xlink">
    <!-- Generator: Sketch 50 (54983) - http://www.bohemiancoding.com/sketch -->
    <title>Fill 1</title>
    <desc>Created with Sketch.</desc>
    <defs></defs>
    <g id="Page-1" stroke="none" stroke-width="1" fill="none" fill-rule="evenodd">
        <path d="M12.3579355,15.7757419 L11.0965161,11.7489032 C11.8820645,11.1646452 12.3548387,10.2428387 12.3548387,9.25806452 C12.3548387,7.55070968 10.9654194,6.16129032 9.25806452,6.16129032 C7.55070968,6.16129032 6.16129032,7.55070968 6.16129032,9.25806452 C6.16129032,10.243871 6.63406452,11.1646452 7.4196129,11.7489032 L6.15922581,15.7757419 C3.66941935,14.5989677 2.03225806,12.0451613 2.03225806,9.25806452 C2.03225806,5.27354839 5.27354839,2.03225806 9.25806452,2.03225806 C13.2415484,2.03225806 16.483871,5.27354839 16.483871,9.25806452 C16.483871,12.0451613 14.8467097,14.5989677 12.3579355,15.7757419 Z M9.25806452,1 C4.70477419,1 1,4.70477419 1,9.25806452 C1,12.6552258 3.12851613,15.7489032 6.29754839,16.9566452 C6.43070968,17.0082581 6.57832258,17.0010323 6.70632258,16.9390968 C6.83432258,16.876129 6.93135484,16.7646452 6.97367742,16.6283871 L8.52206452,11.683871 C8.5963871,11.4495484 8.49419355,11.1956129 8.27948387,11.0779355 C7.60954839,10.7073548 7.19354839,10.0105806 7.19354839,9.25806452 C7.19354839,8.11948387 8.11948387,7.19354839 9.25806452,7.19354839 C10.3966452,7.19354839 11.3225806,8.11948387 11.3225806,9.25806452 C11.3225806,10.0105806 10.9065806,10.7073548 10.2356129,11.0769032 C10.0209032,11.1956129 9.92077419,11.4485161 9.99303226,11.6828387 L11.5414194,16.6273548 C11.5847742,16.7636129 11.6818065,16.8750968 11.8098065,16.9380645 C11.8810323,16.972129 11.9574194,16.9896774 12.0348387,16.9896774 C12.0978065,16.9896774 12.1597419,16.9783226 12.2185806,16.9556129 C15.3876129,15.7489032 17.516129,12.6552258 17.516129,9.25806452 C17.516129,4.70477419 13.8113548,1 9.25806452,1 Z" id="Fill-1" stroke="#00264D" stroke-width="0.4" fill="#00264D"></path>
    </g>
</svg>