<?xml version="1.0" encoding="UTF-8"?>
<svg width="19px" height="18px" viewBox="0 0 19 18" version="1.1" xmlns="http://www.w3.org/2000/svg" xmlns:xlink="http://www.w3.org/1999/xlink">
    <!-- Generator: Sketch 50 (54983) - http://www.bohemiancoding.com/sketch -->
    <title>Fill 1</title>
    <desc>Created with Sketch.</desc>
    <defs></defs>
    <g id="Page-1" stroke="none" stroke-width="1" fill="none" fill-rule="evenodd">
        <path d="M17.3345187,12.6675133 C16.8969846,12.6675133 16.5263007,12.5155953 16.22246,12.2117523 C15.9186169,11.9079092 15.7666966,11.5433041 15.7666966,11.1179229 L15.7666966,7.21659811 C15.7666966,6.36583804 15.6026233,5.5637035 15.2744745,4.81017349 C14.9463234,4.05664347 14.5027198,3.3973123 13.9436476,2.83216595 C13.3845754,2.26701727 12.7282847,1.82037553 11.9747547,1.49222439 C11.2090695,1.16407324 10.4008608,1 9.55009844,1 C8.69933837,1 7.89112972,1.16407324 7.1254445,1.49222439 C6.37191448,1.82037553 5.71562386,2.26701727 5.15655162,2.83216595 C4.59747939,3.3973123 4.15387586,4.05664347 3.82572705,4.81017349 C3.4975759,5.5637035 3.33350266,6.36583804 3.33350266,7.21659811 L3.33350266,11.1179229 C3.33350266,11.5433041 3.18158347,11.9079092 2.87774043,12.2117523 C2.57389738,12.5155953 2.20321441,12.6675133 1.76568056,12.6675133 C1.53475994,12.6675133 1.34941846,12.7373971 1.20965063,12.8771645 C1.06988285,13.016932 1,13.2083516 1,13.4514255 C1,13.6823466 1.06988285,13.8676874 1.20965063,14.0074549 C1.34941846,14.1472224 1.53475994,14.2171061 1.76568056,14.2171061 L17.3345187,14.2171061 C17.5654397,14.2171061 17.7507805,14.1472224 17.890548,14.0074549 C18.0303155,13.8676874 18.1001992,13.6823466 18.1001992,13.4514255 C18.1001992,13.2083516 18.0303155,13.016932 17.890548,12.8771645 C17.7507805,12.7373971 17.5654397,12.6675133 17.3345187,12.6675133 Z M4.500254,12.6675133 C4.60963693,12.4365946 4.70078822,12.1874465 4.77371251,11.9200644 C4.84663447,11.6526823 4.88309311,11.3853049 4.88309311,11.1179229 L4.88309311,7.21659811 C4.88309311,6.58460392 5.00462893,5.98300359 5.2477029,5.41178081 C5.49077921,4.84055569 5.82499979,4.34529775 6.250381,3.92599533 C6.6757622,3.50669057 7.17405602,3.1755082 7.74528114,2.93243423 C8.30435338,2.67720504 8.90595137,2.54959278 9.55009844,2.54959278 C10.1942479,2.54959278 10.7958458,2.67720504 11.3549181,2.93243423 C11.9261432,3.1755082 12.424437,3.50669057 12.8498182,3.92599533 C13.2751994,4.34529775 13.60942,4.84055569 13.852494,5.41178081 C14.0955703,5.98300359 14.2171038,6.58460392 14.2171038,7.21659811 L14.2171038,11.1179229 C14.2171038,11.3853049 14.2535647,11.6526823 14.326489,11.9200644 C14.399411,12.1874465 14.4905623,12.4365946 14.5999452,12.6675133 L4.500254,12.6675133 Z M11.2955544,14.7394193 C11.1010943,14.6178811 10.9005601,14.5905372 10.6939471,14.6573827 C10.4873341,14.7242275 10.3232608,14.854878 10.201725,15.0493376 C10.0923398,15.243797 9.93130707,15.3622942 9.71861531,15.404832 C9.50592587,15.4473702 9.30235343,15.4321784 9.10789566,15.3592559 C9.03497136,15.3227947 8.97724284,15.2802573 8.93470542,15.2316425 C8.89216567,15.1830277 8.84659003,15.12226 8.79797617,15.0493376 C8.68859323,14.854878 8.53059643,14.7363811 8.32398344,14.6938432 C8.11737045,14.6513039 7.91683623,14.6664973 7.72237845,14.7394193 C7.52791834,14.8609565 7.40638252,15.0250293 7.35776866,15.2316425 C7.30915246,15.4382557 7.32738179,15.6387893 7.41245896,15.8332487 C7.5218419,16.0277081 7.6403395,16.1887426 7.76795409,16.3163565 C7.89556868,16.4439707 8.05660137,16.5685445 8.25106148,16.6900817 C8.44552159,16.7994652 8.63997703,16.8784632 8.83443715,16.927078 C9.02889726,16.9756929 9.2233527,17 9.41781281,17 C9.8067307,17 10.183491,16.9027717 10.5481032,16.7083122 C10.9127153,16.5138528 11.2104772,16.2221677 11.4413983,15.8332487 C11.6358561,15.6387893 11.7087781,15.4382557 11.6601642,15.2316425 C11.611548,15.0250293 11.4900122,14.8609565 11.2955544,14.7394193 Z" id="Fill-1" stroke="#FFFFFF" stroke-width="0.25" fill="#00264D"></path>
    </g>
</svg>