<?xml version="1.0" encoding="UTF-8"?>
<svg width="89px" height="100px" viewBox="0 0 89 100" version="1.1" xmlns="http://www.w3.org/2000/svg" xmlns:xlink="http://www.w3.org/1999/xlink">
    <!-- Generator: Sketch 50 (54983) - http://www.bohemiancoding.com/sketch -->
    <title>Group 18</title>
    <desc>Created with Sketch.</desc>
    <defs></defs>
    <g id="–-Pagine-descrittive" stroke="none" stroke-width="1" fill="none" fill-rule="evenodd">
        <g id="it_dev_chi-siamo" transform="translate(-88.000000, -4970.000000)">
            <g id="Group-37" transform="translate(-8.000000, 4915.000000)">
                <g id="Group-18" transform="translate(96.500000, 55.000000)">
                    <path d="M6.31960488,0 L82.3196049,0 C85.6333134,-6.08718376e-16 88.3196049,2.6862915 88.3196049,6 L88.3196049,100 L66.3196049,82.3529412 L6.31960488,82.3529412 C3.00589638,82.3529412 0.319604876,79.6666497 0.319604876,76.3529412 L0.319604876,6 C0.319604876,2.6862915 3.00589638,-2.79460044e-16 6.31960488,-8.8817842e-16 Z" id="Rectangle-8" fill="#00C5CA"></path>
                    <g id="Group-13" transform="translate(18.319605, 16.568544)" fill="#FFFFFF">
                        <path d="M3.52709528,42.683431 L47.7484783,42.683431 L47.7484783,13.2740232 L3.52709528,13.2740232 L3.52709528,42.683431 Z M3.52709528,9.95735493 L47.7484783,9.95735493 L47.7484783,3.35977544 L3.52709528,3.35977544 L3.52709528,9.95735493 Z M1.86886046,0.0432064777 C0.952982456,0.0432064777 0.210526316,0.785662618 0.210526316,1.70154062 L0.210526316,44.3417652 C0.210526316,45.2575439 0.952982456,46 1.86886046,46 L49.4067131,46 C50.3225911,46 51.0650472,45.2575439 51.0650472,44.3417652 L51.0650472,1.70154062 C51.0650472,0.785662618 50.3225911,0.0432064777 49.4067131,0.0432064777 L1.86886046,0.0432064777 Z" id="Fill-1"></path>
                        <path d="M23.5966532,25.5053301 L18.168231,20.8863093 C17.4707692,20.2927417 16.4241792,20.3769695 15.8306116,21.0745306 C15.237044,21.7720918 15.3213711,22.8186818 16.0188329,23.4122494 L19.9629387,26.7682505 L16.0188329,30.1243509 C15.3212718,30.7179185 15.237044,31.7644092 15.8306116,32.4619703 C16.4240799,33.1595314 17.4706699,33.2438586 18.168231,32.650291 L23.5966532,28.0312702 C24.3743698,27.3694661 24.3743698,26.1669355 23.5966532,25.5053301" id="Fill-7"></path>
                        <path d="M34.1819422,29.7289371 L27.6309463,29.7289371 C26.7151676,29.7289371 25.9726121,30.4713933 25.9726121,31.3871719 C25.9726121,32.3030499 26.7151676,33.0455061 27.6309463,33.0455061 L34.1819422,33.0455061 C35.0977209,33.0455061 35.8401771,32.3030499 35.8401771,31.3871719 C35.8401771,30.4713933 35.0977209,29.7289371 34.1819422,29.7289371" id="Fill-8"></path>
                    </g>
                </g>
            </g>
        </g>
    </g>
</svg>