<svg width="368" height="332" viewBox="0 0 368 332" fill="none" xmlns="http://www.w3.org/2000/svg">
<path d="M55.6287 260.63C53.1313 260.622 50.7378 259.629 48.969 257.866C47.1983 256.101 46.1985 253.707 46.1885 251.206V75.5394C46.1995 73.0427 47.1923 70.6505 48.9523 68.8797C50.7184 67.1105 53.1122 66.1112 55.6121 66.0994H312.361C314.861 66.1094 317.256 67.1089 319.021 68.8797C320.781 70.6505 321.774 73.0427 321.785 75.5394V251.24C321.77 253.736 320.778 256.127 319.021 257.9C317.25 259.66 314.858 260.652 312.361 260.663L55.6287 260.63Z" fill="#EAF4FE"/>
<path d="M320.948 251.173C320.949 252.299 320.728 253.414 320.296 254.454C319.865 255.494 319.232 256.439 318.434 257.233C316.827 258.842 314.647 259.746 312.374 259.747H55.6245C54.4821 259.758 53.3494 259.537 52.2946 259.098C51.2483 258.667 50.2977 258.033 49.4975 257.233C48.7083 256.434 48.0807 255.49 47.6494 254.453C47.2054 253.399 46.979 252.267 46.9835 251.123V75.5394C46.979 74.3959 47.2054 73.2633 47.6494 72.2095C48.0806 71.1674 48.7081 70.218 49.4975 69.4125C50.303 68.6231 51.2525 67.9955 52.2946 67.5643C53.3494 67.1256 54.4821 66.9049 55.6245 66.9151H312.374C313.516 66.9081 314.648 67.1287 315.703 67.5643C316.742 67.9998 317.687 68.6333 318.484 69.4292C319.287 70.2202 319.922 71.166 320.349 72.2095C320.779 73.2668 321 74.3978 320.998 75.5394L320.948 251.173Z" fill="#0058B0"/>
<path d="M307.518 79.2024H60.4756V236.888H307.518V79.2024Z" fill="#C5E1F9"/>
<path d="M173.985 79.2028L178.747 66.8992H139.437L134.676 79.2028H173.985Z" fill="#02509E"/>
<path d="M73.5391 236.888L64.6816 259.748H103.991L112.848 236.888H73.5391Z" fill="#02509E"/>
<path d="M199.229 79.2028L204.007 66.8992H191.37L186.608 79.2028H199.229Z" fill="#02509E"/>
<path d="M125.482 236.888L116.608 259.748H129.245L138.119 236.888H125.482Z" fill="#02509E"/>
<path d="M367.999 250.024H0.0488281V260.796H367.999V250.024Z" fill="#C5E1F9"/>
<path d="M0.449219 260.797C4.81134 265.409 12.803 267.207 18.3306 267.207H349.586C355.097 267.207 363.105 265.409 367.45 260.797H0.449219Z" fill="#9AC7F7"/>
<path d="M158.999 250.024V251.189C159.001 251.691 159.097 252.188 159.282 252.654C159.478 253.119 159.761 253.543 160.115 253.903C160.469 254.264 160.894 254.548 161.363 254.735C161.832 254.935 162.336 255.037 162.845 255.035H205.234C205.738 255.036 206.236 254.934 206.699 254.735C207.171 254.552 207.597 254.268 207.948 253.903C208.313 253.552 208.597 253.126 208.781 252.654C208.979 252.191 209.081 251.693 209.08 251.189V250.024H158.999Z" fill="#9AC7F7"/>
<path d="M254.136 113.717H113.865C111.235 113.717 109.104 115.848 109.104 118.478V196.047C109.104 198.677 111.235 200.809 113.865 200.809H254.136C256.766 200.809 258.897 198.677 258.897 196.047V118.478C258.897 115.848 256.766 113.717 254.136 113.717Z" fill="white"/>
<path fill-rule="evenodd" clip-rule="evenodd" d="M121.593 137.791C121.109 137.773 120.626 137.858 120.177 138.041C119.73 138.226 119.327 138.504 118.995 138.857C118.332 139.588 117.979 140.55 118.013 141.537C117.995 142.541 118.364 143.513 119.045 144.251C119.377 144.603 119.78 144.881 120.227 145.067C120.673 145.262 121.157 145.353 121.643 145.333C122.121 145.351 122.598 145.266 123.041 145.083C123.484 144.899 123.881 144.62 124.207 144.268C124.87 143.536 125.223 142.574 125.189 141.587C125.207 140.597 124.857 139.636 124.207 138.89C123.885 138.525 123.487 138.235 123.041 138.041C122.598 137.858 122.121 137.772 121.643 137.791" fill="#2A66C4"/>
<path d="M141.968 150.195H136.973V159.086H130.763V128.518H141.968C149.205 128.518 152.829 132.053 152.84 139.123C153.036 142.13 152.037 145.092 150.059 147.365C148.978 148.368 147.702 149.138 146.309 149.625C144.917 150.112 143.439 150.306 141.968 150.195ZM136.973 144.884H141.968C145.064 144.884 146.596 142.936 146.596 139.123C146.727 137.684 146.331 136.246 145.481 135.078C145.005 134.623 144.437 134.277 143.816 134.062C143.208 133.845 142.561 133.76 141.918 133.812H136.923L136.973 144.884Z" fill="#2A66C4"/>
<path d="M238.701 128.568H162.764V135.361H238.701V128.568Z" fill="#9AC7F7"/>
<path d="M238.701 141.022H162.764V147.815H238.701V141.022Z" fill="#9AC7F7"/>
<path d="M238.701 153.458H162.764V160.251H238.701V153.458Z" fill="#9AC7F7"/>
<path d="M204.02 177.383H163.995C162.873 177.383 161.964 178.292 161.964 179.414V187.672C161.964 188.794 162.873 189.704 163.995 189.704H204.02C205.142 189.704 206.051 188.794 206.051 187.672V179.414C206.051 178.292 205.142 177.383 204.02 177.383Z" fill="#2A66C4"/>
<path d="M255.4 136.076C233.606 135.976 233.622 102.778 255.4 102.778C277.177 102.778 277.177 135.976 255.4 136.076Z" fill="white"/>
<path d="M255.4 133.097C237.502 133.097 237.502 105.791 255.4 105.725C273.298 105.658 273.348 133.047 255.4 133.097Z" fill="#00CF86"/>
<path d="M254.066 125.587L248.788 120.326L251.335 117.845L254.066 120.559L260.359 114.266L262.907 116.747L254.066 125.587Z" fill="white"/>
<path d="M225.701 188.443L219.497 186.655L214.801 202.946L221.005 204.734L225.701 188.443Z" fill="#0066CC"/>
<path d="M190.852 212.192L179.084 199.998L183.74 195.515L195.495 207.723L190.852 212.192Z" fill="#0066CC"/>
<path d="M185.355 231.244L168.918 235.34L170.479 241.598L186.916 237.502L185.355 231.244Z" fill="#0066CC"/>
<path d="M206.861 253.579L200.657 251.792L195.974 268.055L202.178 269.843L206.861 253.579Z" fill="#0066CC"/>
<path d="M251.133 214.914L234.683 218.997L236.244 225.281L252.694 221.198L251.133 214.914Z" fill="#0066CC"/>
<path d="M295.184 282.077L252.943 253.499L210.716 224.92L212.424 275.9L214.131 326.853L239.708 299.728L257.399 331.749L276.291 321.289L258.573 289.268L295.184 282.077Z" fill="#D68D21"/>
<path d="M252.943 253.499L210.716 224.92V226.628L266.138 326.919L276.251 321.302L258.533 289.282L295.144 282.09L252.943 253.499Z" fill="#FDCA2F"/>
</svg>