<?xml version="1.0" encoding="UTF-8" standalone="no"?>
<svg
   width="152.86342"
   height="213.41756"
   viewBox="0 0 152.86342 213.41756"
   version="1.1"
   id="svg46"
   sodipodi:docname="serp_no_results.svg"
   inkscape:version="1.2 (dc2aedaf03, 2022-05-15)"
   xmlns:inkscape="http://www.inkscape.org/namespaces/inkscape"
   xmlns:sodipodi="http://sodipodi.sourceforge.net/DTD/sodipodi-0.dtd"
   xmlns="http://www.w3.org/2000/svg"
   xmlns:svg="http://www.w3.org/2000/svg"
   xmlns:rdf="http://www.w3.org/1999/02/22-rdf-syntax-ns#"
   xmlns:cc="http://creativecommons.org/ns#"
   xmlns:dc="http://purl.org/dc/elements/1.1/">
  <sodipodi:namedview
     id="namedview48"
     pagecolor="#ffffff"
     bordercolor="#666666"
     borderopacity="1.0"
     inkscape:showpageshadow="2"
     inkscape:pageopacity="0.0"
     inkscape:pagecheckerboard="0"
     inkscape:deskcolor="#d1d1d1"
     showgrid="false"
     inkscape:zoom="2.9621212"
     inkscape:cx="-77.647059"
     inkscape:cy="152.25575"
     inkscape:window-width="1920"
     inkscape:window-height="1011"
     inkscape:window-x="0"
     inkscape:window-y="0"
     inkscape:window-maximized="1"
     inkscape:current-layer="it_dev_serp_no-result" />
  <!-- Generator: Sketch 51 (57462) - http://www.bohemiancoding.com/sketch -->
  <title
     id="title2">Group 11</title>
  <desc
     id="desc4">Created with Sketch.</desc>
  <defs
     id="defs6" />
  <g
     id="–-Landing-page-e-cerca-✓"
     stroke="none"
     stroke-width="1"
     fill="none"
     fill-rule="evenodd"
     transform="translate(-30.860617,-17.487732)">
    <g
       id="it_dev_serp_no-result"
       transform="translate(-426,-379)">
      <rect
         fill="#ffffff"
         x="135.12804"
         y="207.59906"
         width="1400"
         height="1992"
         id="rect8" />
      <g
         id="Group-11"
         transform="translate(426,379)">
        <path
           d="m 72.341948,113.48887 v 48.58911 l 14,8 V 113.48887 L 126.78823,68.82505 c 1.48287,-1.637496 1.35752,-4.167052 -0.27998,-5.649922 -0.7356,-0.666142 -1.69257,-1.035051 -2.68497,-1.035051 H 34.860617 c -2.209139,0 -4,1.790861 -4,4 0,0.992401 0.368909,1.949368 1.035051,2.684973 z"
           id="Combined-Shape"
           fill="#00c5ca" />
        <path
           d="M 83.546078,104.92256 106.23877,82.229866"
           id="Line-3"
           stroke="#65dde0"
           stroke-width="4"
           stroke-linecap="round"
           stroke-linejoin="round" />
        <g
           id="search-copy"
           transform="translate(56.291403,103.47319)"
           fill-rule="nonzero">
          <path
             d="m 76.200957,83.516883 3.131557,3.1328 3.661198,3.642034 1.410719,1.420923 c 3.105184,-0.145011 5.058625,-0.618652 5.860323,-1.420923 0.801697,-0.802271 1.283247,-2.765363 1.444651,-5.889277 l -8.19078,-8.203474 z"
             id="Shape"
             fill="#5d6d7e" />
          <path
             d="m 99.158487,84.353906 25.208753,25.207514 c 1.89631,1.89108 3.07307,4.51614 3.06535,7.40328 0,2.89213 -1.16929,5.5147 -3.06535,7.41349 -1.89108,1.88859 -4.50992,3.05391 -7.40204,3.05391 -2.89088,0 -5.50698,-1.16532 -7.40329,-3.06038 L 84.354652,99.161722 c 1.460548,-4.748219 3.076602,-8.008347 4.848163,-9.780384 1.771561,-1.772038 5.090119,-3.447848 9.955672,-5.027432 z"
             id="path23"
             fill="#0066cc" />
          <g
             id="Group">
            <path
               d="M 84.353408,99.161722 99.158487,84.352661 98.054403,83.24584 c -0.666532,-0.669022 -1.577725,-1.075462 -2.590715,-1.075462 -1.019461,0 -1.933142,0.404698 -2.593203,1.070484 l -9.627632,9.632609 c -0.661306,0.656328 -1.074217,1.57001 -1.074217,2.590715 0,1.005523 0.412165,1.930654 1.074217,2.582999 z"
               id="path25"
               fill="#004d99" />
            <path
               d="M 0,47.329759 C 0,21.194629 21.191393,7.4667535e-4 47.331751,7.4667535e-4 c 26.142846,0 47.332995,21.19512632465 47.332995,47.32901232465 0,26.142847 -21.192638,47.332996 -47.332995,47.339218 C 21.191393,94.662755 0,73.471859 0,47.329759 Z m 47.331751,38.832594 c 21.44128,0 38.828611,-17.380611 38.828611,-38.832594 0,-21.436053 -17.388078,-38.8273668 -38.828611,-38.8273668 -21.440534,0 -38.8306032,17.3913138 -38.8306032,38.8273668 0,21.450739 17.3855892,38.832594 38.8306032,38.832594 z"
               id="path27"
               fill="#34495e" />
          </g>
          <g
             id="g32"
             transform="translate(60.191265,37.810647)"
             fill="#8ebeed">
            <path
               d="M 18.823075,2.8987437 C 18.640886,2.6254605 18.403195,2.3718398 18.142605,2.1558017 16.67265,0.95340547 14.517247,1.1873637 13.328789,2.6560742 9.830864,6.950453 7.4235826,12.102762 6.3608147,17.586097 5.1036623,24.098599 5.7612344,30.76641 8.2583657,36.876206 c 0.7277595,1.761158 2.7308403,2.588225 4.4780613,1.868181 1.752198,-0.709839 2.586981,-2.705453 1.869426,-4.466612 -1.991134,-4.872305 -2.507834,-10.193363 -1.496586,-15.391219 0.827067,-4.377259 2.750005,-8.486961 5.540082,-11.9142005 0.97018,-1.1931872 0.995816,-2.8674823 0.173726,-4.0736118 z"
               id="path30"
               transform="rotate(-164,12.574733,20.194728)" />
          </g>
        </g>
        <g
           id="Group-10"
           transform="rotate(45,-21.817779,108.11311)"
           stroke="#004080"
           stroke-linecap="round"
           stroke-linejoin="round"
           stroke-width="2">
          <path
             d="M 0.22915334,0.05081419 4.6325773,4.4542381"
             id="path35" />
          <path
             d="M 0.22915334,0.05081419 4.6325773,4.4542381"
             id="path37"
             transform="matrix(-1,0,0,1,4.86173,0)" />
        </g>
        <circle
           id="Oval-8"
           fill="#8ebeed"
           opacity="0.4"
           cx="111.89355"
           cy="50.132397"
           r="8" />
        <circle
           id="Oval-8-Copy-2"
           fill="#455b71"
           opacity="0.2"
           cx="96.875656"
           cy="20.61795"
           r="3.1302185" />
        <circle
           id="Oval-8-Copy"
           stroke="#004d99"
           cx="118.65105"
           cy="55.720955"
           r="3.5885558" />
      </g>
    </g>
  </g>
  <metadata
     id="metadata264">
    <rdf:RDF>
      <cc:Work
         rdf:about="">
        <dc:title>Group 11</dc:title>
      </cc:Work>
    </rdf:RDF>
  </metadata>
</svg>
