<svg width="100" height="100" viewBox="0 0 100 100" fill="none" xmlns="http://www.w3.org/2000/svg">
<circle cx="50" cy="50" r="49.5" fill="white" stroke="#004D99"/>
<path d="M56.3377 68.6334C56.3377 68.2633 56.0377 67.9634 55.6677 67.9634C55.2977 67.9634 54.9977 68.2633 54.9977 68.6334H56.3377ZM55.6677 79.6348H54.9977C54.9977 79.9125 55.169 80.1614 55.4284 80.2606C55.6878 80.3598 55.9815 80.2887 56.1668 80.0818L55.6677 79.6348ZM61.6174 72.9916L62.1165 73.4386C62.3538 73.1736 62.3427 72.7694 62.0911 72.5178L61.6174 72.9916ZM60.068 71.4422L59.5652 70.9995C59.3316 71.2649 59.3443 71.666 59.5943 71.916L60.068 71.4422ZM61.6174 69.6824L62.1203 70.1251C62.3418 69.8735 62.3432 69.4969 62.1237 69.2436L61.6174 69.6824ZM58.5557 65.1257C58.3134 64.846 57.8902 64.8157 57.6106 65.058C57.3309 65.3004 57.3006 65.7235 57.543 66.0032L58.5557 65.1257ZM45.6235 68.6334C45.6235 68.2633 45.3235 67.9634 44.9535 67.9634C44.5835 67.9634 44.2835 68.2633 44.2835 68.6334H45.6235ZM44.9535 79.6348L44.4544 80.0818C44.6397 80.2887 44.9334 80.3598 45.1928 80.2606C45.4522 80.1614 45.6235 79.9125 45.6235 79.6348H44.9535ZM39.0038 72.9916L38.5301 72.5178C38.2786 72.7694 38.2674 73.1736 38.5047 73.4386L39.0038 72.9916ZM40.5532 71.4422L41.0269 71.916C41.2769 71.666 41.2897 71.2649 41.0561 70.9995L40.5532 71.4422ZM39.0038 69.6824L38.4975 69.2436C38.278 69.4969 38.2795 69.8735 38.501 70.1251L39.0038 69.6824ZM43.0783 66.0032C43.3206 65.7235 43.2903 65.3004 43.0107 65.058C42.731 64.8157 42.3079 64.846 42.0655 65.1257L43.0783 66.0032ZM41.7138 64.2645C42.0384 64.0869 42.1575 63.6797 41.9798 63.3551C41.8022 63.0305 41.395 62.9114 41.0704 63.0891L41.7138 64.2645ZM31.7084 80H31.0384C31.0384 80.37 31.3384 80.67 31.7084 80.67V80ZM68.9137 80V80.67C69.2837 80.67 69.5836 80.37 69.5836 80H68.9137ZM59.1179 62.8594C58.7889 62.6901 58.3849 62.8195 58.2156 63.1486C58.0463 63.4776 58.1758 63.8816 58.5048 64.0509L59.1179 62.8594ZM36.5141 48.0535V48.7235C36.8841 48.7235 37.1841 48.4235 37.1841 48.0535H36.5141ZM36.5141 41.1068H37.1841C37.1841 40.7368 36.8841 40.4368 36.5141 40.4368V41.1068ZM64.1073 48.0535H63.4373C63.4373 48.4235 63.7373 48.7235 64.1073 48.7235V48.0535ZM64.1073 41.1068V40.4368C63.7373 40.4368 63.4373 40.7368 63.4373 41.1068H64.1073ZM52.5482 43.4743C52.5482 43.1043 52.2482 42.8043 51.8782 42.8043C51.5082 42.8043 51.2082 43.1043 51.2082 43.4743H52.5482ZM49.4136 43.4743C49.4136 43.1043 49.1136 42.8043 48.7436 42.8043C48.3736 42.8043 48.0736 43.1043 48.0736 43.4743H49.4136ZM47.0485 52.4031V51.7331C46.6785 51.7331 46.3785 52.0331 46.3785 52.4031H47.0485ZM53.5729 52.4031H54.2429C54.2429 52.0331 53.9429 51.7331 53.5729 51.7331V52.4031ZM42.7716 27.4381L43.3835 27.1652C43.3078 26.9954 43.1649 26.8647 42.989 26.8044C42.8132 26.7441 42.6202 26.7595 42.4562 26.847L42.7716 27.4381ZM62.9923 32.8503L63.6004 32.569C63.5177 32.3903 63.3606 32.257 63.1708 32.2045C62.981 32.1521 62.7777 32.1858 62.615 32.2966L62.9923 32.8503ZM63.1149 33.1153L63.7284 32.8458L63.723 32.834L63.1149 33.1153ZM67.7715 41.8408C67.4316 41.9871 67.2747 42.3813 67.4211 42.7211C67.5674 43.061 67.9616 43.2179 68.3014 43.0715L67.7715 41.8408ZM67.8172 36.8842L67.3435 36.4105C67.1797 36.5743 67.1121 36.8111 67.1648 37.0367C67.2176 37.2623 67.3831 37.4447 67.6025 37.5189L67.8172 36.8842ZM65.9769 31.7891L65.4 31.4484C65.282 31.6481 65.2757 31.8947 65.3834 32.1002C65.4912 32.3056 65.6975 32.4408 65.9289 32.4574L65.9769 31.7891ZM62.6887 27.39L62.0501 27.1872C61.9755 27.4223 62.036 27.6794 62.2078 27.8565C62.3795 28.0336 62.6346 28.1019 62.8719 28.0345L62.6887 27.39ZM58.2487 24.0288H57.5787C57.5787 24.2794 57.7186 24.509 57.9412 24.624C58.1638 24.7391 58.432 24.7202 58.6364 24.5752L58.2487 24.0288ZM53.2502 21.8602L52.628 22.1088C52.7122 22.3195 52.8973 22.4733 53.1199 22.5174C53.3425 22.5615 53.5723 22.49 53.7305 22.3274L53.2502 21.8602ZM47.7055 22.2726L47.1505 22.6479C47.2992 22.8678 47.5636 22.9791 47.8247 22.9319C48.0859 22.8847 48.2945 22.6878 48.3568 22.4299L47.7055 22.2726ZM42.3726 24.0288L41.985 24.5752C42.1893 24.7202 42.4575 24.7391 42.6802 24.624C42.9028 24.509 43.0426 24.2794 43.0426 24.0288H42.3726ZM37.9327 27.39L37.7494 28.0345C37.9867 28.1019 38.2419 28.0336 38.4136 27.8565C38.5854 27.6794 38.6459 27.4223 38.5712 27.1872L37.9327 27.39ZM34.6445 31.7891L34.6925 32.4574C34.9239 32.4408 35.1302 32.3056 35.2379 32.1002C35.3456 31.8947 35.3394 31.6481 35.2214 31.4484L34.6445 31.7891ZM32.8041 36.8842L33.0188 37.5189C33.2383 37.4447 33.4038 37.2623 33.4565 37.0367C33.5093 36.8111 33.4417 36.5743 33.2779 36.4105L32.8041 36.8842ZM32.3199 43.0715C32.6598 43.2179 33.0539 43.061 33.2003 42.7211C33.3466 42.3813 33.1897 41.9871 32.8499 41.8408L32.3199 43.0715ZM33.1271 47.3688C33.4812 47.2611 33.6809 46.8868 33.5732 46.5328C33.4655 46.1788 33.0912 45.9791 32.7372 46.0867L33.1271 47.3688ZM31.0881 48.3861L31.7062 48.6446L31.7063 48.6444L31.0881 48.3861ZM31.1017 50.6413L31.0918 51.3113C31.3184 51.3146 31.5314 51.2032 31.6578 51.015C31.7842 50.8269 31.807 50.5876 31.7182 50.379L31.1017 50.6413ZM28.3411 52.4248L27.723 52.1662L27.7226 52.1671L28.3411 52.4248ZM29.3468 55.9173L29.4788 56.5741C29.7391 56.5218 29.9439 56.3208 30.001 56.0616C30.0582 55.8024 29.957 55.5339 29.7429 55.3769L29.3468 55.9173ZM27.2228 57.6437L26.6047 57.3852L26.6046 57.3855L27.2228 57.6437ZM28.8501 61.4954L29.1187 60.8815L29.1082 60.8771L28.8501 61.4954ZM28.9121 61.514L29.2681 62.0816C29.4839 61.9462 29.6043 61.7001 29.5787 61.4466C29.5531 61.1931 29.3859 60.9761 29.1473 60.8866L28.9121 61.514ZM27.7776 62.8466L27.1594 62.5883L27.1593 62.5885L27.7776 62.8466ZM29.405 66.6983L29.1469 67.3166L29.1477 67.3169L29.405 66.6983ZM30.3041 66.9076L30.827 67.3265C30.9813 67.1339 31.0172 66.8721 30.9205 66.645C30.8238 66.4179 30.6101 66.2624 30.3643 66.2403L30.3041 66.9076ZM29.8855 67.5875L29.2677 67.3283L29.2672 67.3294L29.8855 67.5875ZM31.5129 71.4404L31.2548 72.0587L31.2552 72.0589L31.5129 71.4404ZM33.1893 72.2995C33.5557 72.2478 33.8108 71.9089 33.7591 71.5425C33.7074 71.1761 33.3684 70.921 33.002 70.9727L33.1893 72.2995ZM67.8837 46.0867C67.5296 45.9791 67.1554 46.1788 67.0477 46.5328C66.94 46.8868 67.1397 47.2611 67.4937 47.3688L67.8837 46.0867ZM69.5328 48.3861L68.9146 48.6444L68.9147 48.6446L69.5328 48.3861ZM69.5192 50.6413L68.9027 50.379C68.8139 50.5876 68.8366 50.8269 68.963 51.015C69.0895 51.2032 69.3024 51.3146 69.5291 51.3113L69.5192 50.6413ZM72.2797 52.4248L72.898 52.1666L72.8978 52.1662L72.2797 52.4248ZM71.2741 55.9173L70.878 55.3769C70.6639 55.5339 70.5627 55.8024 70.6198 56.0616C70.677 56.3208 70.8818 56.5218 71.142 56.5741L71.2741 55.9173ZM73.3981 57.6437L74.0163 57.3855L74.0162 57.3852L73.3981 57.6437ZM71.7707 61.4954L71.5126 60.877L71.5022 60.8816L71.7707 61.4954ZM71.7088 61.514L71.4736 60.8866C71.235 60.9761 71.0678 61.1931 71.0422 61.4466C71.0166 61.7001 71.137 61.9462 71.3528 62.0816L71.7088 61.514ZM72.8433 62.8466L73.4615 62.5885L73.4615 62.5883L72.8433 62.8466ZM71.2159 66.6983L71.4732 67.3169L71.474 67.3166L71.2159 66.6983ZM70.3168 66.9076L70.2566 66.2403C70.0108 66.2624 69.7971 66.4179 69.7004 66.645C69.6036 66.8721 69.6396 67.1339 69.7939 67.3265L70.3168 66.9076ZM70.7354 67.5875L71.3537 67.3294L71.3532 67.3283L70.7354 67.5875ZM69.108 71.4404L69.3657 72.0589L69.3661 72.0587L69.108 71.4404ZM67.6189 70.9727C67.2525 70.921 66.9135 71.1761 66.8618 71.5425C66.8101 71.9089 67.0652 72.2478 67.4316 72.2995L67.6189 70.9727ZM38.9261 42.1723C39.2962 42.1723 39.5961 41.8723 39.5961 41.5023C39.5961 41.1323 39.2962 40.8323 38.9261 40.8323V42.1723ZM36.4876 40.8323C36.1175 40.8323 35.8176 41.1323 35.8176 41.5023C35.8176 41.8723 36.1175 42.1723 36.4876 42.1723V40.8323ZM64.1342 42.1723C64.5042 42.1723 64.8042 41.8723 64.8042 41.5023C64.8042 41.1323 64.5042 40.8323 64.1342 40.8323V42.1723ZM61.6956 40.8323C61.3256 40.8323 61.0256 41.1323 61.0256 41.5023C61.0256 41.8723 61.3256 42.1723 61.6956 42.1723V40.8323ZM51.5305 42.1723C51.9005 42.1723 52.2005 41.8723 52.2005 41.5023C52.2005 41.1323 51.9005 40.8323 51.5305 40.8323V42.1723ZM49.0919 40.8323C48.7219 40.8323 48.4219 41.1323 48.4219 41.5023C48.4219 41.8723 48.7219 42.1723 49.0919 42.1723V40.8323ZM54.9977 68.6334V79.6348H56.3377V68.6334H54.9977ZM56.1668 80.0818L62.1165 73.4386L61.1183 72.5446L55.1686 79.1878L56.1668 80.0818ZM62.0911 72.5178L60.5418 70.9685L59.5943 71.916L61.1436 73.4653L62.0911 72.5178ZM60.5709 71.885L62.1203 70.1251L61.1145 69.2396L59.5652 70.9995L60.5709 71.885ZM62.1237 69.2436L58.5557 65.1257L57.543 66.0032L61.111 70.1211L62.1237 69.2436ZM44.2835 68.6334V79.6348H45.6235V68.6334H44.2835ZM45.4526 79.1878L39.5029 72.5446L38.5047 73.4386L44.4544 80.0818L45.4526 79.1878ZM39.4776 73.4653L41.0269 71.916L40.0794 70.9685L38.5301 72.5178L39.4776 73.4653ZM41.0561 70.9995L39.5067 69.2396L38.501 70.1251L40.0503 71.885L41.0561 70.9995ZM39.5102 70.1211L43.0783 66.0032L42.0655 65.1257L38.4975 69.2436L39.5102 70.1211ZM41.0704 63.0891C35.0944 66.3599 31.0384 72.7032 31.0384 80H32.3784C32.3784 73.2128 36.1496 67.31 41.7138 64.2645L41.0704 63.0891ZM69.5836 80C69.5836 72.5286 65.3301 66.0559 59.1179 62.8594L58.5048 64.0509C64.2886 67.027 68.2437 73.0505 68.2437 80H69.5836ZM35.6583 48.7235H36.5141V47.3835H35.6583V48.7235ZM37.1841 48.0535V41.1068H35.8441V48.0535H37.1841ZM36.5141 40.4368H35.6583V41.7768H36.5141V40.4368ZM35.6583 40.4368C33.3701 40.4368 31.5143 42.2908 31.5143 44.5795H32.8543C32.8543 43.0314 34.1096 41.7768 35.6583 41.7768V40.4368ZM31.5143 44.5795C31.5143 46.868 33.3698 48.7235 35.6583 48.7235V47.3835C34.1099 47.3835 32.8543 46.1279 32.8543 44.5795H31.5143ZM64.9631 47.3835H64.1073V48.7235H64.9631V47.3835ZM64.7773 48.0535V41.1068H63.4373V48.0535H64.7773ZM64.1073 41.7768H64.9631V40.4368H64.1073V41.7768ZM64.9631 41.7768C66.5118 41.7768 67.767 43.0314 67.767 44.5795H69.107C69.107 42.2908 67.2512 40.4368 64.9631 40.4368V41.7768ZM67.767 44.5795C67.767 46.1279 66.5115 47.3835 64.9631 47.3835V48.7235C67.2515 48.7235 69.107 46.8679 69.107 44.5795H67.767ZM44.6262 43.6803C44.6262 44.1178 44.2723 44.4717 43.8348 44.4717V45.8117C45.0123 45.8117 45.9662 44.8578 45.9662 43.6803H44.6262ZM43.8348 44.4717C43.3982 44.4717 43.0434 44.1174 43.0434 43.6803H41.7034C41.7034 44.8582 42.6589 45.8117 43.8348 45.8117V44.4717ZM43.0434 43.6803C43.0434 43.2432 43.3982 42.8889 43.8348 42.8889V41.5489C42.6589 41.5489 41.7034 42.5024 41.7034 43.6803H43.0434ZM43.8348 42.8889C44.2723 42.8889 44.6262 43.2428 44.6262 43.6803H45.9662C45.9662 42.5028 45.0123 41.5489 43.8348 41.5489V42.8889ZM57.5783 43.6803C57.5783 44.1178 57.2243 44.4717 56.7868 44.4717V45.8117C57.9644 45.8117 58.9183 44.8578 58.9183 43.6803H57.5783ZM56.7868 44.4717C56.3503 44.4717 55.9954 44.1174 55.9954 43.6803H54.6554C54.6554 44.8582 55.6109 45.8117 56.7868 45.8117V44.4717ZM55.9954 43.6803C55.9954 43.2432 56.3503 42.8889 56.7868 42.8889V41.5489C55.6109 41.5489 54.6554 42.5024 54.6554 43.6803H55.9954ZM56.7868 42.8889C57.2243 42.8889 57.5783 43.2428 57.5783 43.6803H58.9183C58.9183 42.5028 57.9644 41.5489 56.7868 41.5489V42.8889ZM51.2082 43.4743V47.4511H52.5482V43.4743H51.2082ZM51.2082 47.4511C51.2082 47.9467 50.8059 48.349 50.3103 48.349V49.689C51.546 49.689 52.5482 48.6868 52.5482 47.4511H51.2082ZM50.3103 48.349C49.8153 48.349 49.4136 47.9474 49.4136 47.4511H48.0736C48.0736 48.6861 49.0738 49.689 50.3103 49.689V48.349ZM49.4136 47.4511V43.4743H48.0736V47.4511H49.4136ZM50.3107 56.3081C48.8787 56.3081 47.7185 55.1479 47.7185 53.7159H46.3785C46.3785 55.8879 48.1387 57.6481 50.3107 57.6481V56.3081ZM47.7185 53.7159V52.4031H46.3785V53.7159H47.7185ZM47.0485 53.0731H53.5729V51.7331H47.0485V53.0731ZM52.9029 52.4031V53.7159H54.2429V52.4031H52.9029ZM52.9029 53.7159C52.9029 55.1479 51.7427 56.3081 50.3107 56.3081V57.6481C52.4827 57.6481 54.2429 55.8879 54.2429 53.7159H52.9029ZM42.1597 27.7111C44.3698 32.6659 49.755 35.8425 55.4475 35.8425V34.5025C50.2165 34.5025 45.352 31.5783 43.3835 27.1652L42.1597 27.7111ZM55.4475 35.8425C58.3841 35.8425 61.112 34.9424 63.3696 33.404L62.615 32.2966C60.5726 33.6885 58.1063 34.5025 55.4475 34.5025V35.8425ZM62.3842 33.1316L62.5068 33.3967L63.723 32.834L63.6004 32.569L62.3842 33.1316ZM62.5015 33.3849C63.1027 34.753 63.4369 36.2665 63.4369 37.86H64.7769C64.7769 36.0774 64.4027 34.3807 63.7283 32.8458L62.5015 33.3849ZM63.4369 37.86V50.142H64.7769V37.86H63.4369ZM63.4369 50.142C63.4369 56.3917 58.3706 61.458 52.1209 61.458V62.798C59.1106 62.798 64.7769 57.1317 64.7769 50.142H63.4369ZM52.1209 61.458H48.5008V62.798H52.1209V61.458ZM48.5008 61.458C42.2512 61.458 37.1848 56.3917 37.1848 50.142H35.8448C35.8448 57.1317 41.5111 62.798 48.5008 62.798V61.458ZM37.1848 50.142V37.86H35.8448V50.142H37.1848ZM37.1848 37.86C37.1848 33.603 39.5736 29.904 43.087 28.0293L42.4562 26.847C38.5239 28.9453 35.8448 33.0885 35.8448 37.86H37.1848ZM68.3014 43.0715C69.5965 42.5139 70.4973 41.2128 70.4973 39.7042H69.1573C69.1573 40.6702 68.5819 41.4918 67.7715 41.8408L68.3014 43.0715ZM70.4973 39.7042C70.4973 38.0909 69.4615 36.7332 68.032 36.2496L67.6025 37.5189C68.5013 37.823 69.1573 38.6796 69.1573 39.7042H70.4973ZM68.291 37.358C68.9537 36.6953 69.369 35.7739 69.369 34.7528H68.029C68.029 35.4036 67.7657 35.9883 67.3435 36.4105L68.291 37.358ZM69.369 34.7528C69.369 32.8282 67.8972 31.2552 66.0248 31.1208L65.9289 32.4574C67.0933 32.541 68.029 33.5242 68.029 34.7528H69.369ZM66.5537 32.1299C66.8748 31.5862 67.0754 30.9483 67.0754 30.2522H65.7354C65.7354 30.6855 65.6114 31.0904 65.4 31.4484L66.5537 32.1299ZM67.0754 30.2522C67.0754 28.2464 65.4776 26.5962 63.4776 26.5962V27.9362C64.7125 27.9362 65.7354 28.9611 65.7354 30.2522H67.0754ZM63.4776 26.5962C63.1184 26.5962 62.7916 26.6642 62.5055 26.7456L62.8719 28.0345C63.0911 27.9722 63.2869 27.9362 63.4776 27.9362V26.5962ZM63.3273 27.5928C63.4332 27.2591 63.5123 26.8867 63.5123 26.4797H62.1723C62.1723 26.7119 62.1274 26.9438 62.0501 27.1872L63.3273 27.5928ZM63.5123 26.4797C63.5123 24.4734 61.9127 22.825 59.9145 22.825V24.165C61.1487 24.165 62.1723 25.1892 62.1723 26.4797H63.5123ZM59.9145 22.825C59.1481 22.825 58.4416 23.0705 57.8611 23.4823L58.6364 24.5752C59.0021 24.3158 59.4399 24.165 59.9145 24.165V22.825ZM58.9187 24.0288C58.9187 24.0538 58.917 24.0732 58.9159 24.0831C58.915 24.0916 58.914 24.0981 58.9151 24.0907C58.9156 24.0873 58.9181 24.07 58.9202 24.0506C58.9224 24.0297 58.9249 23.9993 58.9249 23.9631H57.5849C57.5849 23.9381 57.5867 23.9188 57.5877 23.9088C57.5886 23.9003 57.5896 23.8938 57.5886 23.9012C57.5881 23.9047 57.5855 23.922 57.5835 23.9414C57.5812 23.9623 57.5787 23.9926 57.5787 24.0288H58.9187ZM58.9249 23.9631C58.9249 21.9568 57.3254 20.3084 55.3272 20.3084V21.6484C56.5613 21.6484 57.5849 22.6726 57.5849 23.9631H58.9249ZM55.3272 20.3084C54.3248 20.3084 53.4197 20.725 52.77 21.393L53.7305 22.3274C54.1409 21.9055 54.7046 21.6484 55.3272 21.6484V20.3084ZM53.8724 21.6116C53.3409 20.2814 52.0568 19.33 50.5404 19.33V20.67C51.4762 20.67 52.2876 21.2568 52.628 22.1088L53.8724 21.6116ZM50.5404 19.33C48.8376 19.33 47.437 20.5302 47.0543 22.1154L48.3568 22.4299C48.6032 21.4092 49.4939 20.67 50.5404 20.67V19.33ZM48.2606 21.8973C47.6164 20.9447 46.5326 20.3084 45.2942 20.3084V21.6484C46.0597 21.6484 46.7395 22.0401 47.1505 22.6479L48.2606 21.8973ZM45.2942 20.3084C43.296 20.3084 41.6964 21.9568 41.6964 23.9631H43.0364C43.0364 22.6726 44.06 21.6484 45.2942 21.6484V20.3084ZM41.6964 23.9631C41.6964 23.9993 41.6989 24.0297 41.7012 24.0505C41.7032 24.07 41.7058 24.0873 41.7063 24.0907C41.7073 24.0981 41.7063 24.0916 41.7054 24.0831C41.7044 24.0732 41.7026 24.0538 41.7026 24.0288H43.0426C43.0426 23.9926 43.0401 23.9623 43.0379 23.9414C43.0358 23.922 43.0333 23.9047 43.0328 23.9012C43.0317 23.8938 43.0327 23.9003 43.0336 23.9088C43.0347 23.9188 43.0364 23.9381 43.0364 23.9631H41.6964ZM42.7603 23.4823C42.1798 23.0705 41.4733 22.825 40.7069 22.825V24.165C41.1814 24.165 41.6193 24.3158 41.985 24.5752L42.7603 23.4823ZM40.7069 22.825C38.7072 22.825 37.1091 24.4736 37.1091 26.4797H38.4491C38.4491 25.189 39.4716 24.165 40.7069 24.165V22.825ZM37.1091 26.4797C37.1091 26.8867 37.1881 27.2591 37.2941 27.5928L38.5712 27.1872C38.4939 26.9438 38.4491 26.7119 38.4491 26.4797H37.1091ZM38.1159 26.7456C37.8298 26.6642 37.503 26.5962 37.1438 26.5962V27.9362C37.3344 27.9362 37.5303 27.9722 37.7494 28.0345L38.1159 26.7456ZM37.1438 26.5962C35.1437 26.5962 33.546 28.2464 33.546 30.2522H34.886C34.886 28.9611 35.9089 27.9362 37.1438 27.9362V26.5962ZM33.546 30.2522C33.546 30.9483 33.7465 31.5862 34.0676 32.1299L35.2214 31.4484C35.0099 31.0904 34.886 30.6855 34.886 30.2522H33.546ZM34.5965 31.1208C32.7242 31.2552 31.2523 32.8282 31.2523 34.7528H32.5923C32.5923 33.5242 33.528 32.541 34.6925 32.4574L34.5965 31.1208ZM31.2523 34.7528C31.2523 35.7739 31.6676 36.6953 32.3304 37.358L33.2779 36.4105C32.8557 35.9883 32.5923 35.4036 32.5923 34.7528H31.2523ZM32.5894 36.2496C31.1599 36.7332 30.1241 38.0909 30.1241 39.7042H31.4641C31.4641 38.6796 32.12 37.823 33.0188 37.5189L32.5894 36.2496ZM30.1241 39.7042C30.1241 41.2128 31.0249 42.5139 32.3199 43.0715L32.8499 41.8408C32.0395 41.4918 31.4641 40.6702 31.4641 39.7042H30.1241ZM32.7372 46.0867C31.7505 46.3868 30.8978 47.1037 30.4699 48.1277L31.7063 48.6444C31.9719 48.0089 32.5014 47.5591 33.1271 47.3688L32.7372 46.0867ZM30.4699 48.1276C30.0828 49.0533 30.1214 50.0489 30.4852 50.9037L31.7182 50.379C31.4875 49.8368 31.4667 49.2174 31.7062 48.6446L30.4699 48.1276ZM31.1116 49.9714C29.6805 49.9503 28.3081 50.7678 27.723 52.1662L28.9592 52.6834C29.3203 51.8202 30.1747 51.2977 31.0918 51.3113L31.1116 49.9714ZM27.7226 52.1671C27.0678 53.739 27.6352 55.4933 28.9506 56.4576L29.7429 55.3769C28.8959 54.756 28.5568 53.6494 28.9596 52.6824L27.7226 52.1671ZM29.2147 55.2604C28.086 55.4874 27.082 56.2439 26.6047 57.3852L27.8409 57.9022C28.1364 57.1958 28.7597 56.7187 29.4788 56.5741L29.2147 55.2604ZM26.6046 57.3855C25.8342 59.2295 26.7399 61.3406 28.5921 62.1137L29.1082 60.8771C27.9162 60.3795 27.3655 59.0402 27.841 57.902L26.6046 57.3855ZM28.5816 62.1092C28.6176 62.125 28.6491 62.1355 28.6715 62.1423C28.6932 62.1488 28.7117 62.1534 28.7186 62.1552C28.7301 62.158 28.7244 62.1566 28.7207 62.1556C28.7147 62.154 28.6982 62.1494 28.6768 62.1413L29.1473 60.8866C29.116 60.8749 29.0893 60.8672 29.0729 60.8627C29.0645 60.8604 29.0573 60.8586 29.0526 60.8574C29.0503 60.8568 29.0481 60.8563 29.0467 60.8559C29.045 60.8555 29.0444 60.8554 29.0436 60.8552C29.0422 60.8548 29.0435 60.8551 29.0458 60.8558C29.0483 60.8564 29.053 60.8577 29.0592 60.8596C29.0713 60.8632 29.0926 60.8702 29.1187 60.8816L28.5816 62.1092ZM28.5561 60.9464C27.9537 61.3242 27.4547 61.8814 27.1594 62.5883L28.3958 63.1049C28.5786 62.6674 28.8871 62.3205 29.2681 62.0816L28.5561 60.9464ZM27.1593 62.5885C26.3891 64.4337 27.2948 66.5435 29.1469 67.3166L29.6631 66.08C28.471 65.5824 27.9202 64.2442 28.3959 63.1047L27.1593 62.5885ZM29.1477 67.3169C29.5223 67.4727 29.8951 67.5434 30.244 67.5749L30.3643 66.2403C30.1087 66.2172 29.8772 66.169 29.6623 66.0797L29.1477 67.3169ZM29.7812 66.4886C29.5929 66.7238 29.4062 66.9982 29.2677 67.3283L30.5033 67.8467C30.5779 67.669 30.6859 67.5026 30.827 67.3265L29.7812 66.4886ZM29.2672 67.3294C28.4971 69.1744 29.4025 71.2855 31.2548 72.0587L31.771 70.8221C30.5791 70.3246 30.028 68.9853 30.5038 67.8456L29.2672 67.3294ZM31.2552 72.0589C31.8958 72.3258 32.5633 72.3879 33.1893 72.2995L33.002 70.9727C32.5927 71.0304 32.1702 70.9885 31.7706 70.822L31.2552 72.0589ZM67.4937 47.3688C68.1195 47.5591 68.649 48.0089 68.9146 48.6444L70.151 48.1277C69.723 47.1037 68.8704 46.3868 67.8837 46.0867L67.4937 47.3688ZM68.9147 48.6446C69.1542 49.2174 69.1334 49.8368 68.9027 50.379L70.1357 50.9037C70.4994 50.0489 70.538 49.0533 70.1509 48.1276L68.9147 48.6446ZM69.5291 51.3113C70.4462 51.2977 71.3005 51.8202 71.6617 52.6834L72.8978 52.1662C72.3128 50.7678 70.9403 49.9503 69.5093 49.9714L69.5291 51.3113ZM71.6615 52.6829C72.065 53.6492 71.7254 54.7557 70.878 55.3769L71.6702 56.4576C72.9852 55.4936 73.5547 53.7392 72.898 52.1666L71.6615 52.6829ZM71.142 56.5741C71.8611 56.7187 72.4845 57.1958 72.78 57.9022L74.0162 57.3852C73.5389 56.2439 72.5349 55.4874 71.4062 55.2604L71.142 56.5741ZM72.7799 57.902C73.2554 59.0402 72.7047 60.3795 71.5126 60.8771L72.0288 62.1137C73.8809 61.3406 74.7867 59.2295 74.0163 57.3855L72.7799 57.902ZM71.5022 60.8816C71.5283 60.8702 71.5496 60.8632 71.5617 60.8596C71.5679 60.8577 71.5726 60.8564 71.5751 60.8557C71.5774 60.8551 71.5787 60.8548 71.5773 60.8552C71.5765 60.8554 71.5759 60.8555 71.5742 60.8559C71.5728 60.8563 71.5706 60.8568 71.5683 60.8574C71.5636 60.8586 71.5564 60.8604 71.548 60.8627C71.5316 60.8672 71.5049 60.8749 71.4736 60.8866L71.9441 62.1413C71.9226 62.1494 71.9062 62.154 71.9001 62.1556C71.8964 62.1566 71.8908 62.158 71.9023 62.1552C71.9091 62.1534 71.9276 62.1488 71.9493 62.1423C71.9718 62.1355 72.0033 62.125 72.0393 62.1092L71.5022 60.8816ZM71.3528 62.0816C71.7338 62.3205 72.0423 62.6674 72.225 63.1049L73.4615 62.5883C73.1662 61.8814 72.6671 61.3242 72.0648 60.9464L71.3528 62.0816ZM72.225 63.1047C72.7006 64.2442 72.1499 65.5824 70.9578 66.08L71.474 67.3166C73.3261 66.5435 74.2318 64.4337 73.4615 62.5885L72.225 63.1047ZM70.9586 66.0797C70.7437 66.169 70.5122 66.2172 70.2566 66.2403L70.3769 67.5749C70.7257 67.5434 71.0986 67.4727 71.4732 67.3169L70.9586 66.0797ZM69.7939 67.3265C69.9349 67.5025 70.043 67.669 70.1175 67.8467L71.3532 67.3283C71.2147 66.9982 71.028 66.7238 70.8396 66.4886L69.7939 67.3265ZM70.1171 67.8456C70.5928 68.9853 70.0418 70.3246 68.8499 70.8221L69.3661 72.0587C71.2184 71.2855 72.1238 69.1744 71.3537 67.3294L70.1171 67.8456ZM68.8503 70.822C68.4506 70.9885 68.0282 71.0304 67.6189 70.9727L67.4316 72.2995C68.0576 72.3879 68.725 72.3258 69.3657 72.0589L68.8503 70.822ZM47.4759 67.0543C47.4759 67.7222 46.935 68.2631 46.2671 68.2631V69.6031C47.675 69.6031 48.8159 68.4622 48.8159 67.0543H47.4759ZM46.2671 68.2631C45.5988 68.2631 45.0571 67.7216 45.0571 67.0543H43.7171C43.7171 68.4628 44.8598 69.6031 46.2671 69.6031V68.2631ZM45.0571 67.0543C45.0571 66.3871 45.5987 65.8456 46.2671 65.8456V64.5056C44.8598 64.5056 43.7171 65.6459 43.7171 67.0543H45.0571ZM46.2671 65.8456C46.935 65.8456 47.4759 66.3865 47.4759 67.0543H48.8159C48.8159 65.6465 47.675 64.5056 46.2671 64.5056V65.8456ZM51.5203 68.4029C51.5203 69.0707 50.9794 69.6117 50.3116 69.6117V70.9517C51.7194 70.9517 52.8603 69.8108 52.8603 68.4029H51.5203ZM50.3116 69.6117C49.6432 69.6117 49.1015 69.0701 49.1015 68.4029H47.7615C47.7615 69.8113 48.9043 70.9517 50.3116 70.9517V69.6117ZM49.1015 68.4029C49.1015 67.7356 49.6432 67.1941 50.3116 67.1941V65.8541C48.9043 65.8541 47.7615 66.9944 47.7615 68.4029H49.1015ZM50.3116 67.1941C50.9794 67.1941 51.5203 67.7351 51.5203 68.4029H52.8603C52.8603 66.995 51.7194 65.8541 50.3116 65.8541V67.1941ZM45.0371 63.7156C45.0371 64.3835 44.4961 64.9244 43.8283 64.9244V66.2644C45.2362 66.2644 46.3771 65.1235 46.3771 63.7156H45.0371ZM43.8283 64.9244C43.1599 64.9244 42.6183 64.3829 42.6183 63.7156H41.2783C41.2783 65.1241 42.421 66.2644 43.8283 66.2644V64.9244ZM42.6183 63.7156C42.6183 63.0484 43.1599 62.5069 43.8283 62.5069V61.1669C42.421 61.1669 41.2783 62.3072 41.2783 63.7156H42.6183ZM43.8283 62.5069C44.4961 62.5069 45.0371 63.0478 45.0371 63.7156H46.3771C46.3771 62.3078 45.2362 61.1669 43.8283 61.1669V62.5069ZM51.8054 67.0543C51.8054 68.4622 52.9463 69.6031 54.3541 69.6031V68.2631C53.6863 68.2631 53.1454 67.7222 53.1454 67.0543H51.8054ZM54.3541 69.6031C55.7614 69.6031 56.9042 68.4628 56.9042 67.0543H55.5642C55.5642 67.7216 55.0225 68.2631 54.3541 68.2631V69.6031ZM56.9042 67.0543C56.9042 65.6459 55.7614 64.5056 54.3541 64.5056V65.8456C55.0225 65.8456 55.5642 66.3871 55.5642 67.0543H56.9042ZM54.3541 64.5056C52.9463 64.5056 51.8054 65.6465 51.8054 67.0543H53.1454C53.1454 66.3865 53.6863 65.8456 54.3541 65.8456V64.5056ZM54.2448 63.7156C54.2448 65.1235 55.3857 66.2644 56.7936 66.2644V64.9244C56.1258 64.9244 55.5848 64.3835 55.5848 63.7156H54.2448ZM56.7936 66.2644C58.2009 66.2644 59.3436 65.1241 59.3436 63.7156H58.0036C58.0036 64.3829 57.462 64.9244 56.7936 64.9244V66.2644ZM59.3436 63.7156C59.3436 62.3072 58.2009 61.1669 56.7936 61.1669V62.5069C57.462 62.5069 58.0036 63.0484 58.0036 63.7156H59.3436ZM56.7936 61.1669C55.3857 61.1669 54.2448 62.3078 54.2448 63.7156H55.5848C55.5848 63.0478 56.1258 62.5069 56.7936 62.5069V61.1669ZM48.0733 43.628C48.0733 45.9691 46.1762 47.8662 43.8352 47.8662V49.2062C46.9162 49.2062 49.4133 46.7091 49.4133 43.628H48.0733ZM43.8352 47.8662C41.4939 47.8662 39.5958 45.9688 39.5958 43.628H38.2558C38.2558 46.7093 40.7543 49.2062 43.8352 49.2062V47.8662ZM39.5958 43.628C39.5958 41.2873 41.4939 39.3899 43.8352 39.3899V38.0499C40.7543 38.0499 38.2558 40.5468 38.2558 43.628H39.5958ZM43.8352 39.3899C46.1762 39.3899 48.0733 41.287 48.0733 43.628H49.4133C49.4133 40.547 46.9162 38.0499 43.8352 38.0499V39.3899ZM61.0253 43.628C61.0253 45.9691 59.1282 47.8662 56.7872 47.8662V49.2062C59.8683 49.2062 62.3653 46.7091 62.3653 43.628H61.0253ZM56.7872 47.8662C54.446 47.8662 52.5479 45.9688 52.5479 43.628H51.2079C51.2079 46.7093 53.7064 49.2062 56.7872 49.2062V47.8662ZM52.5479 43.628C52.5479 41.2873 54.446 39.3899 56.7872 39.3899V38.0499C53.7064 38.0499 51.2079 40.5468 51.2079 43.628H52.5479ZM56.7872 39.3899C59.1282 39.3899 61.0253 41.287 61.0253 43.628H62.3653C62.3653 40.547 59.8683 38.0499 56.7872 38.0499V39.3899ZM38.9261 40.8323H36.4876V42.1723H38.9261V40.8323ZM64.1342 40.8323H61.6956V42.1723H64.1342V40.8323ZM51.5305 40.8323H49.0919V42.1723H51.5305V40.8323ZM31.7084 80.67H68.9137V79.33H31.7084V80.67Z" fill="#004D99"/>
</svg>
