<?xml version="1.0" encoding="UTF-8" standalone="no"?>
<svg
   xmlns:dc="http://purl.org/dc/elements/1.1/"
   xmlns:cc="http://creativecommons.org/ns#"
   xmlns:rdf="http://www.w3.org/1999/02/22-rdf-syntax-ns#"
   xmlns:svg="http://www.w3.org/2000/svg"
   xmlns="http://www.w3.org/2000/svg"
   xmlns:sodipodi="http://sodipodi.sourceforge.net/DTD/sodipodi-0.dtd"
   xmlns:inkscape="http://www.inkscape.org/namespaces/inkscape"
   width="81.894409"
   height="76.915733"
   viewBox="0 0 81.894409 76.915733"
   version="1.1"
   id="svg46"
   sodipodi:docname="serp_no results.svg"
   inkscape:version="0.92.4 (5da689c313, 2019-01-14)">
  <metadata
     id="metadata50">
    <rdf:RDF>
      <cc:Work
         rdf:about="">
        <dc:format>image/svg+xml</dc:format>
        <dc:type
           rdf:resource="http://purl.org/dc/dcmitype/StillImage" />
        <dc:title>Group 11</dc:title>
      </cc:Work>
    </rdf:RDF>
  </metadata>
  <sodipodi:namedview
     pagecolor="#ffffff"
     bordercolor="#666666"
     borderopacity="1"
     objecttolerance="10"
     gridtolerance="10"
     guidetolerance="10"
     inkscape:pageopacity="0"
     inkscape:pageshadow="2"
     inkscape:window-width="1920"
     inkscape:window-height="1016"
     id="namedview48"
     showgrid="false"
     inkscape:zoom="5.0568849"
     inkscape:cx="-41.743619"
     inkscape:cy="30.317811"
     inkscape:window-x="0"
     inkscape:window-y="27"
     inkscape:window-maximized="1"
     inkscape:current-layer="it_dev_serp_no-result"
     fit-margin-top="0"
     fit-margin-left="0"
     fit-margin-right="0"
     fit-margin-bottom="0" />
  <!-- Generator: Sketch 51 (57462) - http://www.bohemiancoding.com/sketch -->
  <title
     id="title2">Group 11</title>
  <desc
     id="desc4">Created with Sketch.</desc>
  <defs
     id="defs6" />
  <g
     id="–-Landing-page-e-cerca-✓"
     style="display:inline;fill:none;fill-rule:evenodd;stroke:none;stroke-width:1"
     inkscape:label="something_is_wrong"
     transform="translate(-0.59730274,-93.776319)">
    <g
       id="it_dev_serp_no-result"
       transform="translate(-426,-379)"
       style="display:inline"
       inkscape:label="something_is_wrong">
      <rect
         x="0"
         y="0"
         width="1400"
         height="1992"
         id="rect8"
         style="display:inline;fill:#ffffff" />
      <g
         id="Group-11"
         transform="translate(426,379)"
         style="display:inline">
        <g
           id="Group-8"
           transform="translate(0.519569,93.225269)">
          <path
             d="m 13.077734,0.55105029 60.89441,-3e-7 c 4.418278,0 8,3.58172201 8,8.00000001 v 3e-7 l -3e-6,60.8944257 c 0,4.418278 -3.581722,7.999999 -8,7.999999 l -19.469814,10e-7 c -1.060865,0 -2.57559,0.01859 -3.636392,0.007 l -4.82119,-0.05265 c -2.209007,-0.02412 -2.41148,-0.025 -4.439335,6.76e-4 l -4.970957,0.06294 c -1.060781,0.01343 -3.026037,-0.01797 -4.086903,-0.01797 H 13.077734 c -4.4182783,0 -8.0000003,-3.581722 -8.0000003,-8 V 8.5510503 c 0,-4.418278 3.581722,-8.00000001 8.0000003,-8.00000001 z"
             id="Rectangle-18"
             inkscape:connector-curvature="0"
             style="fill:#e6e9f2"
             sodipodi:nodetypes="ssscssssssssssss" />
          <path
             d="m 5.0777337,32.330103 c 2.7614238,0 5.0000003,-2.105814 5.0000003,-4.703468 0,-1.731769 -1.6666669,-5.163946 -5.0000003,-10.296532 -3.3333333,5.132586 -4.99999996,8.564763 -4.99999996,10.296532 0,2.597654 2.23857626,4.703468 4.99999996,4.703468 z"
             id="Oval-7"
             inkscape:connector-curvature="0"
             style="fill:#0066cc" />
          <g
             id="Group-9"
             transform="translate(21,32.330103)"
             style="stroke:#004080;stroke-width:3;stroke-linecap:round;stroke-linejoin:round">
            <path
               d="M 0.9883517,0.71622748 10.874271,10.602147"
               id="Path-2"
               inkscape:connector-curvature="0" />
            <path
               d="M 34.175607,0.71622748 44.061526,10.602147"
               id="Path-2-Copy"
               inkscape:connector-curvature="0" />
            <path
               d="M 0.9883517,0.71622748 10.874271,10.602147"
               id="path16"
               transform="matrix(-1,0,0,1,11.862622,0)"
               inkscape:connector-curvature="0" />
            <path
               d="M 34.175607,0.71622748 44.061526,10.602147"
               id="Path-2-Copy-2"
               transform="matrix(-1,0,0,1,78.237134,0)"
               inkscape:connector-curvature="0" />
            <path
               d="M 31.845473,20.13466 H 13.204405"
               id="Path-2-Copy-3"
               inkscape:connector-curvature="0" />
          </g>
        </g>
      </g>
    </g>
  </g>
</svg>
