<?xml version="1.0" encoding="UTF-8"?>
<svg width="1671px" height="1893px" viewBox="0 0 1671 1893" version="1.1" xmlns="http://www.w3.org/2000/svg" xmlns:xlink="http://www.w3.org/1999/xlink">
    <!-- Generator: Sketch 50 (54983) - http://www.bohemiancoding.com/sketch -->
    <title>Group 32</title>
    <desc>Created with Sketch.</desc>
    <defs></defs>
    <g id="Page-1" stroke="none" stroke-width="1" fill="none" fill-rule="evenodd" opacity="0.4">
        <g id="Group-32" transform="translate(1.000000, 2.000000)" fill="#E6ECF2" stroke="#E6ECF2">
            <path d="M743.179697,972.014324 L242.247774,567.647977 L743.179697,163.280857 C763.297703,143.163238 773.356319,120.02815 773.356319,93.8748201 C773.356319,67.7214903 763.297703,45.5922251 743.179697,27.486252 C725.073724,9.38027882 702.441547,0.327485387 675.282394,0.327485387 C648.123242,0.327485387 625.491065,9.38027882 607.384706,27.486252 L27.9937585,495.224084 C17.934833,505.282701 10.8936934,516.850438 6.87012318,529.92691 C2.84655338,543.003768 0.834798803,555.576942 0.834798803,567.647977 C0.834798803,579.718626 2.84655338,592.2918 6.87012318,605.368658 C10.8936934,618.445129 17.934833,630.012867 27.9937585,640.071869 L607.384706,1107.80932 C625.491065,1125.91529 648.123242,1134.96847 675.282394,1134.96847 C702.441547,1134.96847 725.073724,1125.91529 743.179697,1107.80932 C763.297703,1089.70334 773.356319,1067.07117 773.356319,1039.91201 C773.356319,1012.75286 763.297703,990.120683 743.179697,972.014324 Z" id="Fill-1" stroke-width="3" opacity="0.5"></path>
            <path d="M1350.51829,930.907499 C1341.29383,926.295343 1331.8775,925.14223 1322.26872,927.448456 C1312.66009,929.754534 1305.16537,935.519656 1299.78457,944.743969 L838.56893,1832.58408 C833.187982,1841.80844 831.650547,1851.60917 833.956773,1861.98658 C836.262851,1872.36398 842.412295,1879.08997 852.405399,1882.16476 C863.93579,1886.00824 873.928746,1886.9691 882.384268,1885.04736 C890.839937,1883.12562 897.37385,1877.93699 901.986006,1869.48133 L1363.20165,980.488107 C1368.5826,972.032585 1369.92772,963.000433 1367.23732,953.391799 C1364.54677,943.783017 1358.97381,936.288447 1350.51829,930.907499 Z" id="Path" stroke-width="10" opacity="0.5"></path>
            <path d="M1654.25543,1402.37707 L1432.05775,1222.99866 C1425.11393,1216.05499 1416.43444,1212.58322 1406.01885,1212.58322 C1395.60326,1212.58322 1386.92377,1216.05499 1379.9801,1222.99866 C1372.2648,1229.94234 1368.4073,1238.42896 1368.4073,1248.45881 C1368.4073,1258.48867 1372.2648,1267.36102 1379.9801,1275.07617 L1572.08851,1430.15178 L1379.9801,1585.2271 C1372.2648,1592.94239 1368.4073,1601.81475 1368.4073,1611.8446 C1368.4073,1621.87446 1372.2648,1630.36108 1379.9801,1637.30475 C1386.92377,1644.24843 1395.60326,1647.72034 1406.01885,1647.72034 C1416.43444,1647.72034 1425.11393,1644.24843 1432.05775,1637.30475 L1654.25543,1457.92649 C1658.11293,1454.06884 1660.81323,1449.63259 1662.35631,1444.61774 C1663.8994,1439.60274 1664.67087,1434.7809 1664.67087,1430.15178 C1664.67087,1425.52252 1663.8994,1420.70068 1662.35631,1415.68568 C1660.81323,1410.67082 1658.11293,1406.23457 1654.25543,1402.37707 Z" id="Path" stroke-width="10" opacity="0.5"></path>
        </g>
    </g>
</svg>