<?xml version="1.0" encoding="UTF-8"?>
<svg width="501px" height="460px" viewBox="0 0 501 460" version="1.1" xmlns="http://www.w3.org/2000/svg" xmlns:xlink="http://www.w3.org/1999/xlink">
    <!-- Generator: Sketch 50 (54983) - http://www.bohemiancoding.com/sketch -->
    <title>Group 2</title>
    <desc>Created with Sketch.</desc>
    <defs></defs>
    <g id="Page-1" stroke="none" stroke-width="1" fill="none" fill-rule="evenodd">
        <g id="Group-2">
            <path d="M278.049627,59.5872694 C270.906275,59.5872694 265.082064,65.3750277 265.082064,72.5548328 C265.082064,80.1935072 265.082064,199.318575 265.082064,205.228985 C265.082064,212.373195 270.870251,218.196548 278.049627,218.196548 C284.465651,218.196548 314.666548,218.196548 321.098009,218.196548 C337.097971,218.196548 411.711421,218.196548 428.004286,218.196548 C432.435163,218.196548 436.401596,215.966529 438.757269,212.479121 C442.032824,207.630544 440.642064,203.279862 440.97185,198.45187 L440.97185,195.062669 C440.97185,146.30801 440.97185,116.943371 440.97185,72.5548328 C440.97185,65.4097646 435.182805,59.5872694 428.004286,59.5872694 C399.403,59.5872694 306.819881,59.5872694 278.049627,59.5872694 Z" id="Fill-1" fill="#E6E9F2"></path>
            <path d="M288.758438,122.586178 L282.151148,122.586178 C280.320388,122.586178 278.836138,121.102357 278.836138,119.271168 C278.836138,117.439979 280.320388,115.956158 282.151148,115.956158 L288.758009,115.956158 C290.58877,115.956158 292.073019,117.440408 292.073019,119.271168 C292.073448,121.102357 290.589199,122.586178 288.758438,122.586178" id="Fill-3" fill="#D6DEE8"></path>
            <path d="M288.758438,106.674131 L282.151148,106.674131 C280.320388,106.674131 278.836138,105.19031 278.836138,103.359121 C278.836138,101.527932 280.320388,100.044112 282.151148,100.044112 L288.758009,100.044112 C290.58877,100.044112 292.073019,101.528361 292.073019,103.359121 C292.073448,105.189882 290.589199,106.674131 288.758438,106.674131" id="Fill-4" fill="#FFFFFF"></path>
            <path d="M288.758438,138.498653 L282.151148,138.498653 C280.320388,138.498653 278.836138,137.014833 278.836138,135.183644 C278.836138,133.352455 280.320388,131.868634 282.151148,131.868634 L288.758009,131.868634 C290.58877,131.868634 292.073019,133.352883 292.073019,135.183644 C292.073448,137.014833 290.589199,138.498653 288.758438,138.498653" id="Fill-5" fill="#FFFFFF"></path>
            <path d="M288.758438,154.411129 L282.151148,154.411129 C280.320388,154.411129 278.836138,152.927308 278.836138,151.096119 C278.836138,149.26493 280.320388,147.78111 282.151148,147.78111 L288.758009,147.78111 C290.58877,147.78111 292.073019,149.265359 292.073019,151.096119 C292.073448,152.92688 290.589199,154.411129 288.758438,154.411129" id="Fill-6" fill="#D6DEE8"></path>
            <path d="M288.758438,170.323176 L282.151148,170.323176 C280.320388,170.323176 278.836138,168.839355 278.836138,167.008166 C278.836138,165.176977 280.320388,163.693156 282.151148,163.693156 L288.758009,163.693156 C290.58877,163.693156 292.073019,165.177406 292.073019,167.008166 C292.073448,168.839355 290.589199,170.323176 288.758438,170.323176" id="Fill-7" fill="#FFFFFF"></path>
            <path d="M288.758438,186.235651 L282.151148,186.235651 C280.320388,186.235651 278.836138,184.751831 278.836138,182.920642 C278.836138,181.089453 280.320388,179.605632 282.151148,179.605632 L288.758009,179.605632 C290.58877,179.605632 292.073019,181.089882 292.073019,182.920642 C292.073448,184.751402 290.589199,186.235651 288.758438,186.235651" id="Fill-8" fill="#D6DEE8"></path>
            <g id="Group-13" transform="translate(265.034462, 59.093234)">
                <path d="M23.7239766,143.054464 L17.1166862,143.054464 C15.2859259,143.054464 13.8016764,141.570643 13.8016764,139.739454 C13.8016764,137.908265 15.2859259,136.424444 17.1166862,136.424444 L23.7235478,136.424444 C25.554308,136.424444 27.0385575,137.908694 27.0385575,139.739454 C27.0389864,141.570643 25.5547368,143.054464 23.7239766,143.054464" id="Fill-9" fill="#FFFFFF"></path>
                <path d="M169.337388,0.494035088 L6.64760234,0.494035088 C3.00252299,0.494035088 0.0476023392,3.44895574 0.0476023392,7.09403509 L0.0476023392,25.2528265 L175.937388,25.2528265 L175.937388,7.09403509 C175.937388,3.44895574 172.982467,0.494035088 169.337388,0.494035088 Z" id="Fill-11" fill="#5A6772"></path>
            </g>
            <g id="Group-50" transform="translate(320.000000, 113.992527)">
                <path d="M159.301167,46.9336903 L5.87711281,46.9336903 C2.95964692,46.9336903 0.573097213,44.5467117 0.573097213,41.6296747 L0.573097213,5.82928482 C0.573097213,2.91181893 2.96007577,0.525269223 5.87711281,0.525269223 L159.301167,0.525269223 C162.218633,0.525269223 164.605183,2.91224778 164.605183,5.82928482 L164.605183,41.6296747 C164.605183,44.5471406 162.218204,46.9336903 159.301167,46.9336903" id="Fill-14" fill="#2079D4"></path>
                <path d="M131.931538,35.0005129 L88.4397249,35.0005129 C86.6089647,35.0005129 85.1247151,33.5166922 85.1247151,31.6855031 C85.1247151,29.8543141 86.6089647,28.3704934 88.4397249,28.3704934 L131.931538,28.3704934 C133.762298,28.3704934 135.246548,29.8543141 135.246548,31.6855031 C135.246548,33.5166922 133.762298,35.0005129 131.931538,35.0005129" id="Fill-18" fill="#004D99"></path>
                <path d="M113.390212,19.0884661 L100.793175,19.0884661 C98.962415,19.0884661 97.4781654,17.6046454 97.4781654,15.7734564 C97.4781654,13.9422673 98.962415,12.4584466 100.793175,12.4584466 L113.390212,12.4584466 C115.220972,12.4584466 116.705222,13.9422673 116.705222,15.7734564 C116.705222,17.6042166 115.220972,19.0884661 113.390212,19.0884661" id="Fill-19" fill="#F6F4F2"></path>
                <path d="M146.600778,19.0884661 L126.098321,19.0884661 C124.267561,19.0884661 122.783312,17.6046454 122.783312,15.7734564 C122.783312,13.9422673 124.267561,12.4584466 126.098321,12.4584466 L146.600778,12.4584466 C148.431538,12.4584466 149.915787,13.9422673 149.915787,15.7734564 C149.915787,17.6042166 148.431538,19.0884661 146.600778,19.0884661" id="Fill-20" fill="#B4D4F4"></path>
                <path d="M86.5382044,19.0884661 L44.6580095,19.0884661 C42.8272493,19.0884661 41.3429997,17.6046454 41.3429997,15.7734564 C41.3429997,13.9422673 42.8272493,12.4584466 44.6580095,12.4584466 L86.5382044,12.4584466 C88.3689647,12.4584466 89.8532142,13.9422673 89.8532142,15.7734564 C89.8532142,17.6042166 88.3689647,19.0884661 86.5382044,19.0884661" id="Fill-21" fill="#F6F4F2"></path>
                <path d="M76.1463136,35.0005129 L63.5492766,35.0005129 C61.7185163,35.0005129 60.2342668,33.5166922 60.2342668,31.6855031 C60.2342668,29.8543141 61.7185163,28.3704934 63.5492766,28.3704934 L76.1463136,28.3704934 C77.9770738,28.3704934 79.4613233,29.8543141 79.4613233,31.6855031 C79.4617522,33.5166922 77.9775027,35.0005129 76.1463136,35.0005129" id="Fill-22" fill="#B4D4F4"></path>
                <path d="M50.6619081,35.0005129 L44.0550465,35.0005129 C42.2242863,35.0005129 40.7400368,33.5166922 40.7400368,31.6855031 C40.7400368,29.8543141 42.2242863,28.3704934 44.0550465,28.3704934 L50.6619081,28.3704934 C52.4926684,28.3704934 53.9769179,29.8543141 53.9769179,31.6855031 C53.9769179,33.5166922 52.4926684,35.0005129 50.6619081,35.0005129" id="Fill-23" fill="#F6F4F2"></path>
                <path d="M27.5644812,35.0005129 L20.9576196,35.0005129 C19.1268594,35.0005129 17.6426099,33.5166922 17.6426099,31.6855031 C17.6426099,29.8543141 19.1268594,28.3704934 20.9576196,28.3704934 L27.5644812,28.3704934 C29.3952415,28.3704934 30.879491,29.8543141 30.879491,31.6855031 C30.8799198,33.5166922 29.3956703,35.0005129 27.5644812,35.0005129" id="Fill-24" fill="#B4D4F4"></path>
                <path d="M27.5644812,19.0884661 L20.9576196,19.0884661 C19.1268594,19.0884661 17.6426099,17.6046454 17.6426099,15.7734564 C17.6426099,13.9422673 19.1268594,12.4584466 20.9576196,12.4584466 L27.5644812,12.4584466 C29.3952415,12.4584466 30.879491,13.9422673 30.879491,15.7734564 C30.8799198,17.6042166 29.3956703,19.0884661 27.5644812,19.0884661" id="Fill-25" fill="#004D99"></path>
                <path d="M146.601206,35.000084 C146.384637,35.000084 146.168068,34.9777838 145.951499,34.9336123 C145.739218,34.8937293 145.531655,34.8272575 145.332668,34.7479203 C145.133682,34.6638657 144.938984,34.5622283 144.758009,34.4425792 C144.576606,34.3190704 144.408926,34.1818384 144.254111,34.0274525 C144.104013,33.877355 143.966781,33.708817 143.842844,33.523125 C143.723624,33.3464388 143.621986,33.151741 143.537932,32.9527546 C143.458594,32.7541971 143.392123,32.5462049 143.35224,32.334353 C143.220154,31.6876474 143.286625,31.0598111 143.537932,30.4161074 C143.621986,30.2171211 143.723624,30.0271406 143.842844,29.8457371 C143.966781,29.6643336 144.104013,29.4919359 144.254111,29.3414096 C144.408926,29.1870236 144.576606,29.0497916 144.758009,28.9262829 C144.938984,28.8066337 145.133682,28.7054252 145.332668,28.6209417 C145.531655,28.5416045 145.739218,28.4751328 145.951499,28.4352497 C146.380349,28.3469066 146.822493,28.3469066 147.246625,28.4352497 C147.458906,28.4751328 147.66647,28.5416045 147.869744,28.6209417 C148.068731,28.7049963 148.263,28.8066337 148.440115,28.9262829 C148.621089,29.0497916 148.793487,29.1870236 148.944013,29.3414096 C149.098828,29.491507 149.235631,29.6643336 149.35528,29.8457371 C149.474501,30.0271406 149.580427,30.2171211 149.660193,30.4161074 C149.744247,30.6193823 149.81029,30.8269456 149.850173,31.0387975 C149.894345,31.2510782 149.916645,31.4676474 149.916645,31.6846454 C149.916645,31.9007858 149.894774,32.1177838 149.850173,32.334353 C149.81029,32.5462049 149.743818,32.7541971 149.660193,32.9527546 C149.580427,33.151741 149.474501,33.3464388 149.35528,33.523125 C149.23606,33.708817 149.098828,33.8769261 148.944013,34.0274525 C148.793916,34.1818384 148.621518,34.3190704 148.440115,34.4425792 C148.263,34.5622283 148.068731,34.6634369 147.869744,34.7479203 C147.66647,34.8272575 147.458477,34.8937293 147.246625,34.9336123 C147.034345,34.9777838 146.817776,35.000084 146.601206,35.000084" id="Fill-26" fill="#F6F4F2"></path>
            </g>
            <g id="Group-50-Copy" transform="translate(320.000000, 243.992527)">
                <path d="M159.301167,46.9336903 L5.87711281,46.9336903 C2.95964692,46.9336903 0.573097213,44.5467117 0.573097213,41.6296747 L0.573097213,5.82928482 C0.573097213,2.91181893 2.96007577,0.525269223 5.87711281,0.525269223 L159.301167,0.525269223 C162.218633,0.525269223 164.605183,2.91224778 164.605183,5.82928482 L164.605183,41.6296747 C164.605183,44.5471406 162.218204,46.9336903 159.301167,46.9336903" id="Fill-14" fill="#00C5CA"></path>
                <path d="M131.931538,35.0005129 L88.4397249,35.0005129 C86.6089647,35.0005129 85.1247151,33.5166922 85.1247151,31.6855031 C85.1247151,29.8543141 86.6089647,28.3704934 88.4397249,28.3704934 L131.931538,28.3704934 C133.762298,28.3704934 135.246548,29.8543141 135.246548,31.6855031 C135.246548,33.5166922 133.762298,35.0005129 131.931538,35.0005129" id="Fill-18" fill="#65DDE0"></path>
                <path d="M113.390212,19.0884661 L100.793175,19.0884661 C98.962415,19.0884661 97.4781654,17.6046454 97.4781654,15.7734564 C97.4781654,13.9422673 98.962415,12.4584466 100.793175,12.4584466 L113.390212,12.4584466 C115.220972,12.4584466 116.705222,13.9422673 116.705222,15.7734564 C116.705222,17.6042166 115.220972,19.0884661 113.390212,19.0884661" id="Fill-19" fill="#F6F4F2"></path>
                <path d="M146.600778,19.0884467 L126.098321,19.0884467 C124.267561,19.0884467 122.783312,17.6046304 122.783312,15.7734467 C122.783312,13.9422629 124.267561,12.4584466 126.098321,12.4584466 L146.600778,12.4584466 C148.431538,12.4584466 149.915787,13.9422629 149.915787,15.7734467 C149.915787,17.6042016 148.431538,19.0884467 146.600778,19.0884467" id="Fill-20" fill="#FFFFFF" opacity="0.6"></path>
                <path d="M86.5382044,19.0884467 L44.6580095,19.0884467 C42.8272493,19.0884467 41.3429997,17.6046304 41.3429997,15.7734467 C41.3429997,13.9422629 42.8272493,12.4584466 44.6580095,12.4584466 L86.5382044,12.4584466 C88.3689647,12.4584466 89.8532142,13.9422629 89.8532142,15.7734467 C89.8532142,17.6042016 88.3689647,19.0884467 86.5382044,19.0884467" id="Fill-21" fill="#F6F4F2" opacity="0.6"></path>
                <path d="M76.1463136,35.0005129 L63.5492766,35.0005129 C61.7185163,35.0005129 60.2342668,33.5166922 60.2342668,31.6855031 C60.2342668,29.8543141 61.7185163,28.3704934 63.5492766,28.3704934 L76.1463136,28.3704934 C77.9770738,28.3704934 79.4613233,29.8543141 79.4613233,31.6855031 C79.4617522,33.5166922 77.9775027,35.0005129 76.1463136,35.0005129" id="Fill-22" fill="#FFFFFF"></path>
                <path d="M50.6619081,35.0005129 L44.0550465,35.0005129 C42.2242863,35.0005129 40.7400368,33.5166922 40.7400368,31.6855031 C40.7400368,29.8543141 42.2242863,28.3704934 44.0550465,28.3704934 L50.6619081,28.3704934 C52.4926684,28.3704934 53.9769179,29.8543141 53.9769179,31.6855031 C53.9769179,33.5166922 52.4926684,35.0005129 50.6619081,35.0005129" id="Fill-23" fill="#F6F4F2"></path>
                <path d="M27.5644812,35.0005129 L20.9576196,35.0005129 C19.1268594,35.0005129 17.6426099,33.5166922 17.6426099,31.6855031 C17.6426099,29.8543141 19.1268594,28.3704934 20.9576196,28.3704934 L27.5644812,28.3704934 C29.3952415,28.3704934 30.879491,29.8543141 30.879491,31.6855031 C30.8799198,33.5166922 29.3956703,35.0005129 27.5644812,35.0005129" id="Fill-24" fill="#FFFFFF"></path>
                <path d="M27.5644812,19.0884661 L20.9576196,19.0884661 C19.1268594,19.0884661 17.6426099,17.6046454 17.6426099,15.7734564 C17.6426099,13.9422673 19.1268594,12.4584466 20.9576196,12.4584466 L27.5644812,12.4584466 C29.3952415,12.4584466 30.879491,13.9422673 30.879491,15.7734564 C30.8799198,17.6042166 29.3956703,19.0884661 27.5644812,19.0884661" id="Fill-25" fill="#65DDE0"></path>
                <path d="M146.601206,35.000084 C146.384637,35.000084 146.168068,34.9777838 145.951499,34.9336123 C145.739218,34.8937293 145.531655,34.8272575 145.332668,34.7479203 C145.133682,34.6638657 144.938984,34.5622283 144.758009,34.4425792 C144.576606,34.3190704 144.408926,34.1818384 144.254111,34.0274525 C144.104013,33.877355 143.966781,33.708817 143.842844,33.523125 C143.723624,33.3464388 143.621986,33.151741 143.537932,32.9527546 C143.458594,32.7541971 143.392123,32.5462049 143.35224,32.334353 C143.220154,31.6876474 143.286625,31.0598111 143.537932,30.4161074 C143.621986,30.2171211 143.723624,30.0271406 143.842844,29.8457371 C143.966781,29.6643336 144.104013,29.4919359 144.254111,29.3414096 C144.408926,29.1870236 144.576606,29.0497916 144.758009,28.9262829 C144.938984,28.8066337 145.133682,28.7054252 145.332668,28.6209417 C145.531655,28.5416045 145.739218,28.4751328 145.951499,28.4352497 C146.380349,28.3469066 146.822493,28.3469066 147.246625,28.4352497 C147.458906,28.4751328 147.66647,28.5416045 147.869744,28.6209417 C148.068731,28.7049963 148.263,28.8066337 148.440115,28.9262829 C148.621089,29.0497916 148.793487,29.1870236 148.944013,29.3414096 C149.098828,29.491507 149.235631,29.6643336 149.35528,29.8457371 C149.474501,30.0271406 149.580427,30.2171211 149.660193,30.4161074 C149.744247,30.6193823 149.81029,30.8269456 149.850173,31.0387975 C149.894345,31.2510782 149.916645,31.4676474 149.916645,31.6846454 C149.916645,31.9007858 149.894774,32.1177838 149.850173,32.334353 C149.81029,32.5462049 149.743818,32.7541971 149.660193,32.9527546 C149.580427,33.151741 149.474501,33.3464388 149.35528,33.523125 C149.23606,33.708817 149.098828,33.8769261 148.944013,34.0274525 C148.793916,34.1818384 148.621518,34.3190704 148.440115,34.4425792 C148.263,34.5622283 148.068731,34.6634369 147.869744,34.7479203 C147.66647,34.8272575 147.458477,34.8937293 147.246625,34.9336123 C147.034345,34.9777838 146.817776,35.000084 146.601206,35.000084" id="Fill-26" fill="#F6F4F2"></path>
            </g>
            <g id="Group-52" transform="translate(336.000000, 178.992527)">
                <path d="M159.301167,46.9057371 L5.87711281,46.9057371 C2.95964692,46.9057371 0.573097213,44.5187585 0.573097213,41.6017215 L0.573097213,5.8013316 C0.573097213,2.88386571 2.96007577,0.497316006 5.87711281,0.497316006 L159.301167,0.497316006 C162.218633,0.497316006 164.605183,2.88429456 164.605183,5.8013316 L164.605183,41.6017215 C164.605183,44.5191874 162.218204,46.9057371 159.301167,46.9057371" id="Fill-15" fill="#8EBEED"></path>
                <path d="M24.4864111,33.4960295 L16.3052415,25.3148599 C15.0105436,24.0197332 15.0105436,21.9213706 16.3052415,20.6262439 L24.4864111,12.4450743 C25.7811089,11.1508053 27.8799003,11.1508053 29.1745982,12.4450743 C30.469296,13.740201 30.469296,15.8385636 29.1745982,17.1336903 L23.3375222,22.9703374 L29.1745982,28.8069846 C30.469296,30.1021113 30.469296,32.2004739 29.1745982,33.4956006 C27.8799003,34.7907273 25.7811089,34.7902985 24.4864111,33.4960295" id="Fill-27" stroke="#8EBEED" stroke-width="1.375" fill="#F6F4F2"></path>
                <path d="M54.1679705,34.4669456 C53.3197054,34.4669456 52.4710114,34.143164 51.8238769,33.4960295 C50.5291791,32.2009028 50.5291791,30.1025402 51.8238769,28.8074135 L57.660953,22.9707663 L51.8238769,17.1341191 C50.5291791,15.8389924 50.5291791,13.7406298 51.8238769,12.4455031 C53.1185748,11.1512341 55.2173662,11.1512341 56.5120641,12.4455031 L64.6932337,20.6266727 C65.9879315,21.9217994 65.9879315,24.020162 64.6932337,25.3152887 L56.5120641,33.4964583 C55.8649296,34.143164 55.0166645,34.4669456 54.1679705,34.4669456" id="Fill-28" stroke="#8EBEED" stroke-width="1.375" fill="#F6F4F2"></path>
                <path d="M34.4134286,39.4390314 C32.6928828,38.8129105 31.8060212,36.9105324 32.432142,35.1899866 L41.6202512,9.94487936 C42.2463721,8.2247624 44.1483214,7.33832965 45.869296,7.96359281 C47.5898419,8.58971367 48.4767035,10.4920918 47.8505826,12.2126376 L38.6624734,37.4577449 C38.0410699,39.1632809 36.1489842,40.0694408 34.4134286,39.4390314" id="Fill-29" stroke="#8EBEED" stroke-width="1.375" fill="#F6F4F2"></path>
            </g>
            <g id="Group-39" transform="translate(279.264774, 68.856074)">
                <path d="M3.42752216,6.85509378 C2.55695686,6.85509378 1.69925706,6.50129261 1.085144,5.88246221 C0.466313587,5.26792029 0.112512418,4.41064934 0.112512418,3.54008404 C0.112512418,0.848193199 3.12646953,-0.665646957 5.26643055,0.781721464 C5.44783406,0.905659086 5.61980287,1.04246221 5.77032918,1.19684817 C6.38915959,1.81139008 6.74253191,2.66866104 6.74253191,3.53965519 C6.74253191,4.41022049 6.38915959,5.26749144 5.77032918,5.88203336 C5.61980287,6.03641932 5.44783406,6.17365129 5.26643055,6.29287156 C5.08974439,6.41252068 4.89504653,6.51801776 4.69606018,6.59821269 C4.49707382,6.68183842 4.28951047,6.74831016 4.07722977,6.7881932 C3.86066057,6.83236474 3.64409136,6.85509378 3.42752216,6.85509378" id="Fill-30" fill="#DD414C"></path>
                <path d="M14.6633896,6.85509378 C14.4468204,6.85509378 14.2298224,6.83279359 14.0179705,6.78862205 C13.8056898,6.74873901 13.5981265,6.68226727 13.3991401,6.59864154 C13.1958652,6.51887546 13.0058847,6.41294953 12.8244812,6.29330041 C12.6430777,6.17408014 12.4753974,6.03684817 12.3205826,5.88246221 C11.7017522,5.26792029 11.3483799,4.41064934 11.3483799,3.54008404 C11.3483799,2.66908989 11.7017522,1.81181893 12.3205826,1.19727702 C12.4753974,1.04289106 12.6430777,0.906087936 12.8244812,0.782150314 C13.0058847,0.662501192 13.1958652,0.561292615 13.3991401,0.476809184 C13.5981265,0.397471952 13.8056898,0.331000217 14.0179705,0.286828677 C14.4425319,0.202774096 14.8846762,0.202774096 15.3130972,0.286828677 C15.5253779,0.331000217 15.7329413,0.397471952 15.9319276,0.476809184 C16.1352025,0.560863765 16.3256118,0.662501192 16.5065865,0.782150314 C16.6875612,0.906087936 16.8556703,1.04289106 17.0104851,1.19727702 C17.625027,1.81181893 17.9831167,2.66908989 17.9831167,3.54008404 C17.9831167,4.41064934 17.625027,5.26792029 17.0104851,5.88246221 C16.8560992,6.03684817 16.68799,6.17408014 16.5065865,6.29330041 C16.325183,6.41294953 16.1352025,6.51844661 15.9319276,6.59864154 C15.7329413,6.68226727 15.5253779,6.74873901 15.3130972,6.78862205 C15.096528,6.83236474 14.8799588,6.85509378 14.6633896,6.85509378" id="Fill-31" fill="#EEA03A"></path>
                <path d="M25.9035456,6.85509378 C25.6869764,6.85509378 25.4704072,6.83279359 25.253838,6.78862205 C25.0415573,6.74873901 24.8339939,6.68226727 24.6350075,6.59864154 C24.43645,6.51887546 24.2417522,6.41294953 24.0603487,6.29330041 C23.8789452,6.17408014 23.7112649,6.03684817 23.55645,5.88246221 C22.942337,5.26792029 22.5885358,4.41064934 22.5885358,3.54008404 C22.5885358,3.32351484 22.610836,3.10651679 22.6502902,2.88994759 C22.6944617,2.68238423 22.7562161,2.47053238 22.8402707,2.27154603 C22.9243253,2.07255967 23.0259627,1.87786182 23.145183,1.70117566 C23.2644033,1.51548365 23.4059237,1.34780334 23.5560212,1.19684817 C23.710836,1.04246221 23.8785163,0.905659086 24.0599198,0.781721464 C24.2413233,0.662072342 24.4355923,0.560863765 24.6345787,0.476380334 C24.833565,0.397043102 25.0415573,0.330571367 25.2534091,0.286399827 C25.6818302,0.202345246 26.1239744,0.202345246 26.548107,0.286399827 C26.7603877,0.330571367 26.967951,0.397043102 27.1669374,0.476380334 C27.3706411,0.560434915 27.5606216,0.662072342 27.7415962,0.781721464 C27.9229997,0.905659086 28.0906801,1.04246221 28.2454949,1.19684817 C28.3998808,1.34737449 28.5371128,1.51548365 28.6563331,1.70117566 C28.7755534,1.87786182 28.8819081,2.07255967 28.9612454,2.27154603 C29.0452999,2.47053238 29.1070543,2.68238423 29.1512259,2.88994759 C29.1953974,3.10651679 29.2172688,3.32351484 29.2172688,3.54008404 C29.2172688,4.41493784 28.8638964,5.26792029 28.245066,5.88246221 C28.0902512,6.03684817 27.9225709,6.17408014 27.7411674,6.29330041 C27.5597639,6.41294953 27.3697834,6.51844661 27.1665085,6.59864154 C26.9675222,6.68226727 26.7599588,6.74873901 26.5476781,6.78862205 C26.336684,6.83236474 26.1201148,6.85509378 25.9035456,6.85509378" id="Fill-32" fill="#6DAA43"></path>
                <path d="M118.750836,6.85466493 L39.705222,6.85466493 C37.8744617,6.85466493 36.3902122,5.37084427 36.3902122,3.53965519 C36.3902122,1.7084661 37.8744617,0.224645441 39.705222,0.224645441 L118.750836,0.224645441 C120.581596,0.224645441 122.065846,1.70889495 122.065846,3.53965519 C122.065846,5.37041542 120.581596,6.85466493 118.750836,6.85466493" id="Fill-33" fill="#FFFFFF" opacity="0.2"></path>
                <path d="M143.963351,6.85466493 L130.408692,6.85466493 C128.577932,6.85466493 127.093682,5.37084427 127.093682,3.53965519 C127.093682,1.7084661 128.577932,0.224645441 130.408692,0.224645441 L143.963351,0.224645441 C145.794111,0.224645441 147.27836,1.70889495 147.27836,3.53965519 C147.27836,5.37041542 145.794111,6.85466493 143.963351,6.85466493" id="Fill-34" fill="#FFFFFF" opacity="0.2"></path>
            </g>
            <g id="crane-(1)" transform="translate(0.000000, 132.313001)" fill-rule="nonzero">
                <path d="M73.2013333,54.6570784 L39.416001,54.6570784 C36.3060348,54.6570784 33.7853323,56.5476053 33.7853323,58.8802449 L33.7853323,84.2192441 C33.7853323,86.5518838 36.3066947,88.4424107 39.416001,88.4424107 L73.2013333,88.4424107 C76.3112995,88.4424107 78.832002,86.5518838 78.832002,84.2192441 L78.832002,58.8802449 C78.8326619,56.5476053 76.3112995,54.6570784 73.2013333,54.6570784 Z" id="Shape" fill="#7F96AD"></path>
                <path d="M45.0473296,84.2192441 L45.0473296,58.8802449 C45.0473296,56.5476053 47.568692,54.6570784 50.6779984,54.6570784 L39.416001,54.6570784 C36.3060348,54.6570784 33.7853323,56.5476053 33.7853323,58.8802449 L33.7853323,84.2192441 C33.7853323,86.5518838 36.3066947,88.4424107 39.416001,88.4424107 L50.6779984,88.4424107 C47.5680322,88.4424107 45.0473296,86.5518838 45.0473296,84.2192441 Z" id="Shape" fill="#455B71"></path>
                <path d="M157.664664,51.0283892 C157.665324,47.9665935 155.095791,45.395081 152.033995,45.395081 L106.986666,45.395081 C103.92487,45.395081 101.355337,47.9652738 101.355997,51.0283892 L101.355997,319.307748 C101.355337,322.370204 103.92619,324.939737 106.986666,324.939737 L152.033995,324.939737 C155.094471,324.939737 157.665324,322.370204 157.664664,319.307748 L157.664664,51.0283892 Z M137.473309,73.5497445 L146.403326,64.6203868 L146.403326,82.4797621 L137.473309,73.5497445 Z M144.071347,96.0730794 L129.51066,110.633766 L114.949974,96.0730794 L129.51066,81.5130529 L144.071347,96.0730794 Z M129.51066,65.587096 L120.580643,56.6570784 L138.440018,56.6570784 L129.51066,65.587096 Z M121.547352,73.5497445 L112.617334,82.4797621 L112.617334,64.6203868 L121.547352,73.5497445 Z M121.547352,118.597074 L112.617334,127.527092 L112.617334,109.667716 L121.547352,118.597074 Z M129.51066,126.560383 L144.071347,141.121069 L129.51066,155.681095 L114.949974,141.120409 L129.51066,126.560383 Z M121.547352,163.643744 L112.617334,172.573762 L112.617334,154.714386 L121.547352,163.643744 Z M129.51066,171.607712 L144.071347,186.168399 L129.51066,200.728425 L114.949974,186.167739 L129.51066,171.607712 Z M121.547352,208.691074 L112.617334,217.621091 L112.617334,199.761716 L121.547352,208.691074 Z M129.51066,216.654382 L144.071347,231.215068 L129.51066,245.775095 L114.949974,231.214408 L129.51066,216.654382 Z M121.547352,253.738403 L112.617334,262.668421 L112.617334,244.809045 L121.547352,253.738403 Z M129.51066,261.701712 L144.071347,276.262398 L129.51066,290.822424 L114.949974,276.261738 L129.51066,261.701712 Z M121.547352,298.785073 L112.617334,307.715091 L112.617334,289.855715 L121.547352,298.785073 Z M129.51066,306.749041 L138.440678,316.679059 L120.581303,316.679059 L129.51066,306.749041 Z M137.473309,298.785073 L146.403326,289.855715 L146.403326,307.715091 L137.473309,298.785073 Z M137.473309,253.738403 L146.403326,244.809045 L146.403326,262.668421 L137.473309,253.738403 Z M137.473309,208.691074 L146.403326,199.761716 L146.403326,217.621091 L137.473309,208.691074 Z M137.473309,163.643744 L146.403326,154.714386 L146.403326,172.573762 L137.473309,163.643744 Z M137.473309,118.597074 L146.403326,109.667716 L146.403326,127.527092 L137.473309,118.597074 Z" id="Shape" fill="#5A6772"></path>
                <path d="M274.608764,109.361537 L247.759323,77.1420756 L247.759323,51.0264096 C247.759323,47.9164434 245.237961,45.3957409 242.128654,45.3957409 C239.019348,45.3957409 236.497986,47.9171033 236.497986,51.0264096 L236.497986,77.1420756 L209.648545,109.361537 C207.657718,111.750925 207.980394,115.301685 210.369122,117.292512 C212.757191,119.283339 216.30861,118.960003 218.300097,116.571934 L242.128654,87.9777971 L265.957212,116.571934 C267.071732,117.90817 268.672576,118.597734 270.285957,118.597734 C271.556867,118.597734 272.835034,118.169479 273.887527,117.292512 C276.276915,115.301685 276.598932,111.750265 274.608764,109.361537 Z" id="Shape" fill="#7B858E"></path>
                <path d="M270.282658,45.395081 L243.212821,45.395081 L131.601788,0.751591669 C129.971909,0.0976607261 128.054328,0.261968299 126.559063,1.18380637 L54.7144218,45.395081 L16.8926661,45.395081 C13.7826999,45.395081 11.2619974,47.9164434 11.2619974,51.0257498 C11.2619974,54.135716 13.7833598,56.6564185 16.8926661,56.6564185 L270.282658,56.6564185 C273.392624,56.6564185 275.913327,54.1350561 275.913327,51.0257498 C275.913327,47.9164434 273.392624,45.395081 270.282658,45.395081 Z M130.049774,12.2597205 L212.889825,45.3964008 L76.2037407,45.3964008 L130.049774,12.2597205 Z" id="Shape" fill="#5A6772"></path>
                <path d="M85.1674117,253.738403 L16.1885851,253.738403 C13.4672822,253.738403 11.2613375,255.871762 11.2613375,258.502663 L11.2613375,310.913479 C11.2613375,313.54504 13.4672822,315.677739 16.1885851,315.677739 L85.1667518,315.677739 C87.8880548,315.677739 90.0939994,313.54438 90.0939994,310.913479 L90.0939994,258.502663 C90.0939994,255.871762 87.8880548,253.738403 85.1674117,253.738403 Z" id="Shape" fill="#0066CC"></path>
                <path d="M21.8199137,310.04707 C19.0986108,310.04707 16.8926661,307.913711 16.8926661,305.282811 L16.8926661,253.738403 L16.1885851,253.738403 C13.4672822,253.738403 11.2613375,255.871762 11.2613375,258.502663 L11.2613375,310.91282 C11.2613375,313.54438 13.4672822,315.677079 16.1885851,315.677079 L85.1667518,315.677079 C87.8880548,315.677079 90.0939994,313.54372 90.0939994,310.91282 L90.0939994,310.046411 L21.8199137,310.046411 L21.8199137,310.04707 Z" id="Shape" fill="#004080"></path>
                <g id="Group" transform="translate(27.714530, 264.607778)" fill="#004D99">
                    <path d="M22.963468,39.8086235 C19.8535018,39.8086235 17.3327993,37.2872611 17.3327993,34.1779548 L17.3327993,6.02329127 C17.3327993,2.91332504 19.8541617,0.392622514 22.963468,0.392622514 C26.0727744,0.392622514 28.5941368,2.91398491 28.5941368,6.02329127 L28.5941368,34.1779548 C28.5941368,37.287921 26.0734343,39.8086235 22.963468,39.8086235 Z" id="Shape"></path>
                    <path d="M6.07080189,39.8086235 C2.96083566,39.8086235 0.440133137,37.2872611 0.440133137,34.1779548 L0.440133137,6.02329127 C0.440133137,2.91332504 2.96149553,0.392622514 6.07080189,0.392622514 C9.18010825,0.392622514 11.7014706,2.91398491 11.7014706,6.02329127 L11.7014706,34.1779548 C11.7014706,37.287921 9.18076812,39.8086235 6.07080189,39.8086235 Z" id="Shape"></path>
                </g>
                <path d="M282.248077,191.798407 L213.26991,191.798407 C210.548607,191.798407 208.342662,193.931766 208.342662,196.562667 L208.342662,248.973484 C208.342662,251.605044 210.548607,253.737743 213.26991,253.737743 L282.248077,253.737743 C284.96938,253.737743 287.175324,251.604384 287.175324,248.973484 L287.175324,196.562667 C287.175324,193.931766 284.96938,191.798407 282.248077,191.798407 Z" id="Shape" fill="#0066CC"></path>
                <path d="M218.900579,248.107075 C216.179276,248.107075 213.973331,245.973716 213.973331,243.342815 L213.973331,191.798407 L213.26991,191.798407 C210.548607,191.798407 208.342662,193.931766 208.342662,196.562667 L208.342662,248.972824 C208.342662,251.604384 210.548607,253.737083 213.26991,253.737083 L282.248077,253.737083 C284.96938,253.737083 287.175324,251.603725 287.175324,248.972824 L287.175324,248.106415 L218.900579,248.106415 L218.900579,248.107075 Z" id="Shape" fill="#004080"></path>
                <g id="Group" transform="translate(225.015592, 202.580020)" fill="#004D99">
                    <path d="M22.7437314,39.8963862 C19.6337652,39.8963862 17.1130626,37.3750238 17.1130626,34.2657175 L17.1130626,6.11105395 C17.1130626,3.00108772 19.634425,0.480385193 22.7437314,0.480385193 C25.8536976,0.480385193 28.3744001,3.00174759 28.3744001,6.11105395 L28.3744001,34.2657175 C28.3744001,37.3756837 25.8530378,39.8963862 22.7437314,39.8963862 Z" id="Shape"></path>
                    <path d="M5.85106526,39.8963862 C2.74109903,39.8963862 0.220396503,37.3750238 0.220396503,34.2657175 L0.220396503,6.11105395 C0.220396503,3.00108772 2.7417589,0.480385193 5.85106526,0.480385193 C8.96103149,0.480385193 11.481734,3.00174759 11.481734,6.11105395 L11.481734,34.2657175 C11.481734,37.3756837 8.96037162,39.8963862 5.85106526,39.8963862 Z" id="Shape"></path>
                </g>
                <path d="M276.617408,107.335077 L207.639241,107.335077 C204.917938,107.335077 202.711994,109.468436 202.711994,112.099337 L202.711994,164.510153 C202.711994,167.141714 204.917938,169.274413 207.639241,169.274413 L276.617408,169.274413 C279.338711,169.274413 281.544656,167.141054 281.544656,164.510153 L281.544656,112.099337 C281.544656,109.468436 279.338711,107.335077 276.617408,107.335077 Z" id="Shape" fill="#66A5E3"></path>
                <g id="Group" transform="translate(202.580020, 106.898903)" fill="#2079D4">
                    <path d="M10.6898903,56.7448411 C7.96858735,56.7448411 5.76264271,54.6114821 5.76264271,51.9805813 L5.76264271,0.436173919 L5.05856166,0.436173919 C2.33725873,0.436173919 0.131314084,2.56953289 0.131314084,5.20043366 L0.131314084,57.6105902 C0.131314084,60.2421509 2.33725873,62.37485 5.05856166,62.37485 L74.0373883,62.37485 C76.7586912,62.37485 78.9646359,60.241491 78.9646359,57.6105902 L78.9646359,56.7441812 L10.6898903,56.7441812 L10.6898903,56.7448411 Z" id="Shape"></path>
                    <path d="M39.547975,51.1141723 C36.4380087,51.1141723 33.9173062,48.5928099 33.9173062,45.4835036 L33.9173062,17.3288401 C33.9173062,14.2188738 36.4386686,11.6981713 39.547975,11.6981713 C42.6572813,11.6981713 45.1786437,14.2195337 45.1786437,17.3288401 L45.1786437,45.4835036 C45.1793036,48.5934698 42.6579412,51.1141723 39.547975,51.1141723 Z" id="Shape"></path>
                    <path d="M22.6553088,51.1141723 C19.5453426,51.1141723 17.0246401,48.5928099 17.0246401,45.4835036 L17.0246401,17.3288401 C17.0246401,14.2188738 19.5460025,11.6981713 22.6553088,11.6981713 C25.7652751,11.6981713 28.2859776,14.2195337 28.2859776,17.3288401 L28.2859776,45.4835036 C28.2866375,48.5934698 25.7652751,51.1141723 22.6553088,51.1141723 Z" id="Shape"></path>
                </g>
                <path d="M321.664738,253.738403 L252.685911,253.738403 C249.964608,253.738403 247.758663,255.871762 247.758663,258.502663 L247.758663,310.913479 C247.758663,313.54504 249.964608,315.677739 252.685911,315.677739 L321.664078,315.677739 C324.385381,315.677739 326.591325,313.54438 326.591325,310.913479 L326.591325,258.502663 C326.591325,255.871762 324.385381,253.738403 321.664738,253.738403 Z" id="Shape" fill="#66A5E3"></path>
                <g id="Group" transform="translate(247.451164, 253.389992)" fill="#2079D4">
                    <path d="M10.8660755,56.6570784 C8.14477258,56.6570784 5.93882794,54.5237194 5.93882794,51.8928186 L5.93882794,0.348411239 L5.23474689,0.348411239 C2.51344396,0.348411239 0.307499313,2.48177021 0.307499313,5.11267098 L0.307499313,57.5228275 C0.307499313,60.1543882 2.51344396,62.2870873 5.23474689,62.2870873 L74.2129136,62.2870873 C76.9342166,62.2870873 79.1401612,60.1537283 79.1401612,57.5228275 L79.1401612,56.6564185 L10.8660755,56.6564185 L10.8660755,56.6570784 Z" id="Shape"></path>
                    <path d="M39.7241602,51.0264096 C36.614194,51.0264096 34.0934914,48.5050472 34.0934914,45.3957409 L34.0934914,17.2410774 C34.0934914,14.1311111 36.6148538,11.6104086 39.7241602,11.6104086 C42.8341264,11.6104086 45.354829,14.131771 45.354829,17.2410774 L45.354829,45.3957409 C45.354829,48.5057071 42.8341264,51.0264096 39.7241602,51.0264096 Z" id="Shape"></path>
                    <path d="M22.8314941,51.0264096 C19.7215278,51.0264096 17.2008253,48.5050472 17.2008253,45.3957409 L17.2008253,17.2410774 C17.2008253,14.1311111 19.7221877,11.6104086 22.8314941,11.6104086 C25.9414603,11.6104086 28.4621628,14.131771 28.4621628,17.2410774 L28.4621628,45.3957409 C28.4621628,48.5057071 25.9414603,51.0264096 22.8314941,51.0264096 Z" id="Shape"></path>
                </g>
                <path d="M242.832076,253.738403 L173.853909,253.738403 C171.132606,253.738403 168.926661,255.871762 168.926661,258.502663 L168.926661,310.913479 C168.926661,313.54504 171.132606,315.677739 173.853909,315.677739 L242.832076,315.677739 C245.553379,315.677739 247.759323,313.54438 247.759323,310.913479 L247.759323,258.502663 C247.759323,255.871762 245.553379,253.738403 242.832076,253.738403 Z" id="Shape" fill="#0066CC"></path>
                <path d="M179.484578,310.04707 C176.763275,310.04707 174.55733,307.913711 174.55733,305.282811 L174.55733,253.738403 L173.853249,253.738403 C171.131946,253.738403 168.926001,255.871762 168.926001,258.502663 L168.926001,310.91282 C168.926001,313.54438 171.131946,315.677079 173.853249,315.677079 L242.832076,315.677079 C245.553379,315.677079 247.759323,313.54372 247.759323,310.91282 L247.759323,310.046411 L179.484578,310.046411 L179.484578,310.04707 Z" id="Shape" fill="#004080"></path>
                <g id="Group" transform="translate(185.423406, 264.607778)" fill="#004D99">
                    <path d="M22.9192567,39.8086235 C19.8092905,39.8086235 17.288588,37.2872611 17.288588,34.1779548 L17.288588,6.02329127 C17.288588,2.91332504 19.8099504,0.392622514 22.9192567,0.392622514 C26.029223,0.392622514 28.5499255,2.91398491 28.5499255,6.02329127 L28.5499255,34.1779548 C28.5505854,37.287921 26.029223,39.8086235 22.9192567,39.8086235 Z" id="Shape"></path>
                    <path d="M6.02659062,39.8086235 C2.91662439,39.8086235 0.395921862,37.2872611 0.395921862,34.1779548 L0.395921862,6.02329127 C0.395921862,2.91332504 2.91728426,0.392622514 6.02659062,0.392622514 C9.13655685,0.392622514 11.6572594,2.91398491 11.6572594,6.02329127 L11.6572594,34.1779548 C11.6579192,37.287921 9.13655685,39.8086235 6.02659062,39.8086235 Z" id="Shape"></path>
                </g>
                <path d="M332.222654,326.939737 L5.63066875,326.939737 C2.52070252,326.939737 0,324.418374 0,321.309068 C0,318.199102 2.52136239,315.678399 5.63066875,315.678399 L332.221994,315.678399 C335.33196,315.678399 337.852663,318.199761 337.852663,321.309068 C337.853323,324.418374 335.33196,326.939737 332.222654,326.939737 Z" id="Shape" fill="#D6DEE8"></path>
                <g id="Group-45" transform="translate(101.000000, 18.000000)">
                    <path d="M51.0339952,0.241077372 L5.98666555,0.241077372 C2.87669932,0.241077372 0.355996798,2.76243977 0.355996798,5.87174613 L0.355996798,34.0264096 C0.355996798,37.1363759 2.87735919,39.6570784 5.98666555,39.6570784 L51.0339952,39.6570784 C54.1439614,39.6570784 56.664664,37.135716 56.664664,34.0264096 L56.664664,5.87174613 C56.664664,2.76243977 54.1439614,0.241077372 51.0339952,0.241077372 Z" id="Shape" fill="#65DDE0"></path>
                    <path d="M11.6179942,34.0264096 L11.6179942,5.87174613 C11.6179942,2.7617799 14.1393566,0.241077372 17.2486629,0.241077372 L5.98666555,0.241077372 C2.87669932,0.241077372 0.355996798,2.76243977 0.355996798,5.87174613 L0.355996798,34.0264096 C0.355996798,37.1363759 2.87735919,39.6570784 5.98666555,39.6570784 L17.2486629,39.6570784 C14.1386967,39.6570784 11.6179942,37.1363759 11.6179942,34.0264096 Z" id="Shape" fill="#00C5CA"></path>
                    <rect id="Rectangle-path" fill-opacity="0.5" fill="#FFFFFF" x="0.355996798" y="11.5024149" width="56.3086672" height="16.8926661"></rect>
                </g>
            </g>
            <text id="IT" font-family="TitilliumWeb-Bold, Titillium Web" font-size="20" font-weight="bold" fill="#2079D4">
                <tspan x="254.905089" y="265.217619">IT</tspan>
            </text>
            <text id="IT-Copy-2" font-family="TitilliumWeb-Bold, Titillium Web" font-size="20" font-weight="bold" fill="#004D99">
                <tspan x="261.405089" y="349.114348">IT</tspan>
            </text>
            <text id="IT-Copy-3" font-family="TitilliumWeb-Bold, Titillium Web" font-size="20" font-weight="bold" fill="#004D99">
                <tspan x="63.5749926" y="410.885497">IT</tspan>
            </text>
            <text id="IT-Copy-4" font-family="TitilliumWeb-Bold, Titillium Web" font-size="20" font-weight="bold" fill="#004D99">
                <tspan x="220.604861" y="410.885497">IT</tspan>
            </text>
            <text id="IT-Copy" font-family="TitilliumWeb-Bold, Titillium Web" font-size="20" font-weight="bold" fill="#2079D4">
                <tspan x="301.194107" y="410.885497">IT</tspan>
            </text>
            <g id="Group-47" transform="translate(126.844811, 0.000000)">
                <circle id="Oval-7" fill="#0073E6" cx="32.4962633" cy="32.4962633" r="22.7473843"></circle>
                <circle id="Oval-7" fill="#0073E6" opacity="0.400000006" cx="32.4957719" cy="32.4957719" r="32.3662783"></circle>
                <path d="M22.3184336,34.5452252 L22.3184336,31.9130278 L26.0254448,31.9130278 L26.0254448,28.2279516 L28.6576422,28.2279516 L28.6576422,31.9130278 L32.4085234,31.9130278 L32.4085234,34.5452252 L28.6576422,34.5452252 L28.6576422,38.2741714 L26.0254448,38.2741714 L26.0254448,34.5452252 L22.3184336,34.5452252 Z M42.6740929,24.2577206 L42.6740929,38.7348059 L39.647066,38.7348059 L39.647066,27.6795771 L36.5103642,29.6975951 L35.1284606,27.4382924 L39.9102857,24.2577206 L42.6740929,24.2577206 Z" id="+1" fill="#FFFFFF"></path>
            </g>
            <g id="Group-46" transform="translate(220.000000, 29.160795)">
                <ellipse id="Oval-7-Copy" fill="#0073E6" cx="12.528" cy="13" rx="12.528" ry="12.3181445"></ellipse>
                <path d="M6.92261486,14.6510713 L6.92261486,13.225686 L8.96423143,13.225686 L8.96423143,11.2301466 L10.4139,11.2301466 L10.4139,13.225686 L12.4796777,13.225686 L12.4796777,14.6510713 L10.4139,14.6510713 L10.4139,16.6703671 L8.96423143,16.6703671 L8.96423143,14.6510713 L6.92261486,14.6510713 Z M18.1333851,9.08019046 L18.1333851,16.9198095 L16.4662663,16.9198095 L16.4662663,10.9331913 L14.7387446,12.0259867 L13.9776686,10.802531 L16.6112331,9.08019046 L18.1333851,9.08019046 Z" id="+1-copy" fill="#FFFFFF"></path>
            </g>
            <g id="Group-48" transform="translate(177.000000, 61.342141)">
                <ellipse id="Oval-7-Copy-2" fill="#004080" cx="21.0664393" cy="20.9386497" rx="21.0664393" ry="20.713557"></ellipse>
                <path d="M11.6407124,22.7150061 L11.6407124,20.3181517 L15.0737897,20.3181517 L15.0737897,16.9625554 L17.5114776,16.9625554 L17.5114776,20.3181517 L20.985183,20.3181517 L20.985183,22.7150061 L17.5114776,22.7150061 L17.5114776,26.1105499 L15.0737897,26.1105499 L15.0737897,22.7150061 L11.6407124,22.7150061 Z M30.4921661,13.3473 L30.4921661,26.5299995 L27.6888249,26.5299995 L27.6888249,16.4632108 L24.7839134,18.3007992 L23.5041272,16.2434991 L27.9325937,13.3473 L30.4921661,13.3473 Z" id="+1-copy-2" fill="#FFFFFF"></path>
            </g>
        </g>
    </g>
</svg>
