<?xml version="1.0" encoding="UTF-8"?>
<svg width="466px" height="471px" viewBox="0 0 466 471" version="1.1" xmlns="http://www.w3.org/2000/svg" xmlns:xlink="http://www.w3.org/1999/xlink">
    <!-- Generator: Sketch 50 (54983) - http://www.bohemiancoding.com/sketch -->
    <title>Group 2</title>
    <desc>Created with Sketch.</desc>
    <defs></defs>
    <g id="Page-1" stroke="none" stroke-width="1" fill="none" fill-rule="evenodd">
        <g id="Group-2">
            <g id="Group-55" transform="translate(287.000000, 173.970149)">
                <g id="Group" transform="translate(0.175986, 0.328643)">
                    <path d="M178.805139,208.339417 C178.805139,210.610901 176.965202,212.450838 174.693718,212.450838 L4.11142061,212.450838 C1.83993681,212.450838 0,210.610901 0,208.339417 L0,4.11191951 C0,1.8404357 1.83993681,0.000498898266 4.11142061,0.000498898266 L174.693219,0.000498898266 C176.965202,0.000498898266 178.805139,1.8404357 178.805139,4.11191951 L178.805139,208.339417 Z" id="Fill-1" fill-opacity="0.3" fill="#8EBEED"></path>
                    <path d="M178.805139,35.5455037 L0,35.5455037 L0,4.11191951 C0,1.8404357 1.83993681,0.000498898266 4.11142061,0.000498898266 L174.693219,0.000498898266 C176.965202,0.000498898266 178.805139,1.8404357 178.805139,4.11191951 L178.805139,35.5455037 Z" id="Fill-2" fill="#17324D"></path>
                    <path d="M178.803642,28.8662537 L0.0014966948,28.8662537 L0.0014966948,4.11142061 C0.0014966948,1.8409346 1.8419324,0.000498898266 4.11241841,0.000498898266 L174.69272,0.000498898266 C176.963206,0.000498898266 178.803642,1.8409346 178.803642,4.11142061 L178.803642,28.8662537" id="Fill-3" fill="#455B71"></path>
                    <path d="M15.0986998,19.1836361 L14.535333,19.1836361 C12.561699,19.1836361 10.9617927,17.457947 10.9617927,15.3291481 C10.9617927,13.2003492 12.561699,11.4746601 14.535333,11.4746601 L15.0986998,11.4746601 C17.0723339,11.4746601 18.6722402,13.2003492 18.6722402,15.3291481 C18.6722402,17.457947 17.0727964,19.1836361 15.0986998,19.1836361" id="Fill-4" fill-opacity="0.400000006" fill="#FFFFFF"></path>
                    <path d="M30.780231,19.1836361 L30.2168642,19.1836361 C28.2432301,19.1836361 26.6433239,17.457947 26.6433239,15.3291481 C26.6433239,13.2003492 28.2432301,11.4746601 30.2168642,11.4746601 L30.780231,11.4746601 C32.753865,11.4746601 34.3537713,13.2003492 34.3537713,15.3291481 C34.3537713,17.457947 32.7543276,19.1836361 30.780231,19.1836361" id="Fill-4-Copy" fill-opacity="0.400000006" fill="#FFFFFF"></path>
                    <path d="M46.2264594,19.1836361 L45.6630926,19.1836361 C43.6894585,19.1836361 42.0895522,17.457947 42.0895522,15.3291481 C42.0895522,13.2003492 43.6894585,11.4746601 45.6630926,11.4746601 L46.2264594,11.4746601 C48.2000934,11.4746601 49.7999997,13.2003492 49.7999997,15.3291481 C49.7999997,17.457947 48.2005559,19.1836361 46.2264594,19.1836361" id="Fill-4-Copy-2" fill-opacity="0.400000006" fill="#FFFFFF"></path>
                    <path d="M130.915894,60.5433002 L24.3891406,60.5433002 C22.2603417,60.5433002 20.5346526,58.8176111 20.5346526,56.6888122 C20.5346526,54.5595144 22.2603417,52.8343242 24.3891406,52.8343242 L130.915894,52.8343242 C133.044693,52.8343242 134.770382,54.5600133 134.770382,56.6888122 C134.770382,58.8176111 133.044693,60.5433002 130.915894,60.5433002" id="Fill-7" fill="#66A5E3"></path>
                    <path d="M67.5278759,75.3675633 L24.3891406,75.3675633 C22.2603417,75.3675633 20.5346526,73.6418742 20.5346526,71.5130753 C20.5346526,69.3837775 22.2603417,67.6585873 24.3891406,67.6585873 L67.5278759,67.6585873 C69.6566748,67.6585873 71.3823639,69.3842764 71.3823639,71.5130753 C71.3828628,73.6418742 69.6566748,75.3675633 67.5278759,75.3675633" id="Fill-8" fill="#66A5E3"></path>
                    <path d="M54.5482892,103.345778 C52.4194903,103.345778 50.6938012,101.620089 50.6938012,99.4912901 C50.6938012,97.3619923 52.4194903,95.6368021 54.5482892,95.6368021 L154.728558,95.6368021 C156.857357,95.6368021 158.583046,97.3624912 158.583046,99.4912901 C158.583046,101.620089 156.857357,103.345778 154.728558,103.345778 L54.5482892,103.345778 Z" id="Fill-12" fill="#66A5E3" opacity="0.400000006"></path>
                    <path d="M54.5482892,138.455245 C52.4194903,138.455245 50.6938012,136.729556 50.6938012,134.600757 C50.6938012,132.471459 52.4194903,130.746269 54.5482892,130.746269 L154.728558,130.746269 C156.857357,130.746269 158.583046,132.471958 158.583046,134.600757 C158.583046,136.729556 156.857357,138.455245 154.728558,138.455245 L54.5482892,138.455245 Z" id="Fill-12-Copy" fill="#66A5E3" opacity="0.400000006"></path>
                    <path d="M54.5482892,173.380618 C52.4194903,173.380618 50.6938012,171.654929 50.6938012,169.52613 C50.6938012,167.396832 52.4194903,165.671642 54.5482892,165.671642 L154.728558,165.671642 C156.857357,165.671642 158.583046,167.397331 158.583046,169.52613 C158.583046,171.654929 156.857357,173.380618 154.728558,173.380618 L54.5482892,173.380618 Z" id="Fill-12-Copy-3" fill="#66A5E3" opacity="0.400000006"></path>
                    <path d="M54.5482892,115.883092 C52.4194903,115.883092 50.6938012,114.157402 50.6938012,112.028604 C50.6938012,109.899306 52.4194903,108.174115 54.5482892,108.174115 L133.23602,108.174115 C135.364819,108.174115 137.090508,109.899805 137.090508,112.028604 C137.090508,114.157402 135.364819,115.883092 133.23602,115.883092 L54.5482892,115.883092 Z" id="Fill-12" fill="#66A5E3" opacity="0.400000006"></path>
                    <path d="M54.5482892,150.992558 C52.4194903,150.992558 50.6938012,149.266869 50.6938012,147.13807 C50.6938012,145.008772 52.4194903,143.283582 54.5482892,143.283582 L104.579304,143.283582 C106.708103,143.283582 108.433792,145.009271 108.433792,147.13807 C108.433792,149.266869 106.708103,150.992558 104.579304,150.992558 L54.5482892,150.992558 Z" id="Fill-12-Copy-2" fill="#66A5E3" opacity="0.400000006"></path>
                    <path d="M54.5482892,185.917931 C52.4194903,185.917931 50.6938012,184.192242 50.6938012,182.063443 C50.6938012,179.934145 52.4194903,178.208955 54.5482892,178.208955 L140.4002,178.208955 C142.528998,178.208955 144.254688,179.934644 144.254688,182.063443 C144.254688,184.192242 142.528998,185.917931 140.4002,185.917931 L54.5482892,185.917931 Z" id="Fill-12-Copy-4" fill="#66A5E3" opacity="0.400000006"></path>
                    <path d="M30.4985476,95.6368021 C36.1739471,95.6368021 40.7750023,100.237857 40.7750023,105.913257 C40.7750023,111.588656 36.1739471,116.189711 30.4985476,116.189711 C24.8231481,116.189711 20.2220929,111.588656 20.2220929,105.913257 C20.2220929,100.237857 24.8231481,95.6368021 30.4985476,95.6368021" id="Fill-23" fill="#FFFFFF"></path>
                    <path d="M30.4985476,130.746269 C36.1739471,130.746269 40.7750023,135.347324 40.7750023,141.022723 C40.7750023,146.698123 36.1739471,151.299178 30.4985476,151.299178 C24.8231481,151.299178 20.2220929,146.698123 20.2220929,141.022723 C20.2220929,135.347324 24.8231481,130.746269 30.4985476,130.746269" id="Fill-23-Copy" fill="#FFFFFF"></path>
                    <path d="M30.4985476,165.671642 C36.1739471,165.671642 40.7750023,170.272697 40.7750023,175.948096 C40.7750023,181.623496 36.1739471,186.224551 30.4985476,186.224551 C24.8231481,186.224551 20.2220929,181.623496 20.2220929,175.948096 C20.2220929,170.272697 24.8231481,165.671642 30.4985476,165.671642" id="Fill-23-Copy-2" fill="#FFFFFF"></path>
                </g>
                <path d="M30.6731698,100.820018 C27.4814404,100.819386 24.8935213,103.406289 24.8928889,106.598018 C24.8924824,108.68292 26.0150734,110.606413 27.830569,111.631508 C27.8860357,111.663465 27.9520718,111.67164 28.0136588,111.65416 C28.0748167,111.637087 28.1267603,111.596571 28.1581974,111.54142 L29.9408331,108.390952 C30.0062143,108.275186 29.9654725,108.128343 29.8497738,108.062849 C29.0377828,107.606785 28.7492701,106.578799 29.2053347,105.766808 C29.6614219,104.954817 30.6893852,104.666282 31.5013762,105.122369 C32.3133671,105.578433 32.6019024,106.606419 32.1458152,107.41841 C31.9942304,107.688291 31.7712795,107.911264 31.5013762,108.062849 C31.3856775,108.128343 31.3449357,108.275186 31.4103168,108.390952 L33.1881421,111.54142 C33.2194889,111.596751 33.2714551,111.637448 33.3326807,111.654634 C33.3536614,111.66071 33.3753874,111.663804 33.3972489,111.663781 C33.4387811,111.663736 33.4796133,111.652963 33.5157705,111.632479 C36.2955873,110.064122 37.2776822,106.539231 35.7093476,103.759415 C34.6842073,101.942428 32.7593818,100.818979 30.6731698,100.820018" id="Fill-1-Copy" fill="#004080"></path>
                <path d="M30.6731698,135.929485 C27.4814404,135.928852 24.8935213,138.515755 24.8928889,141.707485 C24.8924824,143.792387 26.0150734,145.71588 27.830569,146.740975 C27.8860357,146.772931 27.9520718,146.781107 28.0136588,146.763627 C28.0748167,146.746553 28.1267603,146.706037 28.1581974,146.650887 L29.9408331,143.500419 C30.0062143,143.384652 29.9654725,143.23781 29.8497738,143.172316 C29.0377828,142.716251 28.7492701,141.688265 29.2053347,140.876274 C29.6614219,140.064283 30.6893852,139.775748 31.5013762,140.231835 C32.3133671,140.6879 32.6019024,141.715886 32.1458152,142.527877 C31.9942304,142.797758 31.7712795,143.020731 31.5013762,143.172316 C31.3856775,143.23781 31.3449357,143.384652 31.4103168,143.500419 L33.1881421,146.650887 C33.2194889,146.706218 33.2714551,146.746915 33.3326807,146.764101 C33.3536614,146.770176 33.3753874,146.77327 33.3972489,146.773248 C33.4387811,146.773202 33.4796133,146.76243 33.5157705,146.741946 C36.2955873,145.173589 37.2776822,141.648698 35.7093476,138.868881 C34.6842073,137.051895 32.7593818,135.928446 30.6731698,135.929485" id="Fill-1-Copy-2" fill="#00C5CA"></path>
                <path d="M30.6731698,170.854858 C27.4814404,170.854225 24.8935213,173.441128 24.8928889,176.632858 C24.8924824,178.71776 26.0150734,180.641253 27.830569,181.666348 C27.8860357,181.698305 27.9520718,181.70648 28.0136588,181.689 C28.0748167,181.671926 28.1267603,181.63141 28.1581974,181.57626 L29.9408331,178.425792 C30.0062143,178.310025 29.9654725,178.163183 29.8497738,178.097689 C29.0377828,177.641624 28.7492701,176.613639 29.2053347,175.801648 C29.6614219,174.989657 30.6893852,174.701121 31.5013762,175.157208 C32.3133671,175.613273 32.6019024,176.641259 32.1458152,177.45325 C31.9942304,177.723131 31.7712795,177.946104 31.5013762,178.097689 C31.3856775,178.163183 31.3449357,178.310025 31.4103168,178.425792 L33.1881421,181.57626 C33.2194889,181.631591 33.2714551,181.672288 33.3326807,181.689474 C33.3536614,181.695549 33.3753874,181.698643 33.3972489,181.698621 C33.4387811,181.698576 33.4796133,181.687803 33.5157705,181.667319 C36.2955873,180.098962 37.2776822,176.574071 35.7093476,173.794254 C34.6842073,171.977268 32.7593818,170.853819 30.6731698,170.854858" id="Fill-1-Copy-3" fill="#0066CC"></path>
            </g>
            <g id="Group">
                <path d="M89.8088248,39.9496231 C124.393171,39.9496231 152.429667,67.9861197 152.429667,102.570466 C152.429667,137.154812 124.393171,165.191308 89.8088248,165.191308 C55.2244789,165.191308 27.1879823,137.154812 27.1879823,102.570466 C27.1879823,67.9861197 55.2244789,39.9496231 89.8088248,39.9496231" id="Fill-1" fill="#F0F6FC"></path>
                <polyline id="Fill-2" fill="#D6DEE8" points="168.523902 60.9301996 165.228027 55.221286 93.1047007 96.8619512 93.1047007 13.58102 86.512949 13.58102 86.512949 96.8619512 14.3896231 55.221286 11.0937472 60.9301996 83.2170732 102.570466 11.0937472 144.210732 14.3896231 149.919645 86.512949 108.27898 86.512949 191.559911 93.1047007 191.559911 93.1047007 108.27898 165.228027 149.919645 168.523902 144.210732 96.4005765 102.570466 168.523902 60.9301996"></polyline>
                <path d="M89.8088248,56.4290022 C115.292195,56.4290022 135.950288,77.0870953 135.950288,102.570466 C135.950288,128.053836 115.292195,148.711929 89.8088248,148.711929 C64.3254545,148.711929 43.6673614,128.053836 43.6673614,102.570466 C43.6673614,77.0870953 64.3254545,56.4290022 89.8088248,56.4290022" id="Fill-3" fill="#FFFFFE"></path>
                <path d="M169.73122,148.713126 L169.763548,148.713126 L169.73122,148.713126 Z M13.182306,146.810953 L89.8088248,191.049845 L166.435344,146.810953 L166.435344,58.3299778 L89.8088248,14.0910865 L13.182306,58.3299778 L13.182306,146.810953 Z M89.8088248,198.151663 C89.2392905,198.151663 88.669357,198.005188 88.1608869,197.710643 L8.23849224,151.567982 C7.2183592,150.978891 6.59055432,149.890909 6.59055432,148.713126 L6.59055432,56.4278049 C6.59055432,55.2496231 7.2183592,54.1620399 8.23849224,53.572949 L88.1608869,7.43028825 C89.1778271,6.84119734 90.4398226,6.84119734 91.4567627,7.43028825 L171.379157,53.572949 C172.39929,54.1620399 173.027095,55.2500222 173.027095,56.4278049 L173.027095,148.713126 C173.027095,149.891308 172.39929,150.978891 171.379157,151.567982 L91.4567627,197.710643 C90.9482927,198.005188 90.3783592,198.151663 89.8088248,198.151663 Z" id="Fill-4" fill="#D6DEE8"></path>
                <path d="M89.8088248,0.39751663 C95.26949,0.39751663 99.6964523,4.82447894 99.6964523,10.2851441 C99.6964523,15.7458093 95.26949,20.1727716 89.8088248,20.1727716 C84.3481596,20.1727716 79.9211973,15.7458093 79.9211973,10.2851441 C79.9211973,4.82447894 84.3481596,0.39751663 89.8088248,0.39751663" id="Fill-5" fill="#2079D4"></path>
                <path d="M89.8088248,184.969756 C95.26949,184.969756 99.6964523,189.396718 99.6964523,194.857384 C99.6964523,200.318049 95.26949,204.745011 89.8088248,204.745011 C84.3481596,204.745011 79.9211973,200.318049 79.9211973,194.857384 C79.9211973,189.396718 84.3481596,184.969756 89.8088248,184.969756" id="Fill-7" fill="#2079D4"></path>
                <path d="M9.88762749,46.5413747 C15.3482927,46.5413747 19.775255,50.968337 19.775255,56.4290022 C19.775255,61.8896674 15.3482927,66.3166297 9.88762749,66.3166297 C4.42696231,66.3166297 0,61.8896674 0,56.4290022 C0,50.968337 4.42696231,46.5413747 9.88762749,46.5413747" id="Fill-9" fill="#2079D4"></path>
                <path d="M169.73122,138.824302 C175.191885,138.824302 179.618847,143.251264 179.618847,148.711929 C179.618847,154.172594 175.191885,158.599557 169.73122,158.599557 C164.270554,158.599557 159.843592,154.172594 159.843592,148.711929 C159.843592,143.251264 164.270554,138.824302 169.73122,138.824302" id="Fill-11" fill="#2079D4"></path>
                <path d="M169.73122,46.5413747 C175.191885,46.5413747 179.618847,50.968337 179.618847,56.4290022 C179.618847,61.8896674 175.191885,66.3166297 169.73122,66.3166297 C164.270554,66.3166297 159.843592,61.8896674 159.843592,56.4290022 C159.843592,50.968337 164.270554,46.5413747 169.73122,46.5413747" id="Fill-13" fill="#2079D4"></path>
                <path d="M9.88762749,138.824302 C15.3482927,138.824302 19.775255,143.251264 19.775255,148.711929 C19.775255,154.172594 15.3482927,158.599557 9.88762749,158.599557 C4.42696231,158.599557 0,154.172594 0,148.711929 C0,143.251264 4.42696231,138.824302 9.88762749,138.824302" id="Fill-15" fill="#2079D4"></path>
                <path d="M89.8088248,63.0183592 C111.652683,63.0183592 129.360931,80.7266075 129.360931,102.570466 C129.360931,124.414324 111.652683,142.122572 89.8088248,142.122572 C67.9649667,142.122572 50.2567184,124.414324 50.2567184,102.570466 C50.2567184,80.7266075 67.9649667,63.0183592 89.8088248,63.0183592" id="Fill-17" fill="#66A5E3"></path>
                <path d="M93.1047007,99.4725499 L93.1047007,86.0072727 C97.9279823,85.8815521 102.68541,85.4944124 107.359823,84.8358758 C108.524035,89.3219069 109.27357,94.2681153 109.498271,99.4725499 L93.1047007,99.4725499 Z M107.453215,120.317029 C102.748869,119.65051 97.9599113,119.260177 93.1047007,119.133659 L93.1047007,106.064302 L109.498271,106.064302 C109.279557,111.121863 108.561951,115.931574 107.453215,120.317029 Z M93.1047007,141.893082 L93.1047007,125.72541 C97.2750333,125.839956 101.391086,126.168027 105.444479,126.704435 C102.444745,134.529845 98.0624834,140.135388 93.1047007,141.893082 Z M93.1047007,63.6437694 C97.983459,65.3731264 102.30745,70.8238137 105.303193,78.4544568 C101.295299,78.9796896 97.2267406,79.3017738 93.1047007,79.415122 L93.1047007,63.6437694 Z M86.512949,79.4155211 C82.3909091,79.3021729 78.3223503,78.9800887 74.3144568,78.4548559 C77.3098004,70.8242129 81.6337916,65.3731264 86.512949,63.6441685 L86.512949,79.4155211 Z M86.512949,99.4725499 L70.1193792,99.4725499 C70.3440798,94.2681153 71.0936142,89.322306 72.2578271,84.8362749 C76.9322395,85.4948115 81.6896674,85.8815521 86.512949,86.0072727 L86.512949,99.4725499 Z M86.512949,119.133659 C81.6577384,119.260177 76.8687805,119.65051 72.1644346,120.317029 C71.0556984,115.931574 70.3380931,111.122262 70.1197783,106.064302 L86.5133481,106.064302 L86.5133481,119.133659 L86.512949,119.133659 Z M86.512949,141.893082 C81.5551663,140.135787 77.1729047,134.529845 74.1731707,126.704435 C78.2265632,126.168027 82.3426164,125.840355 86.512949,125.72541 L86.512949,141.893082 Z M118.893792,75.8342794 C116.609268,76.4125942 114.308381,76.9490022 111.97357,77.3920177 C110.500443,73.3733481 108.680488,69.8024834 106.584745,66.7931707 C101.486075,64.397694 95.8150776,63.0199557 89.8088248,63.0199557 C83.8025721,63.0199557 78.1315743,64.397694 73.0329047,66.7931707 C70.9371619,69.8024834 69.1176053,73.3733481 67.6440798,77.3920177 C65.3092683,76.9490022 63.0083814,76.4121951 60.7238581,75.8342794 C59.1086475,77.5903769 57.6506874,79.4853659 56.3715299,81.5124612 C59.4403104,82.3637694 62.5474058,83.1216851 65.7051885,83.7399113 C64.4946785,88.5779601 63.748337,93.8729933 63.5332151,99.4725499 L50.4143681,99.4725499 C50.3345455,100.497871 50.2579157,101.524789 50.2579157,102.570466 C50.2579157,103.749845 50.3333481,104.910865 50.4343237,106.064302 L63.5332151,106.064302 C63.7427494,111.516186 64.4479823,116.685499 65.6030155,121.419379 C62.4799557,122.033614 59.4067849,122.785543 56.3711308,123.628071 C57.6502882,125.654767 59.107051,127.549357 60.7218625,129.305055 C62.9652772,128.737517 65.2246563,128.20949 67.5163636,127.772062 C68.9216408,131.686962 70.655388,135.182395 72.6485588,138.16337 C77.8450111,140.673792 83.6509091,142.121774 89.8084257,142.121774 C95.9659424,142.121774 101.772239,140.673792 106.968293,138.16337 C108.961463,135.182395 110.695211,131.686962 112.100488,127.772062 C114.392195,128.20949 116.651574,128.737517 118.894989,129.305055 C120.5098,127.549357 121.966962,125.654368 123.245721,123.628071 C120.210067,122.785942 117.137295,122.033614 114.013836,121.419379 C115.168869,116.685499 115.874102,111.516186 116.083237,106.064302 L129.182129,106.064302 C129.283503,104.910865 129.358537,103.749845 129.358537,102.570466 C129.358537,101.524789 129.281508,100.497871 129.202084,99.4725499 L116.083237,99.4725499 C115.868115,93.8725942 115.122173,88.5779601 113.911663,83.7399113 C117.069446,83.1216851 120.176541,82.3637694 123.245322,81.5124612 C121.966962,79.4853659 120.509002,77.5903769 118.893792,75.8342794 Z" id="Fill-19" fill="#FFFFFF" opacity="0.209709821"></path>
            </g>
            <g id="Group-46-Copy-2" transform="translate(94.540984, 309.000000)">
                <g id="Group-40-Copy">
                    <path d="M12.6023228,0.574356786 C5.70382406,0.574356786 0.079251148,6.16372693 0.079251148,13.0974284 C0.079251148,20.4742705 0.079251148,135.516065 0.079251148,141.223882 C0.079251148,148.123209 5.66903544,153.746954 12.6023228,153.746954 C18.7984228,153.746954 47.9641174,153.746954 54.1751269,153.746954 C69.6266541,153.746954 141.682564,153.746954 157.416956,153.746954 C161.695955,153.746954 165.52643,151.593373 167.801356,148.225504 C170.964635,143.543123 169.621546,139.34157 169.940028,134.679068 L169.940028,131.406039 C169.940028,84.3225535 169.940028,55.9644517 169.940028,13.0974284 C169.940028,6.19727309 164.349415,0.574356786 157.416956,0.574356786 C129.796041,0.574356786 40.3864125,0.574356786 12.6023228,0.574356786 Z" id="Fill-1" fill="#E6E9F2"></path>
                    <path d="M22.9440656,61.4138391 L16.5632546,61.4138391 C14.7952477,61.4138391 13.3618741,59.9808797 13.3618741,58.2124586 C13.3618741,56.4440375 14.7952477,55.0110781 16.5632546,55.0110781 L22.9436515,55.0110781 C24.7116584,55.0110781 26.145032,56.4444517 26.145032,58.2124586 C26.1454461,59.9808797 24.7120725,61.4138391 22.9440656,61.4138391" id="Fill-3" fill="#D6DEE8"></path>
                    <path d="M22.9440656,46.0472127 L16.5632546,46.0472127 C14.7952477,46.0472127 13.3618741,44.6142532 13.3618741,42.8458322 C13.3618741,41.0774111 14.7952477,39.6444517 16.5632546,39.6444517 L22.9436515,39.6444517 C24.7116584,39.6444517 26.145032,41.0778253 26.145032,42.8458322 C26.1454461,44.6138391 24.7120725,46.0472127 22.9440656,46.0472127" id="Fill-4" fill="#FFFFFF"></path>
                    <path d="M22.9440656,76.7808797 L16.5632546,76.7808797 C14.7952477,76.7808797 13.3618741,75.3479202 13.3618741,73.5794992 C13.3618741,71.8110781 14.7952477,70.3781187 16.5632546,70.3781187 L22.9436515,70.3781187 C24.7116584,70.3781187 26.145032,71.8114922 26.145032,73.5794992 C26.1454461,75.3479202 24.7120725,76.7808797 22.9440656,76.7808797" id="Fill-5" fill="#FFFFFF"></path>
                    <path d="M22.9440656,92.1479202 L16.5632546,92.1479202 C14.7952477,92.1479202 13.3618741,90.7149608 13.3618741,88.9465397 C13.3618741,87.1781187 14.7952477,85.7451592 16.5632546,85.7451592 L22.9436515,85.7451592 C24.7116584,85.7451592 26.145032,87.1785328 26.145032,88.9465397 C26.1454461,90.7145466 24.7120725,92.1479202 22.9440656,92.1479202" id="Fill-6" fill="#D6DEE8"></path>
                    <path d="M22.9440656,107.514547 L16.5632546,107.514547 C14.7952477,107.514547 13.3618741,106.081587 13.3618741,104.313166 C13.3618741,102.544745 14.7952477,101.111786 16.5632546,101.111786 L22.9436515,101.111786 C24.7116584,101.111786 26.145032,102.545159 26.145032,104.313166 C26.1454461,106.081587 24.7120725,107.514547 22.9440656,107.514547" id="Fill-7" fill="#FFFFFF"></path>
                    <path d="M22.9440656,122.881587 L16.5632546,122.881587 C14.7952477,122.881587 13.3618741,121.448628 13.3618741,119.680207 C13.3618741,117.911786 14.7952477,116.478826 16.5632546,116.478826 L22.9436515,116.478826 C24.7116584,116.478826 26.145032,117.9122 26.145032,119.680207 C26.1454461,121.448214 24.7120725,122.881587 22.9440656,122.881587" id="Fill-8" fill="#D6DEE8"></path>
                    <g id="Group-13" transform="translate(0.033280, 0.097256)">
                        <path d="M22.9107852,138.150958 L16.5299741,138.150958 C14.7619672,138.150958 13.3285936,136.717998 13.3285936,134.949577 C13.3285936,133.181156 14.7619672,131.748197 16.5299741,131.748197 L22.910371,131.748197 C24.6783779,131.748197 26.1117515,133.18157 26.1117515,134.949577 C26.1121657,136.717998 24.6787921,138.150958 22.9107852,138.150958" id="Fill-9" fill="#FFFFFF"></path>
                        <path d="M0.0459706644,6.47710095 L0.0459706644,24.3872304 L169.906747,24.3872304 L169.906747,6.47710095 C169.906747,3.16339245 167.220456,0.477100949 163.906747,0.477100949 L6.04597066,0.477100949 C2.73226217,0.477100949 0.0459706644,3.16339245 0.0459706644,6.47710095 Z" id="Fill-11" fill="#5A6772"></path>
                    </g>
                    <path d="M206.955524,98.439689 L58.7904159,98.439689 C55.9729526,98.439689 53.6682071,96.1345293 53.6682071,93.3174802 L53.6682071,58.7442274 C53.6682071,55.926764 55.9733668,53.6220186 58.7904159,53.6220186 L206.955524,53.6220186 C209.772987,53.6220186 212.077733,55.9271782 212.077733,58.7442274 L212.077733,93.3174802 C212.077733,96.1349435 209.772573,98.439689 206.955524,98.439689" id="Fill-14" fill="#2079D4"></path>
                    <path d="M206.955524,161.184676 L58.7904159,161.184676 C55.9729526,161.184676 53.6682071,158.879516 53.6682071,156.062467 L53.6682071,121.489214 C53.6682071,118.671751 55.9733668,116.367006 58.7904159,116.367006 L206.955524,116.367006 C209.772987,116.367006 212.077733,118.672165 212.077733,121.489214 L212.077733,156.062467 C212.077733,158.879931 209.772573,161.184676 206.955524,161.184676" id="Fill-15" fill="#8EBEED"></path>
                    <path d="M180.524048,86.9155475 L138.523013,86.9155475 C136.755006,86.9155475 135.321633,85.482588 135.321633,83.714167 C135.321633,81.9457459 136.755006,80.5127865 138.523013,80.5127865 L180.524048,80.5127865 C182.292055,80.5127865 183.725429,81.9457459 183.725429,83.714167 C183.725429,85.482588 182.292055,86.9155475 180.524048,86.9155475" id="Fill-18" fill="#004D99"></path>
                    <path d="M162.618268,71.5489211 L150.453022,71.5489211 C148.685015,71.5489211 147.251641,70.1159616 147.251641,68.3475406 C147.251641,66.5791195 148.685015,65.1461601 150.453022,65.1461601 L162.618268,65.1461601 C164.386274,65.1461601 165.819648,66.5791195 165.819648,68.3475406 C165.819648,70.1155475 164.386274,71.5489211 162.618268,71.5489211" id="Fill-19" fill="#F6F4F2"></path>
                    <path d="M194.690468,71.5489211 L174.890778,71.5489211 C173.122771,71.5489211 171.689398,70.1159616 171.689398,68.3475406 C171.689398,66.5791195 173.122771,65.1461601 174.890778,65.1461601 L194.690468,65.1461601 C196.458475,65.1461601 197.891848,66.5791195 197.891848,68.3475406 C197.891848,70.1155475 196.458475,71.5489211 194.690468,71.5489211" id="Fill-20" fill="#B4D4F4"></path>
                    <path d="M136.686671,71.5489211 L96.2420121,71.5489211 C94.4740052,71.5489211 93.0406316,70.1159616 93.0406316,68.3475406 C93.0406316,66.5791195 94.4740052,65.1461601 96.2420121,65.1461601 L136.686671,65.1461601 C138.454678,65.1461601 139.888052,66.5791195 139.888052,68.3475406 C139.888052,70.1155475 138.454678,71.5489211 136.686671,71.5489211" id="Fill-21" fill="#F6F4F2"></path>
                    <path d="M126.650985,86.9155475 L114.48574,86.9155475 C112.717733,86.9155475 111.284359,85.482588 111.284359,83.714167 C111.284359,81.9457459 112.717733,80.5127865 114.48574,80.5127865 L126.650985,80.5127865 C128.418992,80.5127865 129.852366,81.9457459 129.852366,83.714167 C129.85278,85.482588 128.419406,86.9155475 126.650985,86.9155475" id="Fill-22" fill="#B4D4F4"></path>
                    <path d="M102.040114,86.9155475 L95.6597171,86.9155475 C93.8917102,86.9155475 92.4583366,85.482588 92.4583366,83.714167 C92.4583366,81.9457459 93.8917102,80.5127865 95.6597171,80.5127865 L102.040114,80.5127865 C103.808121,80.5127865 105.241494,81.9457459 105.241494,83.714167 C105.241494,85.482588 103.808121,86.9155475 102.040114,86.9155475" id="Fill-23" fill="#F6F4F2"></path>
                    <path d="M79.7344021,86.9155475 L73.3540052,86.9155475 C71.5859983,86.9155475 70.1526247,85.482588 70.1526247,83.714167 C70.1526247,81.9457459 71.5859983,80.5127865 73.3540052,80.5127865 L79.7344021,80.5127865 C81.502409,80.5127865 82.9357826,81.9457459 82.9357826,83.714167 C82.9361968,85.482588 81.5028232,86.9155475 79.7344021,86.9155475" id="Fill-24" fill="#B4D4F4"></path>
                    <path d="M79.7344021,71.5489211 L73.3540052,71.5489211 C71.5859983,71.5489211 70.1526247,70.1159616 70.1526247,68.3475406 C70.1526247,66.5791195 71.5859983,65.1461601 73.3540052,65.1461601 L79.7344021,65.1461601 C81.502409,65.1461601 82.9357826,66.5791195 82.9357826,68.3475406 C82.9361968,70.1155475 81.5028232,71.5489211 79.7344021,71.5489211" id="Fill-25" fill="#004D99"></path>
                    <path d="M194.690882,86.9151333 C194.481736,86.9151333 194.27259,86.8935975 194.063444,86.85094 C193.85844,86.8124241 193.657991,86.7482308 193.465826,86.671613 C193.27366,86.5904396 193.085636,86.492286 192.910865,86.3767381 C192.735679,86.2574629 192.573746,86.1249349 192.424238,85.9758408 C192.279286,85.8308883 192.146758,85.6681273 192.027068,85.4888003 C191.911934,85.3181704 191.813781,85.1301463 191.732607,84.9379806 C191.65599,84.7462291 191.591796,84.5453663 191.55328,84.3407761 C191.425722,83.7162377 191.489916,83.1099219 191.732607,82.4882826 C191.813781,82.2961169 191.911934,82.1126484 192.027068,81.9374629 C192.146758,81.7622774 192.279286,81.5957891 192.424238,81.4504224 C192.573746,81.3013283 192.735679,81.1688003 192.910865,81.049525 C193.085636,80.9339771 193.27366,80.8362377 193.465826,80.7546501 C193.657991,80.6780324 193.85844,80.6138391 194.063444,80.5753231 C194.477595,80.4900082 194.904583,80.4900082 195.314178,80.5753231 C195.519182,80.6138391 195.719631,80.6780324 195.915938,80.7546501 C196.108104,80.8358236 196.295714,80.9339771 196.466758,81.049525 C196.641529,81.1688003 196.808017,81.3013283 196.953384,81.4504224 C197.102892,81.5953749 197.235006,81.7622774 197.350554,81.9374629 C197.465688,82.1126484 197.567983,82.2961169 197.645015,82.4882826 C197.726188,82.6845897 197.789967,82.8850384 197.828483,83.0896286 C197.871141,83.2946329 197.892677,83.5037787 197.892677,83.7133387 C197.892677,83.9220703 197.871555,84.1316303 197.828483,84.3407761 C197.789967,84.5453663 197.725774,84.7462291 197.645015,84.9379806 C197.567983,85.1301463 197.465688,85.3181704 197.350554,85.4888003 C197.23542,85.6681273 197.102892,85.8304741 196.953384,85.9758408 C196.808431,86.1249349 196.641943,86.2574629 196.466758,86.3767381 C196.295714,86.492286 196.108104,86.5900255 195.915938,86.671613 C195.719631,86.7482308 195.518768,86.8124241 195.314178,86.85094 C195.109173,86.8935975 194.900028,86.9151333 194.690882,86.9151333" id="Fill-26" fill="#F6F4F2"></path>
                    <path d="M76.7618396,148.234616 L68.8610976,140.333874 C67.6107783,139.08314 67.6107783,137.056704 68.8610976,135.80597 L76.7618396,127.905228 C78.0121588,126.655323 80.0390096,126.655323 81.2893288,127.905228 C82.539648,129.155962 82.539648,131.182398 81.2893288,132.433132 L75.6523314,138.069715 L81.2893288,143.706298 C82.539648,144.957032 82.539648,146.983468 81.2893288,148.234201 C80.0390096,149.484935 78.0121588,149.484521 76.7618396,148.234616" id="Fill-27" stroke="#8EBEED" stroke-width="1.32786885" fill="#F6F4F2"></path>
                    <path d="M105.425998,149.172252 C104.606809,149.172252 103.787206,148.859568 103.162254,148.234616 C101.911934,146.983882 101.911934,144.957446 103.162254,143.706712 L108.799251,138.070129 L103.162254,132.433546 C101.911934,131.182812 101.911934,129.156376 103.162254,127.905642 C104.412573,126.655737 106.439424,126.655737 107.689743,127.905642 L115.590485,135.806384 C116.840804,137.057118 116.840804,139.083554 115.590485,140.334288 L107.689743,148.23503 C107.06479,148.859568 106.245601,149.172252 105.425998,149.172252" id="Fill-28" stroke="#8EBEED" stroke-width="1.32786885" fill="#F6F4F2"></path>
                    <path d="M86.3485868,153.973908 C84.6870165,153.369249 83.830554,151.532079 84.4352132,149.870509 L93.3083797,125.490733 C93.9130389,123.829577 95.7497947,122.973528 97.4117792,123.577359 C99.0733495,124.182019 99.929812,126.019189 99.3251528,127.680759 L90.4519863,152.060535 C89.8518827,153.70761 88.0246524,154.582709 86.3485868,153.973908" id="Fill-29" stroke="#8EBEED" stroke-width="1.32786885" fill="#F6F4F2"></path>
                    <g id="Group-39" transform="translate(13.775817, 9.525453)">
                        <path d="M3.31003631,6.62012038 C2.46931154,6.62012038 1.64101129,6.27844652 1.0479483,5.68082788 C0.450329664,5.08735075 0.108655807,4.25946464 0.108655807,3.41873988 C0.108655807,0.819119513 3.01930292,-0.642830444 5.08591206,0.754926243 C5.26109757,0.87461563 5.42717177,1.00672952 5.57253846,1.15582357 C6.1701571,1.7493007 6.51141681,2.57718681 6.51141681,3.41832573 C6.51141681,4.25905049 6.1701571,5.0869366 5.57253846,5.68041373 C5.42717177,5.82950778 5.26109757,5.96203582 5.08591206,6.07716956 C4.91528221,6.19271744 4.72725805,6.29459837 4.53509239,6.37204445 C4.34292673,6.45280372 4.14247807,6.51699699 3.93747375,6.55551296 C3.72832794,6.59817042 3.51918212,6.62012038 3.31003631,6.62012038" id="Fill-30" fill="#DD414C"></path>
                        <path d="M14.1607697,6.62012038 C13.9516239,6.62012038 13.7420639,6.59858457 13.5374738,6.55592711 C13.3324694,6.51741114 13.1320208,6.45321787 12.9398551,6.3724586 C12.743548,6.29542667 12.5600794,6.19313159 12.3848939,6.07758371 C12.2097084,5.96244997 12.0477757,5.82992193 11.8982675,5.68082788 C11.3006489,5.08735075 10.9593892,4.25946464 10.9593892,3.41873988 C10.9593892,2.57760096 11.3006489,1.74971485 11.8982675,1.15623772 C12.0477757,1.00714367 12.2097084,0.87502978 12.3848939,0.755340393 C12.5600794,0.639792507 12.743548,0.542053076 12.9398551,0.460465501 C13.1320208,0.383847727 13.3324694,0.319654457 13.5374738,0.276996994 C13.9474824,0.195823568 14.3744712,0.195823568 14.7882071,0.276996994 C14.9932115,0.319654457 15.1936601,0.383847727 15.3858258,0.460465501 C15.5821329,0.541638926 15.7660156,0.639792507 15.940787,0.755340393 C16.1155583,0.87502978 16.2779052,1.00714367 16.4274134,1.15623772 C17.0208905,1.74971485 17.3667059,2.57760096 17.3667059,3.41873988 C17.3667059,4.25946464 17.0208905,5.08735075 16.4274134,5.68082788 C16.2783193,5.82992193 16.1159725,5.96244997 15.940787,6.07758371 C15.7656014,6.19313159 15.5821329,6.29501252 15.3858258,6.3724586 C15.1936601,6.45321787 14.9932115,6.51741114 14.7882071,6.55592711 C14.5790613,6.59817042 14.3699155,6.62012038 14.1607697,6.62012038" id="Fill-31" fill="#EEA03A"></path>
                        <path d="M25.0156446,6.62012038 C24.8064988,6.62012038 24.597353,6.59858457 24.3882071,6.55592711 C24.1832028,6.51741114 23.9827542,6.45321787 23.7905885,6.3724586 C23.598837,6.29542667 23.4108128,6.19313159 23.2356273,6.07758371 C23.0604418,5.96244997 22.8985091,5.82992193 22.7490009,5.68082788 C22.1559379,5.08735075 21.8142641,4.25946464 21.8142641,3.41873988 C21.8142641,3.20959406 21.8357999,3.00003409 21.8739017,2.79088828 C21.9165592,2.59043962 21.9761968,2.38584945 22.0573702,2.19368379 C22.1385436,2.00151813 22.2366972,1.81349397 22.351831,1.64286412 C22.4669647,1.46353711 22.6036342,1.30160441 22.7485868,1.15582357 C22.898095,1.00672952 23.0600277,0.87461563 23.2352132,0.754926243 C23.4103987,0.639378357 23.5980087,0.541638926 23.7901744,0.460051351 C23.98234,0.383433577 24.1832028,0.319240307 24.387793,0.276582843 C24.801529,0.195409418 25.2285178,0.195409418 25.6381122,0.276582843 C25.8431165,0.319240307 26.0435652,0.383433577 26.2357309,0.460051351 C26.4324522,0.541224776 26.6159207,0.639378357 26.790692,0.754926243 C26.9658776,0.87461563 27.1278103,1.00672952 27.2773184,1.15582357 C27.4264125,1.30119026 27.5589405,1.46353711 27.6740743,1.64286412 C27.789208,1.81349397 27.8919172,2.00151813 27.968535,2.19368379 C28.0497084,2.38584945 28.1093461,2.59043962 28.1520035,2.79088828 C28.194661,3.00003409 28.2157826,3.20959406 28.2157826,3.41873988 C28.2157826,4.26360614 27.8745229,5.08735075 27.2769043,5.68082788 C27.1273961,5.82992193 26.9654634,5.96244997 26.7902779,6.07758371 C26.6150924,6.19313159 26.4316239,6.29501252 26.2353167,6.3724586 C26.0431511,6.45321787 25.8427024,6.51741114 25.6376981,6.55592711 C25.4339362,6.59817042 25.2247904,6.62012038 25.0156446,6.62012038" id="Fill-32" fill="#6DAA43"></path>
                        <path d="M114.68039,6.61970623 L38.3442382,6.61970623 C36.5762313,6.61970623 35.1428577,5.18674678 35.1428577,3.41832573 C35.1428577,1.64990467 36.5762313,0.216945225 38.3442382,0.216945225 L114.68039,0.216945225 C116.448397,0.216945225 117.881771,1.65031882 117.881771,3.41832573 C117.881771,5.18633263 116.448397,6.61970623 114.68039,6.61970623" id="Fill-33" fill="#FFFFFF" opacity="0.2"></path>
                        <path d="M139.02869,6.61970623 L125.938647,6.61970623 C124.17064,6.61970623 122.737267,5.18674678 122.737267,3.41832573 C122.737267,1.64990467 124.17064,0.216945225 125.938647,0.216945225 L139.02869,0.216945225 C140.796697,0.216945225 142.230071,1.65031882 142.230071,3.41832573 C142.230071,5.18633263 140.796697,6.61970623 139.02869,6.61970623" id="Fill-34" fill="#FFFFFF" opacity="0.2"></path>
                    </g>
                </g>
            </g>
            <g id="Group-51" transform="translate(210.000000, 84.500000)">
                <path d="M23.0584502,-6.2624352e-16 L86.4,-7.10542736e-15 C88.3882251,-7.47065838e-15 90,1.6117749 90,3.6 L90,32.4 C90,34.3882251 88.3882251,36 86.4,36 L23.0584486,36 C20.9530206,36 18.914225,35.2618544 17.2967901,33.9139924 L1.51871635,20.7656017 C-0.00868067364,19.4927712 -0.215047651,17.2227384 1.05778281,15.6953413 C1.19717198,15.5280743 1.35144849,15.3737977 1.5187155,15.2344085 L17.2967895,2.08600937 C18.9142247,0.738146306 20.9530212,2.16311788e-15 23.0584502,1.77635684e-15 Z" id="Rectangle-20" fill="#004D99" opacity="0.200000018"></path>
                <path d="M41.9746656,25.9560062 L45.5548656,10.0440062 L51.6856656,10.0440062 L55.2658656,25.9560062 L52.0366656,25.9560062 L51.4048656,23.0778062 L45.8356656,23.0778062 L45.2038656,25.9560062 L41.9746656,25.9560062 Z M48.0586656,12.7116062 L46.4440656,20.2698062 L50.7964656,20.2698062 L49.1818656,12.7116062 L48.0586656,12.7116062 Z M63.2452656,21.3228062 L60.6244656,21.3228062 L60.6244656,25.9560062 L57.3952656,25.9560062 L57.3952656,10.0440062 L63.2452656,10.0440062 C67.0204845,10.0440062 68.9080656,11.8847878 68.9080656,15.5664062 C68.9080656,17.4228155 68.4283704,18.8463012 67.4689656,19.8369062 C66.5095608,20.8275111 65.1016749,21.3228062 63.2452656,21.3228062 Z M60.6244656,18.5616062 L63.2218656,18.5616062 C64.8286736,18.5616062 65.6320656,17.5632162 65.6320656,15.5664062 C65.6320656,14.5836013 65.4370675,13.8777083 65.0470656,13.4487062 C64.6570636,13.019704 64.0486697,12.8052062 63.2218656,12.8052062 L60.6244656,12.8052062 L60.6244656,18.5616062 Z M71.1778656,25.9560062 L71.1778656,10.0440062 L74.4070656,10.0440062 L74.4070656,25.9560062 L71.1778656,25.9560062 Z" id="API" fill="#004D99"></path>
                <circle id="Oval" fill="#FFFFFF" cx="21.6" cy="18.0000062" r="5.4"></circle>
            </g>
            <g id="Group-51-Copy" transform="translate(237.502153, 237.366984) scale(-1, 1) translate(-237.502153, -237.366984) translate(210.502153, 226.366984)">
                <path d="M15.1159473,-3.35179157e-15 L50.2977141,-7.99360578e-15 C52.2859392,-8.3588368e-15 53.8977141,1.6117749 53.8977141,3.6 L53.8977141,17.9590857 C53.8977141,19.9473108 52.2859392,21.5590857 50.2977141,21.5590857 L15.1159457,21.5590857 C13.0105177,21.5590857 10.9717221,20.82094 9.35428721,19.4730781 L2.24076207,13.5451423 C0.713365044,12.2723118 0.506998067,10.0022789 1.77982852,8.47488191 C1.91921769,8.30761485 2.07349421,8.15333829 2.24076122,8.01394907 L9.35428665,2.08600937 C10.9717218,0.738146306 13.0105183,-4.94230948e-15 15.1159473,-5.32907052e-15 Z" id="Rectangle-20" fill="#65DDE0" opacity="0.400000006"></path>
                <path d="M25.1370948,15.5441045 L27.2811458,6.01498861 L30.9526581,6.01498861 L33.0967092,15.5441045 L31.1628592,15.5441045 L30.7844972,13.8204556 L27.4493067,13.8204556 L27.0709447,15.5441045 L25.1370948,15.5441045 Z M28.7805802,7.61251685 L27.8136552,12.1388469 L30.4201487,12.1388469 L29.4532237,7.61251685 L28.7805802,7.61251685 Z M37.8752805,12.7694501 L36.3057791,12.7694501 L36.3057791,15.5441045 L34.3719291,15.5441045 L34.3719291,6.01498861 L37.8752805,6.01498861 C40.1361213,6.01498861 41.2665247,7.11736549 41.2665247,9.32215235 C41.2665247,10.4338881 40.9792527,11.2863617 40.4047002,11.8795989 C39.8301477,12.472836 38.9870163,12.7694501 37.8752805,12.7694501 Z M36.3057791,11.1158683 L37.8612671,11.1158683 C38.8235258,11.1158683 39.3046479,10.5179689 39.3046479,9.32215235 C39.3046479,8.73358636 39.1878707,8.31085285 38.9543127,8.05393913 C38.7207548,7.79702541 38.3564099,7.66857048 37.8612671,7.66857048 L36.3057791,7.66857048 L36.3057791,11.1158683 Z M42.625825,15.5441045 L42.625825,6.01498861 L44.559675,6.01498861 L44.559675,15.5441045 L42.625825,15.5441045 Z" id="API" fill="#00C5CA" transform="translate(34.848385, 10.779547) scale(-1, 1) translate(-34.848385, -10.779547) "></path>
                <circle id="Oval" fill="#FFFFFF" cx="12.9354514" cy="10.7795465" r="3.23386285"></circle>
            </g>
            <g id="Group-49" transform="translate(287.196517, 34.902447)">
                <path d="M19.277804,0.441406824 L72.4915722,0.441406824 C74.1618968,0.441406824 75.5159624,1.79547246 75.5159624,3.46579707 L75.5159624,27.660919 C75.5159624,29.3312436 74.1618968,30.6853093 72.4915722,30.6853093 L19.2778027,30.6853093 C17.5090149,30.6853093 15.7962056,30.0651869 14.437385,28.9328368 L1.18209267,17.8867633 C-0.101086398,16.8174477 -0.274457029,14.910374 0.794858531,13.6271949 C0.911960543,13.4866725 1.04156954,13.3570634 1.18209196,13.2399614 L14.4373845,2.19388082 C15.7962054,1.06152974 17.5090154,0.441406824 19.277804,0.441406824 Z" id="Rectangle-20-Copy" fill="#65DDE0" opacity="0.400000006"></path>
                <path d="M35.1694755,22.2472657 L38.1772316,8.8794608 L43.3277682,8.8794608 L46.3355243,22.2472657 L43.6226462,22.2472657 L43.0918658,19.8292657 L38.413134,19.8292657 L37.8823536,22.2472657 L35.1694755,22.2472657 Z M40.280695,11.120534 L38.924256,17.4702413 L42.5807438,17.4702413 L41.2243048,11.120534 L40.280695,11.120534 Z M53.0390853,18.3548754 L50.8373292,18.3548754 L50.8373292,22.2472657 L48.1244511,22.2472657 L48.1244511,8.8794608 L53.0390853,8.8794608 C56.2106784,8.8794608 57.7964511,10.4259169 57.7964511,13.5188754 C57.7964511,15.0784605 57.3934551,16.2743428 56.5874511,17.1065584 C55.7814471,17.9387739 54.5986703,18.3548754 53.0390853,18.3548754 Z M50.8373292,16.0351681 L53.0194267,16.0351681 C54.3693197,16.0351681 55.044256,15.1964123 55.044256,13.5188754 C55.044256,12.6932128 54.8804365,12.1001862 54.5527926,11.7397779 C54.2251487,11.3793696 53.7140318,11.1991681 53.0194267,11.1991681 L50.8373292,11.1991681 L50.8373292,16.0351681 Z M59.7033292,22.2472657 L59.7033292,8.8794608 L62.4162072,8.8794608 L62.4162072,22.2472657 L59.7033292,22.2472657 Z" id="API-Copy" fill="#00C5CA"></path>
                <circle id="Oval-Copy" fill="#FFFFFF" cx="18.0525478" cy="15.5633632" r="4.53658537"></circle>
            </g>
        </g>
    </g>
</svg>