<?xml version="1.0" encoding="UTF-8"?>
<svg width="1558px" height="455px" viewBox="0 0 1558 455" version="1.1" xmlns="http://www.w3.org/2000/svg" xmlns:xlink="http://www.w3.org/1999/xlink">
    <!-- Generator: Sketch 50 (54983) - http://www.bohemiancoding.com/sketch -->
    <title>Group</title>
    <desc>Created with Sketch.</desc>
    <defs></defs>
    <g id="Page-1" stroke="none" stroke-width="1" fill="none" fill-rule="evenodd" opacity="0.300000012">
        <g id="Group" transform="translate(-20.000000, -44.000000)" fill="#B3D9FF">
            <g id="Group-16" transform="translate(1405.368727, 300.259454)" stroke="#B3D9FF" stroke-width="11">
                <path d="M103.51243,1.71437575 C101.668354,0.792352552 99.7859219,0.561831999 97.8650157,1.0228731 C95.9441389,1.4838847 94.4458586,2.63639895 93.3701747,4.48044535 L1.16785464,181.969911 C0.0921412405,183.813967 -0.215209661,185.773247 0.245831444,187.847811 C0.706843044,189.922372 1.93618764,191.266976 3.93392425,191.881661 C6.23898225,192.650017 8.23668935,192.842104 9.92704554,192.457925 C11.6174312,192.073747 12.9236357,191.036481 13.8456589,189.346097 L106.047979,11.6261104 C107.123692,9.93575421 107.392599,8.13012298 106.854757,6.20924623 C106.316885,4.28833998 105.202786,2.79008916 103.51243,1.71437575 Z" id="Path"></path>
                <path d="M164.232983,93.3642193 L119.813107,57.5044088 C118.424956,56.1162877 116.689827,55.4222419 114.607631,55.4222419 C112.525434,55.4222419 110.790305,56.1162877 109.402184,57.5044088 C107.859807,58.8925299 107.088649,60.5891027 107.088649,62.5941863 C107.088649,64.5992699 107.859807,66.3729555 109.402184,67.9153024 L147.806868,98.9167038 L109.402184,129.918046 C107.859807,131.460423 107.088649,133.234108 107.088649,135.239192 C107.088649,137.244275 107.859807,138.940848 109.402184,140.328969 C110.790305,141.71709 112.525434,142.411166 114.607631,142.411166 C116.689827,142.411166 118.424956,141.71709 119.813107,140.328969 L164.232983,104.469188 C165.004142,103.698 165.543962,102.811142 165.852443,101.808615 C166.160924,100.806059 166.31515,99.8421179 166.31515,98.9167038 C166.31515,97.9912601 166.160924,97.0273192 165.852443,96.0247626 C165.543962,95.0222356 165.004142,94.135378 164.232983,93.3642193 Z" id="Path"></path>
            </g>
            <path d="M1125.08689,338.309439 L986.899571,226.76075 L1125.08689,115.211847 C1130.63665,109.662191 1133.41142,103.280135 1133.41142,96.0654651 C1133.41142,88.8507953 1130.63665,82.7462059 1125.08689,77.7514837 C1120.09216,72.7567615 1113.84884,70.2594536 1106.3567,70.2594536 C1098.86457,70.2594536 1092.62124,72.7567615 1087.62642,77.7514837 L927.795358,206.781861 C925.020498,209.556635 923.078126,212.747717 921.968182,216.354998 C920.858239,219.962386 920.303275,223.430828 920.303275,226.76075 C920.303275,230.090564 920.858239,233.559006 921.968182,237.166394 C923.078126,240.773676 925.020498,243.964757 927.795358,246.739638 L1087.62642,375.769909 C1092.62124,380.764631 1098.86457,383.262045 1106.3567,383.262045 C1113.84884,383.262045 1120.09216,380.764631 1125.08689,375.769909 C1130.63665,370.775187 1133.41142,364.531864 1133.41142,357.039727 C1133.41142,349.547591 1130.63665,343.304268 1125.08689,338.309439 Z" id="Fill-1"></path>
            <path d="M355.410253,83.8402646 C345.659173,74.0931906 333.812852,69.2256628 319.887316,69.2256628 C305.973799,69.2256628 294.127478,74.0931906 284.376398,83.8402646 C274.645348,93.5913448 269.761796,105.421641 269.761796,119.347177 C269.761796,128.409191 272.013278,136.798165 276.552298,144.546147 C281.075293,152.290124 287.16471,158.347492 294.832568,162.69822 C294.832568,171.74421 294.095428,179.724552 292.60913,186.595177 C291.122831,193.461796 288.695077,199.519164 285.301829,204.731225 C281.904575,209.95931 278.383129,214.402181 274.721466,218.047819 C271.059803,221.709482 265.927867,225.15481 259.305625,228.359767 C252.703415,231.584754 246.569929,234.276918 240.905169,236.468307 C235.256433,238.643671 227.632642,241.207636 218.057835,244.168215 C200.654921,249.564561 187.242178,254.528237 177.839637,259.051232 L177.839637,129.270523 C185.507495,124.919795 191.592906,118.878452 196.115901,111.134476 C200.654921,103.386493 202.906403,94.9814947 202.906403,85.9234863 C202.906403,72.0099688 198.038875,60.1636482 188.291801,50.412568 C178.540721,40.6815187 166.710425,35.7979662 152.784889,35.7979662 C138.855347,35.7979662 127.009026,40.6654939 117.257946,50.412568 C107.526896,60.1636482 102.643344,72.0099688 102.643344,85.9234863 C102.643344,94.9814947 104.910851,103.386493 109.433846,111.134476 C113.95684,118.878452 120.046258,124.919795 127.714116,129.270523 L127.714116,343.397675 C120.046258,347.732379 113.95684,353.789747 109.433846,361.537729 C104.910851,369.281705 102.643344,377.686704 102.643344,386.732694 C102.643344,400.65823 107.510872,412.50455 117.257946,422.239606 C127.009026,431.990686 138.855347,436.870232 152.784889,436.870232 C166.710425,436.870232 178.540721,431.990686 188.291801,422.239606 C198.038875,412.50455 202.906403,400.65823 202.906403,386.732694 C202.906403,377.686704 200.654921,369.281705 196.115901,361.537729 C191.592906,353.789747 185.507495,347.732379 177.839637,343.397675 L177.839637,336.607174 C177.839637,324.588587 181.453225,315.88713 188.684408,310.486778 C195.89556,305.090432 210.654385,298.908872 232.936845,291.958123 C256.445202,284.462531 274.112524,277.40762 285.958845,270.801404 C324.939129,248.69121 344.60955,212.663492 344.954082,162.69822 C352.621941,158.347492 358.711358,152.290124 363.234353,144.546147 C367.757348,136.798165 370.024855,128.409191 370.024855,119.347177 C370.024855,105.421641 365.157327,93.5913448 355.410253,83.8402646 Z M170.528329,404.492159 C165.660802,409.375712 159.747657,411.815485 152.784889,411.815485 C145.818115,411.815485 139.90497,409.375712 135.021417,404.492159 C130.15389,399.624631 127.714116,393.711487 127.714116,386.748719 C127.714116,379.781944 130.15389,373.8688 135.021417,368.985247 C139.90497,364.117719 145.818115,361.677946 152.784889,361.677946 C159.747657,361.677946 165.660802,364.117719 170.528329,368.985247 C175.411882,373.8688 177.851655,379.781944 177.851655,386.748719 C177.851655,393.711487 175.411882,399.624631 170.528329,404.492159 Z M170.528329,103.682952 C165.660802,108.566504 159.747657,110.994259 152.784889,110.994259 C145.818115,110.994259 139.90497,108.566504 135.021417,103.682952 C130.15389,98.815424 127.714116,92.9022792 127.714116,85.9395111 C127.714116,78.9727369 130.15389,73.0435673 135.021417,68.1760396 C139.90497,63.3085118 145.818115,60.8687387 152.784889,60.8687387 C159.747657,60.8687387 165.660802,63.3085118 170.528329,68.1760396 C175.411882,73.0435673 177.851655,78.9727369 177.851655,85.9395111 C177.851655,92.9022792 175.411882,98.815424 170.528329,103.682952 Z M337.646781,137.110648 C332.779254,141.978176 326.866109,144.417949 319.899335,144.417949 C312.936567,144.417949 307.007397,141.978176 302.139869,137.110648 C297.272342,132.243121 294.832568,126.329976 294.832568,119.363202 C294.832568,112.400433 297.272342,106.471264 302.139869,101.603736 C307.007397,96.7201836 312.936567,94.2964353 319.899335,94.2964353 C326.866109,94.2964353 332.779254,96.7201836 337.646781,101.603736 C342.530334,106.471264 344.954082,112.400433 344.954082,119.363202 C344.954082,126.329976 342.530334,132.243121 337.646781,137.110648 Z" id="code-fork-symbol" transform="translate(236.334099, 236.334099) rotate(-45.000000) translate(-236.334099, -236.334099) "></path>
        </g>
    </g>
</svg>
