<?xml version="1.0" encoding="UTF-8"?>
<svg width="385px" height="501px" viewBox="0 0 385 501" version="1.1" xmlns="http://www.w3.org/2000/svg" xmlns:xlink="http://www.w3.org/1999/xlink">
    <!-- Generator: Sketch 50 (54983) - http://www.bohemiancoding.com/sketch -->
    <title>code-fork-symbol</title>
    <desc>Created with Sketch.</desc>
    <defs></defs>
    <g id="Page-1" stroke="none" stroke-width="1" fill="none" fill-rule="evenodd" opacity="0.300000012">
        <path d="M411.053902,48.8638712 C399.090272,36.9051569 384.555986,30.9331726 367.470704,30.9331726 C350.400168,30.9331726 335.865882,36.9051569 323.902252,48.8638712 C311.963199,60.8275007 305.971554,75.342126 305.971554,92.4274079 C305.971554,103.545621 308.733904,113.838078 314.302841,123.3441 C319.852116,132.845208 327.323241,140.277011 336.730959,145.614932 C336.730959,156.713484 335.82656,166.504589 334.003016,174.934181 C332.179472,183.358856 329.200852,190.790659 325.037667,197.185352 C320.869566,203.599705 316.549093,209.050677 312.056588,213.523521 C307.564083,218.016026 301.267695,222.24311 293.142847,226.175281 C285.042575,230.132027 277.517383,233.435051 270.567271,236.123673 C263.63682,238.792633 254.283169,241.93837 242.535809,245.570713 C221.184122,252.191505 204.727988,258.281455 193.191982,263.830731 L193.191982,104.602392 C202.5997,99.2644698 210.065909,91.8523279 215.615185,82.3512203 C221.184122,72.8451976 223.946472,62.5330798 223.946472,51.4197822 C223.946472,34.349246 217.974488,19.8149598 206.015773,7.85133035 C194.052144,-4.08772307 179.537519,-10.0793682 162.452237,-10.0793682 C145.36204,-10.0793682 130.827754,-4.10738393 118.864124,7.85133035 C106.925071,19.8149598 100.933425,34.349246 100.933425,51.4197822 C100.933425,62.5330798 103.715436,72.8451976 109.264712,82.3512203 C114.813988,91.8523279 122.285113,99.2644698 131.692831,104.602392 L131.692831,367.315634 C122.285113,372.633895 114.813988,380.065698 109.264712,389.571721 C103.715436,399.072828 100.933425,409.384946 100.933425,420.483498 C100.933425,437.56878 106.90541,452.103066 118.864124,464.047035 C130.827754,476.010664 145.36204,481.997394 162.452237,481.997394 C179.537519,481.997394 194.052144,476.010664 206.015773,464.047035 C217.974488,452.103066 223.946472,437.56878 223.946472,420.483498 C223.946472,409.384946 221.184122,399.072828 215.615185,389.571721 C210.065909,380.065698 202.5997,372.633895 193.191982,367.315634 L193.191982,358.984347 C193.191982,344.238707 197.625504,333.562864 206.497464,326.937156 C215.344849,320.316363 233.452495,312.732189 260.790912,304.204294 C289.633384,295.007929 311.309476,286.352239 325.843762,278.247052 C373.668788,251.119989 397.802486,206.917474 398.225195,145.614932 C407.632913,140.277011 415.104038,132.845208 420.653314,123.3441 C426.20259,113.838078 428.9846,103.545621 428.9846,92.4274079 C428.9846,75.342126 423.012616,60.8275007 411.053902,48.8638712 Z M184.221717,442.272639 C178.249733,448.264284 170.994878,451.257649 162.452237,451.257649 C153.904681,451.257649 146.649826,448.264284 140.65818,442.272639 C134.686196,436.300655 131.692831,429.0458 131.692831,420.503159 C131.692831,411.955603 134.686196,404.700748 140.65818,398.709102 C146.649826,392.737118 153.904681,389.743753 162.452237,389.743753 C170.994878,389.743753 178.249733,392.737118 184.221717,398.709102 C190.213362,404.700748 193.206727,411.955603 193.206727,420.503159 C193.206727,429.0458 190.213362,436.300655 184.221717,442.272639 Z M184.221717,73.2089234 C178.249733,79.2005685 170.994878,82.1791879 162.452237,82.1791879 C153.904681,82.1791879 146.649826,79.2005685 140.65818,73.2089234 C134.686196,67.236939 131.692831,59.982084 131.692831,51.4394431 C131.692831,42.8918869 134.686196,35.617371 140.65818,29.6453867 C146.649826,23.6734024 153.904681,20.6800374 162.452237,20.6800374 C170.994878,20.6800374 178.249733,23.6734024 184.221717,29.6453867 C190.213362,35.617371 193.206727,42.8918869 193.206727,51.4394431 C193.206727,59.982084 190.213362,67.236939 184.221717,73.2089234 Z M389.259845,114.221464 C383.287861,120.193449 376.033006,123.186814 367.48545,123.186814 C358.942809,123.186814 351.668293,120.193449 345.696309,114.221464 C339.724324,108.24948 336.730959,100.994625 336.730959,92.4470687 C336.730959,83.9044278 339.724324,76.6299119 345.696309,70.6579276 C351.668293,64.6662824 358.942809,61.6925783 367.48545,61.6925783 C376.033006,61.6925783 383.287861,64.6662824 389.259845,70.6579276 C395.251491,76.6299119 398.225195,83.9044278 398.225195,92.4470687 C398.225195,100.994625 395.251491,108.24948 389.259845,114.221464 Z" id="code-fork-symbol" fill="#B3D9FF" transform="translate(264.959013, 235.959013) rotate(-45.000000) translate(-264.959013, -235.959013) "></path>
    </g>
</svg>