<?xml version="1.0" encoding="UTF-8"?>
<svg width="1639px" height="425px" viewBox="0 0 1639 425" version="1.1" xmlns="http://www.w3.org/2000/svg" xmlns:xlink="http://www.w3.org/1999/xlink">
    <!-- Generator: Sketch 50 (54983) - http://www.bohemiancoding.com/sketch -->
    <title>Group</title>
    <desc>Created with Sketch.</desc>
    <defs></defs>
    <g id="Page-1" stroke="none" stroke-width="1" fill="none" fill-rule="evenodd">
        <g id="Group">
            <g id="Group-37">
                <rect id="Rectangle-9" fill="#004D99" x="0" y="0" width="1639" height="425"></rect>
                <path d="M1108.73271,113.224461 L1102.73758,94.0861614 C1106.47105,91.3093663 1108.718,86.9283097 1108.718,82.2479872 C1108.718,74.1334659 1102.11452,67.529992 1094,67.529992 C1085.88548,67.529992 1079.282,74.1334659 1079.282,82.2479872 C1079.282,86.9332157 1081.52895,91.3093663 1085.26242,94.0861614 L1079.27219,113.224461 C1067.43892,107.631623 1059.65801,95.4941829 1059.65801,82.2479872 C1059.65801,63.3108334 1075.06285,47.9059984 1094,47.9059984 C1112.93225,47.9059984 1128.34199,63.3108334 1128.34199,82.2479872 C1128.34199,95.4941829 1120.56108,107.631623 1108.73271,113.224461 Z M1094,43 C1072.35964,43 1054.75201,60.6076283 1054.75201,82.2479872 C1054.75201,98.393628 1064.86818,113.096905 1079.9296,118.836923 C1080.56247,119.082223 1081.26403,119.047881 1081.87237,118.753521 C1082.48072,118.454255 1082.94188,117.924408 1083.14303,117.276816 L1090.50202,93.7770835 C1090.85526,92.6634218 1090.36956,91.4565462 1089.34911,90.8972624 C1086.16512,89.136009 1084.188,85.8244601 1084.188,82.2479872 C1084.188,76.836671 1088.58868,72.4359904 1094,72.4359904 C1099.41132,72.4359904 1103.812,76.836671 1103.812,82.2479872 C1103.812,85.8244601 1101.83488,89.136009 1098.64598,90.8923564 C1097.62553,91.4565462 1097.14965,92.6585158 1097.49307,93.7721775 L1104.85207,117.27191 C1105.05812,117.919502 1105.51928,118.449349 1106.12763,118.748615 C1106.46614,118.910513 1106.82919,118.993915 1107.19714,118.993915 C1107.4964,118.993915 1107.79076,118.939949 1108.0704,118.832017 C1123.13182,113.096905 1133.24799,98.393628 1133.24799,82.2479872 C1133.24799,60.6076283 1115.64036,43 1094,43 Z" id="Fill-1" stroke="#FFFFFF" stroke-width="1.90107438" fill="#FFFFFF" opacity="0.100000001"></path>
                <g id="Group-18-Copy" transform="translate(1418.185700, 238.112683) rotate(-10.000000) translate(-1418.185700, -238.112683) translate(1389.185700, 212.112683)" fill="#8EBEED">
                    <g id="Group-13" transform="translate(0.353605, 0.629027)">
                        <path d="M3.90231818,47.2242216 L52.8281036,47.2242216 L52.8281036,14.6861533 L3.90231818,14.6861533 L3.90231818,47.2242216 Z M3.90231818,11.016648 L52.8281036,11.016648 L52.8281036,3.71719836 L3.90231818,3.71719836 L3.90231818,11.016648 Z M2.0676754,0.0478029115 C1.05436357,0.0478029115 0.232922732,0.869243748 0.232922732,1.88255558 L0.232922732,49.0589742 C0.232922732,50.0721762 1.05436357,50.893617 2.0676754,50.893617 L54.6627464,50.893617 C55.6760582,50.893617 56.4974991,50.0721762 56.4974991,49.0589742 L56.4974991,1.88255558 C56.4974991,0.869243748 55.6760582,0.0478029115 54.6627464,0.0478029115 L2.0676754,0.0478029115 Z" id="Fill-1"></path>
                        <path d="M26.1069354,28.2186631 L20.1010216,23.1082571 C19.3293617,22.451544 18.1714323,22.5447322 17.5147192,23.316502 C16.8580061,24.0882717 16.9513042,25.2462011 17.7229641,25.9029142 L22.0866556,29.6159367 L17.7229641,33.3290691 C16.9511943,33.9857822 16.8580061,35.1436016 17.5147192,35.9153714 C18.1713224,36.6871412 19.3292518,36.7804393 20.1010216,36.1237262 L26.1069354,31.0133202 C26.9673878,30.2811115 26.9673878,28.950652 26.1069354,28.2186631" id="Fill-7"></path>
                        <path d="M37.8183191,32.89159 L30.5704087,32.89159 C29.5572067,32.89159 28.735656,33.7130308 28.735656,34.7262328 C28.735656,35.7395446 29.5572067,36.5609854 30.5704087,36.5609854 L37.8183191,36.5609854 C38.831521,36.5609854 39.6529619,35.7395446 39.6529619,34.7262328 C39.6529619,33.7130308 38.831521,32.89159 37.8183191,32.89159" id="Fill-8"></path>
                    </g>
                </g>
                <g id="Group-18-Copy-2" transform="translate(359.262535, 339.850592) rotate(20.000000) translate(-359.262535, -339.850592) translate(330.262535, 313.850592)" fill="#8EBEED">
                    <g id="Group-13" transform="translate(0.353605, 0.629027)">
                        <path d="M3.90231818,47.2242216 L52.8281036,47.2242216 L52.8281036,14.6861533 L3.90231818,14.6861533 L3.90231818,47.2242216 Z M3.90231818,11.016648 L52.8281036,11.016648 L52.8281036,3.71719836 L3.90231818,3.71719836 L3.90231818,11.016648 Z M2.0676754,0.0478029115 C1.05436357,0.0478029115 0.232922732,0.869243748 0.232922732,1.88255558 L0.232922732,49.0589742 C0.232922732,50.0721762 1.05436357,50.893617 2.0676754,50.893617 L54.6627464,50.893617 C55.6760582,50.893617 56.4974991,50.0721762 56.4974991,49.0589742 L56.4974991,1.88255558 C56.4974991,0.869243748 55.6760582,0.0478029115 54.6627464,0.0478029115 L2.0676754,0.0478029115 Z" id="Fill-1"></path>
                        <path d="M26.1069354,28.2186631 L20.1010216,23.1082571 C19.3293617,22.451544 18.1714323,22.5447322 17.5147192,23.316502 C16.8580061,24.0882717 16.9513042,25.2462011 17.7229641,25.9029142 L22.0866556,29.6159367 L17.7229641,33.3290691 C16.9511943,33.9857822 16.8580061,35.1436016 17.5147192,35.9153714 C18.1713224,36.6871412 19.3292518,36.7804393 20.1010216,36.1237262 L26.1069354,31.0133202 C26.9673878,30.2811115 26.9673878,28.950652 26.1069354,28.2186631" id="Fill-7"></path>
                        <path d="M37.8183191,32.89159 L30.5704087,32.89159 C29.5572067,32.89159 28.735656,33.7130308 28.735656,34.7262328 C28.735656,35.7395446 29.5572067,36.5609854 30.5704087,36.5609854 L37.8183191,36.5609854 C38.831521,36.5609854 39.6529619,35.7395446 39.6529619,34.7262328 C39.6529619,33.7130308 38.831521,32.89159 37.8183191,32.89159" id="Fill-8"></path>
                    </g>
                </g>
                <g id="Group-15" transform="translate(1428.000000, 61.000000)" fill="#65DDE0">
                    <path d="M3.58944544,7.4300476 L13.6996571,12.4851 L23.8098153,7.4300476 L13.6996571,2.37494176 L3.58944544,7.4300476 Z M13.6996571,14.8275261 C13.5301447,14.8275261 13.3607393,14.7885971 13.2050231,14.7107925 L0.621855431,8.41926209 C0.247163504,8.23194286 0.0104878273,7.84896247 0.0104878273,7.4300476 C0.0104878273,7.01113272 0.247163504,6.6282058 0.621855431,6.4408331 L13.2050231,0.149249253 C13.5163484,-0.00641339811 13.8828054,-0.00641339811 14.1941841,0.149249253 L26.7773518,6.4408331 C27.1519903,6.62815233 27.3887195,7.01113272 27.3887195,7.4300476 C27.3887195,7.84896247 27.1520438,8.23188939 26.7773518,8.41926209 L14.1941841,14.7107925 C14.038575,14.7885971 13.8690626,14.8275261 13.6996571,14.8275261 Z" id="Fill-1"></path>
                    <path d="M13.2050231,27.2939602 L0.621855431,21.0023763 C0.0755656173,20.7291779 -0.145923459,20.0648711 0.127274921,19.5185813 C0.400419828,18.972345 1.06478011,18.7508559 1.61106992,19.0239473 L13.6996571,25.0682142 L25.7881908,19.0240008 C26.3344806,18.7509628 26.9988944,18.972345 27.2720393,19.5185813 C27.5451842,20.0648711 27.3237486,20.7292314 26.7774053,21.0024298 L14.1942376,27.2940136 C14.038575,27.3717648 13.8690626,27.4106938 13.6996571,27.4106938 C13.5301447,27.4106938 13.3607393,27.3717648 13.2050231,27.2939602 Z" id="Fill-3"></path>
                    <path d="M13.6996571,21.1191099 C13.5301447,21.1191099 13.3607393,21.0801809 13.2050231,21.0023763 L0.621855431,14.7107925 C0.0755656173,14.4375941 -0.145923459,13.7733407 0.127274921,13.2269975 C0.400419828,12.6807076 1.06478011,12.459272 1.61106992,12.732417 L13.6996571,18.7766303 L25.7881908,12.732417 C26.3344806,12.459272 26.9988944,12.6807076 27.2720393,13.2269975 C27.5451842,13.7732873 27.3237486,14.4376476 26.7774053,14.7107925 L14.1942376,21.0023763 C14.038575,21.0801809 13.8690626,21.1191099 13.6996571,21.1191099" id="Fill-4"></path>
                </g>
                <g id="Group-32" transform="translate(143.000000, 333.500000)" fill="#D6DEE8">
                    <path d="M4.04599292,7.48731093 L14.1562046,12.5423633 L24.2663628,7.48731093 L14.1562046,2.43220509 L4.04599292,7.48731093 Z M14.1562046,14.8847894 C13.9866922,14.8847894 13.8172867,14.8458604 13.6615706,14.7680558 L1.07840291,8.47652542 C0.703710983,8.2892062 0.467035306,7.90622581 0.467035306,7.48731093 C0.467035306,7.06839605 0.703710983,6.68546914 1.07840291,6.49809644 L13.6615706,0.206512586 C13.9728959,0.0508499341 14.3393529,0.0508499341 14.6507316,0.206512586 L27.2338993,6.49809644 C27.6085378,6.68541566 27.8452669,7.06839605 27.8452669,7.48731093 C27.8452669,7.90622581 27.6085913,8.28915272 27.2338993,8.47652542 L14.6507316,14.7680558 C14.4951225,14.8458604 14.32561,14.8847894 14.1562046,14.8847894 Z" id="Fill-1"></path>
                    <path d="M13.6615706,27.3512235 L1.07840291,21.0596396 C0.532113096,20.7864413 0.31062402,20.1221345 0.5838224,19.5758446 C0.856967307,19.0296083 1.52132759,18.8081192 2.0676174,19.0812107 L14.1562046,25.1254775 L26.2447383,19.0812641 C26.7910281,18.8082262 27.4554419,19.0296083 27.7285868,19.5758446 C28.0017317,20.1221345 27.7802961,20.7864947 27.2339528,21.0596931 L14.6507851,27.351277 C14.4951225,27.4290281 14.32561,27.4679571 14.1562046,27.4679571 C13.9866922,27.4679571 13.8172867,27.4290281 13.6615706,27.3512235 Z" id="Fill-3"></path>
                    <path d="M14.1562046,21.1763733 C13.9866922,21.1763733 13.8172867,21.1374442 13.6615706,21.0596396 L1.07840291,14.7680558 C0.532113096,14.4948574 0.31062402,13.8306041 0.5838224,13.2842608 C0.856967307,12.737971 1.52132759,12.5165354 2.0676174,12.7896803 L14.1562046,18.8338937 L26.2447383,12.7896803 C26.7910281,12.5165354 27.4554419,12.737971 27.7285868,13.2842608 C28.0017317,13.8305506 27.7802961,14.4949109 27.2339528,14.7680558 L14.6507851,21.0596396 C14.4951225,21.1374442 14.32561,21.1763733 14.1562046,21.1763733" id="Fill-4"></path>
                </g>
                <g id="Group-12" transform="translate(1488.731317, 148.688134) rotate(20.000000) translate(-1488.731317, -148.688134) translate(1462.731317, 122.188134)" fill="#00264D" stroke="#00264D">
                    <path d="M50.9836119,23.2651277 L48.0131918,22.6957181 C46.265816,22.3623762 44.8339881,21.1713611 44.1850984,19.5117693 C43.5326499,17.8581089 43.7734627,16.013459 44.829243,14.576886 L46.6928732,12.0335231 C46.9704604,11.6574755 46.928941,11.1343304 46.5955991,10.8009886 L42.5729574,6.77360183 C42.2491057,6.45449519 41.7437547,6.40823066 41.3677071,6.66209245 L38.8658636,8.3537135 C37.3925162,9.3549254 35.5383762,9.52574828 33.9072549,8.8128 C32.2761336,8.10341053 31.1408732,6.62531808 30.8680311,4.86963844 L30.3899643,1.75093455 C30.3164156,1.29184805 29.9225739,0.949016018 29.4492522,0.949016018 L23.7599011,0.949016018 C23.3055597,0.949016018 22.9117181,1.27286773 22.8227478,1.71771899 L22.0860741,5.55530252 C21.7574773,7.26471762 20.6032366,8.68349657 18.9958407,9.34543524 C17.3872586,10.0133053 15.5663341,9.82706087 14.125016,8.85431945 L10.8912439,6.66209245 C10.5163826,6.40823066 10.0110316,6.45449519 9.69073867,6.77834691 L5.66453822,10.8009886 C5.33001007,11.1343304 5.2932357,11.6574755 5.56726407,12.0335231 L7.42970801,14.576886 C8.4866746,16.013459 8.72274233,17.8581089 8.07385263,19.5165144 C7.42496293,21.1713611 5.99313501,22.3623762 4.24575927,22.6957181 L1.27533913,23.2698728 C0.830487872,23.3540979 0.506636156,23.7479396 0.506636156,24.202281 L0.506636156,29.891632 C0.506636156,30.3602087 0.849468192,30.7587954 1.31329977,30.8323442 L4.42725858,31.310411 C6.1876833,31.5832531 7.66103066,32.7137684 8.37042014,34.3496348 C9.08336842,35.9807561 8.91254554,37.8348961 7.91607872,39.3082435 L6.21971259,41.810087 C5.9658508,42.1861346 6.01211533,42.6902993 6.33596705,43.0153373 L10.3586087,47.0415378 C10.6919506,47.3713208 11.2150957,47.4128403 11.5911432,47.1352531 L14.1345062,45.2716229 C15.5710792,44.2205876 17.4157291,43.9750297 19.0693895,44.6274783 C20.7289812,45.276368 21.9199963,46.7081959 22.2533382,48.4555716 L22.8227478,51.4259918 C22.9117181,51.8755881 23.3055597,52.1946947 23.7599011,52.1946947 L29.4492522,52.1946947 C29.9225739,52.1946947 30.3211606,51.8518627 30.3899643,51.3927762 L30.7244924,49.2017355 C31.0020796,47.398605 32.1693693,45.9110224 33.8515002,45.2158682 C35.5336311,44.520714 37.4103103,44.7484778 38.8800989,45.8232384 L40.6678078,47.1352531 C41.0438554,47.4128403 41.5670005,47.3713208 41.9015286,47.0379789 L45.922984,43.0153373 C46.248022,42.6902993 46.2942865,42.1861346 46.0392384,41.810087 L44.3428723,39.3082435 C43.3464055,37.8348961 43.1755826,35.9807561 43.8885309,34.3496348 C44.5979204,32.7137684 46.0712677,31.578508 47.8328787,31.310411 L50.9468375,30.8323442 C51.4094828,30.7587954 51.7523149,30.3602087 51.7523149,29.891632 L51.7523149,24.202281 C51.7523149,23.7479396 51.4332082,23.3540979 50.9836119,23.2651277 Z M49.8578416,29.0814096 L47.5446151,29.4337318 C45.1400458,29.8038481 43.1198279,31.3566755 42.1470865,33.590422 C41.1731588,35.8229822 41.4092265,38.3580412 42.7722508,40.373514 L44.0285108,42.227654 L41.1316394,45.1233391 L40.001124,44.2941364 C37.9951414,42.820789 35.4280531,42.5147314 33.1243167,43.4649336 C30.8265117,44.4151359 29.2274197,46.4531478 28.8525584,48.9146581 L28.6390297,50.3002215 L24.5428394,50.3002215 L24.1157822,48.0985043 C23.6578819,45.706984 22.0315057,43.752011 19.7645437,42.8623085 C17.498768,41.9726059 14.9731991,42.3012027 13.013481,43.7377757 L11.1273117,45.1233391 L8.23162654,42.227654 L9.48670023,40.3687689 C10.8497245,38.3580412 11.0857922,35.8194233 10.1130508,33.590422 C9.13912311,31.3566755 7.11890526,29.8038481 4.71433593,29.4337318 L2.40704073,29.0814096 L2.40704073,24.9852192 L4.60282654,24.5629071 C6.99434691,24.1050069 8.95406499,22.4738856 9.84376751,20.2069236 C10.73347,17.9411478 10.4048732,15.420324 8.96355515,13.4558609 L7.58273684,11.5696915 L10.478422,8.67400641 L13.0597455,10.424941 C15.0336989,11.7594947 17.5224934,12.0145428 19.7230243,11.1023011 C21.9199963,10.1888732 23.5048531,8.2469492 23.9544494,5.91236979 L24.5428394,2.84942059 L28.6390297,2.84942059 L28.9913519,5.15671579 C29.3614682,7.56128513 30.9190407,9.58150297 33.1480421,10.5554307 C35.3806023,11.5281721 37.9156613,11.2921043 39.9311341,9.92908009 L41.7852741,8.67400641 L44.6809593,11.5696915 L43.2953959,13.4558609 C41.8588229,15.4155789 41.5302261,17.9411478 42.4199286,20.2069236 C43.3096311,22.4738856 45.2646041,24.1050069 47.6561245,24.5629071 L49.8578416,24.9852192 L49.8578416,29.0814096 Z" id="Fill-1" stroke-width="2.07597268"></path>
                    <path d="M26.1294755,17.6748302 C21.2211738,17.6748302 17.2324503,21.6635537 17.2324503,26.5718554 C17.2324503,31.4801571 21.2211738,35.4688805 26.1294755,35.4688805 C31.0377772,35.4688805 35.0265007,31.4801571 35.0265007,26.5718554 C35.0265007,21.6635537 31.0377772,17.6748302 26.1294755,17.6748302 Z M26.1294755,33.7769838 C22.1566434,33.7769838 18.9243471,30.5446875 18.9243471,26.5718554 C18.9243471,22.5990232 22.1566434,19.366727 26.1294755,19.366727 C30.1023077,19.366727 33.3346039,22.5990232 33.3346039,26.5718554 C33.3346039,30.5446875 30.1023077,33.7769838 26.1294755,33.7769838 Z" id="Fill-4" stroke-width="2.37254008"></path>
                </g>
                <g id="Group-12-Copy" transform="translate(100.000000, 278.500000)" fill="#00264D" stroke="#00264D">
                    <path d="M37.0346906,16.8998777 L34.8769661,16.4862564 C33.6076656,16.2441156 32.5675804,15.3789576 32.0962244,14.1734238 C31.6222833,12.9721986 31.7972107,11.6322379 32.5641335,10.5887058 L33.9178816,8.74119719 C34.119522,8.46803478 34.0893621,8.0880202 33.8472213,7.84587938 L30.925159,4.92037027 C30.6899119,4.68856999 30.322823,4.65496325 30.0496606,4.83936942 L28.2323119,6.06816942 C27.1620668,6.79545358 25.8152123,6.91953997 24.6303596,6.40165161 C23.4455069,5.88634839 22.6208494,4.81265638 22.4226558,3.53732398 L22.0753863,1.27188555 C22.0219602,0.938403366 21.7358721,0.689368864 21.3920494,0.689368864 L17.259283,0.689368864 C16.9292477,0.689368864 16.6431596,0.924615989 16.5785313,1.24775764 L16.0434087,4.03539299 C15.8047147,5.27711865 14.9662698,6.30772511 13.7986513,6.78855989 C12.6301711,7.27370323 11.3074446,7.13841459 10.2604656,6.4318115 L7.91144123,4.83936942 C7.63914053,4.65496325 7.27205161,4.68856999 7.03938962,4.92381711 L4.11474222,7.84587938 C3.87173969,8.0880202 3.84502665,8.46803478 4.04408191,8.74119719 L5.3969683,10.5887058 C6.16475288,11.6322379 6.33623338,12.9721986 5.86487742,14.1768707 C5.39352146,15.3789576 4.35343619,16.2441156 3.08413576,16.4862564 L0.92641122,16.9033245 C0.603269565,16.964506 0.36802244,17.2505941 0.36802244,17.5806295 L0.36802244,21.7133958 C0.36802244,22.0537717 0.617056942,22.3433066 0.953985975,22.3967327 L3.21597756,22.7440022 C4.4947568,22.9421958 5.56500196,23.7634065 6.08030519,24.951706 C6.59819355,26.1365588 6.47410715,27.4834132 5.75026985,28.5536583 L4.518023,30.371007 C4.33361683,30.6441694 4.36722356,31.0103966 4.60247069,31.2465055 L7.52453296,34.1711529 C7.76667377,34.4107086 8.14668836,34.4408684 8.41985077,34.2392281 L10.2673593,32.8854799 C11.3108914,32.1220039 12.6508522,31.9436297 13.8520774,32.4175708 C15.0576112,32.8889268 15.9227691,33.9290121 16.16491,35.1983125 L16.5785313,37.356037 C16.6431596,37.6826255 16.9292477,37.9144258 17.259283,37.9144258 L21.3920494,37.9144258 C21.7358721,37.9144258 22.025407,37.6653913 22.0753863,37.3319091 L22.3183888,35.7403288 C22.5200292,34.4305279 23.3679529,33.3499422 24.5898592,32.8449795 C25.8117655,32.3400168 27.1749924,32.5054654 28.2426525,33.2861756 L29.5412511,34.2392281 C29.8144135,34.4408684 30.1944281,34.4107086 30.4374306,34.1685677 L33.3586311,31.2465055 C33.59474,31.0103966 33.6283467,30.6441694 33.4430788,30.371007 L32.210832,28.5536583 C31.4869947,27.4834132 31.3629083,26.1365588 31.8807966,24.951706 C32.3960999,23.7634065 33.466345,22.9387489 34.745986,22.7440022 L37.0079776,22.3967327 C37.3440449,22.3433066 37.5930794,22.0537717 37.5930794,21.7133958 L37.5930794,17.5806295 C37.5930794,17.2505941 37.3612791,16.964506 37.0346906,16.8998777 Z M36.2169268,21.1248471 L34.5365902,21.3807753 C32.7899018,21.6496292 31.3224079,22.777609 30.6158048,24.4002109 C29.90834,26.0219512 30.0798205,27.8634278 31.0699265,29.3274749 L31.9824785,30.6743293 L29.8781801,32.7777661 L29.0569694,32.17543 C27.599816,31.1051849 25.7350732,30.8828634 24.0616303,31.573094 C22.3924959,32.2633245 21.2309094,33.7437442 20.9586087,35.5317947 L20.8035007,36.5382732 L17.8280123,36.5382732 L17.5177964,34.9389374 C17.1851759,33.2017279 16.00377,31.7816281 14.3570401,31.1353447 C12.7111719,30.4890614 10.8765891,30.7277554 9.45304236,31.7712875 L8.08292174,32.7777661 L5.97948499,30.6743293 L6.89117532,29.3240281 C7.88128135,27.8634278 8.05276185,26.0193661 7.34615877,24.4002109 C6.63869397,22.777609 5.1712,21.6496292 3.42451164,21.3807753 L1.74848359,21.1248471 L1.74848359,18.1493588 L3.3435108,17.8425896 C5.08072034,17.5099691 6.50426704,16.3251164 7.15055035,14.6783865 C7.79683366,13.0325184 7.55813969,11.2013823 6.51116073,9.77438878 L5.50812903,8.40426816 L7.61156578,6.30083142 L9.48664909,7.57271697 C10.9205363,8.54214194 12.7284062,8.72740982 14.3268802,8.064754 C15.9227691,7.40123647 17.0740151,5.99061543 17.4006036,4.29476802 L17.8280123,2.06983001 L20.8035007,2.06983001 L21.0594289,3.74585806 C21.3282827,5.49254642 22.4597094,6.96004039 24.0788645,7.66750519 C25.7006048,8.37410827 27.5420813,8.20262777 29.0061285,7.21252174 L30.3529829,6.30083142 L32.4564196,8.40426816 L31.4499411,9.77438878 C30.406409,11.1979355 30.167715,13.0325184 30.8139983,14.6783865 C31.4602816,16.3251164 32.8803815,17.5099691 34.617591,17.8425896 L36.2169268,18.1493588 L36.2169268,21.1248471 Z" id="Fill-1" stroke-width="1.50799449"></path>
                    <path d="M18.9805509,12.8390642 C15.4151418,12.8390642 12.5177178,15.7364882 12.5177178,19.3018973 C12.5177178,22.8673065 15.4151418,25.7647304 18.9805509,25.7647304 C22.54596,25.7647304 25.443384,22.8673065 25.443384,19.3018973 C25.443384,15.7364882 22.54596,12.8390642 18.9805509,12.8390642 Z M18.9805509,24.5357301 C16.0946704,24.5357301 13.7467181,22.1877778 13.7467181,19.3018973 C13.7467181,16.4160169 16.0946704,14.0680645 18.9805509,14.0680645 C21.8664314,14.0680645 24.2143837,16.4160169 24.2143837,19.3018973 C24.2143837,22.1877778 21.8664314,24.5357301 18.9805509,24.5357301 Z" id="Fill-4" stroke-width="1.72342219"></path>
                </g>
            </g>
        </g>
    </g>
</svg>
