<?xml version="1.0" encoding="UTF-8"?>
<svg width="1261px" height="519px" viewBox="0 0 1261 519" version="1.1" xmlns="http://www.w3.org/2000/svg" xmlns:xlink="http://www.w3.org/1999/xlink">
    <!-- Generator: Sketch 50 (54983) - http://www.bohemiancoding.com/sketch -->
    <title>code-fork-symbol</title>
    <desc>Created with Sketch.</desc>
    <defs></defs>
    <g id="Page-1" stroke="none" stroke-width="1" fill="none" fill-rule="evenodd" opacity="0.149999991">
        <g id="code-fork-symbol" transform="translate(2.000000, 1.000000)" fill="#8EBEED" stroke="#8EBEED">
            <path d="M204.962242,268.777434 L66.7749272,157.228744 L204.962242,45.6798416 C210.512004,40.1301857 213.286779,33.7481295 213.286779,26.5334597 C213.286779,19.3187899 210.512004,13.2142005 204.962242,8.21947828 C199.967519,3.22475607 193.724197,0.727448241 186.23206,0.727448241 C178.739923,0.727448241 172.496601,3.22475607 167.501772,8.21947828 L7.67071442,137.249855 C4.89585454,140.02463 2.95348246,143.215711 1.84353851,146.822993 C0.733594668,150.430381 0.17863111,153.898823 0.17863111,157.228744 C0.17863111,160.558559 0.733594668,164.027001 1.84353851,167.634389 C2.95348246,171.24167 4.89585454,174.432752 7.67071442,177.207633 L167.501772,306.237903 C172.496601,311.232626 178.739923,313.73004 186.23206,313.73004 C193.724197,313.73004 199.967519,311.232626 204.962242,306.237903 C210.512004,301.243181 213.286779,294.999858 213.286779,287.507722 C213.286779,280.015585 210.512004,273.772262 204.962242,268.777434 Z" id="Fill-1" stroke-width="3"></path>
            <path d="M1178.75475,284.04963 C1176.55006,282.947301 1174.29951,282.671701 1172.00296,283.222901 C1169.70645,283.774065 1167.91517,285.151959 1166.62913,287.356617 L1056.39623,499.554948 C1055.11016,501.759616 1054.74271,504.102043 1055.2939,506.582297 C1055.84507,509.062548 1057.31482,510.670095 1059.70322,511.404985 C1062.45904,512.323597 1064.84741,512.553246 1066.86832,512.09394 C1068.88927,511.634634 1070.45091,510.394526 1071.55324,508.37358 L1181.78614,295.899649 C1183.07221,293.878736 1183.39371,291.720005 1182.75069,289.423492 C1182.10763,287.126944 1180.77567,285.335704 1178.75475,284.04963 Z" id="Path" stroke-width="10"></path>
            <path d="M1251.34948,393.622013 L1198.2431,350.749655 C1196.58349,349.090081 1194.50905,348.260311 1192.01967,348.260311 C1189.53029,348.260311 1187.45585,349.090081 1185.79627,350.749655 C1183.95228,352.40923 1183.03032,354.437575 1183.03032,356.834762 C1183.03032,359.231948 1183.95228,361.352486 1185.79627,363.196446 L1231.71117,400.260311 L1185.79627,437.324106 C1183.95228,439.168101 1183.03032,441.288639 1183.03032,443.685825 C1183.03032,446.083012 1183.95228,448.111357 1185.79627,449.770932 C1187.45585,451.430506 1189.53029,452.260311 1192.01967,452.260311 C1194.50905,452.260311 1196.58349,451.430506 1198.2431,449.770932 L1251.34948,406.898609 C1252.27145,405.976611 1252.91683,404.916325 1253.28564,403.717749 C1253.65444,402.519138 1253.83883,401.366694 1253.83883,400.260311 C1253.83883,399.153893 1253.65444,398.001449 1253.28564,396.802838 C1252.91683,395.604262 1252.27145,394.543976 1251.34948,393.622013 Z" id="Path" stroke-width="10"></path>
        </g>
    </g>
</svg>
