<?xml version="1.0" encoding="UTF-8"?>
<svg width="19px" height="19px" viewBox="0 0 19 19" version="1.1" xmlns="http://www.w3.org/2000/svg" xmlns:xlink="http://www.w3.org/1999/xlink">
    <!-- Generator: Sketch 50 (54983) - http://www.bohemiancoding.com/sketch -->
    <title>Group 12 Copy</title>
    <desc>Created with Sketch.</desc>
    <defs></defs>
    <g id="Page-1" stroke="none" stroke-width="1" fill="none" fill-rule="evenodd">
        <g id="Group-12-Copy" transform="translate(0.000000, 1.000000)" fill="#00264D" stroke="#00264D">
            <path d="M17.9829,7.8448 L16.9813,7.6528 C16.3921,7.5404 15.9093,7.1388 15.6905,6.5792 C15.4705,6.0216 15.5517,5.3996 15.9077,4.9152 L16.5361,4.0576 C16.6297,3.9308 16.6157,3.7544 16.5033,3.642 L15.1469,2.284 C15.0377,2.1764 14.8673,2.1608 14.7405,2.2464 L13.8969,2.8168 C13.4001,3.1544 12.7749,3.212 12.2249,2.9716 C11.6749,2.7324 11.2921,2.234 11.2001,1.642 L11.0389,0.5904 C11.0141,0.4356 10.8813,0.32 10.7217,0.32 L8.8033,0.32 C8.6501,0.32 8.5173,0.4292 8.4873,0.5792 L8.2389,1.8732 C8.1281,2.4496 7.7389,2.928 7.1969,3.1512 C6.6545,3.3764 6.0405,3.3136 5.5545,2.9856 L4.4641,2.2464 C4.3377,2.1608 4.1673,2.1764 4.0593,2.2856 L2.7017,3.642 C2.5889,3.7544 2.5765,3.9308 2.6689,4.0576 L3.2969,4.9152 C3.6533,5.3996 3.7329,6.0216 3.5141,6.5808 C3.2953,7.1388 2.8125,7.5404 2.2233,7.6528 L1.2217,7.8464 C1.0717,7.8748 0.9625,8.0076 0.9625,8.1608 L0.9625,10.0792 C0.9625,10.2372 1.0781,10.3716 1.2345,10.3964 L2.2845,10.5576 C2.8781,10.6496 3.3749,11.0308 3.6141,11.5824 C3.8545,12.1324 3.7969,12.7576 3.4609,13.2544 L2.8889,14.098 C2.8033,14.2248 2.8189,14.3948 2.9281,14.5044 L4.2845,15.862 C4.3969,15.9732 4.5733,15.9872 4.7001,15.8936 L5.5577,15.2652 C6.0421,14.9108 6.6641,14.828 7.2217,15.048 C7.7813,15.2668 8.1829,15.7496 8.2953,16.3388 L8.4873,17.3404 C8.5173,17.492 8.6501,17.5996 8.8033,17.5996 L10.7217,17.5996 C10.8813,17.5996 11.0157,17.484 11.0389,17.3292 L11.1517,16.5904 C11.2453,15.9824 11.6389,15.4808 12.2061,15.2464 C12.7733,15.012 13.4061,15.0888 13.9017,15.4512 L14.5045,15.8936 C14.6313,15.9872 14.8077,15.9732 14.9205,15.8608 L16.2765,14.5044 C16.3861,14.3948 16.4017,14.2248 16.3157,14.098 L15.7437,13.2544 C15.4077,12.7576 15.3501,12.1324 15.5905,11.5824 C15.8297,11.0308 16.3265,10.648 16.9205,10.5576 L17.9705,10.3964 C18.1265,10.3716 18.2421,10.2372 18.2421,10.0792 L18.2421,8.1608 C18.2421,8.0076 18.1345,7.8748 17.9829,7.8448 Z M17.6033,9.806 L16.8233,9.9248 C16.0125,10.0496 15.3313,10.5732 15.0033,11.3264 C14.6749,12.0792 14.7545,12.934 15.2141,13.6136 L15.6377,14.2388 L14.6609,15.2152 L14.2797,14.9356 C13.6033,14.4388 12.7377,14.3356 11.9609,14.656 C11.1861,14.9764 10.6469,15.6636 10.5205,16.4936 L10.4485,16.9608 L9.0673,16.9608 L8.9233,16.2184 C8.7689,15.412 8.2205,14.7528 7.4561,14.4528 C6.6921,14.1528 5.8405,14.2636 5.1797,14.748 L4.5437,15.2152 L3.5673,14.2388 L3.9905,13.612 C4.4501,12.934 4.5297,12.078 4.2017,11.3264 C3.8733,10.5732 3.1921,10.0496 2.3813,9.9248 L1.6033,9.806 L1.6033,8.4248 L2.3437,8.2824 C3.1501,8.128 3.8109,7.578 4.1109,6.8136 C4.4109,6.0496 4.3001,5.1996 3.8141,4.5372 L3.3485,3.9012 L4.3249,2.9248 L5.1953,3.5152 C5.8609,3.9652 6.7001,4.0512 7.4421,3.7436 C8.1829,3.4356 8.7173,2.7808 8.8689,1.9936 L9.0673,0.9608 L10.4485,0.9608 L10.5673,1.7388 C10.6921,2.5496 11.2173,3.2308 11.9689,3.5592 C12.7217,3.8872 13.5765,3.8076 14.2561,3.348 L14.8813,2.9248 L15.8577,3.9012 L15.3905,4.5372 C14.9061,5.198 14.7953,6.0496 15.0953,6.8136 C15.3953,7.578 16.0545,8.128 16.8609,8.2824 L17.6033,8.4248 L17.6033,9.806 Z" id="Fill-1" stroke-width="0.700000048"></path>
            <path d="M9.6023,5.9598 C7.94726309,5.9598 6.6023,7.30476309 6.6023,8.9598 C6.6023,10.6148369 7.94726309,11.9598 9.6023,11.9598 C11.2573369,11.9598 12.6023,10.6148369 12.6023,8.9598 C12.6023,7.30476309 11.2573369,5.9598 9.6023,5.9598 Z M9.6023,11.389307 C8.26269533,11.389307 7.17279297,10.2994047 7.17279297,8.9598 C7.17279297,7.62019533 8.26269533,6.53029297 9.6023,6.53029297 C10.9419047,6.53029297 12.031807,7.62019533 12.031807,8.9598 C12.031807,10.2994047 10.9419047,11.389307 9.6023,11.389307 Z" id="Fill-4" stroke-width="0.800000012"></path>
        </g>
    </g>
</svg>