<?xml version="1.0" encoding="UTF-8"?>
<svg width="1401px" height="684px" viewBox="0 0 1401 684" version="1.1" xmlns="http://www.w3.org/2000/svg" xmlns:xlink="http://www.w3.org/1999/xlink">
    <!-- Generator: Sketch 50 (54983) - http://www.bohemiancoding.com/sketch -->
    <title>simplelayout-background</title>
    <desc>Created with Sketch.</desc>
    <defs></defs>
    <g id="Page-1" stroke="none" stroke-width="1" fill="none" fill-rule="evenodd">
        <g id="simplelayout-background">
            <g id="code-fork-symbol" fill="#FAFBFD" fill-rule="nonzero">
                <g id="Mask">
                    <rect id="path-1" x="0.263933052" y="0" width="1400" height="684"></rect>
                </g>
            </g>
            <g id="Group-8" transform="translate(1060.000000, 171.000000)" fill="#00264D">
                <g id="Group-6" transform="translate(0.736067, 0.000000)">
                    <g id="Group-32-Copy-25" transform="translate(0.320161, 0.000000)">
                        <g id="Group-30" transform="translate(58.666667, 0.000000)">
                            <path d="M17.7902125,73.7332984 L16.10832,68.3641802 C17.1557178,67.5851694 17.7860834,66.3560941 17.7860834,65.0430619 C17.7860834,62.7665888 15.9335243,60.9140296 13.6570512,60.9140296 C11.3805781,60.9140296 9.52801892,62.7665888 9.52801892,65.0430619 C9.52801892,66.3574705 10.1583845,67.5851694 11.2057824,68.3641802 L9.52526623,73.7332984 C6.2055243,72.1642662 4.02264258,68.7591909 4.02264258,65.0430619 C4.02264258,59.7303737 8.34436301,55.4086533 13.6570512,55.4086533 C18.968363,55.4086533 23.2914598,59.7303737 23.2914598,65.0430619 C23.2914598,68.7591909 21.1085781,72.1642662 17.7902125,73.7332984 Z M13.6570512,54.0323092 C7.58599741,54.0323092 2.64629849,58.9720081 2.64629849,65.0430619 C2.64629849,69.5726103 5.48432,73.6975135 9.70969634,75.3078361 C9.88724473,75.3766533 10.0840619,75.3670189 10.2547286,75.2844382 C10.4253953,75.2004812 10.5547716,75.0518361 10.6112017,74.8701587 L12.6757178,68.2774705 C12.7748146,67.9650404 12.6385566,67.6264597 12.352277,67.4695565 C11.4590297,66.975449 10.904363,66.0464167 10.904363,65.0430619 C10.904363,63.5249544 12.1389437,62.2903737 13.6570512,62.2903737 C15.1751587,62.2903737 16.4097394,63.5249544 16.4097394,65.0430619 C16.4097394,66.0464167 15.8550727,66.975449 14.960449,67.4681802 C14.6741695,67.6264597 14.5406641,67.963664 14.6370082,68.2760941 L16.7015243,74.8687823 C16.7593307,75.0504597 16.8887071,75.1991049 17.0593738,75.2830619 C17.1543415,75.3284812 17.256191,75.3518791 17.3594168,75.3518791 C17.4433738,75.3518791 17.5259544,75.3367393 17.604406,75.3064597 C21.8297824,73.6975135 24.6678039,69.5726103 24.6678039,65.0430619 C24.6678039,58.9720081 19.7281049,54.0323092 13.6570512,54.0323092 Z" id="Fill-1" stroke="#00264D" stroke-width="0.533333333"></path>
                            <g id="Group-12" transform="translate(0.990385, 159.359614)" stroke="#00264D">
                                <path d="M23.9772,10.4597333 L22.6417333,10.2037333 C21.8561333,10.0538667 21.2124,9.5184 20.9206667,8.77226667 C20.6273333,8.0288 20.7356,7.19946667 21.2102667,6.5536 L22.0481333,5.41013333 C22.1729333,5.24106667 22.1542667,5.00586667 22.0044,4.856 L20.1958667,3.04533333 C20.0502667,2.90186667 19.8230667,2.88106667 19.654,2.9952 L18.5292,3.75573333 C17.8668,4.20586667 17.0332,4.28266667 16.2998667,3.96213333 C15.5665333,3.6432 15.0561333,2.97866667 14.9334667,2.18933333 L14.7185333,0.7872 C14.6854667,0.5808 14.5084,0.426666667 14.2956,0.426666667 L11.7377333,0.426666667 C11.5334667,0.426666667 11.3564,0.572266667 11.3164,0.772266667 L10.9852,2.4976 C10.8374667,3.26613333 10.3185333,3.904 9.59586667,4.2016 C8.87266667,4.50186667 8.054,4.41813333 7.406,3.9808 L5.95213333,2.9952 C5.7836,2.88106667 5.5564,2.90186667 5.4124,3.04746667 L3.60226667,4.856 C3.45186667,5.00586667 3.43533333,5.24106667 3.55853333,5.41013333 L4.39586667,6.5536 C4.87106667,7.19946667 4.9772,8.0288 4.68546667,8.7744 C4.39373333,9.5184 3.75,10.0538667 2.9644,10.2037333 L1.62893333,10.4618667 C1.42893333,10.4997333 1.28333333,10.6768 1.28333333,10.8810667 L1.28333333,13.4389333 C1.28333333,13.6496 1.43746667,13.8288 1.646,13.8618667 L3.046,14.0768 C3.83746667,14.1994667 4.49986667,14.7077333 4.8188,15.4432 C5.13933333,16.1765333 5.06253333,17.0101333 4.61453333,17.6725333 L3.85186667,18.7973333 C3.73773333,18.9664 3.75853333,19.1930667 3.90413333,19.3392 L5.71266667,21.1493333 C5.86253333,21.2976 6.09773333,21.3162667 6.2668,21.1914667 L7.41026667,20.3536 C8.05613333,19.8810667 8.88546667,19.7706667 9.62893333,20.064 C10.3750667,20.3557333 10.9105333,20.9994667 11.0604,21.7850667 L11.3164,23.1205333 C11.3564,23.3226667 11.5334667,23.4661333 11.7377333,23.4661333 L14.2956,23.4661333 C14.5084,23.4661333 14.6876,23.312 14.7185333,23.1056 L14.8689333,22.1205333 C14.9937333,21.3098667 15.5185333,20.6410667 16.2748,20.3285333 C17.0310667,20.016 17.8748,20.1184 18.5356,20.6016 L19.3393333,21.1914667 C19.5084,21.3162667 19.7436,21.2976 19.894,21.1477333 L21.702,19.3392 C21.8481333,19.1930667 21.8689333,18.9664 21.7542667,18.7973333 L20.9916,17.6725333 C20.5436,17.0101333 20.4668,16.1765333 20.7873333,15.4432 C21.1062667,14.7077333 21.7686667,14.1973333 22.5606667,14.0768 L23.9606667,13.8618667 C24.1686667,13.8288 24.3228,13.6496 24.3228,13.4389333 L24.3228,10.8810667 C24.3228,10.6768 24.1793333,10.4997333 23.9772,10.4597333 Z M23.4710667,13.0746667 L22.4310667,13.2330667 C21.35,13.3994667 20.4417333,14.0976 20.0044,15.1018667 C19.5665333,16.1056 19.6726667,17.2453333 20.2854667,18.1514667 L20.8502667,18.9850667 L19.5478667,20.2869333 L19.0396,19.9141333 C18.1377333,19.2517333 16.9836,19.1141333 15.9478667,19.5413333 C14.9148,19.9685333 14.1958667,20.8848 14.0273333,21.9914667 L13.9313333,22.6144 L12.0897333,22.6144 L11.8977333,21.6245333 C11.6918667,20.5493333 10.9606667,19.6704 9.94146667,19.2704 C8.9228,18.8704 7.78733333,19.0181333 6.90626667,19.664 L6.05826667,20.2869333 L4.7564,18.9850667 L5.32066667,18.1493333 C5.93346667,17.2453333 6.0396,16.104 5.60226667,15.1018667 C5.1644,14.0976 4.25613333,13.3994667 3.17506667,13.2330667 L2.13773333,13.0746667 L2.13773333,11.2330667 L3.12493333,11.0432 C4.20013333,10.8373333 5.0812,10.104 5.4812,9.0848 C5.8812,8.06613333 5.73346667,6.9328 5.08546667,6.0496 L4.46466667,5.2016 L5.76653333,3.89973333 L6.92706667,4.68693333 C7.81453333,5.28693333 8.93346667,5.4016 9.9228,4.99146667 C10.9105333,4.5808 11.6230667,3.70773333 11.8252,2.65813333 L12.0897333,1.28106667 L13.9313333,1.28106667 L14.0897333,2.3184 C14.2561333,3.39946667 14.9564,4.30773333 15.9585333,4.7456 C16.9622667,5.18293333 18.102,5.0768 19.0081333,4.464 L19.8417333,3.89973333 L21.1436,5.2016 L20.5206667,6.0496 C19.8748,6.93066667 19.7270667,8.06613333 20.1270667,9.0848 C20.5270667,10.104 21.406,10.8373333 22.4812,11.0432 L23.4710667,11.2330667 L23.4710667,13.0746667 Z" id="Fill-1" stroke-width="0.933333397"></path>
                                <path d="M12.8030667,7.9464 C10.5963508,7.9464 8.80306667,9.73968412 8.80306667,11.9464 C8.80306667,14.1531159 10.5963508,15.9464 12.8030667,15.9464 C15.0097826,15.9464 16.8030667,14.1531159 16.8030667,11.9464 C16.8030667,9.73968412 15.0097826,7.9464 12.8030667,7.9464 Z M12.8030667,15.1857427 C11.0169271,15.1857427 9.56372397,13.7325396 9.56372397,11.9464 C9.56372397,10.1602604 11.0169271,8.7070573 12.8030667,8.7070573 C14.5892062,8.7070573 16.0424094,10.1602604 16.0424094,11.9464 C16.0424094,13.7325396 14.5892062,15.1857427 12.8030667,15.1857427 Z" id="Fill-4" stroke-width="1.06666668"></path>
                            </g>
                            <g id="Group-13" transform="translate(0.990385, 107.359614)" stroke="#00264D" stroke-width="0.5">
                                <path d="M2.09952245,19.7952144 L22.6079899,19.7952144 L22.6079899,6.15606874 L2.09952245,6.15606874 L2.09952245,19.7952144 Z M2.09952245,4.61790373 L22.6079899,4.61790373 L22.6079899,1.55815673 L2.09952245,1.55815673 L2.09952245,4.61790373 Z M1.33048601,0.0200377868 C0.905730994,0.0200377868 0.561403509,0.364365272 0.561403509,0.789120288 L0.561403509,20.5642969 C0.561403509,20.9890058 0.905730994,21.3333333 1.33048601,21.3333333 L23.3770264,21.3333333 C23.8017814,21.3333333 24.1461089,20.9890058 24.1461089,20.5642969 L24.1461089,0.789120288 C24.1461089,0.364365272 23.8017814,0.0200377868 23.3770264,0.0200377868 L1.33048601,0.0200377868 Z" id="Fill-1"></path>
                                <path d="M11.4071435,11.8285589 L8.88961439,9.68640432 C8.56615385,9.41112659 8.08077877,9.45018875 7.80550103,9.77369537 C7.5302233,10.097202 7.56933153,10.5825771 7.89279208,10.8578548 L9.7219426,12.4142611 L7.89279208,13.9707135 C7.56928547,14.2459912 7.5302233,14.7313202 7.80550103,15.0548268 C8.0807327,15.3783334 8.56610778,15.4174417 8.88961439,15.1421639 L11.4071435,13.0000094 C11.7678237,12.6930857 11.7678237,12.1353904 11.4071435,11.8285589" id="Fill-7"></path>
                                <path d="M16.3162631,13.7873332 L13.27812,13.7873332 C12.8534111,13.7873332 12.5090375,14.1316606 12.5090375,14.5563696 C12.5090375,14.9811246 12.8534111,15.3254521 13.27812,15.3254521 L16.3162631,15.3254521 C16.740972,15.3254521 17.0852995,14.9811246 17.0852995,14.5563696 C17.0852995,14.1316606 16.740972,13.7873332 16.3162631,13.7873332" id="Fill-8"></path>
                            </g>
                            <g id="Group-15" transform="translate(2.323718, 0.026281)">
                                <path d="M2.96589267,6.13931151 L11.3197744,10.3162082 L19.673612,6.13931151 L11.3197744,1.96237064 L2.96589267,6.13931151 Z M11.3197744,12.2517118 C11.1797094,12.2517118 11.0397328,12.2195454 10.9110675,12.1552569 L0.513827692,6.95668123 C0.204226652,6.80190281 0.00866589855,6.48545316 0.00866589855,6.13931151 C0.00866589855,5.79316986 0.204226652,5.4767644 0.513827692,5.32194179 L10.9110675,0.12332191 C11.1683098,-0.00529927276 11.4711064,-0.00529927276 11.728393,0.12332191 L22.1256328,5.32194179 C22.4351896,5.47672022 22.6307946,5.79316986 22.6307946,6.13931151 C22.6307946,6.48545316 22.4352338,6.80185862 22.1256328,6.95668123 L11.728393,12.1552569 C11.599816,12.2195454 11.459751,12.2517118 11.3197744,12.2517118 Z" id="Fill-1"></path>
                                <path d="M11.3197744,22.6489515 C11.1797094,22.6489515 11.0397328,22.6167852 10.9110675,22.5524967 L0.513827692,17.3538768 C0.0624384781,17.128138 -0.120573868,16.5792335 0.105164924,16.1278443 C0.330859531,15.6764993 0.879808199,15.493487 1.33119741,15.7191374 L11.3197744,20.7134038 L21.3083072,15.7191816 C21.7596964,15.4935753 22.3086893,15.6764993 22.5343839,16.1278443 C22.7600785,16.5792335 22.5771103,17.1281822 22.1256769,17.353921 L11.7284372,22.5525409 C11.599816,22.6167852 11.459751,22.6489515 11.3197744,22.6489515" id="Fill-3"></path>
                                <path d="M11.3197744,17.4503317 C11.1797094,17.4503317 11.0397328,17.4181653 10.9110675,17.3538768 L0.513827692,12.1552569 C0.0624384781,11.9295181 -0.120573868,11.3806578 0.105164924,10.9292244 C0.330859531,10.4778352 0.879808199,10.2948671 1.33119741,10.5205617 L11.3197744,15.5147839 L21.3083072,10.5205617 C21.7596964,10.2948671 22.3086893,10.4778352 22.5343839,10.9292244 C22.7600785,11.3806137 22.5771103,11.9295623 22.1256769,12.1552569 L11.7284372,17.3538768 C11.599816,17.4181653 11.459751,17.4503317 11.3197744,17.4503317" id="Fill-4"></path>
                            </g>
                        </g>
                        <g id="Group-26" transform="translate(117.333333, 0.000000)">
                            <path d="M17.7902125,19.7272702 L16.10832,14.358152 C17.1557178,13.5791412 17.7860834,12.3500659 17.7860834,11.0370337 C17.7860834,8.76056056 15.9335243,6.90800142 13.6570512,6.90800142 C11.3805781,6.90800142 9.52801892,8.76056056 9.52801892,11.0370337 C9.52801892,12.3514423 10.1583845,13.5791412 11.2057824,14.358152 L9.52526623,19.7272702 C6.2055243,18.158238 4.02264258,14.7531627 4.02264258,11.0370337 C4.02264258,5.72434551 8.34436301,1.40262508 13.6570512,1.40262508 C18.968363,1.40262508 23.2914598,5.72434551 23.2914598,11.0370337 C23.2914598,14.7531627 21.1085781,18.158238 17.7902125,19.7272702 Z M13.6570512,0.0262809898 C7.58599741,0.0262809898 2.64629849,4.96597991 2.64629849,11.0370337 C2.64629849,15.5665821 5.48432,19.6914853 9.70969634,21.3018079 C9.88724473,21.3706251 10.0840619,21.3609907 10.2547286,21.27841 C10.4253953,21.194453 10.5547716,21.0458079 10.6112017,20.8641305 L12.6757178,14.2714423 C12.7748146,13.9590122 12.6385566,13.6204315 12.352277,13.4635283 C11.4590297,12.9694208 10.904363,12.0403885 10.904363,11.0370337 C10.904363,9.51892615 12.1389437,8.28434551 13.6570512,8.28434551 C15.1751587,8.28434551 16.4097394,9.51892615 16.4097394,11.0370337 C16.4097394,12.0403885 15.8550727,12.9694208 14.960449,13.462152 C14.6741695,13.6204315 14.5406641,13.9576358 14.6370082,14.2700659 L16.7015243,20.8627541 C16.7593307,21.0444315 16.8887071,21.1930767 17.0593738,21.2770337 C17.1543415,21.322453 17.256191,21.3458509 17.3594168,21.3458509 C17.4433738,21.3458509 17.5259544,21.3307111 17.604406,21.3004315 C21.8297824,19.6914853 24.6678039,15.5665821 24.6678039,11.0370337 C24.6678039,4.96597991 19.7281049,0.0262809898 13.6570512,0.0262809898 Z" id="Fill-1" stroke="#00264D" stroke-width="0.533333333"></path>
                            <g id="Group-12" transform="translate(0.990385, 107.359614)" stroke="#00264D">
                                <path d="M23.9772,10.4597333 L22.6417333,10.2037333 C21.8561333,10.0538667 21.2124,9.5184 20.9206667,8.77226667 C20.6273333,8.0288 20.7356,7.19946667 21.2102667,6.5536 L22.0481333,5.41013333 C22.1729333,5.24106667 22.1542667,5.00586667 22.0044,4.856 L20.1958667,3.04533333 C20.0502667,2.90186667 19.8230667,2.88106667 19.654,2.9952 L18.5292,3.75573333 C17.8668,4.20586667 17.0332,4.28266667 16.2998667,3.96213333 C15.5665333,3.6432 15.0561333,2.97866667 14.9334667,2.18933333 L14.7185333,0.7872 C14.6854667,0.5808 14.5084,0.426666667 14.2956,0.426666667 L11.7377333,0.426666667 C11.5334667,0.426666667 11.3564,0.572266667 11.3164,0.772266667 L10.9852,2.4976 C10.8374667,3.26613333 10.3185333,3.904 9.59586667,4.2016 C8.87266667,4.50186667 8.054,4.41813333 7.406,3.9808 L5.95213333,2.9952 C5.7836,2.88106667 5.5564,2.90186667 5.4124,3.04746667 L3.60226667,4.856 C3.45186667,5.00586667 3.43533333,5.24106667 3.55853333,5.41013333 L4.39586667,6.5536 C4.87106667,7.19946667 4.9772,8.0288 4.68546667,8.7744 C4.39373333,9.5184 3.75,10.0538667 2.9644,10.2037333 L1.62893333,10.4618667 C1.42893333,10.4997333 1.28333333,10.6768 1.28333333,10.8810667 L1.28333333,13.4389333 C1.28333333,13.6496 1.43746667,13.8288 1.646,13.8618667 L3.046,14.0768 C3.83746667,14.1994667 4.49986667,14.7077333 4.8188,15.4432 C5.13933333,16.1765333 5.06253333,17.0101333 4.61453333,17.6725333 L3.85186667,18.7973333 C3.73773333,18.9664 3.75853333,19.1930667 3.90413333,19.3392 L5.71266667,21.1493333 C5.86253333,21.2976 6.09773333,21.3162667 6.2668,21.1914667 L7.41026667,20.3536 C8.05613333,19.8810667 8.88546667,19.7706667 9.62893333,20.064 C10.3750667,20.3557333 10.9105333,20.9994667 11.0604,21.7850667 L11.3164,23.1205333 C11.3564,23.3226667 11.5334667,23.4661333 11.7377333,23.4661333 L14.2956,23.4661333 C14.5084,23.4661333 14.6876,23.312 14.7185333,23.1056 L14.8689333,22.1205333 C14.9937333,21.3098667 15.5185333,20.6410667 16.2748,20.3285333 C17.0310667,20.016 17.8748,20.1184 18.5356,20.6016 L19.3393333,21.1914667 C19.5084,21.3162667 19.7436,21.2976 19.894,21.1477333 L21.702,19.3392 C21.8481333,19.1930667 21.8689333,18.9664 21.7542667,18.7973333 L20.9916,17.6725333 C20.5436,17.0101333 20.4668,16.1765333 20.7873333,15.4432 C21.1062667,14.7077333 21.7686667,14.1973333 22.5606667,14.0768 L23.9606667,13.8618667 C24.1686667,13.8288 24.3228,13.6496 24.3228,13.4389333 L24.3228,10.8810667 C24.3228,10.6768 24.1793333,10.4997333 23.9772,10.4597333 Z M23.4710667,13.0746667 L22.4310667,13.2330667 C21.35,13.3994667 20.4417333,14.0976 20.0044,15.1018667 C19.5665333,16.1056 19.6726667,17.2453333 20.2854667,18.1514667 L20.8502667,18.9850667 L19.5478667,20.2869333 L19.0396,19.9141333 C18.1377333,19.2517333 16.9836,19.1141333 15.9478667,19.5413333 C14.9148,19.9685333 14.1958667,20.8848 14.0273333,21.9914667 L13.9313333,22.6144 L12.0897333,22.6144 L11.8977333,21.6245333 C11.6918667,20.5493333 10.9606667,19.6704 9.94146667,19.2704 C8.9228,18.8704 7.78733333,19.0181333 6.90626667,19.664 L6.05826667,20.2869333 L4.7564,18.9850667 L5.32066667,18.1493333 C5.93346667,17.2453333 6.0396,16.104 5.60226667,15.1018667 C5.1644,14.0976 4.25613333,13.3994667 3.17506667,13.2330667 L2.13773333,13.0746667 L2.13773333,11.2330667 L3.12493333,11.0432 C4.20013333,10.8373333 5.0812,10.104 5.4812,9.0848 C5.8812,8.06613333 5.73346667,6.9328 5.08546667,6.0496 L4.46466667,5.2016 L5.76653333,3.89973333 L6.92706667,4.68693333 C7.81453333,5.28693333 8.93346667,5.4016 9.9228,4.99146667 C10.9105333,4.5808 11.6230667,3.70773333 11.8252,2.65813333 L12.0897333,1.28106667 L13.9313333,1.28106667 L14.0897333,2.3184 C14.2561333,3.39946667 14.9564,4.30773333 15.9585333,4.7456 C16.9622667,5.18293333 18.102,5.0768 19.0081333,4.464 L19.8417333,3.89973333 L21.1436,5.2016 L20.5206667,6.0496 C19.8748,6.93066667 19.7270667,8.06613333 20.1270667,9.0848 C20.5270667,10.104 21.406,10.8373333 22.4812,11.0432 L23.4710667,11.2330667 L23.4710667,13.0746667 Z" id="Fill-1" stroke-width="0.933333397"></path>
                                <path d="M12.8030667,7.9464 C10.5963508,7.9464 8.80306667,9.73968412 8.80306667,11.9464 C8.80306667,14.1531159 10.5963508,15.9464 12.8030667,15.9464 C15.0097826,15.9464 16.8030667,14.1531159 16.8030667,11.9464 C16.8030667,9.73968412 15.0097826,7.9464 12.8030667,7.9464 Z M12.8030667,15.1857427 C11.0169271,15.1857427 9.56372397,13.7325396 9.56372397,11.9464 C9.56372397,10.1602604 11.0169271,8.7070573 12.8030667,8.7070573 C14.5892062,8.7070573 16.0424094,10.1602604 16.0424094,11.9464 C16.0424094,13.7325396 14.5892062,15.1857427 12.8030667,15.1857427 Z" id="Fill-4" stroke-width="1.06666668"></path>
                            </g>
                            <g id="Group-13" transform="translate(0.990385, 54.032309)" stroke="#00264D" stroke-width="0.5">
                                <path d="M2.09952245,19.7952144 L22.6079899,19.7952144 L22.6079899,6.15606874 L2.09952245,6.15606874 L2.09952245,19.7952144 Z M2.09952245,4.61790373 L22.6079899,4.61790373 L22.6079899,1.55815673 L2.09952245,1.55815673 L2.09952245,4.61790373 Z M1.33048601,0.0200377868 C0.905730994,0.0200377868 0.561403509,0.364365272 0.561403509,0.789120288 L0.561403509,20.5642969 C0.561403509,20.9890058 0.905730994,21.3333333 1.33048601,21.3333333 L23.3770264,21.3333333 C23.8017814,21.3333333 24.1461089,20.9890058 24.1461089,20.5642969 L24.1461089,0.789120288 C24.1461089,0.364365272 23.8017814,0.0200377868 23.3770264,0.0200377868 L1.33048601,0.0200377868 Z" id="Fill-1"></path>
                                <path d="M11.4071435,11.8285589 L8.88961439,9.68640432 C8.56615385,9.41112659 8.08077877,9.45018875 7.80550103,9.77369537 C7.5302233,10.097202 7.56933153,10.5825771 7.89279208,10.8578548 L9.7219426,12.4142611 L7.89279208,13.9707135 C7.56928547,14.2459912 7.5302233,14.7313202 7.80550103,15.0548268 C8.0807327,15.3783334 8.56610778,15.4174417 8.88961439,15.1421639 L11.4071435,13.0000094 C11.7678237,12.6930857 11.7678237,12.1353904 11.4071435,11.8285589" id="Fill-7"></path>
                                <path d="M16.3162631,13.7873332 L13.27812,13.7873332 C12.8534111,13.7873332 12.5090375,14.1316606 12.5090375,14.5563696 C12.5090375,14.9811246 12.8534111,15.3254521 13.27812,15.3254521 L16.3162631,15.3254521 C16.740972,15.3254521 17.0852995,14.9811246 17.0852995,14.5563696 C17.0852995,14.1316606 16.740972,13.7873332 16.3162631,13.7873332" id="Fill-8"></path>
                            </g>
                            <g id="Group-15" transform="translate(2.323718, 160.692948)">
                                <path d="M2.96589267,6.13931151 L11.3197744,10.3162082 L19.673612,6.13931151 L11.3197744,1.96237064 L2.96589267,6.13931151 Z M11.3197744,12.2517118 C11.1797094,12.2517118 11.0397328,12.2195454 10.9110675,12.1552569 L0.513827692,6.95668123 C0.204226652,6.80190281 0.00866589855,6.48545316 0.00866589855,6.13931151 C0.00866589855,5.79316986 0.204226652,5.4767644 0.513827692,5.32194179 L10.9110675,0.12332191 C11.1683098,-0.00529927276 11.4711064,-0.00529927276 11.728393,0.12332191 L22.1256328,5.32194179 C22.4351896,5.47672022 22.6307946,5.79316986 22.6307946,6.13931151 C22.6307946,6.48545316 22.4352338,6.80185862 22.1256328,6.95668123 L11.728393,12.1552569 C11.599816,12.2195454 11.459751,12.2517118 11.3197744,12.2517118 Z" id="Fill-1"></path>
                                <path d="M11.3197744,22.6489515 C11.1797094,22.6489515 11.0397328,22.6167852 10.9110675,22.5524967 L0.513827692,17.3538768 C0.0624384781,17.128138 -0.120573868,16.5792335 0.105164924,16.1278443 C0.330859531,15.6764993 0.879808199,15.493487 1.33119741,15.7191374 L11.3197744,20.7134038 L21.3083072,15.7191816 C21.7596964,15.4935753 22.3086893,15.6764993 22.5343839,16.1278443 C22.7600785,16.5792335 22.5771103,17.1281822 22.1256769,17.353921 L11.7284372,22.5525409 C11.599816,22.6167852 11.459751,22.6489515 11.3197744,22.6489515" id="Fill-3"></path>
                                <path d="M11.3197744,17.4503317 C11.1797094,17.4503317 11.0397328,17.4181653 10.9110675,17.3538768 L0.513827692,12.1552569 C0.0624384781,11.9295181 -0.120573868,11.3806578 0.105164924,10.9292244 C0.330859531,10.4778352 0.879808199,10.2948671 1.33119741,10.5205617 L11.3197744,15.5147839 L21.3083072,10.5205617 C21.7596964,10.2948671 22.3086893,10.4778352 22.5343839,10.9292244 C22.7600785,11.3806137 22.5771103,11.9295623 22.1256769,12.1552569 L11.7284372,17.3538768 C11.599816,17.4181653 11.459751,17.4503317 11.3197744,17.4503317" id="Fill-4"></path>
                            </g>
                        </g>
                        <path d="M17.7902125,181.739327 L16.10832,176.370208 C17.1557178,175.591198 17.7860834,174.362122 17.7860834,173.04909 C17.7860834,170.772617 15.9335243,168.920058 13.6570512,168.920058 C11.3805781,168.920058 9.52801892,170.772617 9.52801892,173.04909 C9.52801892,174.363499 10.1583845,175.591198 11.2057824,176.370208 L9.52526623,181.739327 C6.2055243,180.170294 4.02264258,176.765219 4.02264258,173.04909 C4.02264258,167.736402 8.34436301,163.414681 13.6570512,163.414681 C18.968363,163.414681 23.2914598,167.736402 23.2914598,173.04909 C23.2914598,176.765219 21.1085781,180.170294 17.7902125,181.739327 Z M13.6570512,162.038337 C7.58599741,162.038337 2.64629849,166.978036 2.64629849,173.04909 C2.64629849,177.578638 5.48432,181.703542 9.70969634,183.313864 C9.88724473,183.382681 10.0840619,183.373047 10.2547286,183.290466 C10.4253953,183.206509 10.5547716,183.057864 10.6112017,182.876187 L12.6757178,176.283499 C12.7748146,175.971069 12.6385566,175.632488 12.352277,175.475585 C11.4590297,174.981477 10.904363,174.052445 10.904363,173.04909 C10.904363,171.530983 12.1389437,170.296402 13.6570512,170.296402 C15.1751587,170.296402 16.4097394,171.530983 16.4097394,173.04909 C16.4097394,174.052445 15.8550727,174.981477 14.960449,175.474208 C14.6741695,175.632488 14.5406641,175.969692 14.6370082,176.282122 L16.7015243,182.874811 C16.7593307,183.056488 16.8887071,183.205133 17.0593738,183.28909 C17.1543415,183.334509 17.256191,183.357907 17.3594168,183.357907 C17.4433738,183.357907 17.5259544,183.342768 17.604406,183.312488 C21.8297824,181.703542 24.6678039,177.578638 24.6678039,173.04909 C24.6678039,166.978036 19.7281049,162.038337 13.6570512,162.038337 Z" id="Fill-1" stroke="#00264D" stroke-width="0.533333333"></path>
                        <g id="Group-31" transform="translate(0.000000, 0.026281)" stroke="#00264D">
                            <g id="Group-12" transform="translate(0.990385, 51.359614)">
                                <path d="M23.9772,10.4597333 L22.6417333,10.2037333 C21.8561333,10.0538667 21.2124,9.5184 20.9206667,8.77226667 C20.6273333,8.0288 20.7356,7.19946667 21.2102667,6.5536 L22.0481333,5.41013333 C22.1729333,5.24106667 22.1542667,5.00586667 22.0044,4.856 L20.1958667,3.04533333 C20.0502667,2.90186667 19.8230667,2.88106667 19.654,2.9952 L18.5292,3.75573333 C17.8668,4.20586667 17.0332,4.28266667 16.2998667,3.96213333 C15.5665333,3.6432 15.0561333,2.97866667 14.9334667,2.18933333 L14.7185333,0.7872 C14.6854667,0.5808 14.5084,0.426666667 14.2956,0.426666667 L11.7377333,0.426666667 C11.5334667,0.426666667 11.3564,0.572266667 11.3164,0.772266667 L10.9852,2.4976 C10.8374667,3.26613333 10.3185333,3.904 9.59586667,4.2016 C8.87266667,4.50186667 8.054,4.41813333 7.406,3.9808 L5.95213333,2.9952 C5.7836,2.88106667 5.5564,2.90186667 5.4124,3.04746667 L3.60226667,4.856 C3.45186667,5.00586667 3.43533333,5.24106667 3.55853333,5.41013333 L4.39586667,6.5536 C4.87106667,7.19946667 4.9772,8.0288 4.68546667,8.7744 C4.39373333,9.5184 3.75,10.0538667 2.9644,10.2037333 L1.62893333,10.4618667 C1.42893333,10.4997333 1.28333333,10.6768 1.28333333,10.8810667 L1.28333333,13.4389333 C1.28333333,13.6496 1.43746667,13.8288 1.646,13.8618667 L3.046,14.0768 C3.83746667,14.1994667 4.49986667,14.7077333 4.8188,15.4432 C5.13933333,16.1765333 5.06253333,17.0101333 4.61453333,17.6725333 L3.85186667,18.7973333 C3.73773333,18.9664 3.75853333,19.1930667 3.90413333,19.3392 L5.71266667,21.1493333 C5.86253333,21.2976 6.09773333,21.3162667 6.2668,21.1914667 L7.41026667,20.3536 C8.05613333,19.8810667 8.88546667,19.7706667 9.62893333,20.064 C10.3750667,20.3557333 10.9105333,20.9994667 11.0604,21.7850667 L11.3164,23.1205333 C11.3564,23.3226667 11.5334667,23.4661333 11.7377333,23.4661333 L14.2956,23.4661333 C14.5084,23.4661333 14.6876,23.312 14.7185333,23.1056 L14.8689333,22.1205333 C14.9937333,21.3098667 15.5185333,20.6410667 16.2748,20.3285333 C17.0310667,20.016 17.8748,20.1184 18.5356,20.6016 L19.3393333,21.1914667 C19.5084,21.3162667 19.7436,21.2976 19.894,21.1477333 L21.702,19.3392 C21.8481333,19.1930667 21.8689333,18.9664 21.7542667,18.7973333 L20.9916,17.6725333 C20.5436,17.0101333 20.4668,16.1765333 20.7873333,15.4432 C21.1062667,14.7077333 21.7686667,14.1973333 22.5606667,14.0768 L23.9606667,13.8618667 C24.1686667,13.8288 24.3228,13.6496 24.3228,13.4389333 L24.3228,10.8810667 C24.3228,10.6768 24.1793333,10.4997333 23.9772,10.4597333 Z M23.4710667,13.0746667 L22.4310667,13.2330667 C21.35,13.3994667 20.4417333,14.0976 20.0044,15.1018667 C19.5665333,16.1056 19.6726667,17.2453333 20.2854667,18.1514667 L20.8502667,18.9850667 L19.5478667,20.2869333 L19.0396,19.9141333 C18.1377333,19.2517333 16.9836,19.1141333 15.9478667,19.5413333 C14.9148,19.9685333 14.1958667,20.8848 14.0273333,21.9914667 L13.9313333,22.6144 L12.0897333,22.6144 L11.8977333,21.6245333 C11.6918667,20.5493333 10.9606667,19.6704 9.94146667,19.2704 C8.9228,18.8704 7.78733333,19.0181333 6.90626667,19.664 L6.05826667,20.2869333 L4.7564,18.9850667 L5.32066667,18.1493333 C5.93346667,17.2453333 6.0396,16.104 5.60226667,15.1018667 C5.1644,14.0976 4.25613333,13.3994667 3.17506667,13.2330667 L2.13773333,13.0746667 L2.13773333,11.2330667 L3.12493333,11.0432 C4.20013333,10.8373333 5.0812,10.104 5.4812,9.0848 C5.8812,8.06613333 5.73346667,6.9328 5.08546667,6.0496 L4.46466667,5.2016 L5.76653333,3.89973333 L6.92706667,4.68693333 C7.81453333,5.28693333 8.93346667,5.4016 9.9228,4.99146667 C10.9105333,4.5808 11.6230667,3.70773333 11.8252,2.65813333 L12.0897333,1.28106667 L13.9313333,1.28106667 L14.0897333,2.3184 C14.2561333,3.39946667 14.9564,4.30773333 15.9585333,4.7456 C16.9622667,5.18293333 18.102,5.0768 19.0081333,4.464 L19.8417333,3.89973333 L21.1436,5.2016 L20.5206667,6.0496 C19.8748,6.93066667 19.7270667,8.06613333 20.1270667,9.0848 C20.5270667,10.104 21.406,10.8373333 22.4812,11.0432 L23.4710667,11.2330667 L23.4710667,13.0746667 Z" id="Fill-1" stroke-width="0.933333397"></path>
                                <path d="M12.8030667,7.9464 C10.5963508,7.9464 8.80306667,9.73968412 8.80306667,11.9464 C8.80306667,14.1531159 10.5963508,15.9464 12.8030667,15.9464 C15.0097826,15.9464 16.8030667,14.1531159 16.8030667,11.9464 C16.8030667,9.73968412 15.0097826,7.9464 12.8030667,7.9464 Z M12.8030667,15.1857427 C11.0169271,15.1857427 9.56372397,13.7325396 9.56372397,11.9464 C9.56372397,10.1602604 11.0169271,8.7070573 12.8030667,8.7070573 C14.5892062,8.7070573 16.0424094,10.1602604 16.0424094,11.9464 C16.0424094,13.7325396 14.5892062,15.1857427 12.8030667,15.1857427 Z" id="Fill-4" stroke-width="1.06666668"></path>
                            </g>
                            <g id="Group-13" transform="translate(0.990385, 0.698976)" stroke-width="0.5">
                                <path d="M2.09952245,19.7952144 L22.6079899,19.7952144 L22.6079899,6.15606874 L2.09952245,6.15606874 L2.09952245,19.7952144 Z M2.09952245,4.61790373 L22.6079899,4.61790373 L22.6079899,1.55815673 L2.09952245,1.55815673 L2.09952245,4.61790373 Z M1.33048601,0.0200377868 C0.905730994,0.0200377868 0.561403509,0.364365272 0.561403509,0.789120288 L0.561403509,20.5642969 C0.561403509,20.9890058 0.905730994,21.3333333 1.33048601,21.3333333 L23.3770264,21.3333333 C23.8017814,21.3333333 24.1461089,20.9890058 24.1461089,20.5642969 L24.1461089,0.789120288 C24.1461089,0.364365272 23.8017814,0.0200377868 23.3770264,0.0200377868 L1.33048601,0.0200377868 Z" id="Fill-1"></path>
                                <path d="M11.4071435,11.8285589 L8.88961439,9.68640432 C8.56615385,9.41112659 8.08077877,9.45018875 7.80550103,9.77369537 C7.5302233,10.097202 7.56933153,10.5825771 7.89279208,10.8578548 L9.7219426,12.4142611 L7.89279208,13.9707135 C7.56928547,14.2459912 7.5302233,14.7313202 7.80550103,15.0548268 C8.0807327,15.3783334 8.56610778,15.4174417 8.88961439,15.1421639 L11.4071435,13.0000094 C11.7678237,12.6930857 11.7678237,12.1353904 11.4071435,11.8285589" id="Fill-7"></path>
                                <path d="M16.3162631,13.7873332 L13.27812,13.7873332 C12.8534111,13.7873332 12.5090375,14.1316606 12.5090375,14.5563696 C12.5090375,14.9811246 12.8534111,15.3254521 13.27812,15.3254521 L16.3162631,15.3254521 C16.740972,15.3254521 17.0852995,14.9811246 17.0852995,14.5563696 C17.0852995,14.1316606 16.740972,13.7873332 16.3162631,13.7873332" id="Fill-8"></path>
                            </g>
                        </g>
                        <g id="Group-15" transform="translate(2.323718, 107.379652)">
                            <path d="M2.96589267,6.13931151 L11.3197744,10.3162082 L19.673612,6.13931151 L11.3197744,1.96237064 L2.96589267,6.13931151 Z M11.3197744,12.2517118 C11.1797094,12.2517118 11.0397328,12.2195454 10.9110675,12.1552569 L0.513827692,6.95668123 C0.204226652,6.80190281 0.00866589855,6.48545316 0.00866589855,6.13931151 C0.00866589855,5.79316986 0.204226652,5.4767644 0.513827692,5.32194179 L10.9110675,0.12332191 C11.1683098,-0.00529927276 11.4711064,-0.00529927276 11.728393,0.12332191 L22.1256328,5.32194179 C22.4351896,5.47672022 22.6307946,5.79316986 22.6307946,6.13931151 C22.6307946,6.48545316 22.4352338,6.80185862 22.1256328,6.95668123 L11.728393,12.1552569 C11.599816,12.2195454 11.459751,12.2517118 11.3197744,12.2517118 Z" id="Fill-1"></path>
                            <path d="M11.3197744,22.6489515 C11.1797094,22.6489515 11.0397328,22.6167852 10.9110675,22.5524967 L0.513827692,17.3538768 C0.0624384781,17.128138 -0.120573868,16.5792335 0.105164924,16.1278443 C0.330859531,15.6764993 0.879808199,15.493487 1.33119741,15.7191374 L11.3197744,20.7134038 L21.3083072,15.7191816 C21.7596964,15.4935753 22.3086893,15.6764993 22.5343839,16.1278443 C22.7600785,16.5792335 22.5771103,17.1281822 22.1256769,17.353921 L11.7284372,22.5525409 C11.599816,22.6167852 11.459751,22.6489515 11.3197744,22.6489515" id="Fill-3"></path>
                            <path d="M11.3197744,17.4503317 C11.1797094,17.4503317 11.0397328,17.4181653 10.9110675,17.3538768 L0.513827692,12.1552569 C0.0624384781,11.9295181 -0.120573868,11.3806578 0.105164924,10.9292244 C0.330859531,10.4778352 0.879808199,10.2948671 1.33119741,10.5205617 L11.3197744,15.5147839 L21.3083072,10.5205617 C21.7596964,10.2948671 22.3086893,10.4778352 22.5343839,10.9292244 C22.7600785,11.3806137 22.5771103,11.9295623 22.1256769,12.1552569 L11.7284372,17.3538768 C11.599816,17.4181653 11.459751,17.4503317 11.3197744,17.4503317" id="Fill-4"></path>
                        </g>
                        <path d="M193.790212,127.07266 L192.10832,121.703542 C193.155718,120.924531 193.786083,119.695456 193.786083,118.382423 C193.786083,116.10595 191.933524,114.253391 189.657051,114.253391 C187.380578,114.253391 185.528019,116.10595 185.528019,118.382423 C185.528019,119.696832 186.158385,120.924531 187.205782,121.703542 L185.525266,127.07266 C182.205524,125.503628 180.022643,122.098552 180.022643,118.382423 C180.022643,113.069735 184.344363,108.748015 189.657051,108.748015 C194.968363,108.748015 199.29146,113.069735 199.29146,118.382423 C199.29146,122.098552 197.108578,125.503628 193.790212,127.07266 Z M189.657051,107.371671 C183.585997,107.371671 178.646298,112.31137 178.646298,118.382423 C178.646298,122.911972 181.48432,127.036875 185.709696,128.647198 C185.887245,128.716015 186.084062,128.70638 186.254729,128.6238 C186.425395,128.539843 186.554772,128.391198 186.611202,128.20952 L188.675718,121.616832 C188.774815,121.304402 188.638557,120.965821 188.352277,120.808918 C187.45903,120.314811 186.904363,119.385778 186.904363,118.382423 C186.904363,116.864316 188.138944,115.629735 189.657051,115.629735 C191.175159,115.629735 192.409739,116.864316 192.409739,118.382423 C192.409739,119.385778 191.855073,120.314811 190.960449,120.807542 C190.674169,120.965821 190.540664,121.303026 190.637008,121.615456 L192.701524,128.208144 C192.759331,128.389821 192.888707,128.538466 193.059374,128.622423 C193.154342,128.667843 193.256191,128.691241 193.359417,128.691241 C193.443374,128.691241 193.525954,128.676101 193.604406,128.645821 C197.829782,127.036875 200.667804,122.911972 200.667804,118.382423 C200.667804,112.31137 195.728105,107.371671 189.657051,107.371671 Z" id="Fill-1" stroke="#00264D" stroke-width="0.533333333"></path>
                        <g id="Group-12" transform="translate(176.990385, 0.000000)" stroke="#00264D">
                            <path d="M23.9772,10.4597333 L22.6417333,10.2037333 C21.8561333,10.0538667 21.2124,9.5184 20.9206667,8.77226667 C20.6273333,8.0288 20.7356,7.19946667 21.2102667,6.5536 L22.0481333,5.41013333 C22.1729333,5.24106667 22.1542667,5.00586667 22.0044,4.856 L20.1958667,3.04533333 C20.0502667,2.90186667 19.8230667,2.88106667 19.654,2.9952 L18.5292,3.75573333 C17.8668,4.20586667 17.0332,4.28266667 16.2998667,3.96213333 C15.5665333,3.6432 15.0561333,2.97866667 14.9334667,2.18933333 L14.7185333,0.7872 C14.6854667,0.5808 14.5084,0.426666667 14.2956,0.426666667 L11.7377333,0.426666667 C11.5334667,0.426666667 11.3564,0.572266667 11.3164,0.772266667 L10.9852,2.4976 C10.8374667,3.26613333 10.3185333,3.904 9.59586667,4.2016 C8.87266667,4.50186667 8.054,4.41813333 7.406,3.9808 L5.95213333,2.9952 C5.7836,2.88106667 5.5564,2.90186667 5.4124,3.04746667 L3.60226667,4.856 C3.45186667,5.00586667 3.43533333,5.24106667 3.55853333,5.41013333 L4.39586667,6.5536 C4.87106667,7.19946667 4.9772,8.0288 4.68546667,8.7744 C4.39373333,9.5184 3.75,10.0538667 2.9644,10.2037333 L1.62893333,10.4618667 C1.42893333,10.4997333 1.28333333,10.6768 1.28333333,10.8810667 L1.28333333,13.4389333 C1.28333333,13.6496 1.43746667,13.8288 1.646,13.8618667 L3.046,14.0768 C3.83746667,14.1994667 4.49986667,14.7077333 4.8188,15.4432 C5.13933333,16.1765333 5.06253333,17.0101333 4.61453333,17.6725333 L3.85186667,18.7973333 C3.73773333,18.9664 3.75853333,19.1930667 3.90413333,19.3392 L5.71266667,21.1493333 C5.86253333,21.2976 6.09773333,21.3162667 6.2668,21.1914667 L7.41026667,20.3536 C8.05613333,19.8810667 8.88546667,19.7706667 9.62893333,20.064 C10.3750667,20.3557333 10.9105333,20.9994667 11.0604,21.7850667 L11.3164,23.1205333 C11.3564,23.3226667 11.5334667,23.4661333 11.7377333,23.4661333 L14.2956,23.4661333 C14.5084,23.4661333 14.6876,23.312 14.7185333,23.1056 L14.8689333,22.1205333 C14.9937333,21.3098667 15.5185333,20.6410667 16.2748,20.3285333 C17.0310667,20.016 17.8748,20.1184 18.5356,20.6016 L19.3393333,21.1914667 C19.5084,21.3162667 19.7436,21.2976 19.894,21.1477333 L21.702,19.3392 C21.8481333,19.1930667 21.8689333,18.9664 21.7542667,18.7973333 L20.9916,17.6725333 C20.5436,17.0101333 20.4668,16.1765333 20.7873333,15.4432 C21.1062667,14.7077333 21.7686667,14.1973333 22.5606667,14.0768 L23.9606667,13.8618667 C24.1686667,13.8288 24.3228,13.6496 24.3228,13.4389333 L24.3228,10.8810667 C24.3228,10.6768 24.1793333,10.4997333 23.9772,10.4597333 Z M23.4710667,13.0746667 L22.4310667,13.2330667 C21.35,13.3994667 20.4417333,14.0976 20.0044,15.1018667 C19.5665333,16.1056 19.6726667,17.2453333 20.2854667,18.1514667 L20.8502667,18.9850667 L19.5478667,20.2869333 L19.0396,19.9141333 C18.1377333,19.2517333 16.9836,19.1141333 15.9478667,19.5413333 C14.9148,19.9685333 14.1958667,20.8848 14.0273333,21.9914667 L13.9313333,22.6144 L12.0897333,22.6144 L11.8977333,21.6245333 C11.6918667,20.5493333 10.9606667,19.6704 9.94146667,19.2704 C8.9228,18.8704 7.78733333,19.0181333 6.90626667,19.664 L6.05826667,20.2869333 L4.7564,18.9850667 L5.32066667,18.1493333 C5.93346667,17.2453333 6.0396,16.104 5.60226667,15.1018667 C5.1644,14.0976 4.25613333,13.3994667 3.17506667,13.2330667 L2.13773333,13.0746667 L2.13773333,11.2330667 L3.12493333,11.0432 C4.20013333,10.8373333 5.0812,10.104 5.4812,9.0848 C5.8812,8.06613333 5.73346667,6.9328 5.08546667,6.0496 L4.46466667,5.2016 L5.76653333,3.89973333 L6.92706667,4.68693333 C7.81453333,5.28693333 8.93346667,5.4016 9.9228,4.99146667 C10.9105333,4.5808 11.6230667,3.70773333 11.8252,2.65813333 L12.0897333,1.28106667 L13.9313333,1.28106667 L14.0897333,2.3184 C14.2561333,3.39946667 14.9564,4.30773333 15.9585333,4.7456 C16.9622667,5.18293333 18.102,5.0768 19.0081333,4.464 L19.8417333,3.89973333 L21.1436,5.2016 L20.5206667,6.0496 C19.8748,6.93066667 19.7270667,8.06613333 20.1270667,9.0848 C20.5270667,10.104 21.406,10.8373333 22.4812,11.0432 L23.4710667,11.2330667 L23.4710667,13.0746667 Z" id="Fill-1" stroke-width="0.933333397"></path>
                            <path d="M12.8030667,7.9464 C10.5963508,7.9464 8.80306667,9.73968412 8.80306667,11.9464 C8.80306667,14.1531159 10.5963508,15.9464 12.8030667,15.9464 C15.0097826,15.9464 16.8030667,14.1531159 16.8030667,11.9464 C16.8030667,9.73968412 15.0097826,7.9464 12.8030667,7.9464 Z M12.8030667,15.1857427 C11.0169271,15.1857427 9.56372397,13.7325396 9.56372397,11.9464 C9.56372397,10.1602604 11.0169271,8.7070573 12.8030667,8.7070573 C14.5892062,8.7070573 16.0424094,10.1602604 16.0424094,11.9464 C16.0424094,13.7325396 14.5892062,15.1857427 12.8030667,15.1857427 Z" id="Fill-4" stroke-width="1.06666668"></path>
                        </g>
                        <g id="Group-13" transform="translate(176.990385, 162.026281)" stroke="#00264D" stroke-width="0.5">
                            <path d="M2.09952245,19.7952144 L22.6079899,19.7952144 L22.6079899,6.15606874 L2.09952245,6.15606874 L2.09952245,19.7952144 Z M2.09952245,4.61790373 L22.6079899,4.61790373 L22.6079899,1.55815673 L2.09952245,1.55815673 L2.09952245,4.61790373 Z M1.33048601,0.0200377868 C0.905730994,0.0200377868 0.561403509,0.364365272 0.561403509,0.789120288 L0.561403509,20.5642969 C0.561403509,20.9890058 0.905730994,21.3333333 1.33048601,21.3333333 L23.3770264,21.3333333 C23.8017814,21.3333333 24.1461089,20.9890058 24.1461089,20.5642969 L24.1461089,0.789120288 C24.1461089,0.364365272 23.8017814,0.0200377868 23.3770264,0.0200377868 L1.33048601,0.0200377868 Z" id="Fill-1"></path>
                            <path d="M11.4071435,11.8285589 L8.88961439,9.68640432 C8.56615385,9.41112659 8.08077877,9.45018875 7.80550103,9.77369537 C7.5302233,10.097202 7.56933153,10.5825771 7.89279208,10.8578548 L9.7219426,12.4142611 L7.89279208,13.9707135 C7.56928547,14.2459912 7.5302233,14.7313202 7.80550103,15.0548268 C8.0807327,15.3783334 8.56610778,15.4174417 8.88961439,15.1421639 L11.4071435,13.0000094 C11.7678237,12.6930857 11.7678237,12.1353904 11.4071435,11.8285589" id="Fill-7"></path>
                            <path d="M16.3162631,13.7873332 L13.27812,13.7873332 C12.8534111,13.7873332 12.5090375,14.1316606 12.5090375,14.5563696 C12.5090375,14.9811246 12.8534111,15.3254521 13.27812,15.3254521 L16.3162631,15.3254521 C16.740972,15.3254521 17.0852995,14.9811246 17.0852995,14.5563696 C17.0852995,14.1316606 16.740972,13.7873332 16.3162631,13.7873332" id="Fill-8"></path>
                        </g>
                        <g id="Group-15" transform="translate(178.323718, 52.686919)">
                            <path d="M2.96589267,6.13931151 L11.3197744,10.3162082 L19.673612,6.13931151 L11.3197744,1.96237064 L2.96589267,6.13931151 Z M11.3197744,12.2517118 C11.1797094,12.2517118 11.0397328,12.2195454 10.9110675,12.1552569 L0.513827692,6.95668123 C0.204226652,6.80190281 0.00866589855,6.48545316 0.00866589855,6.13931151 C0.00866589855,5.79316986 0.204226652,5.4767644 0.513827692,5.32194179 L10.9110675,0.12332191 C11.1683098,-0.00529927276 11.4711064,-0.00529927276 11.728393,0.12332191 L22.1256328,5.32194179 C22.4351896,5.47672022 22.6307946,5.79316986 22.6307946,6.13931151 C22.6307946,6.48545316 22.4352338,6.80185862 22.1256328,6.95668123 L11.728393,12.1552569 C11.599816,12.2195454 11.459751,12.2517118 11.3197744,12.2517118 Z" id="Fill-1"></path>
                            <path d="M11.3197744,22.6489515 C11.1797094,22.6489515 11.0397328,22.6167852 10.9110675,22.5524967 L0.513827692,17.3538768 C0.0624384781,17.128138 -0.120573868,16.5792335 0.105164924,16.1278443 C0.330859531,15.6764993 0.879808199,15.493487 1.33119741,15.7191374 L11.3197744,20.7134038 L21.3083072,15.7191816 C21.7596964,15.4935753 22.3086893,15.6764993 22.5343839,16.1278443 C22.7600785,16.5792335 22.5771103,17.1281822 22.1256769,17.353921 L11.7284372,22.5525409 C11.599816,22.6167852 11.459751,22.6489515 11.3197744,22.6489515" id="Fill-3"></path>
                            <path d="M11.3197744,17.4503317 C11.1797094,17.4503317 11.0397328,17.4181653 10.9110675,17.3538768 L0.513827692,12.1552569 C0.0624384781,11.9295181 -0.120573868,11.3806578 0.105164924,10.9292244 C0.330859531,10.4778352 0.879808199,10.2948671 1.33119741,10.5205617 L11.3197744,15.5147839 L21.3083072,10.5205617 C21.7596964,10.2948671 22.3086893,10.4778352 22.5343839,10.9292244 C22.7600785,11.3806137 22.5771103,11.9295623 22.1256769,12.1552569 L11.7284372,17.3538768 C11.599816,17.4181653 11.459751,17.4503317 11.3197744,17.4503317" id="Fill-4"></path>
                        </g>
                    </g>
                </g>
            </g>
        </g>
    </g>
</svg>