<?xml version="1.0" encoding="utf-8"?>
<!-- Generated by IcoMoon.io -->
<!DOCTYPE svg PUBLIC "-//W3C//DTD SVG 1.1//EN" "http://www.w3.org/Graphics/SVG/1.1/DTD/svg11.dtd">
<svg version="1.1" xmlns="http://www.w3.org/2000/svg" xmlns:xlink="http://www.w3.org/1999/xlink" width="32" height="32" viewBox="0 0 32 32">
<path d="M16 8c-4.48 0-8 3.52-8 8s3.52 8 8 8 8-3.52 8-8-3.52-8-8-8zM16 0c-8.8 0-16 7.2-16 16s7.2 16 16 16 16-7.2 16-16-7.2-16-16-16zM16 28.8c-7.040 0-12.8-5.76-12.8-12.8s5.76-12.8 12.8-12.8 12.8 5.76 12.8 12.8-5.76 12.8-12.8 12.8z"></path>
</svg>
