<?xml version="1.0" encoding="UTF-8"?>
<svg width="524px" height="129px" viewBox="0 0 524 129" version="1.1" xmlns="http://www.w3.org/2000/svg">
    <title>GitHub Logo</title>
    <g stroke="none" stroke-width="1" fill="none" fill-rule="evenodd">
        <g transform="translate(162.000000, 31.000000)" fill="#06C">
            <g transform="translate(0.000000, 0.000000)">
                <path d="M70.281,41.988 L40.014,41.988 C39.233,41.988 38.6,42.621 38.6,43.403 L38.6,58.201 C38.6,58.981 39.233,59.617 40.014,59.617 L51.821,59.617 L51.821,78.002 C51.821,78.002 49.17,78.906 41.84,78.906 C33.193,78.906 21.113,75.747 21.113,49.183 C21.113,22.614 33.692,19.118 45.501,19.118 C55.724,19.118 60.127,20.917 62.93,21.785 C63.811,22.054 64.625,21.178 64.625,20.396 L68.001,6.099 C68.001,5.733 67.877,5.292 67.461,4.994 C66.323,4.182 59.38,0.297 41.84,0.297 C21.635,0.297 0.908,8.893 0.908,50.219 C0.908,91.545 24.638,97.703 44.635,97.703 C61.192,97.703 71.236,90.628 71.236,90.628 C71.65,90.399 71.695,89.821 71.695,89.556 L71.695,43.403 C71.695,42.621 71.062,41.988 70.281,41.988"></path>
            </g>
            <path d="M226.265,4.248 C226.265,3.461 225.641,2.826 224.859,2.826 L207.817,2.826 C207.039,2.826 206.406,3.461 206.406,4.248 C206.406,4.252 206.411,37.183 206.411,37.183 L179.846,37.183 L179.846,4.248 C179.846,3.461 179.22,2.826 178.44,2.826 L161.399,2.826 C160.624,2.826 159.991,3.461 159.991,4.248 L159.991,93.426 C159.991,94.213 160.624,94.853 161.399,94.853 L178.44,94.853 C179.22,94.853 179.846,94.213 179.846,93.426 L179.846,55.282 L206.411,55.282 C206.411,55.282 206.364,93.423 206.364,93.426 C206.364,94.213 206.996,94.853 207.776,94.853 L224.858,94.853 C225.639,94.853 226.263,94.213 226.265,93.426 L226.265,4.248"></path>
            <path d="M102.44,15.951 C102.44,9.814 97.521,4.855 91.451,4.855 C85.387,4.855 80.463,9.814 80.463,15.951 C80.463,22.081 85.387,27.053 91.451,27.053 C97.521,27.053 102.44,22.081 102.44,15.951"></path>
            <path d="M101.222,74.615 C101.222,72.329 101.222,33.45 101.222,33.45 C101.222,32.668 100.591,32.029 99.812,32.029 L82.823,32.029 C82.044,32.029 81.347,32.833 81.347,33.615 C81.347,33.615 81.347,83.149 81.347,92.591 C81.347,94.324 82.427,94.84 83.824,94.84 C83.824,94.84 91.076,94.84 99.13,94.84 C100.81,94.84 101.222,94.015 101.222,92.563 C101.222,89.402 101.222,77.018 101.222,74.615"></path>
            <path d="M291.032,32.164 L274.121,32.164 C273.346,32.164 272.714,32.803 272.714,33.589 L272.714,77.316 C272.714,77.316 268.417,80.459 262.319,80.459 C256.222,80.459 254.604,77.692 254.604,71.722 C254.604,65.744 254.604,33.589 254.604,33.589 C254.604,32.803 253.974,32.164 253.197,32.164 L236.033,32.164 C235.259,32.164 234.624,32.803 234.624,33.589 C234.624,33.589 234.624,56.875 234.624,74.609 C234.624,92.344 244.508,96.683 258.105,96.683 C269.261,96.683 278.255,90.52 278.255,90.52 C278.255,90.52 278.683,93.768 278.877,94.153 C279.07,94.537 279.575,94.925 280.121,94.925 L291.04,94.876 C291.814,94.876 292.449,94.236 292.449,93.453 L292.443,33.589 C292.443,32.803 291.812,32.164 291.032,32.164"></path>
            <path d="M330.584,80.405 C324.718,80.227 320.739,77.565 320.739,77.565 L320.739,49.324 C320.739,49.324 324.664,46.918 329.48,46.488 C335.57,45.943 341.438,47.782 341.438,62.31 C341.438,77.629 338.79,80.653 330.584,80.405 Z M337.254,30.16 C327.649,30.16 321.116,34.446 321.116,34.446 L321.116,4.248 C321.116,3.461 320.486,2.826 319.71,2.826 L302.619,2.826 C301.842,2.826 301.211,3.461 301.211,4.248 L301.211,93.426 C301.211,94.213 301.842,94.853 302.621,94.853 C302.623,94.853 314.475,94.853 314.479,94.853 C315.013,94.853 315.417,94.578 315.716,94.096 C316.011,93.617 316.436,89.984 316.436,89.984 C316.436,89.984 323.424,96.606 336.653,96.606 C352.185,96.606 361.092,88.728 361.092,61.241 C361.092,33.752 346.866,30.16 337.254,30.16 L337.254,30.16 Z"></path>
            <path d="M150.202,32.021 L137.418,32.021 C137.418,32.021 137.399,15.136 137.399,15.133 C137.399,14.493 137.069,14.174 136.33,14.174 L118.91,14.174 C118.232,14.174 117.869,14.472 117.869,15.123 L117.869,32.575 C117.869,32.575 109.139,34.683 108.548,34.853 C107.961,35.023 107.528,35.565 107.528,36.212 L107.528,47.179 C107.528,47.968 108.158,48.604 108.937,48.604 L117.869,48.604 C117.869,48.604 117.869,60.075 117.869,74.988 C117.869,94.585 131.615,96.51 140.89,96.51 C145.129,96.51 150.199,95.149 151.036,94.84 C151.542,94.654 151.836,94.129 151.836,93.561 L151.851,81.497 C151.851,80.71 151.186,80.073 150.438,80.073 C149.692,80.073 147.787,80.376 145.825,80.376 C139.545,80.376 137.418,77.456 137.418,73.677 C137.418,69.901 137.417,48.604 137.417,48.604 L150.202,48.604 C150.981,48.604 151.612,47.968 151.612,47.179 L151.612,33.442 C151.612,32.655 150.981,32.021 150.202,32.021"></path>
        </g>
        <g fill="#06C">
            <path d="M66.0005465,0 C29.5542289,0 0,29.6080466 0,66.1329604 C0,95.3522343 18.9111654,120.141691 45.1352018,128.886336 C48.433699,129.498516 49.6446781,127.451711 49.6446781,125.704972 C49.6446781,124.127978 49.5834735,118.918426 49.555057,113.392379 C31.1936411,117.392904 27.3191638,105.589548 27.3191638,105.589548 C24.3168537,97.945512 19.9909915,95.912943 19.9909915,95.912943 C14.0027655,91.8083802 20.4423764,91.8927055 20.4423764,91.8927055 C27.069973,92.3592327 30.559735,98.7077253 30.559735,98.7077253 C36.4463175,108.818004 45.9997185,105.895091 49.7659946,104.205299 C50.3583688,99.9309901 52.0688222,97.0135528 53.956332,95.3620904 C39.2967088,93.6898207 23.8862348,88.019216 23.8862348,62.6789073 C23.8862348,55.4586878 26.4644836,49.5592003 30.6865162,44.927878 C30.001242,43.262179 27.7421321,36.5358652 31.325887,27.4265393 C31.325887,27.4265393 36.8681929,25.6491366 49.4807369,34.2054197 C54.7454357,32.7401302 60.3915711,32.0052952 66.0005465,31.9801071 C71.6095219,32.0052952 77.260029,32.7401302 82.5345643,34.2054197 C95.1318071,25.6491366 100.666462,27.4265393 100.666462,27.4265393 C104.258961,36.5358652 101.998758,43.262179 101.313484,44.927878 C105.545353,49.5592003 108.106115,55.4586878 108.106115,62.6789073 C108.106115,88.0794484 92.6661312,93.6722986 77.969348,95.3095241 C80.336659,97.3618054 82.446036,101.386423 82.446036,107.556409 C82.446036,116.405093 82.3695301,123.52675 82.3695301,125.704972 C82.3695301,127.464852 83.5575575,129.52699 86.9030512,128.877576 C113.11288,120.123073 132,95.3423781 132,66.1329604 C132,29.6080466 102.450143,0 66.0005465,0"></path>
            <path d="M24.9462504,94.7760756 C24.7861959,95.0034458 24.2181829,95.0716568 23.7007134,94.9155293 C23.1736166,94.7662229 22.877576,94.4562415 23.0484613,94.2281135 C23.2049054,93.9939222 23.7741219,93.9287428 24.3000153,94.0856282 C24.8283155,94.2349346 25.1291698,94.5479476 24.9462504,94.7760756"></path>
            <path d="M27.792549,97.8449803 C27.4673881,98.139173 26.8317438,98.0025442 26.4004541,97.5375655 C25.9544868,97.0736886 25.8709386,96.4533497 26.2006156,96.1547496 C26.5359377,95.8605568 27.1523885,95.9982876 27.5994847,96.4621644 C28.0454519,96.9315506 28.1323873,97.5474821 27.792549,97.8449803"></path>
            <path d="M29.7019751,100.904792 C29.3145696,101.141782 28.6811092,100.919546 28.2895155,100.424358 C27.90211,99.9291699 27.90211,99.3353127 28.2978919,99.0974011 C28.6905326,98.8594894 29.3145696,99.0734255 29.7113985,99.5649252 C30.0977569,100.068413 30.0977569,100.66227 29.7019751,100.904792"></path>
            <path d="M33.8330112,104.801322 C33.5401748,105.131203 32.9164601,105.042632 32.459954,104.592548 C31.9928314,104.152405 31.8627802,103.527891 32.1565012,103.19801 C32.4528763,102.867226 33.0801299,102.960315 33.5401748,103.406784 C34.0037586,103.846023 34.1453109,104.475056 33.8330112,104.801322"></path>
            <path d="M38.9690997,107.402257 C38.7974905,107.905129 37.9993898,108.133707 37.1954121,107.920013 C36.3926098,107.69994 35.8672034,107.110952 36.0294094,106.602764 C36.196317,106.096703 36.997944,105.858556 37.8077986,106.087134 C38.6094254,106.306144 39.1360073,106.890879 38.9690997,107.402257"></path>
            <path d="M43.9995788,107.978297 C44.0192293,108.531073 43.3488031,108.989499 42.5188618,108.999489 C41.6842969,109.017249 41.0092472,108.569922 41,108.026027 C41,107.467702 41.6553993,107.013716 42.4899642,107.000396 C43.3199055,106.984856 43.9995788,107.428852 43.9995788,107.978297"></path>
            <path d="M48.9888156,106.751305 C49.0886476,107.280122 48.5093893,107.823085 47.6817115,107.967802 C46.8679639,108.107079 46.1145798,107.780649 46.0112652,107.256184 C45.9102723,106.71431 46.4999781,106.171347 47.312565,106.030982 C48.1414035,105.896058 48.8831792,106.213783 48.9888156,106.751305"></path>
        </g>
    </g>
</svg>
