<?xml version="1.0" encoding="UTF-8"?>
<svg width="292px" height="155px" viewBox="0 0 292 155" version="1.1" xmlns="http://www.w3.org/2000/svg">
    <g stroke="none" stroke-width="1" fill="none" fill-rule="evenodd">
        <g transform="translate(-752.000000, -270.000000)" fill="#FFFFFF">
            <path d="M1043.257,270.465 L1043.257,424.065 L752.491,424.065 L752.491,270.465 L1043.257,270.465 Z M922.135,306.299 L905.556,306.299 L905.556,387.899 L922.135,387.899 L922.135,306.299 Z M827.7107,306.2989 L799.4777,306.2989 L799.4777,387.8989 L816.0567,387.8989 L816.0567,324.7799 L817.8587,324.7799 L833.8367,384.2989 L850.4157,384.2989 L866.3937,324.7799 L868.1957,324.7799 L868.1957,387.8989 L884.7747,387.8989 L884.7747,306.2989 L856.5427,306.2989 L842.1267,365.8189 L827.7107,306.2989 Z M970.4288,306.2989 L942.9168,306.2989 L942.9168,387.8989 L970.4288,387.8989 C977.6368,387.8989 983.5628,387.0399 988.2088,385.3189 C992.8528,383.5999 996.3968,380.8399 998.8408,377.0399 C1001.2828,373.2409 1002.9448,368.9199 1003.8268,364.0789 C1004.7058,359.2389 1005.1478,353.1409 1005.1478,345.7799 C1005.1478,338.4199 1004.6668,332.4399 1003.7058,327.8379 C1002.7448,323.2389 1001.0028,319.2409 998.4808,315.8379 C995.9568,312.4399 992.4128,310.0009 987.8478,308.5179 C983.2838,307.0399 977.4758,306.2989 970.4288,306.2989 L970.4288,306.2989 Z M970.4288,320.6999 C974.4328,320.6999 977.6168,321.1199 979.9798,321.9599 C982.3408,322.7989 984.1238,324.3399 985.3258,326.5789 C986.5268,328.8189 987.2868,331.2989 987.6078,334.0179 C987.9268,336.7389 988.0878,340.3599 988.0878,344.8789 C988.0878,349.3989 988.0078,352.9399 987.8478,355.4989 C987.2868,361.9789 985.8448,366.4599 983.5238,368.9379 C980.7998,371.9809 976.4358,373.4989 970.4288,373.4989 L970.4288,373.4989 L959.4958,373.4989 L959.4958,320.6999 Z M776.6388,326.4253 C773.8208,326.4253 771.4998,327.3543 769.6908,329.2243 C767.8818,331.1003 766.9738,333.4403 766.9738,336.2603 C766.9738,339.0813 767.8938,341.4423 769.7158,343.3453 C771.5338,345.2463 773.8508,346.1993 776.6628,346.1993 C779.4688,346.1993 781.7528,345.2643 783.5188,343.4003 C785.2738,341.5273 786.1628,339.1943 786.1628,336.3823 C786.1628,333.5743 785.2738,331.2103 783.5188,329.3003 C781.7528,327.3813 779.4588,326.4253 776.6388,326.4253 Z"></path>
        </g>
    </g>
</svg>
