<?xml version="1.0" encoding="UTF-8"?>
<svg width="92px" height="74px" viewBox="0 0 92 74" version="1.1" xmlns="http://www.w3.org/2000/svg" xmlns:xlink="http://www.w3.org/1999/xlink">
    <!-- Generator: Sketch 50 (54983) - http://www.bohemiancoding.com/sketch -->
    <title>logo-it-blue</title>
    <desc>Created with Sketch.</desc>
    <defs></defs>
    <g id="Page-1" stroke="none" stroke-width="1" fill="none" fill-rule="evenodd">
        <g id="logo-it-blue" transform="translate(-1.000000, 0.000000)" fill="#0073E6" fill-rule="nonzero">
            <path d="M32.799,71.9 L32.799,15.7 L47.899,15.7 L47.899,72 L32.799,72 L32.799,71.9 Z M92.099,28.5 L78.299,28.5 L78.299,51.6 C78.299,53.9 78.399,55.4 78.499,56.4 C78.599,57.3 78.999,58.1 79.699,58.8 C80.399,59.5 81.499,59.8 82.999,59.8 L91.599,59.6 L92.299,71.6 C87.299,72.7 83.399,73.3 80.799,73.3 C73.999,73.3 69.399,71.8 66.999,68.7 C64.499,65.7 63.299,60.1 63.299,51.9 L63.299,0 L78.399,0 L78.399,15.6 L92.199,15.6 L92.199,28.5 L92.099,28.5 Z M10.099,32.8 C7.499,32.8 5.299,31.9 3.599,30.1 C1.899,28.3 0.999,26.1 0.999,23.5 C0.999,20.9 1.899,18.7 3.499,16.9 C5.199,15.1 7.399,14.3 9.999,14.3 C12.599,14.3 14.799,15.2 16.499,17 C18.199,18.8 18.999,21 18.999,23.7 C18.999,26.4 18.199,28.5 16.499,30.3 C14.899,31.9 12.799,32.8 10.099,32.8 Z" id="Shape"></path>
        </g>
    </g>
</svg>
