<?xml version="1.0" standalone="no"?>
<!DOCTYPE svg PUBLIC "-//W3C//DTD SVG 20010904//EN"
 "http://www.w3.org/TR/2001/REC-SVG-20010904/DTD/svg10.dtd">
<svg version="1.0" xmlns="http://www.w3.org/2000/svg"
 width="16.000000pt" height="16.000000pt" viewBox="0 0 16.000000 16.000000"
 preserveAspectRatio="xMidYMid meet">
<metadata>
Created by potrace 1.11, written by Peter Selinger 2001-2013
</metadata>
<g transform="translate(0.000000,16.000000) scale(0.002286,-0.002286)"
fill="#000000" stroke="none">
<path d="M4796 4188 c2 -1168 5 -2148 8 -2178 15 -179 22 -237 42 -365 10 -68
56 -245 81 -310 119 -319 300 -484 628 -577 94 -26 120 -31 300 -54 74 -10
407 -12 462 -4 26 4 75 11 108 14 33 4 96 13 140 21 44 8 98 17 120 21 35 5
223 43 294 60 l24 5 -7 257 c-3 141 -8 273 -10 292 -2 19 -7 91 -11 160 -8
147 -12 198 -19 209 -3 4 -27 7 -53 5 -118 -6 -565 -17 -626 -16 -111 3 -166
23 -235 86 -64 59 -87 125 -98 286 -7 103 -13 1980 -6 2010 3 13 69 15 528 14
288 0 524 0 525 0 0 1 3 223 6 494 l5 492 -521 0 c-409 0 -521 3 -522 13 -1 6
-2 275 -3 597 l-1 585 -581 3 -580 2 2 -2122z"/>
<path d="M628 5225 c-2 -2 -25 -5 -53 -8 -180 -21 -353 -130 -452 -285 -32
-49 -73 -130 -79 -157 -2 -5 -11 -37 -21 -70 -24 -85 -24 -296 2 -385 49 -174
171 -337 318 -426 57 -35 149 -72 197 -80 14 -2 40 -7 59 -10 37 -6 174 -6
206 0 11 2 38 7 60 10 92 17 228 86 300 153 81 75 150 186 185 298 17 54 23
101 25 205 6 248 -51 406 -203 559 -97 98 -234 171 -355 187 -46 6 -185 13
-189 9z"/>
<path d="M2437 5103 c-7 -16 -2 -4292 6 -4300 9 -8 1146 -12 1148 -3 1 3 2
974 3 2158 l2 2152 -578 0 c-317 0 -579 -3 -581 -7z"/>
</g>
</svg>
