<?xml version="1.0" encoding="UTF-8"?>
<svg width="443px" height="115px" viewBox="0 0 443 115" version="1.1" xmlns="http://www.w3.org/2000/svg">
    <title>Docs Logo</title>
    <g stroke="none" stroke-width="1" fill="none" fill-rule="evenodd">
        <g transform="translate(0.000000, -32.000000)" fill="#06C">
            <g transform="translate(0.000000, 32.000000)">
                <path d="M52.245345,112.803547 L52.245345,24.6316508 L77.0536691,24.6316508 L77.0536691,112.960436 L52.245345,112.960436 L52.245345,112.803547 Z M149.671413,44.7135062 L126.998905,44.7135062 L126.998905,80.9549792 C126.998905,84.5634377 127.163198,86.9167801 127.327492,88.4856751 C127.491785,89.8976809 128.148959,91.152797 129.299014,92.2510234 C130.449069,93.3492497 132.256298,93.8199183 134.720701,93.8199183 L148.849945,93.5061394 L150,112.332879 C141.785323,114.058663 135.377875,115 131.106243,115 C119.934282,115 112.37678,112.646658 108.433735,107.783083 C104.326396,103.076398 102.354874,94.2905869 102.354874,81.4256479 L102.354874,0 L127.163198,0 L127.163198,24.4747613 L149.835706,24.4747613 L149.835706,44.7135062 L149.671413,44.7135062 Z M14.9507119,51.4597544 C10.67908,51.4597544 7.06462214,50.047749 4.27163198,47.2237381 C1.47864184,44.3997272 0,40.9481582 0,36.8690314 C0,32.7899045 1.47864184,29.3383356 4.10733845,26.5143247 C6.90032857,23.6903137 10.5147864,22.4351978 14.7864184,22.4351978 C19.0580504,22.4351978 22.6725082,23.8472032 25.4654984,26.6712142 C28.2584885,29.4952251 29.5728368,32.946794 29.5728368,37.1828104 C29.5728368,41.4188267 28.2584885,44.7135062 25.4654984,47.5375171 C22.8368018,50.047749 19.3866374,51.4597544 14.9507119,51.4597544 Z"></path>
            </g>
            <path d="M218.784,145 L189.472,145 L189.472,57.96 L218.784,57.96 C226.293371,57.96 232.479976,58.7493254 237.344,60.328 C242.208024,61.9066746 245.983987,64.5093152 248.672,68.136 C251.360013,71.7626848 253.215995,76.0293088 254.24,80.936 C255.264005,85.8426912 255.776,92.2212941 255.776,100.072 C255.776,107.922706 255.306671,114.429308 254.368,119.592 C253.429329,124.754692 251.65868,129.362646 249.056,133.416 C246.45332,137.469354 242.677358,140.413324 237.728,142.248 C232.778642,144.082676 226.464038,145 218.784,145 Z M237.344,110.44 C237.514668,107.70932 237.6,103.933357 237.6,99.112 C237.6,94.2906426 237.429335,90.4293478 237.088,87.528 C236.746665,84.6266522 235.936006,81.9813453 234.656,79.592 C233.375994,77.2026547 231.477346,75.5600045 228.96,74.664 C226.442654,73.7679955 223.050688,73.32 218.784,73.32 L207.136,73.32 L207.136,129.64 L218.784,129.64 C225.184032,129.64 229.834652,128.018683 232.736,124.776 C235.210679,122.130653 236.746664,117.352035 237.344,110.44 Z M273.056,88.296 C277.578689,82.4079706 285.130614,79.464 295.712,79.464 C306.293386,79.464 313.845311,82.3866374 318.368,88.232 C322.890689,94.0773626 325.152,102.290614 325.152,112.872 C325.152,135.314779 315.338765,146.536 295.712,146.536 C276.085235,146.536 266.272,135.314779 266.272,112.872 C266.272,102.290614 268.533311,94.0986957 273.056,88.296 Z M286.24,127.336 C288.032009,130.408015 291.189311,131.944 295.712,131.944 C300.234689,131.944 303.370658,130.408015 305.12,127.336 C306.869342,124.263985 307.744,119.4427 307.744,112.872 C307.744,106.3013 306.869342,101.522682 305.12,98.536 C303.370658,95.5493184 300.234689,94.056 295.712,94.056 C291.189311,94.056 288.053342,95.5493184 286.304,98.536 C284.554658,101.522682 283.68,106.3013 283.68,112.872 C283.68,119.4427 284.533325,124.263985 286.24,127.336 Z M361.632,79.464 C366.069356,79.464 371.743965,80.1466598 378.656,81.512 L382.112,82.28 L381.6,95.848 C374.858633,95.1653299 369.866683,94.824 366.624,94.824 C360.735971,94.824 356.83201,96.0826541 354.912,98.6 C352.99199,101.117346 352.032,105.874632 352.032,112.872 C352.032,119.869368 352.99199,124.66932 354.912,127.272 C356.83201,129.87468 360.778637,131.176 366.752,131.176 L381.6,130.152 L382.112,143.848 C372.981288,145.640009 366.026691,146.536 361.248,146.536 C351.775953,146.536 344.970687,143.86936 340.832,138.536 C336.693313,133.20264 334.624,124.648059 334.624,112.872 C334.624,101.095941 336.757312,92.5840262 341.024,87.336 C345.290688,82.0879738 352.159953,79.464 361.632,79.464 Z M440.736,97 C430.154614,95.6346598 422.752021,94.952 418.528,94.952 C414.303979,94.952 411.57334,95.3359962 410.336,96.104 C409.09866,96.8720038 408.48,98.0879917 408.48,99.752 C408.48,101.416008 409.311992,102.567997 410.976,103.208 C412.640008,103.848003 416.906632,104.78666 423.776,106.024 C430.645368,107.26134 435.530652,109.287986 438.432,112.104 C441.333348,114.920014 442.784,119.485302 442.784,125.8 C442.784,139.624069 434.208086,146.536 417.056,146.536 C411.423972,146.536 404.597373,145.768008 396.576,144.232 L392.48,143.464 L392.992,129.128 C403.573386,130.49334 410.933313,131.176 415.072,131.176 C419.210687,131.176 422.026659,130.770671 423.52,129.96 C425.013341,129.149329 425.76,127.933341 425.76,126.312 C425.76,124.690659 424.970675,123.496004 423.392,122.728 C421.813325,121.959996 417.717366,121.021339 411.104,119.912 C404.490634,118.802661 399.562683,116.925347 396.32,114.28 C393.077317,111.634653 391.456,106.920034 391.456,100.136 C391.456,93.3519661 393.759977,88.2320173 398.368,84.776 C402.976023,81.3199827 408.90663,79.592 416.16,79.592 C421.194692,79.592 428.063956,80.4026586 436.768,82.024 L440.992,82.792 L440.736,97 Z"></path>
        </g>
    </g>
</svg>
