<?xml version="1.0" encoding="UTF-8" standalone="no"?>
<svg
   width="498px"
   height="127px"
   viewBox="0 0 498 127"
   version="1.1"
   id="svg14"
   sodipodi:docname="Slack_Matrix.svg"
   xml:space="preserve"
   inkscape:version="1.3.2 (091e20ef0f, 2023-11-25)"
   xmlns:inkscape="http://www.inkscape.org/namespaces/inkscape"
   xmlns:sodipodi="http://sodipodi.sourceforge.net/DTD/sodipodi-0.dtd"
   xmlns="http://www.w3.org/2000/svg"
   xmlns:svg="http://www.w3.org/2000/svg"><defs
     id="defs14" /><sodipodi:namedview
     id="namedview14"
     pagecolor="#ffffff"
     bordercolor="#666666"
     borderopacity="1.0"
     inkscape:showpageshadow="2"
     inkscape:pageopacity="0.0"
     inkscape:pagecheckerboard="0"
     inkscape:deskcolor="#d1d1d1"
     inkscape:zoom="2.7248996"
     inkscape:cx="189.54827"
     inkscape:cy="93.030951"
     inkscape:window-width="1920"
     inkscape:window-height="1011"
     inkscape:window-x="0"
     inkscape:window-y="0"
     inkscape:window-maximized="1"
     inkscape:current-layer="g13" /><g
     stroke="none"
     stroke-width="1"
     fill="none"
     fill-rule="evenodd"
     id="g14"><g
       fill="#06C"
       id="g13"><g
         id="g12"
         transform="translate(29.754537,0.09031297)"><g
           transform="translate(0,66)"
           id="g5"
           style="display:inline"><path
             d="M 27.2,14 C 27.2,21.3 21.3,27.2 14,27.2 6.7,27.2 0.8,21.3 0.8,14 0.8,6.7 6.7,0.8 14,0.8 h 13.2 z"
             id="path4" /><path
             d="M 33.8,14 C 33.8,6.7 39.7,0.8 47,0.8 54.3,0.8 60.2,6.7 60.2,14 V 47 C 60.2,54.3 54.3,60.2 47,60.2 39.7,60.2 33.8,54.3 33.8,47 Z"
             id="path5" /></g><g
           id="g7"><path
             d="M 47,27 C 39.7,27 33.8,21.1 33.8,13.8 33.8,6.5 39.7,0.6 47,0.6 c 7.3,0 13.2,5.9 13.2,13.2 V 27 Z"
             id="path6" /><path
             d="m 47,33.7 c 7.3,0 13.2,5.9 13.2,13.2 0,7.3 -5.9,13.2 -13.2,13.2 H 13.9 C 6.6,60.1 0.7,54.2 0.7,46.9 0.7,39.6 6.6,33.7 13.9,33.7 Z"
             id="path7" /></g><g
           transform="translate(66)"
           id="g9"><path
             d="m 33.9,46.9 c 0,-7.3 5.9,-13.2 13.2,-13.2 7.3,0 13.2,5.9 13.2,13.2 0,7.3 -5.9,13.2 -13.2,13.2 H 33.9 Z"
             id="path8" /><path
             d="m 27.3,46.9 c 0,7.3 -5.9,13.2 -13.2,13.2 C 6.8,60.1 0.9,54.2 0.9,46.9 V 13.8 C 0.9,6.5 6.8,0.6 14.1,0.6 c 7.3,0 13.2,5.9 13.2,13.2 z"
             id="path9" /></g><g
           transform="translate(66,66)"
           id="g11"><path
             d="m 14.1,33.8 c 7.3,0 13.2,5.9 13.2,13.2 0,7.3 -5.9,13.2 -13.2,13.2 C 6.8,60.2 0.9,54.3 0.9,47 V 33.8 Z"
             id="path10" /><path
             d="M 14.1,27.2 C 6.8,27.2 0.9,21.3 0.9,14 0.9,6.7 6.8,0.8 14.1,0.8 h 33.1 c 7.3,0 13.2,5.9 13.2,13.2 0,7.3 -5.9,13.2 -13.2,13.2 z"
             id="path11" /></g></g><path
         d="M 225.07056,12.293814 V 114.00315 h 7.31161 v 2.43943 H 222.26789 V 9.8677192 h 10.11095 v 2.4394248 z m 28.16002,32.242394 v 5.145452 h 0.14664 a 14.866493,14.866493 0 0 1 4.95549,-4.558924 c 1.93288,-1.076413 4.14903,-1.616285 6.64178,-1.616285 2.39943,0 4.5889,0.466556 6.57178,1.39967 1.98286,0.92978 3.48917,2.569394 4.5156,4.922171 1.1264,-1.666272 2.6527,-3.135927 4.58892,-4.408959 1.93288,-1.276366 4.219,-1.912882 6.86504,-1.912882 2.00619,0 3.86575,0.246607 5.57868,0.73316 1.71294,0.493216 3.17926,1.276366 4.40564,2.356111 1.21971,1.076412 2.17614,2.486079 2.86265,4.22567 0.68317,1.73959 1.02642,3.83243 1.02642,6.288515 V 82.547242 H 290.96836 V 61.005656 c 0,-1.276365 -0.05,-2.476082 -0.14665,-3.605815 a 7.6815214,7.6815214 0 0 0 -0.80647,-2.939308 4.908842,4.908842 0 0 0 -1.9462,-1.986197 c -0.85647,-0.486552 -2.01953,-0.733162 -3.48918,-0.733162 -1.46632,0 -2.65271,0.283267 -3.55916,0.843136 -0.90645,0.566532 -1.61628,1.299693 -2.12949,2.206146 a 8.8445804,8.8445804 0 0 0 -1.02644,3.089271 23.57444,23.57444 0 0 0 -0.25993,3.492509 V 82.547242 H 267.18063 V 61.225604 c 0,-1.126401 -0.0234,-2.242804 -0.07,-3.345877 a 9.4144459,9.4144459 0 0 0 -0.62651,-3.052614 4.7022242,4.7022242 0 0 0 -1.8329,-2.242803 c -0.85981,-0.559869 -2.1195,-0.843136 -3.78245,-0.843136 a 7.7648352,7.7648352 0 0 0 -1.9462,0.333256 6.4651417,6.4651417 0 0 0 -2.34945,1.246372 c -0.75983,0.613189 -1.40634,1.496313 -1.9462,2.646043 -0.53655,1.153061 -0.80649,2.659372 -0.80649,4.522266 V 82.547242 H 243.39291 V 44.522878 Z m 54.85373,5.588682 a 12.500385,12.500385 0 0 1 4.10903,-3.899081 17.895779,17.895779 0 0 1 5.61535,-2.096172 31.92247,31.92247 0 0 1 6.27852,-0.623186 c 1.90955,0 3.84242,0.133297 5.79862,0.403238 1.95955,0.269937 3.74578,0.799811 5.36208,1.582959 1.61296,0.78315 2.93263,1.872892 3.96573,3.26923 1.02643,1.39967 1.53964,3.249233 1.53964,5.552024 v 19.775334 c 0,1.719596 0.10003,3.359209 0.29326,4.925506 0.19328,1.56963 0.53654,2.746019 1.02643,3.5325 h -10.56751 a 14.779846,14.779846 0 0 1 -0.73316,-3.679133 c -1.66627,1.716263 -3.62249,2.919312 -5.87196,3.602485 a 23.607765,23.607765 0 0 1 -6.90169,1.033088 c -1.81291,0 -3.49918,-0.22328 -5.06548,-0.666509 a 11.570604,11.570604 0 0 1 -4.11236,-2.056181 9.5644106,9.5644106 0 0 1 -2.75269,-3.529168 c -0.66318,-1.419665 -0.99309,-3.112599 -0.99309,-5.072137 0,-2.156159 0.3799,-3.932406 1.13973,-5.332076 0.75649,-1.396336 1.73292,-2.509407 2.93597,-3.345877 1.19972,-0.833137 2.56939,-1.456323 4.11236,-1.872891 1.53964,-0.416569 3.09594,-0.746491 4.66224,-0.9931 1.56629,-0.243276 3.10592,-0.439896 4.62224,-0.586527 1.51965,-0.146633 2.86599,-0.366581 4.03904,-0.663178 1.17639,-0.293263 2.10285,-0.723162 2.78935,-1.286363 0.6865,-0.5632 1.0031,-1.383007 0.95643,-2.466084 0,-1.123069 -0.18329,-2.019525 -0.55319,-2.679369 a 4.0557099,4.0557099 0 0 0 -1.46631,-1.546302 5.7886345,5.7886345 0 0 0 -2.12952,-0.73316 17.635841,17.635841 0 0 0 -2.60605,-0.18329 c -2.05616,0 -3.66913,0.439896 -4.84551,1.32302 -1.17307,0.879793 -1.85957,2.35278 -2.05619,4.408961 h -10.42421 c 0.14662,-2.449423 0.7565,-4.482277 1.8329,-6.098561 z m 20.59181,14.739856 a 16.979328,16.979328 0 0 1 -2.1295,0.54987 32.259057,32.259057 0 0 1 -2.3861,0.36658 c -0.83315,0.09998 -1.66627,0.22328 -2.49607,0.366581 a 18.715586,18.715586 0 0 0 -2.31279,0.589861 6.8550498,6.8550498 0 0 0 -1.97953,0.993098 c -0.56653,0.416569 -1.01644,0.946443 -1.35969,1.579627 -0.34325,0.639849 -0.51321,1.446327 -0.51321,2.426096 0,0.933113 0.16996,1.716261 0.51321,2.352777 0.34325,0.639849 0.80648,1.139733 1.39634,1.509645 0.58652,0.36658 1.2697,0.623186 2.05619,0.769818 0.77982,0.146632 1.58962,0.219948 2.41942,0.219948 2.05618,0 3.64581,-0.339919 4.77221,-1.029757 1.1264,-0.683173 1.95621,-1.506311 2.49941,-2.462753 0.53321,-0.953107 0.86646,-1.919546 0.98977,-2.899315 0.11999,-0.983102 0.1833,-1.76625 0.1833,-2.35611 V 63.94163 a 4.6655662,4.6655662 0 0 1 -1.65296,0.923116 z m 39.52402,-20.328538 v 6.985018 h -7.63487 v 18.818895 c 0,1.76625 0.29326,2.94264 0.8798,3.529167 0.58652,0.589862 1.7629,0.883125 3.52248,0.883125 0.58987,0 1.14974,-0.02332 1.68962,-0.07331 0.53654,-0.04998 1.05307,-0.123309 1.54297,-0.219948 v 8.084759 a 24.960779,24.960779 0 0 1 -2.93931,0.296597 72.216299,72.216299 0 0 1 -3.15593,0.07332 c -1.61295,0 -3.14591,-0.113306 -4.58891,-0.333255 a 10.774125,10.774125 0 0 1 -3.81577,-1.286363 6.7983964,6.7983964 0 0 1 -2.60605,-2.719359 c -0.63652,-1.176388 -0.95644,-2.719358 -0.95644,-4.632241 V 51.521225 h -6.31184 v -6.985018 h 6.31184 V 33.138893 h 10.42754 v 11.397314 h 7.63154 z m 14.89981,0 v 7.058334 h 0.14664 a 13.020262,13.020262 0 0 1 4.84552,-5.845287 14.040022,14.040022 0 0 1 3.45251,-1.656276 12.443732,12.443732 0 0 1 3.81577,-0.586528 c 0.68651,0 1.44299,0.123308 2.27614,0.366579 v 9.704377 a 19.535392,19.535392 0 0 0 -1.75959,-0.256605 18.548958,18.548958 0 0 0 -1.98288,-0.109965 c -1.90954,0 -3.52583,0.319925 -4.8455,0.956442 a 8.3980191,8.3980191 0 0 0 -3.1926,2.609383 10.474196,10.474196 0 0 0 -1.72625,3.85909 21.061699,21.061699 0 0 0 -0.51321,4.778873 V 82.543919 H 373.1923 V 44.55287 Z m 18.9422,-5.881946 v -8.604637 h 10.42421 v 8.604637 h -10.42088 z m 10.42421,5.881946 V 82.527247 H 402.04548 V 44.536208 h 10.42421 z m 5.43205,0 h 11.89386 l 6.68176,9.924325 6.60511,-9.924325 h 11.52728 l -12.48039,17.792469 14.02335,20.218565 h -11.89719 l -7.9248,-11.98384 -7.93146,11.98384 h -11.67057 l 13.65345,-19.998616 z m 50.98796,69.450282 V 12.277151 h -7.3116 V 9.8377263 h 10.11428 V 116.41258 h -10.11428 v -2.43941 z"
         id="path1"
         style="fill:#0066cc;fill-opacity:1;stroke-width:3.33255" /><path
         style="fill:#0066cc;stroke:#000000;stroke-width:10;stroke-linecap:butt;stroke-linejoin:miter;stroke-opacity:1;fill-opacity:1;stroke-dasharray:none"
         d="M 193.66253,86.099789 Z"
         id="path16" /><g
         id="g17"
         transform="translate(-4.568689,0.58201686)"><path
           style="fill:none;stroke:#000000;stroke-width:4;stroke-linecap:butt;stroke-linejoin:miter;stroke-dasharray:none;stroke-opacity:1"
           d="M 197.13742,50.307186 V 80.162071"
           id="path17" /><path
           style="fill:none;stroke:#000000;stroke-width:4;stroke-linecap:butt;stroke-linejoin:miter;stroke-dasharray:none;stroke-opacity:1"
           d="M 211.71466,65.452147 H 181.85978"
           id="path17-3" /></g></g></g></svg>
