<?xml version="1.0" encoding="utf-8"?>
<!-- Generated by IcoMoon.io -->
<!DOCTYPE svg PUBLIC "-//W3C//DTD SVG 1.1//EN" "http://www.w3.org/Graphics/SVG/1.1/DTD/svg11.dtd">
<svg version="1.1" xmlns="http://www.w3.org/2000/svg" xmlns:xlink="http://www.w3.org/1999/xlink" width="32" height="32" viewBox="0 0 32 32">
<path d="M30.222 7.111v17.778h-28.444v-17.778h28.444zM30.222 5.333h-28.444c-1.067 0-1.778 0.711-1.778 1.778v17.778c0 1.067 0.711 1.778 1.778 1.778h28.444c1.067 0 1.778-0.711 1.778-1.778v-17.778c0-1.067-0.711-1.778-1.778-1.778v0z"></path>
<path d="M21.333 10.667c3.022 0 5.333 2.311 5.333 5.333s-2.311 5.333-5.333 5.333-5.333-2.311-5.333-5.333 2.311-5.333 5.333-5.333zM21.333 8.889c-3.911 0-7.111 3.2-7.111 7.111s3.2 7.111 7.111 7.111 7.111-3.2 7.111-7.111-3.2-7.111-7.111-7.111v0z"></path>
<path d="M12.444 10.667c0 0.982-0.796 1.778-1.778 1.778s-1.778-0.796-1.778-1.778c0-0.982 0.796-1.778 1.778-1.778s1.778 0.796 1.778 1.778z"></path>
</svg>
