<?xml version="1.0" encoding="utf-8"?>
<!-- Generated by IcoMoon.io -->
<!DOCTYPE svg PUBLIC "-//W3C//DTD SVG 1.1//EN" "http://www.w3.org/Graphics/SVG/1.1/DTD/svg11.dtd">
<svg version="1.1" xmlns="http://www.w3.org/2000/svg" xmlns:xlink="http://www.w3.org/1999/xlink" width="32" height="32" viewBox="0 0 32 32">
<path d="M30 2v20h-22c-0.6 0-1 0.2-1.4 0.6l-4.6 4.6v-25.2h28zM30 0h-28c-1.2 0-2 0.8-2 2v20c0 1.2 0 10 0 10l8-8h22c1.2 0 2-0.8 2-2v-20c0-1.2-0.8-2-2-2v0z"></path>
<path d="M8 7h16v2h-16v-2z"></path>
<path d="M8 13h16v2h-16v-2z"></path>
</svg>
